<?xml version="1.0" encoding="UTF-8" standalone="no"?>
<!DOCTYPE svg PUBLIC "-//W3C//DTD SVG 1.1//EN"
 "http://www.w3.org/Graphics/SVG/1.1/DTD/svg11.dtd">
<!-- Generated by graphviz version 2.40.1 (20161225.0304)
 -->
<!-- Title: operazioni_client0 Pages: 1 -->
<svg width="783pt" height="757pt"
 viewBox="0.00 0.00 783.00 757.23" xmlns="http://www.w3.org/2000/svg" xmlns:xlink="http://www.w3.org/1999/xlink">
<g id="graph0" class="graph" transform="scale(1 1) rotate(0) translate(4 753.2348)">
<title>operazioni_client0</title>
<!-- Node57 -->
<g id="node1" class="node">
<title>Node57</title>
<polygon fill="#bfbfbf" stroke="#000000" points="0,-410.0262 0,-429.0262 106,-429.0262 106,-410.0262 0,-410.0262"/>
<text text-anchor="middle" x="53" y="-417.0262" font-family="Helvetica,sans-Serif" font-size="10.00" fill="#000000">operazioni_client0</text>
</g>
<!-- Node58 -->
<g id="node2" class="node">
<title>Node58</title>
<g id="a_node2"><a xlink:href="shared__memory_8c.html#a660a60242a5174977ab2debcdbd0e587" target="_top" xlink:title="Ottiene l&#39;id o crea una memoria condivisa. ">
<polygon fill="none" stroke="#000000" points="565,-676.0262 565,-695.0262 690,-695.0262 690,-676.0262 565,-676.0262"/>
<text text-anchor="middle" x="627.5" y="-683.0262" font-family="Helvetica,sans-Serif" font-size="10.00" fill="#000000">alloc_shared_memory</text>
</a>
</g>
</g>
<!-- Node57&#45;&gt;Node58 -->
<g id="edge1" class="edge">
<title>Node57&#45;&gt;Node58</title>
<path fill="none" stroke="#191970" d="M54.6959,-429.1666C62.6375,-473.1003 97.6376,-653.5896 142,-685.5262 205.9761,-731.5827 435.6522,-710.3362 554.7341,-695.5497"/>
<polygon fill="#191970" stroke="#191970" points="555.3732,-698.997 564.8576,-694.2752 554.4987,-692.0518 555.3732,-698.997"/>
</g>
<!-- Node59 -->
<g id="node3" class="node">
<title>Node59</title>
<g id="a_node3"><a xlink:href="err__exit_8c.html#aa223b0ecfe538d130ece562646a37d27" target="_top" xlink:title="Prints the error message of the last failed system call and terminates the calling process...">
<polygon fill="none" stroke="#000000" points="726,-391.0262 726,-410.0262 775,-410.0262 775,-391.0262 726,-391.0262"/>
<text text-anchor="middle" x="750.5" y="-398.0262" font-family="Helvetica,sans-Serif" font-size="10.00" fill="#000000">ErrExit</text>
</a>
</g>
</g>
<!-- Node57&#45;&gt;Node59 -->
<g id="edge18" class="edge">
<title>Node57&#45;&gt;Node59</title>
<path fill="none" stroke="#191970" d="M54.5671,-429.3052C62.1901,-475.6274 96.87,-672.3621 142,-711.5262 209.6044,-770.1938 251.4888,-742.5262 341,-742.5262 341,-742.5262 341,-742.5262 482.5,-742.5262 576.2559,-742.5262 623.1986,-770.3118 690,-704.5262 730.7029,-664.4421 745.5053,-481.7431 749.3719,-420.5591"/>
<polygon fill="#191970" stroke="#191970" points="752.8813,-420.5062 749.9872,-410.3143 745.8939,-420.0864 752.8813,-420.5062"/>
</g>
<!-- Node60 -->
<g id="node4" class="node">
<title>Node60</title>
<g id="a_node4"><a xlink:href="defines_8c.html#a2d341373a96ffea0944553e5452cdbca" target="_top" xlink:title="get_ipc_key">
<polygon fill="none" stroke="#000000" points="156.5,-657.0262 156.5,-676.0262 231.5,-676.0262 231.5,-657.0262 156.5,-657.0262"/>
<text text-anchor="middle" x="194" y="-664.0262" font-family="Helvetica,sans-Serif" font-size="10.00" fill="#000000">get_ipc_key</text>
</a>
</g>
</g>
<!-- Node57&#45;&gt;Node60 -->
<g id="edge3" class="edge">
<title>Node57&#45;&gt;Node60</title>
<path fill="none" stroke="#191970" d="M53.9784,-429.2988C57.9699,-464.0556 76.0908,-583.0413 142,-647.5262 143.6746,-649.1646 145.5018,-650.6633 147.4372,-652.034"/>
<polygon fill="#191970" stroke="#191970" points="146.07,-655.2863 156.4793,-657.2603 149.573,-649.2258 146.07,-655.2863"/>
</g>
<!-- Node62 -->
<g id="node6" class="node">
<title>Node62</title>
<g id="a_node6"><a xlink:href="shared__memory_8c.html#ab2ffe00ec7425a3a4229cd0d53ed901c" target="_top" xlink:title="Recupera il puntatore alla memoria condivisa aggiungendola allo spazio degli indirizzi. ">
<polygon fill="none" stroke="#000000" points="569,-581.0262 569,-600.0262 686,-600.0262 686,-581.0262 569,-581.0262"/>
<text text-anchor="middle" x="627.5" y="-588.0262" font-family="Helvetica,sans-Serif" font-size="10.00" fill="#000000">get_shared_memory</text>
</a>
</g>
</g>
<!-- Node57&#45;&gt;Node62 -->
<g id="edge6" class="edge">
<title>Node57&#45;&gt;Node62</title>
<path fill="none" stroke="#191970" d="M58.7996,-429.0592C71.3519,-448.8369 103.0701,-494.4086 142,-517.5262 273.4793,-595.6019 459.1103,-600.0993 558.426,-595.8006"/>
<polygon fill="#191970" stroke="#191970" points="558.8175,-599.286 568.6396,-595.314 558.4843,-592.2939 558.8175,-599.286"/>
</g>
<!-- Node63 -->
<g id="node7" class="node">
<title>Node63</title>
<g id="a_node7"><a xlink:href="defines_8c.html#afd25e0dffe44c8dd59ae86caabb94287" target="_top" xlink:title="get_ipc_key2">
<polygon fill="none" stroke="#000000" points="153.5,-619.0262 153.5,-638.0262 234.5,-638.0262 234.5,-619.0262 153.5,-619.0262"/>
<text text-anchor="middle" x="194" y="-626.0262" font-family="Helvetica,sans-Serif" font-size="10.00" fill="#000000">get_ipc_key2</text>
</a>
</g>
</g>
<!-- Node57&#45;&gt;Node63 -->
<g id="edge8" class="edge">
<title>Node57&#45;&gt;Node63</title>
<path fill="none" stroke="#191970" d="M55.2109,-429.3458C62.4521,-459.4361 88.1456,-551.5261 142,-604.5262 145.8002,-608.2661 150.2901,-611.4923 155.0139,-614.2559"/>
<polygon fill="#191970" stroke="#191970" points="153.7728,-617.5533 164.2665,-619.0137 156.9739,-611.3281 153.7728,-617.5533"/>
</g>
<!-- Node64 -->
<g id="node8" class="node">
<title>Node64</title>
<g id="a_node8"><a xlink:href="semaphore_8c.html#afee4d9b0eb613bf632622e9244204d51" target="_top" xlink:title="Ottiene un insieme di semafori gia&#39; creato. ">
<polygon fill="none" stroke="#000000" points="436,-505.0262 436,-524.0262 529,-524.0262 529,-505.0262 436,-505.0262"/>
<text text-anchor="middle" x="482.5" y="-512.0262" font-family="Helvetica,sans-Serif" font-size="10.00" fill="#000000">getSemaphores</text>
</a>
</g>
</g>
<!-- Node57&#45;&gt;Node64 -->
<g id="edge10" class="edge">
<title>Node57&#45;&gt;Node64</title>
<path fill="none" stroke="#191970" d="M70.1713,-429.1658C87.6987,-438.5852 115.9524,-452.6258 142,-460.5262 239.2468,-490.0218 357.274,-504.1457 425.7427,-510.3136"/>
<polygon fill="#191970" stroke="#191970" points="425.6187,-513.8161 435.8859,-511.2016 426.2292,-506.8427 425.6187,-513.8161"/>
</g>
<!-- Node66 -->
<g id="node10" class="node">
<title>Node66</title>
<g id="a_node10"><a xlink:href="fifo_8c.html#a54a1ae8162825128cf02f95692402c18" target="_top" xlink:title="Facilita la creazione di una FIFO (o ne ottiene una esistente) in modalita&#39; lettura o scrittura...">
<polygon fill="none" stroke="#000000" points="448.5,-543.0262 448.5,-562.0262 516.5,-562.0262 516.5,-543.0262 448.5,-543.0262"/>
<text text-anchor="middle" x="482.5" y="-550.0262" font-family="Helvetica,sans-Serif" font-size="10.00" fill="#000000">create_fifo</text>
</a>
</g>
</g>
<!-- Node57&#45;&gt;Node66 -->
<g id="edge14" class="edge">
<title>Node57&#45;&gt;Node66</title>
<path fill="none" stroke="#191970" d="M62.6944,-429.2555C78.0769,-444.0884 109.6599,-472.1469 142,-486.5262 241.754,-530.8796 370.995,-545.513 437.9251,-550.2764"/>
<polygon fill="#191970" stroke="#191970" points="437.9062,-553.7829 448.1179,-550.9592 438.3742,-546.7986 437.9062,-553.7829"/>
</g>
<!-- Node68 -->
<g id="node12" class="node">
<title>Node68</title>
<g id="a_node12"><a xlink:href="files_8c.html#a627e4b202ea71f3bd241ccf562449bd6" target="_top" xlink:title="find_sendme_files">
<polygon fill="none" stroke="#000000" points="142,-297.0262 142,-316.0262 246,-316.0262 246,-297.0262 142,-297.0262"/>
<text text-anchor="middle" x="194" y="-304.0262" font-family="Helvetica,sans-Serif" font-size="10.00" fill="#000000">find_sendme_files</text>
</a>
</g>
</g>
<!-- Node57&#45;&gt;Node68 -->
<g id="edge19" class="edge">
<title>Node57&#45;&gt;Node68</title>
<path fill="none" stroke="#191970" d="M63.7023,-409.8489C80.1616,-395.0906 112.8455,-366.2749 142,-343.5262 151.4,-336.1915 162.0855,-328.4855 171.3149,-322.0162"/>
<polygon fill="#191970" stroke="#191970" points="173.4093,-324.823 179.628,-316.2452 169.4174,-319.0727 173.4093,-324.823"/>
</g>
<!-- Node75 -->
<g id="node19" class="node">
<title>Node75</title>
<g id="a_node19"><a xlink:href="files_8c.html#a1cdd9b5b37408e31d80f31e474a71483" target="_top" xlink:title="Visualizza il contenuto della lista concatenata di filePath. ">
<polygon fill="none" stroke="#000000" points="164.5,-259.0262 164.5,-278.0262 223.5,-278.0262 223.5,-259.0262 164.5,-259.0262"/>
<text text-anchor="middle" x="194" y="-266.0262" font-family="Helvetica,sans-Serif" font-size="10.00" fill="#000000">print_list</text>
</a>
</g>
</g>
<!-- Node57&#45;&gt;Node75 -->
<g id="edge28" class="edge">
<title>Node57&#45;&gt;Node75</title>
<path fill="none" stroke="#191970" d="M57.028,-409.7006C67.4441,-385.4627 97.5939,-322.2713 142,-287.5262 145.8653,-284.5018 150.2575,-281.928 154.8126,-279.7454"/>
<polygon fill="#191970" stroke="#191970" points="156.3947,-282.8777 164.2747,-275.7956 153.6981,-276.4179 156.3947,-282.8777"/>
</g>
<!-- Node76 -->
<g id="node20" class="node">
<title>Node76</title>
<g id="a_node20"><a xlink:href="files_8c.html#a3ba19f05c37434e7f20facff3445651a" target="_top" xlink:title="Conta il numero di file nella lista concatenata di filePath. ">
<polygon fill="none" stroke="#000000" points="159.5,-221.0262 159.5,-240.0262 228.5,-240.0262 228.5,-221.0262 159.5,-221.0262"/>
<text text-anchor="middle" x="194" y="-228.0262" font-family="Helvetica,sans-Serif" font-size="10.00" fill="#000000">count_files</text>
</a>
</g>
</g>
<!-- Node57&#45;&gt;Node76 -->
<g id="edge29" class="edge">
<title>Node57&#45;&gt;Node76</title>
<path fill="none" stroke="#191970" d="M55.382,-409.908C62.9507,-381.2972 89.1264,-295.8446 142,-249.5262 144.4943,-247.3412 147.2607,-245.4 150.1805,-243.6766"/>
<polygon fill="#191970" stroke="#191970" points="151.8976,-246.7314 159.282,-239.134 148.7715,-240.4682 151.8976,-246.7314"/>
</g>
<!-- Node77 -->
<g id="node21" class="node">
<title>Node77</title>
<g id="a_node21"><a xlink:href="client_8c.html#a748983b7ce27515a3ad116ada4334c4e" target="_top" xlink:title="int_to_string">
<polygon fill="none" stroke="#000000" points="155.5,-183.0262 155.5,-202.0262 232.5,-202.0262 232.5,-183.0262 155.5,-183.0262"/>
<text text-anchor="middle" x="194" y="-190.0262" font-family="Helvetica,sans-Serif" font-size="10.00" fill="#000000">int_to_string</text>
</a>
</g>
</g>
<!-- Node57&#45;&gt;Node77 -->
<g id="edge30" class="edge">
<title>Node57&#45;&gt;Node77</title>
<path fill="none" stroke="#191970" d="M54.4,-409.6987C59.5886,-376.84 80.6963,-269.6059 142,-211.5262 143.6724,-209.9417 145.4875,-208.4874 147.4038,-207.1528"/>
<polygon fill="#191970" stroke="#191970" points="149.3934,-210.0466 156.3263,-202.035 145.9105,-203.9745 149.3934,-210.0466"/>
</g>
<!-- Node78 -->
<g id="node22" class="node">
<title>Node78</title>
<g id="a_node22"><a xlink:href="semaphore_8c.html#a2581efba6a0833e3f289de94c779cc21" target="_top" xlink:title="Esegue la wait sul semaforo sem_num: decrementa il valore di 1 ed eventualmente mette in attesa il pr...">
<polygon fill="none" stroke="#000000" points="453,-467.0262 453,-486.0262 512,-486.0262 512,-467.0262 453,-467.0262"/>
<text text-anchor="middle" x="482.5" y="-474.0262" font-family="Helvetica,sans-Serif" font-size="10.00" fill="#000000">semWait</text>
</a>
</g>
</g>
<!-- Node57&#45;&gt;Node78 -->
<g id="edge31" class="edge">
<title>Node57&#45;&gt;Node78</title>
<path fill="none" stroke="#191970" d="M90.9271,-429.04C106.6512,-432.7253 125.1276,-436.7229 142,-439.5262 250.0742,-457.4824 378.9545,-468.7572 442.7136,-473.6672"/>
<polygon fill="#191970" stroke="#191970" points="442.5056,-477.1613 452.7418,-474.428 443.0353,-470.1814 442.5056,-477.1613"/>
</g>
<!-- Node79 -->
<g id="node23" class="node">
<title>Node79</title>
<g id="a_node23"><a xlink:href="client_8c.html#ac129a55ffa08a55addb9ea1afbd709f8" target="_top" xlink:title="strEquals">
<polygon fill="none" stroke="#000000" points="163,-145.0262 163,-164.0262 225,-164.0262 225,-145.0262 163,-145.0262"/>
<text text-anchor="middle" x="194" y="-152.0262" font-family="Helvetica,sans-Serif" font-size="10.00" fill="#000000">strEquals</text>
</a>
</g>
</g>
<!-- Node57&#45;&gt;Node79 -->
<g id="edge33" class="edge">
<title>Node57&#45;&gt;Node79</title>
<path fill="none" stroke="#191970" d="M53.6395,-410.0099C56.5694,-373.9181 71.7799,-243.9696 142,-173.5262 145.2952,-170.2205 149.2115,-167.4852 153.3946,-165.2229"/>
<polygon fill="#191970" stroke="#191970" points="155.1477,-168.2727 162.8409,-160.9881 152.2841,-161.8852 155.1477,-168.2727"/>
</g>
<!-- Node80 -->
<g id="node24" class="node">
<title>Node80</title>
<g id="a_node24"><a xlink:href="semaphore_8c.html#a7bad0eb0b0c6ac701b59c36b8b7837bf" target="_top" xlink:title="Esegue la signal sul semaforo sem_num: incrementa il valore di 1. ">
<polygon fill="none" stroke="#000000" points="448.5,-429.0262 448.5,-448.0262 516.5,-448.0262 516.5,-429.0262 448.5,-429.0262"/>
<text text-anchor="middle" x="482.5" y="-436.0262" font-family="Helvetica,sans-Serif" font-size="10.00" fill="#000000">semSignal</text>
</a>
</g>
</g>
<!-- Node57&#45;&gt;Node80 -->
<g id="edge34" class="edge">
<title>Node57&#45;&gt;Node80</title>
<path fill="none" stroke="#191970" d="M106.0959,-421.875C191.692,-425.6616 358.6156,-433.0458 438.2165,-436.5672"/>
<polygon fill="#191970" stroke="#191970" points="438.25,-440.072 448.3949,-437.0175 438.5594,-433.0788 438.25,-440.072"/>
</g>
<!-- Node81 -->
<g id="node25" class="node">
<title>Node81</title>
<g id="a_node25"><a xlink:href="semaphore_8c.html#a40485eedbf6d56f7fd27bce5a537efbe" target="_top" xlink:title="Attende che il semaforo sem_num raggiunga il valore zero. ">
<polygon fill="none" stroke="#000000" points="300,-353.0262 300,-372.0262 382,-372.0262 382,-353.0262 300,-353.0262"/>
<text text-anchor="middle" x="341" y="-360.0262" font-family="Helvetica,sans-Serif" font-size="10.00" fill="#000000">semWaitZero</text>
</a>
</g>
</g>
<!-- Node57&#45;&gt;Node81 -->
<g id="edge36" class="edge">
<title>Node57&#45;&gt;Node81</title>
<path fill="none" stroke="#191970" d="M101.79,-409.9617C140.8143,-402.3016 196.9268,-391.2645 246,-381.5262 260.205,-378.7073 275.6012,-375.6353 289.7805,-372.7993"/>
<polygon fill="#191970" stroke="#191970" points="290.737,-376.1773 299.8557,-370.7829 289.3632,-369.3134 290.737,-376.1773"/>
</g>
<!-- Node87 -->
<g id="node31" class="node">
<title>Node87</title>
<g id="a_node31"><a xlink:href="defines_8c.html#aea9b93cad897755a46cb9e3373ba8cc2" target="_top" xlink:title="Rende bloccante oppure non bloccante un file descriptor. ">
<polygon fill="none" stroke="#000000" points="166,-107.0262 166,-126.0262 222,-126.0262 222,-107.0262 166,-107.0262"/>
<text text-anchor="middle" x="194" y="-114.0262" font-family="Helvetica,sans-Serif" font-size="10.00" fill="#000000">blockFD</text>
</a>
</g>
</g>
<!-- Node57&#45;&gt;Node87 -->
<g id="edge51" class="edge">
<title>Node57&#45;&gt;Node87</title>
<path fill="none" stroke="#191970" d="M54.8336,-409.8911C63.5297,-365.0935 101.8662,-177.5764 142,-135.5262 145.9817,-131.3544 150.9534,-128.0944 156.2323,-125.548"/>
<polygon fill="#191970" stroke="#191970" points="157.9221,-128.6426 165.9187,-121.6924 155.3333,-122.1389 157.9221,-128.6426"/>
</g>
<!-- Node88 -->
<g id="node32" class="node">
<title>Node88</title>
<g id="a_node32"><a xlink:href="files_8c.html#a786a7b6f9c01e8489d7196a79f5f3862" target="_top" xlink:title="Libera la memoria dello HEAP occupata dalla lista di filePath. ">
<polygon fill="none" stroke="#000000" points="166,-69.0262 166,-88.0262 222,-88.0262 222,-69.0262 166,-69.0262"/>
<text text-anchor="middle" x="194" y="-76.0262" font-family="Helvetica,sans-Serif" font-size="10.00" fill="#000000">free_list</text>
</a>
</g>
</g>
<!-- Node57&#45;&gt;Node88 -->
<g id="edge52" class="edge">
<title>Node57&#45;&gt;Node88</title>
<path fill="none" stroke="#191970" d="M54.4493,-409.9288C61.9097,-361.6678 97.3664,-145.9128 142,-97.5262 145.9101,-93.2873 150.8438,-89.9917 156.1065,-87.43"/>
<polygon fill="#191970" stroke="#191970" points="157.7949,-90.5246 165.7846,-83.5665 155.1996,-84.0235 157.7949,-90.5246"/>
</g>
<!-- Node89 -->
<g id="node33" class="node">
<title>Node89</title>
<g id="a_node33"><a xlink:href="client_8c.html#a54b47b58f228d7bc9827d2919687e25a" target="_top" xlink:title="Funzione eseguita da ogni Client i (figli di Client 0) per mandare i file al server. ">
<polygon fill="none" stroke="#000000" points="145.5,-353.0262 145.5,-372.0262 242.5,-372.0262 242.5,-353.0262 145.5,-353.0262"/>
<text text-anchor="middle" x="194" y="-360.0262" font-family="Helvetica,sans-Serif" font-size="10.00" fill="#000000">operazioni_figlio</text>
</a>
</g>
</g>
<!-- Node57&#45;&gt;Node89 -->
<g id="edge53" class="edge">
<title>Node57&#45;&gt;Node89</title>
<path fill="none" stroke="#191970" d="M76.6002,-409.9857C99.6796,-400.6557 135.0313,-386.3646 160.9126,-375.902"/>
<polygon fill="#191970" stroke="#191970" points="162.3635,-379.0907 170.3228,-372.0978 159.7399,-372.6009 162.3635,-379.0907"/>
</g>
<!-- Node58&#45;&gt;Node59 -->
<g id="edge2" class="edge">
<title>Node58&#45;&gt;Node59</title>
<path fill="none" stroke="#191970" d="M648.7917,-675.9001C662.5377,-668.6236 679.714,-657.3511 690,-642.5262 715.4762,-605.808 739.1977,-471 747.4348,-420.131"/>
<polygon fill="#191970" stroke="#191970" points="750.9145,-420.5346 749.0321,-410.1084 744.0018,-419.4329 750.9145,-420.5346"/>
</g>
<!-- Node61 -->
<g id="node5" class="node">
<title>Node61</title>
<g id="a_node5"><a xlink:href="defines_8c.html#abe68b7232c057100c2e21586906436d7" target="_top" xlink:title="get_project_ipc_key">
<polygon fill="none" stroke="#000000" points="284,-619.0262 284,-638.0262 398,-638.0262 398,-619.0262 284,-619.0262"/>
<text text-anchor="middle" x="341" y="-626.0262" font-family="Helvetica,sans-Serif" font-size="10.00" fill="#000000">get_project_ipc_key</text>
</a>
</g>
</g>
<!-- Node60&#45;&gt;Node61 -->
<g id="edge4" class="edge">
<title>Node60&#45;&gt;Node61</title>
<path fill="none" stroke="#191970" d="M231.0943,-656.9372C250.3178,-651.9678 273.9863,-645.8495 294.4294,-640.5648"/>
<polygon fill="#191970" stroke="#191970" points="295.3667,-643.9377 304.1724,-638.0462 293.6147,-637.1605 295.3667,-643.9377"/>
</g>
<!-- Node61&#45;&gt;Node59 -->
<g id="edge5" class="edge">
<title>Node61&#45;&gt;Node59</title>
<path fill="none" stroke="#191970" d="M374.1852,-638.0815C441.7839,-655.3579 596.904,-683.5407 690,-609.5262 720.1112,-585.5868 740.6045,-467.449 747.7243,-420.1529"/>
<polygon fill="#191970" stroke="#191970" points="751.1916,-420.6303 749.1768,-410.2288 744.2654,-419.6165 751.1916,-420.6303"/>
</g>
<!-- Node62&#45;&gt;Node59 -->
<g id="edge7" class="edge">
<title>Node62&#45;&gt;Node59</title>
<path fill="none" stroke="#191970" d="M667.5608,-580.9593C675.7833,-577.5003 683.8074,-572.8258 690,-566.5262 730.5701,-525.2547 744.2016,-454.6514 748.5656,-420.3687"/>
<polygon fill="#191970" stroke="#191970" points="752.0662,-420.5605 749.7158,-410.2297 745.1108,-419.7714 752.0662,-420.5605"/>
</g>
<!-- Node63&#45;&gt;Node61 -->
<g id="edge9" class="edge">
<title>Node63&#45;&gt;Node61</title>
<path fill="none" stroke="#191970" d="M234.5575,-628.5262C246.6795,-628.5262 260.3088,-628.5262 273.6647,-628.5262"/>
<polygon fill="#191970" stroke="#191970" points="273.7952,-632.0263 283.7952,-628.5262 273.7952,-625.0263 273.7952,-632.0263"/>
</g>
<!-- Node64&#45;&gt;Node59 -->
<g id="edge11" class="edge">
<title>Node64&#45;&gt;Node59</title>
<path fill="none" stroke="#191970" d="M521.2365,-504.9633C577.0964,-491.0102 675.221,-465.8289 690,-457.5262 708.1644,-447.3215 725.083,-430.4978 736.3838,-417.7665"/>
<polygon fill="#191970" stroke="#191970" points="739.1034,-419.9717 742.9553,-410.1019 733.7892,-415.4154 739.1034,-419.9717"/>
</g>
<!-- Node65 -->
<g id="node9" class="node">
<title>Node65</title>
<g id="a_node9"><a xlink:href="semaphore_8c.html#a77c6570406059144bb6a8ecf04f481da" target="_top" xlink:title="Funzione di supporto per manipolare i valori di un set di semafori. ">
<polygon fill="none" stroke="#000000" points="602,-429.0262 602,-448.0262 653,-448.0262 653,-429.0262 602,-429.0262"/>
<text text-anchor="middle" x="627.5" y="-436.0262" font-family="Helvetica,sans-Serif" font-size="10.00" fill="#000000">semOp</text>
</a>
</g>
</g>
<!-- Node64&#45;&gt;Node65 -->
<g id="edge12" class="edge">
<title>Node64&#45;&gt;Node65</title>
<path fill="none" stroke="#191970" d="M510.3472,-505.0246C516.6935,-502.3541 523.2546,-499.1678 529,-495.5262 547.3328,-483.9063 546.5447,-473.9505 565,-462.5262 573.3464,-457.3595 582.9879,-452.9898 592.1616,-449.4536"/>
<polygon fill="#191970" stroke="#191970" points="593.6384,-452.6413 601.849,-445.9452 591.2548,-446.0596 593.6384,-452.6413"/>
</g>
<!-- Node65&#45;&gt;Node59 -->
<g id="edge13" class="edge">
<title>Node65&#45;&gt;Node59</title>
<path fill="none" stroke="#191970" d="M653.2848,-430.5601C671.4843,-424.9375 696.0694,-417.3421 715.9621,-411.1964"/>
<polygon fill="#191970" stroke="#191970" points="717.0682,-414.518 725.5894,-408.2221 715.0019,-407.8299 717.0682,-414.518"/>
</g>
<!-- Node66&#45;&gt;Node59 -->
<g id="edge17" class="edge">
<title>Node66&#45;&gt;Node59</title>
<path fill="none" stroke="#191970" d="M516.5533,-559.0899C560.8202,-565.6292 638.5357,-570.0808 690,-533.5262 727.7767,-506.6938 742.4459,-450.439 747.7503,-420.4105"/>
<polygon fill="#191970" stroke="#191970" points="751.2438,-420.7268 749.3533,-410.3019 744.3302,-419.6303 751.2438,-420.7268"/>
</g>
<!-- Node67 -->
<g id="node11" class="node">
<title>Node67</title>
<g id="a_node11"><a xlink:href="fifo_8c.html#ab83de0eb3bc3947e3c031685d5c2474b" target="_top" xlink:title="Crea o ottiene una IPC FIFO usando mkfifo. ">
<polygon fill="none" stroke="#000000" points="595,-505.0262 595,-524.0262 660,-524.0262 660,-505.0262 595,-505.0262"/>
<text text-anchor="middle" x="627.5" y="-512.0262" font-family="Helvetica,sans-Serif" font-size="10.00" fill="#000000">make_fifo</text>
</a>
</g>
</g>
<!-- Node66&#45;&gt;Node67 -->
<g id="edge15" class="edge">
<title>Node66&#45;&gt;Node67</title>
<path fill="none" stroke="#191970" d="M516.863,-543.5207C537.2508,-538.1777 563.2635,-531.3606 584.9428,-525.6791"/>
<polygon fill="#191970" stroke="#191970" points="586.0913,-528.9964 594.8773,-523.0756 584.3166,-522.2251 586.0913,-528.9964"/>
</g>
<!-- Node67&#45;&gt;Node59 -->
<g id="edge16" class="edge">
<title>Node67&#45;&gt;Node59</title>
<path fill="none" stroke="#191970" d="M660.3203,-506.1533C670.5309,-502.4864 681.3642,-497.4073 690,-490.5262 714.3108,-471.1549 732.4285,-439.3347 742.2294,-419.1808"/>
<polygon fill="#191970" stroke="#191970" points="745.4186,-420.6232 746.4745,-410.0811 739.0749,-417.6638 745.4186,-420.6232"/>
</g>
<!-- Node68&#45;&gt;Node59 -->
<g id="edge27" class="edge">
<title>Node68&#45;&gt;Node59</title>
<path fill="none" stroke="#191970" d="M234.431,-296.9491C238.8315,-294.4923 242.8483,-291.4052 246,-287.5262 316.234,-201.0847 197.7771,-112.4059 282,-39.5262 365.0132,32.3068 422.9659,-11.1021 529,-39.5262 608.8175,-60.9225 641.0155,-65.9742 690,-132.5262 719.4987,-172.6041 741.1029,-325.3927 748.0846,-380.5321"/>
<polygon fill="#191970" stroke="#191970" points="744.6464,-381.247 749.3501,-390.7404 751.5932,-380.3858 744.6464,-381.247"/>
</g>
<!-- Node68&#45;&gt;Node68 -->
<g id="edge26" class="edge">
<title>Node68&#45;&gt;Node68</title>
<path fill="none" stroke="#191970" d="M172.4219,-316.2832C161.9245,-325.0914 169.1172,-334.5262 194,-334.5262 209.9406,-334.5262 218.6211,-330.6542 220.0416,-325.5554"/>
<polygon fill="#191970" stroke="#191970" points="223.0692,-323.7755 215.5781,-316.2832 216.762,-326.8117 223.0692,-323.7755"/>
</g>
<!-- Node69 -->
<g id="node13" class="node">
<title>Node69</title>
<g id="a_node13"><a xlink:href="strings_8c.html#a21b51584b636c81767ed74b8a527ffd3" target="_top" xlink:title="Concatena la cartella directory al percorso path. ">
<polygon fill="none" stroke="#000000" points="301,-87.0262 301,-106.0262 381,-106.0262 381,-87.0262 301,-87.0262"/>
<text text-anchor="middle" x="341" y="-94.0262" font-family="Helvetica,sans-Serif" font-size="10.00" fill="#000000">append2Path</text>
</a>
</g>
</g>
<!-- Node68&#45;&gt;Node69 -->
<g id="edge20" class="edge">
<title>Node68&#45;&gt;Node69</title>
<path fill="none" stroke="#191970" d="M233.9478,-296.8983C238.4842,-294.4494 242.6664,-291.378 246,-287.5262 297.1101,-228.471 229.7549,-173.5796 282,-115.5262 284.7557,-112.4641 288.0065,-109.893 291.5428,-107.7344"/>
<polygon fill="#191970" stroke="#191970" points="293.3773,-110.7324 300.8017,-103.174 290.2843,-104.4528 293.3773,-110.7324"/>
</g>
<!-- Node70 -->
<g id="node14" class="node">
<title>Node70</title>
<g id="a_node14"><a xlink:href="files_8c.html#a675d61c6bfe0d9ddd1be59233dfd7d5c" target="_top" xlink:title="Restituisce 1 se il percorso inizia con &quot;sendme_&quot;, 0 altrimenti. ">
<polygon fill="none" stroke="#000000" points="295.5,-49.0262 295.5,-68.0262 386.5,-68.0262 386.5,-49.0262 295.5,-49.0262"/>
<text text-anchor="middle" x="341" y="-56.0262" font-family="Helvetica,sans-Serif" font-size="10.00" fill="#000000">checkFileName</text>
</a>
</g>
</g>
<!-- Node68&#45;&gt;Node70 -->
<g id="edge21" class="edge">
<title>Node68&#45;&gt;Node70</title>
<path fill="none" stroke="#191970" d="M234.0816,-297.0119C238.5967,-294.5449 242.7373,-291.4383 246,-287.5262 306.6507,-214.8034 219.9512,-149.0598 282,-77.5262 283.375,-75.941 284.8828,-74.4871 286.4953,-73.1536"/>
<polygon fill="#191970" stroke="#191970" points="288.8161,-75.82 295.2991,-67.4401 285.0054,-69.9481 288.8161,-75.82"/>
</g>
<!-- Node72 -->
<g id="node16" class="node">
<title>Node72</title>
<g id="a_node16"><a xlink:href="files_8c.html#a5ac4517096592013308a3252f3226f60" target="_top" xlink:title="Restituisce 1 se il percorso ha la dimensione &lt;= 4 KB, 0 altrimenti. ">
<polygon fill="none" stroke="#000000" points="300,-163.0262 300,-182.0262 382,-182.0262 382,-163.0262 300,-163.0262"/>
<text text-anchor="middle" x="341" y="-170.0262" font-family="Helvetica,sans-Serif" font-size="10.00" fill="#000000">checkFileSize</text>
</a>
</g>
</g>
<!-- Node68&#45;&gt;Node72 -->
<g id="edge23" class="edge">
<title>Node68&#45;&gt;Node72</title>
<path fill="none" stroke="#191970" d="M232.035,-296.9903C237.1532,-294.5181 242.0064,-291.4157 246,-287.5262 277.1583,-257.1797 251.3933,-227.429 282,-196.5262 285.8908,-192.5978 290.5124,-189.2884 295.4309,-186.5061"/>
<polygon fill="#191970" stroke="#191970" points="297.0777,-189.5967 304.5112,-182.0472 293.9923,-183.3133 297.0777,-189.5967"/>
</g>
<!-- Node74 -->
<g id="node18" class="node">
<title>Node74</title>
<g id="a_node18"><a xlink:href="files_8c.html#a6a46f37bcdbf048db0fba5bb3e0e6342" target="_top" xlink:title="Aggiunge in fondo alla coda un nuovo filePath. ">
<polygon fill="none" stroke="#000000" points="314.5,-125.0262 314.5,-144.0262 367.5,-144.0262 367.5,-125.0262 314.5,-125.0262"/>
<text text-anchor="middle" x="341" y="-132.0262" font-family="Helvetica,sans-Serif" font-size="10.00" fill="#000000">append</text>
</a>
</g>
</g>
<!-- Node68&#45;&gt;Node74 -->
<g id="edge25" class="edge">
<title>Node68&#45;&gt;Node74</title>
<path fill="none" stroke="#191970" d="M233.2278,-296.9904C237.9934,-294.5251 242.4297,-291.4247 246,-287.5262 287.6485,-242.048 239.4779,-198.1886 282,-153.5262 288.0799,-147.1402 296.3121,-142.8957 304.6958,-140.0761"/>
<polygon fill="#191970" stroke="#191970" points="305.7768,-143.4087 314.4874,-137.3776 303.9169,-136.6603 305.7768,-143.4087"/>
</g>
<!-- Node71 -->
<g id="node15" class="node">
<title>Node71</title>
<g id="a_node15"><a xlink:href="strings_8c.html#ab6b8529148710caedf063c1de6b0db16" target="_top" xlink:title="Restituisce vero se la stringa a inizia con la sotto stringa b. ">
<polygon fill="none" stroke="#000000" points="448.5,-49.0262 448.5,-68.0262 516.5,-68.0262 516.5,-49.0262 448.5,-49.0262"/>
<text text-anchor="middle" x="482.5" y="-56.0262" font-family="Helvetica,sans-Serif" font-size="10.00" fill="#000000">StartsWith</text>
</a>
</g>
</g>
<!-- Node70&#45;&gt;Node71 -->
<g id="edge22" class="edge">
<title>Node70&#45;&gt;Node71</title>
<path fill="none" stroke="#191970" d="M386.5504,-58.5262C402.9863,-58.5262 421.5093,-58.5262 437.866,-58.5262"/>
<polygon fill="#191970" stroke="#191970" points="438.2581,-62.0263 448.2581,-58.5262 438.258,-55.0263 438.2581,-62.0263"/>
</g>
<!-- Node73 -->
<g id="node17" class="node">
<title>Node73</title>
<g id="a_node17"><a xlink:href="files_8c.html#a096f8e9259afb2839ebe6822364f9928" target="_top" xlink:title="Restituisce la dimensione in byte del file con percorso filePath. ">
<polygon fill="none" stroke="#000000" points="448,-87.0262 448,-106.0262 517,-106.0262 517,-87.0262 448,-87.0262"/>
<text text-anchor="middle" x="482.5" y="-94.0262" font-family="Helvetica,sans-Serif" font-size="10.00" fill="#000000">getFileSize</text>
</a>
</g>
</g>
<!-- Node72&#45;&gt;Node73 -->
<g id="edge24" class="edge">
<title>Node72&#45;&gt;Node73</title>
<path fill="none" stroke="#191970" d="M378.8661,-163.0083C386.1264,-160.4496 393.4883,-157.3131 400,-153.5262 418.7629,-142.6145 418.1996,-132.9462 436,-120.5262 440.9639,-117.0627 446.4935,-113.7764 451.9583,-110.8097"/>
<polygon fill="#191970" stroke="#191970" points="453.7071,-113.8457 460.9825,-106.1437 450.4921,-107.6277 453.7071,-113.8457"/>
</g>
<!-- Node78&#45;&gt;Node65 -->
<g id="edge32" class="edge">
<title>Node78&#45;&gt;Node65</title>
<path fill="none" stroke="#191970" d="M512.1928,-468.7446C535.2472,-462.7028 567.2989,-454.303 591.7596,-447.8926"/>
<polygon fill="#191970" stroke="#191970" points="592.9436,-451.2006 601.7296,-445.2798 591.169,-444.4293 592.9436,-451.2006"/>
</g>
<!-- Node80&#45;&gt;Node65 -->
<g id="edge35" class="edge">
<title>Node80&#45;&gt;Node65</title>
<path fill="none" stroke="#191970" d="M516.863,-438.5262C539.2751,-438.5262 568.4846,-438.5262 591.2625,-438.5262"/>
<polygon fill="#191970" stroke="#191970" points="591.5482,-442.0263 601.5481,-438.5262 591.5481,-435.0263 591.5482,-442.0263"/>
</g>
<!-- Node81&#45;&gt;Node59 -->
<g id="edge42" class="edge">
<title>Node81&#45;&gt;Node59</title>
<path fill="none" stroke="#191970" d="M382.1393,-366.3438C462.7506,-373.8242 640.1843,-390.2893 715.542,-397.2822"/>
<polygon fill="#191970" stroke="#191970" points="715.6153,-400.804 725.896,-398.243 716.2622,-393.8339 715.6153,-400.804"/>
</g>
<!-- Node81&#45;&gt;Node65 -->
<g id="edge37" class="edge">
<title>Node81&#45;&gt;Node65</title>
<path fill="none" stroke="#191970" d="M376.9953,-372.0747C432.2004,-386.719 537.1311,-414.554 592.0231,-429.1152"/>
<polygon fill="#191970" stroke="#191970" points="591.4229,-432.577 601.986,-431.7581 593.2178,-425.811 591.4229,-432.577"/>
</g>
<!-- Node81&#45;&gt;Node78 -->
<g id="edge38" class="edge">
<title>Node81&#45;&gt;Node78</title>
<path fill="none" stroke="#191970" d="M376.1633,-372.0783C384.6704,-375.6029 393.2466,-380.3108 400,-386.5262 426.0331,-410.4852 409.9857,-433.5469 436,-457.5262 438.2984,-459.6448 440.8648,-461.5426 443.579,-463.2399"/>
<polygon fill="#191970" stroke="#191970" points="442.1273,-466.4312 452.6049,-468.0032 445.3945,-460.2404 442.1273,-466.4312"/>
</g>
<!-- Node81&#45;&gt;Node80 -->
<g id="edge39" class="edge">
<title>Node81&#45;&gt;Node80</title>
<path fill="none" stroke="#191970" d="M369.0587,-372.1242C379.1044,-376.0271 390.3282,-380.941 400,-386.5262 417.5532,-396.6627 418.9212,-403.6092 436,-414.5262 441.1979,-417.8488 446.9101,-421.0974 452.498,-424.0774"/>
<polygon fill="#191970" stroke="#191970" points="451.1794,-427.3353 461.6719,-428.8048 454.386,-421.1129 451.1794,-427.3353"/>
</g>
<!-- Node82 -->
<g id="node26" class="node">
<title>Node82</title>
<g id="a_node26"><a xlink:href="semaphore_8c.html#aad78dc4ccefb184a74dd9ef808df8db6" target="_top" xlink:title="Inizializza il valore del semaforo sem_num al valore val. ">
<polygon fill="none" stroke="#000000" points="593.5,-315.0262 593.5,-334.0262 661.5,-334.0262 661.5,-315.0262 593.5,-315.0262"/>
<text text-anchor="middle" x="627.5" y="-322.0262" font-family="Helvetica,sans-Serif" font-size="10.00" fill="#000000">semSetVal</text>
</a>
</g>
</g>
<!-- Node81&#45;&gt;Node82 -->
<g id="edge40" class="edge">
<title>Node81&#45;&gt;Node82</title>
<path fill="none" stroke="#191970" d="M382.1221,-356.2678C398.8293,-353.7769 418.3253,-350.9358 436,-348.5262 486.438,-341.6499 544.4544,-334.4827 583.2909,-329.7915"/>
<polygon fill="#191970" stroke="#191970" points="583.7141,-333.2659 593.2238,-328.5952 582.877,-326.3162 583.7141,-333.2659"/>
</g>
<!-- Node83 -->
<g id="node27" class="node">
<title>Node83</title>
<g id="a_node27"><a xlink:href="semaphore_8c.html#a8df9b8ea63eaf93d09f437b356a4a1eb" target="_top" xlink:title="Inizializza i valori del set di semafori semid ai valori in values. ">
<polygon fill="none" stroke="#000000" points="594.5,-277.0262 594.5,-296.0262 660.5,-296.0262 660.5,-277.0262 594.5,-277.0262"/>
<text text-anchor="middle" x="627.5" y="-284.0262" font-family="Helvetica,sans-Serif" font-size="10.00" fill="#000000">semSetAll</text>
</a>
</g>
</g>
<!-- Node81&#45;&gt;Node83 -->
<g id="edge43" class="edge">
<title>Node81&#45;&gt;Node83</title>
<path fill="none" stroke="#191970" d="M370.4084,-352.991C393.4389,-345.5705 423.5842,-335.9732 436,-332.5262 486.6578,-318.462 545.5465,-304.6979 584.504,-295.9471"/>
<polygon fill="#191970" stroke="#191970" points="585.4543,-299.3211 594.4503,-293.7246 583.9277,-292.4896 585.4543,-299.3211"/>
</g>
<!-- Node84 -->
<g id="node28" class="node">
<title>Node84</title>
<g id="a_node28"><a xlink:href="semaphore_8c.html#a530566146b6e3cc8415d8ae4259fd68f" target="_top" xlink:title="Cancella il set di semafori svegliando eventuali processi in attesa. ">
<polygon fill="none" stroke="#000000" points="592.5,-239.0262 592.5,-258.0262 662.5,-258.0262 662.5,-239.0262 592.5,-239.0262"/>
<text text-anchor="middle" x="627.5" y="-246.0262" font-family="Helvetica,sans-Serif" font-size="10.00" fill="#000000">semDelete</text>
</a>
</g>
</g>
<!-- Node81&#45;&gt;Node84 -->
<g id="edge45" class="edge">
<title>Node81&#45;&gt;Node84</title>
<path fill="none" stroke="#191970" d="M380.3257,-352.9178C387.1574,-350.4068 393.99,-347.3108 400,-343.5262 419.6864,-331.1294 416.1769,-317.7032 436,-305.5262 481.6399,-277.4902 541.8943,-262.5376 582.5279,-255.0854"/>
<polygon fill="#191970" stroke="#191970" points="583.1711,-258.526 592.4149,-253.3489 581.9602,-251.6316 583.1711,-258.526"/>
</g>
<!-- Node85 -->
<g id="node29" class="node">
<title>Node85</title>
<g id="a_node29"><a xlink:href="semaphore_8c.html#a7d80413e893e7d9ae3d153e23c2df2e4" target="_top" xlink:title="Recupera statistiche di un set di semafori. ">
<polygon fill="none" stroke="#000000" points="587.5,-201.0262 587.5,-220.0262 667.5,-220.0262 667.5,-201.0262 587.5,-201.0262"/>
<text text-anchor="middle" x="627.5" y="-208.0262" font-family="Helvetica,sans-Serif" font-size="10.00" fill="#000000">semGetStats</text>
</a>
</g>
</g>
<!-- Node81&#45;&gt;Node85 -->
<g id="edge47" class="edge">
<title>Node81&#45;&gt;Node85</title>
<path fill="none" stroke="#191970" d="M382.1189,-354.2431C388.6126,-351.6009 394.8667,-348.1177 400,-343.5262 429.0608,-317.5325 406.4056,-288.9106 436,-263.5262 475.5495,-229.6028 535.0951,-217.2598 577.2723,-212.841"/>
<polygon fill="#191970" stroke="#191970" points="577.6986,-216.3165 587.3299,-211.902 577.0478,-209.3469 577.6986,-216.3165"/>
</g>
<!-- Node86 -->
<g id="node30" class="node">
<title>Node86</title>
<g id="a_node30"><a xlink:href="semaphore_8c.html#a34a010b0a39236a7261d7d5103426491" target="_top" xlink:title="Imposta i permessi su un set di semafori. ">
<polygon fill="none" stroke="#000000" points="443,-163.0262 443,-182.0262 522,-182.0262 522,-163.0262 443,-163.0262"/>
<text text-anchor="middle" x="482.5" y="-170.0262" font-family="Helvetica,sans-Serif" font-size="10.00" fill="#000000">semSetPerm</text>
</a>
</g>
</g>
<!-- Node81&#45;&gt;Node86 -->
<g id="edge49" class="edge">
<title>Node81&#45;&gt;Node86</title>
<path fill="none" stroke="#191970" d="M382.2596,-355.2536C388.8945,-352.505 395.1603,-348.7243 400,-343.5262 445.8355,-294.2966 394.3752,-249.3638 436,-196.5262 438.7951,-192.9781 442.2585,-189.9029 446.0251,-187.2508"/>
<polygon fill="#191970" stroke="#191970" points="447.8369,-190.2455 454.6135,-182.1013 444.2372,-184.2419 447.8369,-190.2455"/>
</g>
<!-- Node82&#45;&gt;Node59 -->
<g id="edge41" class="edge">
<title>Node82&#45;&gt;Node59</title>
<path fill="none" stroke="#191970" d="M658.6782,-334.111C669.0025,-337.9003 680.32,-342.7459 690,-348.5262 706.4249,-358.3341 722.7381,-372.6962 734.2786,-383.8429"/>
<polygon fill="#191970" stroke="#191970" points="731.8826,-386.396 741.4484,-390.9507 736.8108,-381.4248 731.8826,-386.396"/>
</g>
<!-- Node83&#45;&gt;Node59 -->
<g id="edge44" class="edge">
<title>Node83&#45;&gt;Node59</title>
<path fill="none" stroke="#191970" d="M660.7084,-291.9775C670.8277,-294.8053 681.5096,-299.0794 690,-305.5262 716.0971,-325.3417 733.9523,-359.9225 743.1732,-381.4468"/>
<polygon fill="#191970" stroke="#191970" points="739.9876,-382.9044 747.0045,-390.8426 746.4695,-380.2612 739.9876,-382.9044"/>
</g>
<!-- Node84&#45;&gt;Node59 -->
<g id="edge46" class="edge">
<title>Node84&#45;&gt;Node59</title>
<path fill="none" stroke="#191970" d="M662.5734,-253.6475C672.3192,-256.4545 682.3231,-260.7997 690,-267.5262 724.5291,-297.7803 740.4739,-351.7273 746.854,-380.7484"/>
<polygon fill="#191970" stroke="#191970" points="743.4901,-381.7707 748.9102,-390.8741 750.3501,-380.3776 743.4901,-381.7707"/>
</g>
<!-- Node85&#45;&gt;Node59 -->
<g id="edge48" class="edge">
<title>Node85&#45;&gt;Node59</title>
<path fill="none" stroke="#191970" d="M667.5052,-216.6628C675.7306,-219.4757 683.7699,-223.57 690,-229.5262 733.3376,-270.9589 745.6769,-345.3478 749.1551,-380.7543"/>
<polygon fill="#191970" stroke="#191970" points="745.6733,-381.1183 750.0011,-390.7889 752.6485,-380.5302 745.6733,-381.1183"/>
</g>
<!-- Node86&#45;&gt;Node59 -->
<g id="edge50" class="edge">
<title>Node86&#45;&gt;Node59</title>
<path fill="none" stroke="#191970" d="M522.1785,-164.0666C567.9724,-156.7659 642.9953,-152.7182 690,-191.5262 719.6641,-216.0174 740.4217,-333.829 747.6682,-380.9686"/>
<polygon fill="#191970" stroke="#191970" points="744.2067,-381.487 749.1482,-390.8589 751.1297,-380.451 744.2067,-381.487"/>
</g>
<!-- Node89&#45;&gt;Node59 -->
<g id="edge54" class="edge">
<title>Node89&#45;&gt;Node59</title>
<path fill="none" stroke="#191970" d="M231.2762,-353.0015C236.6187,-350.5201 241.7389,-347.4121 246,-343.5262 273.6167,-318.3417 254.1839,-292.4902 282,-267.5262 323.3196,-230.4431 358.3891,-263.2821 400,-226.5262 427.1124,-202.5771 405.2799,-172.6291 436,-153.5262 463.3166,-136.5397 654.7388,-126.709 690,-154.5262 725.8687,-182.8226 743.3649,-327.2088 748.6855,-380.624"/>
<polygon fill="#191970" stroke="#191970" points="745.2255,-381.2099 749.6625,-390.8309 752.1937,-380.5429 745.2255,-381.2099"/>
</g>
<!-- Node89&#45;&gt;Node73 -->
<g id="edge55" class="edge">
<title>Node89&#45;&gt;Node73</title>
<path fill="none" stroke="#191970" d="M232.7648,-352.9332C237.6587,-350.4746 242.2541,-347.3913 246,-343.5262 281.5061,-306.8903 246.4781,-271.1467 282,-234.5262 320.8637,-194.4604 358.2384,-228.5616 400,-191.5262 426.4705,-168.0514 411.0727,-145.6336 436,-120.5262 439.4964,-117.0045 443.6179,-113.893 447.9384,-111.177"/>
<polygon fill="#191970" stroke="#191970" points="449.9203,-114.0793 456.9502,-106.1527 446.5115,-107.9653 449.9203,-114.0793"/>
</g>
<!-- Node89&#45;&gt;Node78 -->
<g id="edge57" class="edge">
<title>Node89&#45;&gt;Node78</title>
<path fill="none" stroke="#191970" d="M218.1011,-372.0497C269.437,-392.3349 389.688,-439.8518 448.6686,-463.1578"/>
<polygon fill="#191970" stroke="#191970" points="447.6781,-466.5297 458.2646,-466.9496 450.2506,-460.0195 447.6781,-466.5297"/>
</g>
<!-- Node89&#45;&gt;Node81 -->
<g id="edge58" class="edge">
<title>Node89&#45;&gt;Node81</title>
<path fill="none" stroke="#191970" d="M242.5407,-362.5262C257.6252,-362.5262 274.3013,-362.5262 289.5753,-362.5262"/>
<polygon fill="#191970" stroke="#191970" points="289.889,-366.0263 299.8889,-362.5262 289.8889,-359.0263 289.889,-366.0263"/>
</g>
<!-- Node90 -->
<g id="node34" class="node">
<title>Node90</title>
<g id="a_node34"><a xlink:href="client_8c.html#a55586f2b7e9b3620294cf78cda8abdad" target="_top" xlink:title="Divide in 4 parti il contenuto del file da inviare al server. ">
<polygon fill="none" stroke="#000000" points="319,-315.0262 319,-334.0262 363,-334.0262 363,-315.0262 319,-315.0262"/>
<text text-anchor="middle" x="341" y="-322.0262" font-family="Helvetica,sans-Serif" font-size="10.00" fill="#000000">dividi</text>
</a>
</g>
</g>
<!-- Node89&#45;&gt;Node90 -->
<g id="edge56" class="edge">
<title>Node89&#45;&gt;Node90</title>
<path fill="none" stroke="#191970" d="M231.0943,-352.9372C254.9918,-346.7596 285.7585,-338.8063 308.6587,-332.8865"/>
<polygon fill="#191970" stroke="#191970" points="309.7681,-336.2149 318.5739,-330.3234 308.0162,-329.4376 309.7681,-336.2149"/>
</g>
<!-- Node91 -->
<g id="node35" class="node">
<title>Node91</title>
<g id="a_node35"><a xlink:href="defines_8c.html#ac281b05b7a90ba292f5748cbfe3c389d" target="_top" xlink:title="Restituisce vero se l&#39;array contiene tutti true. ">
<polygon fill="none" stroke="#000000" points="282,-277.0262 282,-296.0262 400,-296.0262 400,-277.0262 282,-277.0262"/>
<text text-anchor="middle" x="341" y="-284.0262" font-family="Helvetica,sans-Serif" font-size="10.00" fill="#000000">arrayContainsAllTrue</text>
</a>
</g>
</g>
<!-- Node89&#45;&gt;Node91 -->
<g id="edge59" class="edge">
<title>Node89&#45;&gt;Node91</title>
<path fill="none" stroke="#191970" d="M227.2842,-352.9713C233.7575,-350.4041 240.2969,-347.2738 246,-343.5262 265.4424,-330.7501 262.3136,-317.923 282,-305.5262 285.1928,-303.5156 288.6178,-301.6994 292.1515,-300.062"/>
<polygon fill="#191970" stroke="#191970" points="293.7641,-303.1829 301.6743,-296.1346 291.0952,-296.7117 293.7641,-303.1829"/>
</g>
</g>
</svg>
