<?xml version="1.0" encoding="UTF-8" standalone="no"?>
<!DOCTYPE svg PUBLIC "-//W3C//DTD SVG 1.1//EN"
 "http://www.w3.org/Graphics/SVG/1.1/DTD/svg11.dtd">
<!-- Generated by graphviz version 2.40.1 (20161225.0304)
 -->
<!-- Title: operazioni_client0 Pages: 1 -->
<svg width="783pt" height="824pt"
 viewBox="0.00 0.00 783.00 823.51" xmlns="http://www.w3.org/2000/svg" xmlns:xlink="http://www.w3.org/1999/xlink">
<g id="graph0" class="graph" transform="scale(1 1) rotate(0) translate(4 819.5109)">
<title>operazioni_client0</title>
<!-- Node11 -->
<g id="node1" class="node">
<title>Node11</title>
<polygon fill="#bfbfbf" stroke="#000000" points="0,-418.5 0,-437.5 106,-437.5 106,-418.5 0,-418.5"/>
<text text-anchor="middle" x="53" y="-425.5" font-family="Helvetica,sans-Serif" font-size="10.00" fill="#000000">operazioni_client0</text>
</g>
<!-- Node12 -->
<g id="node2" class="node">
<title>Node12</title>
<g id="a_node2"><a xlink:href="shared__memory_8c.html#a660a60242a5174977ab2debcdbd0e587" target="_top" xlink:title="Ottiene l&#39;id o crea una memoria condivisa. ">
<polygon fill="none" stroke="#000000" points="565,-741.5 565,-760.5 690,-760.5 690,-741.5 565,-741.5"/>
<text text-anchor="middle" x="627.5" y="-748.5" font-family="Helvetica,sans-Serif" font-size="10.00" fill="#000000">alloc_shared_memory</text>
</a>
</g>
</g>
<!-- Node11&#45;&gt;Node12 -->
<g id="edge1" class="edge">
<title>Node11&#45;&gt;Node12</title>
<path fill="none" stroke="#191970" d="M54.1066,-437.6277C59.9942,-486.9879 89.3665,-710.9077 142,-751 204.7092,-798.7672 434.9698,-776.7315 554.4584,-761.3959"/>
<polygon fill="#191970" stroke="#191970" points="555.1522,-764.8352 564.6169,-760.0739 554.2489,-757.8937 555.1522,-764.8352"/>
</g>
<!-- Node13 -->
<g id="node3" class="node">
<title>Node13</title>
<g id="a_node3"><a xlink:href="err__exit_8c.html#aa223b0ecfe538d130ece562646a37d27" target="_top" xlink:title="Prints the error message of the last failed system call and terminates the calling process...">
<polygon fill="none" stroke="#000000" points="726,-489.5 726,-508.5 775,-508.5 775,-489.5 726,-489.5"/>
<text text-anchor="middle" x="750.5" y="-496.5" font-family="Helvetica,sans-Serif" font-size="10.00" fill="#000000">ErrExit</text>
</a>
</g>
</g>
<!-- Node11&#45;&gt;Node13 -->
<g id="edge18" class="edge">
<title>Node11&#45;&gt;Node13</title>
<path fill="none" stroke="#191970" d="M54.022,-437.5845C59.6848,-488.8283 88.8951,-729.9269 142,-778 208.3097,-838.0268 251.5562,-808 341,-808 341,-808 341,-808 482.5,-808 576.2559,-808 622.4401,-835.0064 690,-770 726.4796,-734.8992 743.8242,-574.982 748.877,-518.6815"/>
<polygon fill="#191970" stroke="#191970" points="752.3746,-518.8596 749.7485,-508.5953 745.4006,-518.2569 752.3746,-518.8596"/>
</g>
<!-- Node14 -->
<g id="node4" class="node">
<title>Node14</title>
<g id="a_node4"><a xlink:href="defines_8c.html#a2d341373a96ffea0944553e5452cdbca" target="_top" xlink:title="get_ipc_key">
<polygon fill="none" stroke="#000000" points="156.5,-722.5 156.5,-741.5 231.5,-741.5 231.5,-722.5 156.5,-722.5"/>
<text text-anchor="middle" x="194" y="-729.5" font-family="Helvetica,sans-Serif" font-size="10.00" fill="#000000">get_ipc_key</text>
</a>
</g>
</g>
<!-- Node11&#45;&gt;Node14 -->
<g id="edge3" class="edge">
<title>Node11&#45;&gt;Node14</title>
<path fill="none" stroke="#191970" d="M54.8289,-437.6687C63.5037,-482.6227 101.7586,-670.7948 142,-713 143.7701,-714.8565 145.7362,-716.5323 147.8383,-718.0451"/>
<polygon fill="#191970" stroke="#191970" points="146.094,-721.0796 156.4928,-723.1084 149.6289,-715.0376 146.094,-721.0796"/>
</g>
<!-- Node16 -->
<g id="node6" class="node">
<title>Node16</title>
<g id="a_node6"><a xlink:href="shared__memory_8c.html#ab2ffe00ec7425a3a4229cd0d53ed901c" target="_top" xlink:title="Recupera il puntatore alla memoria condivisa aggiungendola allo spazio degli indirizzi. ">
<polygon fill="none" stroke="#000000" points="569,-646.5 569,-665.5 686,-665.5 686,-646.5 569,-646.5"/>
<text text-anchor="middle" x="627.5" y="-653.5" font-family="Helvetica,sans-Serif" font-size="10.00" fill="#000000">get_shared_memory</text>
</a>
</g>
</g>
<!-- Node11&#45;&gt;Node16 -->
<g id="edge6" class="edge">
<title>Node11&#45;&gt;Node16</title>
<path fill="none" stroke="#191970" d="M56.7726,-437.7426C66.8022,-462.3887 96.506,-527.7561 142,-563 264.8199,-658.1477 456.7193,-665.2332 558.5787,-661.2235"/>
<polygon fill="#191970" stroke="#191970" points="558.9126,-664.7123 568.7483,-660.7743 558.6036,-657.7191 558.9126,-664.7123"/>
</g>
<!-- Node17 -->
<g id="node7" class="node">
<title>Node17</title>
<g id="a_node7"><a xlink:href="defines_8c.html#afd25e0dffe44c8dd59ae86caabb94287" target="_top" xlink:title="get_ipc_key2">
<polygon fill="none" stroke="#000000" points="153.5,-684.5 153.5,-703.5 234.5,-703.5 234.5,-684.5 153.5,-684.5"/>
<text text-anchor="middle" x="194" y="-691.5" font-family="Helvetica,sans-Serif" font-size="10.00" fill="#000000">get_ipc_key2</text>
</a>
</g>
</g>
<!-- Node11&#45;&gt;Node17 -->
<g id="edge8" class="edge">
<title>Node11&#45;&gt;Node17</title>
<path fill="none" stroke="#191970" d="M53.9255,-437.6734C57.8105,-473.223 75.8093,-598.291 142,-670 145.4932,-673.7844 149.7016,-677.0199 154.1927,-679.7737"/>
<polygon fill="#191970" stroke="#191970" points="152.592,-682.8866 163.0643,-684.4934 155.8798,-676.7067 152.592,-682.8866"/>
</g>
<!-- Node18 -->
<g id="node8" class="node">
<title>Node18</title>
<g id="a_node8"><a xlink:href="semaphore_8c.html#afee4d9b0eb613bf632622e9244204d51" target="_top" xlink:title="Ottiene un insieme di semafori gia&#39; creato. ">
<polygon fill="none" stroke="#000000" points="436,-570.5 436,-589.5 529,-589.5 529,-570.5 436,-570.5"/>
<text text-anchor="middle" x="482.5" y="-577.5" font-family="Helvetica,sans-Serif" font-size="10.00" fill="#000000">getSemaphores</text>
</a>
</g>
</g>
<!-- Node11&#45;&gt;Node18 -->
<g id="edge10" class="edge">
<title>Node11&#45;&gt;Node18</title>
<path fill="none" stroke="#191970" d="M63.3776,-437.6598C79.1611,-451.841 110.6854,-478.2101 142,-493 236.1945,-537.4881 356.2009,-561.3327 425.6916,-572.2811"/>
<polygon fill="#191970" stroke="#191970" points="425.5675,-575.8032 435.9838,-573.8663 426.6332,-568.8847 425.5675,-575.8032"/>
</g>
<!-- Node20 -->
<g id="node10" class="node">
<title>Node20</title>
<g id="a_node10"><a xlink:href="fifo_8c.html#a54a1ae8162825128cf02f95692402c18" target="_top" xlink:title="Facilita la creazione di una FIFO (o ne ottiene una esistente) in modalita&#39; lettura o scrittura...">
<polygon fill="none" stroke="#000000" points="448.5,-608.5 448.5,-627.5 516.5,-627.5 516.5,-608.5 448.5,-608.5"/>
<text text-anchor="middle" x="482.5" y="-615.5" font-family="Helvetica,sans-Serif" font-size="10.00" fill="#000000">create_fifo</text>
</a>
</g>
</g>
<!-- Node11&#45;&gt;Node20 -->
<g id="edge14" class="edge">
<title>Node11&#45;&gt;Node20</title>
<path fill="none" stroke="#191970" d="M59.1083,-437.6472C72.0042,-457.2353 103.972,-501.853 142,-526 236.651,-586.1014 370.0936,-607.2932 438.4175,-614.4889"/>
<polygon fill="#191970" stroke="#191970" points="438.1118,-617.9757 448.4108,-615.4897 438.8094,-611.0105 438.1118,-617.9757"/>
</g>
<!-- Node22 -->
<g id="node12" class="node">
<title>Node22</title>
<g id="a_node12"><a xlink:href="files_8c.html#a627e4b202ea71f3bd241ccf562449bd6" target="_top" xlink:title="find_sendme_files">
<polygon fill="none" stroke="#000000" points="142,-286.5 142,-305.5 246,-305.5 246,-286.5 142,-286.5"/>
<text text-anchor="middle" x="194" y="-293.5" font-family="Helvetica,sans-Serif" font-size="10.00" fill="#000000">find_sendme_files</text>
</a>
</g>
</g>
<!-- Node11&#45;&gt;Node22 -->
<g id="edge19" class="edge">
<title>Node11&#45;&gt;Node22</title>
<path fill="none" stroke="#191970" d="M61.7677,-418.4571C77.3656,-401.6368 111.1957,-365.857 142,-338 151.9857,-328.9697 163.6002,-319.4984 173.3165,-311.8403"/>
<polygon fill="#191970" stroke="#191970" points="175.5429,-314.5426 181.2777,-305.634 171.2391,-309.0219 175.5429,-314.5426"/>
</g>
<!-- Node29 -->
<g id="node19" class="node">
<title>Node29</title>
<g id="a_node19"><a xlink:href="files_8c.html#a1cdd9b5b37408e31d80f31e474a71483" target="_top" xlink:title="Visualizza il contenuto della lista concatenata di filePath. ">
<polygon fill="none" stroke="#000000" points="164.5,-248.5 164.5,-267.5 223.5,-267.5 223.5,-248.5 164.5,-248.5"/>
<text text-anchor="middle" x="194" y="-255.5" font-family="Helvetica,sans-Serif" font-size="10.00" fill="#000000">print_list</text>
</a>
</g>
</g>
<!-- Node11&#45;&gt;Node29 -->
<g id="edge28" class="edge">
<title>Node11&#45;&gt;Node29</title>
<path fill="none" stroke="#191970" d="M56.083,-418.3361C65.0048,-391.8699 93.3565,-317.4968 142,-277 145.8157,-273.8233 150.2088,-271.1551 154.7908,-268.9193"/>
<polygon fill="#191970" stroke="#191970" points="156.4704,-272.0103 164.3371,-264.9134 153.7618,-265.5555 156.4704,-272.0103"/>
</g>
<!-- Node30 -->
<g id="node20" class="node">
<title>Node30</title>
<g id="a_node20"><a xlink:href="files_8c.html#a3ba19f05c37434e7f20facff3445651a" target="_top" xlink:title="Conta il numero di file nella lista concatenata di filePath. ">
<polygon fill="none" stroke="#000000" points="159.5,-210.5 159.5,-229.5 228.5,-229.5 228.5,-210.5 159.5,-210.5"/>
<text text-anchor="middle" x="194" y="-217.5" font-family="Helvetica,sans-Serif" font-size="10.00" fill="#000000">count_files</text>
</a>
</g>
</g>
<!-- Node11&#45;&gt;Node30 -->
<g id="edge29" class="edge">
<title>Node11&#45;&gt;Node30</title>
<path fill="none" stroke="#191970" d="M54.8631,-418.2057C61.2317,-387.3489 84.9783,-291.1189 142,-239 144.4831,-236.7304 147.2592,-234.7263 150.2018,-232.9574"/>
<polygon fill="#191970" stroke="#191970" points="152.0436,-235.9488 159.4024,-228.3265 148.8965,-229.6961 152.0436,-235.9488"/>
</g>
<!-- Node31 -->
<g id="node21" class="node">
<title>Node31</title>
<g id="a_node21"><a xlink:href="client_8c.html#a748983b7ce27515a3ad116ada4334c4e" target="_top" xlink:title="int_to_string">
<polygon fill="none" stroke="#000000" points="155.5,-172.5 155.5,-191.5 232.5,-191.5 232.5,-172.5 155.5,-172.5"/>
<text text-anchor="middle" x="194" y="-179.5" font-family="Helvetica,sans-Serif" font-size="10.00" fill="#000000">int_to_string</text>
</a>
</g>
</g>
<!-- Node11&#45;&gt;Node31 -->
<g id="edge30" class="edge">
<title>Node11&#45;&gt;Node31</title>
<path fill="none" stroke="#191970" d="M53.9925,-418.2695C58.0317,-383.6623 76.2937,-265.1905 142,-201 143.62,-199.4174 145.3823,-197.9652 147.2469,-196.6327"/>
<polygon fill="#191970" stroke="#191970" points="149.0998,-199.6036 155.9544,-191.5249 145.5579,-193.5658 149.0998,-199.6036"/>
</g>
<!-- Node32 -->
<g id="node22" class="node">
<title>Node32</title>
<g id="a_node22"><a xlink:href="semaphore_8c.html#a2581efba6a0833e3f289de94c779cc21" target="_top" xlink:title="Esegue la wait sul semaforo sem_num: decrementa il valore di 1 ed eventualmente mette in attesa il pr...">
<polygon fill="none" stroke="#000000" points="453,-532.5 453,-551.5 512,-551.5 512,-532.5 453,-532.5"/>
<text text-anchor="middle" x="482.5" y="-539.5" font-family="Helvetica,sans-Serif" font-size="10.00" fill="#000000">semWait</text>
</a>
</g>
</g>
<!-- Node11&#45;&gt;Node32 -->
<g id="edge31" class="edge">
<title>Node11&#45;&gt;Node32</title>
<path fill="none" stroke="#191970" d="M72.3988,-437.5131C90.1678,-445.9282 117.3724,-458.0685 142,-466 248.4948,-500.2975 378.583,-524.6685 442.7721,-535.5815"/>
<polygon fill="#191970" stroke="#191970" points="442.4222,-539.0717 452.8642,-537.2783 443.5829,-532.1686 442.4222,-539.0717"/>
</g>
<!-- Node33 -->
<g id="node23" class="node">
<title>Node33</title>
<g id="a_node23"><a xlink:href="client_8c.html#ac129a55ffa08a55addb9ea1afbd709f8" target="_top" xlink:title="strEquals">
<polygon fill="none" stroke="#000000" points="163,-134.5 163,-153.5 225,-153.5 225,-134.5 163,-134.5"/>
<text text-anchor="middle" x="194" y="-141.5" font-family="Helvetica,sans-Serif" font-size="10.00" fill="#000000">strEquals</text>
</a>
</g>
</g>
<!-- Node11&#45;&gt;Node33 -->
<g id="edge33" class="edge">
<title>Node11&#45;&gt;Node33</title>
<path fill="none" stroke="#191970" d="M53.3653,-418.29C55.3183,-380.2206 67.5008,-239.4848 142,-163 145.2568,-159.6564 149.1492,-156.8976 153.3189,-154.6221"/>
<polygon fill="#191970" stroke="#191970" points="155.0708,-157.6717 162.7508,-150.3731 152.1957,-151.2894 155.0708,-157.6717"/>
</g>
<!-- Node34 -->
<g id="node24" class="node">
<title>Node34</title>
<g id="a_node24"><a xlink:href="semaphore_8c.html#a7bad0eb0b0c6ac701b59c36b8b7837bf" target="_top" xlink:title="Esegue la signal sul semaforo sem_num: incrementa il valore di 1. ">
<polygon fill="none" stroke="#000000" points="448.5,-494.5 448.5,-513.5 516.5,-513.5 516.5,-494.5 448.5,-494.5"/>
<text text-anchor="middle" x="482.5" y="-501.5" font-family="Helvetica,sans-Serif" font-size="10.00" fill="#000000">semSignal</text>
</a>
</g>
</g>
<!-- Node11&#45;&gt;Node34 -->
<g id="edge34" class="edge">
<title>Node11&#45;&gt;Node34</title>
<path fill="none" stroke="#191970" d="M106.0959,-437.3953C191.692,-452.5415 358.6156,-482.0787 438.2165,-496.164"/>
<polygon fill="#191970" stroke="#191970" points="437.938,-499.6691 448.3949,-497.9651 439.1578,-492.7761 437.938,-499.6691"/>
</g>
<!-- Node35 -->
<g id="node25" class="node">
<title>Node35</title>
<g id="a_node25"><a xlink:href="semaphore_8c.html#a40485eedbf6d56f7fd27bce5a537efbe" target="_top" xlink:title="Attende che il semaforo sem_num raggiunga il valore zero. ">
<polygon fill="none" stroke="#000000" points="300,-304.5 300,-323.5 382,-323.5 382,-304.5 300,-304.5"/>
<text text-anchor="middle" x="341" y="-311.5" font-family="Helvetica,sans-Serif" font-size="10.00" fill="#000000">semWaitZero</text>
</a>
</g>
</g>
<!-- Node11&#45;&gt;Node35 -->
<g id="edge36" class="edge">
<title>Node11&#45;&gt;Node35</title>
<path fill="none" stroke="#191970" d="M65.303,-418.462C81.8924,-406.0014 112.7371,-384.2191 142,-371 190.2591,-349.1996 248.8926,-333.6111 289.9693,-324.306"/>
<polygon fill="#191970" stroke="#191970" points="290.7528,-327.7173 299.7562,-322.1325 289.2352,-320.8838 290.7528,-327.7173"/>
</g>
<!-- Node40 -->
<g id="node30" class="node">
<title>Node40</title>
<g id="a_node30"><a xlink:href="defines_8c.html#aea9b93cad897755a46cb9e3373ba8cc2" target="_top" xlink:title="Rende bloccante oppure non bloccante un file descriptor. ">
<polygon fill="none" stroke="#000000" points="166,-96.5 166,-115.5 222,-115.5 222,-96.5 166,-96.5"/>
<text text-anchor="middle" x="194" y="-103.5" font-family="Helvetica,sans-Serif" font-size="10.00" fill="#000000">blockFD</text>
</a>
</g>
</g>
<!-- Node11&#45;&gt;Node40 -->
<g id="edge49" class="edge">
<title>Node11&#45;&gt;Node40</title>
<path fill="none" stroke="#191970" d="M54.6346,-418.3542C62.7067,-371.7393 99.63,-170.2004 142,-125 145.944,-120.7926 150.8956,-117.5137 156.166,-114.9592"/>
<polygon fill="#191970" stroke="#191970" points="157.8551,-118.0537 165.8481,-111.0993 155.2629,-111.5514 157.8551,-118.0537"/>
</g>
<!-- Node41 -->
<g id="node31" class="node">
<title>Node41</title>
<g id="a_node31"><a xlink:href="files_8c.html#a786a7b6f9c01e8489d7196a79f5f3862" target="_top" xlink:title="Libera la memoria dello HEAP occupata dalla lista di filePath. ">
<polygon fill="none" stroke="#000000" points="166,-58.5 166,-77.5 222,-77.5 222,-58.5 166,-58.5"/>
<text text-anchor="middle" x="194" y="-65.5" font-family="Helvetica,sans-Serif" font-size="10.00" fill="#000000">free_list</text>
</a>
</g>
</g>
<!-- Node11&#45;&gt;Node41 -->
<g id="edge50" class="edge">
<title>Node11&#45;&gt;Node41</title>
<path fill="none" stroke="#191970" d="M54.3227,-418.1767C61.2885,-367.7661 95.1797,-138.4943 142,-87 146.018,-82.5809 151.1493,-79.1876 156.6166,-76.5826"/>
<polygon fill="#191970" stroke="#191970" points="157.9678,-79.8123 165.9978,-72.9007 155.4103,-73.2962 157.9678,-79.8123"/>
</g>
<!-- Node42 -->
<g id="node32" class="node">
<title>Node42</title>
<g id="a_node32"><a xlink:href="client_8c.html#a54b47b58f228d7bc9827d2919687e25a" target="_top" xlink:title="Funzione eseguita da ogni Client i (figli di Client 0) per mandare i file al server. ">
<polygon fill="none" stroke="#000000" points="145.5,-380.5 145.5,-399.5 242.5,-399.5 242.5,-380.5 145.5,-380.5"/>
<text text-anchor="middle" x="194" y="-387.5" font-family="Helvetica,sans-Serif" font-size="10.00" fill="#000000">operazioni_figlio</text>
</a>
</g>
</g>
<!-- Node11&#45;&gt;Node42 -->
<g id="edge51" class="edge">
<title>Node11&#45;&gt;Node42</title>
<path fill="none" stroke="#191970" d="M88.5803,-418.411C106.782,-413.5056 129.1384,-407.4804 148.5723,-402.2429"/>
<polygon fill="#191970" stroke="#191970" points="149.6864,-405.5676 158.4311,-399.5859 147.8648,-398.8088 149.6864,-405.5676"/>
</g>
<!-- Node12&#45;&gt;Node13 -->
<g id="edge2" class="edge">
<title>Node12&#45;&gt;Node13</title>
<path fill="none" stroke="#191970" d="M648.3173,-741.4096C662.035,-734.0838 679.3659,-722.7401 690,-708 733.0465,-648.3326 745.612,-558.4757 749.1603,-518.9073"/>
<polygon fill="#191970" stroke="#191970" points="752.6652,-518.9828 749.9681,-508.737 745.6872,-518.4285 752.6652,-518.9828"/>
</g>
<!-- Node15 -->
<g id="node5" class="node">
<title>Node15</title>
<g id="a_node5"><a xlink:href="defines_8c.html#abe68b7232c057100c2e21586906436d7" target="_top" xlink:title="get_project_ipc_key">
<polygon fill="none" stroke="#000000" points="284,-684.5 284,-703.5 398,-703.5 398,-684.5 284,-684.5"/>
<text text-anchor="middle" x="341" y="-691.5" font-family="Helvetica,sans-Serif" font-size="10.00" fill="#000000">get_project_ipc_key</text>
</a>
</g>
</g>
<!-- Node14&#45;&gt;Node15 -->
<g id="edge4" class="edge">
<title>Node14&#45;&gt;Node15</title>
<path fill="none" stroke="#191970" d="M231.0943,-722.411C250.3178,-717.4417 273.9863,-711.3233 294.4294,-706.0387"/>
<polygon fill="#191970" stroke="#191970" points="295.3667,-709.4115 304.1724,-703.5201 293.6147,-702.6343 295.3667,-709.4115"/>
</g>
<!-- Node15&#45;&gt;Node13 -->
<g id="edge5" class="edge">
<title>Node15&#45;&gt;Node13</title>
<path fill="none" stroke="#191970" d="M375.4438,-703.5556C443.2978,-720.1518 595.8334,-746.1476 690,-675 715.6217,-655.6415 737.9301,-560.2351 746.6232,-518.5492"/>
<polygon fill="#191970" stroke="#191970" points="750.0959,-519.0356 748.6629,-508.5382 743.2368,-517.638 750.0959,-519.0356"/>
</g>
<!-- Node16&#45;&gt;Node13 -->
<g id="edge7" class="edge">
<title>Node16&#45;&gt;Node13</title>
<path fill="none" stroke="#191970" d="M666.2298,-646.4728C674.8032,-642.9893 683.3144,-638.2943 690,-632 723.2624,-600.6843 739.6666,-547.6076 746.4703,-518.8853"/>
<polygon fill="#191970" stroke="#191970" points="749.9493,-519.3622 748.6892,-508.8426 743.1141,-517.8519 749.9493,-519.3622"/>
</g>
<!-- Node17&#45;&gt;Node15 -->
<g id="edge9" class="edge">
<title>Node17&#45;&gt;Node15</title>
<path fill="none" stroke="#191970" d="M234.5575,-694C246.6795,-694 260.3088,-694 273.6647,-694"/>
<polygon fill="#191970" stroke="#191970" points="273.7952,-697.5001 283.7952,-694 273.7952,-690.5001 273.7952,-697.5001"/>
</g>
<!-- Node18&#45;&gt;Node13 -->
<g id="edge11" class="edge">
<title>Node18&#45;&gt;Node13</title>
<path fill="none" stroke="#191970" d="M522.2806,-570.4519C564.3386,-560.0372 632.4288,-542.262 690,-523 699.3647,-519.8668 709.386,-516.076 718.5243,-512.4416"/>
<polygon fill="#191970" stroke="#191970" points="720.0646,-515.5941 728.0209,-508.5979 717.4383,-509.1054 720.0646,-515.5941"/>
</g>
<!-- Node19 -->
<g id="node9" class="node">
<title>Node19</title>
<g id="a_node9"><a xlink:href="semaphore_8c.html#a77c6570406059144bb6a8ecf04f481da" target="_top" xlink:title="Funzione di supporto per manipolare i valori di un set di semafori. ">
<polygon fill="none" stroke="#000000" points="602,-494.5 602,-513.5 653,-513.5 653,-494.5 602,-494.5"/>
<text text-anchor="middle" x="627.5" y="-501.5" font-family="Helvetica,sans-Serif" font-size="10.00" fill="#000000">semOp</text>
</a>
</g>
</g>
<!-- Node18&#45;&gt;Node19 -->
<g id="edge12" class="edge">
<title>Node18&#45;&gt;Node19</title>
<path fill="none" stroke="#191970" d="M510.3472,-570.4984C516.6935,-567.8279 523.2546,-564.6416 529,-561 547.3328,-549.3801 546.5447,-539.4243 565,-528 573.3464,-522.8333 582.9879,-518.4637 592.1616,-514.9274"/>
<polygon fill="#191970" stroke="#191970" points="593.6384,-518.1151 601.849,-511.419 591.2548,-511.5334 593.6384,-518.1151"/>
</g>
<!-- Node19&#45;&gt;Node13 -->
<g id="edge13" class="edge">
<title>Node19&#45;&gt;Node13</title>
<path fill="none" stroke="#191970" d="M653.2848,-502.9518C671.3181,-502.2188 695.6209,-501.2309 715.4159,-500.4262"/>
<polygon fill="#191970" stroke="#191970" points="715.7399,-503.916 725.5894,-500.0126 715.4555,-496.9218 715.7399,-503.916"/>
</g>
<!-- Node20&#45;&gt;Node13 -->
<g id="edge17" class="edge">
<title>Node20&#45;&gt;Node13</title>
<path fill="none" stroke="#191970" d="M516.6819,-623.723C560.3949,-629.1814 636.7902,-632.2865 690,-599 719.5371,-580.5224 736.6687,-541.8453 744.7484,-518.3773"/>
<polygon fill="#191970" stroke="#191970" points="748.1013,-519.3836 747.8358,-508.7921 741.4384,-517.2374 748.1013,-519.3836"/>
</g>
<!-- Node21 -->
<g id="node11" class="node">
<title>Node21</title>
<g id="a_node11"><a xlink:href="fifo_8c.html#ab83de0eb3bc3947e3c031685d5c2474b" target="_top" xlink:title="Crea o ottiene una IPC FIFO usando mkfifo. ">
<polygon fill="none" stroke="#000000" points="595,-570.5 595,-589.5 660,-589.5 660,-570.5 595,-570.5"/>
<text text-anchor="middle" x="627.5" y="-577.5" font-family="Helvetica,sans-Serif" font-size="10.00" fill="#000000">make_fifo</text>
</a>
</g>
</g>
<!-- Node20&#45;&gt;Node21 -->
<g id="edge15" class="edge">
<title>Node20&#45;&gt;Node21</title>
<path fill="none" stroke="#191970" d="M516.863,-608.9945C537.2508,-603.6515 563.2635,-596.8344 584.9428,-591.1529"/>
<polygon fill="#191970" stroke="#191970" points="586.0913,-594.4702 594.8773,-588.5494 584.3166,-587.6989 586.0913,-594.4702"/>
</g>
<!-- Node21&#45;&gt;Node13 -->
<g id="edge16" class="edge">
<title>Node21&#45;&gt;Node13</title>
<path fill="none" stroke="#191970" d="M659.4742,-570.4344C669.6341,-566.6959 680.6512,-561.8759 690,-556 707.4393,-545.039 724.2394,-528.5812 735.6917,-516.1636"/>
<polygon fill="#191970" stroke="#191970" points="738.3274,-518.4669 742.3983,-508.6853 733.1161,-513.7933 738.3274,-518.4669"/>
</g>
<!-- Node22&#45;&gt;Node13 -->
<g id="edge27" class="edge">
<title>Node22&#45;&gt;Node13</title>
<path fill="none" stroke="#191970" d="M234.0816,-286.4858C238.5967,-284.0188 242.7373,-280.9121 246,-277 306.6507,-204.2772 209.6045,-128.0409 282,-67 366.9141,4.5961 425.1982,-65.4831 529,-105 602.9498,-133.1524 641.5557,-118.4358 690,-181 726.6824,-228.374 744.2301,-417.4465 749.0698,-479.3031"/>
<polygon fill="#191970" stroke="#191970" points="745.5823,-479.6025 749.8273,-489.3098 752.5623,-479.0741 745.5823,-479.6025"/>
</g>
<!-- Node22&#45;&gt;Node22 -->
<g id="edge26" class="edge">
<title>Node22&#45;&gt;Node22</title>
<path fill="none" stroke="#191970" d="M172.4219,-305.7571C161.9245,-314.5653 169.1172,-324 194,-324 209.9406,-324 218.6211,-320.128 220.0416,-315.0292"/>
<polygon fill="#191970" stroke="#191970" points="223.0692,-313.2493 215.5781,-305.7571 216.762,-316.2855 223.0692,-313.2493"/>
</g>
<!-- Node23 -->
<g id="node13" class="node">
<title>Node23</title>
<g id="a_node13"><a xlink:href="strings_8c.html#a21b51584b636c81767ed74b8a527ffd3" target="_top" xlink:title="Concatena la cartella directory al percorso path. ">
<polygon fill="none" stroke="#000000" points="301,-.5 301,-19.5 381,-19.5 381,-.5 301,-.5"/>
<text text-anchor="middle" x="341" y="-7.5" font-family="Helvetica,sans-Serif" font-size="10.00" fill="#000000">append2Path</text>
</a>
</g>
</g>
<!-- Node22&#45;&gt;Node23 -->
<g id="edge20" class="edge">
<title>Node22&#45;&gt;Node23</title>
<path fill="none" stroke="#191970" d="M234.4202,-286.4142C238.8224,-283.9588 242.8426,-280.8744 246,-277 314.9713,-192.3657 214.5642,-119.8628 282,-34 284.8825,-30.3298 288.4182,-27.2174 292.3132,-24.5787"/>
<polygon fill="#191970" stroke="#191970" points="294.2986,-27.4778 301.3001,-19.5261 290.868,-21.376 294.2986,-27.4778"/>
</g>
<!-- Node24 -->
<g id="node14" class="node">
<title>Node24</title>
<g id="a_node14"><a xlink:href="files_8c.html#a675d61c6bfe0d9ddd1be59233dfd7d5c" target="_top" xlink:title="Restituisce 1 se il percorso inizia con &quot;sendme_&quot;, 0 altrimenti. ">
<polygon fill="none" stroke="#000000" points="295.5,-114.5 295.5,-133.5 386.5,-133.5 386.5,-114.5 295.5,-114.5"/>
<text text-anchor="middle" x="341" y="-121.5" font-family="Helvetica,sans-Serif" font-size="10.00" fill="#000000">checkFileName</text>
</a>
</g>
</g>
<!-- Node22&#45;&gt;Node24 -->
<g id="edge21" class="edge">
<title>Node22&#45;&gt;Node24</title>
<path fill="none" stroke="#191970" d="M233.2278,-286.4642C237.9934,-283.9989 242.4297,-280.8986 246,-277 287.6485,-231.5218 239.4779,-187.6624 282,-143 283.4191,-141.5095 284.9555,-140.1356 286.5837,-138.8693"/>
<polygon fill="#191970" stroke="#191970" points="288.7367,-141.6516 295.3719,-133.3917 285.034,-135.711 288.7367,-141.6516"/>
</g>
<!-- Node26 -->
<g id="node16" class="node">
<title>Node26</title>
<g id="a_node16"><a xlink:href="files_8c.html#a5ac4517096592013308a3252f3226f60" target="_top" xlink:title="Restituisce 1 se il percorso ha la dimensione &lt;= 4 KB, 0 altrimenti. ">
<polygon fill="none" stroke="#000000" points="300,-152.5 300,-171.5 382,-171.5 382,-152.5 300,-152.5"/>
<text text-anchor="middle" x="341" y="-159.5" font-family="Helvetica,sans-Serif" font-size="10.00" fill="#000000">checkFileSize</text>
</a>
</g>
</g>
<!-- Node22&#45;&gt;Node26 -->
<g id="edge23" class="edge">
<title>Node22&#45;&gt;Node26</title>
<path fill="none" stroke="#191970" d="M232.035,-286.4641C237.1532,-283.9919 242.0064,-280.8895 246,-277 277.1583,-246.6535 251.3933,-216.9028 282,-186 285.8908,-182.0716 290.5124,-178.7622 295.4309,-175.9799"/>
<polygon fill="#191970" stroke="#191970" points="297.0777,-179.0705 304.5112,-171.521 293.9923,-172.7871 297.0777,-179.0705"/>
</g>
<!-- Node28 -->
<g id="node18" class="node">
<title>Node28</title>
<g id="a_node18"><a xlink:href="files_8c.html#a6a46f37bcdbf048db0fba5bb3e0e6342" target="_top" xlink:title="Aggiunge in fondo alla coda un nuovo filePath. ">
<polygon fill="none" stroke="#000000" points="314.5,-76.5 314.5,-95.5 367.5,-95.5 367.5,-76.5 314.5,-76.5"/>
<text text-anchor="middle" x="341" y="-83.5" font-family="Helvetica,sans-Serif" font-size="10.00" fill="#000000">append</text>
</a>
</g>
</g>
<!-- Node22&#45;&gt;Node28 -->
<g id="edge25" class="edge">
<title>Node22&#45;&gt;Node28</title>
<path fill="none" stroke="#191970" d="M233.9478,-286.3721C238.4842,-283.9232 242.6664,-280.8519 246,-277 297.1101,-217.9448 229.7549,-163.0534 282,-105 287.8983,-98.4459 296.0651,-94.1409 304.4439,-91.3167"/>
<polygon fill="#191970" stroke="#191970" points="305.5307,-94.6481 314.2542,-88.6355 303.6852,-87.8958 305.5307,-94.6481"/>
</g>
<!-- Node25 -->
<g id="node15" class="node">
<title>Node25</title>
<g id="a_node15"><a xlink:href="strings_8c.html#ab6b8529148710caedf063c1de6b0db16" target="_top" xlink:title="Restituisce vero se la stringa a inizia con la sotto stringa b. ">
<polygon fill="none" stroke="#000000" points="448.5,-114.5 448.5,-133.5 516.5,-133.5 516.5,-114.5 448.5,-114.5"/>
<text text-anchor="middle" x="482.5" y="-121.5" font-family="Helvetica,sans-Serif" font-size="10.00" fill="#000000">StartsWith</text>
</a>
</g>
</g>
<!-- Node24&#45;&gt;Node25 -->
<g id="edge22" class="edge">
<title>Node24&#45;&gt;Node25</title>
<path fill="none" stroke="#191970" d="M386.5504,-124C402.9863,-124 421.5093,-124 437.866,-124"/>
<polygon fill="#191970" stroke="#191970" points="438.2581,-127.5001 448.2581,-124 438.258,-120.5001 438.2581,-127.5001"/>
</g>
<!-- Node27 -->
<g id="node17" class="node">
<title>Node27</title>
<g id="a_node17"><a xlink:href="files_8c.html#a096f8e9259afb2839ebe6822364f9928" target="_top" xlink:title="Restituisce la dimensione in byte del file con percorso filePath. ">
<polygon fill="none" stroke="#000000" points="448,-152.5 448,-171.5 517,-171.5 517,-152.5 448,-152.5"/>
<text text-anchor="middle" x="482.5" y="-159.5" font-family="Helvetica,sans-Serif" font-size="10.00" fill="#000000">getFileSize</text>
</a>
</g>
</g>
<!-- Node26&#45;&gt;Node27 -->
<g id="edge24" class="edge">
<title>Node26&#45;&gt;Node27</title>
<path fill="none" stroke="#191970" d="M382.308,-162C399.6284,-162 419.814,-162 437.5097,-162"/>
<polygon fill="#191970" stroke="#191970" points="437.6005,-165.5001 447.6005,-162 437.6005,-158.5001 437.6005,-165.5001"/>
</g>
<!-- Node32&#45;&gt;Node19 -->
<g id="edge32" class="edge">
<title>Node32&#45;&gt;Node19</title>
<path fill="none" stroke="#191970" d="M512.1928,-534.2184C535.2472,-528.1766 567.2989,-519.7768 591.7596,-513.3665"/>
<polygon fill="#191970" stroke="#191970" points="592.9436,-516.6744 601.7296,-510.7536 591.169,-509.9031 592.9436,-516.6744"/>
</g>
<!-- Node34&#45;&gt;Node19 -->
<g id="edge35" class="edge">
<title>Node34&#45;&gt;Node19</title>
<path fill="none" stroke="#191970" d="M516.863,-504C539.2751,-504 568.4846,-504 591.2625,-504"/>
<polygon fill="#191970" stroke="#191970" points="591.5482,-507.5001 601.5481,-504 591.5481,-500.5001 591.5482,-507.5001"/>
</g>
<!-- Node35&#45;&gt;Node13 -->
<g id="edge42" class="edge">
<title>Node35&#45;&gt;Node13</title>
<path fill="none" stroke="#191970" d="M382.3097,-313.3313C464.0293,-312.8212 642.5326,-315.9963 690,-352 731.1086,-383.1806 744.4409,-447.2196 748.6422,-479.4942"/>
<polygon fill="#191970" stroke="#191970" points="745.1702,-479.9391 749.778,-489.4795 752.1253,-479.1479 745.1702,-479.9391"/>
</g>
<!-- Node35&#45;&gt;Node19 -->
<g id="edge37" class="edge">
<title>Node35&#45;&gt;Node19</title>
<path fill="none" stroke="#191970" d="M382.1718,-321.7777C388.7364,-324.4752 395.0006,-328.1079 400,-333 434.96,-367.2096 401.4706,-402.3559 436,-437 458.2271,-459.3009 542.8076,-483.1306 591.8092,-495.4771"/>
<polygon fill="#191970" stroke="#191970" points="591.1413,-498.9175 601.6903,-497.9327 592.8297,-492.1242 591.1413,-498.9175"/>
</g>
<!-- Node35&#45;&gt;Node32 -->
<g id="edge38" class="edge">
<title>Node35&#45;&gt;Node32</title>
<path fill="none" stroke="#191970" d="M382.1888,-320.9388C388.913,-323.7178 395.2283,-327.595 400,-333 456.8819,-397.4307 381.6187,-456.4452 436,-523 438.152,-525.6337 440.7275,-527.906 443.5475,-529.8657"/>
<polygon fill="#191970" stroke="#191970" points="442.1183,-533.075 452.5623,-534.8565 445.5088,-526.9509 442.1183,-533.075"/>
</g>
<!-- Node35&#45;&gt;Node34 -->
<g id="edge39" class="edge">
<title>Node35&#45;&gt;Node34</title>
<path fill="none" stroke="#191970" d="M382.2596,-321.2726C388.8945,-324.0212 395.1603,-327.8019 400,-333 445.8355,-382.2296 394.3752,-427.1624 436,-480 438.7951,-483.5481 442.2585,-486.6233 446.0251,-489.2754"/>
<polygon fill="#191970" stroke="#191970" points="444.2372,-492.2843 454.6135,-494.4249 447.8369,-486.2807 444.2372,-492.2843"/>
</g>
<!-- Node36 -->
<g id="node26" class="node">
<title>Node36</title>
<g id="a_node26"><a xlink:href="semaphore_8c.html#aad78dc4ccefb184a74dd9ef808df8db6" target="_top" xlink:title="Inizializza il valore del semaforo sem_num al valore val. ">
<polygon fill="none" stroke="#000000" points="593.5,-266.5 593.5,-285.5 661.5,-285.5 661.5,-266.5 593.5,-266.5"/>
<text text-anchor="middle" x="627.5" y="-273.5" font-family="Helvetica,sans-Serif" font-size="10.00" fill="#000000">semSetVal</text>
</a>
</g>
</g>
<!-- Node35&#45;&gt;Node36 -->
<g id="edge40" class="edge">
<title>Node35&#45;&gt;Node36</title>
<path fill="none" stroke="#191970" d="M382.1221,-307.7416C398.8293,-305.2507 418.3253,-302.4096 436,-300 486.438,-293.1237 544.4544,-285.9565 583.2909,-281.2653"/>
<polygon fill="#191970" stroke="#191970" points="583.7141,-284.7398 593.2238,-280.069 582.877,-277.79 583.7141,-284.7398"/>
</g>
<!-- Node37 -->
<g id="node27" class="node">
<title>Node37</title>
<g id="a_node27"><a xlink:href="semaphore_8c.html#a8df9b8ea63eaf93d09f437b356a4a1eb" target="_top" xlink:title="Inizializza i valori del set di semafori semid ai valori in values. ">
<polygon fill="none" stroke="#000000" points="594.5,-451.5 594.5,-470.5 660.5,-470.5 660.5,-451.5 594.5,-451.5"/>
<text text-anchor="middle" x="627.5" y="-458.5" font-family="Helvetica,sans-Serif" font-size="10.00" fill="#000000">semSetAll</text>
</a>
</g>
</g>
<!-- Node35&#45;&gt;Node37 -->
<g id="edge43" class="edge">
<title>Node35&#45;&gt;Node37</title>
<path fill="none" stroke="#191970" d="M382.1808,-322.6874C388.5935,-325.2818 394.8048,-328.6444 400,-333 426.2048,-354.9702 409.7084,-379.1337 436,-401 478.6874,-436.5023 542.4367,-451.0546 584.484,-456.9823"/>
<polygon fill="#191970" stroke="#191970" points="584.0491,-460.4552 594.4181,-458.2796 584.9555,-453.5141 584.0491,-460.4552"/>
</g>
<!-- Node38 -->
<g id="node28" class="node">
<title>Node38</title>
<g id="a_node28"><a xlink:href="semaphore_8c.html#a530566146b6e3cc8415d8ae4259fd68f" target="_top" xlink:title="Cancella il set di semafori svegliando eventuali processi in attesa. ">
<polygon fill="none" stroke="#000000" points="592.5,-408.5 592.5,-427.5 662.5,-427.5 662.5,-408.5 592.5,-408.5"/>
<text text-anchor="middle" x="627.5" y="-415.5" font-family="Helvetica,sans-Serif" font-size="10.00" fill="#000000">semDelete</text>
</a>
</g>
</g>
<!-- Node35&#45;&gt;Node38 -->
<g id="edge45" class="edge">
<title>Node35&#45;&gt;Node38</title>
<path fill="none" stroke="#191970" d="M380.3257,-323.6084C387.1574,-326.1194 393.99,-329.2154 400,-333 419.6864,-345.3968 415.8868,-359.3084 436,-371 481.604,-397.509 541.6875,-409.1338 582.2983,-414.1882"/>
<polygon fill="#191970" stroke="#191970" points="582.1019,-417.6888 592.4386,-415.3643 582.9085,-410.7354 582.1019,-417.6888"/>
</g>
<!-- Node39 -->
<g id="node29" class="node">
<title>Node39</title>
<g id="a_node29"><a xlink:href="semaphore_8c.html#a34a010b0a39236a7261d7d5103426491" target="_top" xlink:title="Imposta i permessi su un set di semafori. ">
<polygon fill="none" stroke="#000000" points="443,-342.5 443,-361.5 522,-361.5 522,-342.5 443,-342.5"/>
<text text-anchor="middle" x="482.5" y="-349.5" font-family="Helvetica,sans-Serif" font-size="10.00" fill="#000000">semSetPerm</text>
</a>
</g>
</g>
<!-- Node35&#45;&gt;Node39 -->
<g id="edge47" class="edge">
<title>Node35&#45;&gt;Node39</title>
<path fill="none" stroke="#191970" d="M376.7064,-323.589C394.9727,-328.4944 417.4084,-334.5196 436.9112,-339.7571"/>
<polygon fill="#191970" stroke="#191970" points="436.2394,-343.2006 446.805,-342.4141 438.055,-336.4401 436.2394,-343.2006"/>
</g>
<!-- Node36&#45;&gt;Node13 -->
<g id="edge41" class="edge">
<title>Node36&#45;&gt;Node13</title>
<path fill="none" stroke="#191970" d="M661.6396,-282.948C671.9295,-286.5293 682.4762,-291.918 690,-300 714.7239,-326.5579 737.9144,-434.0575 746.7423,-479.0478"/>
<polygon fill="#191970" stroke="#191970" points="743.341,-479.8945 748.6694,-489.0519 750.2146,-478.5703 743.341,-479.8945"/>
</g>
<!-- Node37&#45;&gt;Node13 -->
<g id="edge44" class="edge">
<title>Node37&#45;&gt;Node13</title>
<path fill="none" stroke="#191970" d="M658.5381,-470.589C676.072,-476.006 698.0254,-482.7883 716.085,-488.3677"/>
<polygon fill="#191970" stroke="#191970" points="715.0771,-491.7195 725.6646,-491.3273 717.1434,-485.0314 715.0771,-491.7195"/>
</g>
<!-- Node38&#45;&gt;Node13 -->
<g id="edge46" class="edge">
<title>Node38&#45;&gt;Node13</title>
<path fill="none" stroke="#191970" d="M659.4742,-427.5656C669.6341,-431.3041 680.6512,-436.1241 690,-442 707.4393,-452.961 724.2394,-469.4188 735.6917,-481.8364"/>
<polygon fill="#191970" stroke="#191970" points="733.1161,-484.2067 742.3983,-489.3147 738.3274,-479.5331 733.1161,-484.2067"/>
</g>
<!-- Node39&#45;&gt;Node13 -->
<g id="edge48" class="edge">
<title>Node39&#45;&gt;Node13</title>
<path fill="none" stroke="#191970" d="M522.1584,-352.0105C566.9088,-353.9137 639.9663,-362.9221 690,-399 717.9906,-419.1832 735.4917,-456.6825 744.0873,-479.5836"/>
<polygon fill="#191970" stroke="#191970" points="740.8693,-480.9815 747.5073,-489.239 747.4676,-478.6443 740.8693,-480.9815"/>
</g>
<!-- Node42&#45;&gt;Node13 -->
<g id="edge52" class="edge">
<title>Node42&#45;&gt;Node13</title>
<path fill="none" stroke="#191970" d="M202.7817,-380.3491C224.5512,-356.4473 279.4431,-296.3265 282,-295 322.4148,-274.0338 654.1134,-228.9806 690,-257 725.4585,-284.6851 743.2103,-426.8177 748.6418,-479.4053"/>
<polygon fill="#191970" stroke="#191970" points="745.1686,-479.8495 749.6406,-489.4543 752.1343,-479.1571 745.1686,-479.8495"/>
</g>
<!-- Node42&#45;&gt;Node27 -->
<g id="edge53" class="edge">
<title>Node42&#45;&gt;Node27</title>
<path fill="none" stroke="#191970" d="M205.5023,-380.1936C217.2207,-369.6337 235.1665,-351.8023 246,-333 272.526,-286.9621 243.8904,-256.0239 282,-219 293.3318,-207.991 382.5025,-185.4777 438.0431,-172.2784"/>
<polygon fill="#191970" stroke="#191970" points="439.0687,-175.6325 447.9961,-169.927 437.4592,-168.82 439.0687,-175.6325"/>
</g>
<!-- Node42&#45;&gt;Node32 -->
<g id="edge55" class="edge">
<title>Node42&#45;&gt;Node32</title>
<path fill="none" stroke="#191970" d="M207.711,-399.5941C224.7634,-411.358 254.9354,-431.6255 282,-447 348.365,-484.6997 366.407,-491.6567 436,-523 440.1373,-524.8634 444.5137,-526.7542 448.8611,-528.5843"/>
<polygon fill="#191970" stroke="#191970" points="447.6494,-531.8706 458.2279,-532.4595 450.3255,-525.4023 447.6494,-531.8706"/>
</g>
<!-- Node42&#45;&gt;Node34 -->
<g id="edge61" class="edge">
<title>Node42&#45;&gt;Node34</title>
<path fill="none" stroke="#191970" d="M231.4926,-399.512C282.4098,-412.7312 370.4655,-436.7479 400,-452 418.01,-461.3007 418.9212,-469.083 436,-480 441.1979,-483.3226 446.9101,-486.5712 452.498,-489.5512"/>
<polygon fill="#191970" stroke="#191970" points="451.1794,-492.8091 461.6719,-494.2786 454.386,-486.5867 451.1794,-492.8091"/>
</g>
<!-- Node42&#45;&gt;Node35 -->
<g id="edge56" class="edge">
<title>Node42&#45;&gt;Node35</title>
<path fill="none" stroke="#191970" d="M218.6468,-380.4939C227.5867,-376.57 237.5569,-371.6187 246,-366 264.0697,-353.9751 263.2371,-343.9117 282,-333 285.6628,-330.8699 289.5947,-328.9455 293.6261,-327.214"/>
<polygon fill="#191970" stroke="#191970" points="295.0816,-330.4035 303.1339,-323.5179 292.5452,-323.8791 295.0816,-330.4035"/>
</g>
<!-- Node43 -->
<g id="node33" class="node">
<title>Node43</title>
<g id="a_node33"><a xlink:href="client_8c.html#a55586f2b7e9b3620294cf78cda8abdad" target="_top" xlink:title="Divide in 4 parti il contenuto del file da inviare al server. ">
<polygon fill="none" stroke="#000000" points="319,-380.5 319,-399.5 363,-399.5 363,-380.5 319,-380.5"/>
<text text-anchor="middle" x="341" y="-387.5" font-family="Helvetica,sans-Serif" font-size="10.00" fill="#000000">dividi</text>
</a>
</g>
</g>
<!-- Node42&#45;&gt;Node43 -->
<g id="edge54" class="edge">
<title>Node42&#45;&gt;Node43</title>
<path fill="none" stroke="#191970" d="M242.5407,-390C264.2737,-390 289.3104,-390 308.698,-390"/>
<polygon fill="#191970" stroke="#191970" points="308.831,-393.5001 318.831,-390 308.8309,-386.5001 308.831,-393.5001"/>
</g>
<!-- Node44 -->
<g id="node34" class="node">
<title>Node44</title>
<g id="a_node34"><a xlink:href="defines_8c.html#ac281b05b7a90ba292f5748cbfe3c389d" target="_top" xlink:title="Restituisce vero se l&#39;array contiene tutti true. ">
<polygon fill="none" stroke="#000000" points="282,-342.5 282,-361.5 400,-361.5 400,-342.5 282,-342.5"/>
<text text-anchor="middle" x="341" y="-349.5" font-family="Helvetica,sans-Serif" font-size="10.00" fill="#000000">arrayContainsAllTrue</text>
</a>
</g>
</g>
<!-- Node42&#45;&gt;Node44 -->
<g id="edge57" class="edge">
<title>Node42&#45;&gt;Node44</title>
<path fill="none" stroke="#191970" d="M231.0943,-380.411C250.3178,-375.4417 273.9863,-369.3233 294.4294,-364.0387"/>
<polygon fill="#191970" stroke="#191970" points="295.3667,-367.4115 304.1724,-361.5201 293.6147,-360.6343 295.3667,-367.4115"/>
</g>
<!-- Node45 -->
<g id="node35" class="node">
<title>Node45</title>
<g id="a_node35"><a xlink:href="semaphore_8c.html#a0d970df04f11907f1acb332a47a39104" target="_top" xlink:title="semWaitNoBlocc">
<polygon fill="none" stroke="#000000" points="291.5,-228.5 291.5,-247.5 390.5,-247.5 390.5,-228.5 291.5,-228.5"/>
<text text-anchor="middle" x="341" y="-235.5" font-family="Helvetica,sans-Serif" font-size="10.00" fill="#000000">semWaitNoBlocc</text>
</a>
</g>
</g>
<!-- Node42&#45;&gt;Node45 -->
<g id="edge58" class="edge">
<title>Node42&#45;&gt;Node45</title>
<path fill="none" stroke="#191970" d="M204.4836,-380.21C215.6864,-369.385 233.5161,-351.076 246,-333 266.1058,-303.888 255.9669,-285.959 282,-262 286.3264,-258.0183 291.4009,-254.6552 296.726,-251.8256"/>
<polygon fill="#191970" stroke="#191970" points="298.2696,-254.9675 305.8367,-247.5521 295.2969,-248.6301 298.2696,-254.9675"/>
</g>
<!-- Node46 -->
<g id="node36" class="node">
<title>Node46</title>
<g id="a_node36"><a xlink:href="semaphore_8c.html#a78e24598fb0a5416db19120d6748627e" target="_top" xlink:title="semOpNoBlocc">
<polygon fill="none" stroke="#000000" points="582,-190.5 582,-209.5 673,-209.5 673,-190.5 582,-190.5"/>
<text text-anchor="middle" x="627.5" y="-197.5" font-family="Helvetica,sans-Serif" font-size="10.00" fill="#000000">semOpNoBlocc</text>
</a>
</g>
</g>
<!-- Node45&#45;&gt;Node46 -->
<g id="edge59" class="edge">
<title>Node45&#45;&gt;Node46</title>
<path fill="none" stroke="#191970" d="M390.7686,-230.4585C405.3372,-228.307 421.2986,-226.0043 436,-224 481.5196,-217.7943 533.2118,-211.3515 571.4075,-206.7057"/>
<polygon fill="#191970" stroke="#191970" points="572.3005,-210.1232 581.8064,-205.4447 571.4577,-203.1741 572.3005,-210.1232"/>
</g>
<!-- Node46&#45;&gt;Node13 -->
<g id="edge60" class="edge">
<title>Node46&#45;&gt;Node13</title>
<path fill="none" stroke="#191970" d="M669.4917,-209.5397C677.2114,-212.9812 684.5427,-217.6554 690,-224 723.4766,-262.9197 742.7457,-423.0819 748.5865,-479.3473"/>
<polygon fill="#191970" stroke="#191970" points="745.1168,-479.825 749.6027,-489.4233 752.0815,-479.1225 745.1168,-479.825"/>
</g>
</g>
</svg>
