<?xml version="1.0" encoding="UTF-8" standalone="no"?>
<!DOCTYPE svg PUBLIC "-//W3C//DTD SVG 1.1//EN"
 "http://www.w3.org/Graphics/SVG/1.1/DTD/svg11.dtd">
<!-- Generated by graphviz version 2.40.1 (20161225.0304)
 -->
<!-- Title: main Pages: 1 -->
<!--zoomable 651 -->
<svg id="main" version="1.1" xmlns="http://www.w3.org/2000/svg" xmlns:xlink="http://www.w3.org/1999/xlink" xml:space="preserve" onload="init(evt)">
<style type="text/css"><![CDATA[
.edge:hover path { stroke: red; }
.edge:hover polygon { stroke: red; fill: red; }
]]></style>
<script type="text/javascript"><![CDATA[
var edges = document.getElementsByTagName('g');
if (edges && edges.length) {
  for (var i=0;i<edges.length;i++) {
    if (edges[i].id.substr(0,4)=='edge') {
      edges[i].setAttribute('class','edge');
    }
  }
}
]]></script>
        <defs>
                <circle id="rim" cx="0" cy="0" r="7"/>
                <circle id="rim2" cx="0" cy="0" r="3.5"/>
                <g id="zoomPlus">
                        <use xlink:href="#rim" fill="#404040">
                                <set attributeName="fill" to="#808080" begin="zoomplus.mouseover" end="zoomplus.mouseout"/>
                        </use>
                        <path d="M-4,0h8M0,-4v8" fill="none" stroke="white" stroke-width="1.5" pointer-events="none"/>
                </g>
                <g id="zoomMin">
                        <use xlink:href="#rim" fill="#404040">
                                <set attributeName="fill" to="#808080" begin="zoomminus.mouseover" end="zoomminus.mouseout"/>
                        </use>
                        <path d="M-4,0h8" fill="none" stroke="white" stroke-width="1.5" pointer-events="none"/>
                </g>
                <g id="dirArrow">
                        <path fill="none" stroke="white" stroke-width="1.5" d="M0,-3.0v7 M-2.5,-0.5L0,-3.0L2.5,-0.5"/>
                </g>
               <g id="resetDef">
                       <use xlink:href="#rim2" fill="#404040">
                               <set attributeName="fill" to="#808080" begin="reset.mouseover" end="reset.mouseout"/>
                       </use>
               </g>
        </defs>

<script type="text/javascript">
var viewWidth = 612;
var viewHeight = 651;
var sectionId = 'dynsection-3';
</script>
<script xlink:href="svgpan.js"/>
<svg id="graph" class="graph">
<g id="viewport">
<title>main</title>
<!-- Node9 -->
<g id="node1" class="node">
<title>Node9</title>
<polygon fill="#bfbfbf" stroke="#000000" points="0,-304.5 0,-323.5 41,-323.5 41,-304.5 0,-304.5"/>
<text text-anchor="middle" x="20.5" y="-311.5" font-family="Helvetica,sans-Serif" font-size="10.00" fill="#000000">main</text>
</g>
<!-- Node10 -->
<g id="node2" class="node">
<title>Node10</title>
<g id="a_node2"><a xlink:href="err__exit_8c.html#aa223b0ecfe538d130ece562646a37d27" target="_top" xlink:title="Prints the error message of the last failed system call and terminates the calling process...">
<polygon fill="none" stroke="#000000" points="555,-304.5 555,-323.5 604,-323.5 604,-304.5 555,-304.5"/>
<text text-anchor="middle" x="579.5" y="-311.5" font-family="Helvetica,sans-Serif" font-size="10.00" fill="#000000">ErrExit</text>
</a>
</g>
</g>
<!-- Node9&#45;&gt;Node10 -->
<g id="edge1" class="edge">
<title>Node9&#45;&gt;Node10</title>
<path fill="none" stroke="#191970" d="M20.7635,-323.722C22.2577,-370.6672 31.31,-573.1825 77,-611 194.8,-708.5028 453.2508,-553.5392 519,-485 560.3264,-441.92 573.623,-368.8738 577.741,-333.8649"/>
<polygon fill="#191970" stroke="#191970" points="581.2606,-333.857 578.8129,-323.5488 574.2981,-333.1335 581.2606,-333.857"/>
</g>
<!-- Node11 -->
<g id="node3" class="node">
<title>Node11</title>
<g id="a_node3"><a xlink:href="signals_8c.html#a6060ad9cb62b184abfe113560b29f3c4" target="_top" xlink:title="block_sig_no_SIGINT\l_SIGUSR1">
<polygon fill="none" stroke="#000000" points="82,-571 82,-601 200,-601 200,-571 82,-571"/>
<text text-anchor="start" x="90" y="-589" font-family="Helvetica,sans-Serif" font-size="10.00" fill="#000000">block_sig_no_SIGINT</text>
<text text-anchor="middle" x="141" y="-578" font-family="Helvetica,sans-Serif" font-size="10.00" fill="#000000">_SIGUSR1</text>
</a>
</g>
</g>
<!-- Node9&#45;&gt;Node11 -->
<g id="edge2" class="edge">
<title>Node9&#45;&gt;Node11</title>
<path fill="none" stroke="#191970" d="M21.5074,-323.6781C25.955,-364.7154 45.0396,-523.9393 77,-561 78.1515,-562.3353 79.3834,-563.5997 80.6826,-564.797"/>
<polygon fill="#191970" stroke="#191970" points="78.6893,-567.6782 88.7675,-570.9464 82.927,-562.1067 78.6893,-567.6782"/>
</g>
<!-- Node12 -->
<g id="node4" class="node">
<title>Node12</title>
<g id="a_node4"><a xlink:href="client_8c.html#a48d605ff689f470746c858648f0a98c2" target="_top" xlink:title="Handler del segnale SIGINT. ">
<polygon fill="none" stroke="#000000" points="82,-532.5 82,-551.5 200,-551.5 200,-532.5 82,-532.5"/>
<text text-anchor="middle" x="141" y="-539.5" font-family="Helvetica,sans-Serif" font-size="10.00" fill="#000000">SIGINTSignalHandler</text>
</a>
</g>
</g>
<!-- Node9&#45;&gt;Node12 -->
<g id="edge3" class="edge">
<title>Node9&#45;&gt;Node12</title>
<path fill="none" stroke="#191970" d="M21.8612,-323.7338C27.2477,-360.9296 48.1909,-493.4744 77,-523 78.4266,-524.4621 79.9602,-525.813 81.5792,-527.0609"/>
<polygon fill="#191970" stroke="#191970" points="79.9476,-530.168 90.2866,-532.4824 83.6475,-524.2257 79.9476,-530.168"/>
</g>
<!-- Node13 -->
<g id="node5" class="node">
<title>Node13</title>
<g id="a_node5"><a xlink:href="client_8c.html#a50b22adcb76198fcd9402a97ff4711bf" target="_top" xlink:title="Handler del segnale SIGUSR1. ">
<polygon fill="none" stroke="#000000" points="77,-494.5 77,-513.5 205,-513.5 205,-494.5 77,-494.5"/>
<text text-anchor="middle" x="141" y="-501.5" font-family="Helvetica,sans-Serif" font-size="10.00" fill="#000000">SIGUSR1SignalHandler</text>
</a>
</g>
</g>
<!-- Node9&#45;&gt;Node13 -->
<g id="edge4" class="edge">
<title>Node9&#45;&gt;Node13</title>
<path fill="none" stroke="#191970" d="M21.0062,-323.7076C22.986,-351.8032 32.4938,-434.1057 77,-480 80.8208,-483.94 85.35,-487.2397 90.2068,-490.0018"/>
<polygon fill="#191970" stroke="#191970" points="88.7005,-493.1613 99.2209,-494.4154 91.7788,-486.8744 88.7005,-493.1613"/>
</g>
<!-- Node14 -->
<g id="node6" class="node">
<title>Node14</title>
<g id="a_node6"><a xlink:href="defines_8c.html#a2d341373a96ffea0944553e5452cdbca" target="_top" xlink:title="get_ipc_key">
<polygon fill="none" stroke="#000000" points="423,-456.5 423,-475.5 498,-475.5 498,-456.5 423,-456.5"/>
<text text-anchor="middle" x="460.5" y="-463.5" font-family="Helvetica,sans-Serif" font-size="10.00" fill="#000000">get_ipc_key</text>
</a>
</g>
</g>
<!-- Node9&#45;&gt;Node14 -->
<g id="edge5" class="edge">
<title>Node9&#45;&gt;Node14</title>
<path fill="none" stroke="#191970" d="M21.8579,-323.7861C25.6799,-347.2128 38.8587,-406.5304 77,-433 179.062,-503.8296 335.1288,-489.1908 412.9437,-475.8637"/>
<polygon fill="#191970" stroke="#191970" points="413.7078,-479.2828 422.9397,-474.0844 412.481,-472.3911 413.7078,-479.2828"/>
</g>
<!-- Node15 -->
<g id="node7" class="node">
<title>Node15</title>
<g id="a_node7"><a xlink:href="shared__memory_8c.html#a660a60242a5174977ab2debcdbd0e587" target="_top" xlink:title="Ottiene l&#39;id o crea una memoria condivisa. ">
<polygon fill="none" stroke="#000000" points="241,-418.5 241,-437.5 366,-437.5 366,-418.5 241,-418.5"/>
<text text-anchor="middle" x="303.5" y="-425.5" font-family="Helvetica,sans-Serif" font-size="10.00" fill="#000000">alloc_shared_memory</text>
</a>
</g>
</g>
<!-- Node9&#45;&gt;Node15 -->
<g id="edge7" class="edge">
<title>Node9&#45;&gt;Node15</title>
<path fill="none" stroke="#191970" d="M23.3964,-323.6508C29.6729,-342.7045 46.4795,-384.955 77,-404 122.4748,-432.3765 183.2966,-437.431 230.4627,-435.9056"/>
<polygon fill="#191970" stroke="#191970" points="230.7724,-439.3957 240.6131,-435.4702 230.4723,-432.4021 230.7724,-439.3957"/>
</g>
<!-- Node16 -->
<g id="node8" class="node">
<title>Node16</title>
<g id="a_node8"><a xlink:href="shared__memory_8c.html#ab2ffe00ec7425a3a4229cd0d53ed901c" target="_top" xlink:title="Recupera il puntatore alla memoria condivisa aggiungendola allo spazio degli indirizzi. ">
<polygon fill="none" stroke="#000000" points="402,-380.5 402,-399.5 519,-399.5 519,-380.5 402,-380.5"/>
<text text-anchor="middle" x="460.5" y="-387.5" font-family="Helvetica,sans-Serif" font-size="10.00" fill="#000000">get_shared_memory</text>
</a>
</g>
</g>
<!-- Node9&#45;&gt;Node16 -->
<g id="edge9" class="edge">
<title>Node9&#45;&gt;Node16</title>
<path fill="none" stroke="#191970" d="M32.2398,-323.6874C43.1329,-332.1139 60.1579,-343.9031 77,-350 181.9666,-387.9983 312.915,-393.4649 391.4534,-392.6588"/>
<polygon fill="#191970" stroke="#191970" points="391.7582,-396.155 401.708,-392.5147 391.6597,-389.1557 391.7582,-396.155"/>
</g>
<!-- Node17 -->
<g id="node9" class="node">
<title>Node17</title>
<g id="a_node9"><a xlink:href="semaphore_8c.html#a2081de3d1c08dbacaf10ca46a717fabb" target="_top" xlink:title="Crea un insieme di semafori. ">
<polygon fill="none" stroke="#000000" points="249.5,-342.5 249.5,-361.5 357.5,-361.5 357.5,-342.5 249.5,-342.5"/>
<text text-anchor="middle" x="303.5" y="-349.5" font-family="Helvetica,sans-Serif" font-size="10.00" fill="#000000">createSemaphores</text>
</a>
</g>
</g>
<!-- Node9&#45;&gt;Node17 -->
<g id="edge11" class="edge">
<title>Node9&#45;&gt;Node17</title>
<path fill="none" stroke="#191970" d="M41.0181,-319.8052C51.6764,-322.6367 64.9573,-325.8803 77,-328 131.3091,-337.5593 193.6614,-343.8257 239.1782,-347.5501"/>
<polygon fill="#191970" stroke="#191970" points="238.9588,-351.0437 249.2059,-348.3519 239.5167,-344.0659 238.9588,-351.0437"/>
</g>
<!-- Node18 -->
<g id="node10" class="node">
<title>Node18</title>
<g id="a_node10"><a xlink:href="semaphore_8c.html#a8df9b8ea63eaf93d09f437b356a4a1eb" target="_top" xlink:title="Inizializza i valori del set di semafori semid ai valori in values. ">
<polygon fill="none" stroke="#000000" points="427.5,-304.5 427.5,-323.5 493.5,-323.5 493.5,-304.5 427.5,-304.5"/>
<text text-anchor="middle" x="460.5" y="-311.5" font-family="Helvetica,sans-Serif" font-size="10.00" fill="#000000">semSetAll</text>
</a>
</g>
</g>
<!-- Node9&#45;&gt;Node18 -->
<g id="edge13" class="edge">
<title>Node9&#45;&gt;Node18</title>
<path fill="none" stroke="#191970" d="M41.132,-314C108.6974,-314 324.2993,-314 417.2154,-314"/>
<polygon fill="#191970" stroke="#191970" points="417.3961,-317.5001 427.3961,-314 417.3961,-310.5001 417.3961,-317.5001"/>
</g>
<!-- Node19 -->
<g id="node11" class="node">
<title>Node19</title>
<g id="a_node11"><a xlink:href="fifo_8c.html#ae4a1d7aadbfb8d041fccec7ebf8ab431" target="_top" xlink:title="Garantisce la creazione di una nuova FIFO cancellando l&#39;eventuale file della FIFO esistente...">
<polygon fill="none" stroke="#000000" points="94,-266.5 94,-285.5 188,-285.5 188,-266.5 94,-266.5"/>
<text text-anchor="middle" x="141" y="-273.5" font-family="Helvetica,sans-Serif" font-size="10.00" fill="#000000">create_new_fifo</text>
</a>
</g>
</g>
<!-- Node9&#45;&gt;Node19 -->
<g id="edge15" class="edge">
<title>Node9&#45;&gt;Node19</title>
<path fill="none" stroke="#191970" d="M41.2147,-307.4676C57.5631,-302.312 80.8647,-294.9638 100.8395,-288.6647"/>
<polygon fill="#191970" stroke="#191970" points="102.1449,-291.9231 110.6292,-285.5775 100.0396,-285.2471 102.1449,-291.9231"/>
</g>
<!-- Node20 -->
<g id="node12" class="node">
<title>Node20</title>
<g id="a_node12"><a xlink:href="fifo_8c.html#a54a1ae8162825128cf02f95692402c18" target="_top" xlink:title="Facilita la creazione di una FIFO (o ne ottiene una esistente) in modalita&#39; lettura o scrittura...">
<polygon fill="none" stroke="#000000" points="269.5,-228.5 269.5,-247.5 337.5,-247.5 337.5,-228.5 269.5,-228.5"/>
<text text-anchor="middle" x="303.5" y="-235.5" font-family="Helvetica,sans-Serif" font-size="10.00" fill="#000000">create_fifo</text>
</a>
</g>
</g>
<!-- Node9&#45;&gt;Node20 -->
<g id="edge21" class="edge">
<title>Node9&#45;&gt;Node20</title>
<path fill="none" stroke="#191970" d="M26.7802,-304.2716C35.9896,-290.9501 54.5263,-267.491 77,-257 135.5073,-229.6881 211.7546,-229.5276 259.1628,-232.9679"/>
<polygon fill="#191970" stroke="#191970" points="259.1536,-236.4786 269.4042,-233.8001 259.7205,-229.5016 259.1536,-236.4786"/>
</g>
<!-- Node22 -->
<g id="node14" class="node">
<title>Node22</title>
<g id="a_node14"><a xlink:href="server_8c.html#ab53aa0eb44ad55d2e189f18d3bd6017b" target="_top" xlink:title="string_to_int">
<polygon fill="none" stroke="#000000" points="265,-171.5 265,-190.5 342,-190.5 342,-171.5 265,-171.5"/>
<text text-anchor="middle" x="303.5" y="-178.5" font-family="Helvetica,sans-Serif" font-size="10.00" fill="#000000">string_to_int</text>
</a>
</g>
</g>
<!-- Node9&#45;&gt;Node22 -->
<g id="edge22" class="edge">
<title>Node9&#45;&gt;Node22</title>
<path fill="none" stroke="#191970" d="M23.8604,-304.3399C30.7439,-286.0745 48.2651,-246.5573 77,-227 130.2662,-190.7463 205.8262,-181.8747 254.7543,-180.2979"/>
<polygon fill="#191970" stroke="#191970" points="254.8572,-183.7966 264.7732,-180.065 254.6945,-176.7985 254.8572,-183.7966"/>
</g>
<!-- Node23 -->
<g id="node15" class="node">
<title>Node23</title>
<g id="a_node15"><a xlink:href="semaphore_8c.html#a2581efba6a0833e3f289de94c779cc21" target="_top" xlink:title="Esegue la wait sul semaforo sem_num: decrementa il valore di 1 ed eventualmente mette in attesa il pr...">
<polygon fill="none" stroke="#000000" points="111.5,-152.5 111.5,-171.5 170.5,-171.5 170.5,-152.5 111.5,-152.5"/>
<text text-anchor="middle" x="141" y="-159.5" font-family="Helvetica,sans-Serif" font-size="10.00" fill="#000000">semWait</text>
</a>
</g>
</g>
<!-- Node9&#45;&gt;Node23 -->
<g id="edge24" class="edge">
<title>Node9&#45;&gt;Node23</title>
<path fill="none" stroke="#191970" d="M22.1531,-304.1668C26.6305,-280.5071 41.1543,-219.8615 77,-186 83.9051,-179.4771 92.7493,-174.6869 101.6449,-171.1836"/>
<polygon fill="#191970" stroke="#191970" points="102.9235,-174.4448 111.2283,-167.8661 100.6336,-167.83 102.9235,-174.4448"/>
</g>
<!-- Node25 -->
<g id="node17" class="node">
<title>Node25</title>
<g id="a_node17"><a xlink:href="semaphore_8c.html#a7bad0eb0b0c6ac701b59c36b8b7837bf" target="_top" xlink:title="Esegue la signal sul semaforo sem_num: incrementa il valore di 1. ">
<polygon fill="none" stroke="#000000" points="107,-114.5 107,-133.5 175,-133.5 175,-114.5 107,-114.5"/>
<text text-anchor="middle" x="141" y="-121.5" font-family="Helvetica,sans-Serif" font-size="10.00" fill="#000000">semSignal</text>
</a>
</g>
</g>
<!-- Node9&#45;&gt;Node25 -->
<g id="edge27" class="edge">
<title>Node9&#45;&gt;Node25</title>
<path fill="none" stroke="#191970" d="M22.5269,-304.0472C29.4204,-271.1084 52.8734,-166.401 77,-143 82.6744,-137.4963 89.8679,-133.5765 97.3683,-130.7874"/>
<polygon fill="#191970" stroke="#191970" points="98.4232,-134.1248 106.9417,-127.8251 96.354,-127.4376 98.4232,-134.1248"/>
</g>
<!-- Node26 -->
<g id="node18" class="node">
<title>Node26</title>
<g id="a_node18"><a xlink:href="defines_8c.html#aea9b93cad897755a46cb9e3373ba8cc2" target="_top" xlink:title="Rende bloccante oppure non bloccante un file descriptor. ">
<polygon fill="none" stroke="#000000" points="113,-76.5 113,-95.5 169,-95.5 169,-76.5 113,-76.5"/>
<text text-anchor="middle" x="141" y="-83.5" font-family="Helvetica,sans-Serif" font-size="10.00" fill="#000000">blockFD</text>
</a>
</g>
</g>
<!-- Node9&#45;&gt;Node26 -->
<g id="edge29" class="edge">
<title>Node9&#45;&gt;Node26</title>
<path fill="none" stroke="#191970" d="M21.8612,-304.2662C27.2477,-267.0704 48.1909,-134.5256 77,-105 83.9688,-97.8579 93.4887,-93.3708 103.0557,-90.5606"/>
<polygon fill="#191970" stroke="#191970" points="104.0255,-93.9274 112.9376,-88.1981 102.3978,-87.1193 104.0255,-93.9274"/>
</g>
<!-- Node27 -->
<g id="node19" class="node">
<title>Node27</title>
<g id="a_node19"><a xlink:href="server_8c.html#ac94aa68fd5fccbf448cfe8788bd46225" target="_top" xlink:title="aggiungiAMatrice">
<polygon fill="none" stroke="#000000" points="90.5,-38.5 90.5,-57.5 191.5,-57.5 191.5,-38.5 90.5,-38.5"/>
<text text-anchor="middle" x="141" y="-45.5" font-family="Helvetica,sans-Serif" font-size="10.00" fill="#000000">aggiungiAMatrice</text>
</a>
</g>
</g>
<!-- Node9&#45;&gt;Node27 -->
<g id="edge30" class="edge">
<title>Node9&#45;&gt;Node27</title>
<path fill="none" stroke="#191970" d="M21.4291,-304.2514C25.556,-262.9257 43.5151,-102.6892 77,-67 78.4275,-65.4785 79.9706,-64.0771 81.6061,-62.7863"/>
<polygon fill="#191970" stroke="#191970" points="83.8541,-65.5065 90.4451,-57.2114 80.1198,-59.5858 83.8541,-65.5065"/>
</g>
<!-- Node28 -->
<g id="node20" class="node">
<title>Node28</title>
<g id="a_node20"><a xlink:href="server_8c.html#aefaefec035e6211d28b35a6d2ce3b3fa" target="_top" xlink:title="costruisciStringa">
<polygon fill="none" stroke="#000000" points="92,-.5 92,-19.5 190,-19.5 190,-.5 92,-.5"/>
<text text-anchor="middle" x="141" y="-7.5" font-family="Helvetica,sans-Serif" font-size="10.00" fill="#000000">costruisciStringa</text>
</a>
</g>
</g>
<!-- Node9&#45;&gt;Node28 -->
<g id="edge31" class="edge">
<title>Node9&#45;&gt;Node28</title>
<path fill="none" stroke="#191970" d="M21.1035,-304.3199C24.0986,-259.3145 38.7796,-70.946 77,-29 78.8101,-27.0135 80.8174,-25.2309 82.9712,-23.6317"/>
<polygon fill="#191970" stroke="#191970" points="85.0885,-26.445 91.8984,-18.3286 81.5134,-20.4268 85.0885,-26.445"/>
</g>
<!-- Node14&#45;&gt;Node10 -->
<g id="edge6" class="edge">
<title>Node14&#45;&gt;Node10</title>
<path fill="none" stroke="#191970" d="M495.7898,-456.3981C504.1223,-452.8862 512.4708,-448.1969 519,-442 550.8086,-411.8105 567.6663,-361.5281 574.9626,-333.8241"/>
<polygon fill="#191970" stroke="#191970" points="578.4457,-334.3183 577.4479,-323.7705 571.6503,-332.6383 578.4457,-334.3183"/>
</g>
<!-- Node15&#45;&gt;Node10 -->
<g id="edge8" class="edge">
<title>Node15&#45;&gt;Node10</title>
<path fill="none" stroke="#191970" d="M366.044,-436.4918C411.6657,-439.5239 473.2562,-436.7842 519,-409 547.4221,-391.7368 564.7815,-355.4845 573.2331,-333.0915"/>
<polygon fill="#191970" stroke="#191970" points="576.5463,-334.2204 576.587,-323.6256 569.9482,-331.8826 576.5463,-334.2204"/>
</g>
<!-- Node16&#45;&gt;Node10 -->
<g id="edge10" class="edge">
<title>Node16&#45;&gt;Node10</title>
<path fill="none" stroke="#191970" d="M489.0638,-380.3976C498.8845,-376.5528 509.7328,-371.6773 519,-366 535.1207,-356.1241 551.2507,-341.996 562.7968,-330.9581"/>
<polygon fill="#191970" stroke="#191970" points="565.3072,-333.3985 570.0015,-323.9004 560.4087,-328.398 565.3072,-333.3985"/>
</g>
<!-- Node17&#45;&gt;Node10 -->
<g id="edge12" class="edge">
<title>Node17&#45;&gt;Node10</title>
<path fill="none" stroke="#191970" d="M357.5364,-350.4715C401.4009,-348.4581 464.6634,-343.7951 519,-333 527.615,-331.2885 536.7362,-328.7984 545.2115,-326.1812"/>
<polygon fill="#191970" stroke="#191970" points="546.3525,-329.4908 554.795,-323.0896 544.2034,-322.8289 546.3525,-329.4908"/>
</g>
<!-- Node18&#45;&gt;Node10 -->
<g id="edge14" class="edge">
<title>Node18&#45;&gt;Node10</title>
<path fill="none" stroke="#191970" d="M493.6481,-314C509.557,-314 528.6155,-314 544.7301,-314"/>
<polygon fill="#191970" stroke="#191970" points="544.8319,-317.5001 554.8318,-314 544.8318,-310.5001 544.8319,-317.5001"/>
</g>
<!-- Node19&#45;&gt;Node10 -->
<g id="edge16" class="edge">
<title>Node19&#45;&gt;Node10</title>
<path fill="none" stroke="#191970" d="M188.283,-274.5534C260.2814,-273.2077 401.4473,-273.9417 519,-295 527.6457,-296.5488 536.7785,-298.9776 545.2552,-301.5874"/>
<polygon fill="#191970" stroke="#191970" points="544.2442,-304.9389 554.8362,-304.6925 546.4023,-298.2799 544.2442,-304.9389"/>
</g>
<!-- Node19&#45;&gt;Node20 -->
<g id="edge17" class="edge">
<title>Node19&#45;&gt;Node20</title>
<path fill="none" stroke="#191970" d="M182.0056,-266.411C205.6169,-260.8896 235.2943,-253.9496 259.4071,-248.3109"/>
<polygon fill="#191970" stroke="#191970" points="260.4263,-251.6671 269.3666,-245.982 258.8323,-244.851 260.4263,-251.6671"/>
</g>
<!-- Node20&#45;&gt;Node10 -->
<g id="edge20" class="edge">
<title>Node20&#45;&gt;Node10</title>
<path fill="none" stroke="#191970" d="M337.5581,-235.7512C381.4158,-234.1789 459.1116,-235.9387 519,-262 536.9542,-269.813 553.5291,-284.8554 564.7726,-296.7595"/>
<polygon fill="#191970" stroke="#191970" points="562.3531,-299.3022 571.6562,-304.3721 567.5452,-294.6073 562.3531,-299.3022"/>
</g>
<!-- Node21 -->
<g id="node13" class="node">
<title>Node21</title>
<g id="a_node13"><a xlink:href="fifo_8c.html#ab83de0eb3bc3947e3c031685d5c2474b" target="_top" xlink:title="Crea o ottiene una IPC FIFO usando mkfifo. ">
<polygon fill="none" stroke="#000000" points="428,-190.5 428,-209.5 493,-209.5 493,-190.5 428,-190.5"/>
<text text-anchor="middle" x="460.5" y="-197.5" font-family="Helvetica,sans-Serif" font-size="10.00" fill="#000000">make_fifo</text>
</a>
</g>
</g>
<!-- Node20&#45;&gt;Node21 -->
<g id="edge18" class="edge">
<title>Node20&#45;&gt;Node21</title>
<path fill="none" stroke="#191970" d="M337.5667,-229.7546C361.1082,-224.0566 392.5994,-216.4345 417.815,-210.3314"/>
<polygon fill="#191970" stroke="#191970" points="418.9469,-213.6586 427.8429,-207.9043 417.3001,-206.855 418.9469,-213.6586"/>
</g>
<!-- Node21&#45;&gt;Node10 -->
<g id="edge19" class="edge">
<title>Node21&#45;&gt;Node10</title>
<path fill="none" stroke="#191970" d="M493.0382,-209.4316C502.0509,-213.0431 511.4285,-217.8252 519,-224 542.9648,-243.5439 561.0828,-275.0577 570.9916,-295.1364"/>
<polygon fill="#191970" stroke="#191970" points="567.8523,-296.6851 575.2994,-304.2211 574.1773,-293.6858 567.8523,-296.6851"/>
</g>
<!-- Node22&#45;&gt;Node10 -->
<g id="edge23" class="edge">
<title>Node22&#45;&gt;Node10</title>
<path fill="none" stroke="#191970" d="M333.859,-171.4622C378.3741,-159.4399 462.2166,-144.4478 519,-181 558.1511,-206.2021 572.2619,-263.6375 577.113,-294.1281"/>
<polygon fill="#191970" stroke="#191970" points="573.6948,-294.9553 578.5518,-304.3712 580.6267,-293.9815 573.6948,-294.9553"/>
</g>
<!-- Node24 -->
<g id="node16" class="node">
<title>Node24</title>
<g id="a_node16"><a xlink:href="semaphore_8c.html#a77c6570406059144bb6a8ecf04f481da" target="_top" xlink:title="Funzione di supporto per manipolare i valori di un set di semafori. ">
<polygon fill="none" stroke="#000000" points="278,-114.5 278,-133.5 329,-133.5 329,-114.5 278,-114.5"/>
<text text-anchor="middle" x="303.5" y="-121.5" font-family="Helvetica,sans-Serif" font-size="10.00" fill="#000000">semOp</text>
</a>
</g>
</g>
<!-- Node23&#45;&gt;Node24 -->
<g id="edge25" class="edge">
<title>Node23&#45;&gt;Node24</title>
<path fill="none" stroke="#191970" d="M170.805,-155.0302C198.2623,-148.6094 239.0351,-139.0749 268.1307,-132.271"/>
<polygon fill="#191970" stroke="#191970" points="268.9539,-135.673 277.8942,-129.9878 267.36,-128.8569 268.9539,-135.673"/>
</g>
<!-- Node24&#45;&gt;Node10 -->
<g id="edge26" class="edge">
<title>Node24&#45;&gt;Node10</title>
<path fill="none" stroke="#191970" d="M329.2906,-119.8463C373.2977,-114.2806 463.5051,-109.6891 519,-154 562.7851,-188.961 574.8927,-259.2964 578.2327,-293.8747"/>
<polygon fill="#191970" stroke="#191970" points="574.7671,-294.4426 579.0624,-304.1277 581.7443,-293.878 574.7671,-294.4426"/>
</g>
<!-- Node25&#45;&gt;Node24 -->
<g id="edge28" class="edge">
<title>Node25&#45;&gt;Node24</title>
<path fill="none" stroke="#191970" d="M175.0653,-124C202.2983,-124 240.354,-124 267.9664,-124"/>
<polygon fill="#191970" stroke="#191970" points="267.9935,-127.5001 277.9935,-124 267.9935,-120.5001 267.9935,-127.5001"/>
</g>
</g>
</svg>
        <g id="navigator" transform="translate(0 0)" fill="#404254">
                <rect fill="#f2f5e9" fill-opacity="0.5" stroke="#606060" stroke-width=".5" x="0" y="0" width="60" height="60"/>
                <use id="zoomplus" xlink:href="#zoomPlus" x="17" y="9" onmousedown="handleZoom(evt,'in')"/>
                <use id="zoomminus" xlink:href="#zoomMin" x="42" y="9" onmousedown="handleZoom(evt,'out')"/>
                <use id="reset" xlink:href="#resetDef" x="30" y="36" onmousedown="handleReset()"/>
                <g id="arrowUp" xlink:href="#dirArrow" transform="translate(30 24)" onmousedown="handlePan(0,-1)">
                  <use xlink:href="#rim" fill="#404040">
                        <set attributeName="fill" to="#808080" begin="arrowUp.mouseover" end="arrowUp.mouseout"/>
                  </use>
                  <path fill="none" stroke="white" stroke-width="1.5" d="M0,-3.0v7 M-2.5,-0.5L0,-3.0L2.5,-0.5"/>
                </g>
                <g id="arrowRight" xlink:href="#dirArrow" transform="rotate(90) translate(36 -43)" onmousedown="handlePan(1,0)">
                  <use xlink:href="#rim" fill="#404040">
                        <set attributeName="fill" to="#808080" begin="arrowRight.mouseover" end="arrowRight.mouseout"/>
                  </use>
                  <path fill="none" stroke="white" stroke-width="1.5" d="M0,-3.0v7 M-2.5,-0.5L0,-3.0L2.5,-0.5"/>
                </g>
                <g id="arrowDown" xlink:href="#dirArrow" transform="rotate(180) translate(-30 -48)" onmousedown="handlePan(0,1)">
                  <use xlink:href="#rim" fill="#404040">
                        <set attributeName="fill" to="#808080" begin="arrowDown.mouseover" end="arrowDown.mouseout"/>
                  </use>
                  <path fill="none" stroke="white" stroke-width="1.5" d="M0,-3.0v7 M-2.5,-0.5L0,-3.0L2.5,-0.5"/>
                </g>
                <g id="arrowLeft" xlink:href="#dirArrow" transform="rotate(270) translate(-36 17)" onmousedown="handlePan(-1,0)">
                  <use xlink:href="#rim" fill="#404040">
                        <set attributeName="fill" to="#808080" begin="arrowLeft.mouseover" end="arrowLeft.mouseout"/>
                  </use>
                  <path fill="none" stroke="white" stroke-width="1.5" d="M0,-3.0v7 M-2.5,-0.5L0,-3.0L2.5,-0.5"/>
                </g>
        </g>
        <svg viewBox="0 0 15 15" width="100%" height="30px" preserveAspectRatio="xMaxYMin meet">
         <g id="arrow_out" transform="scale(0.3 0.3)">
          <a xlink:href="client_8h_a0ddf1224851353fc92bfbff6f499fa97_cgraph_org.svg" target="_base">
           <rect id="button" ry="5" rx="5" y="6" x="6" height="38" width="38"
                fill="#f2f5e9" fill-opacity="0.5" stroke="#606060" stroke-width="1.0"/>
           <path id="arrow"
             d="M 11.500037,31.436501 C 11.940474,20.09759 22.043105,11.32322 32.158766,21.979434 L 37.068811,17.246167 C 37.068811,17.246167 37.088388,32 37.088388,32 L 22.160133,31.978069 C 22.160133,31.978069 26.997745,27.140456 26.997745,27.140456 C 18.528582,18.264221 13.291696,25.230495 11.500037,31.436501 z"
             style="fill:#404040;"/>
          </a>
         </g>
        </svg>
</svg>
