<?xml version="1.0" encoding="UTF-8" standalone="no"?>
<!DOCTYPE svg PUBLIC "-//W3C//DTD SVG 1.1//EN"
 "http://www.w3.org/Graphics/SVG/1.1/DTD/svg11.dtd">
<!-- Generated by graphviz version 2.40.1 (20161225.0304)
 -->
<!-- Title: main Pages: 1 -->
<svg width="907pt" height="1120pt"
 viewBox="0.00 0.00 907.00 1120.00" xmlns="http://www.w3.org/2000/svg" xmlns:xlink="http://www.w3.org/1999/xlink">
<g id="graph0" class="graph" transform="scale(1 1) rotate(0) translate(4 1116)">
<title>main</title>
<!-- Node9 -->
<g id="node1" class="node">
<title>Node9</title>
<polygon fill="#bfbfbf" stroke="#000000" points="0,-719.5 0,-738.5 41,-738.5 41,-719.5 0,-719.5"/>
<text text-anchor="middle" x="20.5" y="-726.5" font-family="Helvetica,sans-Serif" font-size="10.00" fill="#000000">main</text>
</g>
<!-- Node10 -->
<g id="node2" class="node">
<title>Node10</title>
<g id="a_node2"><a xlink:href="err__exit_8c.html#aa223b0ecfe538d130ece562646a37d27" target="_top" xlink:title="Prints the error message of the last failed system call and terminates the calling process...">
<polygon fill="none" stroke="#000000" points="850,-532.5 850,-551.5 899,-551.5 899,-532.5 850,-532.5"/>
<text text-anchor="middle" x="874.5" y="-539.5" font-family="Helvetica,sans-Serif" font-size="10.00" fill="#000000">ErrExit</text>
</a>
</g>
</g>
<!-- Node9&#45;&gt;Node10 -->
<g id="edge1" class="edge">
<title>Node9&#45;&gt;Node10</title>
<path fill="none" stroke="#191970" d="M21.8536,-738.7628C27.5382,-778.7483 50.4198,-929.7451 77,-969 139.489,-1061.2868 171.5472,-1112 283,-1112 283,-1112 283,-1112 589,-1112 840.5063,-1112 870.4654,-662.8692 874.0225,-561.9628"/>
<polygon fill="#191970" stroke="#191970" points="877.5231,-561.9948 874.3273,-551.8934 870.5263,-561.7829 877.5231,-561.9948"/>
</g>
<!-- Node11 -->
<g id="node3" class="node">
<title>Node11</title>
<g id="a_node3"><a xlink:href="signals_8c.html#a6060ad9cb62b184abfe113560b29f3c4" target="_top" xlink:title="block_sig_no_SIGINT\l_SIGUSR1">
<polygon fill="none" stroke="#000000" points="77,-692 77,-722 195,-722 195,-692 77,-692"/>
<text text-anchor="start" x="85" y="-710" font-family="Helvetica,sans-Serif" font-size="10.00" fill="#000000">block_sig_no_SIGINT</text>
<text text-anchor="middle" x="136" y="-699" font-family="Helvetica,sans-Serif" font-size="10.00" fill="#000000">_SIGUSR1</text>
</a>
</g>
</g>
<!-- Node9&#45;&gt;Node11 -->
<g id="edge2" class="edge">
<title>Node9&#45;&gt;Node11</title>
<path fill="none" stroke="#191970" d="M41.1491,-725.0668C48.6617,-723.6359 57.627,-721.9282 67.0038,-720.1421"/>
<polygon fill="#191970" stroke="#191970" points="67.7123,-723.5702 76.8807,-718.2608 66.4024,-716.6938 67.7123,-723.5702"/>
</g>
<!-- Node12 -->
<g id="node4" class="node">
<title>Node12</title>
<g id="a_node4"><a xlink:href="client_8c.html#a48d605ff689f470746c858648f0a98c2" target="_top" xlink:title="SIGINTSignalHandler">
<polygon fill="none" stroke="#000000" points="77,-653.5 77,-672.5 195,-672.5 195,-653.5 77,-653.5"/>
<text text-anchor="middle" x="136" y="-660.5" font-family="Helvetica,sans-Serif" font-size="10.00" fill="#000000">SIGINTSignalHandler</text>
</a>
</g>
</g>
<!-- Node9&#45;&gt;Node12 -->
<g id="edge3" class="edge">
<title>Node9&#45;&gt;Node12</title>
<path fill="none" stroke="#191970" d="M29.6577,-719.4412C40.1934,-708.9373 58.4401,-692.2047 77,-682 80.9251,-679.8419 85.1337,-677.8832 89.4297,-676.1163"/>
<polygon fill="#191970" stroke="#191970" points="90.7728,-679.3505 98.8981,-672.5512 88.3061,-672.7995 90.7728,-679.3505"/>
</g>
<!-- Node13 -->
<g id="node5" class="node">
<title>Node13</title>
<g id="a_node5"><a xlink:href="client_8c.html#a50b22adcb76198fcd9402a97ff4711bf" target="_top" xlink:title="Handler del segnale SIGUSR1: chiude le risorse del client 0 e termina la sua esecuzione. ">
<polygon fill="none" stroke="#000000" points="525,-874.5 525,-893.5 653,-893.5 653,-874.5 525,-874.5"/>
<text text-anchor="middle" x="589" y="-881.5" font-family="Helvetica,sans-Serif" font-size="10.00" fill="#000000">SIGUSR1SignalHandler</text>
</a>
</g>
</g>
<!-- Node9&#45;&gt;Node13 -->
<g id="edge4" class="edge">
<title>Node9&#45;&gt;Node13</title>
<path fill="none" stroke="#191970" d="M23.0705,-738.6853C35.8798,-784.7377 97.5842,-982.3357 231,-1055 361.0303,-1125.8204 525.1143,-957.1309 574.3765,-901.2315"/>
<polygon fill="#191970" stroke="#191970" points="577.1221,-903.4078 581.0352,-893.5621 571.8363,-898.8186 577.1221,-903.4078"/>
</g>
<!-- Node15 -->
<g id="node7" class="node">
<title>Node15</title>
<g id="a_node7"><a xlink:href="signals_8c.html#a6e96709c7c3ecbcde283f4a2a09e4baf" target="_top" xlink:title="block_all_signals">
<polygon fill="none" stroke="#000000" points="86,-615.5 86,-634.5 186,-634.5 186,-615.5 86,-615.5"/>
<text text-anchor="middle" x="136" y="-622.5" font-family="Helvetica,sans-Serif" font-size="10.00" fill="#000000">block_all_signals</text>
</a>
</g>
</g>
<!-- Node9&#45;&gt;Node15 -->
<g id="edge8" class="edge">
<title>Node9&#45;&gt;Node15</title>
<path fill="none" stroke="#191970" d="M24.3583,-719.2934C31.8446,-701.6874 50.013,-664.4242 77,-644 79.4938,-642.1127 82.1817,-640.409 84.9876,-638.8716"/>
<polygon fill="#191970" stroke="#191970" points="86.7017,-641.9331 94.2574,-634.5061 83.7192,-635.6003 86.7017,-641.9331"/>
</g>
<!-- Node16 -->
<g id="node8" class="node">
<title>Node16</title>
<g id="a_node8"><a xlink:href="client_8c.html#a8c7084a254c7cd640d66e647795ff8f6" target="_top" xlink:title="operazioni_client0">
<polygon fill="none" stroke="#000000" points="83,-741.5 83,-760.5 189,-760.5 189,-741.5 83,-741.5"/>
<text text-anchor="middle" x="136" y="-748.5" font-family="Helvetica,sans-Serif" font-size="10.00" fill="#000000">operazioni_client0</text>
</a>
</g>
</g>
<!-- Node9&#45;&gt;Node16 -->
<g id="edge9" class="edge">
<title>Node9&#45;&gt;Node16</title>
<path fill="none" stroke="#191970" d="M41.1491,-732.9332C50.9794,-734.8056 63.2969,-737.1518 75.769,-739.5274"/>
<polygon fill="#191970" stroke="#191970" points="75.2817,-742.9975 85.76,-741.4305 76.5915,-736.1211 75.2817,-742.9975"/>
</g>
<!-- Node13&#45;&gt;Node10 -->
<g id="edge7" class="edge">
<title>Node13&#45;&gt;Node10</title>
<path fill="none" stroke="#191970" d="M632.8897,-874.4696C694.7355,-860.6591 801.4389,-835.2861 814,-822 849.9601,-783.9644 867.6878,-619.1687 872.8536,-561.788"/>
<polygon fill="#191970" stroke="#191970" points="876.3657,-561.8 873.7443,-551.5346 869.3919,-561.1942 876.3657,-561.8"/>
</g>
<!-- Node14 -->
<g id="node6" class="node">
<title>Node14</title>
<g id="a_node6"><a xlink:href="shared__memory_8c.html#a6530d61365abd3e580722ed907ea5f5b" target="_top" xlink:title="Scollega la memoria condivisa dallo spazio degli indirizzi. ">
<polygon fill="none" stroke="#000000" points="691,-874.5 691,-893.5 812,-893.5 812,-874.5 691,-874.5"/>
<text text-anchor="middle" x="751.5" y="-881.5" font-family="Helvetica,sans-Serif" font-size="10.00" fill="#000000">free_shared_memory</text>
</a>
</g>
</g>
<!-- Node13&#45;&gt;Node14 -->
<g id="edge5" class="edge">
<title>Node13&#45;&gt;Node14</title>
<path fill="none" stroke="#191970" d="M653.2243,-884C662.2482,-884 671.5654,-884 680.7033,-884"/>
<polygon fill="#191970" stroke="#191970" points="680.9188,-887.5001 690.9188,-884 680.9188,-880.5001 680.9188,-887.5001"/>
</g>
<!-- Node14&#45;&gt;Node10 -->
<g id="edge6" class="edge">
<title>Node14&#45;&gt;Node10</title>
<path fill="none" stroke="#191970" d="M793.9539,-874.4355C801.5445,-870.9987 808.7084,-866.3326 814,-860 852.4189,-814.023 868.8104,-624.0203 873.2152,-561.8139"/>
<polygon fill="#191970" stroke="#191970" points="876.713,-561.9641 873.9008,-551.7493 869.7292,-561.4883 876.713,-561.9641"/>
</g>
<!-- Node16&#45;&gt;Node10 -->
<g id="edge27" class="edge">
<title>Node16&#45;&gt;Node10</title>
<path fill="none" stroke="#191970" d="M165.2641,-760.5405C217.7168,-776.767 331.475,-808 430,-808 430,-808 430,-808 589,-808 690.4161,-808 739.0641,-838.3362 814,-770 845.0912,-741.647 865.2507,-611.9029 871.9951,-561.8115"/>
<polygon fill="#191970" stroke="#191970" points="875.4987,-562.011 873.3258,-551.6414 868.5579,-561.1028 875.4987,-562.011"/>
</g>
<!-- Node17 -->
<g id="node9" class="node">
<title>Node17</title>
<g id="a_node9"><a xlink:href="shared__memory_8c.html#a660a60242a5174977ab2debcdbd0e587" target="_top" xlink:title="Ottiene l&#39;id o crea una memoria condivisa. ">
<polygon fill="none" stroke="#000000" points="689,-741.5 689,-760.5 814,-760.5 814,-741.5 689,-741.5"/>
<text text-anchor="middle" x="751.5" y="-748.5" font-family="Helvetica,sans-Serif" font-size="10.00" fill="#000000">alloc_shared_memory</text>
</a>
</g>
</g>
<!-- Node16&#45;&gt;Node17 -->
<g id="edge10" class="edge">
<title>Node16&#45;&gt;Node17</title>
<path fill="none" stroke="#191970" d="M189.0099,-751C299.1979,-751 553.1302,-751 678.6086,-751"/>
<polygon fill="#191970" stroke="#191970" points="678.8805,-754.5001 688.8805,-751 678.8805,-747.5001 678.8805,-754.5001"/>
</g>
<!-- Node18 -->
<g id="node10" class="node">
<title>Node18</title>
<g id="a_node10"><a xlink:href="defines_8c.html#a2d341373a96ffea0944553e5452cdbca" target="_top" xlink:title="get_ipc_key">
<polygon fill="none" stroke="#000000" points="245.5,-722.5 245.5,-741.5 320.5,-741.5 320.5,-722.5 245.5,-722.5"/>
<text text-anchor="middle" x="283" y="-729.5" font-family="Helvetica,sans-Serif" font-size="10.00" fill="#000000">get_ipc_key</text>
</a>
</g>
</g>
<!-- Node16&#45;&gt;Node18 -->
<g id="edge12" class="edge">
<title>Node16&#45;&gt;Node18</title>
<path fill="none" stroke="#191970" d="M189.0704,-744.1406C204.1715,-742.1887 220.5225,-740.0753 235.2844,-738.1673"/>
<polygon fill="#191970" stroke="#191970" points="235.7466,-741.6368 245.2155,-736.8837 234.8493,-734.6945 235.7466,-741.6368"/>
</g>
<!-- Node20 -->
<g id="node12" class="node">
<title>Node20</title>
<g id="a_node12"><a xlink:href="shared__memory_8c.html#ab2ffe00ec7425a3a4229cd0d53ed901c" target="_top" xlink:title="Recupera il puntatore alla memoria condivisa aggiungendola allo spazio degli indirizzi. ">
<polygon fill="none" stroke="#000000" points="693,-646.5 693,-665.5 810,-665.5 810,-646.5 693,-646.5"/>
<text text-anchor="middle" x="751.5" y="-653.5" font-family="Helvetica,sans-Serif" font-size="10.00" fill="#000000">get_shared_memory</text>
</a>
</g>
</g>
<!-- Node16&#45;&gt;Node20 -->
<g id="edge15" class="edge">
<title>Node16&#45;&gt;Node20</title>
<path fill="none" stroke="#191970" d="M176.2687,-741.4405C182.9294,-738.7471 189.4598,-735.3277 195,-731 218.3173,-712.7857 205.2931,-689.6497 231,-675 306.0778,-632.2152 559.1757,-642.7252 682.6296,-650.7995"/>
<polygon fill="#191970" stroke="#191970" points="682.5163,-654.2996 692.7272,-651.4734 682.9825,-647.3151 682.5163,-654.2996"/>
</g>
<!-- Node21 -->
<g id="node13" class="node">
<title>Node21</title>
<g id="a_node13"><a xlink:href="defines_8c.html#afd25e0dffe44c8dd59ae86caabb94287" target="_top" xlink:title="get_ipc_key2">
<polygon fill="none" stroke="#000000" points="242.5,-684.5 242.5,-703.5 323.5,-703.5 323.5,-684.5 242.5,-684.5"/>
<text text-anchor="middle" x="283" y="-691.5" font-family="Helvetica,sans-Serif" font-size="10.00" fill="#000000">get_ipc_key2</text>
</a>
</g>
</g>
<!-- Node16&#45;&gt;Node21 -->
<g id="edge17" class="edge">
<title>Node16&#45;&gt;Node21</title>
<path fill="none" stroke="#191970" d="M166.9188,-741.4053C176.0573,-738.3324 186.0164,-734.7479 195,-731 211.5094,-724.1124 214.5726,-720.081 231,-713 235.6794,-710.983 240.6508,-708.9865 245.5926,-707.0886"/>
<polygon fill="#191970" stroke="#191970" points="246.8337,-710.3612 254.9747,-703.5808 244.3823,-703.8045 246.8337,-710.3612"/>
</g>
<!-- Node22 -->
<g id="node14" class="node">
<title>Node22</title>
<g id="a_node14"><a xlink:href="semaphore_8c.html#afee4d9b0eb613bf632622e9244204d51" target="_top" xlink:title="Ottiene un insieme di semafori gia&#39; creato. ">
<polygon fill="none" stroke="#000000" points="542.5,-570.5 542.5,-589.5 635.5,-589.5 635.5,-570.5 542.5,-570.5"/>
<text text-anchor="middle" x="589" y="-577.5" font-family="Helvetica,sans-Serif" font-size="10.00" fill="#000000">getSemaphores</text>
</a>
</g>
</g>
<!-- Node16&#45;&gt;Node22 -->
<g id="edge19" class="edge">
<title>Node16&#45;&gt;Node22</title>
<path fill="none" stroke="#191970" d="M180.0448,-741.4138C185.5885,-738.7508 190.7835,-735.348 195,-731 233.1713,-691.638 188.4791,-647.6178 231,-613 318.7196,-541.5845 461.6524,-554.7434 537.6659,-568.5232"/>
<polygon fill="#191970" stroke="#191970" points="537.459,-572.0459 547.9349,-570.463 538.7583,-565.1676 537.459,-572.0459"/>
</g>
<!-- Node24 -->
<g id="node16" class="node">
<title>Node24</title>
<g id="a_node16"><a xlink:href="fifo_8c.html#a54a1ae8162825128cf02f95692402c18" target="_top" xlink:title="Facilita la creazione di una FIFO (o ne ottiene una esistente) in modalita&#39; lettura o scrittura...">
<polygon fill="none" stroke="#000000" points="555,-608.5 555,-627.5 623,-627.5 623,-608.5 555,-608.5"/>
<text text-anchor="middle" x="589" y="-615.5" font-family="Helvetica,sans-Serif" font-size="10.00" fill="#000000">create_fifo</text>
</a>
</g>
</g>
<!-- Node16&#45;&gt;Node24 -->
<g id="edge23" class="edge">
<title>Node16&#45;&gt;Node24</title>
<path fill="none" stroke="#191970" d="M178.7996,-741.4794C184.7247,-738.8042 190.3599,-735.3805 195,-731 226.0271,-701.709 196.439,-667.0236 231,-642 279.9196,-606.5801 460.1349,-611.049 544.673,-615.3"/>
<polygon fill="#191970" stroke="#191970" points="544.5655,-618.7991 554.7352,-615.8279 544.9323,-611.8087 544.5655,-618.7991"/>
</g>
<!-- Node26 -->
<g id="node18" class="node">
<title>Node26</title>
<g id="a_node18"><a xlink:href="files_8c.html#a627e4b202ea71f3bd241ccf562449bd6" target="_top" xlink:title="find_sendme_files">
<polygon fill="none" stroke="#000000" points="231,-95.5 231,-114.5 335,-114.5 335,-95.5 231,-95.5"/>
<text text-anchor="middle" x="283" y="-102.5" font-family="Helvetica,sans-Serif" font-size="10.00" fill="#000000">find_sendme_files</text>
</a>
</g>
</g>
<!-- Node16&#45;&gt;Node26 -->
<g id="edge28" class="edge">
<title>Node16&#45;&gt;Node26</title>
<path fill="none" stroke="#191970" d="M182.3242,-741.3868C187.1771,-738.7218 191.5775,-735.3258 195,-731 247.4922,-664.6528 218.2654,-435.6374 231,-352 243.991,-266.6789 267.7693,-166.4506 278.0489,-124.7479"/>
<polygon fill="#191970" stroke="#191970" points="281.5034,-125.3587 280.5171,-114.8099 274.7098,-123.6714 281.5034,-125.3587"/>
</g>
<!-- Node33 -->
<g id="node25" class="node">
<title>Node33</title>
<g id="a_node25"><a xlink:href="files_8c.html#a1cdd9b5b37408e31d80f31e474a71483" target="_top" xlink:title="Visualizza il contenuto della lista concatenata di filePath. ">
<polygon fill="none" stroke="#000000" points="253.5,-1026.5 253.5,-1045.5 312.5,-1045.5 312.5,-1026.5 253.5,-1026.5"/>
<text text-anchor="middle" x="283" y="-1033.5" font-family="Helvetica,sans-Serif" font-size="10.00" fill="#000000">print_list</text>
</a>
</g>
</g>
<!-- Node16&#45;&gt;Node33 -->
<g id="edge37" class="edge">
<title>Node16&#45;&gt;Node33</title>
<path fill="none" stroke="#191970" d="M136.5985,-760.7592C139.4635,-799.0192 154.9943,-940.4382 231,-1017 234.7138,-1020.741 239.2229,-1023.7511 244.0162,-1026.1718"/>
<polygon fill="#191970" stroke="#191970" points="242.8746,-1029.4885 253.4496,-1030.1376 245.5876,-1023.0356 242.8746,-1029.4885"/>
</g>
<!-- Node34 -->
<g id="node26" class="node">
<title>Node34</title>
<g id="a_node26"><a xlink:href="files_8c.html#a3ba19f05c37434e7f20facff3445651a" target="_top" xlink:title="Conta il numero di file nella lista concatenata di filePath. ">
<polygon fill="none" stroke="#000000" points="248.5,-988.5 248.5,-1007.5 317.5,-1007.5 317.5,-988.5 248.5,-988.5"/>
<text text-anchor="middle" x="283" y="-995.5" font-family="Helvetica,sans-Serif" font-size="10.00" fill="#000000">count_files</text>
</a>
</g>
</g>
<!-- Node16&#45;&gt;Node34 -->
<g id="edge38" class="edge">
<title>Node16&#45;&gt;Node34</title>
<path fill="none" stroke="#191970" d="M137.2606,-760.7841C142.2515,-795.5798 163.7541,-914.6804 231,-979 233.431,-981.3253 236.1693,-983.3698 239.0854,-985.167"/>
<polygon fill="#191970" stroke="#191970" points="237.7409,-988.4106 248.2376,-989.8498 240.9294,-982.179 237.7409,-988.4106"/>
</g>
<!-- Node35 -->
<g id="node27" class="node">
<title>Node35</title>
<g id="a_node27"><a xlink:href="client_8c.html#a748983b7ce27515a3ad116ada4334c4e" target="_top" xlink:title="int_to_string">
<polygon fill="none" stroke="#000000" points="244.5,-950.5 244.5,-969.5 321.5,-969.5 321.5,-950.5 244.5,-950.5"/>
<text text-anchor="middle" x="283" y="-957.5" font-family="Helvetica,sans-Serif" font-size="10.00" fill="#000000">int_to_string</text>
</a>
</g>
</g>
<!-- Node16&#45;&gt;Node35 -->
<g id="edge39" class="edge">
<title>Node16&#45;&gt;Node35</title>
<path fill="none" stroke="#191970" d="M138.1803,-760.8533C145.547,-791.8944 172.3975,-888.6893 231,-941 232.7478,-942.5601 234.6342,-943.9954 236.6169,-945.3155"/>
<polygon fill="#191970" stroke="#191970" points="235.3518,-948.6155 245.7961,-950.3953 238.7412,-942.4908 235.3518,-948.6155"/>
</g>
<!-- Node36 -->
<g id="node28" class="node">
<title>Node36</title>
<g id="a_node28"><a xlink:href="semaphore_8c.html#a2581efba6a0833e3f289de94c779cc21" target="_top" xlink:title="Esegue la wait sul semaforo sem_num: decrementa il valore di 1 ed eventualmente mette in attesa il pr...">
<polygon fill="none" stroke="#000000" points="559.5,-532.5 559.5,-551.5 618.5,-551.5 618.5,-532.5 559.5,-532.5"/>
<text text-anchor="middle" x="589" y="-539.5" font-family="Helvetica,sans-Serif" font-size="10.00" fill="#000000">semWait</text>
</a>
</g>
</g>
<!-- Node16&#45;&gt;Node36 -->
<g id="edge40" class="edge">
<title>Node16&#45;&gt;Node36</title>
<path fill="none" stroke="#191970" d="M180.9721,-741.4369C186.2411,-738.7695 191.1133,-735.3593 195,-731 245.5285,-674.3272 173.416,-613.4876 231,-564 277.7611,-523.8135 466.4007,-532.6355 549.4356,-538.6915"/>
<polygon fill="#191970" stroke="#191970" points="549.2561,-542.1878 559.4908,-539.4493 549.7822,-535.2076 549.2561,-542.1878"/>
</g>
<!-- Node37 -->
<g id="node29" class="node">
<title>Node37</title>
<g id="a_node29"><a xlink:href="client_8c.html#ac129a55ffa08a55addb9ea1afbd709f8" target="_top" xlink:title="strEquals">
<polygon fill="none" stroke="#000000" points="252,-912.5 252,-931.5 314,-931.5 314,-912.5 252,-912.5"/>
<text text-anchor="middle" x="283" y="-919.5" font-family="Helvetica,sans-Serif" font-size="10.00" fill="#000000">strEquals</text>
</a>
</g>
</g>
<!-- Node16&#45;&gt;Node37 -->
<g id="edge42" class="edge">
<title>Node16&#45;&gt;Node37</title>
<path fill="none" stroke="#191970" d="M139.4642,-760.7281C149.4304,-787.37 180.7207,-862.2366 231,-903 234.4962,-905.8345 238.4533,-908.2678 242.5857,-910.3518"/>
<polygon fill="#191970" stroke="#191970" points="241.2363,-913.5816 251.8013,-914.3762 244.0377,-907.1666 241.2363,-913.5816"/>
</g>
<!-- Node38 -->
<g id="node30" class="node">
<title>Node38</title>
<g id="a_node30"><a xlink:href="semaphore_8c.html#a7bad0eb0b0c6ac701b59c36b8b7837bf" target="_top" xlink:title="Esegue la signal sul semaforo sem_num: incrementa il valore di 1. ">
<polygon fill="none" stroke="#000000" points="555,-494.5 555,-513.5 623,-513.5 623,-494.5 555,-494.5"/>
<text text-anchor="middle" x="589" y="-501.5" font-family="Helvetica,sans-Serif" font-size="10.00" fill="#000000">semSignal</text>
</a>
</g>
</g>
<!-- Node16&#45;&gt;Node38 -->
<g id="edge43" class="edge">
<title>Node16&#45;&gt;Node38</title>
<path fill="none" stroke="#191970" d="M181.3964,-741.4037C186.5322,-738.7402 191.2552,-735.34 195,-731 253.4313,-663.2816 164.7018,-593.0379 231,-533 317.8543,-454.3471 470.0916,-475.5361 544.9287,-492.3714"/>
<polygon fill="#191970" stroke="#191970" points="544.4268,-495.8481 554.96,-494.7072 546.0143,-489.0304 544.4268,-495.8481"/>
</g>
<!-- Node39 -->
<g id="node31" class="node">
<title>Node39</title>
<g id="a_node31"><a xlink:href="semaphore_8c.html#a40485eedbf6d56f7fd27bce5a537efbe" target="_top" xlink:title="Attende che il semaforo sem_num raggiunga il valore zero. ">
<polygon fill="none" stroke="#000000" points="389,-380.5 389,-399.5 471,-399.5 471,-380.5 389,-380.5"/>
<text text-anchor="middle" x="430" y="-387.5" font-family="Helvetica,sans-Serif" font-size="10.00" fill="#000000">semWaitZero</text>
</a>
</g>
</g>
<!-- Node16&#45;&gt;Node39 -->
<g id="edge45" class="edge">
<title>Node16&#45;&gt;Node39</title>
<path fill="none" stroke="#191970" d="M181.8156,-741.3616C186.8179,-738.7031 191.3936,-735.3156 195,-731 264.447,-647.8982 167.4841,-577.7184 231,-490 266.3869,-441.1291 332.5757,-414.6812 378.8657,-401.4786"/>
<polygon fill="#191970" stroke="#191970" points="379.9928,-404.7989 388.7139,-398.7827 378.1446,-398.0473 379.9928,-404.7989"/>
</g>
<!-- Node45 -->
<g id="node37" class="node">
<title>Node45</title>
<g id="a_node37"><a xlink:href="defines_8c.html#aea9b93cad897755a46cb9e3373ba8cc2" target="_top" xlink:title="Rende bloccante oppure non bloccante un file descriptor. ">
<polygon fill="none" stroke="#000000" points="255,-874.5 255,-893.5 311,-893.5 311,-874.5 255,-874.5"/>
<text text-anchor="middle" x="283" y="-881.5" font-family="Helvetica,sans-Serif" font-size="10.00" fill="#000000">blockFD</text>
</a>
</g>
</g>
<!-- Node16&#45;&gt;Node45 -->
<g id="edge60" class="edge">
<title>Node16&#45;&gt;Node45</title>
<path fill="none" stroke="#191970" d="M141.5996,-760.722C154.5808,-782.4472 188.8611,-835.348 231,-865 235.3589,-868.0672 240.2693,-870.6972 245.2878,-872.9353"/>
<polygon fill="#191970" stroke="#191970" points="244.3691,-876.3361 254.9551,-876.7685 246.9493,-869.829 244.3691,-876.3361"/>
</g>
<!-- Node46 -->
<g id="node38" class="node">
<title>Node46</title>
<g id="a_node38"><a xlink:href="files_8c.html#a786a7b6f9c01e8489d7196a79f5f3862" target="_top" xlink:title="Libera la memoria dello HEAP occupata dalla lista di filePath. ">
<polygon fill="none" stroke="#000000" points="255,-836.5 255,-855.5 311,-855.5 311,-836.5 255,-836.5"/>
<text text-anchor="middle" x="283" y="-843.5" font-family="Helvetica,sans-Serif" font-size="10.00" fill="#000000">free_list</text>
</a>
</g>
</g>
<!-- Node16&#45;&gt;Node46 -->
<g id="edge61" class="edge">
<title>Node16&#45;&gt;Node46</title>
<path fill="none" stroke="#191970" d="M147.1536,-760.5615C164.3697,-775.0294 198.8024,-802.826 231,-822 237.0841,-825.6232 243.8076,-829.0879 250.3437,-832.2019"/>
<polygon fill="#191970" stroke="#191970" points="249.1412,-835.5009 259.6897,-836.4909 252.0609,-829.1389 249.1412,-835.5009"/>
</g>
<!-- Node47 -->
<g id="node39" class="node">
<title>Node47</title>
<g id="a_node39"><a xlink:href="client_8c.html#a54b47b58f228d7bc9827d2919687e25a" target="_top" xlink:title="Funzione eseguita da ogni Client i (figli di Client 0) per mandare i file al server. ">
<polygon fill="none" stroke="#000000" points="234.5,-361.5 234.5,-380.5 331.5,-380.5 331.5,-361.5 234.5,-361.5"/>
<text text-anchor="middle" x="283" y="-368.5" font-family="Helvetica,sans-Serif" font-size="10.00" fill="#000000">operazioni_figlio</text>
</a>
</g>
</g>
<!-- Node16&#45;&gt;Node47 -->
<g id="edge62" class="edge">
<title>Node16&#45;&gt;Node47</title>
<path fill="none" stroke="#191970" d="M181.9613,-741.4812C186.9398,-738.8032 191.4701,-735.3784 195,-731 283.9967,-620.6131 163.4602,-538.6758 231,-414 237.042,-402.8467 247.2759,-393.4355 257.0747,-386.2881"/>
<polygon fill="#191970" stroke="#191970" points="259.1458,-389.1126 265.4574,-380.6029 255.2167,-383.3193 259.1458,-389.1126"/>
</g>
<!-- Node17&#45;&gt;Node10 -->
<g id="edge11" class="edge">
<title>Node17&#45;&gt;Node10</title>
<path fill="none" stroke="#191970" d="M771.4151,-741.4953C785.078,-734.0731 802.7117,-722.5799 814,-708 849.1074,-662.6554 865.2039,-595.0069 871.3327,-561.8156"/>
<polygon fill="#191970" stroke="#191970" points="874.8431,-562.0559 873.0997,-551.6055 867.9456,-560.8622 874.8431,-562.0559"/>
</g>
<!-- Node19 -->
<g id="node11" class="node">
<title>Node19</title>
<g id="a_node11"><a xlink:href="defines_8c.html#abe68b7232c057100c2e21586906436d7" target="_top" xlink:title="get_project_ipc_key">
<polygon fill="none" stroke="#000000" points="373,-684.5 373,-703.5 487,-703.5 487,-684.5 373,-684.5"/>
<text text-anchor="middle" x="430" y="-691.5" font-family="Helvetica,sans-Serif" font-size="10.00" fill="#000000">get_project_ipc_key</text>
</a>
</g>
</g>
<!-- Node18&#45;&gt;Node19 -->
<g id="edge13" class="edge">
<title>Node18&#45;&gt;Node19</title>
<path fill="none" stroke="#191970" d="M320.0943,-722.411C339.3178,-717.4417 362.9863,-711.3233 383.4294,-706.0387"/>
<polygon fill="#191970" stroke="#191970" points="384.3667,-709.4115 393.1724,-703.5201 382.6147,-702.6343 384.3667,-709.4115"/>
</g>
<!-- Node19&#45;&gt;Node10 -->
<g id="edge14" class="edge">
<title>Node19&#45;&gt;Node10</title>
<path fill="none" stroke="#191970" d="M465.8375,-703.5377C538.6048,-720.666 705.9163,-748.4156 814,-675 852.5162,-648.8379 866.9025,-591.8191 871.9605,-561.6412"/>
<polygon fill="#191970" stroke="#191970" points="875.458,-561.917 873.4731,-551.5098 868.5348,-560.8833 875.458,-561.917"/>
</g>
<!-- Node20&#45;&gt;Node10 -->
<g id="edge16" class="edge">
<title>Node20&#45;&gt;Node10</title>
<path fill="none" stroke="#191970" d="M796.7513,-646.4929C802.8973,-644.0195 808.8516,-640.9092 814,-637 840.0971,-617.1845 857.9523,-582.6037 867.1732,-561.0794"/>
<polygon fill="#191970" stroke="#191970" points="870.4695,-562.2649 871.0045,-551.6836 863.9876,-559.6218 870.4695,-562.2649"/>
</g>
<!-- Node21&#45;&gt;Node19 -->
<g id="edge18" class="edge">
<title>Node21&#45;&gt;Node19</title>
<path fill="none" stroke="#191970" d="M323.5575,-694C335.6795,-694 349.3088,-694 362.6647,-694"/>
<polygon fill="#191970" stroke="#191970" points="362.7952,-697.5001 372.7952,-694 362.7952,-690.5001 362.7952,-697.5001"/>
</g>
<!-- Node22&#45;&gt;Node10 -->
<g id="edge20" class="edge">
<title>Node22&#45;&gt;Node10</title>
<path fill="none" stroke="#191970" d="M635.5387,-573.3819C652.3766,-571.0146 671.5396,-568.3517 689,-566 741.4314,-558.9382 802.2563,-551.1446 839.5566,-546.4106"/>
<polygon fill="#191970" stroke="#191970" points="840.4037,-549.8314 849.8843,-545.1018 839.5236,-542.8869 840.4037,-549.8314"/>
</g>
<!-- Node23 -->
<g id="node15" class="node">
<title>Node23</title>
<g id="a_node15"><a xlink:href="semaphore_8c.html#a77c6570406059144bb6a8ecf04f481da" target="_top" xlink:title="Funzione di supporto per manipolare i valori di un set di semafori. ">
<polygon fill="none" stroke="#000000" points="726,-494.5 726,-513.5 777,-513.5 777,-494.5 726,-494.5"/>
<text text-anchor="middle" x="751.5" y="-501.5" font-family="Helvetica,sans-Serif" font-size="10.00" fill="#000000">semOp</text>
</a>
</g>
</g>
<!-- Node22&#45;&gt;Node23 -->
<g id="edge21" class="edge">
<title>Node22&#45;&gt;Node23</title>
<path fill="none" stroke="#191970" d="M631.0939,-570.4803C638.6386,-567.9517 646.2427,-564.8266 653,-561 671.8869,-550.3044 670.5447,-539.4243 689,-528 697.3464,-522.8333 706.9879,-518.4637 716.1616,-514.9274"/>
<polygon fill="#191970" stroke="#191970" points="717.6384,-518.1151 725.849,-511.419 715.2548,-511.5334 717.6384,-518.1151"/>
</g>
<!-- Node23&#45;&gt;Node10 -->
<g id="edge22" class="edge">
<title>Node23&#45;&gt;Node10</title>
<path fill="none" stroke="#191970" d="M777.2848,-511.966C795.4843,-517.5886 820.0694,-525.184 839.9621,-531.3298"/>
<polygon fill="#191970" stroke="#191970" points="839.0019,-534.6963 849.5894,-534.3041 841.0682,-528.0082 839.0019,-534.6963"/>
</g>
<!-- Node24&#45;&gt;Node10 -->
<g id="edge26" class="edge">
<title>Node24&#45;&gt;Node10</title>
<path fill="none" stroke="#191970" d="M623.3521,-611.7334C667.8528,-603.2363 747.5962,-586.715 814,-566 823.6873,-562.978 834.0231,-559.1228 843.3604,-555.3908"/>
<polygon fill="#191970" stroke="#191970" points="844.7299,-558.6122 852.6602,-551.5864 842.0795,-552.1333 844.7299,-558.6122"/>
</g>
<!-- Node25 -->
<g id="node17" class="node">
<title>Node25</title>
<g id="a_node17"><a xlink:href="fifo_8c.html#ab83de0eb3bc3947e3c031685d5c2474b" target="_top" xlink:title="Crea o ottiene una IPC FIFO usando mkfifo. ">
<polygon fill="none" stroke="#000000" points="719,-608.5 719,-627.5 784,-627.5 784,-608.5 719,-608.5"/>
<text text-anchor="middle" x="751.5" y="-615.5" font-family="Helvetica,sans-Serif" font-size="10.00" fill="#000000">make_fifo</text>
</a>
</g>
</g>
<!-- Node24&#45;&gt;Node25 -->
<g id="edge24" class="edge">
<title>Node24&#45;&gt;Node25</title>
<path fill="none" stroke="#191970" d="M623.0653,-618C647.96,-618 681.8986,-618 708.6362,-618"/>
<polygon fill="#191970" stroke="#191970" points="708.8654,-621.5001 718.8653,-618 708.8653,-614.5001 708.8654,-621.5001"/>
</g>
<!-- Node25&#45;&gt;Node10 -->
<g id="edge25" class="edge">
<title>Node25&#45;&gt;Node10</title>
<path fill="none" stroke="#191970" d="M782.6782,-608.4152C793.0025,-604.6259 804.32,-599.7803 814,-594 830.4249,-584.1921 846.7381,-569.8299 858.2786,-558.6833"/>
<polygon fill="#191970" stroke="#191970" points="860.8108,-561.1014 865.4484,-551.5755 855.8826,-556.1302 860.8108,-561.1014"/>
</g>
<!-- Node26&#45;&gt;Node10 -->
<g id="edge36" class="edge">
<title>Node26&#45;&gt;Node10</title>
<path fill="none" stroke="#191970" d="M335.1269,-105.5296C456.3159,-107.96 751.4783,-121.1822 814,-192 857.8903,-241.7142 870.7362,-454.9562 873.7212,-521.8473"/>
<polygon fill="#191970" stroke="#191970" points="870.2412,-522.4015 874.1568,-532.2462 877.2351,-522.1084 870.2412,-522.4015"/>
</g>
<!-- Node26&#45;&gt;Node26 -->
<g id="edge35" class="edge">
<title>Node26&#45;&gt;Node26</title>
<path fill="none" stroke="#191970" d="M260.4972,-114.7571C249.5498,-123.5653 257.0508,-133 283,-133 300.0292,-133 309.1133,-128.9368 310.2525,-123.6539"/>
<polygon fill="#191970" stroke="#191970" points="313.2999,-121.9303 305.5028,-114.7571 307.1248,-125.227 313.2999,-121.9303"/>
</g>
<!-- Node27 -->
<g id="node19" class="node">
<title>Node27</title>
<g id="a_node19"><a xlink:href="strings_8c.html#a21b51584b636c81767ed74b8a527ffd3" target="_top" xlink:title="Concatena la cartella directory al percorso path. ">
<polygon fill="none" stroke="#000000" points="390,-.5 390,-19.5 470,-19.5 470,-.5 390,-.5"/>
<text text-anchor="middle" x="430" y="-7.5" font-family="Helvetica,sans-Serif" font-size="10.00" fill="#000000">append2Path</text>
</a>
</g>
</g>
<!-- Node26&#45;&gt;Node27 -->
<g id="edge29" class="edge">
<title>Node26&#45;&gt;Node27</title>
<path fill="none" stroke="#191970" d="M291.5603,-95.443C306.3044,-79.5211 338.0907,-47.4926 371,-29 374.7467,-26.8946 378.7603,-24.9838 382.8664,-23.2579"/>
<polygon fill="#191970" stroke="#191970" points="384.4421,-26.4026 392.5329,-19.5623 381.9424,-19.8642 384.4421,-26.4026"/>
</g>
<!-- Node28 -->
<g id="node20" class="node">
<title>Node28</title>
<g id="a_node20"><a xlink:href="files_8c.html#a675d61c6bfe0d9ddd1be59233dfd7d5c" target="_top" xlink:title="Restituisce 1 se il percorso inizia con &quot;sendme_&quot;, 0 altrimenti. ">
<polygon fill="none" stroke="#000000" points="384.5,-38.5 384.5,-57.5 475.5,-57.5 475.5,-38.5 384.5,-38.5"/>
<text text-anchor="middle" x="430" y="-45.5" font-family="Helvetica,sans-Serif" font-size="10.00" fill="#000000">checkFileName</text>
</a>
</g>
</g>
<!-- Node26&#45;&gt;Node28 -->
<g id="edge30" class="edge">
<title>Node26&#45;&gt;Node28</title>
<path fill="none" stroke="#191970" d="M303.7501,-95.3681C321.4381,-87.3204 347.6345,-75.7839 371,-67 376.6786,-64.8652 382.7173,-62.7493 388.6822,-60.7474"/>
<polygon fill="#191970" stroke="#191970" points="390.1632,-63.9452 398.5743,-57.5028 387.9816,-57.2938 390.1632,-63.9452"/>
</g>
<!-- Node30 -->
<g id="node22" class="node">
<title>Node30</title>
<g id="a_node22"><a xlink:href="files_8c.html#a5ac4517096592013308a3252f3226f60" target="_top" xlink:title="Restituisce 1 se il percorso ha la dimensione &lt;= 4 KB, 0 altrimenti. ">
<polygon fill="none" stroke="#000000" points="389,-152.5 389,-171.5 471,-171.5 471,-152.5 389,-152.5"/>
<text text-anchor="middle" x="430" y="-159.5" font-family="Helvetica,sans-Serif" font-size="10.00" fill="#000000">checkFileSize</text>
</a>
</g>
</g>
<!-- Node26&#45;&gt;Node30 -->
<g id="edge32" class="edge">
<title>Node26&#45;&gt;Node30</title>
<path fill="none" stroke="#191970" d="M307.6045,-114.5405C331.7719,-123.9116 368.847,-138.2876 395.8606,-148.7623"/>
<polygon fill="#191970" stroke="#191970" points="394.7262,-152.0763 405.3152,-152.4284 397.257,-145.5497 394.7262,-152.0763"/>
</g>
<!-- Node32 -->
<g id="node24" class="node">
<title>Node32</title>
<g id="a_node24"><a xlink:href="files_8c.html#a6a46f37bcdbf048db0fba5bb3e0e6342" target="_top" xlink:title="Aggiunge in fondo alla coda un nuovo filePath. ">
<polygon fill="none" stroke="#000000" points="403.5,-76.5 403.5,-95.5 456.5,-95.5 456.5,-76.5 403.5,-76.5"/>
<text text-anchor="middle" x="430" y="-83.5" font-family="Helvetica,sans-Serif" font-size="10.00" fill="#000000">append</text>
</a>
</g>
</g>
<!-- Node26&#45;&gt;Node32 -->
<g id="edge34" class="edge">
<title>Node26&#45;&gt;Node32</title>
<path fill="none" stroke="#191970" d="M335.2406,-98.2478C354.3757,-95.7746 375.6143,-93.0295 393.1264,-90.766"/>
<polygon fill="#191970" stroke="#191970" points="394.0276,-94.1787 403.4964,-89.4256 393.1303,-87.2364 394.0276,-94.1787"/>
</g>
<!-- Node29 -->
<g id="node21" class="node">
<title>Node29</title>
<g id="a_node21"><a xlink:href="strings_8c.html#ab6b8529148710caedf063c1de6b0db16" target="_top" xlink:title="Restituisce vero se la stringa a inizia con la sotto stringa b. ">
<polygon fill="none" stroke="#000000" points="555,-38.5 555,-57.5 623,-57.5 623,-38.5 555,-38.5"/>
<text text-anchor="middle" x="589" y="-45.5" font-family="Helvetica,sans-Serif" font-size="10.00" fill="#000000">StartsWith</text>
</a>
</g>
</g>
<!-- Node28&#45;&gt;Node29 -->
<g id="edge31" class="edge">
<title>Node28&#45;&gt;Node29</title>
<path fill="none" stroke="#191970" d="M475.563,-48C497.2499,-48 523.0847,-48 544.6177,-48"/>
<polygon fill="#191970" stroke="#191970" points="544.8059,-51.5001 554.8058,-48 544.8058,-44.5001 544.8059,-51.5001"/>
</g>
<!-- Node31 -->
<g id="node23" class="node">
<title>Node31</title>
<g id="a_node23"><a xlink:href="files_8c.html#a096f8e9259afb2839ebe6822364f9928" target="_top" xlink:title="Restituisce la dimensione in byte del file con percorso filePath. ">
<polygon fill="none" stroke="#000000" points="554.5,-152.5 554.5,-171.5 623.5,-171.5 623.5,-152.5 554.5,-152.5"/>
<text text-anchor="middle" x="589" y="-159.5" font-family="Helvetica,sans-Serif" font-size="10.00" fill="#000000">getFileSize</text>
</a>
</g>
</g>
<!-- Node30&#45;&gt;Node31 -->
<g id="edge33" class="edge">
<title>Node30&#45;&gt;Node31</title>
<path fill="none" stroke="#191970" d="M471.3603,-162C493.7024,-162 521.3112,-162 544.1665,-162"/>
<polygon fill="#191970" stroke="#191970" points="544.2972,-165.5001 554.2971,-162 544.2971,-158.5001 544.2972,-165.5001"/>
</g>
<!-- Node36&#45;&gt;Node23 -->
<g id="edge41" class="edge">
<title>Node36&#45;&gt;Node23</title>
<path fill="none" stroke="#191970" d="M618.805,-535.0302C646.2623,-528.6094 687.0351,-519.0749 716.1307,-512.271"/>
<polygon fill="#191970" stroke="#191970" points="716.9539,-515.673 725.8942,-509.9878 715.36,-508.8569 716.9539,-515.673"/>
</g>
<!-- Node38&#45;&gt;Node23 -->
<g id="edge44" class="edge">
<title>Node38&#45;&gt;Node23</title>
<path fill="none" stroke="#191970" d="M623.0653,-504C650.2983,-504 688.354,-504 715.9664,-504"/>
<polygon fill="#191970" stroke="#191970" points="715.9935,-507.5001 725.9935,-504 715.9935,-500.5001 715.9935,-507.5001"/>
</g>
<!-- Node39&#45;&gt;Node10 -->
<g id="edge51" class="edge">
<title>Node39&#45;&gt;Node10</title>
<path fill="none" stroke="#191970" d="M469.3257,-380.3916C476.1574,-377.8806 482.99,-374.7846 489,-371 508.6864,-358.6032 503.6287,-342.1925 525,-333 549.9179,-322.282 811.8304,-338.3105 814,-340 843.2856,-362.8049 864.1364,-476.2245 871.5401,-522.3964"/>
<polygon fill="#191970" stroke="#191970" points="868.0944,-523.0165 873.0943,-532.3573 875.0107,-521.9372 868.0944,-523.0165"/>
</g>
<!-- Node39&#45;&gt;Node23 -->
<g id="edge46" class="edge">
<title>Node39&#45;&gt;Node23</title>
<path fill="none" stroke="#191970" d="M455.2672,-399.5015C465.8198,-403.669 478.1295,-408.7929 489,-414 505.5072,-421.9072 508.166,-426.8147 525,-434 590.3204,-461.8806 670.4923,-483.9797 715.8158,-495.4238"/>
<polygon fill="#191970" stroke="#191970" points="715.1995,-498.8772 725.7493,-497.9018 716.8939,-492.0854 715.1995,-498.8772"/>
</g>
<!-- Node39&#45;&gt;Node36 -->
<g id="edge47" class="edge">
<title>Node39&#45;&gt;Node36</title>
<path fill="none" stroke="#191970" d="M441.0169,-399.7138C453.69,-411.2809 474.5989,-431.6103 489,-452 509.4111,-480.8988 497.8275,-500.3415 525,-523 531.985,-528.8246 540.701,-532.8637 549.4305,-535.6645"/>
<polygon fill="#191970" stroke="#191970" points="548.632,-539.0745 559.2006,-538.3298 550.4743,-532.3213 548.632,-539.0745"/>
</g>
<!-- Node39&#45;&gt;Node38 -->
<g id="edge48" class="edge">
<title>Node39&#45;&gt;Node38</title>
<path fill="none" stroke="#191970" d="M464.7287,-399.5654C473.3374,-403.1026 482.0714,-407.8132 489,-414 513.9233,-436.2547 499.7723,-458.0909 525,-480 530.9847,-485.1975 538.2036,-489.3166 545.605,-492.5663"/>
<polygon fill="#191970" stroke="#191970" points="544.4106,-495.8572 554.9988,-496.2332 546.9561,-489.3364 544.4106,-495.8572"/>
</g>
<!-- Node40 -->
<g id="node32" class="node">
<title>Node40</title>
<g id="a_node32"><a xlink:href="semaphore_8c.html#aad78dc4ccefb184a74dd9ef808df8db6" target="_top" xlink:title="Inizializza il valore del semaforo sem_num al valore val. ">
<polygon fill="none" stroke="#000000" points="717.5,-266.5 717.5,-285.5 785.5,-285.5 785.5,-266.5 717.5,-266.5"/>
<text text-anchor="middle" x="751.5" y="-273.5" font-family="Helvetica,sans-Serif" font-size="10.00" fill="#000000">semSetVal</text>
</a>
</g>
</g>
<!-- Node39&#45;&gt;Node40 -->
<g id="edge49" class="edge">
<title>Node39&#45;&gt;Node40</title>
<path fill="none" stroke="#191970" d="M471.2466,-381.3904C477.6517,-378.787 483.8434,-375.4013 489,-371 515.9106,-348.031 495.8706,-320.0806 525,-300 579.1029,-262.7037 658.4081,-263.7152 707.3981,-269.0163"/>
<polygon fill="#191970" stroke="#191970" points="707.029,-272.497 717.3719,-270.2004 707.8543,-265.5458 707.029,-272.497"/>
</g>
<!-- Node41 -->
<g id="node33" class="node">
<title>Node41</title>
<g id="a_node33"><a xlink:href="semaphore_8c.html#a8df9b8ea63eaf93d09f437b356a4a1eb" target="_top" xlink:title="Inizializza i valori del set di semafori semid ai valori in values. ">
<polygon fill="none" stroke="#000000" points="718.5,-228.5 718.5,-247.5 784.5,-247.5 784.5,-228.5 718.5,-228.5"/>
<text text-anchor="middle" x="751.5" y="-235.5" font-family="Helvetica,sans-Serif" font-size="10.00" fill="#000000">semSetAll</text>
</a>
</g>
</g>
<!-- Node39&#45;&gt;Node41 -->
<g id="edge52" class="edge">
<title>Node39&#45;&gt;Node41</title>
<path fill="none" stroke="#191970" d="M471.2189,-382.2701C477.7784,-379.5675 484.0288,-375.9207 489,-371 524.9592,-335.4059 485.6413,-294.7945 525,-263 576.7162,-221.2229 658.1358,-223.5209 707.9775,-230.0313"/>
<polygon fill="#191970" stroke="#191970" points="707.7191,-233.5296 718.1118,-231.4701 708.7031,-226.5991 707.7191,-233.5296"/>
</g>
<!-- Node42 -->
<g id="node34" class="node">
<title>Node42</title>
<g id="a_node34"><a xlink:href="semaphore_8c.html#a530566146b6e3cc8415d8ae4259fd68f" target="_top" xlink:title="Cancella il set di semafori svegliando eventuali processi in attesa. ">
<polygon fill="none" stroke="#000000" points="716.5,-437.5 716.5,-456.5 786.5,-456.5 786.5,-437.5 716.5,-437.5"/>
<text text-anchor="middle" x="751.5" y="-444.5" font-family="Helvetica,sans-Serif" font-size="10.00" fill="#000000">semDelete</text>
</a>
</g>
</g>
<!-- Node39&#45;&gt;Node42 -->
<g id="edge54" class="edge">
<title>Node39&#45;&gt;Node42</title>
<path fill="none" stroke="#191970" d="M471.096,-398.5099C487.7993,-401.8928 507.2996,-405.746 525,-409 587.7077,-420.5281 660.4496,-432.4809 706.2238,-439.8299"/>
<polygon fill="#191970" stroke="#191970" points="705.7032,-443.2911 716.1308,-441.4162 706.81,-436.3791 705.7032,-443.2911"/>
</g>
<!-- Node43 -->
<g id="node35" class="node">
<title>Node43</title>
<g id="a_node35"><a xlink:href="semaphore_8c.html#a7d80413e893e7d9ae3d153e23c2df2e4" target="_top" xlink:title="Recupera statistiche di un set di semafori. ">
<polygon fill="none" stroke="#000000" points="711.5,-390.5 711.5,-409.5 791.5,-409.5 791.5,-390.5 711.5,-390.5"/>
<text text-anchor="middle" x="751.5" y="-397.5" font-family="Helvetica,sans-Serif" font-size="10.00" fill="#000000">semGetStats</text>
</a>
</g>
</g>
<!-- Node39&#45;&gt;Node43 -->
<g id="edge56" class="edge">
<title>Node39&#45;&gt;Node43</title>
<path fill="none" stroke="#191970" d="M471.0448,-391.2767C529.8149,-393.1047 637.8324,-396.4645 701.2894,-398.4382"/>
<polygon fill="#191970" stroke="#191970" points="701.3528,-401.9418 711.4568,-398.7545 701.5705,-394.9452 701.3528,-401.9418"/>
</g>
<!-- Node44 -->
<g id="node36" class="node">
<title>Node44</title>
<g id="a_node36"><a xlink:href="semaphore_8c.html#a34a010b0a39236a7261d7d5103426491" target="_top" xlink:title="Imposta i permessi su un set di semafori. ">
<polygon fill="none" stroke="#000000" points="549.5,-342.5 549.5,-361.5 628.5,-361.5 628.5,-342.5 549.5,-342.5"/>
<text text-anchor="middle" x="589" y="-349.5" font-family="Helvetica,sans-Serif" font-size="10.00" fill="#000000">semSetPerm</text>
</a>
</g>
</g>
<!-- Node39&#45;&gt;Node44 -->
<g id="edge58" class="edge">
<title>Node39&#45;&gt;Node44</title>
<path fill="none" stroke="#191970" d="M470.1224,-380.411C491.184,-375.3774 517.1785,-369.1649 539.4836,-363.8341"/>
<polygon fill="#191970" stroke="#191970" points="540.5287,-367.183 549.4412,-361.4543 538.9015,-360.3747 540.5287,-367.183"/>
</g>
<!-- Node40&#45;&gt;Node10 -->
<g id="edge50" class="edge">
<title>Node40&#45;&gt;Node10</title>
<path fill="none" stroke="#191970" d="M785.5576,-282.6151C795.9661,-286.1811 806.6042,-291.6449 814,-300 843.6216,-333.4638 864.8043,-470.2648 871.9018,-522.0286"/>
<polygon fill="#191970" stroke="#191970" points="868.4718,-522.7855 873.268,-532.2326 875.4099,-521.8565 868.4718,-522.7855"/>
</g>
<!-- Node41&#45;&gt;Node10 -->
<g id="edge53" class="edge">
<title>Node41&#45;&gt;Node10</title>
<path fill="none" stroke="#191970" d="M784.6235,-241.3387C795.3426,-244.0114 806.4093,-248.7272 814,-257 850.0673,-296.3084 867.773,-464.3348 872.8888,-522.2706"/>
<polygon fill="#191970" stroke="#191970" points="869.4086,-522.6528 873.7458,-532.3192 876.3833,-522.0579 869.4086,-522.6528"/>
</g>
<!-- Node42&#45;&gt;Node10 -->
<g id="edge55" class="edge">
<title>Node42&#45;&gt;Node10</title>
<path fill="none" stroke="#191970" d="M769.3825,-456.5471C782.2428,-463.7246 799.7561,-474.1504 814,-485 830.0431,-497.2201 846.5997,-513.0847 858.3283,-524.973"/>
<polygon fill="#191970" stroke="#191970" points="856.1341,-527.7375 865.611,-532.4744 861.1565,-522.8615 856.1341,-527.7375"/>
</g>
<!-- Node43&#45;&gt;Node10 -->
<g id="edge57" class="edge">
<title>Node43&#45;&gt;Node10</title>
<path fill="none" stroke="#191970" d="M783.4889,-409.6033C794.1092,-413.9497 805.4037,-419.9589 814,-428 842.5076,-454.6664 860.2338,-497.8352 868.65,-522.6951"/>
<polygon fill="#191970" stroke="#191970" points="865.3833,-523.9697 871.7795,-532.4159 872.0466,-521.8245 865.3833,-523.9697"/>
</g>
<!-- Node44&#45;&gt;Node10 -->
<g id="edge59" class="edge">
<title>Node44&#45;&gt;Node10</title>
<path fill="none" stroke="#191970" d="M628.623,-345.7342C677.5789,-340.3103 760.8914,-338.9449 814,-381 858.3767,-416.1405 870.2061,-487.5222 873.3572,-522.2018"/>
<polygon fill="#191970" stroke="#191970" points="869.8878,-522.7409 874.1276,-532.4504 876.8681,-522.2161 869.8878,-522.7409"/>
</g>
<!-- Node47&#45;&gt;Node10 -->
<g id="edge63" class="edge">
<title>Node47&#45;&gt;Node10</title>
<path fill="none" stroke="#191970" d="M304.2095,-361.4538C342.7587,-343.6387 426.1338,-302.9467 489,-257 506.7681,-244.0139 504.6498,-231.3795 525,-223 584.3905,-198.5449 764.5795,-177.9768 814,-219 861.0085,-258.021 871.7063,-457.8202 873.9472,-522.0723"/>
<polygon fill="#191970" stroke="#191970" points="870.4601,-522.5383 874.2741,-532.4228 877.4566,-522.3173 870.4601,-522.5383"/>
</g>
<!-- Node47&#45;&gt;Node31 -->
<g id="edge64" class="edge">
<title>Node47&#45;&gt;Node31</title>
<path fill="none" stroke="#191970" d="M285.6826,-361.4155C293.7299,-334.4888 320.3,-257.6121 371,-219 384.8273,-208.4694 484.5178,-185.0896 544.1928,-171.7758"/>
<polygon fill="#191970" stroke="#191970" points="545.12,-175.1553 554.1234,-169.5707 543.6025,-168.3217 545.12,-175.1553"/>
</g>
<!-- Node47&#45;&gt;Node36 -->
<g id="edge66" class="edge">
<title>Node47&#45;&gt;Node36</title>
<path fill="none" stroke="#191970" d="M292.9518,-380.7067C308.6515,-395.699 340.5249,-424.8585 371,-445 435.0068,-487.3031 453.7134,-494.6339 525,-523 532.8093,-526.1074 541.3297,-528.979 549.5317,-531.4989"/>
<polygon fill="#191970" stroke="#191970" points="548.7272,-534.9108 559.3093,-534.3905 550.7124,-528.1981 548.7272,-534.9108"/>
</g>
<!-- Node47&#45;&gt;Node38 -->
<g id="edge69" class="edge">
<title>Node47&#45;&gt;Node38</title>
<path fill="none" stroke="#191970" d="M304.1938,-380.5636C321.9289,-388.4669 347.9598,-399.8364 371,-409 422.8664,-429.6284 437.9772,-429.3652 489,-452 505.5374,-459.3364 508.9598,-462.6321 525,-471 536.8629,-477.1887 549.9935,-483.971 561.2581,-489.7686"/>
<polygon fill="#191970" stroke="#191970" points="559.7189,-492.9127 570.2127,-494.3724 562.9196,-486.6873 559.7189,-492.9127"/>
</g>
<!-- Node47&#45;&gt;Node39 -->
<g id="edge67" class="edge">
<title>Node47&#45;&gt;Node39</title>
<path fill="none" stroke="#191970" d="M331.5407,-377.274C346.6252,-379.2237 363.3013,-381.3791 378.5753,-383.3533"/>
<polygon fill="#191970" stroke="#191970" points="378.5227,-386.8755 388.8889,-384.6863 379.4201,-379.9333 378.5227,-386.8755"/>
</g>
<!-- Node48 -->
<g id="node40" class="node">
<title>Node48</title>
<g id="a_node40"><a xlink:href="client_8c.html#a55586f2b7e9b3620294cf78cda8abdad" target="_top" xlink:title="Divide in 4 parti il contenuto del file da inviare al server. ">
<polygon fill="none" stroke="#000000" points="408,-342.5 408,-361.5 452,-361.5 452,-342.5 408,-342.5"/>
<text text-anchor="middle" x="430" y="-349.5" font-family="Helvetica,sans-Serif" font-size="10.00" fill="#000000">dividi</text>
</a>
</g>
</g>
<!-- Node47&#45;&gt;Node48 -->
<g id="edge65" class="edge">
<title>Node47&#45;&gt;Node48</title>
<path fill="none" stroke="#191970" d="M331.5407,-364.726C353.2737,-361.917 378.3104,-358.681 397.698,-356.1751"/>
<polygon fill="#191970" stroke="#191970" points="398.3621,-359.6185 407.831,-354.8654 397.4648,-352.6762 398.3621,-359.6185"/>
</g>
<!-- Node49 -->
<g id="node41" class="node">
<title>Node49</title>
<g id="a_node41"><a xlink:href="defines_8c.html#ac281b05b7a90ba292f5748cbfe3c389d" target="_top" xlink:title="Restituisce vero se l&#39;array contiene tutti true. ">
<polygon fill="none" stroke="#000000" points="371,-228.5 371,-247.5 489,-247.5 489,-228.5 371,-228.5"/>
<text text-anchor="middle" x="430" y="-235.5" font-family="Helvetica,sans-Serif" font-size="10.00" fill="#000000">arrayContainsAllTrue</text>
</a>
</g>
</g>
<!-- Node47&#45;&gt;Node49 -->
<g id="edge68" class="edge">
<title>Node47&#45;&gt;Node49</title>
<path fill="none" stroke="#191970" d="M288.3671,-361.4879C300.5243,-340.718 332.1496,-290.8635 371,-262 376.4271,-257.968 382.6273,-254.4929 388.9217,-251.5388"/>
<polygon fill="#191970" stroke="#191970" points="390.3274,-254.7443 398.132,-247.5792 387.5627,-248.3134 390.3274,-254.7443"/>
</g>
</g>
</svg>
