<?xml version="1.0" encoding="UTF-8" standalone="no"?>
<!DOCTYPE svg PUBLIC "-//W3C//DTD SVG 1.1//EN"
 "http://www.w3.org/Graphics/SVG/1.1/DTD/svg11.dtd">
<!-- Generated by graphviz version 2.40.1 (20161225.0304)
 -->
<!-- Title: main Pages: 1 -->
<!--zoomable 622 -->
<svg id="main" version="1.1" xmlns="http://www.w3.org/2000/svg" xmlns:xlink="http://www.w3.org/1999/xlink" xml:space="preserve" onload="init(evt)">
<style type="text/css"><![CDATA[
.edge:hover path { stroke: red; }
.edge:hover polygon { stroke: red; fill: red; }
]]></style>
<script type="text/javascript"><![CDATA[
var edges = document.getElementsByTagName('g');
if (edges && edges.length) {
  for (var i=0;i<edges.length;i++) {
    if (edges[i].id.substr(0,4)=='edge') {
      edges[i].setAttribute('class','edge');
    }
  }
}
]]></script>
        <defs>
                <circle id="rim" cx="0" cy="0" r="7"/>
                <circle id="rim2" cx="0" cy="0" r="3.5"/>
                <g id="zoomPlus">
                        <use xlink:href="#rim" fill="#404040">
                                <set attributeName="fill" to="#808080" begin="zoomplus.mouseover" end="zoomplus.mouseout"/>
                        </use>
                        <path d="M-4,0h8M0,-4v8" fill="none" stroke="white" stroke-width="1.5" pointer-events="none"/>
                </g>
                <g id="zoomMin">
                        <use xlink:href="#rim" fill="#404040">
                                <set attributeName="fill" to="#808080" begin="zoomminus.mouseover" end="zoomminus.mouseout"/>
                        </use>
                        <path d="M-4,0h8" fill="none" stroke="white" stroke-width="1.5" pointer-events="none"/>
                </g>
                <g id="dirArrow">
                        <path fill="none" stroke="white" stroke-width="1.5" d="M0,-3.0v7 M-2.5,-0.5L0,-3.0L2.5,-0.5"/>
                </g>
               <g id="resetDef">
                       <use xlink:href="#rim2" fill="#404040">
                               <set attributeName="fill" to="#808080" begin="reset.mouseover" end="reset.mouseout"/>
                       </use>
               </g>
        </defs>

<script type="text/javascript">
var viewWidth = 459;
var viewHeight = 622;
var sectionId = 'dynsection-3';
</script>
<script xlink:href="svgpan.js"/>
<svg id="graph" class="graph">
<g id="viewport">
<title>main</title>
<!-- Node9 -->
<g id="node1" class="node">
<title>Node9</title>
<polygon fill="#bfbfbf" stroke="#000000" points="0,-285.5 0,-304.5 41,-304.5 41,-285.5 0,-285.5"/>
<text text-anchor="middle" x="20.5" y="-292.5" font-family="Helvetica,sans-Serif" font-size="10.00" fill="#000000">main</text>
</g>
<!-- Node10 -->
<g id="node2" class="node">
<title>Node10</title>
<g id="a_node2"><a xlink:href="err__exit_8c.html#aa223b0ecfe538d130ece562646a37d27" target="_top" xlink:title="Prints the error message of the last failed system call and terminates the calling process...">
<polygon fill="none" stroke="#000000" points="402,-323.5 402,-342.5 451,-342.5 451,-323.5 402,-323.5"/>
<text text-anchor="middle" x="426.5" y="-330.5" font-family="Helvetica,sans-Serif" font-size="10.00" fill="#000000">ErrExit</text>
</a>
</g>
</g>
<!-- Node9&#45;&gt;Node10 -->
<g id="edge1" class="edge">
<title>Node9&#45;&gt;Node10</title>
<path fill="none" stroke="#191970" d="M20.8975,-304.6999C22.9645,-349.7604 34.0969,-537.9393 77,-573 179.334,-656.628 275.7912,-599.5829 366,-503 406.3443,-459.805 420.0828,-387.9408 424.5187,-353.1279"/>
<polygon fill="#191970" stroke="#191970" points="428.0366,-353.1692 425.6914,-342.8371 421.0816,-352.3765 428.0366,-353.1692"/>
</g>
<!-- Node11 -->
<g id="node3" class="node">
<title>Node11</title>
<g id="a_node3"><a xlink:href="signals_8c.html#a6060ad9cb62b184abfe113560b29f3c4" target="_top" xlink:title="block_sig_no_SIGINT\l_SIGUSR1">
<polygon fill="none" stroke="#000000" points="82,-533 82,-563 200,-563 200,-533 82,-533"/>
<text text-anchor="start" x="90" y="-551" font-family="Helvetica,sans-Serif" font-size="10.00" fill="#000000">block_sig_no_SIGINT</text>
<text text-anchor="middle" x="141" y="-540" font-family="Helvetica,sans-Serif" font-size="10.00" fill="#000000">_SIGUSR1</text>
</a>
</g>
</g>
<!-- Node9&#45;&gt;Node11 -->
<g id="edge2" class="edge">
<title>Node9&#45;&gt;Node11</title>
<path fill="none" stroke="#191970" d="M21.7121,-304.7213C26.7622,-343.8237 47.2642,-489.1412 77,-523 78.1635,-524.3248 79.406,-525.58 80.7145,-526.7692"/>
<polygon fill="#191970" stroke="#191970" points="78.745,-529.6673 88.8399,-532.8833 82.9538,-524.074 78.745,-529.6673"/>
</g>
<!-- Node12 -->
<g id="node4" class="node">
<title>Node12</title>
<g id="a_node4"><a xlink:href="client_8c.html#a48d605ff689f470746c858648f0a98c2" target="_top" xlink:title="Handler del segnale SIGINT. ">
<polygon fill="none" stroke="#000000" points="82,-494.5 82,-513.5 200,-513.5 200,-494.5 82,-494.5"/>
<text text-anchor="middle" x="141" y="-501.5" font-family="Helvetica,sans-Serif" font-size="10.00" fill="#000000">SIGINTSignalHandler</text>
</a>
</g>
</g>
<!-- Node9&#45;&gt;Node12 -->
<g id="edge3" class="edge">
<title>Node9&#45;&gt;Node12</title>
<path fill="none" stroke="#191970" d="M22.1115,-304.5635C28.1524,-339.3473 50.4698,-458.4818 77,-485 78.4448,-486.4442 79.994,-487.7795 81.6265,-489.0142"/>
<polygon fill="#191970" stroke="#191970" points="80.0295,-492.1406 90.3835,-494.3866 83.69,-486.174 80.0295,-492.1406"/>
</g>
<!-- Node13 -->
<g id="node5" class="node">
<title>Node13</title>
<g id="a_node5"><a xlink:href="client_8c.html#a50b22adcb76198fcd9402a97ff4711bf" target="_top" xlink:title="Handler del segnale SIGUSR1. ">
<polygon fill="none" stroke="#000000" points="77,-456.5 77,-475.5 205,-475.5 205,-456.5 77,-456.5"/>
<text text-anchor="middle" x="141" y="-463.5" font-family="Helvetica,sans-Serif" font-size="10.00" fill="#000000">SIGUSR1SignalHandler</text>
</a>
</g>
</g>
<!-- Node9&#45;&gt;Node13 -->
<g id="edge4" class="edge">
<title>Node9&#45;&gt;Node13</title>
<path fill="none" stroke="#191970" d="M21.501,-304.7145C24.6766,-330.6307 36.8174,-402.1446 77,-442 80.9493,-445.9172 85.5981,-449.2045 90.5579,-451.9613"/>
<polygon fill="#191970" stroke="#191970" points="89.2079,-455.1957 99.7372,-456.372 92.2396,-448.8862 89.2079,-455.1957"/>
</g>
<!-- Node15 -->
<g id="node7" class="node">
<title>Node15</title>
<g id="a_node7"><a xlink:href="defines_8c.html#a2d341373a96ffea0944553e5452cdbca" target="_top" xlink:title="get_ipc_key">
<polygon fill="none" stroke="#000000" points="266,-418.5 266,-437.5 341,-437.5 341,-418.5 266,-418.5"/>
<text text-anchor="middle" x="303.5" y="-425.5" font-family="Helvetica,sans-Serif" font-size="10.00" fill="#000000">get_ipc_key</text>
</a>
</g>
</g>
<!-- Node9&#45;&gt;Node15 -->
<g id="edge8" class="edge">
<title>Node9&#45;&gt;Node15</title>
<path fill="none" stroke="#191970" d="M24.6501,-304.7469C32.3614,-321.6318 50.5541,-356.2165 77,-374 131.0671,-410.3574 206.8341,-422.339 255.546,-426.2269"/>
<polygon fill="#191970" stroke="#191970" points="255.589,-429.7387 265.8125,-426.9584 256.0866,-422.7564 255.589,-429.7387"/>
</g>
<!-- Node16 -->
<g id="node8" class="node">
<title>Node16</title>
<g id="a_node8"><a xlink:href="shared__memory_8c.html#a660a60242a5174977ab2debcdbd0e587" target="_top" xlink:title="Ottiene l&#39;id o crea una memoria condivisa. ">
<polygon fill="none" stroke="#000000" points="241,-380.5 241,-399.5 366,-399.5 366,-380.5 241,-380.5"/>
<text text-anchor="middle" x="303.5" y="-387.5" font-family="Helvetica,sans-Serif" font-size="10.00" fill="#000000">alloc_shared_memory</text>
</a>
</g>
</g>
<!-- Node9&#45;&gt;Node16 -->
<g id="edge10" class="edge">
<title>Node9&#45;&gt;Node16</title>
<path fill="none" stroke="#191970" d="M29.1011,-304.5285C39.4063,-315.3308 57.711,-332.6503 77,-342 125.2557,-365.3905 184.729,-377.4377 230.6228,-383.612"/>
<polygon fill="#191970" stroke="#191970" points="230.4283,-387.1156 240.792,-384.9144 231.3177,-380.1723 230.4283,-387.1156"/>
</g>
<!-- Node17 -->
<g id="node9" class="node">
<title>Node17</title>
<g id="a_node9"><a xlink:href="shared__memory_8c.html#ab2ffe00ec7425a3a4229cd0d53ed901c" target="_top" xlink:title="Recupera il puntatore alla memoria condivisa aggiungendola allo spazio degli indirizzi. ">
<polygon fill="none" stroke="#000000" points="245,-342.5 245,-361.5 362,-361.5 362,-342.5 245,-342.5"/>
<text text-anchor="middle" x="303.5" y="-349.5" font-family="Helvetica,sans-Serif" font-size="10.00" fill="#000000">get_shared_memory</text>
</a>
</g>
</g>
<!-- Node9&#45;&gt;Node17 -->
<g id="edge12" class="edge">
<title>Node9&#45;&gt;Node17</title>
<path fill="none" stroke="#191970" d="M41.0659,-304.2565C51.6234,-308.6857 64.8004,-313.7244 77,-317 128.9821,-330.9573 189.2693,-339.9367 234.5713,-345.3019"/>
<polygon fill="#191970" stroke="#191970" points="234.2472,-348.7877 244.5827,-346.4578 235.0502,-341.8339 234.2472,-348.7877"/>
</g>
<!-- Node18 -->
<g id="node10" class="node">
<title>Node18</title>
<g id="a_node10"><a xlink:href="semaphore_8c.html#a2081de3d1c08dbacaf10ca46a717fabb" target="_top" xlink:title="Crea un insieme di semafori. ">
<polygon fill="none" stroke="#000000" points="249.5,-304.5 249.5,-323.5 357.5,-323.5 357.5,-304.5 249.5,-304.5"/>
<text text-anchor="middle" x="303.5" y="-311.5" font-family="Helvetica,sans-Serif" font-size="10.00" fill="#000000">createSemaphores</text>
</a>
</g>
</g>
<!-- Node9&#45;&gt;Node18 -->
<g id="edge14" class="edge">
<title>Node9&#45;&gt;Node18</title>
<path fill="none" stroke="#191970" d="M41.3097,-296.3971C82.421,-299.1572 175.5583,-305.4103 239.0008,-309.6697"/>
<polygon fill="#191970" stroke="#191970" points="239.0942,-313.1837 249.3062,-310.3615 239.5631,-306.1994 239.0942,-313.1837"/>
</g>
<!-- Node19 -->
<g id="node11" class="node">
<title>Node19</title>
<g id="a_node11"><a xlink:href="semaphore_8c.html#a8df9b8ea63eaf93d09f437b356a4a1eb" target="_top" xlink:title="Inizializza i valori del set di semafori semid ai valori in values. ">
<polygon fill="none" stroke="#000000" points="270.5,-266.5 270.5,-285.5 336.5,-285.5 336.5,-266.5 270.5,-266.5"/>
<text text-anchor="middle" x="303.5" y="-273.5" font-family="Helvetica,sans-Serif" font-size="10.00" fill="#000000">semSetAll</text>
</a>
</g>
</g>
<!-- Node9&#45;&gt;Node19 -->
<g id="edge16" class="edge">
<title>Node9&#45;&gt;Node19</title>
<path fill="none" stroke="#191970" d="M41.3097,-293.6029C87.2836,-290.5163 198.3183,-283.0617 260.1308,-278.9117"/>
<polygon fill="#191970" stroke="#191970" points="260.5993,-282.3882 270.3423,-278.2261 260.1303,-275.404 260.5993,-282.3882"/>
</g>
<!-- Node20 -->
<g id="node12" class="node">
<title>Node20</title>
<g id="a_node12"><a xlink:href="fifo_8c.html#a54a1ae8162825128cf02f95692402c18" target="_top" xlink:title="Facilita la creazione di una FIFO (o ne ottiene una esistente) in modalita&#39; lettura o scrittura...">
<polygon fill="none" stroke="#000000" points="107,-228.5 107,-247.5 175,-247.5 175,-228.5 107,-228.5"/>
<text text-anchor="middle" x="141" y="-235.5" font-family="Helvetica,sans-Serif" font-size="10.00" fill="#000000">create_fifo</text>
</a>
</g>
</g>
<!-- Node9&#45;&gt;Node20 -->
<g id="edge18" class="edge">
<title>Node9&#45;&gt;Node20</title>
<path fill="none" stroke="#191970" d="M35.4667,-285.3157C46.6409,-278.3206 62.4313,-268.9246 77,-262 85.2542,-258.0767 94.3344,-254.3419 102.9965,-251.0371"/>
<polygon fill="#191970" stroke="#191970" points="104.3728,-254.2598 112.5324,-247.5017 101.9393,-247.6963 104.3728,-254.2598"/>
</g>
<!-- Node22 -->
<g id="node14" class="node">
<title>Node22</title>
<g id="a_node14"><a xlink:href="server_8c.html#ab53aa0eb44ad55d2e189f18d3bd6017b" target="_top" xlink:title="string_to_int">
<polygon fill="none" stroke="#000000" points="265,-152.5 265,-171.5 342,-171.5 342,-152.5 265,-152.5"/>
<text text-anchor="middle" x="303.5" y="-159.5" font-family="Helvetica,sans-Serif" font-size="10.00" fill="#000000">string_to_int</text>
</a>
</g>
</g>
<!-- Node9&#45;&gt;Node22 -->
<g id="edge22" class="edge">
<title>Node9&#45;&gt;Node22</title>
<path fill="none" stroke="#191970" d="M24.9015,-285.3966C32.8758,-269.1098 51.2995,-236.1718 77,-219 91.8111,-209.104 193.0032,-185.9381 255.0147,-172.3816"/>
<polygon fill="#191970" stroke="#191970" points="255.9588,-175.7581 264.9853,-170.2108 254.4696,-168.9183 255.9588,-175.7581"/>
</g>
<!-- Node23 -->
<g id="node15" class="node">
<title>Node23</title>
<g id="a_node15"><a xlink:href="semaphore_8c.html#a2581efba6a0833e3f289de94c779cc21" target="_top" xlink:title="Esegue la wait sul semaforo sem_num: decrementa il valore di 1 ed eventualmente mette in attesa il pr...">
<polygon fill="none" stroke="#000000" points="111.5,-152.5 111.5,-171.5 170.5,-171.5 170.5,-152.5 111.5,-152.5"/>
<text text-anchor="middle" x="141" y="-159.5" font-family="Helvetica,sans-Serif" font-size="10.00" fill="#000000">semWait</text>
</a>
</g>
</g>
<!-- Node9&#45;&gt;Node23 -->
<g id="edge24" class="edge">
<title>Node9&#45;&gt;Node23</title>
<path fill="none" stroke="#191970" d="M22.9367,-285.3816C28.7295,-264.3999 45.2703,-214.1492 77,-186 84.1057,-179.6962 93.025,-174.988 101.9291,-171.494"/>
<polygon fill="#191970" stroke="#191970" points="103.206,-174.7556 111.4985,-168.1612 100.9036,-168.145 103.206,-174.7556"/>
</g>
<!-- Node25 -->
<g id="node17" class="node">
<title>Node25</title>
<g id="a_node17"><a xlink:href="semaphore_8c.html#a7bad0eb0b0c6ac701b59c36b8b7837bf" target="_top" xlink:title="Esegue la signal sul semaforo sem_num: incrementa il valore di 1. ">
<polygon fill="none" stroke="#000000" points="107,-114.5 107,-133.5 175,-133.5 175,-114.5 107,-114.5"/>
<text text-anchor="middle" x="141" y="-121.5" font-family="Helvetica,sans-Serif" font-size="10.00" fill="#000000">semSignal</text>
</a>
</g>
</g>
<!-- Node9&#45;&gt;Node25 -->
<g id="edge27" class="edge">
<title>Node9&#45;&gt;Node25</title>
<path fill="none" stroke="#191970" d="M21.2025,-285.1904C23.66,-258.3402 34.2235,-182.9905 77,-143 82.588,-137.7759 89.5487,-133.9826 96.8027,-131.2296"/>
<polygon fill="#191970" stroke="#191970" points="98.2914,-134.43 106.7751,-128.0836 96.1854,-127.7543 98.2914,-134.43"/>
</g>
<!-- Node26 -->
<g id="node18" class="node">
<title>Node26</title>
<g id="a_node18"><a xlink:href="defines_8c.html#aea9b93cad897755a46cb9e3373ba8cc2" target="_top" xlink:title="Rende bloccante oppure non bloccante un file descriptor. ">
<polygon fill="none" stroke="#000000" points="113,-76.5 113,-95.5 169,-95.5 169,-76.5 113,-76.5"/>
<text text-anchor="middle" x="141" y="-83.5" font-family="Helvetica,sans-Serif" font-size="10.00" fill="#000000">blockFD</text>
</a>
</g>
</g>
<!-- Node9&#45;&gt;Node26 -->
<g id="edge29" class="edge">
<title>Node9&#45;&gt;Node26</title>
<path fill="none" stroke="#191970" d="M22.1115,-285.4365C28.1524,-250.6527 50.4698,-131.5182 77,-105 83.9967,-98.0065 93.4421,-93.5643 102.9256,-90.7495"/>
<polygon fill="#191970" stroke="#191970" points="103.8319,-94.1312 112.7212,-88.3667 102.1773,-87.3296 103.8319,-94.1312"/>
</g>
<!-- Node27 -->
<g id="node19" class="node">
<title>Node27</title>
<g id="a_node19"><a xlink:href="server_8c.html#ac94aa68fd5fccbf448cfe8788bd46225" target="_top" xlink:title="aggiungiAMatrice">
<polygon fill="none" stroke="#000000" points="90.5,-38.5 90.5,-57.5 191.5,-57.5 191.5,-38.5 90.5,-38.5"/>
<text text-anchor="middle" x="141" y="-45.5" font-family="Helvetica,sans-Serif" font-size="10.00" fill="#000000">aggiungiAMatrice</text>
</a>
</g>
</g>
<!-- Node9&#45;&gt;Node27 -->
<g id="edge30" class="edge">
<title>Node9&#45;&gt;Node27</title>
<path fill="none" stroke="#191970" d="M21.602,-285.4728C26.2934,-246.4899 45.8015,-99.6571 77,-67 78.4111,-65.5229 79.9313,-64.1591 81.5388,-62.9001"/>
<polygon fill="#191970" stroke="#191970" points="83.6109,-65.7313 90.2039,-57.4378 79.878,-59.8097 83.6109,-65.7313"/>
</g>
<!-- Node28 -->
<g id="node20" class="node">
<title>Node28</title>
<g id="a_node20"><a xlink:href="server_8c.html#aefaefec035e6211d28b35a6d2ce3b3fa" target="_top" xlink:title="costruisciStringa">
<polygon fill="none" stroke="#000000" points="92,-.5 92,-19.5 190,-19.5 190,-.5 92,-.5"/>
<text text-anchor="middle" x="141" y="-7.5" font-family="Helvetica,sans-Serif" font-size="10.00" fill="#000000">costruisciStringa</text>
</a>
</g>
</g>
<!-- Node9&#45;&gt;Node28 -->
<g id="edge31" class="edge">
<title>Node9&#45;&gt;Node28</title>
<path fill="none" stroke="#191970" d="M21.246,-285.391C24.7728,-242.3667 41.1223,-67.8416 77,-29 78.8236,-27.0258 80.8418,-25.2534 83.0046,-23.6623"/>
<polygon fill="#191970" stroke="#191970" points="85.1215,-26.4772 91.9564,-18.3818 81.565,-20.448 85.1215,-26.4772"/>
</g>
<!-- Node13&#45;&gt;Node10 -->
<g id="edge7" class="edge">
<title>Node13&#45;&gt;Node10</title>
<path fill="none" stroke="#191970" d="M182.4161,-475.5694C239.0782,-487.6537 337.0448,-504.6396 366,-485 410.3483,-454.9196 422.1889,-386.6161 425.3496,-352.769"/>
<polygon fill="#191970" stroke="#191970" points="428.8455,-352.9555 426.1231,-342.7164 421.8661,-352.4184 428.8455,-352.9555"/>
</g>
<!-- Node14 -->
<g id="node6" class="node">
<title>Node14</title>
<g id="a_node6"><a xlink:href="shared__memory_8c.html#a6530d61365abd3e580722ed907ea5f5b" target="_top" xlink:title="Scollega la memoria condivisa dallo spazio degli indirizzi. ">
<polygon fill="none" stroke="#000000" points="243,-456.5 243,-475.5 364,-475.5 364,-456.5 243,-456.5"/>
<text text-anchor="middle" x="303.5" y="-463.5" font-family="Helvetica,sans-Serif" font-size="10.00" fill="#000000">free_shared_memory</text>
</a>
</g>
</g>
<!-- Node13&#45;&gt;Node14 -->
<g id="edge5" class="edge">
<title>Node13&#45;&gt;Node14</title>
<path fill="none" stroke="#191970" d="M205.2243,-466C214.2482,-466 223.5654,-466 232.7033,-466"/>
<polygon fill="#191970" stroke="#191970" points="232.9188,-469.5001 242.9188,-466 232.9188,-462.5001 232.9188,-469.5001"/>
</g>
<!-- Node14&#45;&gt;Node10 -->
<g id="edge6" class="edge">
<title>Node14&#45;&gt;Node10</title>
<path fill="none" stroke="#191970" d="M350.0009,-456.4521C355.7591,-453.9899 361.2729,-450.8935 366,-447 396.2814,-422.0582 413.4419,-377.9071 421.2644,-352.4901"/>
<polygon fill="#191970" stroke="#191970" points="424.7202,-353.1388 424.136,-342.5601 417.9957,-351.1942 424.7202,-353.1388"/>
</g>
<!-- Node15&#45;&gt;Node10 -->
<g id="edge9" class="edge">
<title>Node15&#45;&gt;Node10</title>
<path fill="none" stroke="#191970" d="M341.1899,-420.5324C349.8005,-417.772 358.5893,-414.0351 366,-409 388.0096,-394.0458 405.8706,-368.6553 416.3362,-351.3735"/>
<polygon fill="#191970" stroke="#191970" points="419.3646,-353.1281 421.3689,-342.7246 413.3143,-349.6075 419.3646,-353.1281"/>
</g>
<!-- Node16&#45;&gt;Node10 -->
<g id="edge11" class="edge">
<title>Node16&#45;&gt;Node10</title>
<path fill="none" stroke="#191970" d="M340.7854,-380.4385C349.2351,-377.7872 358.055,-374.6243 366,-371 379.7128,-364.7446 394.0388,-355.8659 405.3063,-348.2636"/>
<polygon fill="#191970" stroke="#191970" points="407.3838,-351.0824 413.6167,-342.515 403.4014,-345.3255 407.3838,-351.0824"/>
</g>
<!-- Node17&#45;&gt;Node10 -->
<g id="edge13" class="edge">
<title>Node17&#45;&gt;Node10</title>
<path fill="none" stroke="#191970" d="M362.1181,-342.9452C372.2782,-341.3757 382.5434,-339.7901 391.8012,-338.36"/>
<polygon fill="#191970" stroke="#191970" points="392.4179,-341.8063 401.7663,-336.8207 391.3492,-334.8884 392.4179,-341.8063"/>
</g>
<!-- Node18&#45;&gt;Node10 -->
<g id="edge15" class="edge">
<title>Node18&#45;&gt;Node10</title>
<path fill="none" stroke="#191970" d="M357.8076,-322.389C369.2951,-324.1635 381.1219,-325.9904 391.6553,-327.6175"/>
<polygon fill="#191970" stroke="#191970" points="391.2799,-331.1009 401.697,-329.1686 392.3486,-324.183 391.2799,-331.1009"/>
</g>
<!-- Node19&#45;&gt;Node10 -->
<g id="edge17" class="edge">
<title>Node19&#45;&gt;Node10</title>
<path fill="none" stroke="#191970" d="M336.5433,-284.2626C346.232,-287.1579 356.7137,-290.7638 366,-295 379.7128,-301.2554 394.0388,-310.1341 405.3063,-317.7364"/>
<polygon fill="#191970" stroke="#191970" points="403.4014,-320.6745 413.6167,-323.485 407.3838,-314.9176 403.4014,-320.6745"/>
</g>
<!-- Node20&#45;&gt;Node10 -->
<g id="edge21" class="edge">
<title>Node20&#45;&gt;Node10</title>
<path fill="none" stroke="#191970" d="M175.3631,-232.8697C221.6322,-227.6738 305.1678,-224.4468 366,-257 389.8376,-269.7562 407.5452,-296.3396 417.4523,-314.4301"/>
<polygon fill="#191970" stroke="#191970" points="414.4289,-316.2025 422.1432,-323.4648 420.6415,-312.9769 414.4289,-316.2025"/>
</g>
<!-- Node21 -->
<g id="node13" class="node">
<title>Node21</title>
<g id="a_node13"><a xlink:href="fifo_8c.html#ab83de0eb3bc3947e3c031685d5c2474b" target="_top" xlink:title="Crea o ottiene una IPC FIFO usando mkfifo. ">
<polygon fill="none" stroke="#000000" points="271,-190.5 271,-209.5 336,-209.5 336,-190.5 271,-190.5"/>
<text text-anchor="middle" x="303.5" y="-197.5" font-family="Helvetica,sans-Serif" font-size="10.00" fill="#000000">make_fifo</text>
</a>
</g>
</g>
<!-- Node20&#45;&gt;Node21 -->
<g id="edge19" class="edge">
<title>Node20&#45;&gt;Node21</title>
<path fill="none" stroke="#191970" d="M175.0653,-230.034C200.0701,-224.1867 234.1991,-216.2057 260.9907,-209.9406"/>
<polygon fill="#191970" stroke="#191970" points="261.925,-213.3167 270.8653,-207.6315 260.331,-206.5005 261.925,-213.3167"/>
</g>
<!-- Node21&#45;&gt;Node10 -->
<g id="edge20" class="edge">
<title>Node21&#45;&gt;Node10</title>
<path fill="none" stroke="#191970" d="M336.0315,-207.7163C346.4551,-211.3685 357.4894,-216.6052 366,-224 394.1936,-248.4973 411.8685,-289.4984 420.3945,-313.6208"/>
<polygon fill="#191970" stroke="#191970" points="417.1749,-315.0284 423.673,-323.3965 423.8116,-312.8026 417.1749,-315.0284"/>
</g>
<!-- Node22&#45;&gt;Node10 -->
<g id="edge23" class="edge">
<title>Node22&#45;&gt;Node10</title>
<path fill="none" stroke="#191970" d="M342.0347,-167.8848C350.714,-170.7 359.3218,-174.8585 366,-181 404.8983,-216.7722 419.2125,-280.8391 424.1304,-313.1746"/>
<polygon fill="#191970" stroke="#191970" points="420.6776,-313.7582 425.503,-323.1903 427.6128,-312.8077 420.6776,-313.7582"/>
</g>
<!-- Node24 -->
<g id="node16" class="node">
<title>Node24</title>
<g id="a_node16"><a xlink:href="semaphore_8c.html#a77c6570406059144bb6a8ecf04f481da" target="_top" xlink:title="Funzione di supporto per manipolare i valori di un set di semafori. ">
<polygon fill="none" stroke="#000000" points="278,-114.5 278,-133.5 329,-133.5 329,-114.5 278,-114.5"/>
<text text-anchor="middle" x="303.5" y="-121.5" font-family="Helvetica,sans-Serif" font-size="10.00" fill="#000000">semOp</text>
</a>
</g>
</g>
<!-- Node23&#45;&gt;Node24 -->
<g id="edge25" class="edge">
<title>Node23&#45;&gt;Node24</title>
<path fill="none" stroke="#191970" d="M170.805,-155.0302C198.2623,-148.6094 239.0351,-139.0749 268.1307,-132.271"/>
<polygon fill="#191970" stroke="#191970" points="268.9539,-135.673 277.8942,-129.9878 267.36,-128.8569 268.9539,-135.673"/>
</g>
<!-- Node24&#45;&gt;Node10 -->
<g id="edge26" class="edge">
<title>Node24&#45;&gt;Node10</title>
<path fill="none" stroke="#191970" d="M329.1626,-126.2367C341.7362,-128.5888 356.2331,-133.3606 366,-143 390.7059,-167.3832 413.8311,-270.1615 422.6908,-313.5468"/>
<polygon fill="#191970" stroke="#191970" points="419.2757,-314.318 424.6719,-323.4357 426.1393,-312.943 419.2757,-314.318"/>
</g>
<!-- Node25&#45;&gt;Node24 -->
<g id="edge28" class="edge">
<title>Node25&#45;&gt;Node24</title>
<path fill="none" stroke="#191970" d="M175.0653,-124C202.2983,-124 240.354,-124 267.9664,-124"/>
<polygon fill="#191970" stroke="#191970" points="267.9935,-127.5001 277.9935,-124 267.9935,-120.5001 267.9935,-127.5001"/>
</g>
</g>
</svg>
        <g id="navigator" transform="translate(0 0)" fill="#404254">
                <rect fill="#f2f5e9" fill-opacity="0.5" stroke="#606060" stroke-width=".5" x="0" y="0" width="60" height="60"/>
                <use id="zoomplus" xlink:href="#zoomPlus" x="17" y="9" onmousedown="handleZoom(evt,'in')"/>
                <use id="zoomminus" xlink:href="#zoomMin" x="42" y="9" onmousedown="handleZoom(evt,'out')"/>
                <use id="reset" xlink:href="#resetDef" x="30" y="36" onmousedown="handleReset()"/>
                <g id="arrowUp" xlink:href="#dirArrow" transform="translate(30 24)" onmousedown="handlePan(0,-1)">
                  <use xlink:href="#rim" fill="#404040">
                        <set attributeName="fill" to="#808080" begin="arrowUp.mouseover" end="arrowUp.mouseout"/>
                  </use>
                  <path fill="none" stroke="white" stroke-width="1.5" d="M0,-3.0v7 M-2.5,-0.5L0,-3.0L2.5,-0.5"/>
                </g>
                <g id="arrowRight" xlink:href="#dirArrow" transform="rotate(90) translate(36 -43)" onmousedown="handlePan(1,0)">
                  <use xlink:href="#rim" fill="#404040">
                        <set attributeName="fill" to="#808080" begin="arrowRight.mouseover" end="arrowRight.mouseout"/>
                  </use>
                  <path fill="none" stroke="white" stroke-width="1.5" d="M0,-3.0v7 M-2.5,-0.5L0,-3.0L2.5,-0.5"/>
                </g>
                <g id="arrowDown" xlink:href="#dirArrow" transform="rotate(180) translate(-30 -48)" onmousedown="handlePan(0,1)">
                  <use xlink:href="#rim" fill="#404040">
                        <set attributeName="fill" to="#808080" begin="arrowDown.mouseover" end="arrowDown.mouseout"/>
                  </use>
                  <path fill="none" stroke="white" stroke-width="1.5" d="M0,-3.0v7 M-2.5,-0.5L0,-3.0L2.5,-0.5"/>
                </g>
                <g id="arrowLeft" xlink:href="#dirArrow" transform="rotate(270) translate(-36 17)" onmousedown="handlePan(-1,0)">
                  <use xlink:href="#rim" fill="#404040">
                        <set attributeName="fill" to="#808080" begin="arrowLeft.mouseover" end="arrowLeft.mouseout"/>
                  </use>
                  <path fill="none" stroke="white" stroke-width="1.5" d="M0,-3.0v7 M-2.5,-0.5L0,-3.0L2.5,-0.5"/>
                </g>
        </g>
        <svg viewBox="0 0 15 15" width="100%" height="30px" preserveAspectRatio="xMaxYMin meet">
         <g id="arrow_out" transform="scale(0.3 0.3)">
          <a xlink:href="client_8h_a0ddf1224851353fc92bfbff6f499fa97_cgraph_org.svg" target="_base">
           <rect id="button" ry="5" rx="5" y="6" x="6" height="38" width="38"
                fill="#f2f5e9" fill-opacity="0.5" stroke="#606060" stroke-width="1.0"/>
           <path id="arrow"
             d="M 11.500037,31.436501 C 11.940474,20.09759 22.043105,11.32322 32.158766,21.979434 L 37.068811,17.246167 C 37.068811,17.246167 37.088388,32 37.088388,32 L 22.160133,31.978069 C 22.160133,31.978069 26.997745,27.140456 26.997745,27.140456 C 18.528582,18.264221 13.291696,25.230495 11.500037,31.436501 z"
             style="fill:#404040;"/>
          </a>
         </g>
        </svg>
</svg>
