<?xml version="1.0" encoding="UTF-8" standalone="no"?>
<!DOCTYPE svg PUBLIC "-//W3C//DTD SVG 1.1//EN"
 "http://www.w3.org/Graphics/SVG/1.1/DTD/svg11.dtd">
<!-- Generated by graphviz version 2.40.1 (20161225.0304)
 -->
<!-- Title: strEquals Pages: 1 -->
<svg width="289pt" height="28pt"
 viewBox="0.00 0.00 289.00 28.00" xmlns="http://www.w3.org/2000/svg" xmlns:xlink="http://www.w3.org/1999/xlink">
<g id="graph0" class="graph" transform="scale(1 1) rotate(0) translate(4 24)">
<title>strEquals</title>
<!-- Node127 -->
<g id="node1" class="node">
<title>Node127</title>
<polygon fill="#bfbfbf" stroke="#000000" points="0,-.5 0,-19.5 62,-19.5 62,-.5 0,-.5"/>
<text text-anchor="middle" x="31" y="-7.5" font-family="Helvetica,sans-Serif" font-size="10.00" fill="#000000">strEquals</text>
</g>
<!-- Node128 -->
<g id="node2" class="node">
<title>Node128</title>
<g id="a_node2"><a xlink:href="client_8h.html#a8c7084a254c7cd640d66e647795ff8f6" target="_top" xlink:title="operazioni_client0">
<polygon fill="none" stroke="#000000" points="98,-.5 98,-19.5 204,-19.5 204,-.5 98,-.5"/>
<text text-anchor="middle" x="151" y="-7.5" font-family="Helvetica,sans-Serif" font-size="10.00" fill="#000000">operazioni_client0</text>
</a>
</g>
</g>
<!-- Node127&#45;&gt;Node128 -->
<g id="edge1" class="edge">
<title>Node127&#45;&gt;Node128</title>
<path fill="none" stroke="#191970" d="M72.2451,-10C80.4229,-10 89.1176,-10 97.6319,-10"/>
<polygon fill="#191970" stroke="#191970" points="72.2154,-6.5001 62.2153,-10 72.2153,-13.5001 72.2154,-6.5001"/>
</g>
<!-- Node129 -->
<g id="node3" class="node">
<title>Node129</title>
<g id="a_node3"><a xlink:href="client_8c.html#a0ddf1224851353fc92bfbff6f499fa97" target="_top" xlink:title="main">
<polygon fill="none" stroke="#000000" points="240,-.5 240,-19.5 281,-19.5 281,-.5 240,-.5"/>
<text text-anchor="middle" x="260.5" y="-7.5" font-family="Helvetica,sans-Serif" font-size="10.00" fill="#000000">main</text>
</a>
</g>
</g>
<!-- Node128&#45;&gt;Node129 -->
<g id="edge2" class="edge">
<title>Node128&#45;&gt;Node129</title>
<path fill="none" stroke="#191970" d="M214.2796,-10C223.5452,-10 232.4767,-10 239.9772,-10"/>
<polygon fill="#191970" stroke="#191970" points="214.1462,-6.5001 204.1462,-10 214.1462,-13.5001 214.1462,-6.5001"/>
</g>
</g>
</svg>
