<?xml version="1.0" encoding="UTF-8" standalone="no"?>
<!DOCTYPE svg PUBLIC "-//W3C//DTD SVG 1.1//EN"
 "http://www.w3.org/Graphics/SVG/1.1/DTD/svg11.dtd">
<!-- Generated by graphviz version 2.40.1 (20161225.0304)
 -->
<!-- Title: /mnt/c/Users/stefa/Desktop/system_call/src/client.c Pages: 1 -->
<svg width="1614pt" height="162pt"
 viewBox="0.00 0.00 1614.00 162.00" xmlns="http://www.w3.org/2000/svg" xmlns:xlink="http://www.w3.org/1999/xlink">
<g id="graph0" class="graph" transform="scale(1 1) rotate(0) translate(4 158)">
<title>/mnt/c/Users/stefa/Desktop/system_call/src/client.c</title>
<!-- Node0 -->
<g id="node1" class="node">
<title>Node0</title>
<polygon fill="#bfbfbf" stroke="#000000" points="699,-112.5 699,-153.5 821,-153.5 821,-112.5 699,-112.5"/>
<text text-anchor="start" x="707" y="-141.5" font-family="Helvetica,sans-Serif" font-size="10.00" fill="#000000">/mnt/c/Users/stefa</text>
<text text-anchor="start" x="707" y="-130.5" font-family="Helvetica,sans-Serif" font-size="10.00" fill="#000000">/Desktop/system_call</text>
<text text-anchor="middle" x="760" y="-119.5" font-family="Helvetica,sans-Serif" font-size="10.00" fill="#000000">/src/client.c</text>
</g>
<!-- Node1 -->
<g id="node2" class="node">
<title>Node1</title>
<polygon fill="none" stroke="#bfbfbf" points="0,-56.5 0,-75.5 50,-75.5 50,-56.5 0,-56.5"/>
<text text-anchor="middle" x="25" y="-63.5" font-family="Helvetica,sans-Serif" font-size="10.00" fill="#000000">stdio.h</text>
</g>
<!-- Node0&#45;&gt;Node1 -->
<g id="edge1" class="edge">
<title>Node0&#45;&gt;Node1</title>
<path fill="none" stroke="#191970" d="M698.7872,-129.6379C555.2015,-121.4973 199.0361,-99.7639 60.1254,-75.8116"/>
<polygon fill="#191970" stroke="#191970" points="60.5735,-72.336 50.1116,-74.0093 59.3335,-79.2253 60.5735,-72.336"/>
</g>
<!-- Node2 -->
<g id="node3" class="node">
<title>Node2</title>
<polygon fill="none" stroke="#bfbfbf" points="68,-56.5 68,-75.5 130,-75.5 130,-56.5 68,-56.5"/>
<text text-anchor="middle" x="99" y="-63.5" font-family="Helvetica,sans-Serif" font-size="10.00" fill="#000000">stdbool.h</text>
</g>
<!-- Node0&#45;&gt;Node2 -->
<g id="edge2" class="edge">
<title>Node0&#45;&gt;Node2</title>
<path fill="none" stroke="#191970" d="M698.7766,-130.4982C588.6731,-125.3196 349.9448,-110.9954 140.3068,-76.0018"/>
<polygon fill="#191970" stroke="#191970" points="140.7899,-72.5339 130.3466,-74.3198 139.6242,-79.4362 140.7899,-72.5339"/>
</g>
<!-- Node3 -->
<g id="node4" class="node">
<title>Node3</title>
<polygon fill="none" stroke="#bfbfbf" points="148,-56.5 148,-75.5 204,-75.5 204,-56.5 148,-56.5"/>
<text text-anchor="middle" x="176" y="-63.5" font-family="Helvetica,sans-Serif" font-size="10.00" fill="#000000">unistd.h</text>
</g>
<!-- Node0&#45;&gt;Node3 -->
<g id="edge3" class="edge">
<title>Node0&#45;&gt;Node3</title>
<path fill="none" stroke="#191970" d="M698.8347,-129.8296C599.0759,-123.9576 395.1371,-109.0273 214.1409,-75.9576"/>
<polygon fill="#191970" stroke="#191970" points="214.6445,-72.4915 204.1747,-74.1138 213.3711,-79.3747 214.6445,-72.4915"/>
</g>
<!-- Node4 -->
<g id="node5" class="node">
<title>Node4</title>
<polygon fill="none" stroke="#bfbfbf" points="222.5,-56.5 222.5,-75.5 277.5,-75.5 277.5,-56.5 222.5,-56.5"/>
<text text-anchor="middle" x="250" y="-63.5" font-family="Helvetica,sans-Serif" font-size="10.00" fill="#000000">signal.h</text>
</g>
<!-- Node0&#45;&gt;Node4 -->
<g id="edge4" class="edge">
<title>Node0&#45;&gt;Node4</title>
<path fill="none" stroke="#191970" d="M698.7084,-128.4521C610.0504,-121.2481 440.8207,-105.1527 287.8323,-75.9136"/>
<polygon fill="#191970" stroke="#191970" points="288.2626,-72.432 277.7798,-73.9686 286.9328,-79.3046 288.2626,-72.432"/>
</g>
<!-- Node5 -->
<g id="node6" class="node">
<title>Node5</title>
<polygon fill="none" stroke="#bfbfbf" points="296,-56.5 296,-75.5 350,-75.5 350,-56.5 296,-56.5"/>
<text text-anchor="middle" x="323" y="-63.5" font-family="Helvetica,sans-Serif" font-size="10.00" fill="#000000">dirent.h</text>
</g>
<!-- Node0&#45;&gt;Node5 -->
<g id="edge5" class="edge">
<title>Node0&#45;&gt;Node5</title>
<path fill="none" stroke="#191970" d="M698.7699,-126.797C621.7568,-118.4391 485.3935,-101.8002 359.8252,-75.9537"/>
<polygon fill="#191970" stroke="#191970" points="360.538,-72.5271 350.0345,-73.9149 359.1109,-79.3801 360.538,-72.5271"/>
</g>
<!-- Node6 -->
<g id="node7" class="node">
<title>Node6</title>
<polygon fill="none" stroke="#bfbfbf" points="368.5,-56.5 368.5,-75.5 419.5,-75.5 419.5,-56.5 368.5,-56.5"/>
<text text-anchor="middle" x="394" y="-63.5" font-family="Helvetica,sans-Serif" font-size="10.00" fill="#000000">errno.h</text>
</g>
<!-- Node0&#45;&gt;Node6 -->
<g id="edge6" class="edge">
<title>Node0&#45;&gt;Node6</title>
<path fill="none" stroke="#191970" d="M698.9949,-124.6952C634.2315,-115.3923 528.7807,-98.8578 429.4377,-76.1452"/>
<polygon fill="#191970" stroke="#191970" points="430.0669,-72.6984 419.5355,-73.8557 428.49,-79.5185 430.0669,-72.6984"/>
</g>
<!-- Node7 -->
<g id="node8" class="node">
<title>Node7</title>
<polygon fill="none" stroke="#bfbfbf" points="437.5,-56.5 437.5,-75.5 490.5,-75.5 490.5,-56.5 437.5,-56.5"/>
<text text-anchor="middle" x="464" y="-63.5" font-family="Helvetica,sans-Serif" font-size="10.00" fill="#000000">stdlib.h</text>
</g>
<!-- Node0&#45;&gt;Node7 -->
<g id="edge7" class="edge">
<title>Node0&#45;&gt;Node7</title>
<path fill="none" stroke="#191970" d="M698.8342,-120.783C648.0575,-110.381 573.7475,-94.5598 500.5555,-76.2934"/>
<polygon fill="#191970" stroke="#191970" points="501.2575,-72.8611 490.706,-73.8185 499.5516,-79.65 501.2575,-72.8611"/>
</g>
<!-- Node8 -->
<g id="node9" class="node">
<title>Node8</title>
<polygon fill="none" stroke="#bfbfbf" points="508.5,-56.5 508.5,-75.5 561.5,-75.5 561.5,-56.5 508.5,-56.5"/>
<text text-anchor="middle" x="535" y="-63.5" font-family="Helvetica,sans-Serif" font-size="10.00" fill="#000000">string.h</text>
</g>
<!-- Node0&#45;&gt;Node8 -->
<g id="edge8" class="edge">
<title>Node0&#45;&gt;Node8</title>
<path fill="none" stroke="#191970" d="M698.815,-114.7805C657.9534,-102.6128 605.5971,-87.0222 571.2142,-76.7838"/>
<polygon fill="#191970" stroke="#191970" points="572.169,-73.4163 561.5859,-73.9167 570.1712,-80.1251 572.169,-73.4163"/>
</g>
<!-- Node9 -->
<g id="node10" class="node">
<title>Node9</title>
<polygon fill="none" stroke="#bfbfbf" points="579.5,-56.5 579.5,-75.5 626.5,-75.5 626.5,-56.5 579.5,-56.5"/>
<text text-anchor="middle" x="603" y="-63.5" font-family="Helvetica,sans-Serif" font-size="10.00" fill="#000000">fcntl.h</text>
</g>
<!-- Node0&#45;&gt;Node9 -->
<g id="edge9" class="edge">
<title>Node0&#45;&gt;Node9</title>
<path fill="none" stroke="#191970" d="M711.6138,-112.3511C686.6558,-101.7003 656.9111,-89.0066 634.8647,-79.5983"/>
<polygon fill="#191970" stroke="#191970" points="636.1948,-76.3606 625.6236,-75.6546 633.4473,-82.7989 636.1948,-76.3606"/>
</g>
<!-- Node10 -->
<g id="node11" class="node">
<title>Node10</title>
<polygon fill="none" stroke="#bfbfbf" points="645,-56.5 645,-75.5 709,-75.5 709,-56.5 645,-56.5"/>
<text text-anchor="middle" x="677" y="-63.5" font-family="Helvetica,sans-Serif" font-size="10.00" fill="#000000">sys/stat.h</text>
</g>
<!-- Node0&#45;&gt;Node10 -->
<g id="edge10" class="edge">
<title>Node0&#45;&gt;Node10</title>
<path fill="none" stroke="#191970" d="M734.1933,-112.168C722.2101,-102.4949 708.1797,-91.1692 697.0144,-82.1562"/>
<polygon fill="#191970" stroke="#191970" points="699.0957,-79.3383 689.1161,-75.7805 694.6989,-84.7851 699.0957,-79.3383"/>
</g>
<!-- Node11 -->
<g id="node12" class="node">
<title>Node11</title>
<polygon fill="none" stroke="#bfbfbf" points="727,-56.5 727,-75.5 793,-75.5 793,-56.5 727,-56.5"/>
<text text-anchor="middle" x="760" y="-63.5" font-family="Helvetica,sans-Serif" font-size="10.00" fill="#000000">sys/wait.h</text>
</g>
<!-- Node0&#45;&gt;Node11 -->
<g id="edge11" class="edge">
<title>Node0&#45;&gt;Node11</title>
<path fill="none" stroke="#191970" d="M760,-112.168C760,-103.8226 760,-94.2471 760,-85.9879"/>
<polygon fill="#191970" stroke="#191970" points="763.5001,-85.7804 760,-75.7805 756.5001,-85.7805 763.5001,-85.7804"/>
</g>
<!-- Node12 -->
<g id="node13" class="node">
<title>Node12</title>
<polygon fill="none" stroke="#bfbfbf" points="811,-56.5 811,-75.5 877,-75.5 877,-56.5 811,-56.5"/>
<text text-anchor="middle" x="844" y="-63.5" font-family="Helvetica,sans-Serif" font-size="10.00" fill="#000000">sys/msg.h</text>
</g>
<!-- Node0&#45;&gt;Node12 -->
<g id="edge12" class="edge">
<title>Node0&#45;&gt;Node12</title>
<path fill="none" stroke="#191970" d="M786.1177,-112.168C798.2452,-102.4949 812.4446,-91.1692 823.7444,-82.1562"/>
<polygon fill="#191970" stroke="#191970" points="826.1026,-84.7523 831.7379,-75.7805 821.7377,-79.2799 826.1026,-84.7523"/>
</g>
<!-- Node13 -->
<g id="node14" class="node">
<title>Node13</title>
<g id="a_node14"><a xlink:href="defines_8h.html" target="_top" xlink:title="Contiene la definizioni di variabili e funzioni specifiche del progetto. ">
<polygon fill="none" stroke="#000000" points="895.5,-56.5 895.5,-75.5 956.5,-75.5 956.5,-56.5 895.5,-56.5"/>
<text text-anchor="middle" x="926" y="-63.5" font-family="Helvetica,sans-Serif" font-size="10.00" fill="#000000">defines.h</text>
</a>
</g>
</g>
<!-- Node0&#45;&gt;Node13 -->
<g id="edge13" class="edge">
<title>Node0&#45;&gt;Node13</title>
<path fill="none" stroke="#191970" d="M811.16,-112.3511C837.667,-101.6525 869.2806,-88.8928 892.6217,-79.472"/>
<polygon fill="#191970" stroke="#191970" points="894.1164,-82.6431 902.0796,-75.6546 891.4964,-76.1519 894.1164,-82.6431"/>
</g>
<!-- Node16 -->
<g id="node17" class="node">
<title>Node16</title>
<g id="a_node17"><a xlink:href="err__exit_8h.html" target="_top" xlink:title="Contiene la definizione della funzione di stampa degli errori. ">
<polygon fill="none" stroke="#000000" points="974.5,-56.5 974.5,-75.5 1037.5,-75.5 1037.5,-56.5 974.5,-56.5"/>
<text text-anchor="middle" x="1006" y="-63.5" font-family="Helvetica,sans-Serif" font-size="10.00" fill="#000000">err_exit.h</text>
</a>
</g>
</g>
<!-- Node0&#45;&gt;Node16 -->
<g id="edge16" class="edge">
<title>Node0&#45;&gt;Node16</title>
<path fill="none" stroke="#191970" d="M821.1251,-116.3521C865.8936,-104.1591 925.4494,-87.9386 964.7156,-77.2441"/>
<polygon fill="#191970" stroke="#191970" points="965.7567,-80.5881 974.4855,-74.5832 963.9172,-73.8342 965.7567,-80.5881"/>
</g>
<!-- Node17 -->
<g id="node18" class="node">
<title>Node17</title>
<g id="a_node18"><a xlink:href="signals_8h.html" target="_top" xlink:title="Contiene la definizioni di variabili e funzioni specifiche per la gestione dei SEGNALI. ">
<polygon fill="none" stroke="#000000" points="1056,-56.5 1056,-75.5 1116,-75.5 1116,-56.5 1056,-56.5"/>
<text text-anchor="middle" x="1086" y="-63.5" font-family="Helvetica,sans-Serif" font-size="10.00" fill="#000000">signals.h</text>
</a>
</g>
</g>
<!-- Node0&#45;&gt;Node17 -->
<g id="edge17" class="edge">
<title>Node0&#45;&gt;Node17</title>
<path fill="none" stroke="#191970" d="M821.2709,-121.675C879.3052,-110.7389 968.8131,-93.3295 1046,-76 1046.1004,-75.9775 1046.2009,-75.9549 1046.3016,-75.9322"/>
<polygon fill="#191970" stroke="#191970" points="1046.9543,-79.374 1055.8961,-73.6913 1045.3621,-72.5575 1046.9543,-79.374"/>
</g>
<!-- Node18 -->
<g id="node19" class="node">
<title>Node18</title>
<g id="a_node19"><a xlink:href="files_8h.html" target="_top" xlink:title="Contiene la definizioni di variabili e funzioni specifiche per la gestione dei FILE. ">
<polygon fill="none" stroke="#000000" points="1134,-56.5 1134,-75.5 1180,-75.5 1180,-56.5 1134,-56.5"/>
<text text-anchor="middle" x="1157" y="-63.5" font-family="Helvetica,sans-Serif" font-size="10.00" fill="#000000">files.h</text>
</a>
</g>
</g>
<!-- Node0&#45;&gt;Node18 -->
<g id="edge18" class="edge">
<title>Node0&#45;&gt;Node18</title>
<path fill="none" stroke="#191970" d="M821.2378,-126.2465C892.044,-117.8119 1012.1428,-101.5811 1123.6226,-76.0582"/>
<polygon fill="#191970" stroke="#191970" points="1124.7411,-79.3917 1133.6912,-73.7218 1123.1588,-72.5729 1124.7411,-79.3917"/>
</g>
<!-- Node19 -->
<g id="node20" class="node">
<title>Node19</title>
<g id="a_node20"><a xlink:href="client_8h.html" target="_top" xlink:title="Contiene la definizioni di variabili e funzioni specifiche del CLIENT. ">
<polygon fill="none" stroke="#000000" points="1198.5,-56.5 1198.5,-75.5 1251.5,-75.5 1251.5,-56.5 1198.5,-56.5"/>
<text text-anchor="middle" x="1225" y="-63.5" font-family="Helvetica,sans-Serif" font-size="10.00" fill="#000000">client.h</text>
</a>
</g>
</g>
<!-- Node0&#45;&gt;Node19 -->
<g id="edge19" class="edge">
<title>Node0&#45;&gt;Node19</title>
<path fill="none" stroke="#191970" d="M821.1864,-127.5684C902.8577,-119.7206 1052.0562,-103.2989 1188.5587,-75.8391"/>
<polygon fill="#191970" stroke="#191970" points="1189.2631,-79.2676 1198.3638,-73.8429 1187.8666,-72.4083 1189.2631,-79.2676"/>
</g>
<!-- Node20 -->
<g id="node21" class="node">
<title>Node20</title>
<g id="a_node21"><a xlink:href="semaphore_8h.html" target="_top" xlink:title="Contiene la definizioni di variabili e funzioni specifiche per la gestione dei SEMAFORI. ">
<polygon fill="none" stroke="#000000" points="1270,-56.5 1270,-75.5 1350,-75.5 1350,-56.5 1270,-56.5"/>
<text text-anchor="middle" x="1310" y="-63.5" font-family="Helvetica,sans-Serif" font-size="10.00" fill="#000000">semaphore.h</text>
</a>
</g>
</g>
<!-- Node0&#45;&gt;Node20 -->
<g id="edge20" class="edge">
<title>Node0&#45;&gt;Node20</title>
<path fill="none" stroke="#191970" d="M821.1603,-127.7913C913.8397,-119.5125 1095.5629,-101.774 1259.658,-76.0976"/>
<polygon fill="#191970" stroke="#191970" points="1260.609,-79.4909 1269.9409,-74.4744 1259.5175,-72.5765 1260.609,-79.4909"/>
</g>
<!-- Node21 -->
<g id="node22" class="node">
<title>Node21</title>
<g id="a_node22"><a xlink:href="shared__memory_8h.html" target="_top" xlink:title="Contiene la definizioni di variabili e funzioni specifiche per la gestione della MEMORIA CONDIVISA...">
<polygon fill="none" stroke="#000000" points="1368,-56.5 1368,-75.5 1472,-75.5 1472,-56.5 1368,-56.5"/>
<text text-anchor="middle" x="1420" y="-63.5" font-family="Helvetica,sans-Serif" font-size="10.00" fill="#000000">shared_memory.h</text>
</a>
</g>
</g>
<!-- Node0&#45;&gt;Node21 -->
<g id="edge21" class="edge">
<title>Node0&#45;&gt;Node21</title>
<path fill="none" stroke="#191970" d="M821.3767,-128.537C928.2156,-120.4665 1155.4897,-101.9637 1357.5781,-76.1127"/>
<polygon fill="#191970" stroke="#191970" points="1358.3198,-79.5461 1367.7907,-74.7972 1357.4255,-72.6035 1358.3198,-79.5461"/>
</g>
<!-- Node22 -->
<g id="node23" class="node">
<title>Node22</title>
<g id="a_node23"><a xlink:href="fifo_8h.html" target="_top" xlink:title="Contiene la definizioni di variabili e funzioni specifiche per la gestione delle FIFO. ">
<polygon fill="none" stroke="#000000" points="1490.5,-56.5 1490.5,-75.5 1531.5,-75.5 1531.5,-56.5 1490.5,-56.5"/>
<text text-anchor="middle" x="1511" y="-63.5" font-family="Helvetica,sans-Serif" font-size="10.00" fill="#000000">fifo.h</text>
</a>
</g>
</g>
<!-- Node0&#45;&gt;Node22 -->
<g id="edge23" class="edge">
<title>Node0&#45;&gt;Node22</title>
<path fill="none" stroke="#191970" d="M821.0711,-130.0821C967.7086,-122.7758 1337.4555,-102.4971 1480.3084,-75.6015"/>
<polygon fill="#191970" stroke="#191970" points="1481.0606,-79.0206 1490.1955,-73.6536 1479.7075,-72.1526 1481.0606,-79.0206"/>
</g>
<!-- Node23 -->
<g id="node24" class="node">
<title>Node23</title>
<g id="a_node24"><a xlink:href="debug_8h.html" target="_top" xlink:title="Contiene la definizioni di variabili e funzioni per il debugging. ">
<polygon fill="none" stroke="#000000" points="1550,-56.5 1550,-75.5 1606,-75.5 1606,-56.5 1550,-56.5"/>
<text text-anchor="middle" x="1578" y="-63.5" font-family="Helvetica,sans-Serif" font-size="10.00" fill="#000000">debug.h</text>
</a>
</g>
</g>
<!-- Node0&#45;&gt;Node23 -->
<g id="edge24" class="edge">
<title>Node0&#45;&gt;Node23</title>
<path fill="none" stroke="#191970" d="M821.0742,-130.0555C976.2586,-122.3367 1383.8372,-100.5235 1539.5157,-75.9068"/>
<polygon fill="#191970" stroke="#191970" points="1540.5437,-79.2847 1549.8417,-74.2057 1539.4057,-72.3778 1540.5437,-79.2847"/>
</g>
<!-- Node14 -->
<g id="node15" class="node">
<title>Node14</title>
<polygon fill="none" stroke="#bfbfbf" points="1179,-.5 1179,-19.5 1251,-19.5 1251,-.5 1179,-.5"/>
<text text-anchor="middle" x="1215" y="-7.5" font-family="Helvetica,sans-Serif" font-size="10.00" fill="#000000">sys/types.h</text>
</g>
<!-- Node13&#45;&gt;Node14 -->
<g id="edge14" class="edge">
<title>Node13&#45;&gt;Node14</title>
<path fill="none" stroke="#191970" d="M956.6091,-57.9388C959.4398,-57.2576 962.2693,-56.6006 965,-56 1035.7674,-40.4361 1118.5959,-25.9145 1168.9047,-17.5004"/>
<polygon fill="#191970" stroke="#191970" points="1169.535,-20.9437 1178.825,-15.85 1168.3861,-14.0386 1169.535,-20.9437"/>
</g>
<!-- Node15 -->
<g id="node16" class="node">
<title>Node15</title>
<polygon fill="none" stroke="#bfbfbf" points="896.5,-.5 896.5,-19.5 955.5,-19.5 955.5,-.5 896.5,-.5"/>
<text text-anchor="middle" x="926" y="-7.5" font-family="Helvetica,sans-Serif" font-size="10.00" fill="#000000">sys/ipc.h</text>
</g>
<!-- Node13&#45;&gt;Node15 -->
<g id="edge15" class="edge">
<title>Node13&#45;&gt;Node15</title>
<path fill="none" stroke="#191970" d="M926,-56.2455C926,-48.9382 926,-38.6944 926,-29.7046"/>
<polygon fill="#191970" stroke="#191970" points="929.5001,-29.6426 926,-19.6427 922.5001,-29.6427 929.5001,-29.6426"/>
</g>
<!-- Node21&#45;&gt;Node14 -->
<g id="edge22" class="edge">
<title>Node21&#45;&gt;Node14</title>
<path fill="none" stroke="#191970" d="M1384.7592,-56.3733C1350.0806,-46.9001 1297.0117,-32.4032 1259.4538,-22.1435"/>
<polygon fill="#191970" stroke="#191970" points="1260.3498,-18.7601 1249.7809,-19.5011 1258.5051,-25.5126 1260.3498,-18.7601"/>
</g>
</g>
</svg>
