<?xml version="1.0" encoding="UTF-8" standalone="no"?>
<!DOCTYPE svg PUBLIC "-//W3C//DTD SVG 1.1//EN"
 "http://www.w3.org/Graphics/SVG/1.1/DTD/svg11.dtd">
<!-- Generated by graphviz version 2.40.1 (20161225.0304)
 -->
<!-- Title: /mnt/c/Users/stefa/Desktop/progetti/system_call/src/client.c Pages: 1 -->
<!--zoomable 162 -->
<svg id="main" version="1.1" xmlns="http://www.w3.org/2000/svg" xmlns:xlink="http://www.w3.org/1999/xlink" xml:space="preserve" onload="init(evt)">
<style type="text/css"><![CDATA[
.edge:hover path { stroke: red; }
.edge:hover polygon { stroke: red; fill: red; }
]]></style>
<script type="text/javascript"><![CDATA[
var edges = document.getElementsByTagName('g');
if (edges && edges.length) {
  for (var i=0;i<edges.length;i++) {
    if (edges[i].id.substr(0,4)=='edge') {
      edges[i].setAttribute('class','edge');
    }
  }
}
]]></script>
        <defs>
                <circle id="rim" cx="0" cy="0" r="7"/>
                <circle id="rim2" cx="0" cy="0" r="3.5"/>
                <g id="zoomPlus">
                        <use xlink:href="#rim" fill="#404040">
                                <set attributeName="fill" to="#808080" begin="zoomplus.mouseover" end="zoomplus.mouseout"/>
                        </use>
                        <path d="M-4,0h8M0,-4v8" fill="none" stroke="white" stroke-width="1.5" pointer-events="none"/>
                </g>
                <g id="zoomMin">
                        <use xlink:href="#rim" fill="#404040">
                                <set attributeName="fill" to="#808080" begin="zoomminus.mouseover" end="zoomminus.mouseout"/>
                        </use>
                        <path d="M-4,0h8" fill="none" stroke="white" stroke-width="1.5" pointer-events="none"/>
                </g>
                <g id="dirArrow">
                        <path fill="none" stroke="white" stroke-width="1.5" d="M0,-3.0v7 M-2.5,-0.5L0,-3.0L2.5,-0.5"/>
                </g>
               <g id="resetDef">
                       <use xlink:href="#rim2" fill="#404040">
                               <set attributeName="fill" to="#808080" begin="reset.mouseover" end="reset.mouseout"/>
                       </use>
               </g>
        </defs>

<script type="text/javascript">
var viewWidth = 1524;
var viewHeight = 162;
var sectionId = 'dynsection-0';
</script>
<script xlink:href="svgpan.js"/>
<svg id="graph" class="graph">
<g id="viewport">
<title>/mnt/c/Users/stefa/Desktop/progetti/system_call/src/client.c</title>
<!-- Node0 -->
<g id="node1" class="node">
<title>Node0</title>
<polygon fill="#bfbfbf" stroke="#000000" points="650,-112.5 650,-153.5 790,-153.5 790,-112.5 650,-112.5"/>
<text text-anchor="start" x="658" y="-141.5" font-family="Helvetica,sans-Serif" font-size="10.00" fill="#000000">/mnt/c/Users/stefa</text>
<text text-anchor="start" x="658" y="-130.5" font-family="Helvetica,sans-Serif" font-size="10.00" fill="#000000">/Desktop/progetti/system</text>
<text text-anchor="middle" x="720" y="-119.5" font-family="Helvetica,sans-Serif" font-size="10.00" fill="#000000">_call/src/client.c</text>
</g>
<!-- Node1 -->
<g id="node2" class="node">
<title>Node1</title>
<polygon fill="none" stroke="#bfbfbf" points="0,-.5 0,-19.5 50,-19.5 50,-.5 0,-.5"/>
<text text-anchor="middle" x="25" y="-7.5" font-family="Helvetica,sans-Serif" font-size="10.00" fill="#000000">stdio.h</text>
</g>
<!-- Node0&#45;&gt;Node1 -->
<g id="edge1" class="edge">
<title>Node0&#45;&gt;Node1</title>
<path fill="none" stroke="#191970" d="M649.9714,-131.5853C486.2736,-127.6505 88.9186,-114.2291 43,-76 29.7621,-64.9789 25.7464,-45.2624 24.7522,-30.2401"/>
<polygon fill="#191970" stroke="#191970" points="28.2417,-29.7931 24.4784,-19.8892 21.2442,-29.9783 28.2417,-29.7931"/>
</g>
<!-- Node2 -->
<g id="node3" class="node">
<title>Node2</title>
<polygon fill="none" stroke="#bfbfbf" points="140,-.5 140,-19.5 202,-19.5 202,-.5 140,-.5"/>
<text text-anchor="middle" x="171" y="-7.5" font-family="Helvetica,sans-Serif" font-size="10.00" fill="#000000">stdbool.h</text>
</g>
<!-- Node0&#45;&gt;Node2 -->
<g id="edge2" class="edge">
<title>Node0&#45;&gt;Node2</title>
<path fill="none" stroke="#191970" d="M649.9234,-129.6013C514.6829,-122.4421 227.8847,-104.1174 193,-76 179.3615,-65.0073 174.1152,-45.2869 172.1296,-30.256"/>
<polygon fill="#191970" stroke="#191970" points="175.577,-29.5291 171.1618,-19.8981 168.6074,-30.1804 175.577,-29.5291"/>
</g>
<!-- Node3 -->
<g id="node4" class="node">
<title>Node3</title>
<polygon fill="none" stroke="#bfbfbf" points="404,-56.5 404,-75.5 460,-75.5 460,-56.5 404,-56.5"/>
<text text-anchor="middle" x="432" y="-63.5" font-family="Helvetica,sans-Serif" font-size="10.00" fill="#000000">unistd.h</text>
</g>
<!-- Node0&#45;&gt;Node3 -->
<g id="edge3" class="edge">
<title>Node0&#45;&gt;Node3</title>
<path fill="none" stroke="#191970" d="M649.8086,-117.6491C599.6196,-106.5136 530.5259,-90.8596 470,-76 469.9006,-75.9756 469.8011,-75.9511 469.7015,-75.9266"/>
<polygon fill="#191970" stroke="#191970" points="470.7473,-72.5808 460.1952,-73.5309 469.0367,-79.3686 470.7473,-72.5808"/>
</g>
<!-- Node4 -->
<g id="node5" class="node">
<title>Node4</title>
<polygon fill="none" stroke="#bfbfbf" points="478.5,-56.5 478.5,-75.5 533.5,-75.5 533.5,-56.5 478.5,-56.5"/>
<text text-anchor="middle" x="506" y="-63.5" font-family="Helvetica,sans-Serif" font-size="10.00" fill="#000000">signal.h</text>
</g>
<!-- Node0&#45;&gt;Node4 -->
<g id="edge4" class="edge">
<title>Node0&#45;&gt;Node4</title>
<path fill="none" stroke="#191970" d="M654.3386,-112.4425C617.9114,-101.0377 573.9307,-87.268 543.3594,-77.6966"/>
<polygon fill="#191970" stroke="#191970" points="544.1251,-74.2689 533.5361,-74.6211 542.0335,-80.9491 544.1251,-74.2689"/>
</g>
<!-- Node5 -->
<g id="node6" class="node">
<title>Node5</title>
<polygon fill="none" stroke="#bfbfbf" points="552,-56.5 552,-75.5 606,-75.5 606,-56.5 552,-56.5"/>
<text text-anchor="middle" x="579" y="-63.5" font-family="Helvetica,sans-Serif" font-size="10.00" fill="#000000">dirent.h</text>
</g>
<!-- Node0&#45;&gt;Node5 -->
<g id="edge5" class="edge">
<title>Node0&#45;&gt;Node5</title>
<path fill="none" stroke="#191970" d="M676.5448,-112.3511C654.4319,-101.8435 628.1349,-89.3478 608.4202,-79.9798"/>
<polygon fill="#191970" stroke="#191970" points="609.8523,-76.7853 599.318,-75.6546 606.848,-83.1078 609.8523,-76.7853"/>
</g>
<!-- Node6 -->
<g id="node7" class="node">
<title>Node6</title>
<polygon fill="none" stroke="#bfbfbf" points="624.5,-56.5 624.5,-75.5 675.5,-75.5 675.5,-56.5 624.5,-56.5"/>
<text text-anchor="middle" x="650" y="-63.5" font-family="Helvetica,sans-Serif" font-size="10.00" fill="#000000">errno.h</text>
</g>
<!-- Node0&#45;&gt;Node6 -->
<g id="edge6" class="edge">
<title>Node0&#45;&gt;Node6</title>
<path fill="none" stroke="#191970" d="M698.2353,-112.168C688.4262,-102.7794 676.9907,-91.834 667.7167,-82.9574"/>
<polygon fill="#191970" stroke="#191970" points="669.8627,-80.1666 660.2184,-75.7805 665.0225,-85.2235 669.8627,-80.1666"/>
</g>
<!-- Node7 -->
<g id="node8" class="node">
<title>Node7</title>
<polygon fill="none" stroke="#bfbfbf" points="68.5,-.5 68.5,-19.5 121.5,-19.5 121.5,-.5 68.5,-.5"/>
<text text-anchor="middle" x="95" y="-7.5" font-family="Helvetica,sans-Serif" font-size="10.00" fill="#000000">stdlib.h</text>
</g>
<!-- Node0&#45;&gt;Node7 -->
<g id="edge7" class="edge">
<title>Node0&#45;&gt;Node7</title>
<path fill="none" stroke="#191970" d="M649.7905,-130.6164C522.7148,-125.4868 259.9571,-110.9095 176,-76 149.7557,-65.0876 125.2935,-42.8085 110.2636,-27.1649"/>
<polygon fill="#191970" stroke="#191970" points="112.6782,-24.6219 103.3041,-19.6845 107.5532,-29.39 112.6782,-24.6219"/>
</g>
<!-- Node8 -->
<g id="node9" class="node">
<title>Node8</title>
<polygon fill="none" stroke="#bfbfbf" points="693.5,-56.5 693.5,-75.5 746.5,-75.5 746.5,-56.5 693.5,-56.5"/>
<text text-anchor="middle" x="720" y="-63.5" font-family="Helvetica,sans-Serif" font-size="10.00" fill="#000000">string.h</text>
</g>
<!-- Node0&#45;&gt;Node8 -->
<g id="edge8" class="edge">
<title>Node0&#45;&gt;Node8</title>
<path fill="none" stroke="#191970" d="M720,-112.168C720,-103.8226 720,-94.2471 720,-85.9879"/>
<polygon fill="#191970" stroke="#191970" points="723.5001,-85.7804 720,-75.7805 716.5001,-85.7805 723.5001,-85.7804"/>
</g>
<!-- Node9 -->
<g id="node10" class="node">
<title>Node9</title>
<polygon fill="none" stroke="#bfbfbf" points="764.5,-56.5 764.5,-75.5 811.5,-75.5 811.5,-56.5 764.5,-56.5"/>
<text text-anchor="middle" x="788" y="-63.5" font-family="Helvetica,sans-Serif" font-size="10.00" fill="#000000">fcntl.h</text>
</g>
<!-- Node0&#45;&gt;Node9 -->
<g id="edge9" class="edge">
<title>Node0&#45;&gt;Node9</title>
<path fill="none" stroke="#191970" d="M741.1429,-112.168C750.6716,-102.7794 761.7805,-91.834 770.7895,-82.9574"/>
<polygon fill="#191970" stroke="#191970" points="773.4068,-85.2921 778.0736,-75.7805 768.4938,-80.3058 773.4068,-85.2921"/>
</g>
<!-- Node10 -->
<g id="node11" class="node">
<title>Node10</title>
<polygon fill="none" stroke="#bfbfbf" points="830,-56.5 830,-75.5 894,-75.5 894,-56.5 830,-56.5"/>
<text text-anchor="middle" x="862" y="-63.5" font-family="Helvetica,sans-Serif" font-size="10.00" fill="#000000">sys/stat.h</text>
</g>
<!-- Node0&#45;&gt;Node10 -->
<g id="edge10" class="edge">
<title>Node0&#45;&gt;Node10</title>
<path fill="none" stroke="#191970" d="M763.7634,-112.3511C786.0331,-101.8435 812.5166,-89.3478 832.3712,-79.9798"/>
<polygon fill="#191970" stroke="#191970" points="833.9876,-83.0872 841.5379,-75.6546 831.0005,-76.7565 833.9876,-83.0872"/>
</g>
<!-- Node11 -->
<g id="node12" class="node">
<title>Node11</title>
<polygon fill="none" stroke="#bfbfbf" points="912,-56.5 912,-75.5 978,-75.5 978,-56.5 912,-56.5"/>
<text text-anchor="middle" x="945" y="-63.5" font-family="Helvetica,sans-Serif" font-size="10.00" fill="#000000">sys/wait.h</text>
</g>
<!-- Node0&#45;&gt;Node11 -->
<g id="edge11" class="edge">
<title>Node0&#45;&gt;Node11</title>
<path fill="none" stroke="#191970" d="M789.0365,-112.4425C826.337,-101.3352 871.1703,-87.9848 903.1763,-78.4542"/>
<polygon fill="#191970" stroke="#191970" points="904.5062,-81.7101 913.0914,-75.5017 902.5084,-75.0012 904.5062,-81.7101"/>
</g>
<!-- Node12 -->
<g id="node13" class="node">
<title>Node12</title>
<polygon fill="none" stroke="#bfbfbf" points="996,-56.5 996,-75.5 1062,-75.5 1062,-56.5 996,-56.5"/>
<text text-anchor="middle" x="1029" y="-63.5" font-family="Helvetica,sans-Serif" font-size="10.00" fill="#000000">sys/msg.h</text>
</g>
<!-- Node0&#45;&gt;Node12 -->
<g id="edge12" class="edge">
<title>Node0&#45;&gt;Node12</title>
<path fill="none" stroke="#191970" d="M790.088,-118.5053C841.577,-107.7489 913.4953,-92.501 985.4017,-76.3277"/>
<polygon fill="#191970" stroke="#191970" points="986.5609,-79.6543 995.5458,-74.0399 985.0207,-72.8258 986.5609,-79.6543"/>
</g>
<!-- Node13 -->
<g id="node14" class="node">
<title>Node13</title>
<g id="a_node14"><a xlink:href="defines_8h.html" target="_top" xlink:title="Contiene la definizioni di variabili e funzioni specifiche del progetto. ">
<polygon fill="none" stroke="#000000" points="202.5,-56.5 202.5,-75.5 263.5,-75.5 263.5,-56.5 202.5,-56.5"/>
<text text-anchor="middle" x="233" y="-63.5" font-family="Helvetica,sans-Serif" font-size="10.00" fill="#000000">defines.h</text>
</a>
</g>
</g>
<!-- Node0&#45;&gt;Node13 -->
<g id="edge13" class="edge">
<title>Node0&#45;&gt;Node13</title>
<path fill="none" stroke="#191970" d="M649.9168,-126.65C563.6371,-118.2542 412.5318,-101.6722 273.889,-75.9814"/>
<polygon fill="#191970" stroke="#191970" points="274.4028,-72.5168 263.9293,-74.1159 273.114,-79.3972 274.4028,-72.5168"/>
</g>
<!-- Node16 -->
<g id="node17" class="node">
<title>Node16</title>
<g id="a_node17"><a xlink:href="err__exit_8h.html" target="_top" xlink:title="Contiene la definizione della funzione di stampa degli errori. ">
<polygon fill="none" stroke="#000000" points="1080.5,-56.5 1080.5,-75.5 1143.5,-75.5 1143.5,-56.5 1080.5,-56.5"/>
<text text-anchor="middle" x="1112" y="-63.5" font-family="Helvetica,sans-Serif" font-size="10.00" fill="#000000">err_exit.h</text>
</a>
</g>
</g>
<!-- Node0&#45;&gt;Node16 -->
<g id="edge17" class="edge">
<title>Node0&#45;&gt;Node16</title>
<path fill="none" stroke="#191970" d="M790.2185,-123.2482C859.0652,-113.3121 967.178,-96.7125 1070.3076,-76.0143"/>
<polygon fill="#191970" stroke="#191970" points="1071.1636,-79.4121 1080.2709,-73.9985 1069.7754,-72.5511 1071.1636,-79.4121"/>
</g>
<!-- Node17 -->
<g id="node18" class="node">
<title>Node17</title>
<g id="a_node18"><a xlink:href="signals_8h.html" target="_top" xlink:title="Contiene la definizioni di variabili e funzioni specifiche per la gestione dei SEGNALI. ">
<polygon fill="none" stroke="#000000" points="1162,-56.5 1162,-75.5 1222,-75.5 1222,-56.5 1162,-56.5"/>
<text text-anchor="middle" x="1192" y="-63.5" font-family="Helvetica,sans-Serif" font-size="10.00" fill="#000000">signals.h</text>
</a>
</g>
</g>
<!-- Node0&#45;&gt;Node17 -->
<g id="edge18" class="edge">
<title>Node0&#45;&gt;Node17</title>
<path fill="none" stroke="#191970" d="M790.1608,-126.383C874.0485,-117.8852 1018.7903,-101.3668 1151.8788,-76.0314"/>
<polygon fill="#191970" stroke="#191970" points="1152.6891,-79.4398 1161.8474,-74.1128 1151.3661,-72.5659 1152.6891,-79.4398"/>
</g>
<!-- Node18 -->
<g id="node19" class="node">
<title>Node18</title>
<g id="a_node19"><a xlink:href="files_8h.html" target="_top" xlink:title="Contiene la definizioni di variabili e funzioni specifiche per la gestione dei FILE. ">
<polygon fill="none" stroke="#000000" points="1240,-56.5 1240,-75.5 1286,-75.5 1286,-56.5 1240,-56.5"/>
<text text-anchor="middle" x="1263" y="-63.5" font-family="Helvetica,sans-Serif" font-size="10.00" fill="#000000">files.h</text>
</a>
</g>
</g>
<!-- Node0&#45;&gt;Node18 -->
<g id="edge19" class="edge">
<title>Node0&#45;&gt;Node18</title>
<path fill="none" stroke="#191970" d="M790.0999,-129.4442C887.1616,-123.5786 1067.8943,-109.2576 1229.5877,-75.9593"/>
<polygon fill="#191970" stroke="#191970" points="1230.6452,-79.3141 1239.718,-73.8428 1229.2135,-72.462 1230.6452,-79.3141"/>
</g>
<!-- Node19 -->
<g id="node20" class="node">
<title>Node19</title>
<g id="a_node20"><a xlink:href="client_8h.html" target="_top" xlink:title="Contiene la definizioni di variabili e funzioni specifiche del CLIENT. ">
<polygon fill="none" stroke="#000000" points="1304.5,-56.5 1304.5,-75.5 1357.5,-75.5 1357.5,-56.5 1304.5,-56.5"/>
<text text-anchor="middle" x="1331" y="-63.5" font-family="Helvetica,sans-Serif" font-size="10.00" fill="#000000">client.h</text>
</a>
</g>
</g>
<!-- Node0&#45;&gt;Node19 -->
<g id="edge20" class="edge">
<title>Node0&#45;&gt;Node19</title>
<path fill="none" stroke="#191970" d="M790.0283,-129.9478C896.9396,-124.4317 1107.2385,-110.2119 1294.3621,-75.8097"/>
<polygon fill="#191970" stroke="#191970" points="1295.1933,-79.2152 1304.3836,-73.9436 1293.9118,-72.3335 1295.1933,-79.2152"/>
</g>
<!-- Node20 -->
<g id="node21" class="node">
<title>Node20</title>
<g id="a_node21"><a xlink:href="semaphore_8h.html" target="_top" xlink:title="Contiene la definizioni di variabili e funzioni specifiche per la gestione dei SEMAFORI. ">
<polygon fill="none" stroke="#000000" points="1376,-56.5 1376,-75.5 1456,-75.5 1456,-56.5 1376,-56.5"/>
<text text-anchor="middle" x="1416" y="-63.5" font-family="Helvetica,sans-Serif" font-size="10.00" fill="#000000">semaphore.h</text>
</a>
</g>
</g>
<!-- Node0&#45;&gt;Node20 -->
<g id="edge21" class="edge">
<title>Node0&#45;&gt;Node20</title>
<path fill="none" stroke="#191970" d="M790.1943,-129.4314C907.4854,-122.8935 1150.8268,-106.8782 1366.0506,-75.9927"/>
<polygon fill="#191970" stroke="#191970" points="1366.5588,-79.4557 1375.9537,-74.5581 1365.5551,-72.528 1366.5588,-79.4557"/>
</g>
<!-- Node21 -->
<g id="node22" class="node">
<title>Node21</title>
<g id="a_node22"><a xlink:href="shared__memory_8h.html" target="_top" xlink:title="Contiene la definizioni di variabili e funzioni specifiche per la gestione della MEMORIA CONDIVISA...">
<polygon fill="none" stroke="#000000" points="282,-56.5 282,-75.5 386,-75.5 386,-56.5 282,-56.5"/>
<text text-anchor="middle" x="334" y="-63.5" font-family="Helvetica,sans-Serif" font-size="10.00" fill="#000000">shared_memory.h</text>
</a>
</g>
</g>
<!-- Node0&#45;&gt;Node21 -->
<g id="edge22" class="edge">
<title>Node0&#45;&gt;Node21</title>
<path fill="none" stroke="#191970" d="M649.6505,-120.7891C577.2133,-108.2158 465.4176,-88.8108 396.1412,-76.7862"/>
<polygon fill="#191970" stroke="#191970" points="396.6897,-73.3291 386.2384,-75.0673 395.4925,-80.226 396.6897,-73.3291"/>
</g>
<!-- Node22 -->
<g id="node23" class="node">
<title>Node22</title>
<g id="a_node23"><a xlink:href="fifo_8h.html" target="_top" xlink:title="Contiene la definizioni di variabili e funzioni specifiche per la gestione delle FIFO. ">
<polygon fill="none" stroke="#000000" points="1474.5,-56.5 1474.5,-75.5 1515.5,-75.5 1515.5,-56.5 1474.5,-56.5"/>
<text text-anchor="middle" x="1495" y="-63.5" font-family="Helvetica,sans-Serif" font-size="10.00" fill="#000000">fifo.h</text>
</a>
</g>
</g>
<!-- Node0&#45;&gt;Node22 -->
<g id="edge24" class="edge">
<title>Node0&#45;&gt;Node22</title>
<path fill="none" stroke="#191970" d="M790.0945,-129.8355C946.1127,-122.4441 1319.0238,-102.7631 1464.1477,-75.6272"/>
<polygon fill="#191970" stroke="#191970" points="1465.0553,-79.0161 1474.1969,-73.6606 1463.7108,-72.1464 1465.0553,-79.0161"/>
</g>
<!-- Node23 -->
<g id="node24" class="node">
<title>Node23</title>
<g id="a_node24"><a xlink:href="debug_8h.html" target="_top" xlink:title="Contiene la definizioni di variabili e funzioni per il debugging. ">
<polygon fill="none" stroke="#000000" points="52,-56.5 52,-75.5 108,-75.5 108,-56.5 52,-56.5"/>
<text text-anchor="middle" x="80" y="-63.5" font-family="Helvetica,sans-Serif" font-size="10.00" fill="#000000">debug.h</text>
</a>
</g>
</g>
<!-- Node0&#45;&gt;Node23 -->
<g id="edge25" class="edge">
<title>Node0&#45;&gt;Node23</title>
<path fill="none" stroke="#191970" d="M649.6229,-129.4619C537.4127,-123.1104 311.3067,-107.4029 122,-76 120.7522,-75.793 119.4864,-75.5699 118.2104,-75.3336"/>
<polygon fill="#191970" stroke="#191970" points="118.857,-71.8934 108.358,-73.3153 117.4521,-78.751 118.857,-71.8934"/>
</g>
<!-- Node13&#45;&gt;Node2 -->
<g id="edge14" class="edge">
<title>Node13&#45;&gt;Node2</title>
<path fill="none" stroke="#191970" d="M222.2004,-56.2455C213.1322,-48.0549 199.9794,-36.1749 189.2755,-26.5069"/>
<polygon fill="#191970" stroke="#191970" points="191.4429,-23.7482 181.6758,-19.6427 186.7509,-28.9429 191.4429,-23.7482"/>
</g>
<!-- Node14 -->
<g id="node15" class="node">
<title>Node14</title>
<polygon fill="none" stroke="#bfbfbf" points="298,-.5 298,-19.5 370,-19.5 370,-.5 298,-.5"/>
<text text-anchor="middle" x="334" y="-7.5" font-family="Helvetica,sans-Serif" font-size="10.00" fill="#000000">sys/types.h</text>
</g>
<!-- Node13&#45;&gt;Node14 -->
<g id="edge15" class="edge">
<title>Node13&#45;&gt;Node14</title>
<path fill="none" stroke="#191970" d="M250.5929,-56.2455C266.379,-47.4928 289.7639,-34.527 307.7587,-24.5496"/>
<polygon fill="#191970" stroke="#191970" points="309.5603,-27.5528 316.6087,-19.6427 306.1659,-21.4308 309.5603,-27.5528"/>
</g>
<!-- Node15 -->
<g id="node16" class="node">
<title>Node15</title>
<polygon fill="none" stroke="#bfbfbf" points="220.5,-.5 220.5,-19.5 279.5,-19.5 279.5,-.5 220.5,-.5"/>
<text text-anchor="middle" x="250" y="-7.5" font-family="Helvetica,sans-Serif" font-size="10.00" fill="#000000">sys/ipc.h</text>
</g>
<!-- Node13&#45;&gt;Node15 -->
<g id="edge16" class="edge">
<title>Node13&#45;&gt;Node15</title>
<path fill="none" stroke="#191970" d="M235.9612,-56.2455C238.2038,-48.8579 241.3577,-38.4689 244.1081,-29.4087"/>
<polygon fill="#191970" stroke="#191970" points="247.517,-30.2282 247.0728,-19.6427 240.8188,-28.1948 247.517,-30.2282"/>
</g>
<!-- Node21&#45;&gt;Node14 -->
<g id="edge23" class="edge">
<title>Node21&#45;&gt;Node14</title>
<path fill="none" stroke="#191970" d="M334,-56.2455C334,-48.9382 334,-38.6944 334,-29.7046"/>
<polygon fill="#191970" stroke="#191970" points="337.5001,-29.6426 334,-19.6427 330.5001,-29.6427 337.5001,-29.6426"/>
</g>
<!-- Node23&#45;&gt;Node1 -->
<g id="edge26" class="edge">
<title>Node23&#45;&gt;Node1</title>
<path fill="none" stroke="#191970" d="M70.4197,-56.2455C62.4542,-48.1352 50.9359,-36.4075 41.4921,-26.7919"/>
<polygon fill="#191970" stroke="#191970" points="43.9747,-24.3247 34.4705,-19.6427 38.9805,-29.2297 43.9747,-24.3247"/>
</g>
<!-- Node23&#45;&gt;Node7 -->
<g id="edge27" class="edge">
<title>Node23&#45;&gt;Node7</title>
<path fill="none" stroke="#191970" d="M82.6128,-56.2455C84.5916,-48.8579 87.3744,-38.4689 89.8012,-29.4087"/>
<polygon fill="#191970" stroke="#191970" points="93.2105,-30.2078 92.4171,-19.6427 86.4489,-28.3966 93.2105,-30.2078"/>
</g>
</g>
</svg>
        <g id="navigator" transform="translate(0 0)" fill="#404254">
                <rect fill="#f2f5e9" fill-opacity="0.5" stroke="#606060" stroke-width=".5" x="0" y="0" width="60" height="60"/>
                <use id="zoomplus" xlink:href="#zoomPlus" x="17" y="9" onmousedown="handleZoom(evt,'in')"/>
                <use id="zoomminus" xlink:href="#zoomMin" x="42" y="9" onmousedown="handleZoom(evt,'out')"/>
                <use id="reset" xlink:href="#resetDef" x="30" y="36" onmousedown="handleReset()"/>
                <g id="arrowUp" xlink:href="#dirArrow" transform="translate(30 24)" onmousedown="handlePan(0,-1)">
                  <use xlink:href="#rim" fill="#404040">
                        <set attributeName="fill" to="#808080" begin="arrowUp.mouseover" end="arrowUp.mouseout"/>
                  </use>
                  <path fill="none" stroke="white" stroke-width="1.5" d="M0,-3.0v7 M-2.5,-0.5L0,-3.0L2.5,-0.5"/>
                </g>
                <g id="arrowRight" xlink:href="#dirArrow" transform="rotate(90) translate(36 -43)" onmousedown="handlePan(1,0)">
                  <use xlink:href="#rim" fill="#404040">
                        <set attributeName="fill" to="#808080" begin="arrowRight.mouseover" end="arrowRight.mouseout"/>
                  </use>
                  <path fill="none" stroke="white" stroke-width="1.5" d="M0,-3.0v7 M-2.5,-0.5L0,-3.0L2.5,-0.5"/>
                </g>
                <g id="arrowDown" xlink:href="#dirArrow" transform="rotate(180) translate(-30 -48)" onmousedown="handlePan(0,1)">
                  <use xlink:href="#rim" fill="#404040">
                        <set attributeName="fill" to="#808080" begin="arrowDown.mouseover" end="arrowDown.mouseout"/>
                  </use>
                  <path fill="none" stroke="white" stroke-width="1.5" d="M0,-3.0v7 M-2.5,-0.5L0,-3.0L2.5,-0.5"/>
                </g>
                <g id="arrowLeft" xlink:href="#dirArrow" transform="rotate(270) translate(-36 17)" onmousedown="handlePan(-1,0)">
                  <use xlink:href="#rim" fill="#404040">
                        <set attributeName="fill" to="#808080" begin="arrowLeft.mouseover" end="arrowLeft.mouseout"/>
                  </use>
                  <path fill="none" stroke="white" stroke-width="1.5" d="M0,-3.0v7 M-2.5,-0.5L0,-3.0L2.5,-0.5"/>
                </g>
        </g>
        <svg viewBox="0 0 15 15" width="100%" height="30px" preserveAspectRatio="xMaxYMin meet">
         <g id="arrow_out" transform="scale(0.3 0.3)">
          <a xlink:href="client_8c__incl_org.svg" target="_base">
           <rect id="button" ry="5" rx="5" y="6" x="6" height="38" width="38"
                fill="#f2f5e9" fill-opacity="0.5" stroke="#606060" stroke-width="1.0"/>
           <path id="arrow"
             d="M 11.500037,31.436501 C 11.940474,20.09759 22.043105,11.32322 32.158766,21.979434 L 37.068811,17.246167 C 37.068811,17.246167 37.088388,32 37.088388,32 L 22.160133,31.978069 C 22.160133,31.978069 26.997745,27.140456 26.997745,27.140456 C 18.528582,18.264221 13.291696,25.230495 11.500037,31.436501 z"
             style="fill:#404040;"/>
          </a>
         </g>
        </svg>
</svg>
