<?xml version="1.0" encoding="UTF-8" standalone="no"?>
<!DOCTYPE svg PUBLIC "-//W3C//DTD SVG 1.1//EN"
 "http://www.w3.org/Graphics/SVG/1.1/DTD/svg11.dtd">
<!-- Generated by graphviz version 2.40.1 (20161225.0304)
 -->
<!-- Title: SIGINTSignalHandler Pages: 1 -->
<svg width="386pt" height="124pt"
 viewBox="0.00 0.00 386.00 124.13" xmlns="http://www.w3.org/2000/svg" xmlns:xlink="http://www.w3.org/1999/xlink">
<g id="graph0" class="graph" transform="scale(1 1) rotate(0) translate(4 120.1308)">
<title>SIGINTSignalHandler</title>
<!-- Node111 -->
<g id="node1" class="node">
<title>Node111</title>
<polygon fill="#bfbfbf" stroke="#000000" points="0,-57.5 0,-76.5 118,-76.5 118,-57.5 0,-57.5"/>
<text text-anchor="middle" x="59" y="-64.5" font-family="Helvetica,sans-Serif" font-size="10.00" fill="#000000">SIGINTSignalHandler</text>
</g>
<!-- Node112 -->
<g id="node2" class="node">
<title>Node112</title>
<g id="a_node2"><a xlink:href="err__exit_8c.html#aa223b0ecfe538d130ece562646a37d27" target="_top" xlink:title="Prints the error message of the last failed system call and terminates the calling process...">
<polygon fill="none" stroke="#000000" points="329,-57.5 329,-76.5 378,-76.5 378,-57.5 329,-57.5"/>
<text text-anchor="middle" x="353.5" y="-64.5" font-family="Helvetica,sans-Serif" font-size="10.00" fill="#000000">ErrExit</text>
</a>
</g>
</g>
<!-- Node111&#45;&gt;Node112 -->
<g id="edge1" class="edge">
<title>Node111&#45;&gt;Node112</title>
<path fill="none" stroke="#191970" d="M76.9357,-76.5808C95.5822,-85.9561 125.9167,-99.5916 154,-105 214.6631,-116.6826 233.6352,-122.0971 293,-105 308.0478,-100.6662 322.9677,-91.365 334.2262,-83.0498"/>
<polygon fill="#191970" stroke="#191970" points="336.6471,-85.6015 342.4028,-76.7064 332.3563,-80.0707 336.6471,-85.6015"/>
</g>
<!-- Node113 -->
<g id="node3" class="node">
<title>Node113</title>
<g id="a_node3"><a xlink:href="shared__memory_8c.html#a6530d61365abd3e580722ed907ea5f5b" target="_top" xlink:title="Scollega la memoria condivisa dallo spazio degli indirizzi. ">
<polygon fill="none" stroke="#000000" points="163,-76.5 163,-95.5 284,-95.5 284,-76.5 163,-76.5"/>
<text text-anchor="middle" x="223.5" y="-83.5" font-family="Helvetica,sans-Serif" font-size="10.00" fill="#000000">free_shared_memory</text>
</a>
</g>
</g>
<!-- Node111&#45;&gt;Node113 -->
<g id="edge2" class="edge">
<title>Node111&#45;&gt;Node113</title>
<path fill="none" stroke="#191970" d="M118.3883,-73.8594C129.5634,-75.1502 141.3501,-76.5116 152.8298,-77.8375"/>
<polygon fill="#191970" stroke="#191970" points="152.4802,-81.3203 162.8158,-78.9909 153.2835,-74.3665 152.4802,-81.3203"/>
</g>
<!-- Node114 -->
<g id="node4" class="node">
<title>Node114</title>
<g id="a_node4"><a xlink:href="shared__memory_8c.html#a8fd9943e1b39a1f286977096e0a50d7b" target="_top" xlink:title="Elimina la memoria condivisa. ">
<polygon fill="none" stroke="#000000" points="154,-38.5 154,-57.5 293,-57.5 293,-38.5 154,-38.5"/>
<text text-anchor="middle" x="223.5" y="-45.5" font-family="Helvetica,sans-Serif" font-size="10.00" fill="#000000">remove_shared_memory</text>
</a>
</g>
</g>
<!-- Node111&#45;&gt;Node114 -->
<g id="edge4" class="edge">
<title>Node111&#45;&gt;Node114</title>
<path fill="none" stroke="#191970" d="M118.3883,-60.1406C126.6565,-59.1856 135.2596,-58.1919 143.8254,-57.2025"/>
<polygon fill="#191970" stroke="#191970" points="144.3092,-60.67 153.8415,-56.0457 143.5059,-53.7163 144.3092,-60.67"/>
</g>
<!-- Node115 -->
<g id="node5" class="node">
<title>Node115</title>
<g id="a_node5"><a xlink:href="semaphore_8c.html#a530566146b6e3cc8415d8ae4259fd68f" target="_top" xlink:title="Cancella il set di semafori svegliando eventuali processi in attesa. ">
<polygon fill="none" stroke="#000000" points="188.5,-.5 188.5,-19.5 258.5,-19.5 258.5,-.5 188.5,-.5"/>
<text text-anchor="middle" x="223.5" y="-7.5" font-family="Helvetica,sans-Serif" font-size="10.00" fill="#000000">semDelete</text>
</a>
</g>
</g>
<!-- Node111&#45;&gt;Node115 -->
<g id="edge6" class="edge">
<title>Node111&#45;&gt;Node115</title>
<path fill="none" stroke="#191970" d="M81.0009,-57.3716C100.0874,-49.2192 128.5699,-37.5313 154,-29 161.8409,-26.3695 170.2676,-23.8304 178.4545,-21.5109"/>
<polygon fill="#191970" stroke="#191970" points="179.5598,-24.8367 188.2661,-18.7993 177.6951,-18.0897 179.5598,-24.8367"/>
</g>
<!-- Node113&#45;&gt;Node112 -->
<g id="edge3" class="edge">
<title>Node113&#45;&gt;Node112</title>
<path fill="none" stroke="#191970" d="M284.3131,-77.1119C296.1087,-75.388 308.089,-73.637 318.6914,-72.0874"/>
<polygon fill="#191970" stroke="#191970" points="319.388,-75.5229 328.7767,-70.6134 318.3757,-68.5965 319.388,-75.5229"/>
</g>
<!-- Node114&#45;&gt;Node112 -->
<g id="edge5" class="edge">
<title>Node114&#45;&gt;Node112</title>
<path fill="none" stroke="#191970" d="M288.8809,-57.5557C299.263,-59.0731 309.6323,-60.5886 318.929,-61.9473"/>
<polygon fill="#191970" stroke="#191970" points="318.512,-65.4235 328.9131,-63.4065 319.5244,-58.4971 318.512,-65.4235"/>
</g>
<!-- Node115&#45;&gt;Node112 -->
<g id="edge7" class="edge">
<title>Node115&#45;&gt;Node112</title>
<path fill="none" stroke="#191970" d="M258.8367,-17.5157C270.0043,-20.454 282.2344,-24.2717 293,-29 306.7998,-35.061 321.1303,-43.9299 332.3784,-51.5754"/>
<polygon fill="#191970" stroke="#191970" points="330.4671,-54.5097 340.6692,-57.3677 334.4761,-48.7714 330.4671,-54.5097"/>
</g>
</g>
</svg>
