<?xml version="1.0" encoding="UTF-8" standalone="no"?>
<!DOCTYPE svg PUBLIC "-//W3C//DTD SVG 1.1//EN"
 "http://www.w3.org/Graphics/SVG/1.1/DTD/svg11.dtd">
<!-- Generated by graphviz version 2.40.1 (20161225.0304)
 -->
<!-- Title: operazioni_figlio Pages: 1 -->
<svg width="689pt" height="716pt"
 viewBox="0.00 0.00 689.00 715.82" xmlns="http://www.w3.org/2000/svg" xmlns:xlink="http://www.w3.org/1999/xlink">
<g id="graph0" class="graph" transform="scale(1 1) rotate(0) translate(4 711.8243)">
<title>operazioni_figlio</title>
<!-- Node8 -->
<g id="node1" class="node">
<title>Node8</title>
<polygon fill="#bfbfbf" stroke="#000000" points="0,-190.5 0,-209.5 97,-209.5 97,-190.5 0,-190.5"/>
<text text-anchor="middle" x="48.5" y="-197.5" font-family="Helvetica,sans-Serif" font-size="10.00" fill="#000000">operazioni_figlio</text>
</g>
<!-- Node9 -->
<g id="node2" class="node">
<title>Node9</title>
<g id="a_node2"><a xlink:href="err__exit_8c.html#aa223b0ecfe538d130ece562646a37d27" target="_top" xlink:title="Prints the error message of the last failed system call and terminates the calling process...">
<polygon fill="none" stroke="#000000" points="622,-506.5 622,-525.5 671,-525.5 671,-506.5 622,-506.5"/>
<text text-anchor="middle" x="646.5" y="-513.5" font-family="Helvetica,sans-Serif" font-size="10.00" fill="#000000">ErrExit</text>
</a>
</g>
</g>
<!-- Node8&#45;&gt;Node9 -->
<g id="edge1" class="edge">
<title>Node8&#45;&gt;Node9</title>
<path fill="none" stroke="#191970" d="M49.839,-209.7032C56.9985,-260.563 91.9715,-496.3281 133,-556 183.0078,-628.7313 212.667,-641.9508 297,-668 415.4768,-704.5957 471.4878,-734.7322 576,-668 622.2577,-638.4639 638.625,-569.9024 644.0345,-535.882"/>
<polygon fill="#191970" stroke="#191970" points="647.5289,-536.1692 645.4764,-525.7751 640.5991,-535.1805 647.5289,-536.1692"/>
</g>
<!-- Node10 -->
<g id="node3" class="node">
<title>Node10</title>
<g id="a_node3"><a xlink:href="files_8c.html#a096f8e9259afb2839ebe6822364f9928" target="_top" xlink:title="Restituisce dimensione del file in byte. ">
<polygon fill="none" stroke="#000000" points="612,-58.5 612,-77.5 681,-77.5 681,-58.5 612,-58.5"/>
<text text-anchor="middle" x="646.5" y="-65.5" font-family="Helvetica,sans-Serif" font-size="10.00" fill="#000000">getFileSize</text>
</a>
</g>
</g>
<!-- Node8&#45;&gt;Node10 -->
<g id="edge2" class="edge">
<title>Node8&#45;&gt;Node10</title>
<path fill="none" stroke="#191970" d="M81.3539,-190.4673C96.9744,-185.9866 115.9249,-180.6252 133,-176 189.7056,-160.6399 215.6077,-180.2961 261,-143 289.5682,-119.5273 265.7054,-87.6916 297,-68 394.2085,-6.8331 538.737,-36.1183 607.4666,-55.5368"/>
<polygon fill="#191970" stroke="#191970" points="606.8557,-59.0041 617.4353,-58.4358 608.8105,-52.2826 606.8557,-59.0041"/>
</g>
<!-- Node11 -->
<g id="node4" class="node">
<title>Node11</title>
<g id="a_node4"><a xlink:href="client_8h.html#a55586f2b7e9b3620294cf78cda8abdad" target="_top" xlink:title="Divide in 4 parti il contenuto del file da inviare al server. ">
<polygon fill="none" stroke="#000000" points="175,-114.5 175,-133.5 219,-133.5 219,-114.5 175,-114.5"/>
<text text-anchor="middle" x="197" y="-121.5" font-family="Helvetica,sans-Serif" font-size="10.00" fill="#000000">dividi</text>
</a>
</g>
</g>
<!-- Node8&#45;&gt;Node11 -->
<g id="edge3" class="edge">
<title>Node8&#45;&gt;Node11</title>
<path fill="none" stroke="#191970" d="M62.0852,-190.4995C78.4029,-179.361 106.8535,-160.7987 133,-148 143.2577,-142.9788 154.8482,-138.341 165.3196,-134.5079"/>
<polygon fill="#191970" stroke="#191970" points="166.6838,-137.7377 174.9362,-131.0933 164.3415,-131.1412 166.6838,-137.7377"/>
</g>
<!-- Node12 -->
<g id="node5" class="node">
<title>Node12</title>
<g id="a_node5"><a xlink:href="defines_8c.html#ac281b05b7a90ba292f5748cbfe3c389d" target="_top" xlink:title="Restituisce vero se l&#39;array contiene tutti true. ">
<polygon fill="none" stroke="#000000" points="138,-76.5 138,-95.5 256,-95.5 256,-76.5 138,-76.5"/>
<text text-anchor="middle" x="197" y="-83.5" font-family="Helvetica,sans-Serif" font-size="10.00" fill="#000000">arrayContainsAllTrue</text>
</a>
</g>
</g>
<!-- Node8&#45;&gt;Node12 -->
<g id="edge4" class="edge">
<title>Node8&#45;&gt;Node12</title>
<path fill="none" stroke="#191970" d="M54.4193,-190.3218C66.6603,-171.1242 96.6742,-128.0898 133,-105 136.3166,-102.8919 139.8773,-101.0089 143.5594,-99.3284"/>
<polygon fill="#191970" stroke="#191970" points="144.9328,-102.5484 152.8918,-95.5552 142.3089,-96.0587 144.9328,-102.5484"/>
</g>
<!-- Node13 -->
<g id="node6" class="node">
<title>Node13</title>
<g id="a_node6"><a xlink:href="semaphore_8c.html#a2581efba6a0833e3f289de94c779cc21" target="_top" xlink:title="Esegue la wait sul semaforo sem_num: decrementa il valore di 1 ed eventualmente mette in attesa il pr...">
<polygon fill="none" stroke="#000000" points="326.5,-639.5 326.5,-658.5 385.5,-658.5 385.5,-639.5 326.5,-639.5"/>
<text text-anchor="middle" x="356" y="-646.5" font-family="Helvetica,sans-Serif" font-size="10.00" fill="#000000">semWait</text>
</a>
</g>
</g>
<!-- Node8&#45;&gt;Node13 -->
<g id="edge5" class="edge">
<title>Node8&#45;&gt;Node13</title>
<path fill="none" stroke="#191970" d="M49.5993,-209.5781C54.2126,-246.6622 74.5571,-383.3845 133,-477 185.7887,-561.5585 211.0494,-579.5096 297,-630 303.047,-633.5522 309.839,-636.5272 316.6046,-638.9886"/>
<polygon fill="#191970" stroke="#191970" points="315.8151,-642.4141 326.4085,-642.2349 318.0155,-635.7689 315.8151,-642.4141"/>
</g>
<!-- Node15 -->
<g id="node8" class="node">
<title>Node15</title>
<g id="a_node8"><a xlink:href="semaphore_8c.html#a7bad0eb0b0c6ac701b59c36b8b7837bf" target="_top" xlink:title="Esegue la signal sul semaforo sem_num: incrementa il valore di 1. ">
<polygon fill="none" stroke="#000000" points="322,-601.5 322,-620.5 390,-620.5 390,-601.5 322,-601.5"/>
<text text-anchor="middle" x="356" y="-608.5" font-family="Helvetica,sans-Serif" font-size="10.00" fill="#000000">semSignal</text>
</a>
</g>
</g>
<!-- Node8&#45;&gt;Node15 -->
<g id="edge8" class="edge">
<title>Node8&#45;&gt;Node15</title>
<path fill="none" stroke="#191970" d="M52.7954,-209.5113C64.4929,-235.1307 98.3644,-307.4653 133,-364 198.2086,-470.4381 196.0934,-518.5215 297,-592 301.567,-595.3256 306.7422,-598.0863 312.0841,-600.3739"/>
<polygon fill="#191970" stroke="#191970" points="311.1915,-603.7768 321.784,-604.0005 313.643,-597.2201 311.1915,-603.7768"/>
</g>
<!-- Node16 -->
<g id="node9" class="node">
<title>Node16</title>
<g id="a_node9"><a xlink:href="client_8h.html#a0ddf1224851353fc92bfbff6f499fa97" target="_top" xlink:title="main">
<polygon fill="none" stroke="#000000" points="176.5,-38.5 176.5,-57.5 217.5,-57.5 217.5,-38.5 176.5,-38.5"/>
<text text-anchor="middle" x="197" y="-45.5" font-family="Helvetica,sans-Serif" font-size="10.00" fill="#000000">main</text>
</a>
</g>
</g>
<!-- Node8&#45;&gt;Node16 -->
<g id="edge10" class="edge">
<title>Node8&#45;&gt;Node16</title>
<path fill="none" stroke="#191970" d="M51.8958,-190.291C60.9815,-165.7501 88.2431,-100.7914 133,-67 142.6317,-59.7281 155.0161,-55.2285 166.3206,-52.4489"/>
<polygon fill="#191970" stroke="#191970" points="167.2246,-55.8354 176.2887,-50.3497 165.782,-48.9856 167.2246,-55.8354"/>
</g>
<!-- Node17 -->
<g id="node10" class="node">
<title>Node17</title>
<g id="a_node10"><a xlink:href="signals_8c.html#a6060ad9cb62b184abfe113560b29f3c4" target="_top" xlink:title="block_sig_no_SIGINT\l_SIGUSR1">
<polygon fill="none" stroke="#000000" points="297,-78 297,-108 415,-108 415,-78 297,-78"/>
<text text-anchor="start" x="305" y="-96" font-family="Helvetica,sans-Serif" font-size="10.00" fill="#000000">block_sig_no_SIGINT</text>
<text text-anchor="middle" x="356" y="-85" font-family="Helvetica,sans-Serif" font-size="10.00" fill="#000000">_SIGUSR1</text>
</a>
</g>
</g>
<!-- Node8&#45;&gt;Node17 -->
<g id="edge11" class="edge">
<title>Node8&#45;&gt;Node17</title>
<path fill="none" stroke="#191970" d="M97.1564,-205.9857C142.9722,-209.1224 211.7348,-207.154 261,-176 286.6426,-159.7843 273.953,-137.7315 297,-118 298.9225,-116.354 300.9693,-114.8032 303.103,-113.3436"/>
<polygon fill="#191970" stroke="#191970" points="304.9368,-116.3249 311.6854,-108.1575 301.3165,-110.3338 304.9368,-116.3249"/>
</g>
<!-- Node18 -->
<g id="node11" class="node">
<title>Node18</title>
<g id="a_node11"><a xlink:href="client_8h.html#a48d605ff689f470746c858648f0a98c2" target="_top" xlink:title="Handler del segnale SIGINT. ">
<polygon fill="none" stroke="#000000" points="138,-335.5 138,-354.5 256,-354.5 256,-335.5 138,-335.5"/>
<text text-anchor="middle" x="197" y="-342.5" font-family="Helvetica,sans-Serif" font-size="10.00" fill="#000000">SIGINTSignalHandler</text>
</a>
</g>
</g>
<!-- Node8&#45;&gt;Node18 -->
<g id="edge12" class="edge">
<title>Node8&#45;&gt;Node18</title>
<path fill="none" stroke="#191970" d="M62.7388,-209.7244C91.2718,-234.137 155.1193,-296.4995 183.2466,-327.4514"/>
<polygon fill="#191970" stroke="#191970" points="180.9294,-330.1147 190.1737,-335.2909 186.1749,-325.4796 180.9294,-330.1147"/>
</g>
<!-- Node36 -->
<g id="node29" class="node">
<title>Node36</title>
<g id="a_node29"><a xlink:href="client_8h.html#a50b22adcb76198fcd9402a97ff4711bf" target="_top" xlink:title="Handler del segnale SIGUSR1. ">
<polygon fill="none" stroke="#000000" points="133,-.5 133,-19.5 261,-19.5 261,-.5 133,-.5"/>
<text text-anchor="middle" x="197" y="-7.5" font-family="Helvetica,sans-Serif" font-size="10.00" fill="#000000">SIGUSR1SignalHandler</text>
</a>
</g>
</g>
<!-- Node8&#45;&gt;Node36 -->
<g id="edge45" class="edge">
<title>Node8&#45;&gt;Node36</title>
<path fill="none" stroke="#191970" d="M50.4621,-190.1799C56.8117,-160.9952 79.5691,-74.0237 133,-29 135.0164,-27.3009 137.1798,-25.7537 139.4483,-24.3449"/>
<polygon fill="#191970" stroke="#191970" points="141.3735,-27.2886 148.6292,-19.5681 138.1426,-21.0789 141.3735,-27.2886"/>
</g>
<!-- Node14 -->
<g id="node7" class="node">
<title>Node14</title>
<g id="a_node7"><a xlink:href="semaphore_8c.html#a77c6570406059144bb6a8ecf04f481da" target="_top" xlink:title="Funzione di supporto per manipolare i valori di un set di semafori. ">
<polygon fill="none" stroke="#000000" points="488,-639.5 488,-658.5 539,-658.5 539,-639.5 488,-639.5"/>
<text text-anchor="middle" x="513.5" y="-646.5" font-family="Helvetica,sans-Serif" font-size="10.00" fill="#000000">semOp</text>
</a>
</g>
</g>
<!-- Node13&#45;&gt;Node14 -->
<g id="edge6" class="edge">
<title>Node13&#45;&gt;Node14</title>
<path fill="none" stroke="#191970" d="M385.6245,-649C411.7784,-649 449.9687,-649 477.8011,-649"/>
<polygon fill="#191970" stroke="#191970" points="477.9144,-652.5001 487.9143,-649 477.9143,-645.5001 477.9144,-652.5001"/>
</g>
<!-- Node14&#45;&gt;Node9 -->
<g id="edge7" class="edge">
<title>Node14&#45;&gt;Node9</title>
<path fill="none" stroke="#191970" d="M539.12,-643.1302C551.2386,-639.4161 565.3496,-633.6418 576,-625 606.3367,-600.3845 627.9146,-559.1268 638.6856,-535.0517"/>
<polygon fill="#191970" stroke="#191970" points="642.014,-536.1714 642.7507,-525.6022 635.5838,-533.4051 642.014,-536.1714"/>
</g>
<!-- Node15&#45;&gt;Node14 -->
<g id="edge9" class="edge">
<title>Node15&#45;&gt;Node14</title>
<path fill="none" stroke="#191970" d="M390.1752,-619.2454C416.0532,-625.489 451.5065,-634.0428 477.7602,-640.3771"/>
<polygon fill="#191970" stroke="#191970" points="477.143,-643.8285 487.685,-642.7716 478.7848,-637.0238 477.143,-643.8285"/>
</g>
<!-- Node18&#45;&gt;Node8 -->
<g id="edge43" class="edge">
<title>Node18&#45;&gt;Node8</title>
<path fill="none" stroke="#191970" d="M182.8788,-335.3762C154.3825,-311.0164 90.3225,-248.4485 62.1895,-217.4782"/>
<polygon fill="#191970" stroke="#191970" points="64.5095,-214.8178 55.2666,-209.6389 59.2625,-219.4514 64.5095,-214.8178"/>
</g>
<!-- Node18&#45;&gt;Node9 -->
<g id="edge27" class="edge">
<title>Node18&#45;&gt;Node9</title>
<path fill="none" stroke="#191970" d="M253.1331,-354.5108C255.9396,-356.0853 258.5889,-357.903 261,-360 294.4428,-389.0865 262.814,-424.7907 297,-453 344.7464,-492.399 532.6276,-508.7516 611.4243,-513.9715"/>
<polygon fill="#191970" stroke="#191970" points="611.5897,-517.4892 621.7929,-514.6354 612.037,-510.5035 611.5897,-517.4892"/>
</g>
<!-- Node18&#45;&gt;Node13 -->
<g id="edge39" class="edge">
<title>Node18&#45;&gt;Node13</title>
<path fill="none" stroke="#191970" d="M199.1854,-354.7142C209.52,-399.8736 254.7501,-588.8308 297,-630 302.4576,-635.318 309.4103,-639.1478 316.6133,-641.9057"/>
<polygon fill="#191970" stroke="#191970" points="315.8835,-645.3462 326.4739,-645.0412 318.0048,-638.6754 315.8835,-645.3462"/>
</g>
<!-- Node18&#45;&gt;Node15 -->
<g id="edge40" class="edge">
<title>Node18&#45;&gt;Node15</title>
<path fill="none" stroke="#191970" d="M207.4103,-354.9423C221.7585,-369.2606 247.3793,-397.1521 261,-426 293.2322,-494.266 246.2969,-536.0683 297,-592 301.2687,-596.7089 306.7082,-600.2563 312.551,-602.9276"/>
<polygon fill="#191970" stroke="#191970" points="311.3619,-606.2196 321.9543,-606.4451 313.8145,-599.6633 311.3619,-606.2196"/>
</g>
<!-- Node18&#45;&gt;Node17 -->
<g id="edge44" class="edge">
<title>Node18&#45;&gt;Node17</title>
<path fill="none" stroke="#191970" d="M202.1428,-335.2895C213.4558,-313.7605 241.0784,-260.2642 261,-214 279.022,-172.1472 265.4626,-150.8913 297,-118 298.3859,-116.5546 299.8686,-115.1889 301.4276,-113.8988"/>
<polygon fill="#191970" stroke="#191970" points="303.5814,-116.6634 309.764,-108.0595 299.5654,-110.93 303.5814,-116.6634"/>
</g>
<!-- Node19 -->
<g id="node12" class="node">
<title>Node19</title>
<g id="a_node12"><a xlink:href="signals_8c.html#a6e96709c7c3ecbcde283f4a2a09e4baf" target="_top" xlink:title="block_all_signals">
<polygon fill="none" stroke="#000000" points="306,-373.5 306,-392.5 406,-392.5 406,-373.5 306,-373.5"/>
<text text-anchor="middle" x="356" y="-380.5" font-family="Helvetica,sans-Serif" font-size="10.00" fill="#000000">block_all_signals</text>
</a>
</g>
</g>
<!-- Node18&#45;&gt;Node19 -->
<g id="edge13" class="edge">
<title>Node18&#45;&gt;Node19</title>
<path fill="none" stroke="#191970" d="M237.1224,-354.589C258.1042,-359.6035 283.9817,-365.7881 306.2299,-371.1053"/>
<polygon fill="#191970" stroke="#191970" points="305.6264,-374.5595 316.1661,-373.4799 307.2536,-367.7513 305.6264,-374.5595"/>
</g>
<!-- Node20 -->
<g id="node13" class="node">
<title>Node20</title>
<g id="a_node13"><a xlink:href="shared__memory_8c.html#a660a60242a5174977ab2debcdbd0e587" target="_top" xlink:title="Ottiene l&#39;id o crea una memoria condivisa. ">
<polygon fill="none" stroke="#000000" points="451,-449.5 451,-468.5 576,-468.5 576,-449.5 451,-449.5"/>
<text text-anchor="middle" x="513.5" y="-456.5" font-family="Helvetica,sans-Serif" font-size="10.00" fill="#000000">alloc_shared_memory</text>
</a>
</g>
</g>
<!-- Node18&#45;&gt;Node20 -->
<g id="edge14" class="edge">
<title>Node18&#45;&gt;Node20</title>
<path fill="none" stroke="#191970" d="M205.5517,-354.5401C221.6028,-371.7679 258.1438,-407.8685 297,-425 342.2833,-444.9652 397.4419,-453.4194 440.7502,-456.9058"/>
<polygon fill="#191970" stroke="#191970" points="440.6973,-460.4112 450.9265,-457.6518 441.2092,-453.4299 440.6973,-460.4112"/>
</g>
<!-- Node21 -->
<g id="node14" class="node">
<title>Node21</title>
<g id="a_node14"><a xlink:href="defines_8c.html#a2d341373a96ffea0944553e5452cdbca" target="_top" xlink:title="get_ipc_key">
<polygon fill="none" stroke="#000000" points="476,-411.5 476,-430.5 551,-430.5 551,-411.5 476,-411.5"/>
<text text-anchor="middle" x="513.5" y="-418.5" font-family="Helvetica,sans-Serif" font-size="10.00" fill="#000000">get_ipc_key</text>
</a>
</g>
</g>
<!-- Node18&#45;&gt;Node21 -->
<g id="edge16" class="edge">
<title>Node18&#45;&gt;Node21</title>
<path fill="none" stroke="#191970" d="M209.7375,-354.6961C227.9645,-367.9792 263.0479,-391.393 297,-402 353.0141,-419.4993 420.8784,-422.7485 465.5185,-422.6036"/>
<polygon fill="#191970" stroke="#191970" points="465.8216,-426.101 475.7889,-422.5088 465.757,-419.1013 465.8216,-426.101"/>
</g>
<!-- Node22 -->
<g id="node15" class="node">
<title>Node22</title>
<g id="a_node15"><a xlink:href="shared__memory_8c.html#ab2ffe00ec7425a3a4229cd0d53ed901c" target="_top" xlink:title="Recupera il puntatore alla memoria condivisa aggiungendola allo spazio degli indirizzi. ">
<polygon fill="none" stroke="#000000" points="455,-347.5 455,-366.5 572,-366.5 572,-347.5 455,-347.5"/>
<text text-anchor="middle" x="513.5" y="-354.5" font-family="Helvetica,sans-Serif" font-size="10.00" fill="#000000">get_shared_memory</text>
</a>
</g>
</g>
<!-- Node18&#45;&gt;Node22 -->
<g id="edge18" class="edge">
<title>Node18&#45;&gt;Node22</title>
<path fill="none" stroke="#191970" d="M200.708,-335.1832C211.1361,-309.184 243.4972,-238.7112 297,-212 343.9218,-188.5743 370.0706,-184.9488 415,-212 444.2961,-229.6386 432.135,-251.4782 451,-280 465.2653,-301.5677 484.3039,-324.3311 497.6053,-339.4641"/>
<polygon fill="#191970" stroke="#191970" points="495.0756,-341.8863 504.3379,-347.0302 500.305,-337.233 495.0756,-341.8863"/>
</g>
<!-- Node23 -->
<g id="node16" class="node">
<title>Node23</title>
<g id="a_node16"><a xlink:href="semaphore_8c.html#afee4d9b0eb613bf632622e9244204d51" target="_top" xlink:title="Ottiene un insieme di semafori gia&#39; creato. ">
<polygon fill="none" stroke="#000000" points="309.5,-563.5 309.5,-582.5 402.5,-582.5 402.5,-563.5 309.5,-563.5"/>
<text text-anchor="middle" x="356" y="-570.5" font-family="Helvetica,sans-Serif" font-size="10.00" fill="#000000">getSemaphores</text>
</a>
</g>
</g>
<!-- Node18&#45;&gt;Node23 -->
<g id="edge20" class="edge">
<title>Node18&#45;&gt;Node23</title>
<path fill="none" stroke="#191970" d="M206.6989,-354.5787C220.6602,-368.8897 246.3487,-397.2587 261,-426 287.839,-478.6499 256.001,-511.4391 297,-554 298.3998,-555.4531 299.9111,-556.7954 301.51,-558.0351"/>
<polygon fill="#191970" stroke="#191970" points="299.7891,-561.0869 310.1242,-563.4188 303.4991,-555.1508 299.7891,-561.0869"/>
</g>
<!-- Node24 -->
<g id="node17" class="node">
<title>Node24</title>
<g id="a_node17"><a xlink:href="fifo_8c.html#a54a1ae8162825128cf02f95692402c18" target="_top" xlink:title="Facilita la creazione di una FIFO (o ne ottiene una esistente) in modalita&#39; lettura o scrittura...">
<polygon fill="none" stroke="#000000" points="322,-525.5 322,-544.5 390,-544.5 390,-525.5 322,-525.5"/>
<text text-anchor="middle" x="356" y="-532.5" font-family="Helvetica,sans-Serif" font-size="10.00" fill="#000000">create_fifo</text>
</a>
</g>
</g>
<!-- Node18&#45;&gt;Node24 -->
<g id="edge23" class="edge">
<title>Node18&#45;&gt;Node24</title>
<path fill="none" stroke="#191970" d="M206.2265,-354.8387C219.5993,-369.4735 244.5619,-398.2419 261,-426 281.9048,-461.3008 267.7835,-482.198 297,-511 301.4961,-515.4323 306.9213,-519.0813 312.6376,-522.076"/>
<polygon fill="#191970" stroke="#191970" points="311.2194,-525.2761 321.7683,-526.2618 314.1365,-518.9128 311.2194,-525.2761"/>
</g>
<!-- Node26 -->
<g id="node19" class="node">
<title>Node26</title>
<g id="a_node19"><a xlink:href="files_8c.html#a627e4b202ea71f3bd241ccf562449bd6" target="_top" xlink:title="find_sendme_files">
<polygon fill="none" stroke="#000000" points="304,-127.5 304,-146.5 408,-146.5 408,-127.5 304,-127.5"/>
<text text-anchor="middle" x="356" y="-134.5" font-family="Helvetica,sans-Serif" font-size="10.00" fill="#000000">find_sendme_files</text>
</a>
</g>
</g>
<!-- Node18&#45;&gt;Node26 -->
<g id="edge28" class="edge">
<title>Node18&#45;&gt;Node26</title>
<path fill="none" stroke="#191970" d="M201.0423,-335.485C212.8019,-308.5839 249.2146,-230.5859 297,-179 306.6412,-168.592 319.2455,-159.1995 330.3279,-151.9493"/>
<polygon fill="#191970" stroke="#191970" points="332.2042,-154.9039 338.8037,-146.6155 328.476,-148.9793 332.2042,-154.9039"/>
</g>
<!-- Node32 -->
<g id="node25" class="node">
<title>Node32</title>
<g id="a_node25"><a xlink:href="files_8c.html#a1cdd9b5b37408e31d80f31e474a71483" target="_top" xlink:title="Visualizza il contenuto della lista concatenata di filePath. ">
<polygon fill="none" stroke="#000000" points="326.5,-335.5 326.5,-354.5 385.5,-354.5 385.5,-335.5 326.5,-335.5"/>
<text text-anchor="middle" x="356" y="-342.5" font-family="Helvetica,sans-Serif" font-size="10.00" fill="#000000">print_list</text>
</a>
</g>
</g>
<!-- Node18&#45;&gt;Node32 -->
<g id="edge37" class="edge">
<title>Node18&#45;&gt;Node32</title>
<path fill="none" stroke="#191970" d="M256.2057,-345C276.1337,-345 297.8849,-345 315.9794,-345"/>
<polygon fill="#191970" stroke="#191970" points="316.1692,-348.5001 326.1691,-345 316.1691,-341.5001 316.1692,-348.5001"/>
</g>
<!-- Node33 -->
<g id="node26" class="node">
<title>Node33</title>
<g id="a_node26"><a xlink:href="files_8c.html#a3ba19f05c37434e7f20facff3445651a" target="_top" xlink:title="Conta il numero di file nella lista concatenata di filePath. ">
<polygon fill="none" stroke="#000000" points="321.5,-297.5 321.5,-316.5 390.5,-316.5 390.5,-297.5 321.5,-297.5"/>
<text text-anchor="middle" x="356" y="-304.5" font-family="Helvetica,sans-Serif" font-size="10.00" fill="#000000">count_files</text>
</a>
</g>
</g>
<!-- Node18&#45;&gt;Node33 -->
<g id="edge38" class="edge">
<title>Node18&#45;&gt;Node33</title>
<path fill="none" stroke="#191970" d="M237.1224,-335.411C259.7213,-330.01 287.9997,-323.2517 311.3056,-317.6817"/>
<polygon fill="#191970" stroke="#191970" points="312.3785,-321.0239 321.291,-315.2952 310.7513,-314.2157 312.3785,-321.0239"/>
</g>
<!-- Node34 -->
<g id="node27" class="node">
<title>Node34</title>
<g id="a_node27"><a xlink:href="defines_8c.html#aea9b93cad897755a46cb9e3373ba8cc2" target="_top" xlink:title="Rende bloccante oppure non bloccante un file descriptor. ">
<polygon fill="none" stroke="#000000" points="328,-259.5 328,-278.5 384,-278.5 384,-259.5 328,-259.5"/>
<text text-anchor="middle" x="356" y="-266.5" font-family="Helvetica,sans-Serif" font-size="10.00" fill="#000000">blockFD</text>
</a>
</g>
</g>
<!-- Node18&#45;&gt;Node34 -->
<g id="edge41" class="edge">
<title>Node18&#45;&gt;Node34</title>
<path fill="none" stroke="#191970" d="M211.7415,-335.3038C230.8158,-323.0653 265.3606,-301.9327 297,-288 303.7708,-285.0184 311.1602,-282.2679 318.3475,-279.8395"/>
<polygon fill="#191970" stroke="#191970" points="319.5078,-283.1428 327.9461,-276.7361 317.3543,-276.4823 319.5078,-283.1428"/>
</g>
<!-- Node35 -->
<g id="node28" class="node">
<title>Node35</title>
<g id="a_node28"><a xlink:href="files_8c.html#a786a7b6f9c01e8489d7196a79f5f3862" target="_top" xlink:title="Libera la memoria dello HEAP occupata dalla lista di filePath. ">
<polygon fill="none" stroke="#000000" points="328,-221.5 328,-240.5 384,-240.5 384,-221.5 328,-221.5"/>
<text text-anchor="middle" x="356" y="-228.5" font-family="Helvetica,sans-Serif" font-size="10.00" fill="#000000">free_list</text>
</a>
</g>
</g>
<!-- Node18&#45;&gt;Node35 -->
<g id="edge42" class="edge">
<title>Node18&#45;&gt;Node35</title>
<path fill="none" stroke="#191970" d="M204.4878,-335.4485C219.8421,-316.4786 256.845,-273.8335 297,-250 303.4892,-246.1484 310.8504,-242.9812 318.119,-240.4125"/>
<polygon fill="#191970" stroke="#191970" points="319.4342,-243.6661 327.8825,-237.2726 317.2911,-237.0022 319.4342,-243.6661"/>
</g>
<!-- Node20&#45;&gt;Node9 -->
<g id="edge15" class="edge">
<title>Node20&#45;&gt;Node9</title>
<path fill="none" stroke="#191970" d="M539.5127,-468.5157C550.8009,-472.7667 564.1279,-477.9495 576,-483 589.8735,-488.9019 605.044,-495.9269 617.7463,-501.9754"/>
<polygon fill="#191970" stroke="#191970" points="616.3864,-505.2049 626.9164,-506.3755 619.4148,-498.8938 616.3864,-505.2049"/>
</g>
<!-- Node21&#45;&gt;Node9 -->
<g id="edge17" class="edge">
<title>Node21&#45;&gt;Node9</title>
<path fill="none" stroke="#191970" d="M551.2523,-428.9788C559.769,-431.712 568.5006,-435.3085 576,-440 600.2965,-455.1996 621.645,-480.8967 634.312,-498.1502"/>
<polygon fill="#191970" stroke="#191970" points="631.4642,-500.185 640.1142,-506.3028 637.1673,-496.126 631.4642,-500.185"/>
</g>
<!-- Node22&#45;&gt;Node9 -->
<g id="edge19" class="edge">
<title>Node22&#45;&gt;Node9</title>
<path fill="none" stroke="#191970" d="M530.2809,-366.5409C543.7259,-374.7466 562.5069,-387.5252 576,-402 603.4903,-431.4903 626.0612,-473.2771 637.7805,-497.2104"/>
<polygon fill="#191970" stroke="#191970" points="634.6492,-498.7754 642.1214,-506.2865 640.9641,-495.7551 634.6492,-498.7754"/>
</g>
<!-- Node23&#45;&gt;Node9 -->
<g id="edge21" class="edge">
<title>Node23&#45;&gt;Node9</title>
<path fill="none" stroke="#191970" d="M402.5542,-581.032C448.127,-586.9628 518.8407,-590.9498 576,-571 597.6047,-563.4595 617.7036,-546.3674 630.8677,-533.2234"/>
<polygon fill="#191970" stroke="#191970" points="633.7185,-535.3079 638.1196,-525.6704 628.6691,-530.4598 633.7185,-535.3079"/>
</g>
<!-- Node23&#45;&gt;Node14 -->
<g id="edge22" class="edge">
<title>Node23&#45;&gt;Node14</title>
<path fill="none" stroke="#191970" d="M393.8661,-582.5179C401.1264,-585.0766 408.4883,-588.2131 415,-592 433.7629,-602.9117 432.5447,-613.5757 451,-625 459.3464,-630.1667 468.9879,-634.5363 478.1616,-638.0726"/>
<polygon fill="#191970" stroke="#191970" points="477.2548,-641.4666 487.849,-641.581 479.6384,-634.8849 477.2548,-641.4666"/>
</g>
<!-- Node24&#45;&gt;Node9 -->
<g id="edge26" class="edge">
<title>Node24&#45;&gt;Node9</title>
<path fill="none" stroke="#191970" d="M388.973,-544.5278C432.4803,-555.5937 511.1359,-570.368 576,-554 593.5262,-549.5774 611.4325,-539.8473 624.8132,-531.3406"/>
<polygon fill="#191970" stroke="#191970" points="626.8868,-534.1654 633.2935,-525.7271 623.023,-528.3283 626.8868,-534.1654"/>
</g>
<!-- Node25 -->
<g id="node18" class="node">
<title>Node25</title>
<g id="a_node18"><a xlink:href="fifo_8c.html#ab83de0eb3bc3947e3c031685d5c2474b" target="_top" xlink:title="Crea o ottiene una IPC FIFO usando mkfifo. ">
<polygon fill="none" stroke="#000000" points="481,-525.5 481,-544.5 546,-544.5 546,-525.5 481,-525.5"/>
<text text-anchor="middle" x="513.5" y="-532.5" font-family="Helvetica,sans-Serif" font-size="10.00" fill="#000000">make_fifo</text>
</a>
</g>
</g>
<!-- Node24&#45;&gt;Node25 -->
<g id="edge24" class="edge">
<title>Node24&#45;&gt;Node25</title>
<path fill="none" stroke="#191970" d="M390.1752,-535C413.7917,-535 445.3832,-535 470.6791,-535"/>
<polygon fill="#191970" stroke="#191970" points="470.7389,-538.5001 480.7389,-535 470.7388,-531.5001 470.7389,-538.5001"/>
</g>
<!-- Node25&#45;&gt;Node9 -->
<g id="edge25" class="edge">
<title>Node25&#45;&gt;Node9</title>
<path fill="none" stroke="#191970" d="M546.0355,-530.3521C565.9438,-527.508 591.4036,-523.8709 611.7117,-520.9698"/>
<polygon fill="#191970" stroke="#191970" points="612.4006,-524.407 621.8051,-519.5278 611.4106,-517.4773 612.4006,-524.407"/>
</g>
<!-- Node26&#45;&gt;Node9 -->
<g id="edge36" class="edge">
<title>Node26&#45;&gt;Node9</title>
<path fill="none" stroke="#191970" d="M367.1631,-146.6646C409.687,-183.5516 559.9559,-314.5786 576,-338 611.4406,-389.7367 632.9352,-461.8975 641.7899,-496.2756"/>
<polygon fill="#191970" stroke="#191970" points="638.4985,-497.5431 644.3101,-506.4017 645.2913,-495.8524 638.4985,-497.5431"/>
</g>
<!-- Node26&#45;&gt;Node26 -->
<g id="edge35" class="edge">
<title>Node26&#45;&gt;Node26</title>
<path fill="none" stroke="#191970" d="M331.9559,-146.7571C320.2587,-155.5653 328.2734,-165 356,-165 374.1956,-165 383.9019,-160.9368 385.1191,-155.6539"/>
<polygon fill="#191970" stroke="#191970" points="388.0391,-153.7091 380.0441,-146.7571 381.9588,-157.1775 388.0391,-153.7091"/>
</g>
<!-- Node27 -->
<g id="node20" class="node">
<title>Node27</title>
<g id="a_node20"><a xlink:href="strings_8c.html#a21b51584b636c81767ed74b8a527ffd3" target="_top" xlink:title="Concatena la cartella directory al percorso path. ">
<polygon fill="none" stroke="#000000" points="473.5,-191.5 473.5,-210.5 553.5,-210.5 553.5,-191.5 473.5,-191.5"/>
<text text-anchor="middle" x="513.5" y="-198.5" font-family="Helvetica,sans-Serif" font-size="10.00" fill="#000000">append2Path</text>
</a>
</g>
</g>
<!-- Node26&#45;&gt;Node27 -->
<g id="edge29" class="edge">
<title>Node26&#45;&gt;Node27</title>
<path fill="none" stroke="#191970" d="M374.2151,-146.6162C393.0841,-156.3411 423.5929,-171.4092 451,-182 456.8315,-184.2534 463.0495,-186.4174 469.2173,-188.4259"/>
<polygon fill="#191970" stroke="#191970" points="468.2158,-191.7799 478.8053,-191.4447 470.3181,-185.103 468.2158,-191.7799"/>
</g>
<!-- Node28 -->
<g id="node21" class="node">
<title>Node28</title>
<g id="a_node21"><a xlink:href="files_8c.html#a675d61c6bfe0d9ddd1be59233dfd7d5c" target="_top" xlink:title="Restituisce 1 se il percorso inizia con &quot;sendme_&quot;, 0 altrimenti. ">
<polygon fill="none" stroke="#000000" points="468,-115.5 468,-134.5 559,-134.5 559,-115.5 468,-115.5"/>
<text text-anchor="middle" x="513.5" y="-122.5" font-family="Helvetica,sans-Serif" font-size="10.00" fill="#000000">checkFileName</text>
</a>
</g>
</g>
<!-- Node26&#45;&gt;Node28 -->
<g id="edge30" class="edge">
<title>Node26&#45;&gt;Node28</title>
<path fill="none" stroke="#191970" d="M408.0079,-133.0375C423.8843,-131.8279 441.4061,-130.4929 457.5332,-129.2641"/>
<polygon fill="#191970" stroke="#191970" points="458.193,-132.7241 467.8982,-128.4744 457.6612,-125.7443 458.193,-132.7241"/>
</g>
<!-- Node30 -->
<g id="node23" class="node">
<title>Node30</title>
<g id="a_node23"><a xlink:href="files_8c.html#a5ac4517096592013308a3252f3226f60" target="_top" xlink:title="Restituisce 1 se il percorso ha la dimensione &lt;= 4 KB, 0 altrimenti. ">
<polygon fill="none" stroke="#000000" points="472.5,-77.5 472.5,-96.5 554.5,-96.5 554.5,-77.5 472.5,-77.5"/>
<text text-anchor="middle" x="513.5" y="-84.5" font-family="Helvetica,sans-Serif" font-size="10.00" fill="#000000">checkFileSize</text>
</a>
</g>
</g>
<!-- Node26&#45;&gt;Node30 -->
<g id="edge32" class="edge">
<title>Node26&#45;&gt;Node30</title>
<path fill="none" stroke="#191970" d="M385.7314,-127.4907C395.1028,-124.4759 405.4897,-121.1163 415,-118 431.027,-112.7484 434.9304,-111.1198 451,-106 457.6793,-103.8719 464.777,-101.6638 471.7014,-99.5384"/>
<polygon fill="#191970" stroke="#191970" points="473.1101,-102.768 481.6538,-96.5025 471.0677,-96.0725 473.1101,-102.768"/>
</g>
<!-- Node31 -->
<g id="node24" class="node">
<title>Node31</title>
<g id="a_node24"><a xlink:href="files_8c.html#a6a46f37bcdbf048db0fba5bb3e0e6342" target="_top" xlink:title="Aggiunge in fondo alla coda un nuovo filePath. ">
<polygon fill="none" stroke="#000000" points="487,-153.5 487,-172.5 540,-172.5 540,-153.5 487,-153.5"/>
<text text-anchor="middle" x="513.5" y="-160.5" font-family="Helvetica,sans-Serif" font-size="10.00" fill="#000000">append</text>
</a>
</g>
</g>
<!-- Node26&#45;&gt;Node31 -->
<g id="edge34" class="edge">
<title>Node26&#45;&gt;Node31</title>
<path fill="none" stroke="#191970" d="M408.0079,-145.5854C430.5435,-149.3056 456.3945,-153.5731 476.8658,-156.9525"/>
<polygon fill="#191970" stroke="#191970" points="476.3025,-160.4068 486.7391,-158.5823 477.4427,-153.5002 476.3025,-160.4068"/>
</g>
<!-- Node29 -->
<g id="node22" class="node">
<title>Node29</title>
<g id="a_node22"><a xlink:href="strings_8c.html#ab6b8529148710caedf063c1de6b0db16" target="_top" xlink:title="Restituisce vero se la stringa a inizia con la sotto stringa b. ">
<polygon fill="none" stroke="#000000" points="612.5,-115.5 612.5,-134.5 680.5,-134.5 680.5,-115.5 612.5,-115.5"/>
<text text-anchor="middle" x="646.5" y="-122.5" font-family="Helvetica,sans-Serif" font-size="10.00" fill="#000000">StartsWith</text>
</a>
</g>
</g>
<!-- Node28&#45;&gt;Node29 -->
<g id="edge31" class="edge">
<title>Node28&#45;&gt;Node29</title>
<path fill="none" stroke="#191970" d="M559.2711,-125C573.1627,-125 588.3953,-125 602.1893,-125"/>
<polygon fill="#191970" stroke="#191970" points="602.4112,-128.5001 612.4111,-125 602.4111,-121.5001 602.4112,-128.5001"/>
</g>
<!-- Node30&#45;&gt;Node10 -->
<g id="edge33" class="edge">
<title>Node30&#45;&gt;Node10</title>
<path fill="none" stroke="#191970" d="M554.853,-81.0924C569.7227,-78.9682 586.5596,-76.5629 601.7084,-74.3988"/>
<polygon fill="#191970" stroke="#191970" points="602.4768,-77.8246 611.8813,-72.9455 601.4868,-70.895 602.4768,-77.8246"/>
</g>
</g>
</svg>
