<?xml version="1.0" encoding="UTF-8" standalone="no"?>
<!DOCTYPE svg PUBLIC "-//W3C//DTD SVG 1.1//EN"
 "http://www.w3.org/Graphics/SVG/1.1/DTD/svg11.dtd">
<!-- Generated by graphviz version 2.40.1 (20161225.0304)
 -->
<!-- Title: /mnt/c/Users/stefa/Desktop/system_call/src/client.c Pages: 1 -->
<svg width="1092pt" height="106pt"
 viewBox="0.00 0.00 1091.50 106.00" xmlns="http://www.w3.org/2000/svg" xmlns:xlink="http://www.w3.org/1999/xlink">
<g id="graph0" class="graph" transform="scale(1 1) rotate(0) translate(4 102)">
<title>/mnt/c/Users/stefa/Desktop/system_call/src/client.c</title>
<!-- Node0 -->
<g id="node1" class="node">
<title>Node0</title>
<polygon fill="#bfbfbf" stroke="#000000" points="474,-56.5 474,-97.5 596,-97.5 596,-56.5 474,-56.5"/>
<text text-anchor="start" x="482" y="-85.5" font-family="Helvetica,sans-Serif" font-size="10.00" fill="#000000">/mnt/c/Users/stefa</text>
<text text-anchor="start" x="482" y="-74.5" font-family="Helvetica,sans-Serif" font-size="10.00" fill="#000000">/Desktop/system_call</text>
<text text-anchor="middle" x="535" y="-63.5" font-family="Helvetica,sans-Serif" font-size="10.00" fill="#000000">/src/client.c</text>
</g>
<!-- Node1 -->
<g id="node2" class="node">
<title>Node1</title>
<polygon fill="none" stroke="#bfbfbf" points="0,-.5 0,-19.5 50,-19.5 50,-.5 0,-.5"/>
<text text-anchor="middle" x="25" y="-7.5" font-family="Helvetica,sans-Serif" font-size="10.00" fill="#000000">stdio.h</text>
</g>
<!-- Node0&#45;&gt;Node1 -->
<g id="edge1" class="edge">
<title>Node0&#45;&gt;Node1</title>
<path fill="none" stroke="#191970" d="M473.9915,-72.9674C384.8801,-66.3575 213.9068,-50.9535 60.2294,-19.964"/>
<polygon fill="#191970" stroke="#191970" points="60.6313,-16.4738 50.133,-17.9001 59.2294,-23.332 60.6313,-16.4738"/>
</g>
<!-- Node2 -->
<g id="node3" class="node">
<title>Node2</title>
<polygon fill="none" stroke="#bfbfbf" points="68,-.5 68,-19.5 130,-19.5 130,-.5 68,-.5"/>
<text text-anchor="middle" x="99" y="-7.5" font-family="Helvetica,sans-Serif" font-size="10.00" fill="#000000">stdbool.h</text>
</g>
<!-- Node0&#45;&gt;Node2 -->
<g id="edge2" class="edge">
<title>Node0&#45;&gt;Node2</title>
<path fill="none" stroke="#191970" d="M473.9571,-70.1745C397.9579,-61.2401 264.0355,-44.0648 140.3959,-20.125"/>
<polygon fill="#191970" stroke="#191970" points="140.8608,-16.6496 130.375,-18.1651 139.5172,-23.5195 140.8608,-16.6496"/>
</g>
<!-- Node3 -->
<g id="node4" class="node">
<title>Node3</title>
<polygon fill="none" stroke="#bfbfbf" points="148,-.5 148,-19.5 204,-19.5 204,-.5 148,-.5"/>
<text text-anchor="middle" x="176" y="-7.5" font-family="Helvetica,sans-Serif" font-size="10.00" fill="#000000">unistd.h</text>
</g>
<!-- Node0&#45;&gt;Node3 -->
<g id="edge3" class="edge">
<title>Node0&#45;&gt;Node3</title>
<path fill="none" stroke="#191970" d="M473.848,-67.832C410.9965,-58.0362 310.1494,-41.2849 214.0955,-20.1014"/>
<polygon fill="#191970" stroke="#191970" points="214.7393,-16.6591 204.2177,-17.9032 213.2187,-23.4919 214.7393,-16.6591"/>
</g>
<!-- Node4 -->
<g id="node5" class="node">
<title>Node4</title>
<polygon fill="none" stroke="#bfbfbf" points="222.5,-.5 222.5,-19.5 277.5,-19.5 277.5,-.5 222.5,-.5"/>
<text text-anchor="middle" x="250" y="-7.5" font-family="Helvetica,sans-Serif" font-size="10.00" fill="#000000">signal.h</text>
</g>
<!-- Node0&#45;&gt;Node4 -->
<g id="edge4" class="edge">
<title>Node0&#45;&gt;Node4</title>
<path fill="none" stroke="#191970" d="M473.9493,-63.6476C425.9153,-52.9864 357.0623,-37.3628 287.6471,-20.096"/>
<polygon fill="#191970" stroke="#191970" points="288.4009,-16.6768 277.8507,-17.649 286.7044,-23.4681 288.4009,-16.6768"/>
</g>
<!-- Node5 -->
<g id="node6" class="node">
<title>Node5</title>
<polygon fill="none" stroke="#bfbfbf" points="296,-.5 296,-19.5 350,-19.5 350,-.5 296,-.5"/>
<text text-anchor="middle" x="323" y="-7.5" font-family="Helvetica,sans-Serif" font-size="10.00" fill="#000000">dirent.h</text>
</g>
<!-- Node0&#45;&gt;Node5 -->
<g id="edge5" class="edge">
<title>Node0&#45;&gt;Node5</title>
<path fill="none" stroke="#191970" d="M473.9652,-57.7107C437.0994,-46.0597 391.3261,-31.5936 359.9058,-21.6636"/>
<polygon fill="#191970" stroke="#191970" points="360.8281,-18.2845 350.2382,-18.6083 358.7186,-24.9591 360.8281,-18.2845"/>
</g>
<!-- Node6 -->
<g id="node7" class="node">
<title>Node6</title>
<polygon fill="none" stroke="#bfbfbf" points="368.5,-.5 368.5,-19.5 419.5,-19.5 419.5,-.5 368.5,-.5"/>
<text text-anchor="middle" x="394" y="-7.5" font-family="Helvetica,sans-Serif" font-size="10.00" fill="#000000">errno.h</text>
</g>
<!-- Node0&#45;&gt;Node6 -->
<g id="edge6" class="edge">
<title>Node0&#45;&gt;Node6</title>
<path fill="none" stroke="#191970" d="M491.5448,-56.3511C469.4319,-45.8435 443.1349,-33.3478 423.4202,-23.9798"/>
<polygon fill="#191970" stroke="#191970" points="424.8523,-20.7853 414.318,-19.6546 421.848,-27.1078 424.8523,-20.7853"/>
</g>
<!-- Node7 -->
<g id="node8" class="node">
<title>Node7</title>
<polygon fill="none" stroke="#bfbfbf" points="437.5,-.5 437.5,-19.5 490.5,-19.5 490.5,-.5 437.5,-.5"/>
<text text-anchor="middle" x="464" y="-7.5" font-family="Helvetica,sans-Serif" font-size="10.00" fill="#000000">stdlib.h</text>
</g>
<!-- Node0&#45;&gt;Node7 -->
<g id="edge7" class="edge">
<title>Node0&#45;&gt;Node7</title>
<path fill="none" stroke="#191970" d="M512.9243,-56.168C502.8747,-46.6846 491.1418,-35.6127 481.6854,-26.689"/>
<polygon fill="#191970" stroke="#191970" points="484.0395,-24.0982 474.3644,-19.7805 479.2352,-29.1893 484.0395,-24.0982"/>
</g>
<!-- Node8 -->
<g id="node9" class="node">
<title>Node8</title>
<polygon fill="none" stroke="#bfbfbf" points="508.5,-.5 508.5,-19.5 561.5,-19.5 561.5,-.5 508.5,-.5"/>
<text text-anchor="middle" x="535" y="-7.5" font-family="Helvetica,sans-Serif" font-size="10.00" fill="#000000">string.h</text>
</g>
<!-- Node0&#45;&gt;Node8 -->
<g id="edge8" class="edge">
<title>Node0&#45;&gt;Node8</title>
<path fill="none" stroke="#191970" d="M535,-56.168C535,-47.8226 535,-38.2471 535,-29.9879"/>
<polygon fill="#191970" stroke="#191970" points="538.5001,-29.7804 535,-19.7805 531.5001,-29.7805 538.5001,-29.7804"/>
</g>
<!-- Node9 -->
<g id="node10" class="node">
<title>Node9</title>
<polygon fill="none" stroke="#bfbfbf" points="579.5,-.5 579.5,-19.5 626.5,-19.5 626.5,-.5 579.5,-.5"/>
<text text-anchor="middle" x="603" y="-7.5" font-family="Helvetica,sans-Serif" font-size="10.00" fill="#000000">fcntl.h</text>
</g>
<!-- Node0&#45;&gt;Node9 -->
<g id="edge9" class="edge">
<title>Node0&#45;&gt;Node9</title>
<path fill="none" stroke="#191970" d="M556.1429,-56.168C565.6716,-46.7794 576.7805,-35.834 585.7895,-26.9574"/>
<polygon fill="#191970" stroke="#191970" points="588.4068,-29.2921 593.0736,-19.7805 583.4938,-24.3058 588.4068,-29.2921"/>
</g>
<!-- Node10 -->
<g id="node11" class="node">
<title>Node10</title>
<polygon fill="none" stroke="#bfbfbf" points="645,-.5 645,-19.5 709,-19.5 709,-.5 645,-.5"/>
<text text-anchor="middle" x="677" y="-7.5" font-family="Helvetica,sans-Serif" font-size="10.00" fill="#000000">sys/stat.h</text>
</g>
<!-- Node0&#45;&gt;Node10 -->
<g id="edge10" class="edge">
<title>Node0&#45;&gt;Node10</title>
<path fill="none" stroke="#191970" d="M578.7634,-56.3511C601.0331,-45.8435 627.5166,-33.3478 647.3712,-23.9798"/>
<polygon fill="#191970" stroke="#191970" points="648.9876,-27.0872 656.5379,-19.6546 646.0005,-20.7565 648.9876,-27.0872"/>
</g>
<!-- Node11 -->
<g id="node12" class="node">
<title>Node11</title>
<g id="a_node12"><a xlink:href="defines_8h.html" target="_top" xlink:title="Contiene la definizioni di variabili e funzioni specifiche del progetto. ">
<polygon fill="none" stroke="#000000" points="727.5,-.5 727.5,-19.5 788.5,-19.5 788.5,-.5 727.5,-.5"/>
<text text-anchor="middle" x="758" y="-7.5" font-family="Helvetica,sans-Serif" font-size="10.00" fill="#000000">defines.h</text>
</a>
</g>
</g>
<!-- Node0&#45;&gt;Node11 -->
<g id="edge11" class="edge">
<title>Node0&#45;&gt;Node11</title>
<path fill="none" stroke="#191970" d="M596.2307,-58.6033C634.7916,-47.0178 683.4976,-32.3841 717.3409,-22.216"/>
<polygon fill="#191970" stroke="#191970" points="718.7692,-25.4415 727.3392,-19.212 716.755,-18.7375 718.7692,-25.4415"/>
</g>
<!-- Node12 -->
<g id="node13" class="node">
<title>Node12</title>
<g id="a_node13"><a xlink:href="err__exit_8h.html" target="_top" xlink:title="Contiene la definizione della funzione di stampa degli errori. ">
<polygon fill="none" stroke="#000000" points="806.5,-.5 806.5,-19.5 869.5,-19.5 869.5,-.5 806.5,-.5"/>
<text text-anchor="middle" x="838" y="-7.5" font-family="Helvetica,sans-Serif" font-size="10.00" fill="#000000">err_exit.h</text>
</a>
</g>
</g>
<!-- Node0&#45;&gt;Node12 -->
<g id="edge12" class="edge">
<title>Node0&#45;&gt;Node12</title>
<path fill="none" stroke="#191970" d="M596.2359,-64.2994C647.3231,-53.5733 722.2907,-37.5326 796.1988,-20.377"/>
<polygon fill="#191970" stroke="#191970" points="797.2001,-23.7376 806.1452,-18.0599 795.6118,-16.9201 797.2001,-23.7376"/>
</g>
<!-- Node13 -->
<g id="node14" class="node">
<title>Node13</title>
<g id="a_node14"><a xlink:href="signals_8h.html" target="_top" xlink:title="Contiene la definizioni di variabili e funzioni specifiche per la gestione dei SEGNALI. ">
<polygon fill="none" stroke="#000000" points="888,-.5 888,-19.5 948,-19.5 948,-.5 888,-.5"/>
<text text-anchor="middle" x="918" y="-7.5" font-family="Helvetica,sans-Serif" font-size="10.00" fill="#000000">signals.h</text>
</a>
</g>
</g>
<!-- Node0&#45;&gt;Node13 -->
<g id="edge13" class="edge">
<title>Node0&#45;&gt;Node13</title>
<path fill="none" stroke="#191970" d="M596.1957,-68.4986C663.0607,-58.842 773.4969,-41.8187 877.7582,-20.1261"/>
<polygon fill="#191970" stroke="#191970" points="878.7595,-23.4922 887.8271,-18.0123 877.3213,-16.6416 878.7595,-23.4922"/>
</g>
<!-- Node14 -->
<g id="node15" class="node">
<title>Node14</title>
<g id="a_node15"><a xlink:href="files_8h.html" target="_top" xlink:title="Contiene la definizioni di variabili e funzioni specifiche per la gestione dei FILE. ">
<polygon fill="none" stroke="#000000" points="966,-.5 966,-19.5 1012,-19.5 1012,-.5 966,-.5"/>
<text text-anchor="middle" x="989" y="-7.5" font-family="Helvetica,sans-Serif" font-size="10.00" fill="#000000">files.h</text>
</a>
</g>
</g>
<!-- Node0&#45;&gt;Node14 -->
<g id="edge14" class="edge">
<title>Node0&#45;&gt;Node14</title>
<path fill="none" stroke="#191970" d="M596.0151,-72.0136C676.5672,-64.7112 822.8006,-48.9669 955.7492,-19.9799"/>
<polygon fill="#191970" stroke="#191970" points="956.6956,-23.3553 965.7041,-17.7788 955.1843,-16.5203 956.6956,-23.3553"/>
</g>
<!-- Node15 -->
<g id="node16" class="node">
<title>Node15</title>
<g id="a_node16"><a xlink:href="client_8h.html" target="_top" xlink:title="Contiene la definizioni di variabili e funzioni specifiche del CLIENT. ">
<polygon fill="none" stroke="#000000" points="1030.5,-.5 1030.5,-19.5 1083.5,-19.5 1083.5,-.5 1030.5,-.5"/>
<text text-anchor="middle" x="1057" y="-7.5" font-family="Helvetica,sans-Serif" font-size="10.00" fill="#000000">client.h</text>
</a>
</g>
</g>
<!-- Node0&#45;&gt;Node15 -->
<g id="edge15" class="edge">
<title>Node0&#45;&gt;Node15</title>
<path fill="none" stroke="#191970" d="M596.0807,-72.8742C686.7468,-66.0817 862.3089,-50.3648 1020.4631,-19.827"/>
<polygon fill="#191970" stroke="#191970" points="1021.2306,-23.2432 1030.3731,-17.8893 1019.8873,-16.3733 1021.2306,-23.2432"/>
</g>
</g>
</svg>
