<?xml version="1.0" encoding="UTF-8" standalone="no"?>
<!DOCTYPE svg PUBLIC "-//W3C//DTD SVG 1.1//EN"
 "http://www.w3.org/Graphics/SVG/1.1/DTD/svg11.dtd">
<!-- Generated by graphviz version 2.40.1 (20161225.0304)
 -->
<!-- Title: operazioni_figlio Pages: 1 -->
<svg width="566pt" height="353pt"
 viewBox="0.00 0.00 566.00 353.00" xmlns="http://www.w3.org/2000/svg" xmlns:xlink="http://www.w3.org/1999/xlink">
<g id="graph0" class="graph" transform="scale(1 1) rotate(0) translate(4 349.0022)">
<title>operazioni_figlio</title>
<!-- Node88 -->
<g id="node1" class="node">
<title>Node88</title>
<polygon fill="#bfbfbf" stroke="#000000" points="0,-195.5 0,-214.5 97,-214.5 97,-195.5 0,-195.5"/>
<text text-anchor="middle" x="48.5" y="-202.5" font-family="Helvetica,sans-Serif" font-size="10.00" fill="#000000">operazioni_figlio</text>
</g>
<!-- Node89 -->
<g id="node2" class="node">
<title>Node89</title>
<g id="a_node2"><a xlink:href="err__exit_8c.html#aa223b0ecfe538d130ece562646a37d27" target="_top" xlink:title="Prints the error message of the last failed system call and terminates the calling process...">
<polygon fill="none" stroke="#000000" points="509,-133.5 509,-152.5 558,-152.5 558,-133.5 509,-133.5"/>
<text text-anchor="middle" x="533.5" y="-140.5" font-family="Helvetica,sans-Serif" font-size="10.00" fill="#000000">ErrExit</text>
</a>
</g>
</g>
<!-- Node88&#45;&gt;Node89 -->
<g id="edge1" class="edge">
<title>Node88&#45;&gt;Node89</title>
<path fill="none" stroke="#191970" d="M55.733,-214.7648C69.0757,-232.0894 99.297,-268.2362 133,-288 224.3564,-341.5724 264.3005,-358.8616 367,-333 418.8711,-319.9379 436.4542,-315.0594 473,-276 504.2125,-242.6407 521.451,-190.3957 528.9296,-162.3463"/>
<polygon fill="#191970" stroke="#191970" points="532.3469,-163.1086 531.4017,-152.556 525.5599,-161.3948 532.3469,-163.1086"/>
</g>
<!-- Node90 -->
<g id="node3" class="node">
<title>Node90</title>
<g id="a_node3"><a xlink:href="files_8c.html#a096f8e9259afb2839ebe6822364f9928" target="_top" xlink:title="Restituisce la dimensione in byte del file con percorso filePath. ">
<polygon fill="none" stroke="#000000" points="157.5,-157.5 157.5,-176.5 226.5,-176.5 226.5,-157.5 157.5,-157.5"/>
<text text-anchor="middle" x="192" y="-164.5" font-family="Helvetica,sans-Serif" font-size="10.00" fill="#000000">getFileSize</text>
</a>
</g>
</g>
<!-- Node88&#45;&gt;Node90 -->
<g id="edge2" class="edge">
<title>Node88&#45;&gt;Node90</title>
<path fill="none" stroke="#191970" d="M84.7111,-195.411C103.7467,-190.3702 127.2472,-184.1471 147.3972,-178.8112"/>
<polygon fill="#191970" stroke="#191970" points="148.5147,-182.136 157.2855,-176.1927 146.7227,-175.3692 148.5147,-182.136"/>
</g>
<!-- Node91 -->
<g id="node4" class="node">
<title>Node91</title>
<g id="a_node4"><a xlink:href="client_8c.html#a55586f2b7e9b3620294cf78cda8abdad" target="_top" xlink:title="Divide in 4 parti il contenuto del file da inviare al server. ">
<polygon fill="none" stroke="#000000" points="170,-119.5 170,-138.5 214,-138.5 214,-119.5 170,-119.5"/>
<text text-anchor="middle" x="192" y="-126.5" font-family="Helvetica,sans-Serif" font-size="10.00" fill="#000000">dividi</text>
</a>
</g>
</g>
<!-- Node88&#45;&gt;Node91 -->
<g id="edge3" class="edge">
<title>Node88&#45;&gt;Node91</title>
<path fill="none" stroke="#191970" d="M60.4315,-195.3455C76.223,-182.9567 105.3082,-161.462 133,-148 141.5084,-143.8638 151.131,-140.3277 160.0992,-137.4673"/>
<polygon fill="#191970" stroke="#191970" points="161.2869,-140.765 169.8522,-134.5291 159.2677,-134.0625 161.2869,-140.765"/>
</g>
<!-- Node92 -->
<g id="node5" class="node">
<title>Node92</title>
<g id="a_node5"><a xlink:href="semaphore_8c.html#a2581efba6a0833e3f289de94c779cc21" target="_top" xlink:title="Esegue la wait sul semaforo sem_num: decrementa il valore di 1 ed eventualmente mette in attesa il pr...">
<polygon fill="none" stroke="#000000" points="297.5,-304.5 297.5,-323.5 356.5,-323.5 356.5,-304.5 297.5,-304.5"/>
<text text-anchor="middle" x="327" y="-311.5" font-family="Helvetica,sans-Serif" font-size="10.00" fill="#000000">semWait</text>
</a>
</g>
</g>
<!-- Node88&#45;&gt;Node92 -->
<g id="edge4" class="edge">
<title>Node88&#45;&gt;Node92</title>
<path fill="none" stroke="#191970" d="M62.2991,-214.5718C78.5902,-225.5329 106.791,-243.4598 133,-255 184.5714,-277.7076 247.4959,-295.085 287.4145,-304.9201"/>
<polygon fill="#191970" stroke="#191970" points="286.7503,-308.3604 297.2935,-307.3156 288.3999,-301.5575 286.7503,-308.3604"/>
</g>
<!-- Node94 -->
<g id="node7" class="node">
<title>Node94</title>
<g id="a_node7"><a xlink:href="semaphore_8c.html#a40485eedbf6d56f7fd27bce5a537efbe" target="_top" xlink:title="Attende che il semaforo sem_num raggiunga il valore zero. ">
<polygon fill="none" stroke="#000000" points="151,-195.5 151,-214.5 233,-214.5 233,-195.5 151,-195.5"/>
<text text-anchor="middle" x="192" y="-202.5" font-family="Helvetica,sans-Serif" font-size="10.00" fill="#000000">semWaitZero</text>
</a>
</g>
</g>
<!-- Node88&#45;&gt;Node94 -->
<g id="edge7" class="edge">
<title>Node88&#45;&gt;Node94</title>
<path fill="none" stroke="#191970" d="M97.0826,-205C111.0843,-205 126.4046,-205 140.5727,-205"/>
<polygon fill="#191970" stroke="#191970" points="140.6503,-208.5001 150.6503,-205 140.6503,-201.5001 140.6503,-208.5001"/>
</g>
<!-- Node95 -->
<g id="node8" class="node">
<title>Node95</title>
<g id="a_node8"><a xlink:href="semaphore_8c.html#a7bad0eb0b0c6ac701b59c36b8b7837bf" target="_top" xlink:title="Esegue la signal sul semaforo sem_num: incrementa il valore di 1. ">
<polygon fill="none" stroke="#000000" points="293,-266.5 293,-285.5 361,-285.5 361,-266.5 293,-266.5"/>
<text text-anchor="middle" x="327" y="-273.5" font-family="Helvetica,sans-Serif" font-size="10.00" fill="#000000">semSignal</text>
</a>
</g>
</g>
<!-- Node88&#45;&gt;Node95 -->
<g id="edge24" class="edge">
<title>Node88&#45;&gt;Node95</title>
<path fill="none" stroke="#191970" d="M85.7708,-214.5017C136.8407,-227.5213 228.421,-250.8685 282.8598,-264.747"/>
<polygon fill="#191970" stroke="#191970" points="282.0197,-268.1447 292.5744,-267.2236 283.749,-261.3617 282.0197,-268.1447"/>
</g>
<!-- Node101 -->
<g id="node14" class="node">
<title>Node101</title>
<g id="a_node14"><a xlink:href="defines_8c.html#ac281b05b7a90ba292f5748cbfe3c389d" target="_top" xlink:title="Restituisce vero se l&#39;array contiene tutti true. ">
<polygon fill="none" stroke="#000000" points="133,-81.5 133,-100.5 251,-100.5 251,-81.5 133,-81.5"/>
<text text-anchor="middle" x="192" y="-88.5" font-family="Helvetica,sans-Serif" font-size="10.00" fill="#000000">arrayContainsAllTrue</text>
</a>
</g>
</g>
<!-- Node88&#45;&gt;Node101 -->
<g id="edge23" class="edge">
<title>Node88&#45;&gt;Node101</title>
<path fill="none" stroke="#191970" d="M54.4648,-195.3926C66.7877,-176.3222 96.9416,-133.5053 133,-110 136.1129,-107.9708 139.4596,-106.1433 142.9202,-104.5"/>
<polygon fill="#191970" stroke="#191970" points="144.4047,-107.6727 152.2648,-100.5685 141.6901,-101.2205 144.4047,-107.6727"/>
</g>
<!-- Node93 -->
<g id="node6" class="node">
<title>Node93</title>
<g id="a_node6"><a xlink:href="semaphore_8c.html#a77c6570406059144bb6a8ecf04f481da" target="_top" xlink:title="Funzione di supporto per manipolare i valori di un set di semafori. ">
<polygon fill="none" stroke="#000000" points="412.5,-247.5 412.5,-266.5 463.5,-266.5 463.5,-247.5 412.5,-247.5"/>
<text text-anchor="middle" x="438" y="-254.5" font-family="Helvetica,sans-Serif" font-size="10.00" fill="#000000">semOp</text>
</a>
</g>
</g>
<!-- Node92&#45;&gt;Node93 -->
<g id="edge5" class="edge">
<title>Node92&#45;&gt;Node93</title>
<path fill="none" stroke="#191970" d="M347.8528,-304.3266C354.0454,-301.3917 360.823,-298.1178 367,-295 381.8642,-287.4974 398.2643,-278.7514 411.5543,-271.5426"/>
<polygon fill="#191970" stroke="#191970" points="413.5093,-274.4633 420.6154,-266.6049 410.1598,-268.3167 413.5093,-274.4633"/>
</g>
<!-- Node93&#45;&gt;Node89 -->
<g id="edge6" class="edge">
<title>Node93&#45;&gt;Node89</title>
<path fill="none" stroke="#191970" d="M447.1142,-247.4899C454.2949,-239.9062 464.4809,-228.945 473,-219 489.6922,-199.514 507.9121,-176.3465 519.9484,-160.7556"/>
<polygon fill="#191970" stroke="#191970" points="522.9459,-162.5989 526.2624,-152.5365 517.3948,-158.3345 522.9459,-162.5989"/>
</g>
<!-- Node94&#45;&gt;Node89 -->
<g id="edge14" class="edge">
<title>Node94&#45;&gt;Node89</title>
<path fill="none" stroke="#191970" d="M233.1368,-196.7369C239.6286,-194.0925 245.8774,-190.6034 251,-186 280.3023,-159.668 253.9672,-126.4671 287,-105 356.8025,-59.6372 460.7869,-103.8407 508.244,-128.6671"/>
<polygon fill="#191970" stroke="#191970" points="506.7521,-131.8386 517.218,-133.4867 510.0641,-125.6717 506.7521,-131.8386"/>
</g>
<!-- Node94&#45;&gt;Node92 -->
<g id="edge9" class="edge">
<title>Node94&#45;&gt;Node92</title>
<path fill="none" stroke="#191970" d="M200.341,-214.7149C215.9421,-232.442 251.2081,-270.4654 287,-295 289.378,-296.63 291.9176,-298.1902 294.5204,-299.6661"/>
<polygon fill="#191970" stroke="#191970" points="292.9861,-302.8132 303.4707,-304.3376 296.2251,-296.6077 292.9861,-302.8132"/>
</g>
<!-- Node94&#45;&gt;Node93 -->
<g id="edge8" class="edge">
<title>Node94&#45;&gt;Node93</title>
<path fill="none" stroke="#191970" d="M233.1749,-213.7036C280.5061,-223.7086 357.4218,-239.9672 402.3107,-249.4559"/>
<polygon fill="#191970" stroke="#191970" points="401.6807,-252.9 412.1884,-251.5439 403.1285,-246.0514 401.6807,-252.9"/>
</g>
<!-- Node94&#45;&gt;Node95 -->
<g id="edge10" class="edge">
<title>Node94&#45;&gt;Node95</title>
<path fill="none" stroke="#191970" d="M210.2067,-214.5754C233.1542,-226.6441 272.8143,-247.5023 299.4725,-261.5226"/>
<polygon fill="#191970" stroke="#191970" points="298.1708,-264.7925 308.6506,-266.3496 301.4292,-258.597 298.1708,-264.7925"/>
</g>
<!-- Node96 -->
<g id="node9" class="node">
<title>Node96</title>
<g id="a_node9"><a xlink:href="semaphore_8c.html#aad78dc4ccefb184a74dd9ef808df8db6" target="_top" xlink:title="Inizializza il valore del semaforo sem_num al valore val. ">
<polygon fill="none" stroke="#000000" points="404,-38.5 404,-57.5 472,-57.5 472,-38.5 404,-38.5"/>
<text text-anchor="middle" x="438" y="-45.5" font-family="Helvetica,sans-Serif" font-size="10.00" fill="#000000">semSetVal</text>
</a>
</g>
</g>
<!-- Node94&#45;&gt;Node96 -->
<g id="edge12" class="edge">
<title>Node94&#45;&gt;Node96</title>
<path fill="none" stroke="#191970" d="M233.2844,-197.3357C239.8369,-194.6262 246.068,-190.96 251,-186 288.464,-148.323 246.75,-106.685 287,-72 316.0313,-46.9826 360.3438,-42.5498 393.4678,-43.4404"/>
<polygon fill="#191970" stroke="#191970" points="393.6508,-46.9519 403.7957,-43.8973 393.9602,-39.9587 393.6508,-46.9519"/>
</g>
<!-- Node97 -->
<g id="node10" class="node">
<title>Node97</title>
<g id="a_node10"><a xlink:href="semaphore_8c.html#a8df9b8ea63eaf93d09f437b356a4a1eb" target="_top" xlink:title="Inizializza i valori del set di semafori semid ai valori in values. ">
<polygon fill="none" stroke="#000000" points="405,-.5 405,-19.5 471,-19.5 471,-.5 405,-.5"/>
<text text-anchor="middle" x="438" y="-7.5" font-family="Helvetica,sans-Serif" font-size="10.00" fill="#000000">semSetAll</text>
</a>
</g>
</g>
<!-- Node94&#45;&gt;Node97 -->
<g id="edge15" class="edge">
<title>Node94&#45;&gt;Node97</title>
<path fill="none" stroke="#191970" d="M233.2459,-197.7147C239.8822,-194.9673 246.152,-191.1904 251,-186 296.3247,-137.4742 239.0978,-86.9833 287,-41 315.4316,-13.7073 361.1212,-7.5567 394.8046,-7.2556"/>
<polygon fill="#191970" stroke="#191970" points="394.8135,-10.7557 404.8403,-7.333 394.8676,-3.7559 394.8135,-10.7557"/>
</g>
<!-- Node98 -->
<g id="node11" class="node">
<title>Node98</title>
<g id="a_node11"><a xlink:href="semaphore_8c.html#a530566146b6e3cc8415d8ae4259fd68f" target="_top" xlink:title="Cancella il set di semafori svegliando eventuali processi in attesa. ">
<polygon fill="none" stroke="#000000" points="403,-190.5 403,-209.5 473,-209.5 473,-190.5 403,-190.5"/>
<text text-anchor="middle" x="438" y="-197.5" font-family="Helvetica,sans-Serif" font-size="10.00" fill="#000000">semDelete</text>
</a>
</g>
</g>
<!-- Node94&#45;&gt;Node98 -->
<g id="edge17" class="edge">
<title>Node94&#45;&gt;Node98</title>
<path fill="none" stroke="#191970" d="M233.1749,-204.1631C277.2069,-203.2682 346.8427,-201.8528 392.4777,-200.9252"/>
<polygon fill="#191970" stroke="#191970" points="392.7548,-204.4204 402.6816,-200.7179 392.6125,-197.4219 392.7548,-204.4204"/>
</g>
<!-- Node99 -->
<g id="node12" class="node">
<title>Node99</title>
<g id="a_node12"><a xlink:href="semaphore_8c.html#a7d80413e893e7d9ae3d153e23c2df2e4" target="_top" xlink:title="Recupera statistiche di un set di semafori. ">
<polygon fill="none" stroke="#000000" points="287,-152.5 287,-171.5 367,-171.5 367,-152.5 287,-152.5"/>
<text text-anchor="middle" x="327" y="-159.5" font-family="Helvetica,sans-Serif" font-size="10.00" fill="#000000">semGetStats</text>
</a>
</g>
</g>
<!-- Node94&#45;&gt;Node99 -->
<g id="edge19" class="edge">
<title>Node94&#45;&gt;Node99</title>
<path fill="none" stroke="#191970" d="M221.9609,-195.4569C241.274,-189.3053 266.599,-181.2388 287.543,-174.5678"/>
<polygon fill="#191970" stroke="#191970" points="288.6568,-177.8864 297.1229,-171.5164 286.5323,-171.2165 288.6568,-177.8864"/>
</g>
<!-- Node100 -->
<g id="node13" class="node">
<title>Node100</title>
<g id="a_node13"><a xlink:href="semaphore_8c.html#a34a010b0a39236a7261d7d5103426491" target="_top" xlink:title="Imposta i permessi su un set di semafori. ">
<polygon fill="none" stroke="#000000" points="287.5,-114.5 287.5,-133.5 366.5,-133.5 366.5,-114.5 287.5,-114.5"/>
<text text-anchor="middle" x="327" y="-121.5" font-family="Helvetica,sans-Serif" font-size="10.00" fill="#000000">semSetPerm</text>
</a>
</g>
</g>
<!-- Node94&#45;&gt;Node100 -->
<g id="edge21" class="edge">
<title>Node94&#45;&gt;Node100</title>
<path fill="none" stroke="#191970" d="M232.1413,-195.4604C238.7437,-192.9579 245.2874,-189.8469 251,-186 271.6739,-172.0779 267.2886,-158.2543 287,-143 289.0216,-141.4355 291.1929,-139.9569 293.4408,-138.5682"/>
<polygon fill="#191970" stroke="#191970" points="295.2669,-141.5582 302.3364,-133.6669 291.8888,-135.4273 295.2669,-141.5582"/>
</g>
<!-- Node95&#45;&gt;Node93 -->
<g id="edge11" class="edge">
<title>Node95&#45;&gt;Node93</title>
<path fill="none" stroke="#191970" d="M361.2094,-270.1443C374.1773,-267.9246 388.9731,-265.392 402.0931,-263.1462"/>
<polygon fill="#191970" stroke="#191970" points="402.9226,-266.5552 412.1888,-261.4181 401.7416,-259.6556 402.9226,-266.5552"/>
</g>
<!-- Node96&#45;&gt;Node89 -->
<g id="edge13" class="edge">
<title>Node96&#45;&gt;Node89</title>
<path fill="none" stroke="#191970" d="M453.9897,-57.6807C460.1982,-61.761 467.1964,-66.774 473,-72 491.1081,-88.3059 508.8305,-109.9721 520.3648,-125.0641"/>
<polygon fill="#191970" stroke="#191970" points="517.5946,-127.2039 526.397,-133.1002 523.1928,-123.0015 517.5946,-127.2039"/>
</g>
<!-- Node97&#45;&gt;Node89 -->
<g id="edge16" class="edge">
<title>Node97&#45;&gt;Node89</title>
<path fill="none" stroke="#191970" d="M460.4575,-19.6436C464.9558,-22.2441 469.3993,-25.3652 473,-29 487.395,-43.5315 512.0303,-95.3213 524.9772,-123.833"/>
<polygon fill="#191970" stroke="#191970" points="521.8837,-125.4878 529.1777,-133.172 528.2677,-122.6163 521.8837,-125.4878"/>
</g>
<!-- Node98&#45;&gt;Node89 -->
<g id="edge18" class="edge">
<title>Node98&#45;&gt;Node89</title>
<path fill="none" stroke="#191970" d="M454.2003,-190.3307C469.1074,-181.4333 491.4401,-168.1038 508.6107,-157.8554"/>
<polygon fill="#191970" stroke="#191970" points="510.746,-160.657 517.539,-152.5265 507.1584,-154.6462 510.746,-160.657"/>
</g>
<!-- Node99&#45;&gt;Node89 -->
<g id="edge20" class="edge">
<title>Node99&#45;&gt;Node89</title>
<path fill="none" stroke="#191970" d="M367.3055,-158.2915C405.55,-154.7726 462.4263,-149.5395 498.7307,-146.1991"/>
<polygon fill="#191970" stroke="#191970" points="499.2055,-149.6703 508.8428,-145.2687 498.5641,-142.6997 499.2055,-149.6703"/>
</g>
<!-- Node100&#45;&gt;Node89 -->
<g id="edge22" class="edge">
<title>Node100&#45;&gt;Node89</title>
<path fill="none" stroke="#191970" d="M366.8153,-127.6634C405.0033,-131.1771 462.0935,-136.4299 498.561,-139.7853"/>
<polygon fill="#191970" stroke="#191970" points="498.4409,-143.2889 508.7195,-140.72 499.0823,-136.3184 498.4409,-143.2889"/>
</g>
</g>
</svg>
