<?xml version="1.0" encoding="UTF-8" standalone="no"?>
<!DOCTYPE svg PUBLIC "-//W3C//DTD SVG 1.1//EN"
 "http://www.w3.org/Graphics/SVG/1.1/DTD/svg11.dtd">
<!-- Generated by graphviz version 2.40.1 (20161225.0304)
 -->
<!-- Title: main Pages: 1 -->
<svg width="336pt" height="28pt"
 viewBox="0.00 0.00 336.00 28.00" xmlns="http://www.w3.org/2000/svg" xmlns:xlink="http://www.w3.org/1999/xlink">
<g id="graph0" class="graph" transform="scale(1 1) rotate(0) translate(4 24)">
<title>main</title>
<!-- Node5 -->
<g id="node1" class="node">
<title>Node5</title>
<polygon fill="#bfbfbf" stroke="#000000" points="0,-.5 0,-19.5 41,-19.5 41,-.5 0,-.5"/>
<text text-anchor="middle" x="20.5" y="-7.5" font-family="Helvetica,sans-Serif" font-size="10.00" fill="#000000">main</text>
</g>
<!-- Node6 -->
<g id="node2" class="node">
<title>Node6</title>
<g id="a_node2"><a xlink:href="client_8h.html#a54b47b58f228d7bc9827d2919687e25a" target="_top" xlink:title="Funzione eseguita da ogni Client i (figli di Client 0) per mandare i file al server. ">
<polygon fill="none" stroke="#000000" points="77,-.5 77,-19.5 174,-19.5 174,-.5 77,-.5"/>
<text text-anchor="middle" x="125.5" y="-7.5" font-family="Helvetica,sans-Serif" font-size="10.00" fill="#000000">operazioni_figlio</text>
</a>
</g>
</g>
<!-- Node5&#45;&gt;Node6 -->
<g id="edge1" class="edge">
<title>Node5&#45;&gt;Node6</title>
<path fill="none" stroke="#191970" d="M51.2833,-10C59.3457,-10 68.2375,-10 76.9812,-10"/>
<polygon fill="#191970" stroke="#191970" points="51.2447,-6.5001 41.2446,-10 51.2446,-13.5001 51.2447,-6.5001"/>
</g>
<!-- Node7 -->
<g id="node3" class="node">
<title>Node7</title>
<g id="a_node3"><a xlink:href="client_8h.html#a48d605ff689f470746c858648f0a98c2" target="_top" xlink:title="Handler del segnale SIGINT. ">
<polygon fill="none" stroke="#000000" points="210,-.5 210,-19.5 328,-19.5 328,-.5 210,-.5"/>
<text text-anchor="middle" x="269" y="-7.5" font-family="Helvetica,sans-Serif" font-size="10.00" fill="#000000">SIGINTSignalHandler</text>
</a>
</g>
</g>
<!-- Node6&#45;&gt;Node7 -->
<g id="edge2" class="edge">
<title>Node6&#45;&gt;Node7</title>
<path fill="none" stroke="#191970" d="M184.2134,-3.35C192.6468,-3.2193 201.3289,-3.2167 209.7722,-3.3422"/>
<polygon fill="#191970" stroke="#191970" points="184.0031,.1463 174.0826,-3.573 184.1572,-6.852 184.0031,.1463"/>
</g>
<!-- Node7&#45;&gt;Node6 -->
<g id="edge3" class="edge">
<title>Node7&#45;&gt;Node6</title>
<path fill="none" stroke="#191970" d="M199.6696,-16.7466C191.0197,-16.771 182.3228,-16.6645 174.0826,-16.427"/>
<polygon fill="#191970" stroke="#191970" points="199.8034,-20.2456 209.7722,-16.6578 199.7418,-13.2459 199.8034,-20.2456"/>
</g>
</g>
</svg>
