<?xml version="1.0" encoding="UTF-8" standalone="no"?>
<!DOCTYPE svg PUBLIC "-//W3C//DTD SVG 1.1//EN"
 "http://www.w3.org/Graphics/SVG/1.1/DTD/svg11.dtd">
<!-- Generated by graphviz version 2.40.1 (20161225.0304)
 -->
<!-- Title: operazioni_figlio Pages: 1 -->
<!--zoomable 365 -->
<svg id="main" version="1.1" xmlns="http://www.w3.org/2000/svg" xmlns:xlink="http://www.w3.org/1999/xlink" xml:space="preserve" onload="init(evt)">
<style type="text/css"><![CDATA[
.edge:hover path { stroke: red; }
.edge:hover polygon { stroke: red; fill: red; }
]]></style>
<script type="text/javascript"><![CDATA[
var edges = document.getElementsByTagName('g');
if (edges && edges.length) {
  for (var i=0;i<edges.length;i++) {
    if (edges[i].id.substr(0,4)=='edge') {
      edges[i].setAttribute('class','edge');
    }
  }
}
]]></script>
        <defs>
                <circle id="rim" cx="0" cy="0" r="7"/>
                <circle id="rim2" cx="0" cy="0" r="3.5"/>
                <g id="zoomPlus">
                        <use xlink:href="#rim" fill="#404040">
                                <set attributeName="fill" to="#808080" begin="zoomplus.mouseover" end="zoomplus.mouseout"/>
                        </use>
                        <path d="M-4,0h8M0,-4v8" fill="none" stroke="white" stroke-width="1.5" pointer-events="none"/>
                </g>
                <g id="zoomMin">
                        <use xlink:href="#rim" fill="#404040">
                                <set attributeName="fill" to="#808080" begin="zoomminus.mouseover" end="zoomminus.mouseout"/>
                        </use>
                        <path d="M-4,0h8" fill="none" stroke="white" stroke-width="1.5" pointer-events="none"/>
                </g>
                <g id="dirArrow">
                        <path fill="none" stroke="white" stroke-width="1.5" d="M0,-3.0v7 M-2.5,-0.5L0,-3.0L2.5,-0.5"/>
                </g>
               <g id="resetDef">
                       <use xlink:href="#rim2" fill="#404040">
                               <set attributeName="fill" to="#808080" begin="reset.mouseover" end="reset.mouseout"/>
                       </use>
               </g>
        </defs>

<script type="text/javascript">
var viewWidth = 566;
var viewHeight = 365;
var sectionId = 'dynsection-6';
</script>
<script xlink:href="svgpan.js"/>
<svg id="graph" class="graph">
<g id="viewport">
<title>operazioni_figlio</title>
<!-- Node94 -->
<g id="node1" class="node">
<title>Node94</title>
<polygon fill="#bfbfbf" stroke="#000000" points="0,-247.5 0,-266.5 97,-266.5 97,-247.5 0,-247.5"/>
<text text-anchor="middle" x="48.5" y="-254.5" font-family="Helvetica,sans-Serif" font-size="10.00" fill="#000000">operazioni_figlio</text>
</g>
<!-- Node95 -->
<g id="node2" class="node">
<title>Node95</title>
<g id="a_node2"><a xlink:href="err__exit_8c.html#aa223b0ecfe538d130ece562646a37d27" target="_top" xlink:title="Prints the error message of the last failed system call and terminates the calling process...">
<polygon fill="none" stroke="#000000" points="509,-133.5 509,-152.5 558,-152.5 558,-133.5 509,-133.5"/>
<text text-anchor="middle" x="533.5" y="-140.5" font-family="Helvetica,sans-Serif" font-size="10.00" fill="#000000">ErrExit</text>
</a>
</g>
</g>
<!-- Node94&#45;&gt;Node95 -->
<g id="edge1" class="edge">
<title>Node94&#45;&gt;Node95</title>
<path fill="none" stroke="#191970" d="M55.2711,-266.6006C68.0944,-283.8408 97.8135,-319.5043 133,-333 230.1026,-370.2436 266.1485,-358.3963 367,-333 418.8711,-319.9379 436.4542,-315.0594 473,-276 504.2125,-242.6407 521.451,-190.3957 528.9296,-162.3463"/>
<polygon fill="#191970" stroke="#191970" points="532.3469,-163.1086 531.4017,-152.556 525.5599,-161.3948 532.3469,-163.1086"/>
</g>
<!-- Node96 -->
<g id="node3" class="node">
<title>Node96</title>
<g id="a_node3"><a xlink:href="files_8c.html#a096f8e9259afb2839ebe6822364f9928" target="_top" xlink:title="Restituisce la dimensione in byte del file con percorso filePath. ">
<polygon fill="none" stroke="#000000" points="157.5,-304.5 157.5,-323.5 226.5,-323.5 226.5,-304.5 157.5,-304.5"/>
<text text-anchor="middle" x="192" y="-311.5" font-family="Helvetica,sans-Serif" font-size="10.00" fill="#000000">getFileSize</text>
</a>
</g>
</g>
<!-- Node94&#45;&gt;Node96 -->
<g id="edge2" class="edge">
<title>Node94&#45;&gt;Node96</title>
<path fill="none" stroke="#191970" d="M68.0433,-266.5347C85.0041,-274.6286 110.3293,-286.283 133,-295 138.5981,-297.1525 144.5551,-299.2683 150.4495,-301.2614"/>
<polygon fill="#191970" stroke="#191970" points="149.6427,-304.6805 160.2357,-304.4845 151.8325,-298.0319 149.6427,-304.6805"/>
</g>
<!-- Node97 -->
<g id="node4" class="node">
<title>Node97</title>
<g id="a_node4"><a xlink:href="client_8c.html#a55586f2b7e9b3620294cf78cda8abdad" target="_top" xlink:title="Divide in 4 parti il contenuto del file da inviare al server. ">
<polygon fill="none" stroke="#000000" points="170,-266.5 170,-285.5 214,-285.5 214,-266.5 170,-266.5"/>
<text text-anchor="middle" x="192" y="-273.5" font-family="Helvetica,sans-Serif" font-size="10.00" fill="#000000">dividi</text>
</a>
</g>
</g>
<!-- Node94&#45;&gt;Node97 -->
<g id="edge3" class="edge">
<title>Node94&#45;&gt;Node97</title>
<path fill="none" stroke="#191970" d="M97.0826,-263.4325C117.8419,-266.1812 141.4997,-269.3136 160.0033,-271.7635"/>
<polygon fill="#191970" stroke="#191970" points="159.5981,-275.2403 169.971,-273.0833 160.5169,-268.3009 159.5981,-275.2403"/>
</g>
<!-- Node98 -->
<g id="node5" class="node">
<title>Node98</title>
<g id="a_node5"><a xlink:href="semaphore_8c.html#a2581efba6a0833e3f289de94c779cc21" target="_top" xlink:title="Esegue la wait sul semaforo sem_num: decrementa il valore di 1 ed eventualmente mette in attesa il pr...">
<polygon fill="none" stroke="#000000" points="297.5,-304.5 297.5,-323.5 356.5,-323.5 356.5,-304.5 297.5,-304.5"/>
<text text-anchor="middle" x="327" y="-311.5" font-family="Helvetica,sans-Serif" font-size="10.00" fill="#000000">semWait</text>
</a>
</g>
</g>
<!-- Node94&#45;&gt;Node98 -->
<g id="edge4" class="edge">
<title>Node94&#45;&gt;Node98</title>
<path fill="none" stroke="#191970" d="M96.5333,-247.4692C138.738,-241.2841 201.0338,-237.564 251,-257 271.2286,-264.8686 269.6058,-277.0172 287,-290 291.2713,-293.188 295.9901,-296.3231 300.6439,-299.2216"/>
<polygon fill="#191970" stroke="#191970" points="299.0019,-302.3179 309.3788,-304.4561 302.6001,-296.3135 299.0019,-302.3179"/>
</g>
<!-- Node100 -->
<g id="node7" class="node">
<title>Node100</title>
<g id="a_node7"><a xlink:href="semaphore_8c.html#a40485eedbf6d56f7fd27bce5a537efbe" target="_top" xlink:title="Attende che il semaforo sem_num raggiunga il valore zero. ">
<polygon fill="none" stroke="#000000" points="151,-190.5 151,-209.5 233,-209.5 233,-190.5 151,-190.5"/>
<text text-anchor="middle" x="192" y="-197.5" font-family="Helvetica,sans-Serif" font-size="10.00" fill="#000000">semWaitZero</text>
</a>
</g>
</g>
<!-- Node94&#45;&gt;Node100 -->
<g id="edge7" class="edge">
<title>Node94&#45;&gt;Node100</title>
<path fill="none" stroke="#191970" d="M72.5187,-247.4595C96.0072,-238.1295 131.9858,-223.8384 158.3259,-213.3758"/>
<polygon fill="#191970" stroke="#191970" points="159.9014,-216.5161 167.903,-209.5716 157.3172,-210.0105 159.9014,-216.5161"/>
</g>
<!-- Node107 -->
<g id="node14" class="node">
<title>Node107</title>
<g id="a_node14"><a xlink:href="defines_8c.html#ac281b05b7a90ba292f5748cbfe3c389d" target="_top" xlink:title="Restituisce vero se l&#39;array contiene tutti true. ">
<polygon fill="none" stroke="#000000" points="133,-152.5 133,-171.5 251,-171.5 251,-152.5 133,-152.5"/>
<text text-anchor="middle" x="192" y="-159.5" font-family="Helvetica,sans-Serif" font-size="10.00" fill="#000000">arrayContainsAllTrue</text>
</a>
</g>
</g>
<!-- Node94&#45;&gt;Node107 -->
<g id="edge23" class="edge">
<title>Node94&#45;&gt;Node107</title>
<path fill="none" stroke="#191970" d="M56.6366,-247.4224C70.6715,-231.47 101.0174,-199.3978 133,-181 136.6728,-178.8872 140.6116,-176.9749 144.6477,-175.2513"/>
<polygon fill="#191970" stroke="#191970" points="146.101,-178.4419 154.1622,-171.5667 143.573,-171.9142 146.101,-178.4419"/>
</g>
<!-- Node99 -->
<g id="node6" class="node">
<title>Node99</title>
<g id="a_node6"><a xlink:href="semaphore_8c.html#a77c6570406059144bb6a8ecf04f481da" target="_top" xlink:title="Funzione di supporto per manipolare i valori di un set di semafori. ">
<polygon fill="none" stroke="#000000" points="412.5,-247.5 412.5,-266.5 463.5,-266.5 463.5,-247.5 412.5,-247.5"/>
<text text-anchor="middle" x="438" y="-254.5" font-family="Helvetica,sans-Serif" font-size="10.00" fill="#000000">semOp</text>
</a>
</g>
</g>
<!-- Node98&#45;&gt;Node99 -->
<g id="edge5" class="edge">
<title>Node98&#45;&gt;Node99</title>
<path fill="none" stroke="#191970" d="M345.5789,-304.4595C363.2675,-295.3761 390.1134,-281.5904 410.3215,-271.2133"/>
<polygon fill="#191970" stroke="#191970" points="412.0636,-274.2532 419.3605,-266.5716 408.866,-268.0263 412.0636,-274.2532"/>
</g>
<!-- Node99&#45;&gt;Node95 -->
<g id="edge6" class="edge">
<title>Node99&#45;&gt;Node95</title>
<path fill="none" stroke="#191970" d="M446.1423,-247.2804C462.282,-228.0142 498.5282,-184.7464 518.8954,-160.4338"/>
<polygon fill="#191970" stroke="#191970" points="521.6396,-162.6082 525.3783,-152.695 516.2736,-158.1131 521.6396,-162.6082"/>
</g>
<!-- Node100&#45;&gt;Node95 -->
<g id="edge14" class="edge">
<title>Node100&#45;&gt;Node95</title>
<path fill="none" stroke="#191970" d="M233.1953,-203.3844C289.0305,-206.6017 391.155,-207.5939 473,-181 487.7068,-176.2213 502.4378,-167.0847 513.6816,-158.9681"/>
<polygon fill="#191970" stroke="#191970" points="516.0088,-161.5967 521.8841,-152.7801 511.7931,-156.0085 516.0088,-161.5967"/>
</g>
<!-- Node100&#45;&gt;Node98 -->
<g id="edge9" class="edge">
<title>Node100&#45;&gt;Node98</title>
<path fill="none" stroke="#191970" d="M226.7287,-209.5654C235.3374,-213.1026 244.0714,-217.8132 251,-224 275.9233,-246.2547 263.8634,-265.8931 287,-290 290.1771,-293.3104 293.9072,-296.331 297.7898,-299.028"/>
<polygon fill="#191970" stroke="#191970" points="296.0439,-302.0643 306.3776,-304.402 299.7572,-296.1303 296.0439,-302.0643"/>
</g>
<!-- Node100&#45;&gt;Node99 -->
<g id="edge8" class="edge">
<title>Node100&#45;&gt;Node99</title>
<path fill="none" stroke="#191970" d="M207.0955,-209.6673C231.6381,-225.2918 278.3344,-254.5998 287,-257 325.1931,-267.5789 370.9355,-265.6635 401.9921,-262.3211"/>
<polygon fill="#191970" stroke="#191970" points="402.809,-265.7489 412.3282,-261.0975 401.9861,-258.7975 402.809,-265.7489"/>
</g>
<!-- Node101 -->
<g id="node8" class="node">
<title>Node101</title>
<g id="a_node8"><a xlink:href="semaphore_8c.html#a7bad0eb0b0c6ac701b59c36b8b7837bf" target="_top" xlink:title="Esegue la signal sul semaforo sem_num: incrementa il valore di 1. ">
<polygon fill="none" stroke="#000000" points="293,-228.5 293,-247.5 361,-247.5 361,-228.5 293,-228.5"/>
<text text-anchor="middle" x="327" y="-235.5" font-family="Helvetica,sans-Serif" font-size="10.00" fill="#000000">semSignal</text>
</a>
</g>
</g>
<!-- Node100&#45;&gt;Node101 -->
<g id="edge10" class="edge">
<title>Node100&#45;&gt;Node101</title>
<path fill="none" stroke="#191970" d="M226.0662,-209.589C243.4135,-214.4719 264.7022,-220.4643 283.2492,-225.685"/>
<polygon fill="#191970" stroke="#191970" points="282.3704,-229.0735 292.9447,-228.4141 284.2671,-222.3354 282.3704,-229.0735"/>
</g>
<!-- Node102 -->
<g id="node9" class="node">
<title>Node102</title>
<g id="a_node9"><a xlink:href="semaphore_8c.html#aad78dc4ccefb184a74dd9ef808df8db6" target="_top" xlink:title="Inizializza il valore del semaforo sem_num al valore val. ">
<polygon fill="none" stroke="#000000" points="404,-152.5 404,-171.5 472,-171.5 472,-152.5 404,-152.5"/>
<text text-anchor="middle" x="438" y="-159.5" font-family="Helvetica,sans-Serif" font-size="10.00" fill="#000000">semSetVal</text>
</a>
</g>
</g>
<!-- Node100&#45;&gt;Node102 -->
<g id="edge12" class="edge">
<title>Node100&#45;&gt;Node102</title>
<path fill="none" stroke="#191970" d="M233.1749,-193.6397C277.6811,-186.7647 348.3455,-175.8491 393.9437,-168.8054"/>
<polygon fill="#191970" stroke="#191970" points="394.4887,-172.2629 403.8372,-167.2772 393.42,-165.3449 394.4887,-172.2629"/>
</g>
<!-- Node103 -->
<g id="node10" class="node">
<title>Node103</title>
<g id="a_node10"><a xlink:href="semaphore_8c.html#a8df9b8ea63eaf93d09f437b356a4a1eb" target="_top" xlink:title="Inizializza i valori del set di semafori semid ai valori in values. ">
<polygon fill="none" stroke="#000000" points="405,-114.5 405,-133.5 471,-133.5 471,-114.5 405,-114.5"/>
<text text-anchor="middle" x="438" y="-121.5" font-family="Helvetica,sans-Serif" font-size="10.00" fill="#000000">semSetAll</text>
</a>
</g>
</g>
<!-- Node100&#45;&gt;Node103 -->
<g id="edge15" class="edge">
<title>Node100&#45;&gt;Node103</title>
<path fill="none" stroke="#191970" d="M221.7314,-190.4907C231.1028,-187.4759 241.4897,-184.1163 251,-181 267.027,-175.7484 270.9164,-174.0757 287,-169 323.3274,-157.5357 364.8147,-145.228 395.0986,-136.387"/>
<polygon fill="#191970" stroke="#191970" points="396.2932,-139.6845 404.9156,-133.5278 394.3358,-132.9638 396.2932,-139.6845"/>
</g>
<!-- Node104 -->
<g id="node11" class="node">
<title>Node104</title>
<g id="a_node11"><a xlink:href="semaphore_8c.html#a530566146b6e3cc8415d8ae4259fd68f" target="_top" xlink:title="Cancella il set di semafori svegliando eventuali processi in attesa. ">
<polygon fill="none" stroke="#000000" points="403,-76.5 403,-95.5 473,-95.5 473,-76.5 403,-76.5"/>
<text text-anchor="middle" x="438" y="-83.5" font-family="Helvetica,sans-Serif" font-size="10.00" fill="#000000">semDelete</text>
</a>
</g>
</g>
<!-- Node100&#45;&gt;Node104 -->
<g id="edge17" class="edge">
<title>Node100&#45;&gt;Node104</title>
<path fill="none" stroke="#191970" d="M231.7166,-190.4029C238.436,-187.8991 245.1292,-184.8026 251,-181 271.0745,-167.9975 267.1745,-154.3791 287,-141 319.3457,-119.1717 361.4196,-104.7779 392.937,-96.2106"/>
<polygon fill="#191970" stroke="#191970" points="393.9879,-99.5535 402.7733,-93.6317 392.2126,-92.7823 393.9879,-99.5535"/>
</g>
<!-- Node105 -->
<g id="node12" class="node">
<title>Node105</title>
<g id="a_node12"><a xlink:href="semaphore_8c.html#a7d80413e893e7d9ae3d153e23c2df2e4" target="_top" xlink:title="Recupera statistiche di un set di semafori. ">
<polygon fill="none" stroke="#000000" points="287,-38.5 287,-57.5 367,-57.5 367,-38.5 287,-38.5"/>
<text text-anchor="middle" x="327" y="-45.5" font-family="Helvetica,sans-Serif" font-size="10.00" fill="#000000">semGetStats</text>
</a>
</g>
</g>
<!-- Node100&#45;&gt;Node105 -->
<g id="edge19" class="edge">
<title>Node100&#45;&gt;Node105</title>
<path fill="none" stroke="#191970" d="M233.2303,-192.2815C239.7886,-189.5777 246.0356,-185.9275 251,-181 287.2095,-145.0592 255.1313,-111.8403 287,-72 289.6748,-68.6561 292.9511,-65.6697 296.4663,-63.0357"/>
<polygon fill="#191970" stroke="#191970" points="298.4588,-65.915 304.9314,-57.5271 294.6408,-60.0478 298.4588,-65.915"/>
</g>
<!-- Node106 -->
<g id="node13" class="node">
<title>Node106</title>
<g id="a_node13"><a xlink:href="semaphore_8c.html#a34a010b0a39236a7261d7d5103426491" target="_top" xlink:title="Imposta i permessi su un set di semafori. ">
<polygon fill="none" stroke="#000000" points="287.5,-.5 287.5,-19.5 366.5,-19.5 366.5,-.5 287.5,-.5"/>
<text text-anchor="middle" x="327" y="-7.5" font-family="Helvetica,sans-Serif" font-size="10.00" fill="#000000">semSetPerm</text>
</a>
</g>
</g>
<!-- Node100&#45;&gt;Node106 -->
<g id="edge21" class="edge">
<title>Node100&#45;&gt;Node106</title>
<path fill="none" stroke="#191970" d="M233.2924,-192.7578C239.9239,-190.0061 246.1801,-186.2165 251,-181 298.1139,-130.0095 243.349,-82.9846 287,-29 287.9668,-27.8044 289.0266,-26.6796 290.1591,-25.6218"/>
<polygon fill="#191970" stroke="#191970" points="292.4435,-28.2882 298.4706,-19.5747 288.3252,-22.6278 292.4435,-28.2882"/>
</g>
<!-- Node101&#45;&gt;Node99 -->
<g id="edge11" class="edge">
<title>Node101&#45;&gt;Node99</title>
<path fill="none" stroke="#191970" d="M361.2094,-243.8557C374.1773,-246.0754 388.9731,-248.608 402.0931,-250.8538"/>
<polygon fill="#191970" stroke="#191970" points="401.7416,-254.3444 412.1888,-252.5819 402.9226,-247.4448 401.7416,-254.3444"/>
</g>
<!-- Node102&#45;&gt;Node95 -->
<g id="edge13" class="edge">
<title>Node102&#45;&gt;Node95</title>
<path fill="none" stroke="#191970" d="M472.2079,-155.1942C480.9018,-153.4646 490.2485,-151.605 498.9587,-149.8721"/>
<polygon fill="#191970" stroke="#191970" points="499.6894,-153.2954 508.8142,-147.9113 498.3235,-146.43 499.6894,-153.2954"/>
</g>
<!-- Node103&#45;&gt;Node95 -->
<g id="edge16" class="edge">
<title>Node103&#45;&gt;Node95</title>
<path fill="none" stroke="#191970" d="M471.1332,-130.592C480.1358,-132.383 489.9056,-134.3268 498.9827,-136.1327"/>
<polygon fill="#191970" stroke="#191970" points="498.3681,-139.5789 508.8589,-138.0976 499.7341,-132.7135 498.3681,-139.5789"/>
</g>
<!-- Node104&#45;&gt;Node95 -->
<g id="edge18" class="edge">
<title>Node104&#45;&gt;Node95</title>
<path fill="none" stroke="#191970" d="M456.288,-95.6443C461.7076,-98.5784 467.6282,-101.8592 473,-105 485.3806,-112.2388 498.9194,-120.6905 510.0445,-127.7828"/>
<polygon fill="#191970" stroke="#191970" points="508.4369,-130.9098 518.7435,-133.3641 512.217,-125.0182 508.4369,-130.9098"/>
</g>
<!-- Node105&#45;&gt;Node95 -->
<g id="edge20" class="edge">
<title>Node105&#45;&gt;Node95</title>
<path fill="none" stroke="#191970" d="M367.0203,-45.3445C397.8785,-45.0785 440.6133,-48.7164 473,-67 496.4196,-80.2213 514.138,-106.4615 524.1705,-124.3707"/>
<polygon fill="#191970" stroke="#191970" points="521.1507,-126.1466 528.9407,-133.3276 527.3292,-122.856 521.1507,-126.1466"/>
</g>
<!-- Node106&#45;&gt;Node95 -->
<g id="edge22" class="edge">
<title>Node106&#45;&gt;Node95</title>
<path fill="none" stroke="#191970" d="M366.6903,-10.6814C398.1734,-13.0477 441.9044,-20.5886 473,-43 500.9952,-63.1768 518.4948,-100.6782 527.0888,-123.5814"/>
<polygon fill="#191970" stroke="#191970" points="523.8709,-124.9797 530.5081,-133.2379 530.4694,-122.6431 523.8709,-124.9797"/>
</g>
</g>
</svg>
        <g id="navigator" transform="translate(0 0)" fill="#404254">
                <rect fill="#f2f5e9" fill-opacity="0.5" stroke="#606060" stroke-width=".5" x="0" y="0" width="60" height="60"/>
                <use id="zoomplus" xlink:href="#zoomPlus" x="17" y="9" onmousedown="handleZoom(evt,'in')"/>
                <use id="zoomminus" xlink:href="#zoomMin" x="42" y="9" onmousedown="handleZoom(evt,'out')"/>
                <use id="reset" xlink:href="#resetDef" x="30" y="36" onmousedown="handleReset()"/>
                <g id="arrowUp" xlink:href="#dirArrow" transform="translate(30 24)" onmousedown="handlePan(0,-1)">
                  <use xlink:href="#rim" fill="#404040">
                        <set attributeName="fill" to="#808080" begin="arrowUp.mouseover" end="arrowUp.mouseout"/>
                  </use>
                  <path fill="none" stroke="white" stroke-width="1.5" d="M0,-3.0v7 M-2.5,-0.5L0,-3.0L2.5,-0.5"/>
                </g>
                <g id="arrowRight" xlink:href="#dirArrow" transform="rotate(90) translate(36 -43)" onmousedown="handlePan(1,0)">
                  <use xlink:href="#rim" fill="#404040">
                        <set attributeName="fill" to="#808080" begin="arrowRight.mouseover" end="arrowRight.mouseout"/>
                  </use>
                  <path fill="none" stroke="white" stroke-width="1.5" d="M0,-3.0v7 M-2.5,-0.5L0,-3.0L2.5,-0.5"/>
                </g>
                <g id="arrowDown" xlink:href="#dirArrow" transform="rotate(180) translate(-30 -48)" onmousedown="handlePan(0,1)">
                  <use xlink:href="#rim" fill="#404040">
                        <set attributeName="fill" to="#808080" begin="arrowDown.mouseover" end="arrowDown.mouseout"/>
                  </use>
                  <path fill="none" stroke="white" stroke-width="1.5" d="M0,-3.0v7 M-2.5,-0.5L0,-3.0L2.5,-0.5"/>
                </g>
                <g id="arrowLeft" xlink:href="#dirArrow" transform="rotate(270) translate(-36 17)" onmousedown="handlePan(-1,0)">
                  <use xlink:href="#rim" fill="#404040">
                        <set attributeName="fill" to="#808080" begin="arrowLeft.mouseover" end="arrowLeft.mouseout"/>
                  </use>
                  <path fill="none" stroke="white" stroke-width="1.5" d="M0,-3.0v7 M-2.5,-0.5L0,-3.0L2.5,-0.5"/>
                </g>
        </g>
        <svg viewBox="0 0 15 15" width="100%" height="30px" preserveAspectRatio="xMaxYMin meet">
         <g id="arrow_out" transform="scale(0.3 0.3)">
          <a xlink:href="client_8h_a54b47b58f228d7bc9827d2919687e25a_cgraph_org.svg" target="_base">
           <rect id="button" ry="5" rx="5" y="6" x="6" height="38" width="38"
                fill="#f2f5e9" fill-opacity="0.5" stroke="#606060" stroke-width="1.0"/>
           <path id="arrow"
             d="M 11.500037,31.436501 C 11.940474,20.09759 22.043105,11.32322 32.158766,21.979434 L 37.068811,17.246167 C 37.068811,17.246167 37.088388,32 37.088388,32 L 22.160133,31.978069 C 22.160133,31.978069 26.997745,27.140456 26.997745,27.140456 C 18.528582,18.264221 13.291696,25.230495 11.500037,31.436501 z"
             style="fill:#404040;"/>
          </a>
         </g>
        </svg>
</svg>
