<?xml version="1.0" encoding="UTF-8" standalone="no"?>
<!DOCTYPE svg PUBLIC "-//W3C//DTD SVG 1.1//EN"
 "http://www.w3.org/Graphics/SVG/1.1/DTD/svg11.dtd">
<!-- Generated by graphviz version 2.40.1 (20161225.0304)
 -->
<!-- Title: /mnt/c/Users/stefa/Desktop/system_call/src/client.c Pages: 1 -->
<!--zoomable 162 -->
<svg id="main" version="1.1" xmlns="http://www.w3.org/2000/svg" xmlns:xlink="http://www.w3.org/1999/xlink" xml:space="preserve" onload="init(evt)">
<style type="text/css"><![CDATA[
.edge:hover path { stroke: red; }
.edge:hover polygon { stroke: red; fill: red; }
]]></style>
<script type="text/javascript"><![CDATA[
var edges = document.getElementsByTagName('g');
if (edges && edges.length) {
  for (var i=0;i<edges.length;i++) {
    if (edges[i].id.substr(0,4)=='edge') {
      edges[i].setAttribute('class','edge');
    }
  }
}
]]></script>
        <defs>
                <circle id="rim" cx="0" cy="0" r="7"/>
                <circle id="rim2" cx="0" cy="0" r="3.5"/>
                <g id="zoomPlus">
                        <use xlink:href="#rim" fill="#404040">
                                <set attributeName="fill" to="#808080" begin="zoomplus.mouseover" end="zoomplus.mouseout"/>
                        </use>
                        <path d="M-4,0h8M0,-4v8" fill="none" stroke="white" stroke-width="1.5" pointer-events="none"/>
                </g>
                <g id="zoomMin">
                        <use xlink:href="#rim" fill="#404040">
                                <set attributeName="fill" to="#808080" begin="zoomminus.mouseover" end="zoomminus.mouseout"/>
                        </use>
                        <path d="M-4,0h8" fill="none" stroke="white" stroke-width="1.5" pointer-events="none"/>
                </g>
                <g id="dirArrow">
                        <path fill="none" stroke="white" stroke-width="1.5" d="M0,-3.0v7 M-2.5,-0.5L0,-3.0L2.5,-0.5"/>
                </g>
               <g id="resetDef">
                       <use xlink:href="#rim2" fill="#404040">
                               <set attributeName="fill" to="#808080" begin="reset.mouseover" end="reset.mouseout"/>
                       </use>
               </g>
        </defs>

<script type="text/javascript">
var viewWidth = 1527;
var viewHeight = 162;
var sectionId = 'dynsection-0';
</script>
<script xlink:href="svgpan.js"/>
<svg id="graph" class="graph">
<g id="viewport">
<title>/mnt/c/Users/stefa/Desktop/system_call/src/client.c</title>
<!-- Node0 -->
<g id="node1" class="node">
<title>Node0</title>
<polygon fill="#bfbfbf" stroke="#000000" points="648.4532,-112.5 648.4532,-153.5 770.4532,-153.5 770.4532,-112.5 648.4532,-112.5"/>
<text text-anchor="start" x="656.4532" y="-141.5" font-family="Helvetica,sans-Serif" font-size="10.00" fill="#000000">/mnt/c/Users/stefa</text>
<text text-anchor="start" x="656.4532" y="-130.5" font-family="Helvetica,sans-Serif" font-size="10.00" fill="#000000">/Desktop/system_call</text>
<text text-anchor="middle" x="709.4532" y="-119.5" font-family="Helvetica,sans-Serif" font-size="10.00" fill="#000000">/src/client.c</text>
</g>
<!-- Node1 -->
<g id="node2" class="node">
<title>Node1</title>
<polygon fill="none" stroke="#bfbfbf" points="262.4532,-.5 262.4532,-19.5 312.4532,-19.5 312.4532,-.5 262.4532,-.5"/>
<text text-anchor="middle" x="287.4532" y="-7.5" font-family="Helvetica,sans-Serif" font-size="10.00" fill="#000000">stdio.h</text>
</g>
<!-- Node0&#45;&gt;Node1 -->
<g id="edge1" class="edge">
<title>Node0&#45;&gt;Node1</title>
<path fill="none" stroke="#191970" d="M648.1882,-130.2846C480.7004,-122.5673 26.1651,-99.5382 4.4532,-76 -1.5736,-69.4662 -1.306,-62.7709 4.4532,-56 20.3606,-37.2982 179.8405,-20.1007 252.1445,-13.1969"/>
<polygon fill="#191970" stroke="#191970" points="252.5247,-16.6767 262.1523,-12.2541 251.8681,-9.7076 252.5247,-16.6767"/>
</g>
<!-- Node2 -->
<g id="node3" class="node">
<title>Node2</title>
<polygon fill="none" stroke="#bfbfbf" points="13.4532,-56.5 13.4532,-75.5 75.4532,-75.5 75.4532,-56.5 13.4532,-56.5"/>
<text text-anchor="middle" x="44.4532" y="-63.5" font-family="Helvetica,sans-Serif" font-size="10.00" fill="#000000">stdbool.h</text>
</g>
<!-- Node0&#45;&gt;Node2 -->
<g id="edge2" class="edge">
<title>Node0&#45;&gt;Node2</title>
<path fill="none" stroke="#191970" d="M648.2778,-130.5503C537.6654,-125.4393 297.0361,-111.1993 85.8339,-76.013"/>
<polygon fill="#191970" stroke="#191970" points="86.2422,-72.5325 75.7995,-74.3216 85.0786,-79.4351 86.2422,-72.5325"/>
</g>
<!-- Node3 -->
<g id="node4" class="node">
<title>Node3</title>
<polygon fill="none" stroke="#bfbfbf" points="93.4532,-56.5 93.4532,-75.5 149.4532,-75.5 149.4532,-56.5 93.4532,-56.5"/>
<text text-anchor="middle" x="121.4532" y="-63.5" font-family="Helvetica,sans-Serif" font-size="10.00" fill="#000000">unistd.h</text>
</g>
<!-- Node0&#45;&gt;Node3 -->
<g id="edge3" class="edge">
<title>Node0&#45;&gt;Node3</title>
<path fill="none" stroke="#191970" d="M648.2524,-129.8913C547.9165,-124.0899 342.169,-109.2374 159.676,-75.971"/>
<polygon fill="#191970" stroke="#191970" points="160.0967,-72.4896 149.6274,-74.116 158.8259,-79.3733 160.0967,-72.4896"/>
</g>
<!-- Node4 -->
<g id="node5" class="node">
<title>Node4</title>
<polygon fill="none" stroke="#bfbfbf" points="167.9532,-56.5 167.9532,-75.5 222.9532,-75.5 222.9532,-56.5 167.9532,-56.5"/>
<text text-anchor="middle" x="195.4532" y="-63.5" font-family="Helvetica,sans-Serif" font-size="10.00" fill="#000000">signal.h</text>
</g>
<!-- Node0&#45;&gt;Node4 -->
<g id="edge4" class="edge">
<title>Node0&#45;&gt;Node4</title>
<path fill="none" stroke="#191970" d="M648.4008,-128.5557C559.2068,-121.435 388.0049,-105.3933 233.3915,-75.9317"/>
<polygon fill="#191970" stroke="#191970" points="233.7144,-72.4295 223.2324,-73.9716 232.3882,-79.3028 233.7144,-72.4295"/>
</g>
<!-- Node5 -->
<g id="node6" class="node">
<title>Node5</title>
<polygon fill="none" stroke="#bfbfbf" points="241.4532,-56.5 241.4532,-75.5 295.4532,-75.5 295.4532,-56.5 241.4532,-56.5"/>
<text text-anchor="middle" x="268.4532" y="-63.5" font-family="Helvetica,sans-Serif" font-size="10.00" fill="#000000">dirent.h</text>
</g>
<!-- Node0&#45;&gt;Node5 -->
<g id="edge5" class="edge">
<title>Node0&#45;&gt;Node5</title>
<path fill="none" stroke="#191970" d="M648.2998,-126.921C570.6488,-118.6406 432.4728,-102.032 305.3949,-75.9747"/>
<polygon fill="#191970" stroke="#191970" points="305.9894,-72.5236 295.4868,-73.9189 304.5672,-79.3776 305.9894,-72.5236"/>
</g>
<!-- Node6 -->
<g id="node7" class="node">
<title>Node6</title>
<polygon fill="none" stroke="#bfbfbf" points="313.9532,-56.5 313.9532,-75.5 364.9532,-75.5 364.9532,-56.5 313.9532,-56.5"/>
<text text-anchor="middle" x="339.4532" y="-63.5" font-family="Helvetica,sans-Serif" font-size="10.00" fill="#000000">errno.h</text>
</g>
<!-- Node0&#45;&gt;Node6 -->
<g id="edge6" class="edge">
<title>Node0&#45;&gt;Node6</title>
<path fill="none" stroke="#191970" d="M648.2335,-124.6449C582.8735,-115.262 476.1605,-98.6164 374.7769,-75.8654"/>
<polygon fill="#191970" stroke="#191970" points="375.5102,-72.4429 364.9838,-73.6446 373.9621,-79.2696 375.5102,-72.4429"/>
</g>
<!-- Node7 -->
<g id="node8" class="node">
<title>Node7</title>
<polygon fill="none" stroke="#bfbfbf" points="508.9532,-.5 508.9532,-19.5 561.9532,-19.5 561.9532,-.5 508.9532,-.5"/>
<text text-anchor="middle" x="535.4532" y="-7.5" font-family="Helvetica,sans-Serif" font-size="10.00" fill="#000000">stdlib.h</text>
</g>
<!-- Node0&#45;&gt;Node7 -->
<g id="edge7" class="edge">
<title>Node0&#45;&gt;Node7</title>
<path fill="none" stroke="#191970" d="M770.5649,-118.9515C813.8799,-106.1708 860.2489,-84.8875 835.4532,-56 818.4702,-36.2145 648.397,-19.5246 572.1263,-12.9719"/>
<polygon fill="#191970" stroke="#191970" points="572.2722,-9.4718 562.0124,-12.1153 571.6814,-16.4469 572.2722,-9.4718"/>
</g>
<!-- Node8 -->
<g id="node9" class="node">
<title>Node8</title>
<polygon fill="none" stroke="#bfbfbf" points="457.9532,-56.5 457.9532,-75.5 510.9532,-75.5 510.9532,-56.5 457.9532,-56.5"/>
<text text-anchor="middle" x="484.4532" y="-63.5" font-family="Helvetica,sans-Serif" font-size="10.00" fill="#000000">string.h</text>
</g>
<!-- Node0&#45;&gt;Node8 -->
<g id="edge8" class="edge">
<title>Node0&#45;&gt;Node8</title>
<path fill="none" stroke="#191970" d="M648.2682,-114.7805C607.4066,-102.6128 555.0503,-87.0222 520.6674,-76.7838"/>
<polygon fill="#191970" stroke="#191970" points="521.6222,-73.4163 511.0391,-73.9167 519.6243,-80.1251 521.6222,-73.4163"/>
</g>
<!-- Node9 -->
<g id="node10" class="node">
<title>Node9</title>
<polygon fill="none" stroke="#bfbfbf" points="528.9532,-56.5 528.9532,-75.5 575.9532,-75.5 575.9532,-56.5 528.9532,-56.5"/>
<text text-anchor="middle" x="552.4532" y="-63.5" font-family="Helvetica,sans-Serif" font-size="10.00" fill="#000000">fcntl.h</text>
</g>
<!-- Node0&#45;&gt;Node9 -->
<g id="edge9" class="edge">
<title>Node0&#45;&gt;Node9</title>
<path fill="none" stroke="#191970" d="M661.0669,-112.3511C636.109,-101.7003 606.3643,-89.0066 584.3179,-79.5983"/>
<polygon fill="#191970" stroke="#191970" points="585.648,-76.3606 575.0767,-75.6546 582.9005,-82.7989 585.648,-76.3606"/>
</g>
<!-- Node10 -->
<g id="node11" class="node">
<title>Node10</title>
<polygon fill="none" stroke="#bfbfbf" points="594.4532,-56.5 594.4532,-75.5 658.4532,-75.5 658.4532,-56.5 594.4532,-56.5"/>
<text text-anchor="middle" x="626.4532" y="-63.5" font-family="Helvetica,sans-Serif" font-size="10.00" fill="#000000">sys/stat.h</text>
</g>
<!-- Node0&#45;&gt;Node10 -->
<g id="edge10" class="edge">
<title>Node0&#45;&gt;Node10</title>
<path fill="none" stroke="#191970" d="M683.6464,-112.168C671.6633,-102.4949 657.6329,-91.1692 646.4676,-82.1562"/>
<polygon fill="#191970" stroke="#191970" points="648.5489,-79.3383 638.5693,-75.7805 644.1521,-84.7851 648.5489,-79.3383"/>
</g>
<!-- Node11 -->
<g id="node12" class="node">
<title>Node11</title>
<polygon fill="none" stroke="#bfbfbf" points="676.4532,-56.5 676.4532,-75.5 742.4532,-75.5 742.4532,-56.5 676.4532,-56.5"/>
<text text-anchor="middle" x="709.4532" y="-63.5" font-family="Helvetica,sans-Serif" font-size="10.00" fill="#000000">sys/wait.h</text>
</g>
<!-- Node0&#45;&gt;Node11 -->
<g id="edge11" class="edge">
<title>Node0&#45;&gt;Node11</title>
<path fill="none" stroke="#191970" d="M709.4532,-112.168C709.4532,-103.8226 709.4532,-94.2471 709.4532,-85.9879"/>
<polygon fill="#191970" stroke="#191970" points="712.9533,-85.7804 709.4532,-75.7805 705.9533,-85.7805 712.9533,-85.7804"/>
</g>
<!-- Node12 -->
<g id="node13" class="node">
<title>Node12</title>
<polygon fill="none" stroke="#bfbfbf" points="760.4532,-56.5 760.4532,-75.5 826.4532,-75.5 826.4532,-56.5 760.4532,-56.5"/>
<text text-anchor="middle" x="793.4532" y="-63.5" font-family="Helvetica,sans-Serif" font-size="10.00" fill="#000000">sys/msg.h</text>
</g>
<!-- Node0&#45;&gt;Node12 -->
<g id="edge12" class="edge">
<title>Node0&#45;&gt;Node12</title>
<path fill="none" stroke="#191970" d="M735.5709,-112.168C747.6984,-102.4949 761.8978,-91.1692 773.1976,-82.1562"/>
<polygon fill="#191970" stroke="#191970" points="775.5558,-84.7523 781.1911,-75.7805 771.1909,-79.2799 775.5558,-84.7523"/>
</g>
<!-- Node13 -->
<g id="node14" class="node">
<title>Node13</title>
<g id="a_node14"><a xlink:href="defines_8h.html" target="_top" xlink:title="Contiene la definizioni di variabili e funzioni specifiche del progetto. ">
<polygon fill="none" stroke="#000000" points="1276.9532,-56.5 1276.9532,-75.5 1337.9532,-75.5 1337.9532,-56.5 1276.9532,-56.5"/>
<text text-anchor="middle" x="1307.4532" y="-63.5" font-family="Helvetica,sans-Serif" font-size="10.00" fill="#000000">defines.h</text>
</a>
</g>
</g>
<!-- Node0&#45;&gt;Node13 -->
<g id="edge13" class="edge">
<title>Node0&#45;&gt;Node13</title>
<path fill="none" stroke="#191970" d="M770.5339,-129.631C871.7854,-123.4179 1080.8099,-107.931 1266.5888,-75.9273"/>
<polygon fill="#191970" stroke="#191970" points="1267.2874,-79.3584 1276.538,-74.1935 1266.0856,-72.4623 1267.2874,-79.3584"/>
</g>
<!-- Node16 -->
<g id="node17" class="node">
<title>Node16</title>
<g id="a_node17"><a xlink:href="err__exit_8h.html" target="_top" xlink:title="Contiene la definizione della funzione di stampa degli errori. ">
<polygon fill="none" stroke="#000000" points="882.9532,-56.5 882.9532,-75.5 945.9532,-75.5 945.9532,-56.5 882.9532,-56.5"/>
<text text-anchor="middle" x="914.4532" y="-63.5" font-family="Helvetica,sans-Serif" font-size="10.00" fill="#000000">err_exit.h</text>
</a>
</g>
</g>
<!-- Node0&#45;&gt;Node16 -->
<g id="edge16" class="edge">
<title>Node0&#45;&gt;Node16</title>
<path fill="none" stroke="#191970" d="M770.6823,-112.9885C804.708,-101.8679 846.0178,-88.3667 875.61,-78.6951"/>
<polygon fill="#191970" stroke="#191970" points="876.751,-82.0044 885.1689,-75.571 874.5764,-75.3508 876.751,-82.0044"/>
</g>
<!-- Node17 -->
<g id="node18" class="node">
<title>Node17</title>
<g id="a_node18"><a xlink:href="signals_8h.html" target="_top" xlink:title="Contiene la definizioni di variabili e funzioni specifiche per la gestione dei SEGNALI. ">
<polygon fill="none" stroke="#000000" points="964.4532,-56.5 964.4532,-75.5 1024.4532,-75.5 1024.4532,-56.5 964.4532,-56.5"/>
<text text-anchor="middle" x="994.4532" y="-63.5" font-family="Helvetica,sans-Serif" font-size="10.00" fill="#000000">signals.h</text>
</a>
</g>
</g>
<!-- Node0&#45;&gt;Node17 -->
<g id="edge17" class="edge">
<title>Node0&#45;&gt;Node17</title>
<path fill="none" stroke="#191970" d="M770.6853,-119.0471C820.2852,-107.6743 891.9423,-91.0845 954.4532,-76 954.5532,-75.9759 954.6534,-75.9517 954.7537,-75.9275"/>
<polygon fill="#191970" stroke="#191970" points="955.4422,-79.3623 964.3253,-73.5881 953.7802,-72.5624 955.4422,-79.3623"/>
</g>
<!-- Node18 -->
<g id="node19" class="node">
<title>Node18</title>
<g id="a_node19"><a xlink:href="files_8h.html" target="_top" xlink:title="Contiene la definizioni di variabili e funzioni specifiche per la gestione dei FILE. ">
<polygon fill="none" stroke="#000000" points="1042.4532,-56.5 1042.4532,-75.5 1088.4532,-75.5 1088.4532,-56.5 1042.4532,-56.5"/>
<text text-anchor="middle" x="1065.4532" y="-63.5" font-family="Helvetica,sans-Serif" font-size="10.00" fill="#000000">files.h</text>
</a>
</g>
</g>
<!-- Node0&#45;&gt;Node18 -->
<g id="edge18" class="edge">
<title>Node0&#45;&gt;Node18</title>
<path fill="none" stroke="#191970" d="M770.5478,-124.65C833.8733,-115.4571 935.8074,-99.1565 1032.2197,-76.0714"/>
<polygon fill="#191970" stroke="#191970" points="1033.2376,-79.4261 1042.1318,-73.6689 1031.5887,-72.6231 1033.2376,-79.4261"/>
</g>
<!-- Node19 -->
<g id="node20" class="node">
<title>Node19</title>
<g id="a_node20"><a xlink:href="client_8h.html" target="_top" xlink:title="Contiene la definizioni di variabili e funzioni specifiche del CLIENT. ">
<polygon fill="none" stroke="#000000" points="1106.9532,-56.5 1106.9532,-75.5 1159.9532,-75.5 1159.9532,-56.5 1106.9532,-56.5"/>
<text text-anchor="middle" x="1133.4532" y="-63.5" font-family="Helvetica,sans-Serif" font-size="10.00" fill="#000000">client.h</text>
</a>
</g>
</g>
<!-- Node0&#45;&gt;Node19 -->
<g id="edge19" class="edge">
<title>Node0&#45;&gt;Node19</title>
<path fill="none" stroke="#191970" d="M770.6909,-126.4039C845.4858,-117.813 975.9423,-101.1047 1096.9956,-75.8702"/>
<polygon fill="#191970" stroke="#191970" points="1097.7456,-79.2891 1106.8084,-73.8013 1096.3014,-72.4397 1097.7456,-79.2891"/>
</g>
<!-- Node20 -->
<g id="node21" class="node">
<title>Node20</title>
<g id="a_node21"><a xlink:href="semaphore_8h.html" target="_top" xlink:title="Contiene la definizioni di variabili e funzioni specifiche per la gestione dei SEMAFORI. ">
<polygon fill="none" stroke="#000000" points="1178.4532,-56.5 1178.4532,-75.5 1258.4532,-75.5 1258.4532,-56.5 1178.4532,-56.5"/>
<text text-anchor="middle" x="1218.4532" y="-63.5" font-family="Helvetica,sans-Serif" font-size="10.00" fill="#000000">semaphore.h</text>
</a>
</g>
</g>
<!-- Node0&#45;&gt;Node20 -->
<g id="edge20" class="edge">
<title>Node0&#45;&gt;Node20</title>
<path fill="none" stroke="#191970" d="M770.5394,-126.8653C858.6895,-117.6837 1026.5637,-98.9669 1168.4532,-76 1168.5542,-75.9836 1168.6554,-75.9672 1168.7566,-75.9508"/>
<polygon fill="#191970" stroke="#191970" points="1169.1268,-79.4388 1178.3834,-74.2847 1167.933,-72.5414 1169.1268,-79.4388"/>
</g>
<!-- Node21 -->
<g id="node22" class="node">
<title>Node21</title>
<g id="a_node22"><a xlink:href="shared__memory_8h.html" target="_top" xlink:title="Contiene la definizioni di variabili e funzioni specifiche per la gestione della MEMORIA CONDIVISA...">
<polygon fill="none" stroke="#000000" points="1415.4532,-56.5 1415.4532,-75.5 1519.4532,-75.5 1519.4532,-56.5 1415.4532,-56.5"/>
<text text-anchor="middle" x="1467.4532" y="-63.5" font-family="Helvetica,sans-Serif" font-size="10.00" fill="#000000">shared_memory.h</text>
</a>
</g>
</g>
<!-- Node0&#45;&gt;Node21 -->
<g id="edge21" class="edge">
<title>Node0&#45;&gt;Node21</title>
<path fill="none" stroke="#191970" d="M770.6901,-129.6622C890.5579,-122.765 1164.7361,-105.2004 1405.2673,-76.0614"/>
<polygon fill="#191970" stroke="#191970" points="1405.7474,-79.5288 1415.2497,-74.843 1404.8993,-72.5804 1405.7474,-79.5288"/>
</g>
<!-- Node22 -->
<g id="node23" class="node">
<title>Node22</title>
<g id="a_node23"><a xlink:href="fifo_8h.html" target="_top" xlink:title="Contiene la definizioni di variabili e funzioni specifiche per la gestione delle FIFO. ">
<polygon fill="none" stroke="#000000" points="1355.9532,-56.5 1355.9532,-75.5 1396.9532,-75.5 1396.9532,-56.5 1355.9532,-56.5"/>
<text text-anchor="middle" x="1376.4532" y="-63.5" font-family="Helvetica,sans-Serif" font-size="10.00" fill="#000000">fifo.h</text>
</a>
</g>
</g>
<!-- Node0&#45;&gt;Node22 -->
<g id="edge23" class="edge">
<title>Node0&#45;&gt;Node22</title>
<path fill="none" stroke="#191970" d="M770.5242,-129.4414C904.2473,-121.3501 1220.3783,-100.5139 1345.6146,-75.9107"/>
<polygon fill="#191970" stroke="#191970" points="1346.6292,-79.2752 1355.7158,-73.8271 1345.2149,-72.4196 1346.6292,-79.2752"/>
</g>
<!-- Node23 -->
<g id="node24" class="node">
<title>Node23</title>
<g id="a_node24"><a xlink:href="debug_8h.html" target="_top" xlink:title="Contiene la definizioni di variabili e funzioni per il debugging. ">
<polygon fill="none" stroke="#000000" points="383.4532,-56.5 383.4532,-75.5 439.4532,-75.5 439.4532,-56.5 383.4532,-56.5"/>
<text text-anchor="middle" x="411.4532" y="-63.5" font-family="Helvetica,sans-Serif" font-size="10.00" fill="#000000">debug.h</text>
</a>
</g>
</g>
<!-- Node0&#45;&gt;Node23 -->
<g id="edge24" class="edge">
<title>Node0&#45;&gt;Node23</title>
<path fill="none" stroke="#191970" d="M648.3481,-120.5378C597.6081,-109.9882 523.3198,-94.0795 449.6195,-76.2056"/>
<polygon fill="#191970" stroke="#191970" points="450.2427,-72.7551 439.6982,-73.7865 448.5844,-79.5558 450.2427,-72.7551"/>
</g>
<!-- Node14 -->
<g id="node15" class="node">
<title>Node14</title>
<polygon fill="none" stroke="#bfbfbf" points="1393.4532,-.5 1393.4532,-19.5 1465.4532,-19.5 1465.4532,-.5 1393.4532,-.5"/>
<text text-anchor="middle" x="1429.4532" y="-7.5" font-family="Helvetica,sans-Serif" font-size="10.00" fill="#000000">sys/types.h</text>
</g>
<!-- Node13&#45;&gt;Node14 -->
<g id="edge14" class="edge">
<title>Node13&#45;&gt;Node14</title>
<path fill="none" stroke="#191970" d="M1328.4257,-56.3733C1348.0099,-47.3838 1377.4493,-33.8706 1399.5042,-23.7471"/>
<polygon fill="#191970" stroke="#191970" points="1401.1261,-26.8538 1408.7543,-19.5011 1398.2059,-20.4919 1401.1261,-26.8538"/>
</g>
<!-- Node15 -->
<g id="node16" class="node">
<title>Node15</title>
<polygon fill="none" stroke="#bfbfbf" points="1277.9532,-.5 1277.9532,-19.5 1336.9532,-19.5 1336.9532,-.5 1277.9532,-.5"/>
<text text-anchor="middle" x="1307.4532" y="-7.5" font-family="Helvetica,sans-Serif" font-size="10.00" fill="#000000">sys/ipc.h</text>
</g>
<!-- Node13&#45;&gt;Node15 -->
<g id="edge15" class="edge">
<title>Node13&#45;&gt;Node15</title>
<path fill="none" stroke="#191970" d="M1307.4532,-56.2455C1307.4532,-48.9382 1307.4532,-38.6944 1307.4532,-29.7046"/>
<polygon fill="#191970" stroke="#191970" points="1310.9533,-29.6426 1307.4532,-19.6427 1303.9533,-29.6427 1310.9533,-29.6426"/>
</g>
<!-- Node21&#45;&gt;Node14 -->
<g id="edge22" class="edge">
<title>Node21&#45;&gt;Node14</title>
<path fill="none" stroke="#191970" d="M1460.8341,-56.2455C1455.5486,-48.4564 1447.9991,-37.3308 1441.6294,-27.9439"/>
<polygon fill="#191970" stroke="#191970" points="1444.5077,-25.9522 1435.9964,-19.6427 1438.7153,-29.8827 1444.5077,-25.9522"/>
</g>
<!-- Node23&#45;&gt;Node1 -->
<g id="edge25" class="edge">
<title>Node23&#45;&gt;Node1</title>
<path fill="none" stroke="#191970" d="M390.1368,-56.3733C370.2316,-47.3838 340.3096,-33.8706 317.8932,-23.7471"/>
<polygon fill="#191970" stroke="#191970" points="319.0457,-20.4272 308.4914,-19.5011 316.1645,-26.8068 319.0457,-20.4272"/>
</g>
<!-- Node23&#45;&gt;Node7 -->
<g id="edge26" class="edge">
<title>Node23&#45;&gt;Node7</title>
<path fill="none" stroke="#191970" d="M432.7696,-56.3733C452.6748,-47.3838 482.5968,-33.8706 505.0132,-23.7471"/>
<polygon fill="#191970" stroke="#191970" points="506.7419,-26.8068 514.415,-19.5011 503.8607,-20.4272 506.7419,-26.8068"/>
</g>
</g>
</svg>
        <g id="navigator" transform="translate(0 0)" fill="#404254">
                <rect fill="#f2f5e9" fill-opacity="0.5" stroke="#606060" stroke-width=".5" x="0" y="0" width="60" height="60"/>
                <use id="zoomplus" xlink:href="#zoomPlus" x="17" y="9" onmousedown="handleZoom(evt,'in')"/>
                <use id="zoomminus" xlink:href="#zoomMin" x="42" y="9" onmousedown="handleZoom(evt,'out')"/>
                <use id="reset" xlink:href="#resetDef" x="30" y="36" onmousedown="handleReset()"/>
                <g id="arrowUp" xlink:href="#dirArrow" transform="translate(30 24)" onmousedown="handlePan(0,-1)">
                  <use xlink:href="#rim" fill="#404040">
                        <set attributeName="fill" to="#808080" begin="arrowUp.mouseover" end="arrowUp.mouseout"/>
                  </use>
                  <path fill="none" stroke="white" stroke-width="1.5" d="M0,-3.0v7 M-2.5,-0.5L0,-3.0L2.5,-0.5"/>
                </g>
                <g id="arrowRight" xlink:href="#dirArrow" transform="rotate(90) translate(36 -43)" onmousedown="handlePan(1,0)">
                  <use xlink:href="#rim" fill="#404040">
                        <set attributeName="fill" to="#808080" begin="arrowRight.mouseover" end="arrowRight.mouseout"/>
                  </use>
                  <path fill="none" stroke="white" stroke-width="1.5" d="M0,-3.0v7 M-2.5,-0.5L0,-3.0L2.5,-0.5"/>
                </g>
                <g id="arrowDown" xlink:href="#dirArrow" transform="rotate(180) translate(-30 -48)" onmousedown="handlePan(0,1)">
                  <use xlink:href="#rim" fill="#404040">
                        <set attributeName="fill" to="#808080" begin="arrowDown.mouseover" end="arrowDown.mouseout"/>
                  </use>
                  <path fill="none" stroke="white" stroke-width="1.5" d="M0,-3.0v7 M-2.5,-0.5L0,-3.0L2.5,-0.5"/>
                </g>
                <g id="arrowLeft" xlink:href="#dirArrow" transform="rotate(270) translate(-36 17)" onmousedown="handlePan(-1,0)">
                  <use xlink:href="#rim" fill="#404040">
                        <set attributeName="fill" to="#808080" begin="arrowLeft.mouseover" end="arrowLeft.mouseout"/>
                  </use>
                  <path fill="none" stroke="white" stroke-width="1.5" d="M0,-3.0v7 M-2.5,-0.5L0,-3.0L2.5,-0.5"/>
                </g>
        </g>
        <svg viewBox="0 0 15 15" width="100%" height="30px" preserveAspectRatio="xMaxYMin meet">
         <g id="arrow_out" transform="scale(0.3 0.3)">
          <a xlink:href="client_8c__incl_org.svg" target="_base">
           <rect id="button" ry="5" rx="5" y="6" x="6" height="38" width="38"
                fill="#f2f5e9" fill-opacity="0.5" stroke="#606060" stroke-width="1.0"/>
           <path id="arrow"
             d="M 11.500037,31.436501 C 11.940474,20.09759 22.043105,11.32322 32.158766,21.979434 L 37.068811,17.246167 C 37.068811,17.246167 37.088388,32 37.088388,32 L 22.160133,31.978069 C 22.160133,31.978069 26.997745,27.140456 26.997745,27.140456 C 18.528582,18.264221 13.291696,25.230495 11.500037,31.436501 z"
             style="fill:#404040;"/>
          </a>
         </g>
        </svg>
</svg>
