<?xml version="1.0" encoding="UTF-8" standalone="no"?>
<!DOCTYPE svg PUBLIC "-//W3C//DTD SVG 1.1//EN"
 "http://www.w3.org/Graphics/SVG/1.1/DTD/svg11.dtd">
<!-- Generated by graphviz version 2.40.1 (20161225.0304)
 -->
<!-- Title: SIGUSR1SignalHandler Pages: 1 -->
<svg width="378pt" height="47pt"
 viewBox="0.00 0.00 378.00 47.00" xmlns="http://www.w3.org/2000/svg" xmlns:xlink="http://www.w3.org/1999/xlink">
<g id="graph0" class="graph" transform="scale(1 1) rotate(0) translate(4 43)">
<title>SIGUSR1SignalHandler</title>
<!-- Node69 -->
<g id="node1" class="node">
<title>Node69</title>
<polygon fill="#bfbfbf" stroke="#000000" points="0,-.5 0,-19.5 128,-19.5 128,-.5 0,-.5"/>
<text text-anchor="middle" x="64" y="-7.5" font-family="Helvetica,sans-Serif" font-size="10.00" fill="#000000">SIGUSR1SignalHandler</text>
</g>
<!-- Node70 -->
<g id="node2" class="node">
<title>Node70</title>
<g id="a_node2"><a xlink:href="shared__memory_8c.html#a6530d61365abd3e580722ed907ea5f5b" target="_top" xlink:title="Scollega la memoria condivisa dallo spazio degli indirizzi. ">
<polygon fill="none" stroke="#000000" points="164,-19.5 164,-38.5 285,-38.5 285,-19.5 164,-19.5"/>
<text text-anchor="middle" x="224.5" y="-26.5" font-family="Helvetica,sans-Serif" font-size="10.00" fill="#000000">free_shared_memory</text>
</a>
</g>
</g>
<!-- Node69&#45;&gt;Node70 -->
<g id="edge1" class="edge">
<title>Node69&#45;&gt;Node70</title>
<path fill="none" stroke="#191970" d="M128.3567,-17.6185C136.665,-18.6021 145.21,-19.6136 153.616,-20.6088"/>
<polygon fill="#191970" stroke="#191970" points="153.4332,-24.1115 163.7754,-21.8114 154.2562,-17.16 153.4332,-24.1115"/>
</g>
<!-- Node71 -->
<g id="node3" class="node">
<title>Node71</title>
<g id="a_node3"><a xlink:href="err__exit_8c.html#aa223b0ecfe538d130ece562646a37d27" target="_top" xlink:title="Prints the error message of the last failed system call and terminates the calling process...">
<polygon fill="none" stroke="#000000" points="321,-.5 321,-19.5 370,-19.5 370,-.5 321,-.5"/>
<text text-anchor="middle" x="345.5" y="-7.5" font-family="Helvetica,sans-Serif" font-size="10.00" fill="#000000">ErrExit</text>
</a>
</g>
</g>
<!-- Node69&#45;&gt;Node71 -->
<g id="edge3" class="edge">
<title>Node69&#45;&gt;Node71</title>
<path fill="none" stroke="#191970" d="M128.2289,-10C184.8641,-10 265.2481,-10 310.6852,-10"/>
<polygon fill="#191970" stroke="#191970" points="310.9091,-13.5001 320.9091,-10 310.909,-6.5001 310.9091,-13.5001"/>
</g>
<!-- Node70&#45;&gt;Node71 -->
<g id="edge2" class="edge">
<title>Node70&#45;&gt;Node71</title>
<path fill="none" stroke="#191970" d="M285.3545,-19.4443C294.1112,-18.0693 302.8581,-16.6958 310.8612,-15.4392"/>
<polygon fill="#191970" stroke="#191970" points="311.556,-18.873 320.8919,-13.8641 310.47,-11.9578 311.556,-18.873"/>
</g>
</g>
</svg>
