<?xml version="1.0" encoding="UTF-8" standalone="no"?>
<!DOCTYPE svg PUBLIC "-//W3C//DTD SVG 1.1//EN"
 "http://www.w3.org/Graphics/SVG/1.1/DTD/svg11.dtd">
<!-- Generated by graphviz version 2.40.1 (20161225.0304)
 -->
<!-- Title: operazioni_client0 Pages: 1 -->
<svg width="783pt" height="785pt"
 viewBox="0.00 0.00 783.00 784.72" xmlns="http://www.w3.org/2000/svg" xmlns:xlink="http://www.w3.org/1999/xlink">
<g id="graph0" class="graph" transform="scale(1 1) rotate(0) translate(4 780.7187)">
<title>operazioni_client0</title>
<!-- Node51 -->
<g id="node1" class="node">
<title>Node51</title>
<polygon fill="#bfbfbf" stroke="#000000" points="0,-436.5 0,-455.5 106,-455.5 106,-436.5 0,-436.5"/>
<text text-anchor="middle" x="53" y="-443.5" font-family="Helvetica,sans-Serif" font-size="10.00" fill="#000000">operazioni_client0</text>
</g>
<!-- Node52 -->
<g id="node2" class="node">
<title>Node52</title>
<g id="a_node2"><a xlink:href="shared__memory_8c.html#a660a60242a5174977ab2debcdbd0e587" target="_top" xlink:title="Ottiene l&#39;id o crea una memoria condivisa. ">
<polygon fill="none" stroke="#000000" points="565,-703.5 565,-722.5 690,-722.5 690,-703.5 565,-703.5"/>
<text text-anchor="middle" x="627.5" y="-710.5" font-family="Helvetica,sans-Serif" font-size="10.00" fill="#000000">alloc_shared_memory</text>
</a>
</g>
</g>
<!-- Node51&#45;&gt;Node52 -->
<g id="edge1" class="edge">
<title>Node51&#45;&gt;Node52</title>
<path fill="none" stroke="#191970" d="M54.6899,-455.6761C62.6051,-499.7724 97.5057,-680.9303 142,-713 205.9501,-759.0926 435.6382,-737.8294 554.7284,-723.0314"/>
<polygon fill="#191970" stroke="#191970" points="555.3687,-726.4785 564.8527,-721.7558 554.4936,-719.5334 555.3687,-726.4785"/>
</g>
<!-- Node53 -->
<g id="node3" class="node">
<title>Node53</title>
<g id="a_node3"><a xlink:href="err__exit_8c.html#aa223b0ecfe538d130ece562646a37d27" target="_top" xlink:title="Prints the error message of the last failed system call and terminates the calling process...">
<polygon fill="none" stroke="#000000" points="726,-434.5 726,-453.5 775,-453.5 775,-434.5 726,-434.5"/>
<text text-anchor="middle" x="750.5" y="-441.5" font-family="Helvetica,sans-Serif" font-size="10.00" fill="#000000">ErrExit</text>
</a>
</g>
</g>
<!-- Node51&#45;&gt;Node53 -->
<g id="edge18" class="edge">
<title>Node51&#45;&gt;Node53</title>
<path fill="none" stroke="#191970" d="M54.5117,-455.5051C62.0075,-501.4148 96.647,-699.6044 142,-739 209.5765,-797.6998 251.4888,-770 341,-770 341,-770 341,-770 482.5,-770 576.2559,-770 622.8505,-797.4303 690,-732 728.6793,-694.311 744.7337,-522.4665 749.1532,-463.7415"/>
<polygon fill="#191970" stroke="#191970" points="752.6577,-463.8036 749.8852,-453.578 745.6758,-463.3007 752.6577,-463.8036"/>
</g>
<!-- Node54 -->
<g id="node4" class="node">
<title>Node54</title>
<g id="a_node4"><a xlink:href="defines_8c.html#a2d341373a96ffea0944553e5452cdbca" target="_top" xlink:title="get_ipc_key">
<polygon fill="none" stroke="#000000" points="156.5,-684.5 156.5,-703.5 231.5,-703.5 231.5,-684.5 156.5,-684.5"/>
<text text-anchor="middle" x="194" y="-691.5" font-family="Helvetica,sans-Serif" font-size="10.00" fill="#000000">get_ipc_key</text>
</a>
</g>
</g>
<!-- Node51&#45;&gt;Node54 -->
<g id="edge3" class="edge">
<title>Node51&#45;&gt;Node54</title>
<path fill="none" stroke="#191970" d="M53.9642,-455.8147C57.908,-490.7212 75.8878,-610.2207 142,-675 143.6734,-676.6397 145.4996,-678.1393 147.4342,-679.5108"/>
<polygon fill="#191970" stroke="#191970" points="146.0654,-682.7623 156.4741,-684.7395 149.5702,-676.7029 146.0654,-682.7623"/>
</g>
<!-- Node56 -->
<g id="node6" class="node">
<title>Node56</title>
<g id="a_node6"><a xlink:href="shared__memory_8c.html#ab2ffe00ec7425a3a4229cd0d53ed901c" target="_top" xlink:title="Recupera il puntatore alla memoria condivisa aggiungendola allo spazio degli indirizzi. ">
<polygon fill="none" stroke="#000000" points="569,-608.5 569,-627.5 686,-627.5 686,-608.5 569,-608.5"/>
<text text-anchor="middle" x="627.5" y="-615.5" font-family="Helvetica,sans-Serif" font-size="10.00" fill="#000000">get_shared_memory</text>
</a>
</g>
</g>
<!-- Node51&#45;&gt;Node56 -->
<g id="edge6" class="edge">
<title>Node51&#45;&gt;Node56</title>
<path fill="none" stroke="#191970" d="M58.812,-455.5121C71.3878,-475.2504 103.1481,-520.7515 142,-544 273.4323,-622.6476 459.4765,-627.356 558.7667,-623.1678"/>
<polygon fill="#191970" stroke="#191970" points="559.1495,-626.6538 568.9759,-622.6926 558.824,-619.6614 559.1495,-626.6538"/>
</g>
<!-- Node57 -->
<g id="node7" class="node">
<title>Node57</title>
<g id="a_node7"><a xlink:href="defines_8c.html#afd25e0dffe44c8dd59ae86caabb94287" target="_top" xlink:title="get_ipc_key2">
<polygon fill="none" stroke="#000000" points="153.5,-646.5 153.5,-665.5 234.5,-665.5 234.5,-646.5 153.5,-646.5"/>
<text text-anchor="middle" x="194" y="-653.5" font-family="Helvetica,sans-Serif" font-size="10.00" fill="#000000">get_ipc_key2</text>
</a>
</g>
</g>
<!-- Node51&#45;&gt;Node57 -->
<g id="edge8" class="edge">
<title>Node51&#45;&gt;Node57</title>
<path fill="none" stroke="#191970" d="M55.1949,-455.8724C62.3901,-486.1246 87.9651,-578.7103 142,-632 145.7963,-635.7439 150.2839,-638.9725 155.0065,-641.7372"/>
<polygon fill="#191970" stroke="#191970" points="153.7646,-645.0343 164.2581,-646.496 156.9665,-638.8095 153.7646,-645.0343"/>
</g>
<!-- Node58 -->
<g id="node8" class="node">
<title>Node58</title>
<g id="a_node8"><a xlink:href="semaphore_8c.html#afee4d9b0eb613bf632622e9244204d51" target="_top" xlink:title="Ottiene un insieme di semafori gia&#39; creato. ">
<polygon fill="none" stroke="#000000" points="436,-532.5 436,-551.5 529,-551.5 529,-532.5 436,-532.5"/>
<text text-anchor="middle" x="482.5" y="-539.5" font-family="Helvetica,sans-Serif" font-size="10.00" fill="#000000">getSemaphores</text>
</a>
</g>
</g>
<!-- Node51&#45;&gt;Node58 -->
<g id="edge10" class="edge">
<title>Node51&#45;&gt;Node58</title>
<path fill="none" stroke="#191970" d="M70.1761,-455.6239C87.7072,-465.0311 115.9637,-479.0623 142,-487 239.2491,-516.6484 357.2755,-531.1623 425.7435,-537.5756"/>
<polygon fill="#191970" stroke="#191970" points="425.61,-541.0778 435.8865,-538.5001 426.2455,-534.1067 425.61,-541.0778"/>
</g>
<!-- Node60 -->
<g id="node10" class="node">
<title>Node60</title>
<g id="a_node10"><a xlink:href="fifo_8c.html#a54a1ae8162825128cf02f95692402c18" target="_top" xlink:title="Facilita la creazione di una FIFO (o ne ottiene una esistente) in modalita&#39; lettura o scrittura...">
<polygon fill="none" stroke="#000000" points="448.5,-570.5 448.5,-589.5 516.5,-589.5 516.5,-570.5 448.5,-570.5"/>
<text text-anchor="middle" x="482.5" y="-577.5" font-family="Helvetica,sans-Serif" font-size="10.00" fill="#000000">create_fifo</text>
</a>
</g>
</g>
<!-- Node51&#45;&gt;Node60 -->
<g id="edge14" class="edge">
<title>Node51&#45;&gt;Node60</title>
<path fill="none" stroke="#191970" d="M62.7049,-455.7059C78.1013,-470.5075 109.7027,-498.5247 142,-513 241.677,-557.674 370.9501,-572.6755 437.9054,-577.6264"/>
<polygon fill="#191970" stroke="#191970" points="437.8828,-581.1332 448.1022,-578.3377 438.37,-574.1502 437.8828,-581.1332"/>
</g>
<!-- Node62 -->
<g id="node12" class="node">
<title>Node62</title>
<g id="a_node12"><a xlink:href="files_8c.html#a627e4b202ea71f3bd241ccf562449bd6" target="_top" xlink:title="find_sendme_files">
<polygon fill="none" stroke="#000000" points="142,-295.5 142,-314.5 246,-314.5 246,-295.5 142,-295.5"/>
<text text-anchor="middle" x="194" y="-302.5" font-family="Helvetica,sans-Serif" font-size="10.00" fill="#000000">find_sendme_files</text>
</a>
</g>
</g>
<!-- Node51&#45;&gt;Node62 -->
<g id="edge19" class="edge">
<title>Node51&#45;&gt;Node62</title>
<path fill="none" stroke="#191970" d="M59.9262,-436.4258C74.0627,-417.2449 107.8006,-373.2707 142,-342 150.4631,-334.2616 160.5827,-326.7326 169.6361,-320.5085"/>
<polygon fill="#191970" stroke="#191970" points="171.8657,-323.228 178.2331,-314.7599 167.9748,-317.409 171.8657,-323.228"/>
</g>
<!-- Node69 -->
<g id="node19" class="node">
<title>Node69</title>
<g id="a_node19"><a xlink:href="files_8c.html#a1cdd9b5b37408e31d80f31e474a71483" target="_top" xlink:title="Visualizza il contenuto della lista concatenata di filePath. ">
<polygon fill="none" stroke="#000000" points="164.5,-257.5 164.5,-276.5 223.5,-276.5 223.5,-257.5 164.5,-257.5"/>
<text text-anchor="middle" x="194" y="-264.5" font-family="Helvetica,sans-Serif" font-size="10.00" fill="#000000">print_list</text>
</a>
</g>
</g>
<!-- Node51&#45;&gt;Node69 -->
<g id="edge28" class="edge">
<title>Node51&#45;&gt;Node69</title>
<path fill="none" stroke="#191970" d="M55.7895,-436.1633C64.1291,-408.4831 91.4791,-329.1387 142,-286 145.7758,-282.776 150.145,-280.0794 154.7145,-277.8288"/>
<polygon fill="#191970" stroke="#191970" points="156.3942,-280.919 164.2492,-273.8091 153.6749,-274.4688 156.3942,-280.919"/>
</g>
<!-- Node70 -->
<g id="node20" class="node">
<title>Node70</title>
<g id="a_node20"><a xlink:href="files_8c.html#a3ba19f05c37434e7f20facff3445651a" target="_top" xlink:title="Conta il numero di file nella lista concatenata di filePath. ">
<polygon fill="none" stroke="#000000" points="159.5,-219.5 159.5,-238.5 228.5,-238.5 228.5,-219.5 159.5,-219.5"/>
<text text-anchor="middle" x="194" y="-226.5" font-family="Helvetica,sans-Serif" font-size="10.00" fill="#000000">count_files</text>
</a>
</g>
</g>
<!-- Node51&#45;&gt;Node70 -->
<g id="edge29" class="edge">
<title>Node51&#45;&gt;Node70</title>
<path fill="none" stroke="#191970" d="M54.6325,-436.1964C60.4322,-404.3868 82.9512,-302.9367 142,-248 144.4629,-245.7086 147.2244,-243.6886 150.1567,-241.9086"/>
<polygon fill="#191970" stroke="#191970" points="151.9996,-244.8986 159.3386,-237.2573 148.8363,-238.6541 151.9996,-244.8986"/>
</g>
<!-- Node71 -->
<g id="node21" class="node">
<title>Node71</title>
<g id="a_node21"><a xlink:href="client_8c.html#a748983b7ce27515a3ad116ada4334c4e" target="_top" xlink:title="int_to_string">
<polygon fill="none" stroke="#000000" points="155.5,-181.5 155.5,-200.5 232.5,-200.5 232.5,-181.5 155.5,-181.5"/>
<text text-anchor="middle" x="194" y="-188.5" font-family="Helvetica,sans-Serif" font-size="10.00" fill="#000000">int_to_string</text>
</a>
</g>
</g>
<!-- Node51&#45;&gt;Node71 -->
<g id="edge30" class="edge">
<title>Node51&#45;&gt;Node71</title>
<path fill="none" stroke="#191970" d="M53.816,-436.3827C57.3187,-401.073 74.1526,-277.1513 142,-210 143.4602,-208.5548 145.0391,-207.2184 146.7066,-205.9829"/>
<polygon fill="#191970" stroke="#191970" points="148.879,-208.7607 155.6446,-200.6073 145.2712,-202.762 148.879,-208.7607"/>
</g>
<!-- Node72 -->
<g id="node22" class="node">
<title>Node72</title>
<g id="a_node22"><a xlink:href="semaphore_8c.html#a2581efba6a0833e3f289de94c779cc21" target="_top" xlink:title="Esegue la wait sul semaforo sem_num: decrementa il valore di 1 ed eventualmente mette in attesa il pr...">
<polygon fill="none" stroke="#000000" points="453,-456.5 453,-475.5 512,-475.5 512,-456.5 453,-456.5"/>
<text text-anchor="middle" x="482.5" y="-463.5" font-family="Helvetica,sans-Serif" font-size="10.00" fill="#000000">semWait</text>
</a>
</g>
</g>
<!-- Node51&#45;&gt;Node72 -->
<g id="edge31" class="edge">
<title>Node51&#45;&gt;Node72</title>
<path fill="none" stroke="#191970" d="M106.0959,-448.4725C193.2322,-452.53 364.649,-460.5122 442.4276,-464.134"/>
<polygon fill="#191970" stroke="#191970" points="442.6105,-467.6462 452.7625,-464.6153 442.9362,-460.6538 442.6105,-467.6462"/>
</g>
<!-- Node73 -->
<g id="node23" class="node">
<title>Node73</title>
<g id="a_node23"><a xlink:href="client_8c.html#ac129a55ffa08a55addb9ea1afbd709f8" target="_top" xlink:title="strEquals">
<polygon fill="none" stroke="#000000" points="163,-143.5 163,-162.5 225,-162.5 225,-143.5 163,-143.5"/>
<text text-anchor="middle" x="194" y="-150.5" font-family="Helvetica,sans-Serif" font-size="10.00" fill="#000000">strEquals</text>
</a>
</g>
</g>
<!-- Node51&#45;&gt;Node73 -->
<g id="edge33" class="edge">
<title>Node51&#45;&gt;Node73</title>
<path fill="none" stroke="#191970" d="M53.2331,-436.4972C54.6912,-397.9555 65.2691,-251.5639 142,-172 145.3673,-168.5084 149.428,-165.655 153.7777,-163.3239"/>
<polygon fill="#191970" stroke="#191970" points="155.2642,-166.4934 162.9826,-159.2355 152.4227,-160.0961 155.2642,-166.4934"/>
</g>
<!-- Node74 -->
<g id="node24" class="node">
<title>Node74</title>
<g id="a_node24"><a xlink:href="semaphore_8c.html#a7bad0eb0b0c6ac701b59c36b8b7837bf" target="_top" xlink:title="Esegue la signal sul semaforo sem_num: incrementa il valore di 1. ">
<polygon fill="none" stroke="#000000" points="448.5,-494.5 448.5,-513.5 516.5,-513.5 516.5,-494.5 448.5,-494.5"/>
<text text-anchor="middle" x="482.5" y="-501.5" font-family="Helvetica,sans-Serif" font-size="10.00" fill="#000000">semSignal</text>
</a>
</g>
</g>
<!-- Node51&#45;&gt;Node74 -->
<g id="edge34" class="edge">
<title>Node51&#45;&gt;Node74</title>
<path fill="none" stroke="#191970" d="M91.3687,-455.5917C106.998,-459.2448 125.2879,-463.1984 142,-466 247.5819,-483.6996 373.0069,-495.2944 438.1868,-500.6198"/>
<polygon fill="#191970" stroke="#191970" points="438.2497,-504.1361 448.4986,-501.4509 438.8121,-497.1588 438.2497,-504.1361"/>
</g>
<!-- Node75 -->
<g id="node25" class="node">
<title>Node75</title>
<g id="a_node25"><a xlink:href="semaphore_8c.html#a40485eedbf6d56f7fd27bce5a537efbe" target="_top" xlink:title="Attende che il semaforo sem_num raggiunga il valore zero. ">
<polygon fill="none" stroke="#000000" points="300,-342.5 300,-361.5 382,-361.5 382,-342.5 300,-342.5"/>
<text text-anchor="middle" x="341" y="-349.5" font-family="Helvetica,sans-Serif" font-size="10.00" fill="#000000">semWaitZero</text>
</a>
</g>
</g>
<!-- Node51&#45;&gt;Node75 -->
<g id="edge36" class="edge">
<title>Node51&#45;&gt;Node75</title>
<path fill="none" stroke="#191970" d="M82.1999,-436.4695C134.3806,-419.4383 243.6321,-383.7798 302.1053,-364.6948"/>
<polygon fill="#191970" stroke="#191970" points="303.3024,-367.9859 311.7228,-361.5557 301.1304,-361.3314 303.3024,-367.9859"/>
</g>
<!-- Node81 -->
<g id="node31" class="node">
<title>Node81</title>
<g id="a_node31"><a xlink:href="defines_8c.html#aea9b93cad897755a46cb9e3373ba8cc2" target="_top" xlink:title="Rende bloccante oppure non bloccante un file descriptor. ">
<polygon fill="none" stroke="#000000" points="166,-105.5 166,-124.5 222,-124.5 222,-105.5 166,-105.5"/>
<text text-anchor="middle" x="194" y="-112.5" font-family="Helvetica,sans-Serif" font-size="10.00" fill="#000000">blockFD</text>
</a>
</g>
</g>
<!-- Node51&#45;&gt;Node81 -->
<g id="edge51" class="edge">
<title>Node51&#45;&gt;Node81</title>
<path fill="none" stroke="#191970" d="M54.5424,-436.3865C62.3174,-389.0021 98.5561,-180.7107 142,-134 145.9275,-129.7772 150.8704,-126.4901 156.137,-123.9321"/>
<polygon fill="#191970" stroke="#191970" points="157.8258,-127.0267 165.8172,-120.0705 155.2321,-120.525 157.8258,-127.0267"/>
</g>
<!-- Node82 -->
<g id="node32" class="node">
<title>Node82</title>
<g id="a_node32"><a xlink:href="files_8c.html#a786a7b6f9c01e8489d7196a79f5f3862" target="_top" xlink:title="Libera la memoria dello HEAP occupata dalla lista di filePath. ">
<polygon fill="none" stroke="#000000" points="166,-67.5 166,-86.5 222,-86.5 222,-67.5 166,-67.5"/>
<text text-anchor="middle" x="194" y="-74.5" font-family="Helvetica,sans-Serif" font-size="10.00" fill="#000000">free_list</text>
</a>
</g>
</g>
<!-- Node51&#45;&gt;Node82 -->
<g id="edge52" class="edge">
<title>Node51&#45;&gt;Node82</title>
<path fill="none" stroke="#191970" d="M54.2415,-436.2582C60.9222,-385.2259 94.0831,-149.0348 142,-96 146.0041,-91.5683 151.1282,-88.1685 156.5926,-85.5609"/>
<polygon fill="#191970" stroke="#191970" points="157.9436,-88.7906 165.9726,-81.8779 155.3852,-82.2749 157.9436,-88.7906"/>
</g>
<!-- Node83 -->
<g id="node33" class="node">
<title>Node83</title>
<g id="a_node33"><a xlink:href="client_8c.html#a54b47b58f228d7bc9827d2919687e25a" target="_top" xlink:title="Funzione eseguita da ogni Client i (figli di Client 0) per mandare i file al server. ">
<polygon fill="none" stroke="#000000" points="145.5,-351.5 145.5,-370.5 242.5,-370.5 242.5,-351.5 145.5,-351.5"/>
<text text-anchor="middle" x="194" y="-358.5" font-family="Helvetica,sans-Serif" font-size="10.00" fill="#000000">operazioni_figlio</text>
</a>
</g>
</g>
<!-- Node51&#45;&gt;Node83 -->
<g id="edge53" class="edge">
<title>Node51&#45;&gt;Node83</title>
<path fill="none" stroke="#191970" d="M68.9004,-436.4146C93.336,-421.684 140.32,-393.3603 169.2385,-375.9271"/>
<polygon fill="#191970" stroke="#191970" points="171.1842,-378.8411 177.9414,-370.6807 167.5702,-372.8461 171.1842,-378.8411"/>
</g>
<!-- Node52&#45;&gt;Node53 -->
<g id="edge2" class="edge">
<title>Node52&#45;&gt;Node53</title>
<path fill="none" stroke="#191970" d="M648.4126,-703.4776C662.1727,-696.1821 679.5154,-684.8467 690,-670 736.2603,-604.4931 747.1511,-505.6019 749.713,-463.7853"/>
<polygon fill="#191970" stroke="#191970" points="753.2195,-463.7459 750.2372,-453.5795 746.2287,-463.3868 753.2195,-463.7459"/>
</g>
<!-- Node55 -->
<g id="node5" class="node">
<title>Node55</title>
<g id="a_node5"><a xlink:href="defines_8c.html#abe68b7232c057100c2e21586906436d7" target="_top" xlink:title="get_project_ipc_key">
<polygon fill="none" stroke="#000000" points="284,-646.5 284,-665.5 398,-665.5 398,-646.5 284,-646.5"/>
<text text-anchor="middle" x="341" y="-653.5" font-family="Helvetica,sans-Serif" font-size="10.00" fill="#000000">get_project_ipc_key</text>
</a>
</g>
</g>
<!-- Node54&#45;&gt;Node55 -->
<g id="edge4" class="edge">
<title>Node54&#45;&gt;Node55</title>
<path fill="none" stroke="#191970" d="M231.0943,-684.411C250.3178,-679.4417 273.9863,-673.3233 294.4294,-668.0387"/>
<polygon fill="#191970" stroke="#191970" points="295.3667,-671.4115 304.1724,-665.5201 293.6147,-664.6343 295.3667,-671.4115"/>
</g>
<!-- Node55&#45;&gt;Node53 -->
<g id="edge5" class="edge">
<title>Node55&#45;&gt;Node53</title>
<path fill="none" stroke="#191970" d="M374.5691,-665.5159C442.1938,-682.49 596.3351,-709.7999 690,-637 717.8594,-615.3466 739.2625,-508.7487 747.177,-463.9196"/>
<polygon fill="#191970" stroke="#191970" points="750.6472,-464.3912 748.8942,-453.9424 743.7486,-463.2038 750.6472,-464.3912"/>
</g>
<!-- Node56&#45;&gt;Node53 -->
<g id="edge7" class="edge">
<title>Node56&#45;&gt;Node53</title>
<path fill="none" stroke="#191970" d="M667.0789,-608.4118C675.4219,-604.9469 683.6187,-600.2753 690,-594 727.0891,-557.5266 742.1809,-495.2932 747.6898,-463.6805"/>
<polygon fill="#191970" stroke="#191970" points="751.191,-463.9499 749.3089,-453.5236 744.2783,-462.8479 751.191,-463.9499"/>
</g>
<!-- Node57&#45;&gt;Node55 -->
<g id="edge9" class="edge">
<title>Node57&#45;&gt;Node55</title>
<path fill="none" stroke="#191970" d="M234.5575,-656C246.6795,-656 260.3088,-656 273.6647,-656"/>
<polygon fill="#191970" stroke="#191970" points="273.7952,-659.5001 283.7952,-656 273.7952,-652.5001 273.7952,-659.5001"/>
</g>
<!-- Node58&#45;&gt;Node53 -->
<g id="edge11" class="edge">
<title>Node58&#45;&gt;Node53</title>
<path fill="none" stroke="#191970" d="M523.2003,-532.4952C574.7396,-520.1706 660.3968,-498.6426 690,-485 704.5086,-478.3137 719.3802,-468.2869 730.7482,-459.8228"/>
<polygon fill="#191970" stroke="#191970" points="732.8841,-462.5956 738.6945,-453.7361 728.6274,-457.0385 732.8841,-462.5956"/>
</g>
<!-- Node59 -->
<g id="node9" class="node">
<title>Node59</title>
<g id="a_node9"><a xlink:href="semaphore_8c.html#a77c6570406059144bb6a8ecf04f481da" target="_top" xlink:title="Funzione di supporto per manipolare i valori di un set di semafori. ">
<polygon fill="none" stroke="#000000" points="602,-456.5 602,-475.5 653,-475.5 653,-456.5 602,-456.5"/>
<text text-anchor="middle" x="627.5" y="-463.5" font-family="Helvetica,sans-Serif" font-size="10.00" fill="#000000">semOp</text>
</a>
</g>
</g>
<!-- Node58&#45;&gt;Node59 -->
<g id="edge12" class="edge">
<title>Node58&#45;&gt;Node59</title>
<path fill="none" stroke="#191970" d="M510.3472,-532.4984C516.6935,-529.8279 523.2546,-526.6416 529,-523 547.3328,-511.3801 546.5447,-501.4243 565,-490 573.3464,-484.8333 582.9879,-480.4637 592.1616,-476.9274"/>
<polygon fill="#191970" stroke="#191970" points="593.6384,-480.1151 601.849,-473.419 591.2548,-473.5334 593.6384,-480.1151"/>
</g>
<!-- Node59&#45;&gt;Node53 -->
<g id="edge13" class="edge">
<title>Node59&#45;&gt;Node53</title>
<path fill="none" stroke="#191970" d="M653.2848,-461.3881C671.4012,-458.1478 695.845,-453.7757 715.6893,-450.2263"/>
<polygon fill="#191970" stroke="#191970" points="716.3619,-453.6616 725.5894,-448.4555 715.1294,-446.771 716.3619,-453.6616"/>
</g>
<!-- Node60&#45;&gt;Node53 -->
<g id="edge17" class="edge">
<title>Node60&#45;&gt;Node53</title>
<path fill="none" stroke="#191970" d="M516.6574,-586.219C560.6883,-592.2938 637.7824,-596.1474 690,-561 723.8466,-538.218 739.9016,-490.3609 746.5241,-463.4466"/>
<polygon fill="#191970" stroke="#191970" points="749.9508,-464.1611 748.7461,-453.635 743.1237,-462.615 749.9508,-464.1611"/>
</g>
<!-- Node61 -->
<g id="node11" class="node">
<title>Node61</title>
<g id="a_node11"><a xlink:href="fifo_8c.html#ab83de0eb3bc3947e3c031685d5c2474b" target="_top" xlink:title="Crea o ottiene una IPC FIFO usando mkfifo. ">
<polygon fill="none" stroke="#000000" points="595,-532.5 595,-551.5 660,-551.5 660,-532.5 595,-532.5"/>
<text text-anchor="middle" x="627.5" y="-539.5" font-family="Helvetica,sans-Serif" font-size="10.00" fill="#000000">make_fifo</text>
</a>
</g>
</g>
<!-- Node60&#45;&gt;Node61 -->
<g id="edge15" class="edge">
<title>Node60&#45;&gt;Node61</title>
<path fill="none" stroke="#191970" d="M516.863,-570.9945C537.2508,-565.6515 563.2635,-558.8344 584.9428,-553.1529"/>
<polygon fill="#191970" stroke="#191970" points="586.0913,-556.4702 594.8773,-550.5494 584.3166,-549.6989 586.0913,-556.4702"/>
</g>
<!-- Node61&#45;&gt;Node53 -->
<g id="edge16" class="edge">
<title>Node61&#45;&gt;Node53</title>
<path fill="none" stroke="#191970" d="M660.2718,-533.0221C670.3677,-529.3382 681.1462,-524.4018 690,-518 710.9086,-502.8818 728.7367,-478.8304 739.5134,-462.274"/>
<polygon fill="#191970" stroke="#191970" points="742.6591,-463.846 745.0137,-453.5161 736.7312,-460.123 742.6591,-463.846"/>
</g>
<!-- Node62&#45;&gt;Node53 -->
<g id="edge27" class="edge">
<title>Node62&#45;&gt;Node53</title>
<path fill="none" stroke="#191970" d="M233.9842,-295.4034C238.5148,-292.9495 242.6856,-289.8685 246,-286 299.3644,-223.714 218.598,-157.0336 282,-105 366.8588,-35.357 420.7562,-86.7123 529,-105 603.7019,-117.6208 639.855,-104.2097 690,-161 725.0002,-200.6385 743.3466,-366.4295 748.7627,-424.1132"/>
<polygon fill="#191970" stroke="#191970" points="745.3085,-424.7772 749.6992,-434.4194 752.2798,-424.1437 745.3085,-424.7772"/>
</g>
<!-- Node62&#45;&gt;Node62 -->
<g id="edge26" class="edge">
<title>Node62&#45;&gt;Node62</title>
<path fill="none" stroke="#191970" d="M172.4219,-314.7571C161.9245,-323.5653 169.1172,-333 194,-333 209.9406,-333 218.6211,-329.128 220.0416,-324.0292"/>
<polygon fill="#191970" stroke="#191970" points="223.0692,-322.2493 215.5781,-314.7571 216.762,-325.2855 223.0692,-322.2493"/>
</g>
<!-- Node63 -->
<g id="node13" class="node">
<title>Node63</title>
<g id="a_node13"><a xlink:href="strings_8c.html#a21b51584b636c81767ed74b8a527ffd3" target="_top" xlink:title="Concatena la cartella directory al percorso path. ">
<polygon fill="none" stroke="#000000" points="301,-38.5 301,-57.5 381,-57.5 381,-38.5 301,-38.5"/>
<text text-anchor="middle" x="341" y="-45.5" font-family="Helvetica,sans-Serif" font-size="10.00" fill="#000000">append2Path</text>
</a>
</g>
</g>
<!-- Node62&#45;&gt;Node63 -->
<g id="edge20" class="edge">
<title>Node62&#45;&gt;Node63</title>
<path fill="none" stroke="#191970" d="M234.0931,-295.4953C238.6064,-293.0268 242.7434,-289.9172 246,-286 307.6578,-211.8351 221.6879,-147.2634 282,-72 284.9184,-68.3582 288.478,-65.2649 292.3881,-62.6382"/>
<polygon fill="#191970" stroke="#191970" points="294.3753,-65.537 301.395,-57.6014 290.9587,-59.4274 294.3753,-65.537"/>
</g>
<!-- Node64 -->
<g id="node14" class="node">
<title>Node64</title>
<g id="a_node14"><a xlink:href="files_8c.html#a675d61c6bfe0d9ddd1be59233dfd7d5c" target="_top" xlink:title="Restituisce 1 se il percorso inizia con &quot;sendme_&quot;, 0 altrimenti. ">
<polygon fill="none" stroke="#000000" points="295.5,-.5 295.5,-19.5 386.5,-19.5 386.5,-.5 295.5,-.5"/>
<text text-anchor="middle" x="341" y="-7.5" font-family="Helvetica,sans-Serif" font-size="10.00" fill="#000000">checkFileName</text>
</a>
</g>
</g>
<!-- Node62&#45;&gt;Node64 -->
<g id="edge21" class="edge">
<title>Node62&#45;&gt;Node64</title>
<path fill="none" stroke="#191970" d="M234.4494,-295.4379C238.8469,-292.9786 242.858,-289.8869 246,-286 318.5079,-196.3043 207.7672,-117.2735 282,-29 283.4913,-27.2267 285.149,-25.6173 286.9347,-24.1567"/>
<polygon fill="#191970" stroke="#191970" points="288.9544,-27.019 295.464,-18.6598 285.1624,-21.1351 288.9544,-27.019"/>
</g>
<!-- Node66 -->
<g id="node16" class="node">
<title>Node66</title>
<g id="a_node16"><a xlink:href="files_8c.html#a5ac4517096592013308a3252f3226f60" target="_top" xlink:title="Restituisce 1 se il percorso ha la dimensione &lt;= 4 KB, 0 altrimenti. ">
<polygon fill="none" stroke="#000000" points="300,-152.5 300,-171.5 382,-171.5 382,-152.5 300,-152.5"/>
<text text-anchor="middle" x="341" y="-159.5" font-family="Helvetica,sans-Serif" font-size="10.00" fill="#000000">checkFileSize</text>
</a>
</g>
</g>
<!-- Node62&#45;&gt;Node66 -->
<g id="edge23" class="edge">
<title>Node62&#45;&gt;Node66</title>
<path fill="none" stroke="#191970" d="M232.4083,-295.4457C237.4136,-292.979 242.1353,-289.8831 246,-286 279.3218,-252.5192 249.2866,-220.0755 282,-186 285.6867,-182.1598 290.0732,-178.9152 294.766,-176.178"/>
<polygon fill="#191970" stroke="#191970" points="296.6936,-179.1269 304.0644,-171.5163 293.5563,-172.8692 296.6936,-179.1269"/>
</g>
<!-- Node68 -->
<g id="node18" class="node">
<title>Node68</title>
<g id="a_node18"><a xlink:href="files_8c.html#a6a46f37bcdbf048db0fba5bb3e0e6342" target="_top" xlink:title="Aggiunge in fondo alla coda un nuovo filePath. ">
<polygon fill="none" stroke="#000000" points="314.5,-114.5 314.5,-133.5 367.5,-133.5 367.5,-114.5 314.5,-114.5"/>
<text text-anchor="middle" x="341" y="-121.5" font-family="Helvetica,sans-Serif" font-size="10.00" fill="#000000">append</text>
</a>
</g>
</g>
<!-- Node62&#45;&gt;Node68 -->
<g id="edge25" class="edge">
<title>Node62&#45;&gt;Node68</title>
<path fill="none" stroke="#191970" d="M233.5443,-295.3807C238.2024,-292.9296 242.5251,-289.8553 246,-286 289.8789,-237.3179 237.1857,-190.8225 282,-143 288.0292,-136.5661 296.243,-132.3044 304.6254,-129.4834"/>
<polygon fill="#191970" stroke="#191970" points="305.7079,-132.8157 314.4223,-126.7898 303.8522,-126.0662 305.7079,-132.8157"/>
</g>
<!-- Node65 -->
<g id="node15" class="node">
<title>Node65</title>
<g id="a_node15"><a xlink:href="strings_8c.html#ab6b8529148710caedf063c1de6b0db16" target="_top" xlink:title="Restituisce vero se la stringa a inizia con la sotto stringa b. ">
<polygon fill="none" stroke="#000000" points="448.5,-.5 448.5,-19.5 516.5,-19.5 516.5,-.5 448.5,-.5"/>
<text text-anchor="middle" x="482.5" y="-7.5" font-family="Helvetica,sans-Serif" font-size="10.00" fill="#000000">StartsWith</text>
</a>
</g>
</g>
<!-- Node64&#45;&gt;Node65 -->
<g id="edge22" class="edge">
<title>Node64&#45;&gt;Node65</title>
<path fill="none" stroke="#191970" d="M386.5504,-10C402.9863,-10 421.5093,-10 437.866,-10"/>
<polygon fill="#191970" stroke="#191970" points="438.2581,-13.5001 448.2581,-10 438.258,-6.5001 438.2581,-13.5001"/>
</g>
<!-- Node67 -->
<g id="node17" class="node">
<title>Node67</title>
<g id="a_node17"><a xlink:href="files_8c.html#a096f8e9259afb2839ebe6822364f9928" target="_top" xlink:title="Restituisce la dimensione in byte del file con percorso filePath. ">
<polygon fill="none" stroke="#000000" points="448,-114.5 448,-133.5 517,-133.5 517,-114.5 448,-114.5"/>
<text text-anchor="middle" x="482.5" y="-121.5" font-family="Helvetica,sans-Serif" font-size="10.00" fill="#000000">getFileSize</text>
</a>
</g>
</g>
<!-- Node66&#45;&gt;Node67 -->
<g id="edge24" class="edge">
<title>Node66&#45;&gt;Node67</title>
<path fill="none" stroke="#191970" d="M376.7064,-152.411C395.3367,-147.4078 418.3041,-141.2399 438.0734,-135.9308"/>
<polygon fill="#191970" stroke="#191970" points="439.0333,-139.2971 447.7833,-133.3232 437.2177,-132.5367 439.0333,-139.2971"/>
</g>
<!-- Node72&#45;&gt;Node59 -->
<g id="edge32" class="edge">
<title>Node72&#45;&gt;Node59</title>
<path fill="none" stroke="#191970" d="M512.1928,-466C535.1442,-466 567.0129,-466 591.4315,-466"/>
<polygon fill="#191970" stroke="#191970" points="591.7297,-469.5001 601.7296,-466 591.7296,-462.5001 591.7297,-469.5001"/>
</g>
<!-- Node74&#45;&gt;Node59 -->
<g id="edge35" class="edge">
<title>Node74&#45;&gt;Node59</title>
<path fill="none" stroke="#191970" d="M516.863,-494.9945C539.3765,-489.0944 568.7491,-481.3968 591.5713,-475.4158"/>
<polygon fill="#191970" stroke="#191970" points="592.7621,-478.722 601.5481,-472.8012 590.9875,-471.9507 592.7621,-478.722"/>
</g>
<!-- Node75&#45;&gt;Node53 -->
<g id="edge42" class="edge">
<title>Node75&#45;&gt;Node53</title>
<path fill="none" stroke="#191970" d="M380.3257,-342.3916C387.1574,-339.8806 393.99,-336.7846 400,-333 419.6864,-320.6032 414.6287,-304.1925 436,-295 482.8561,-274.8457 685.3207,-311.6031 690,-315 726.2279,-341.2994 741.4696,-394.8841 747.2917,-424.0325"/>
<polygon fill="#191970" stroke="#191970" points="743.9121,-425.012 749.1393,-434.2276 750.7999,-423.7637 743.9121,-425.012"/>
</g>
<!-- Node75&#45;&gt;Node59 -->
<g id="edge37" class="edge">
<title>Node75&#45;&gt;Node59</title>
<path fill="none" stroke="#191970" d="M375.873,-361.5604C384.0267,-364.4053 392.5118,-367.8851 400,-372 418.0061,-381.8947 417.9959,-391.1018 436,-401 487.0864,-429.0861 552.4665,-448.0837 592.1059,-457.9668"/>
<polygon fill="#191970" stroke="#191970" points="591.3016,-461.3732 601.846,-460.3405 592.9591,-454.5722 591.3016,-461.3732"/>
</g>
<!-- Node75&#45;&gt;Node72 -->
<g id="edge38" class="edge">
<title>Node75&#45;&gt;Node72</title>
<path fill="none" stroke="#191970" d="M375.7287,-361.5654C384.3374,-365.1026 393.0714,-369.8132 400,-376 424.9233,-398.2547 412.1045,-418.6451 436,-442 439.549,-445.4687 443.7006,-448.5498 448.036,-451.2509"/>
<polygon fill="#191970" stroke="#191970" points="446.6178,-454.4668 457.0592,-456.2637 450.0173,-448.3477 446.6178,-454.4668"/>
</g>
<!-- Node75&#45;&gt;Node74 -->
<g id="edge39" class="edge">
<title>Node75&#45;&gt;Node74</title>
<path fill="none" stroke="#191970" d="M352.0169,-361.7138C364.69,-373.2809 385.5989,-393.6103 400,-414 420.4111,-442.8988 409.9857,-461.0207 436,-485 437.6672,-486.5368 439.4754,-487.9574 441.3787,-489.2695"/>
<polygon fill="#191970" stroke="#191970" points="439.7797,-492.3877 450.1909,-494.3523 443.2772,-486.324 439.7797,-492.3877"/>
</g>
<!-- Node76 -->
<g id="node26" class="node">
<title>Node76</title>
<g id="a_node26"><a xlink:href="semaphore_8c.html#aad78dc4ccefb184a74dd9ef808df8db6" target="_top" xlink:title="Inizializza il valore del semaforo sem_num al valore val. ">
<polygon fill="none" stroke="#000000" points="593.5,-228.5 593.5,-247.5 661.5,-247.5 661.5,-228.5 593.5,-228.5"/>
<text text-anchor="middle" x="627.5" y="-235.5" font-family="Helvetica,sans-Serif" font-size="10.00" fill="#000000">semSetVal</text>
</a>
</g>
</g>
<!-- Node75&#45;&gt;Node76 -->
<g id="edge40" class="edge">
<title>Node75&#45;&gt;Node76</title>
<path fill="none" stroke="#191970" d="M382.2466,-343.3904C388.6517,-340.787 394.8434,-337.4013 400,-333 426.9106,-310.031 407.0638,-282.358 436,-262 479.0734,-231.6958 541.4449,-229.5567 583.1795,-232.4209"/>
<polygon fill="#191970" stroke="#191970" points="583.0709,-235.9235 593.321,-233.2428 583.6364,-228.9463 583.0709,-235.9235"/>
</g>
<!-- Node77 -->
<g id="node27" class="node">
<title>Node77</title>
<g id="a_node27"><a xlink:href="semaphore_8c.html#a8df9b8ea63eaf93d09f437b356a4a1eb" target="_top" xlink:title="Inizializza i valori del set di semafori semid ai valori in values. ">
<polygon fill="none" stroke="#000000" points="594.5,-190.5 594.5,-209.5 660.5,-209.5 660.5,-190.5 594.5,-190.5"/>
<text text-anchor="middle" x="627.5" y="-197.5" font-family="Helvetica,sans-Serif" font-size="10.00" fill="#000000">semSetAll</text>
</a>
</g>
</g>
<!-- Node75&#45;&gt;Node77 -->
<g id="edge43" class="edge">
<title>Node75&#45;&gt;Node77</title>
<path fill="none" stroke="#191970" d="M382.1839,-344.2345C388.7471,-341.5357 395.0078,-337.8994 400,-333 435.2094,-298.4446 398.0413,-259.5105 436,-228 477.3188,-193.7002 541.6851,-191.3143 584.2172,-194.3629"/>
<polygon fill="#191970" stroke="#191970" points="584.0079,-197.8576 594.2673,-195.2129 584.5979,-190.8825 584.0079,-197.8576"/>
</g>
<!-- Node78 -->
<g id="node28" class="node">
<title>Node78</title>
<g id="a_node28"><a xlink:href="semaphore_8c.html#a530566146b6e3cc8415d8ae4259fd68f" target="_top" xlink:title="Cancella il set di semafori svegliando eventuali processi in attesa. ">
<polygon fill="none" stroke="#000000" points="592.5,-413.5 592.5,-432.5 662.5,-432.5 662.5,-413.5 592.5,-413.5"/>
<text text-anchor="middle" x="627.5" y="-420.5" font-family="Helvetica,sans-Serif" font-size="10.00" fill="#000000">semDelete</text>
</a>
</g>
</g>
<!-- Node75&#45;&gt;Node78 -->
<g id="edge45" class="edge">
<title>Node75&#45;&gt;Node78</title>
<path fill="none" stroke="#191970" d="M378.4353,-361.5196C395.9181,-365.9494 417.0169,-371.2727 436,-376 486.0097,-388.4538 543.4272,-402.5142 582.2449,-411.9846"/>
<polygon fill="#191970" stroke="#191970" points="581.6427,-415.4402 592.1872,-414.4091 583.3012,-408.6395 581.6427,-415.4402"/>
</g>
<!-- Node79 -->
<g id="node29" class="node">
<title>Node79</title>
<g id="a_node29"><a xlink:href="semaphore_8c.html#a7d80413e893e7d9ae3d153e23c2df2e4" target="_top" xlink:title="Recupera statistiche di un set di semafori. ">
<polygon fill="none" stroke="#000000" points="587.5,-370.5 587.5,-389.5 667.5,-389.5 667.5,-370.5 587.5,-370.5"/>
<text text-anchor="middle" x="627.5" y="-377.5" font-family="Helvetica,sans-Serif" font-size="10.00" fill="#000000">semGetStats</text>
</a>
</g>
</g>
<!-- Node75&#45;&gt;Node79 -->
<g id="edge47" class="edge">
<title>Node75&#45;&gt;Node79</title>
<path fill="none" stroke="#191970" d="M382.0485,-356.0117C433.6122,-361.0511 522.0396,-369.6932 577.4964,-375.1131"/>
<polygon fill="#191970" stroke="#191970" points="577.1583,-378.5966 587.4514,-376.086 577.8393,-371.6298 577.1583,-378.5966"/>
</g>
<!-- Node80 -->
<g id="node30" class="node">
<title>Node80</title>
<g id="a_node30"><a xlink:href="semaphore_8c.html#a34a010b0a39236a7261d7d5103426491" target="_top" xlink:title="Imposta i permessi su un set di semafori. ">
<polygon fill="none" stroke="#000000" points="443,-304.5 443,-323.5 522,-323.5 522,-304.5 443,-304.5"/>
<text text-anchor="middle" x="482.5" y="-311.5" font-family="Helvetica,sans-Serif" font-size="10.00" fill="#000000">semSetPerm</text>
</a>
</g>
</g>
<!-- Node75&#45;&gt;Node80 -->
<g id="edge49" class="edge">
<title>Node75&#45;&gt;Node80</title>
<path fill="none" stroke="#191970" d="M376.7064,-342.411C394.9727,-337.5056 417.4084,-331.4804 436.9112,-326.2429"/>
<polygon fill="#191970" stroke="#191970" points="438.055,-329.5599 446.805,-323.5859 436.2394,-322.7994 438.055,-329.5599"/>
</g>
<!-- Node76&#45;&gt;Node53 -->
<g id="edge41" class="edge">
<title>Node76&#45;&gt;Node53</title>
<path fill="none" stroke="#191970" d="M661.5167,-245.0639C671.7992,-248.6522 682.3726,-254.0157 690,-262 733.9992,-308.0579 746.0238,-386.9085 749.2914,-423.8247"/>
<polygon fill="#191970" stroke="#191970" points="745.8346,-424.5326 750.074,-434.2423 752.8149,-424.0082 745.8346,-424.5326"/>
</g>
<!-- Node77&#45;&gt;Node53 -->
<g id="edge44" class="edge">
<title>Node77&#45;&gt;Node53</title>
<path fill="none" stroke="#191970" d="M660.7012,-203.6533C671.2987,-206.3587 682.2696,-211.0146 690,-219 718.8422,-248.7935 740.292,-375.1867 747.6901,-424.3364"/>
<polygon fill="#191970" stroke="#191970" points="744.2425,-424.9493 749.16,-434.3337 751.168,-423.9309 744.2425,-424.9493"/>
</g>
<!-- Node78&#45;&gt;Node53 -->
<g id="edge46" class="edge">
<title>Node78&#45;&gt;Node53</title>
<path fill="none" stroke="#191970" d="M662.7469,-429.0178C679.4425,-431.8682 699.3161,-435.2613 715.9251,-438.097"/>
<polygon fill="#191970" stroke="#191970" points="715.3407,-441.5478 725.7871,-439.7807 716.5188,-434.6476 715.3407,-441.5478"/>
</g>
<!-- Node79&#45;&gt;Node53 -->
<g id="edge48" class="edge">
<title>Node79&#45;&gt;Node53</title>
<path fill="none" stroke="#191970" d="M656.3827,-389.5992C667.1592,-393.5651 679.3557,-398.5204 690,-404 703.604,-411.0032 717.9245,-420.3704 729.2162,-428.2795"/>
<polygon fill="#191970" stroke="#191970" points="727.3803,-431.2694 737.551,-434.2369 731.4507,-425.5745 727.3803,-431.2694"/>
</g>
<!-- Node80&#45;&gt;Node53 -->
<g id="edge50" class="edge">
<title>Node80&#45;&gt;Node53</title>
<path fill="none" stroke="#191970" d="M522.0124,-314.8242C566.2997,-317.4865 638.6196,-327.2022 690,-361 714.1193,-376.8656 731.9291,-405.8608 741.7631,-425.0328"/>
<polygon fill="#191970" stroke="#191970" points="738.7485,-426.8357 746.2828,-434.2846 745.0381,-423.7631 738.7485,-426.8357"/>
</g>
<!-- Node83&#45;&gt;Node53 -->
<g id="edge54" class="edge">
<title>Node83&#45;&gt;Node53</title>
<path fill="none" stroke="#191970" d="M231.952,-351.3779C237.0817,-348.9176 241.9602,-345.8415 246,-342 275.7305,-313.7288 252.0456,-285.0338 282,-257 322.5366,-219.0625 350.7527,-241.6353 400,-216 417.5067,-206.887 417.4436,-196.7225 436,-190 490.036,-170.424 507.5622,-183.0012 565,-181 620.5219,-179.0655 646.5354,-146.3987 690,-181 728.408,-211.5759 744.4759,-368.3321 749.0414,-424.1961"/>
<polygon fill="#191970" stroke="#191970" points="745.5571,-424.534 749.8248,-434.2312 752.5358,-423.9891 745.5571,-424.534"/>
</g>
<!-- Node83&#45;&gt;Node67 -->
<g id="edge55" class="edge">
<title>Node83&#45;&gt;Node67</title>
<path fill="none" stroke="#191970" d="M232.8462,-351.485C237.7282,-349.015 242.2986,-345.9077 246,-342 283.7065,-302.1924 244.2764,-263.7913 282,-224 320.4028,-183.4923 352.2887,-209.9705 400,-181 418.5527,-169.7347 418.1996,-160.42 436,-148 440.9639,-144.5365 446.4935,-141.2502 451.9583,-138.2835"/>
<polygon fill="#191970" stroke="#191970" points="453.7071,-141.3195 460.9825,-133.6175 450.4921,-135.1015 453.7071,-141.3195"/>
</g>
<!-- Node83&#45;&gt;Node72 -->
<g id="edge57" class="edge">
<title>Node83&#45;&gt;Node72</title>
<path fill="none" stroke="#191970" d="M242.5777,-367.7413C285.607,-375.03 349.2832,-389.0974 400,-414 418.1948,-422.9339 418.9212,-431.083 436,-442 441.1979,-445.3226 446.9101,-448.5712 452.498,-451.5512"/>
<polygon fill="#191970" stroke="#191970" points="451.1794,-454.8091 461.6719,-456.2786 454.386,-448.5867 451.1794,-454.8091"/>
</g>
<!-- Node83&#45;&gt;Node74 -->
<g id="edge60" class="edge">
<title>Node83&#45;&gt;Node74</title>
<path fill="none" stroke="#191970" d="M211.0882,-370.5905C228.7384,-380.4327 257.1335,-396.0892 282,-409 349.7393,-444.1706 366.407,-453.6567 436,-485 440.1373,-486.8634 444.5137,-488.7542 448.8611,-490.5843"/>
<polygon fill="#191970" stroke="#191970" points="447.6494,-493.8706 458.2279,-494.4595 450.3255,-487.4023 447.6494,-493.8706"/>
</g>
<!-- Node83&#45;&gt;Node75 -->
<g id="edge58" class="edge">
<title>Node83&#45;&gt;Node75</title>
<path fill="none" stroke="#191970" d="M242.5407,-358.0281C257.6252,-357.1046 274.3013,-356.0836 289.5753,-355.1484"/>
<polygon fill="#191970" stroke="#191970" points="290.1215,-358.6217 299.8889,-354.517 289.6937,-351.6347 290.1215,-358.6217"/>
</g>
<!-- Node84 -->
<g id="node34" class="node">
<title>Node84</title>
<g id="a_node34"><a xlink:href="client_8c.html#a55586f2b7e9b3620294cf78cda8abdad" target="_top" xlink:title="Divide in 4 parti il contenuto del file da inviare al server. ">
<polygon fill="none" stroke="#000000" points="319,-304.5 319,-323.5 363,-323.5 363,-304.5 319,-304.5"/>
<text text-anchor="middle" x="341" y="-311.5" font-family="Helvetica,sans-Serif" font-size="10.00" fill="#000000">dividi</text>
</a>
</g>
</g>
<!-- Node83&#45;&gt;Node84 -->
<g id="edge56" class="edge">
<title>Node83&#45;&gt;Node84</title>
<path fill="none" stroke="#191970" d="M223.7476,-351.4888C248.6328,-343.5324 284.0385,-332.2122 309.4222,-324.0963"/>
<polygon fill="#191970" stroke="#191970" points="310.4938,-327.4283 318.9529,-321.0491 308.362,-320.7608 310.4938,-327.4283"/>
</g>
<!-- Node85 -->
<g id="node35" class="node">
<title>Node85</title>
<g id="a_node35"><a xlink:href="defines_8c.html#ac281b05b7a90ba292f5748cbfe3c389d" target="_top" xlink:title="Restituisce vero se l&#39;array contiene tutti true. ">
<polygon fill="none" stroke="#000000" points="282,-266.5 282,-285.5 400,-285.5 400,-266.5 282,-266.5"/>
<text text-anchor="middle" x="341" y="-273.5" font-family="Helvetica,sans-Serif" font-size="10.00" fill="#000000">arrayContainsAllTrue</text>
</a>
</g>
</g>
<!-- Node83&#45;&gt;Node85 -->
<g id="edge59" class="edge">
<title>Node83&#45;&gt;Node85</title>
<path fill="none" stroke="#191970" d="M228.6935,-351.4586C234.7759,-348.9321 240.8107,-345.8134 246,-342 267.2031,-326.4188 260.4989,-310.1673 282,-295 284.7259,-293.0771 287.6569,-291.3412 290.7031,-289.7754"/>
<polygon fill="#191970" stroke="#191970" points="292.4005,-292.8503 300.0984,-285.5707 289.541,-286.461 292.4005,-292.8503"/>
</g>
</g>
</svg>
