<?xml version="1.0" encoding="UTF-8" standalone="no"?>
<!DOCTYPE svg PUBLIC "-//W3C//DTD SVG 1.1//EN"
 "http://www.w3.org/Graphics/SVG/1.1/DTD/svg11.dtd">
<!-- Generated by graphviz version 2.40.1 (20161225.0304)
 -->
<!-- Title: SIGINTSignalHandler Pages: 1 -->
<svg width="512pt" height="324pt"
 viewBox="0.00 0.00 512.00 323.50" xmlns="http://www.w3.org/2000/svg" xmlns:xlink="http://www.w3.org/1999/xlink">
<g id="graph0" class="graph" transform="scale(1 1) rotate(0) translate(4 319.5)">
<title>SIGINTSignalHandler</title>
<!-- Node14 -->
<g id="node1" class="node">
<title>Node14</title>
<polygon fill="#bfbfbf" stroke="#000000" points="0,-163 0,-182 118,-182 118,-163 0,-163"/>
<text text-anchor="middle" x="59" y="-170" font-family="Helvetica,sans-Serif" font-size="10.00" fill="#000000">SIGINTSignalHandler</text>
</g>
<!-- Node15 -->
<g id="node2" class="node">
<title>Node15</title>
<g id="a_node2"><a xlink:href="signals_8c.html#a6e96709c7c3ecbcde283f4a2a09e4baf" target="_top" xlink:title="block_all_signals">
<polygon fill="none" stroke="#000000" points="163,-296 163,-315 263,-315 263,-296 163,-296"/>
<text text-anchor="middle" x="213" y="-303" font-family="Helvetica,sans-Serif" font-size="10.00" fill="#000000">block_all_signals</text>
</a>
</g>
</g>
<!-- Node14&#45;&gt;Node15 -->
<g id="edge1" class="edge">
<title>Node14&#45;&gt;Node15</title>
<path fill="none" stroke="#191970" d="M64.3276,-182.0129C76.9935,-203.7727 111.0808,-257.5262 154,-286.5 156.9433,-288.4869 160.1081,-290.2773 163.3885,-291.8888"/>
<polygon fill="#191970" stroke="#191970" points="162.2828,-295.2236 172.8513,-295.9714 165.0559,-288.7963 162.2828,-295.2236"/>
</g>
<!-- Node16 -->
<g id="node3" class="node">
<title>Node16</title>
<g id="a_node3"><a xlink:href="err__exit_8c.html#aa223b0ecfe538d130ece562646a37d27" target="_top" xlink:title="Prints the error message of the last failed system call and terminates the calling process...">
<polygon fill="none" stroke="#000000" points="329,-211 329,-230 378,-230 378,-211 329,-211"/>
<text text-anchor="middle" x="353.5" y="-218" font-family="Helvetica,sans-Serif" font-size="10.00" fill="#000000">ErrExit</text>
</a>
</g>
</g>
<!-- Node14&#45;&gt;Node16 -->
<g id="edge2" class="edge">
<title>Node14&#45;&gt;Node16</title>
<path fill="none" stroke="#191970" d="M77.6974,-182.1337C96.4435,-191.2686 126.408,-204.4661 154,-210.5 210.7561,-222.9117 278.6652,-223.3612 318.824,-222.1896"/>
<polygon fill="#191970" stroke="#191970" points="319.0233,-225.6849 328.8974,-221.844 318.7833,-218.689 319.0233,-225.6849"/>
</g>
<!-- Node17 -->
<g id="node4" class="node">
<title>Node17</title>
<g id="a_node4"><a xlink:href="files_8c.html#a627e4b202ea71f3bd241ccf562449bd6" target="_top" xlink:title="find_sendme_files">
<polygon fill="none" stroke="#000000" points="161,-88 161,-107 265,-107 265,-88 161,-88"/>
<text text-anchor="middle" x="213" y="-95" font-family="Helvetica,sans-Serif" font-size="10.00" fill="#000000">find_sendme_files</text>
</a>
</g>
</g>
<!-- Node14&#45;&gt;Node17 -->
<g id="edge3" class="edge">
<title>Node14&#45;&gt;Node17</title>
<path fill="none" stroke="#191970" d="M78.8175,-162.8486C105.4998,-149.854 153.169,-126.6385 183.9178,-111.6634"/>
<polygon fill="#191970" stroke="#191970" points="185.8005,-114.6396 193.2585,-107.1144 182.7355,-108.3462 185.8005,-114.6396"/>
</g>
<!-- Node24 -->
<g id="node11" class="node">
<title>Node24</title>
<g id="a_node11"><a xlink:href="files_8c.html#a1cdd9b5b37408e31d80f31e474a71483" target="_top" xlink:title="Visualizza il contenuto della lista concatenata di filePath. ">
<polygon fill="none" stroke="#000000" points="183.5,-182 183.5,-201 242.5,-201 242.5,-182 183.5,-182"/>
<text text-anchor="middle" x="213" y="-189" font-family="Helvetica,sans-Serif" font-size="10.00" fill="#000000">print_list</text>
</a>
</g>
</g>
<!-- Node14&#45;&gt;Node24 -->
<g id="edge12" class="edge">
<title>Node14&#45;&gt;Node24</title>
<path fill="none" stroke="#191970" d="M118.1,-179.7916C136.5037,-182.0621 156.3516,-184.5109 173.1149,-186.5791"/>
<polygon fill="#191970" stroke="#191970" points="172.7599,-190.0618 183.1132,-187.8127 173.6171,-183.1144 172.7599,-190.0618"/>
</g>
<!-- Node25 -->
<g id="node12" class="node">
<title>Node25</title>
<g id="a_node12"><a xlink:href="files_8c.html#a3ba19f05c37434e7f20facff3445651a" target="_top" xlink:title="Conta il numero di file nella lista concatenata di filePath. ">
<polygon fill="none" stroke="#000000" points="178.5,-144 178.5,-163 247.5,-163 247.5,-144 178.5,-144"/>
<text text-anchor="middle" x="213" y="-151" font-family="Helvetica,sans-Serif" font-size="10.00" fill="#000000">count_files</text>
</a>
</g>
</g>
<!-- Node14&#45;&gt;Node25 -->
<g id="edge13" class="edge">
<title>Node14&#45;&gt;Node25</title>
<path fill="none" stroke="#191970" d="M118.1,-165.2084C134.7993,-163.1481 152.6877,-160.9411 168.3817,-159.0049"/>
<polygon fill="#191970" stroke="#191970" points="168.8473,-162.474 178.3434,-157.7758 167.9901,-155.5267 168.8473,-162.474"/>
</g>
<!-- Node26 -->
<g id="node13" class="node">
<title>Node26</title>
<g id="a_node13"><a xlink:href="client_8c.html#a54b47b58f228d7bc9827d2919687e25a" target="_top" xlink:title="Funzione eseguita da ogni Client i (figli di Client 0) per mandare i file al server. ">
<polygon fill="none" stroke="#000000" points="164.5,-258 164.5,-277 261.5,-277 261.5,-258 164.5,-258"/>
<text text-anchor="middle" x="213" y="-265" font-family="Helvetica,sans-Serif" font-size="10.00" fill="#000000">operazioni_figlio</text>
</a>
</g>
</g>
<!-- Node14&#45;&gt;Node26 -->
<g id="edge14" class="edge">
<title>Node14&#45;&gt;Node26</title>
<path fill="none" stroke="#191970" d="M69.7652,-182.0074C86.7429,-196.6518 121.19,-224.9715 154,-243.5 160.7522,-247.3131 168.2323,-250.8381 175.5348,-253.9466"/>
<polygon fill="#191970" stroke="#191970" points="174.7158,-257.3918 185.2977,-257.9153 177.352,-250.9071 174.7158,-257.3918"/>
</g>
<!-- Node28 -->
<g id="node15" class="node">
<title>Node28</title>
<g id="a_node15"><a xlink:href="files_8c.html#a786a7b6f9c01e8489d7196a79f5f3862" target="_top" xlink:title="Libera la memoria dello HEAP occupata dalla lista di filePath. ">
<polygon fill="none" stroke="#000000" points="185,-50 185,-69 241,-69 241,-50 185,-50"/>
<text text-anchor="middle" x="213" y="-57" font-family="Helvetica,sans-Serif" font-size="10.00" fill="#000000">free_list</text>
</a>
</g>
</g>
<!-- Node14&#45;&gt;Node28 -->
<g id="edge18" class="edge">
<title>Node14&#45;&gt;Node28</title>
<path fill="none" stroke="#191970" d="M66.2479,-162.7417C80.8085,-143.8007 115.528,-101.8671 154,-78.5 160.4497,-74.5826 167.7931,-71.3856 175.0565,-68.8084"/>
<polygon fill="#191970" stroke="#191970" points="176.3717,-72.0621 184.8201,-65.6687 174.2287,-65.3981 176.3717,-72.0621"/>
</g>
<!-- Node29 -->
<g id="node16" class="node">
<title>Node29</title>
<g id="a_node16"><a xlink:href="signals_8c.html#a6060ad9cb62b184abfe113560b29f3c4" target="_top" xlink:title="block_sig_no_SIGINT\l_SIGUSR1">
<polygon fill="none" stroke="#000000" points="154,-.5 154,-30.5 272,-30.5 272,-.5 154,-.5"/>
<text text-anchor="start" x="162" y="-18.5" font-family="Helvetica,sans-Serif" font-size="10.00" fill="#000000">block_sig_no_SIGINT</text>
<text text-anchor="middle" x="213" y="-7.5" font-family="Helvetica,sans-Serif" font-size="10.00" fill="#000000">_SIGUSR1</text>
</a>
</g>
</g>
<!-- Node14&#45;&gt;Node29 -->
<g id="edge19" class="edge">
<title>Node14&#45;&gt;Node29</title>
<path fill="none" stroke="#191970" d="M63.5956,-162.8227C75.3896,-138.9231 108.9922,-76.443 154,-40.5 156.0537,-38.8599 158.2308,-37.3097 160.4911,-35.8466"/>
<polygon fill="#191970" stroke="#191970" points="162.622,-38.658 169.5361,-30.6301 159.1248,-32.5942 162.622,-38.658"/>
</g>
<!-- Node17&#45;&gt;Node16 -->
<g id="edge11" class="edge">
<title>Node17&#45;&gt;Node16</title>
<path fill="none" stroke="#191970" d="M232.9159,-107.0236C245.174,-113.5615 260.6557,-123.1031 272,-134.5 293.4037,-156.0029 286.5055,-171.0879 308,-192.5 312.9448,-197.4258 318.9139,-201.8751 324.878,-205.7024"/>
<polygon fill="#191970" stroke="#191970" points="323.1126,-208.7247 333.4925,-210.8478 326.7021,-202.7151 323.1126,-208.7247"/>
</g>
<!-- Node17&#45;&gt;Node17 -->
<g id="edge10" class="edge">
<title>Node17&#45;&gt;Node17</title>
<path fill="none" stroke="#191970" d="M191.4219,-107.2571C180.9245,-116.0653 188.1172,-125.5 213,-125.5 228.9406,-125.5 237.6211,-121.628 239.0416,-116.5292"/>
<polygon fill="#191970" stroke="#191970" points="242.0692,-114.7493 234.5781,-107.2571 235.762,-117.7855 242.0692,-114.7493"/>
</g>
<!-- Node18 -->
<g id="node5" class="node">
<title>Node18</title>
<g id="a_node5"><a xlink:href="strings_8c.html#a21b51584b636c81767ed74b8a527ffd3" target="_top" xlink:title="Concatena la cartella directory al percorso path. ">
<polygon fill="none" stroke="#000000" points="313.5,-126 313.5,-145 393.5,-145 393.5,-126 313.5,-126"/>
<text text-anchor="middle" x="353.5" y="-133" font-family="Helvetica,sans-Serif" font-size="10.00" fill="#000000">append2Path</text>
</a>
</g>
</g>
<!-- Node17&#45;&gt;Node18 -->
<g id="edge4" class="edge">
<title>Node17&#45;&gt;Node18</title>
<path fill="none" stroke="#191970" d="M248.4541,-107.089C266.5913,-111.9944 288.8684,-118.0196 308.2334,-123.2571"/>
<polygon fill="#191970" stroke="#191970" points="307.4903,-126.6818 318.0573,-125.9141 309.3179,-119.9246 307.4903,-126.6818"/>
</g>
<!-- Node19 -->
<g id="node6" class="node">
<title>Node19</title>
<g id="a_node6"><a xlink:href="files_8c.html#a675d61c6bfe0d9ddd1be59233dfd7d5c" target="_top" xlink:title="Restituisce 1 se il percorso inizia con &quot;sendme_&quot;, 0 altrimenti. ">
<polygon fill="none" stroke="#000000" points="308,-50 308,-69 399,-69 399,-50 308,-50"/>
<text text-anchor="middle" x="353.5" y="-57" font-family="Helvetica,sans-Serif" font-size="10.00" fill="#000000">checkFileName</text>
</a>
</g>
</g>
<!-- Node17&#45;&gt;Node19 -->
<g id="edge5" class="edge">
<title>Node17&#45;&gt;Node19</title>
<path fill="none" stroke="#191970" d="M248.4541,-87.911C266.5913,-83.0056 288.8684,-76.9804 308.2334,-71.7429"/>
<polygon fill="#191970" stroke="#191970" points="309.3179,-75.0754 318.0573,-69.0859 307.4903,-68.3182 309.3179,-75.0754"/>
</g>
<!-- Node21 -->
<g id="node8" class="node">
<title>Node21</title>
<g id="a_node8"><a xlink:href="files_8c.html#a5ac4517096592013308a3252f3226f60" target="_top" xlink:title="Restituisce 1 se il percorso ha la dimensione &lt;= 4 KB, 0 altrimenti. ">
<polygon fill="none" stroke="#000000" points="312.5,-88 312.5,-107 394.5,-107 394.5,-88 312.5,-88"/>
<text text-anchor="middle" x="353.5" y="-95" font-family="Helvetica,sans-Serif" font-size="10.00" fill="#000000">checkFileSize</text>
</a>
</g>
</g>
<!-- Node17&#45;&gt;Node21 -->
<g id="edge7" class="edge">
<title>Node17&#45;&gt;Node21</title>
<path fill="none" stroke="#191970" d="M265.317,-97.5C277.265,-97.5 289.9547,-97.5 301.8735,-97.5"/>
<polygon fill="#191970" stroke="#191970" points="302.1112,-101.0001 312.1112,-97.5 302.1112,-94.0001 302.1112,-101.0001"/>
</g>
<!-- Node23 -->
<g id="node10" class="node">
<title>Node23</title>
<g id="a_node10"><a xlink:href="files_8c.html#a6a46f37bcdbf048db0fba5bb3e0e6342" target="_top" xlink:title="Aggiunge in fondo alla coda un nuovo filePath. ">
<polygon fill="none" stroke="#000000" points="327,-164 327,-183 380,-183 380,-164 327,-164"/>
<text text-anchor="middle" x="353.5" y="-171" font-family="Helvetica,sans-Serif" font-size="10.00" fill="#000000">append</text>
</a>
</g>
</g>
<!-- Node17&#45;&gt;Node23 -->
<g id="edge9" class="edge">
<title>Node17&#45;&gt;Node23</title>
<path fill="none" stroke="#191970" d="M228.3089,-107.0556C250.9531,-121.1257 292.379,-146.6044 308,-154.5 311.5931,-156.3161 315.4017,-158.1063 319.2254,-159.8186"/>
<polygon fill="#191970" stroke="#191970" points="318.0784,-163.1356 328.6467,-163.8854 320.8527,-156.7088 318.0784,-163.1356"/>
</g>
<!-- Node20 -->
<g id="node7" class="node">
<title>Node20</title>
<g id="a_node7"><a xlink:href="strings_8c.html#ab6b8529148710caedf063c1de6b0db16" target="_top" xlink:title="Restituisce vero se la stringa a inizia con la sotto stringa b. ">
<polygon fill="none" stroke="#000000" points="435.5,-50 435.5,-69 503.5,-69 503.5,-50 435.5,-50"/>
<text text-anchor="middle" x="469.5" y="-57" font-family="Helvetica,sans-Serif" font-size="10.00" fill="#000000">StartsWith</text>
</a>
</g>
</g>
<!-- Node19&#45;&gt;Node20 -->
<g id="edge6" class="edge">
<title>Node19&#45;&gt;Node20</title>
<path fill="none" stroke="#191970" d="M399.0133,-59.5C407.5871,-59.5 416.5431,-59.5 425.0828,-59.5"/>
<polygon fill="#191970" stroke="#191970" points="425.2392,-63.0001 435.2392,-59.5 425.2392,-56.0001 425.2392,-63.0001"/>
</g>
<!-- Node22 -->
<g id="node9" class="node">
<title>Node22</title>
<g id="a_node9"><a xlink:href="files_8c.html#a096f8e9259afb2839ebe6822364f9928" target="_top" xlink:title="Restituisce dimensione del file in byte. ">
<polygon fill="none" stroke="#000000" points="435,-192 435,-211 504,-211 504,-192 435,-192"/>
<text text-anchor="middle" x="469.5" y="-199" font-family="Helvetica,sans-Serif" font-size="10.00" fill="#000000">getFileSize</text>
</a>
</g>
</g>
<!-- Node21&#45;&gt;Node22 -->
<g id="edge8" class="edge">
<title>Node21&#45;&gt;Node22</title>
<path fill="none" stroke="#191970" d="M382.5482,-107.1553C388.2783,-109.7275 394.0452,-112.8342 399,-116.5 424.0514,-135.0343 445.7117,-164.2984 458.1882,-183.1956"/>
<polygon fill="#191970" stroke="#191970" points="455.3522,-185.2569 463.6976,-191.7842 461.2442,-181.4773 455.3522,-185.2569"/>
</g>
<!-- Node26&#45;&gt;Node16 -->
<g id="edge15" class="edge">
<title>Node26&#45;&gt;Node16</title>
<path fill="none" stroke="#191970" d="M241.4323,-257.9888C263.884,-250.4783 295.2955,-239.9706 319.1523,-231.99"/>
<polygon fill="#191970" stroke="#191970" points="320.4929,-235.2322 328.866,-228.7406 318.2722,-228.5938 320.4929,-235.2322"/>
</g>
<!-- Node26&#45;&gt;Node22 -->
<g id="edge16" class="edge">
<title>Node26&#45;&gt;Node22</title>
<path fill="none" stroke="#191970" d="M242.8075,-277.028C280.8082,-287.4422 347.7241,-299.8753 399,-277.5 425.8291,-265.7926 447.025,-238.2832 458.9158,-219.7772"/>
<polygon fill="#191970" stroke="#191970" points="462.0225,-221.4063 464.2663,-211.0518 456.0551,-217.747 462.0225,-221.4063"/>
</g>
<!-- Node27 -->
<g id="node14" class="node">
<title>Node27</title>
<g id="a_node14"><a xlink:href="client_8c.html#a55586f2b7e9b3620294cf78cda8abdad" target="_top" xlink:title="Divide in 4 parti il contenuto del file da inviare al server. ">
<polygon fill="none" stroke="#000000" points="331.5,-249 331.5,-268 375.5,-268 375.5,-249 331.5,-249"/>
<text text-anchor="middle" x="353.5" y="-256" font-family="Helvetica,sans-Serif" font-size="10.00" fill="#000000">dividi</text>
</a>
</g>
</g>
<!-- Node26&#45;&gt;Node27 -->
<g id="edge17" class="edge">
<title>Node26&#45;&gt;Node27</title>
<path fill="none" stroke="#191970" d="M261.7458,-264.3775C281.305,-263.1246 303.3256,-261.714 320.8908,-260.5888"/>
<polygon fill="#191970" stroke="#191970" points="321.4343,-264.0613 331.1901,-259.9291 320.9867,-257.0756 321.4343,-264.0613"/>
</g>
</g>
</svg>
