<?xml version="1.0" encoding="UTF-8" standalone="no"?>
<!DOCTYPE svg PUBLIC "-//W3C//DTD SVG 1.1//EN"
 "http://www.w3.org/Graphics/SVG/1.1/DTD/svg11.dtd">
<!-- Generated by graphviz version 2.40.1 (20161225.0304)
 -->
<!-- Title: operazioni_client0 Pages: 1 -->
<svg width="783pt" height="899pt"
 viewBox="0.00 0.00 783.00 899.21" xmlns="http://www.w3.org/2000/svg" xmlns:xlink="http://www.w3.org/1999/xlink">
<g id="graph0" class="graph" transform="scale(1 1) rotate(0) translate(4 895.2073)">
<title>operazioni_client0</title>
<!-- Node13 -->
<g id="node1" class="node">
<title>Node13</title>
<polygon fill="#bfbfbf" stroke="#000000" points="0,-532.5 0,-551.5 106,-551.5 106,-532.5 0,-532.5"/>
<text text-anchor="middle" x="53" y="-539.5" font-family="Helvetica,sans-Serif" font-size="10.00" fill="#000000">operazioni_client0</text>
</g>
<!-- Node14 -->
<g id="node2" class="node">
<title>Node14</title>
<g id="a_node2"><a xlink:href="shared__memory_8c.html#a660a60242a5174977ab2debcdbd0e587" target="_top" xlink:title="Ottiene l&#39;id o crea una memoria condivisa. ">
<polygon fill="none" stroke="#000000" points="565,-817.5 565,-836.5 690,-836.5 690,-817.5 565,-817.5"/>
<text text-anchor="middle" x="627.5" y="-824.5" font-family="Helvetica,sans-Serif" font-size="10.00" fill="#000000">alloc_shared_memory</text>
</a>
</g>
</g>
<!-- Node13&#45;&gt;Node14 -->
<g id="edge1" class="edge">
<title>Node13&#45;&gt;Node14</title>
<path fill="none" stroke="#191970" d="M54.4839,-551.6979C61.7243,-597.6146 94.9151,-792.3764 142,-827 205.5078,-873.7001 435.4,-852.1567 554.6322,-837.1636"/>
<polygon fill="#191970" stroke="#191970" points="555.2917,-840.608 564.7687,-835.8712 554.4063,-833.6642 555.2917,-840.608"/>
</g>
<!-- Node15 -->
<g id="node3" class="node">
<title>Node15</title>
<g id="a_node3"><a xlink:href="err__exit_8c.html#aa223b0ecfe538d130ece562646a37d27" target="_top" xlink:title="Prints the error message of the last failed system call and terminates the calling process...">
<polygon fill="none" stroke="#000000" points="726,-503.5 726,-522.5 775,-522.5 775,-503.5 726,-503.5"/>
<text text-anchor="middle" x="750.5" y="-510.5" font-family="Helvetica,sans-Serif" font-size="10.00" fill="#000000">ErrExit</text>
</a>
</g>
</g>
<!-- Node13&#45;&gt;Node15 -->
<g id="edge20" class="edge">
<title>Node13&#45;&gt;Node15</title>
<path fill="none" stroke="#191970" d="M54.3647,-551.7962C61.2894,-600.055 94.0954,-811.8763 142,-854 209.1692,-913.0635 251.5562,-884 341,-884 341,-884 341,-884 482.5,-884 576.2559,-884 623.7511,-912.342 690,-846 734.5535,-801.3839 746.9253,-597.5391 749.761,-532.7968"/>
<polygon fill="#191970" stroke="#191970" points="753.2621,-532.8387 750.1735,-522.7041 746.2679,-532.5528 753.2621,-532.8387"/>
</g>
<!-- Node16 -->
<g id="node4" class="node">
<title>Node16</title>
<g id="a_node4"><a xlink:href="defines_8c.html#a2d341373a96ffea0944553e5452cdbca" target="_top" xlink:title="get_ipc_key">
<polygon fill="none" stroke="#000000" points="156.5,-760.5 156.5,-779.5 231.5,-779.5 231.5,-760.5 156.5,-760.5"/>
<text text-anchor="middle" x="194" y="-767.5" font-family="Helvetica,sans-Serif" font-size="10.00" fill="#000000">get_ipc_key</text>
</a>
</g>
</g>
<!-- Node13&#45;&gt;Node16 -->
<g id="edge3" class="edge">
<title>Node13&#45;&gt;Node16</title>
<path fill="none" stroke="#191970" d="M54.729,-551.9003C60.8245,-584.0601 84.1469,-686.9174 142,-746 145.6456,-749.7231 149.9778,-752.9276 154.5626,-755.6698"/>
<polygon fill="#191970" stroke="#191970" points="153.0941,-758.8516 163.5769,-760.3884 156.3404,-752.6499 153.0941,-758.8516"/>
</g>
<!-- Node18 -->
<g id="node6" class="node">
<title>Node18</title>
<g id="a_node6"><a xlink:href="shared__memory_8c.html#ab2ffe00ec7425a3a4229cd0d53ed901c" target="_top" xlink:title="Recupera il puntatore alla memoria condivisa aggiungendola allo spazio degli indirizzi. ">
<polygon fill="none" stroke="#000000" points="569,-722.5 569,-741.5 686,-741.5 686,-722.5 569,-722.5"/>
<text text-anchor="middle" x="627.5" y="-729.5" font-family="Helvetica,sans-Serif" font-size="10.00" fill="#000000">get_shared_memory</text>
</a>
</g>
</g>
<!-- Node13&#45;&gt;Node18 -->
<g id="edge6" class="edge">
<title>Node13&#45;&gt;Node18</title>
<path fill="none" stroke="#191970" d="M54.5935,-551.6222C60.1616,-581.7985 81.7928,-674.8314 142,-713 209.2538,-755.6358 441.3787,-745.7176 558.6072,-737.573"/>
<polygon fill="#191970" stroke="#191970" points="559.1729,-741.0417 568.8997,-736.8419 558.6769,-734.0593 559.1729,-741.0417"/>
</g>
<!-- Node19 -->
<g id="node7" class="node">
<title>Node19</title>
<g id="a_node7"><a xlink:href="defines_8c.html#afd25e0dffe44c8dd59ae86caabb94287" target="_top" xlink:title="get_ipc_key2">
<polygon fill="none" stroke="#000000" points="153.5,-798.5 153.5,-817.5 234.5,-817.5 234.5,-798.5 153.5,-798.5"/>
<text text-anchor="middle" x="194" y="-805.5" font-family="Helvetica,sans-Serif" font-size="10.00" fill="#000000">get_ipc_key2</text>
</a>
</g>
</g>
<!-- Node13&#45;&gt;Node19 -->
<g id="edge8" class="edge">
<title>Node13&#45;&gt;Node19</title>
<path fill="none" stroke="#191970" d="M53.6265,-551.5542C56.5097,-587.7898 71.5733,-718.2576 142,-789 143.4495,-790.456 145.0194,-791.8013 146.6796,-793.0442"/>
<polygon fill="#191970" stroke="#191970" points="145.2264,-796.256 155.5928,-798.4447 148.8539,-790.2692 145.2264,-796.256"/>
</g>
<!-- Node20 -->
<g id="node8" class="node">
<title>Node20</title>
<g id="a_node8"><a xlink:href="semaphore_8c.html#afee4d9b0eb613bf632622e9244204d51" target="_top" xlink:title="Ottiene un insieme di semafori gia&#39; creato. ">
<polygon fill="none" stroke="#000000" points="436,-570.5 436,-589.5 529,-589.5 529,-570.5 436,-570.5"/>
<text text-anchor="middle" x="482.5" y="-577.5" font-family="Helvetica,sans-Serif" font-size="10.00" fill="#000000">getSemaphores</text>
</a>
</g>
</g>
<!-- Node13&#45;&gt;Node20 -->
<g id="edge10" class="edge">
<title>Node13&#45;&gt;Node20</title>
<path fill="none" stroke="#191970" d="M106.0789,-551.112C117.8788,-552.9246 130.344,-554.6749 142,-556 241.5522,-567.3173 358.1257,-574.1541 425.8159,-577.4922"/>
<polygon fill="#191970" stroke="#191970" points="425.6872,-580.99 435.845,-577.9788 426.0264,-573.9982 425.6872,-580.99"/>
</g>
<!-- Node22 -->
<g id="node10" class="node">
<title>Node22</title>
<g id="a_node10"><a xlink:href="fifo_8c.html#a54a1ae8162825128cf02f95692402c18" target="_top" xlink:title="Facilita la creazione di una FIFO (o ne ottiene una esistente) in modalita&#39; lettura o scrittura...">
<polygon fill="none" stroke="#000000" points="160,-684.5 160,-703.5 228,-703.5 228,-684.5 160,-684.5"/>
<text text-anchor="middle" x="194" y="-691.5" font-family="Helvetica,sans-Serif" font-size="10.00" fill="#000000">create_fifo</text>
</a>
</g>
</g>
<!-- Node13&#45;&gt;Node22 -->
<g id="edge14" class="edge">
<title>Node13&#45;&gt;Node22</title>
<path fill="none" stroke="#191970" d="M56.8558,-551.5442C67.0806,-575.6983 97.2049,-639.8242 142,-675 144.7285,-677.1426 147.7212,-679.0586 150.8496,-680.7695"/>
<polygon fill="#191970" stroke="#191970" points="149.3821,-683.9472 159.9178,-685.0655 152.379,-677.6211 149.3821,-683.9472"/>
</g>
<!-- Node24 -->
<g id="node12" class="node">
<title>Node24</title>
<g id="a_node12"><a xlink:href="defines_8c.html#a2ce7c4d064c3b1a3f182c3e830a4c31d" target="_top" xlink:title="Visualizza sullo standard output un messaggio utilizzando la write. ">
<polygon fill="none" stroke="#000000" points="308.5,-608.5 308.5,-627.5 373.5,-627.5 373.5,-608.5 308.5,-608.5"/>
<text text-anchor="middle" x="341" y="-615.5" font-family="Helvetica,sans-Serif" font-size="10.00" fill="#000000">print_msg</text>
</a>
</g>
</g>
<!-- Node13&#45;&gt;Node24 -->
<g id="edge21" class="edge">
<title>Node13&#45;&gt;Node24</title>
<path fill="none" stroke="#191970" d="M65.46,-551.5329C81.9768,-563.6192 112.486,-584.0751 142,-594 193.8859,-611.4481 257.1455,-616.5152 298.2097,-617.829"/>
<polygon fill="#191970" stroke="#191970" points="298.3197,-621.3329 308.4068,-618.0924 298.5006,-614.3352 298.3197,-621.3329"/>
</g>
<!-- Node25 -->
<g id="node13" class="node">
<title>Node25</title>
<g id="a_node13"><a xlink:href="files_8c.html#a627e4b202ea71f3bd241ccf562449bd6" target="_top" xlink:title="find_sendme_files">
<polygon fill="none" stroke="#000000" points="142,-305.5 142,-324.5 246,-324.5 246,-305.5 142,-305.5"/>
<text text-anchor="middle" x="194" y="-312.5" font-family="Helvetica,sans-Serif" font-size="10.00" fill="#000000">find_sendme_files</text>
</a>
</g>
</g>
<!-- Node13&#45;&gt;Node25 -->
<g id="edge22" class="edge">
<title>Node13&#45;&gt;Node25</title>
<path fill="none" stroke="#191970" d="M55.5999,-532.3464C63.961,-502.6847 92.535,-411.3002 142,-352 149.0263,-343.5767 158.3948,-336.1349 167.2433,-330.1752"/>
<polygon fill="#191970" stroke="#191970" points="169.2507,-333.0464 175.8123,-324.728 165.4954,-327.1389 169.2507,-333.0464"/>
</g>
<!-- Node32 -->
<g id="node20" class="node">
<title>Node32</title>
<g id="a_node20"><a xlink:href="files_8c.html#a1cdd9b5b37408e31d80f31e474a71483" target="_top" xlink:title="Visualizza il contenuto della lista concatenata di filePath. ">
<polygon fill="none" stroke="#000000" points="164.5,-267.5 164.5,-286.5 223.5,-286.5 223.5,-267.5 164.5,-267.5"/>
<text text-anchor="middle" x="194" y="-274.5" font-family="Helvetica,sans-Serif" font-size="10.00" fill="#000000">print_list</text>
</a>
</g>
</g>
<!-- Node13&#45;&gt;Node32 -->
<g id="edge31" class="edge">
<title>Node13&#45;&gt;Node32</title>
<path fill="none" stroke="#191970" d="M53.6395,-532.4837C56.5694,-496.392 71.7799,-366.4435 142,-296 145.7215,-292.2667 150.235,-289.261 155.0304,-286.8424"/>
<polygon fill="#191970" stroke="#191970" points="156.602,-289.9786 164.4655,-282.8782 153.8904,-283.5251 156.602,-289.9786"/>
</g>
<!-- Node33 -->
<g id="node21" class="node">
<title>Node33</title>
<g id="a_node21"><a xlink:href="files_8c.html#a3ba19f05c37434e7f20facff3445651a" target="_top" xlink:title="Conta il numero di file nella lista concatenata di filePath. ">
<polygon fill="none" stroke="#000000" points="159.5,-229.5 159.5,-248.5 228.5,-248.5 228.5,-229.5 159.5,-229.5"/>
<text text-anchor="middle" x="194" y="-236.5" font-family="Helvetica,sans-Serif" font-size="10.00" fill="#000000">count_files</text>
</a>
</g>
</g>
<!-- Node13&#45;&gt;Node33 -->
<g id="edge32" class="edge">
<title>Node13&#45;&gt;Node33</title>
<path fill="none" stroke="#191970" d="M54.8336,-532.365C63.5297,-487.5673 101.8662,-300.0502 142,-258 144.4637,-255.4187 147.3063,-253.1865 150.3663,-251.2564"/>
<polygon fill="#191970" stroke="#191970" points="152.15,-254.2746 159.4311,-246.5781 148.9396,-248.0542 152.15,-254.2746"/>
</g>
<!-- Node34 -->
<g id="node22" class="node">
<title>Node34</title>
<g id="a_node22"><a xlink:href="client_8c.html#a748983b7ce27515a3ad116ada4334c4e" target="_top" xlink:title="int_to_string">
<polygon fill="none" stroke="#000000" points="155.5,-646.5 155.5,-665.5 232.5,-665.5 232.5,-646.5 155.5,-646.5"/>
<text text-anchor="middle" x="194" y="-653.5" font-family="Helvetica,sans-Serif" font-size="10.00" fill="#000000">int_to_string</text>
</a>
</g>
</g>
<!-- Node13&#45;&gt;Node34 -->
<g id="edge33" class="edge">
<title>Node13&#45;&gt;Node34</title>
<path fill="none" stroke="#191970" d="M60.4298,-551.5196C74.667,-569.2607 107.459,-607.7713 142,-632 147.3419,-635.7471 153.3622,-639.1502 159.362,-642.1394"/>
<polygon fill="#191970" stroke="#191970" points="158.1311,-645.4274 168.6729,-646.4861 161.0922,-639.0845 158.1311,-645.4274"/>
</g>
<!-- Node35 -->
<g id="node23" class="node">
<title>Node35</title>
<g id="a_node23"><a xlink:href="semaphore_8c.html#a2581efba6a0833e3f289de94c779cc21" target="_top" xlink:title="Esegue la wait sul semaforo sem_num: decrementa il valore di 1 ed eventualmente mette in attesa il pr...">
<polygon fill="none" stroke="#000000" points="453,-532.5 453,-551.5 512,-551.5 512,-532.5 453,-532.5"/>
<text text-anchor="middle" x="482.5" y="-539.5" font-family="Helvetica,sans-Serif" font-size="10.00" fill="#000000">semWait</text>
</a>
</g>
</g>
<!-- Node13&#45;&gt;Node35 -->
<g id="edge35" class="edge">
<title>Node13&#45;&gt;Node35</title>
<path fill="none" stroke="#191970" d="M106.0959,-542C193.2322,-542 364.649,-542 442.4276,-542"/>
<polygon fill="#191970" stroke="#191970" points="442.7626,-545.5001 452.7625,-542 442.7625,-538.5001 442.7626,-545.5001"/>
</g>
<!-- Node36 -->
<g id="node24" class="node">
<title>Node36</title>
<g id="a_node24"><a xlink:href="client_8c.html#ac129a55ffa08a55addb9ea1afbd709f8" target="_top" xlink:title="strEquals">
<polygon fill="none" stroke="#000000" points="163,-191.5 163,-210.5 225,-210.5 225,-191.5 163,-191.5"/>
<text text-anchor="middle" x="194" y="-198.5" font-family="Helvetica,sans-Serif" font-size="10.00" fill="#000000">strEquals</text>
</a>
</g>
</g>
<!-- Node13&#45;&gt;Node36 -->
<g id="edge37" class="edge">
<title>Node13&#45;&gt;Node36</title>
<path fill="none" stroke="#191970" d="M54.4493,-532.4026C61.9097,-484.1416 97.3664,-268.3866 142,-220 145.289,-216.4345 149.3022,-213.5363 153.6262,-211.181"/>
<polygon fill="#191970" stroke="#191970" points="155.1106,-214.3512 162.806,-207.0689 152.2489,-207.9629 155.1106,-214.3512"/>
</g>
<!-- Node37 -->
<g id="node25" class="node">
<title>Node37</title>
<g id="a_node25"><a xlink:href="semaphore_8c.html#a7bad0eb0b0c6ac701b59c36b8b7837bf" target="_top" xlink:title="Esegue la signal sul semaforo sem_num: incrementa il valore di 1. ">
<polygon fill="none" stroke="#000000" points="448.5,-494.5 448.5,-513.5 516.5,-513.5 516.5,-494.5 448.5,-494.5"/>
<text text-anchor="middle" x="482.5" y="-501.5" font-family="Helvetica,sans-Serif" font-size="10.00" fill="#000000">semSignal</text>
</a>
</g>
</g>
<!-- Node13&#45;&gt;Node37 -->
<g id="edge38" class="edge">
<title>Node13&#45;&gt;Node37</title>
<path fill="none" stroke="#191970" d="M106.0959,-537.3023C191.692,-529.7292 358.6156,-514.9607 438.2165,-507.918"/>
<polygon fill="#191970" stroke="#191970" points="438.7423,-511.3852 448.3949,-507.0174 438.1253,-504.4125 438.7423,-511.3852"/>
</g>
<!-- Node38 -->
<g id="node26" class="node">
<title>Node38</title>
<g id="a_node26"><a xlink:href="semaphore_8c.html#a40485eedbf6d56f7fd27bce5a537efbe" target="_top" xlink:title="Attende che il semaforo sem_num raggiunga il valore zero. ">
<polygon fill="none" stroke="#000000" points="300,-380.5 300,-399.5 382,-399.5 382,-380.5 300,-380.5"/>
<text text-anchor="middle" x="341" y="-387.5" font-family="Helvetica,sans-Serif" font-size="10.00" fill="#000000">semWaitZero</text>
</a>
</g>
</g>
<!-- Node13&#45;&gt;Node38 -->
<g id="edge40" class="edge">
<title>Node13&#45;&gt;Node38</title>
<path fill="none" stroke="#191970" d="M68.5847,-532.4918C86.2199,-521.8273 115.8906,-504.1693 142,-490 201.5244,-457.6967 272.754,-422.7839 311.8059,-403.9549"/>
<polygon fill="#191970" stroke="#191970" points="313.5197,-407.0145 321.0143,-399.5257 310.4855,-400.7062 313.5197,-407.0145"/>
</g>
<!-- Node43 -->
<g id="node31" class="node">
<title>Node43</title>
<g id="a_node31"><a xlink:href="defines_8c.html#aea9b93cad897755a46cb9e3373ba8cc2" target="_top" xlink:title="Rende bloccante oppure non bloccante un file descriptor. ">
<polygon fill="none" stroke="#000000" points="166,-153.5 166,-172.5 222,-172.5 222,-153.5 166,-153.5"/>
<text text-anchor="middle" x="194" y="-160.5" font-family="Helvetica,sans-Serif" font-size="10.00" fill="#000000">blockFD</text>
</a>
</g>
</g>
<!-- Node13&#45;&gt;Node43 -->
<g id="edge53" class="edge">
<title>Node13&#45;&gt;Node43</title>
<path fill="none" stroke="#191970" d="M54.1596,-532.325C60.5388,-480.5715 92.8698,-236.7422 142,-182 145.9893,-177.555 151.1058,-174.1484 156.5673,-171.538"/>
<polygon fill="#191970" stroke="#191970" points="157.918,-174.7679 165.946,-167.8539 155.3586,-168.2525 157.918,-174.7679"/>
</g>
<!-- Node44 -->
<g id="node32" class="node">
<title>Node44</title>
<g id="a_node32"><a xlink:href="files_8c.html#a786a7b6f9c01e8489d7196a79f5f3862" target="_top" xlink:title="Libera la memoria dello HEAP occupata dalla lista di filePath. ">
<polygon fill="none" stroke="#000000" points="166,-115.5 166,-134.5 222,-134.5 222,-115.5 166,-115.5"/>
<text text-anchor="middle" x="194" y="-122.5" font-family="Helvetica,sans-Serif" font-size="10.00" fill="#000000">free_list</text>
</a>
</g>
</g>
<!-- Node13&#45;&gt;Node44 -->
<g id="edge54" class="edge">
<title>Node13&#45;&gt;Node44</title>
<path fill="none" stroke="#191970" d="M53.9057,-532.4118C59.2513,-477.6933 88.2953,-205.2024 142,-144 145.9394,-139.5107 151.0302,-136.0813 156.4813,-133.4618"/>
<polygon fill="#191970" stroke="#191970" points="157.8313,-136.6919 165.8557,-129.7738 155.2686,-130.1778 157.8313,-136.6919"/>
</g>
<!-- Node45 -->
<g id="node33" class="node">
<title>Node45</title>
<g id="a_node33"><a xlink:href="client_8c.html#a54b47b58f228d7bc9827d2919687e25a" target="_top" xlink:title="Funzione eseguita da ogni Client i (figli di Client 0) per mandare i file al server. ">
<polygon fill="none" stroke="#000000" points="145.5,-361.5 145.5,-380.5 242.5,-380.5 242.5,-361.5 145.5,-361.5"/>
<text text-anchor="middle" x="194" y="-368.5" font-family="Helvetica,sans-Serif" font-size="10.00" fill="#000000">operazioni_figlio</text>
</a>
</g>
</g>
<!-- Node13&#45;&gt;Node45 -->
<g id="edge55" class="edge">
<title>Node13&#45;&gt;Node45</title>
<path fill="none" stroke="#191970" d="M60.8152,-532.3418C76.2528,-513.2828 111.7831,-469.5136 142,-433 154.517,-417.8747 168.8642,-400.7868 179.3133,-388.3865"/>
<polygon fill="#191970" stroke="#191970" points="182.0818,-390.5329 185.8541,-380.6324 176.7311,-386.0195 182.0818,-390.5329"/>
</g>
<!-- Node14&#45;&gt;Node15 -->
<g id="edge2" class="edge">
<title>Node14&#45;&gt;Node15</title>
<path fill="none" stroke="#191970" d="M648.914,-817.4576C662.713,-810.2175 679.9026,-798.9541 690,-784 718.2075,-742.2253 740.7026,-587.8588 747.9948,-532.7287"/>
<polygon fill="#191970" stroke="#191970" points="751.4999,-532.9145 749.3167,-522.5471 744.5582,-532.0132 751.4999,-532.9145"/>
</g>
<!-- Node17 -->
<g id="node5" class="node">
<title>Node17</title>
<g id="a_node5"><a xlink:href="defines_8c.html#abe68b7232c057100c2e21586906436d7" target="_top" xlink:title="get_project_ipc_key">
<polygon fill="none" stroke="#000000" points="284,-760.5 284,-779.5 398,-779.5 398,-760.5 284,-760.5"/>
<text text-anchor="middle" x="341" y="-767.5" font-family="Helvetica,sans-Serif" font-size="10.00" fill="#000000">get_project_ipc_key</text>
</a>
</g>
</g>
<!-- Node16&#45;&gt;Node17 -->
<g id="edge4" class="edge">
<title>Node16&#45;&gt;Node17</title>
<path fill="none" stroke="#191970" d="M231.8562,-770C244.5885,-770 259.2038,-770 273.513,-770"/>
<polygon fill="#191970" stroke="#191970" points="273.8471,-773.5001 283.847,-770 273.847,-766.5001 273.8471,-773.5001"/>
</g>
<!-- Node17&#45;&gt;Node15 -->
<g id="edge5" class="edge">
<title>Node17&#45;&gt;Node15</title>
<path fill="none" stroke="#191970" d="M373.3541,-779.535C440.7683,-797.2451 597.6632,-826.9186 690,-751 724.0605,-722.9957 742.5784,-584.8551 748.4329,-532.8492"/>
<polygon fill="#191970" stroke="#191970" points="751.9444,-532.9321 749.5452,-522.6126 744.9854,-532.1759 751.9444,-532.9321"/>
</g>
<!-- Node18&#45;&gt;Node15 -->
<g id="edge7" class="edge">
<title>Node18&#45;&gt;Node15</title>
<path fill="none" stroke="#191970" d="M668.4385,-722.3771C676.419,-718.9329 684.1214,-714.2787 690,-708 714.292,-682.0547 737.6517,-577.0933 746.6326,-532.8355"/>
<polygon fill="#191970" stroke="#191970" points="750.1205,-533.241 748.6421,-522.7499 743.2554,-531.8731 750.1205,-533.241"/>
</g>
<!-- Node19&#45;&gt;Node17 -->
<g id="edge9" class="edge">
<title>Node19&#45;&gt;Node17</title>
<path fill="none" stroke="#191970" d="M231.0943,-798.411C250.3178,-793.4417 273.9863,-787.3233 294.4294,-782.0387"/>
<polygon fill="#191970" stroke="#191970" points="295.3667,-785.4115 304.1724,-779.5201 293.6147,-778.6343 295.3667,-785.4115"/>
</g>
<!-- Node20&#45;&gt;Node15 -->
<g id="edge11" class="edge">
<title>Node20&#45;&gt;Node15</title>
<path fill="none" stroke="#191970" d="M528.4961,-570.4239C570.7128,-561.3831 634.879,-547.0069 690,-532 698.5512,-529.6719 707.7068,-526.9292 716.2411,-524.2629"/>
<polygon fill="#191970" stroke="#191970" points="717.428,-527.5583 725.9008,-521.1974 715.3106,-520.8863 717.428,-527.5583"/>
</g>
<!-- Node21 -->
<g id="node9" class="node">
<title>Node21</title>
<g id="a_node9"><a xlink:href="semaphore_8c.html#a77c6570406059144bb6a8ecf04f481da" target="_top" xlink:title="Funzione di supporto per manipolare i valori di un set di semafori. ">
<polygon fill="none" stroke="#000000" points="602,-503.5 602,-522.5 653,-522.5 653,-503.5 602,-503.5"/>
<text text-anchor="middle" x="627.5" y="-510.5" font-family="Helvetica,sans-Serif" font-size="10.00" fill="#000000">semOp</text>
</a>
</g>
</g>
<!-- Node20&#45;&gt;Node21 -->
<g id="edge12" class="edge">
<title>Node20&#45;&gt;Node21</title>
<path fill="none" stroke="#191970" d="M506.762,-570.4369C513.9614,-567.5051 521.8356,-564.2052 529,-561 553.1747,-550.1847 580.1867,-536.937 599.8004,-527.1009"/>
<polygon fill="#191970" stroke="#191970" points="601.4339,-530.1971 608.7898,-522.572 598.2844,-523.9456 601.4339,-530.1971"/>
</g>
<!-- Node21&#45;&gt;Node15 -->
<g id="edge13" class="edge">
<title>Node21&#45;&gt;Node15</title>
<path fill="none" stroke="#191970" d="M653.2848,-513C671.3181,-513 695.6209,-513 715.4159,-513"/>
<polygon fill="#191970" stroke="#191970" points="715.5895,-516.5001 725.5894,-513 715.5894,-509.5001 715.5895,-516.5001"/>
</g>
<!-- Node22&#45;&gt;Node15 -->
<g id="edge17" class="edge">
<title>Node22&#45;&gt;Node15</title>
<path fill="none" stroke="#191970" d="M228.0312,-690.3307C326.871,-679.1838 611.869,-643.4326 690,-594 714.0145,-578.8063 731.8521,-550.4331 741.7206,-531.6276"/>
<polygon fill="#191970" stroke="#191970" points="744.9189,-533.0572 746.2589,-522.5474 738.6574,-529.9276 744.9189,-533.0572"/>
</g>
<!-- Node23 -->
<g id="node11" class="node">
<title>Node23</title>
<g id="a_node11"><a xlink:href="fifo_8c.html#ab83de0eb3bc3947e3c031685d5c2474b" target="_top" xlink:title="Crea o ottiene una IPC FIFO usando mkfifo. ">
<polygon fill="none" stroke="#000000" points="450,-684.5 450,-703.5 515,-703.5 515,-684.5 450,-684.5"/>
<text text-anchor="middle" x="482.5" y="-691.5" font-family="Helvetica,sans-Serif" font-size="10.00" fill="#000000">make_fifo</text>
</a>
</g>
</g>
<!-- Node22&#45;&gt;Node23 -->
<g id="edge15" class="edge">
<title>Node22&#45;&gt;Node23</title>
<path fill="none" stroke="#191970" d="M228.2277,-694C280.9202,-694 381.835,-694 439.4219,-694"/>
<polygon fill="#191970" stroke="#191970" points="439.649,-697.5001 449.649,-694 439.649,-690.5001 439.649,-697.5001"/>
</g>
<!-- Node22&#45;&gt;Node24 -->
<g id="edge18" class="edge">
<title>Node22&#45;&gt;Node24</title>
<path fill="none" stroke="#191970" d="M226.261,-684.4463C233.0129,-681.8402 239.922,-678.6941 246,-675 264.5479,-663.7267 263.6582,-653.6055 282,-642 288.2959,-638.0163 295.3646,-634.4672 302.3631,-631.3997"/>
<polygon fill="#191970" stroke="#191970" points="303.8702,-634.5643 311.7839,-627.5199 301.2045,-628.0917 303.8702,-634.5643"/>
</g>
<!-- Node23&#45;&gt;Node15 -->
<g id="edge16" class="edge">
<title>Node23&#45;&gt;Node15</title>
<path fill="none" stroke="#191970" d="M515.0877,-699.7838C559.4871,-705.7331 639.2552,-709.3075 690,-670 733.5698,-636.2503 745.7795,-566.9702 749.188,-532.8633"/>
<polygon fill="#191970" stroke="#191970" points="752.6884,-533.0054 750.0392,-522.7471 745.713,-532.4184 752.6884,-533.0054"/>
</g>
<!-- Node24&#45;&gt;Node15 -->
<g id="edge19" class="edge">
<title>Node24&#45;&gt;Node15</title>
<path fill="none" stroke="#191970" d="M373.6076,-618.5443C437.5819,-618.3644 582.6567,-611.7289 690,-560 706.0051,-552.2871 721.7796,-539.8268 733.2065,-529.6733"/>
<polygon fill="#191970" stroke="#191970" points="735.7041,-532.1317 740.6999,-522.7886 730.9681,-526.977 735.7041,-532.1317"/>
</g>
<!-- Node25&#45;&gt;Node15 -->
<g id="edge30" class="edge">
<title>Node25&#45;&gt;Node15</title>
<path fill="none" stroke="#191970" d="M234.3876,-305.3875C238.7951,-302.9364 242.8255,-299.8604 246,-296 311.4383,-216.4227 203.6956,-133.9562 282,-67 323.7173,-31.3285 477.4864,-48.049 529,-67 617.1779,-99.4392 642.5384,-122.9133 690,-204 719.3142,-254.0824 741.6186,-433.6345 748.377,-493.4534"/>
<polygon fill="#191970" stroke="#191970" points="744.9059,-493.9076 749.4877,-503.4605 751.8631,-493.1354 744.9059,-493.9076"/>
</g>
<!-- Node25&#45;&gt;Node25 -->
<g id="edge29" class="edge">
<title>Node25&#45;&gt;Node25</title>
<path fill="none" stroke="#191970" d="M172.4219,-324.7571C161.9245,-333.5653 169.1172,-343 194,-343 209.9406,-343 218.6211,-339.128 220.0416,-334.0292"/>
<polygon fill="#191970" stroke="#191970" points="223.0692,-332.2493 215.5781,-324.7571 216.762,-335.2855 223.0692,-332.2493"/>
</g>
<!-- Node26 -->
<g id="node14" class="node">
<title>Node26</title>
<g id="a_node14"><a xlink:href="strings_8c.html#a21b51584b636c81767ed74b8a527ffd3" target="_top" xlink:title="Concatena la cartella directory al percorso path. ">
<polygon fill="none" stroke="#000000" points="301,-114.5 301,-133.5 381,-133.5 381,-114.5 301,-114.5"/>
<text text-anchor="middle" x="341" y="-121.5" font-family="Helvetica,sans-Serif" font-size="10.00" fill="#000000">append2Path</text>
</a>
</g>
</g>
<!-- Node25&#45;&gt;Node26 -->
<g id="edge23" class="edge">
<title>Node25&#45;&gt;Node26</title>
<path fill="none" stroke="#191970" d="M233.6004,-305.4309C238.2498,-302.972 242.5551,-299.8822 246,-296 292.3658,-243.7485 234.6302,-194.343 282,-143 284.7934,-139.9723 288.0707,-137.4252 291.6247,-135.2828"/>
<polygon fill="#191970" stroke="#191970" points="293.4614,-138.2809 300.9109,-130.7473 290.3893,-131.991 293.4614,-138.2809"/>
</g>
<!-- Node27 -->
<g id="node15" class="node">
<title>Node27</title>
<g id="a_node15"><a xlink:href="files_8c.html#a675d61c6bfe0d9ddd1be59233dfd7d5c" target="_top" xlink:title="Restituisce 1 se il percorso inizia con &quot;sendme_&quot;, 0 altrimenti. ">
<polygon fill="none" stroke="#000000" points="295.5,-76.5 295.5,-95.5 386.5,-95.5 386.5,-76.5 295.5,-76.5"/>
<text text-anchor="middle" x="341" y="-83.5" font-family="Helvetica,sans-Serif" font-size="10.00" fill="#000000">checkFileName</text>
</a>
</g>
</g>
<!-- Node25&#45;&gt;Node27 -->
<g id="edge24" class="edge">
<title>Node25&#45;&gt;Node27</title>
<path fill="none" stroke="#191970" d="M234.0209,-305.4347C238.5457,-302.9758 242.7051,-299.885 246,-296 301.8734,-230.1192 224.8601,-169.7855 282,-105 283.388,-103.4262 284.9069,-101.982 286.5287,-100.6567"/>
<polygon fill="#191970" stroke="#191970" points="288.849,-103.3258 295.3653,-94.9719 285.0617,-97.4387 288.849,-103.3258"/>
</g>
<!-- Node29 -->
<g id="node17" class="node">
<title>Node29</title>
<g id="a_node17"><a xlink:href="files_8c.html#a5ac4517096592013308a3252f3226f60" target="_top" xlink:title="Restituisce 1 se il percorso ha la dimensione &lt;= 4 KB, 0 altrimenti. ">
<polygon fill="none" stroke="#000000" points="300,-152.5 300,-171.5 382,-171.5 382,-152.5 300,-152.5"/>
<text text-anchor="middle" x="341" y="-159.5" font-family="Helvetica,sans-Serif" font-size="10.00" fill="#000000">checkFileSize</text>
</a>
</g>
</g>
<!-- Node25&#45;&gt;Node29 -->
<g id="edge26" class="edge">
<title>Node25&#45;&gt;Node29</title>
<path fill="none" stroke="#191970" d="M232.7744,-305.4163C237.6669,-302.9563 242.2593,-299.8702 246,-296 281.7498,-259.0125 246.9221,-223.6254 282,-186 285.5842,-182.1555 289.8713,-178.9113 294.4768,-176.177"/>
<polygon fill="#191970" stroke="#191970" points="296.2986,-179.1771 303.6247,-171.5234 293.1247,-172.938 296.2986,-179.1771"/>
</g>
<!-- Node31 -->
<g id="node19" class="node">
<title>Node31</title>
<g id="a_node19"><a xlink:href="files_8c.html#a6a46f37bcdbf048db0fba5bb3e0e6342" target="_top" xlink:title="Aggiunge in fondo alla coda un nuovo filePath. ">
<polygon fill="none" stroke="#000000" points="314.5,-.5 314.5,-19.5 367.5,-19.5 367.5,-.5 314.5,-.5"/>
<text text-anchor="middle" x="341" y="-7.5" font-family="Helvetica,sans-Serif" font-size="10.00" fill="#000000">append</text>
</a>
</g>
</g>
<!-- Node25&#45;&gt;Node31 -->
<g id="edge28" class="edge">
<title>Node25&#45;&gt;Node31</title>
<path fill="none" stroke="#191970" d="M234.4591,-305.4457C238.855,-302.9852 242.8631,-299.891 246,-296 319.7717,-204.4956 209.8883,-126.8182 282,-34 287.7794,-26.5611 296.2456,-21.4154 304.9705,-17.8605"/>
<polygon fill="#191970" stroke="#191970" points="306.1158,-21.1679 314.4246,-14.5941 303.8299,-14.5516 306.1158,-21.1679"/>
</g>
<!-- Node28 -->
<g id="node16" class="node">
<title>Node28</title>
<g id="a_node16"><a xlink:href="strings_8c.html#ab6b8529148710caedf063c1de6b0db16" target="_top" xlink:title="Restituisce vero se la stringa a inizia con la sotto stringa b. ">
<polygon fill="none" stroke="#000000" points="448.5,-76.5 448.5,-95.5 516.5,-95.5 516.5,-76.5 448.5,-76.5"/>
<text text-anchor="middle" x="482.5" y="-83.5" font-family="Helvetica,sans-Serif" font-size="10.00" fill="#000000">StartsWith</text>
</a>
</g>
</g>
<!-- Node27&#45;&gt;Node28 -->
<g id="edge25" class="edge">
<title>Node27&#45;&gt;Node28</title>
<path fill="none" stroke="#191970" d="M386.5504,-86C402.9863,-86 421.5093,-86 437.866,-86"/>
<polygon fill="#191970" stroke="#191970" points="438.2581,-89.5001 448.2581,-86 438.258,-82.5001 438.2581,-89.5001"/>
</g>
<!-- Node30 -->
<g id="node18" class="node">
<title>Node30</title>
<g id="a_node18"><a xlink:href="files_8c.html#a096f8e9259afb2839ebe6822364f9928" target="_top" xlink:title="Restituisce la dimensione in byte del file con percorso filePath. ">
<polygon fill="none" stroke="#000000" points="448,-152.5 448,-171.5 517,-171.5 517,-152.5 448,-152.5"/>
<text text-anchor="middle" x="482.5" y="-159.5" font-family="Helvetica,sans-Serif" font-size="10.00" fill="#000000">getFileSize</text>
</a>
</g>
</g>
<!-- Node29&#45;&gt;Node30 -->
<g id="edge27" class="edge">
<title>Node29&#45;&gt;Node30</title>
<path fill="none" stroke="#191970" d="M382.308,-162C399.6284,-162 419.814,-162 437.5097,-162"/>
<polygon fill="#191970" stroke="#191970" points="437.6005,-165.5001 447.6005,-162 437.6005,-158.5001 437.6005,-165.5001"/>
</g>
<!-- Node34&#45;&gt;Node24 -->
<g id="edge34" class="edge">
<title>Node34&#45;&gt;Node24</title>
<path fill="none" stroke="#191970" d="M231.0943,-646.411C251.6534,-641.0964 277.2966,-634.4675 298.6412,-628.9499"/>
<polygon fill="#191970" stroke="#191970" points="299.6158,-632.3131 308.4215,-626.4216 297.8638,-625.5359 299.6158,-632.3131"/>
</g>
<!-- Node35&#45;&gt;Node21 -->
<g id="edge36" class="edge">
<title>Node35&#45;&gt;Node21</title>
<path fill="none" stroke="#191970" d="M512.1928,-536.0614C535.2472,-531.4506 567.2989,-525.0402 591.7596,-520.1481"/>
<polygon fill="#191970" stroke="#191970" points="592.6103,-523.5473 601.7296,-518.1541 591.2374,-516.6833 592.6103,-523.5473"/>
</g>
<!-- Node37&#45;&gt;Node21 -->
<g id="edge39" class="edge">
<title>Node37&#45;&gt;Node21</title>
<path fill="none" stroke="#191970" d="M516.863,-506.1329C539.2751,-507.524 568.4846,-509.337 591.2625,-510.7508"/>
<polygon fill="#191970" stroke="#191970" points="591.3505,-514.2629 601.5481,-511.3892 591.7842,-507.2763 591.3505,-514.2629"/>
</g>
<!-- Node38&#45;&gt;Node15 -->
<g id="edge46" class="edge">
<title>Node38&#45;&gt;Node15</title>
<path fill="none" stroke="#191970" d="M379.13,-399.5135C386.0833,-401.2997 393.2665,-403.1788 400,-405 457.5763,-420.5722 471.9273,-424.6726 529,-442 595.6776,-462.2435 673.1053,-487.4555 716.4957,-501.7402"/>
<polygon fill="#191970" stroke="#191970" points="715.4015,-505.0647 725.9945,-504.8719 717.5933,-498.4167 715.4015,-505.0647"/>
</g>
<!-- Node38&#45;&gt;Node21 -->
<g id="edge41" class="edge">
<title>Node38&#45;&gt;Node21</title>
<path fill="none" stroke="#191970" d="M369.0587,-399.5981C379.1044,-403.5009 390.3282,-408.4148 400,-414 417.5532,-424.1365 418.2903,-432.1394 436,-442 487.4403,-470.6417 552.7153,-491.9984 592.237,-503.4708"/>
<polygon fill="#191970" stroke="#191970" points="591.3699,-506.863 601.9464,-506.2403 593.2901,-500.1314 591.3699,-506.863"/>
</g>
<!-- Node38&#45;&gt;Node35 -->
<g id="edge42" class="edge">
<title>Node38&#45;&gt;Node35</title>
<path fill="none" stroke="#191970" d="M352.0169,-399.7138C364.69,-411.2809 385.5989,-431.6103 400,-452 420.4111,-480.8988 409.9857,-499.0207 436,-523 438.2984,-525.1186 440.8648,-527.0164 443.579,-528.7137"/>
<polygon fill="#191970" stroke="#191970" points="442.1273,-531.9051 452.6049,-533.477 445.3945,-525.7143 442.1273,-531.9051"/>
</g>
<!-- Node38&#45;&gt;Node37 -->
<g id="edge43" class="edge">
<title>Node38&#45;&gt;Node37</title>
<path fill="none" stroke="#191970" d="M375.7287,-399.5654C384.3374,-403.1026 393.0714,-407.8132 400,-414 424.9233,-436.2547 412.1045,-456.6451 436,-480 439.549,-483.4687 443.7006,-486.5498 448.036,-489.2509"/>
<polygon fill="#191970" stroke="#191970" points="446.6178,-492.4668 457.0592,-494.2637 450.0173,-486.3477 446.6178,-492.4668"/>
</g>
<!-- Node39 -->
<g id="node27" class="node">
<title>Node39</title>
<g id="a_node27"><a xlink:href="semaphore_8c.html#aad78dc4ccefb184a74dd9ef808df8db6" target="_top" xlink:title="Inizializza il valore del semaforo sem_num al valore val. ">
<polygon fill="none" stroke="#000000" points="593.5,-380.5 593.5,-399.5 661.5,-399.5 661.5,-380.5 593.5,-380.5"/>
<text text-anchor="middle" x="627.5" y="-387.5" font-family="Helvetica,sans-Serif" font-size="10.00" fill="#000000">semSetVal</text>
</a>
</g>
</g>
<!-- Node38&#45;&gt;Node39 -->
<g id="edge44" class="edge">
<title>Node38&#45;&gt;Node39</title>
<path fill="none" stroke="#191970" d="M382.0485,-390C435.3949,-390 528.198,-390 583.1271,-390"/>
<polygon fill="#191970" stroke="#191970" points="583.2549,-393.5001 593.2548,-390 583.2548,-386.5001 583.2549,-393.5001"/>
</g>
<!-- Node40 -->
<g id="node28" class="node">
<title>Node40</title>
<g id="a_node28"><a xlink:href="semaphore_8c.html#a8df9b8ea63eaf93d09f437b356a4a1eb" target="_top" xlink:title="Inizializza i valori del set di semafori semid ai valori in values. ">
<polygon fill="none" stroke="#000000" points="594.5,-342.5 594.5,-361.5 660.5,-361.5 660.5,-342.5 594.5,-342.5"/>
<text text-anchor="middle" x="627.5" y="-349.5" font-family="Helvetica,sans-Serif" font-size="10.00" fill="#000000">semSetAll</text>
</a>
</g>
</g>
<!-- Node38&#45;&gt;Node40 -->
<g id="edge47" class="edge">
<title>Node38&#45;&gt;Node40</title>
<path fill="none" stroke="#191970" d="M382.0485,-384.5555C435.6856,-377.4414 529.2106,-365.0366 584.0217,-357.7668"/>
<polygon fill="#191970" stroke="#191970" points="584.6629,-361.2125 594.1158,-356.4279 583.7424,-354.2732 584.6629,-361.2125"/>
</g>
<!-- Node41 -->
<g id="node29" class="node">
<title>Node41</title>
<g id="a_node29"><a xlink:href="semaphore_8c.html#a530566146b6e3cc8415d8ae4259fd68f" target="_top" xlink:title="Cancella il set di semafori svegliando eventuali processi in attesa. ">
<polygon fill="none" stroke="#000000" points="592.5,-304.5 592.5,-323.5 662.5,-323.5 662.5,-304.5 592.5,-304.5"/>
<text text-anchor="middle" x="627.5" y="-311.5" font-family="Helvetica,sans-Serif" font-size="10.00" fill="#000000">semDelete</text>
</a>
</g>
</g>
<!-- Node38&#45;&gt;Node41 -->
<g id="edge49" class="edge">
<title>Node38&#45;&gt;Node41</title>
<path fill="none" stroke="#191970" d="M370.8265,-380.4294C389.4811,-374.5596 414.0528,-367.0381 436,-361 485.8423,-347.2875 543.515,-333.3988 582.438,-324.3129"/>
<polygon fill="#191970" stroke="#191970" points="583.457,-327.6694 592.4046,-321.9957 581.8717,-320.8513 583.457,-327.6694"/>
</g>
<!-- Node42 -->
<g id="node30" class="node">
<title>Node42</title>
<g id="a_node30"><a xlink:href="semaphore_8c.html#a34a010b0a39236a7261d7d5103426491" target="_top" xlink:title="Imposta i permessi su un set di semafori. ">
<polygon fill="none" stroke="#000000" points="443,-266.5 443,-285.5 522,-285.5 522,-266.5 443,-266.5"/>
<text text-anchor="middle" x="482.5" y="-273.5" font-family="Helvetica,sans-Serif" font-size="10.00" fill="#000000">semSetPerm</text>
</a>
</g>
</g>
<!-- Node38&#45;&gt;Node42 -->
<g id="edge51" class="edge">
<title>Node38&#45;&gt;Node42</title>
<path fill="none" stroke="#191970" d="M382.2466,-381.3904C388.6517,-378.787 394.8434,-375.4013 400,-371 426.9106,-348.031 411.0727,-325.1074 436,-300 439.4964,-296.4783 443.6179,-293.3668 447.9384,-290.6508"/>
<polygon fill="#191970" stroke="#191970" points="449.9203,-293.5531 456.9502,-285.6265 446.5115,-287.4391 449.9203,-293.5531"/>
</g>
<!-- Node39&#45;&gt;Node15 -->
<g id="edge45" class="edge">
<title>Node39&#45;&gt;Node15</title>
<path fill="none" stroke="#191970" d="M661.7933,-398.6224C671.6257,-402.2419 681.8724,-407.2311 690,-414 716.1892,-435.8112 734.1886,-472.0388 743.3834,-494.0974"/>
<polygon fill="#191970" stroke="#191970" points="740.1358,-495.4025 747.0871,-503.3981 746.6391,-492.8127 740.1358,-495.4025"/>
</g>
<!-- Node40&#45;&gt;Node15 -->
<g id="edge48" class="edge">
<title>Node40&#45;&gt;Node15</title>
<path fill="none" stroke="#191970" d="M660.7306,-356.465C671.084,-359.2366 681.8985,-363.7268 690,-371 726.6005,-403.8585 741.8182,-462.5979 747.5002,-493.2133"/>
<polygon fill="#191970" stroke="#191970" points="744.1144,-494.1824 749.2357,-503.4573 751.0161,-493.0131 744.1144,-494.1824"/>
</g>
<!-- Node41&#45;&gt;Node15 -->
<g id="edge50" class="edge">
<title>Node41&#45;&gt;Node15</title>
<path fill="none" stroke="#191970" d="M662.6963,-318.5431C672.5596,-321.3302 682.5969,-325.8095 690,-333 713.5041,-355.8293 736.9833,-451.7282 746.3057,-493.4608"/>
<polygon fill="#191970" stroke="#191970" points="742.941,-494.4573 748.502,-503.4754 749.7785,-492.9578 742.941,-494.4573"/>
</g>
<!-- Node42&#45;&gt;Node15 -->
<g id="edge52" class="edge">
<title>Node42&#45;&gt;Node15</title>
<path fill="none" stroke="#191970" d="M522.254,-267.4495C568.1196,-260.0624 643.2107,-255.9327 690,-295 720.8429,-320.7526 741.0294,-444.5862 747.8925,-493.2771"/>
<polygon fill="#191970" stroke="#191970" points="744.461,-494.0166 749.2848,-503.4495 751.3963,-493.0672 744.461,-494.0166"/>
</g>
<!-- Node45&#45;&gt;Node15 -->
<g id="edge56" class="edge">
<title>Node45&#45;&gt;Node15</title>
<path fill="none" stroke="#191970" d="M232.3498,-361.387C237.3635,-358.9287 242.1031,-355.8508 246,-352 278.117,-320.2633 246.6375,-285.0751 282,-257 317.6581,-228.6903 654.7101,-190.2327 690,-219 732.8787,-253.9535 746.2479,-433.1537 749.5619,-493.293"/>
<polygon fill="#191970" stroke="#191970" points="746.071,-493.5607 750.0826,-503.3667 753.0617,-493.1993 746.071,-493.5607"/>
</g>
<!-- Node45&#45;&gt;Node30 -->
<g id="edge57" class="edge">
<title>Node45&#45;&gt;Node30</title>
<path fill="none" stroke="#191970" d="M233.1858,-361.4254C237.9576,-358.966 242.407,-355.8776 246,-352 286.1664,-308.6525 240.7539,-266.3214 282,-224 293.1022,-212.6084 382.3565,-187.9079 437.9735,-173.3567"/>
<polygon fill="#191970" stroke="#191970" points="439.1442,-176.6687 447.9406,-170.7633 437.3814,-169.8943 439.1442,-176.6687"/>
</g>
<!-- Node45&#45;&gt;Node35 -->
<g id="edge59" class="edge">
<title>Node45&#45;&gt;Node35</title>
<path fill="none" stroke="#191970" d="M203.9895,-380.5422C219.7397,-395.2873 251.6794,-423.9942 282,-444 346.2078,-486.365 366.1082,-490.8665 436,-523 439.9221,-524.8032 444.066,-526.6195 448.1993,-528.3763"/>
<polygon fill="#191970" stroke="#191970" points="447.1376,-531.7254 457.715,-532.3337 449.8256,-525.262 447.1376,-531.7254"/>
</g>
<!-- Node45&#45;&gt;Node37 -->
<g id="edge65" class="edge">
<title>Node45&#45;&gt;Node37</title>
<path fill="none" stroke="#191970" d="M215.1938,-380.5636C232.9289,-388.4669 258.9598,-399.8364 282,-409 333.8664,-429.6284 350.2023,-426.7841 400,-452 417.1556,-460.687 419.7589,-465.7041 436,-476 442.785,-480.3013 450.2077,-484.8429 457.0909,-488.9878"/>
<polygon fill="#191970" stroke="#191970" points="455.6533,-492.2061 466.0322,-494.3341 459.2457,-486.1982 455.6533,-492.2061"/>
</g>
<!-- Node45&#45;&gt;Node38 -->
<g id="edge60" class="edge">
<title>Node45&#45;&gt;Node38</title>
<path fill="none" stroke="#191970" d="M242.5407,-377.274C257.6252,-379.2237 274.3013,-381.3791 289.5753,-383.3533"/>
<polygon fill="#191970" stroke="#191970" points="289.5227,-386.8755 299.8889,-384.6863 290.4201,-379.9333 289.5227,-386.8755"/>
</g>
<!-- Node46 -->
<g id="node34" class="node">
<title>Node46</title>
<g id="a_node34"><a xlink:href="client_8c.html#a55586f2b7e9b3620294cf78cda8abdad" target="_top" xlink:title="Divide in 4 parti il contenuto del file da inviare al server. ">
<polygon fill="none" stroke="#000000" points="319,-342.5 319,-361.5 363,-361.5 363,-342.5 319,-342.5"/>
<text text-anchor="middle" x="341" y="-349.5" font-family="Helvetica,sans-Serif" font-size="10.00" fill="#000000">dividi</text>
</a>
</g>
</g>
<!-- Node45&#45;&gt;Node46 -->
<g id="edge58" class="edge">
<title>Node45&#45;&gt;Node46</title>
<path fill="none" stroke="#191970" d="M242.5407,-364.726C264.2737,-361.917 289.3104,-358.681 308.698,-356.1751"/>
<polygon fill="#191970" stroke="#191970" points="309.3621,-359.6185 318.831,-354.8654 308.4648,-352.6762 309.3621,-359.6185"/>
</g>
<!-- Node47 -->
<g id="node35" class="node">
<title>Node47</title>
<g id="a_node35"><a xlink:href="defines_8c.html#ac281b05b7a90ba292f5748cbfe3c389d" target="_top" xlink:title="Restituisce vero se l&#39;array contiene tutti true. ">
<polygon fill="none" stroke="#000000" points="282,-304.5 282,-323.5 400,-323.5 400,-304.5 282,-304.5"/>
<text text-anchor="middle" x="341" y="-311.5" font-family="Helvetica,sans-Serif" font-size="10.00" fill="#000000">arrayContainsAllTrue</text>
</a>
</g>
</g>
<!-- Node45&#45;&gt;Node47 -->
<g id="edge61" class="edge">
<title>Node45&#45;&gt;Node47</title>
<path fill="none" stroke="#191970" d="M222.3437,-361.4307C230.0985,-358.6003 238.4456,-355.3552 246,-352 262.5343,-344.6565 265.3265,-340.0216 282,-333 287.1447,-330.8334 292.6271,-328.7647 298.0989,-326.8432"/>
<polygon fill="#191970" stroke="#191970" points="299.5027,-330.0637 307.8618,-323.5541 297.2677,-323.43 299.5027,-330.0637"/>
</g>
<!-- Node48 -->
<g id="node36" class="node">
<title>Node48</title>
<g id="a_node36"><a xlink:href="semaphore_8c.html#a0d970df04f11907f1acb332a47a39104" target="_top" xlink:title="semWaitNoBlocc">
<polygon fill="none" stroke="#000000" points="291.5,-266.5 291.5,-285.5 390.5,-285.5 390.5,-266.5 291.5,-266.5"/>
<text text-anchor="middle" x="341" y="-273.5" font-family="Helvetica,sans-Serif" font-size="10.00" fill="#000000">semWaitNoBlocc</text>
</a>
</g>
</g>
<!-- Node45&#45;&gt;Node48 -->
<g id="edge62" class="edge">
<title>Node45&#45;&gt;Node48</title>
<path fill="none" stroke="#191970" d="M229.7962,-361.487C235.5689,-358.9815 241.2126,-355.8627 246,-352 269.3191,-333.1852 258.3206,-313.3593 282,-295 284.4304,-293.1157 287.0534,-291.4152 289.7958,-289.8812"/>
<polygon fill="#191970" stroke="#191970" points="291.3694,-293.0082 298.8709,-285.5264 288.341,-286.6972 291.3694,-293.0082"/>
</g>
<!-- Node49 -->
<g id="node37" class="node">
<title>Node49</title>
<g id="a_node37"><a xlink:href="semaphore_8c.html#a78e24598fb0a5416db19120d6748627e" target="_top" xlink:title="semOpNoBlocc">
<polygon fill="none" stroke="#000000" points="582,-228.5 582,-247.5 673,-247.5 673,-228.5 582,-228.5"/>
<text text-anchor="middle" x="627.5" y="-235.5" font-family="Helvetica,sans-Serif" font-size="10.00" fill="#000000">semOpNoBlocc</text>
</a>
</g>
</g>
<!-- Node48&#45;&gt;Node49 -->
<g id="edge63" class="edge">
<title>Node48&#45;&gt;Node49</title>
<path fill="none" stroke="#191970" d="M383.8781,-266.4923C400.1403,-263.1323 418.8655,-259.5571 436,-257 481.3062,-250.2386 533.0136,-245.2697 571.2694,-242.1126"/>
<polygon fill="#191970" stroke="#191970" points="572.0009,-245.565 581.6863,-241.2703 571.4367,-238.5878 572.0009,-245.565"/>
</g>
<!-- Node49&#45;&gt;Node15 -->
<g id="edge64" class="edge">
<title>Node49&#45;&gt;Node15</title>
<path fill="none" stroke="#191970" d="M669.3939,-247.6247C677.1207,-251.06 684.4797,-255.7102 690,-262 720.7146,-296.9956 741.4223,-440.5006 748.1364,-493.3458"/>
<polygon fill="#191970" stroke="#191970" points="744.6834,-493.9418 749.3867,-503.4354 751.6302,-493.0808 744.6834,-493.9418"/>
</g>
</g>
</svg>
