<?xml version="1.0" encoding="UTF-8" standalone="no"?>
<!DOCTYPE svg PUBLIC "-//W3C//DTD SVG 1.1//EN"
 "http://www.w3.org/Graphics/SVG/1.1/DTD/svg11.dtd">
<!-- Generated by graphviz version 2.40.1 (20161225.0304)
 -->
<!-- Title: main Pages: 1 -->
<svg width="599pt" height="400pt"
 viewBox="0.00 0.00 599.00 399.50" xmlns="http://www.w3.org/2000/svg" xmlns:xlink="http://www.w3.org/1999/xlink">
<g id="graph0" class="graph" transform="scale(1 1) rotate(0) translate(4 395.5)">
<title>main</title>
<!-- Node5 -->
<g id="node1" class="node">
<title>Node5</title>
<polygon fill="#bfbfbf" stroke="#000000" points="0,-151.5 0,-170.5 41,-170.5 41,-151.5 0,-151.5"/>
<text text-anchor="middle" x="20.5" y="-158.5" font-family="Helvetica,sans-Serif" font-size="10.00" fill="#000000">main</text>
</g>
<!-- Node6 -->
<g id="node2" class="node">
<title>Node6</title>
<g id="a_node2"><a xlink:href="signals_8c.html#a6060ad9cb62b184abfe113560b29f3c4" target="_top" xlink:title="block_sig_no_SIGINT\l_SIGUSR1">
<polygon fill="none" stroke="#000000" points="241,-361 241,-391 359,-391 359,-361 241,-361"/>
<text text-anchor="start" x="249" y="-379" font-family="Helvetica,sans-Serif" font-size="10.00" fill="#000000">block_sig_no_SIGINT</text>
<text text-anchor="middle" x="300" y="-368" font-family="Helvetica,sans-Serif" font-size="10.00" fill="#000000">_SIGUSR1</text>
</a>
</g>
</g>
<!-- Node5&#45;&gt;Node6 -->
<g id="edge1" class="edge">
<title>Node5&#45;&gt;Node6</title>
<path fill="none" stroke="#191970" d="M26.2374,-170.6588C35.5895,-185.8988 55.2711,-215.952 77,-237 140.7601,-298.7621 163.274,-308.1214 241,-351 244.5158,-352.9395 248.213,-354.8291 251.9707,-356.6443"/>
<polygon fill="#191970" stroke="#191970" points="250.821,-359.9687 261.3666,-360.9891 253.759,-353.6151 250.821,-359.9687"/>
</g>
<!-- Node7 -->
<g id="node3" class="node">
<title>Node7</title>
<g id="a_node3"><a xlink:href="client_8c.html#a48d605ff689f470746c858648f0a98c2" target="_top" xlink:title="Handler del segnale SIGINT. ">
<polygon fill="none" stroke="#000000" points="82,-208.5 82,-227.5 200,-227.5 200,-208.5 82,-208.5"/>
<text text-anchor="middle" x="141" y="-215.5" font-family="Helvetica,sans-Serif" font-size="10.00" fill="#000000">SIGINTSignalHandler</text>
</a>
</g>
</g>
<!-- Node5&#45;&gt;Node7 -->
<g id="edge2" class="edge">
<title>Node5&#45;&gt;Node7</title>
<path fill="none" stroke="#191970" d="M40.669,-170.5405C60.0453,-179.7061 89.5433,-193.6595 111.5465,-204.0676"/>
<polygon fill="#191970" stroke="#191970" points="110.2289,-207.3162 120.7652,-208.4284 113.2222,-200.9884 110.2289,-207.3162"/>
</g>
<!-- Node9 -->
<g id="node5" class="node">
<title>Node9</title>
<g id="a_node5"><a xlink:href="err__exit_8c.html#aa223b0ecfe538d130ece562646a37d27" target="_top" xlink:title="Prints the error message of the last failed system call and terminates the calling process...">
<polygon fill="none" stroke="#000000" points="416,-166.5 416,-185.5 465,-185.5 465,-166.5 416,-166.5"/>
<text text-anchor="middle" x="440.5" y="-173.5" font-family="Helvetica,sans-Serif" font-size="10.00" fill="#000000">ErrExit</text>
</a>
</g>
</g>
<!-- Node5&#45;&gt;Node9 -->
<g id="edge23" class="edge">
<title>Node5&#45;&gt;Node9</title>
<path fill="none" stroke="#191970" d="M41.2813,-152.9074C95.1221,-133.1577 243.0284,-86.6813 359,-123 377.5894,-128.8216 378.6988,-137.3357 395,-148 401.6169,-152.3288 408.8726,-156.8796 415.6078,-161.0245"/>
<polygon fill="#191970" stroke="#191970" points="414.0013,-164.1444 424.3606,-166.366 417.6478,-158.1691 414.0013,-164.1444"/>
</g>
<!-- Node22 -->
<g id="node18" class="node">
<title>Node22</title>
<g id="a_node18"><a xlink:href="client_8c.html#a50b22adcb76198fcd9402a97ff4711bf" target="_top" xlink:title="Handler del segnale SIGUSR1. ">
<polygon fill="none" stroke="#000000" points="77,-56.5 77,-75.5 205,-75.5 205,-56.5 77,-56.5"/>
<text text-anchor="middle" x="141" y="-63.5" font-family="Helvetica,sans-Serif" font-size="10.00" fill="#000000">SIGUSR1SignalHandler</text>
</a>
</g>
</g>
<!-- Node5&#45;&gt;Node22 -->
<g id="edge22" class="edge">
<title>Node5&#45;&gt;Node22</title>
<path fill="none" stroke="#191970" d="M25.8306,-151.3557C34.6252,-136.2673 53.5568,-107.0463 77,-90 82.6746,-85.8738 89.1419,-82.3734 95.733,-79.4298"/>
<polygon fill="#191970" stroke="#191970" points="97.4499,-82.5103 105.4004,-75.5074 94.8181,-76.0239 97.4499,-82.5103"/>
</g>
<!-- Node7&#45;&gt;Node6 -->
<g id="edge21" class="edge">
<title>Node7&#45;&gt;Node6</title>
<path fill="none" stroke="#191970" d="M148.544,-227.7863C160.5696,-243.412 184.7904,-274.9894 205,-302 221.1893,-323.6374 219.8012,-334.2404 241,-351 243.2499,-352.7787 245.645,-354.4528 248.1332,-356.0251"/>
<polygon fill="#191970" stroke="#191970" points="246.4514,-359.0949 256.8765,-360.9839 249.9047,-353.006 246.4514,-359.0949"/>
</g>
<!-- Node8 -->
<g id="node4" class="node">
<title>Node8</title>
<g id="a_node4"><a xlink:href="signals_8c.html#a6e96709c7c3ecbcde283f4a2a09e4baf" target="_top" xlink:title="block_all_signals">
<polygon fill="none" stroke="#000000" points="250,-208.5 250,-227.5 350,-227.5 350,-208.5 250,-208.5"/>
<text text-anchor="middle" x="300" y="-215.5" font-family="Helvetica,sans-Serif" font-size="10.00" fill="#000000">block_all_signals</text>
</a>
</g>
</g>
<!-- Node7&#45;&gt;Node8 -->
<g id="edge3" class="edge">
<title>Node7&#45;&gt;Node8</title>
<path fill="none" stroke="#191970" d="M200.2057,-218C213.0944,-218 226.7458,-218 239.6772,-218"/>
<polygon fill="#191970" stroke="#191970" points="239.8654,-221.5001 249.8653,-218 239.8653,-214.5001 239.8654,-221.5001"/>
</g>
<!-- Node7&#45;&gt;Node9 -->
<g id="edge4" class="edge">
<title>Node7&#45;&gt;Node9</title>
<path fill="none" stroke="#191970" d="M187.1806,-208.4968C204.068,-205.2145 223.3554,-201.6897 241,-199 298.5836,-190.2222 365.9762,-183.1055 405.8492,-179.2204"/>
<polygon fill="#191970" stroke="#191970" points="406.2341,-182.6996 415.8527,-178.2574 405.5633,-175.7319 406.2341,-182.6996"/>
</g>
<!-- Node10 -->
<g id="node6" class="node">
<title>Node10</title>
<g id="a_node6"><a xlink:href="files_8c.html#a627e4b202ea71f3bd241ccf562449bd6" target="_top" xlink:title="find_sendme_files">
<polygon fill="none" stroke="#000000" points="248,-38.5 248,-57.5 352,-57.5 352,-38.5 248,-38.5"/>
<text text-anchor="middle" x="300" y="-45.5" font-family="Helvetica,sans-Serif" font-size="10.00" fill="#000000">find_sendme_files</text>
</a>
</g>
</g>
<!-- Node7&#45;&gt;Node10 -->
<g id="edge5" class="edge">
<title>Node7&#45;&gt;Node10</title>
<path fill="none" stroke="#191970" d="M150.0041,-208.373C175.9128,-180.6719 250.9046,-100.4919 283.9918,-65.1157"/>
<polygon fill="#191970" stroke="#191970" points="286.82,-67.2157 291.0947,-57.5214 281.7076,-62.4341 286.82,-67.2157"/>
</g>
<!-- Node17 -->
<g id="node13" class="node">
<title>Node17</title>
<g id="a_node13"><a xlink:href="files_8c.html#a1cdd9b5b37408e31d80f31e474a71483" target="_top" xlink:title="Visualizza il contenuto della lista concatenata di filePath. ">
<polygon fill="none" stroke="#000000" points="270.5,-132.5 270.5,-151.5 329.5,-151.5 329.5,-132.5 270.5,-132.5"/>
<text text-anchor="middle" x="300" y="-139.5" font-family="Helvetica,sans-Serif" font-size="10.00" fill="#000000">print_list</text>
</a>
</g>
</g>
<!-- Node7&#45;&gt;Node17 -->
<g id="edge14" class="edge">
<title>Node7&#45;&gt;Node17</title>
<path fill="none" stroke="#191970" d="M158.0997,-208.4862C177.8192,-197.6612 211.3362,-179.7097 241,-166 248.9362,-162.3321 257.5979,-158.6407 265.7799,-155.29"/>
<polygon fill="#191970" stroke="#191970" points="267.1269,-158.5208 275.0925,-151.5351 264.5091,-152.0287 267.1269,-158.5208"/>
</g>
<!-- Node18 -->
<g id="node14" class="node">
<title>Node18</title>
<g id="a_node14"><a xlink:href="files_8c.html#a3ba19f05c37434e7f20facff3445651a" target="_top" xlink:title="Conta il numero di file nella lista concatenata di filePath. ">
<polygon fill="none" stroke="#000000" points="265.5,-284.5 265.5,-303.5 334.5,-303.5 334.5,-284.5 265.5,-284.5"/>
<text text-anchor="middle" x="300" y="-291.5" font-family="Helvetica,sans-Serif" font-size="10.00" fill="#000000">count_files</text>
</a>
</g>
</g>
<!-- Node7&#45;&gt;Node18 -->
<g id="edge15" class="edge">
<title>Node7&#45;&gt;Node18</title>
<path fill="none" stroke="#191970" d="M155.7415,-227.6962C174.8158,-239.9347 209.3606,-261.0673 241,-275 245.9858,-277.1955 251.307,-279.2658 256.6359,-281.1743"/>
<polygon fill="#191970" stroke="#191970" points="255.571,-284.5091 266.1655,-284.4274 257.8325,-277.8844 255.571,-284.5091"/>
</g>
<!-- Node19 -->
<g id="node15" class="node">
<title>Node19</title>
<g id="a_node15"><a xlink:href="client_8c.html#a54b47b58f228d7bc9827d2919687e25a" target="_top" xlink:title="Funzione eseguita da ogni Client i (figli di Client 0) per mandare i file al server. ">
<polygon fill="none" stroke="#000000" points="251.5,-322.5 251.5,-341.5 348.5,-341.5 348.5,-322.5 251.5,-322.5"/>
<text text-anchor="middle" x="300" y="-329.5" font-family="Helvetica,sans-Serif" font-size="10.00" fill="#000000">operazioni_figlio</text>
</a>
</g>
</g>
<!-- Node7&#45;&gt;Node19 -->
<g id="edge16" class="edge">
<title>Node7&#45;&gt;Node19</title>
<path fill="none" stroke="#191970" d="M148.4878,-227.5515C163.8421,-246.5214 200.845,-289.1665 241,-313 244.5916,-315.1318 248.4504,-317.0539 252.4127,-318.7809"/>
<polygon fill="#191970" stroke="#191970" points="251.182,-322.0578 261.7691,-322.4634 253.7457,-315.5441 251.182,-322.0578"/>
</g>
<!-- Node21 -->
<g id="node17" class="node">
<title>Node21</title>
<g id="a_node17"><a xlink:href="files_8c.html#a786a7b6f9c01e8489d7196a79f5f3862" target="_top" xlink:title="Libera la memoria dello HEAP occupata dalla lista di filePath. ">
<polygon fill="none" stroke="#000000" points="272,-246.5 272,-265.5 328,-265.5 328,-246.5 272,-246.5"/>
<text text-anchor="middle" x="300" y="-253.5" font-family="Helvetica,sans-Serif" font-size="10.00" fill="#000000">free_list</text>
</a>
</g>
</g>
<!-- Node7&#45;&gt;Node21 -->
<g id="edge20" class="edge">
<title>Node7&#45;&gt;Node21</title>
<path fill="none" stroke="#191970" d="M181.1224,-227.589C205.9156,-233.5144 237.5447,-241.0736 261.944,-246.9048"/>
<polygon fill="#191970" stroke="#191970" points="261.3775,-250.368 271.9172,-249.2884 263.0047,-243.5597 261.3775,-250.368"/>
</g>
<!-- Node10&#45;&gt;Node9 -->
<g id="edge13" class="edge">
<title>Node10&#45;&gt;Node9</title>
<path fill="none" stroke="#191970" d="M316.8818,-57.5031C329.489,-65.1606 346.608,-76.7996 359,-90 379.7654,-112.12 373.5055,-126.5879 395,-148 399.9448,-152.9258 405.9139,-157.3751 411.878,-161.2024"/>
<polygon fill="#191970" stroke="#191970" points="410.1126,-164.2247 420.4925,-166.3478 413.7021,-158.2151 410.1126,-164.2247"/>
</g>
<!-- Node10&#45;&gt;Node10 -->
<g id="edge12" class="edge">
<title>Node10&#45;&gt;Node10</title>
<path fill="none" stroke="#191970" d="M278.4219,-57.7571C267.9245,-66.5653 275.1172,-76 300,-76 315.9406,-76 324.6211,-72.128 326.0416,-67.0292"/>
<polygon fill="#191970" stroke="#191970" points="329.0692,-65.2493 321.5781,-57.7571 322.762,-68.2855 329.0692,-65.2493"/>
</g>
<!-- Node11 -->
<g id="node7" class="node">
<title>Node11</title>
<g id="a_node7"><a xlink:href="strings_8c.html#a21b51584b636c81767ed74b8a527ffd3" target="_top" xlink:title="Concatena la cartella directory al percorso path. ">
<polygon fill="none" stroke="#000000" points="400.5,-38.5 400.5,-57.5 480.5,-57.5 480.5,-38.5 400.5,-38.5"/>
<text text-anchor="middle" x="440.5" y="-45.5" font-family="Helvetica,sans-Serif" font-size="10.00" fill="#000000">append2Path</text>
</a>
</g>
</g>
<!-- Node10&#45;&gt;Node11 -->
<g id="edge6" class="edge">
<title>Node10&#45;&gt;Node11</title>
<path fill="none" stroke="#191970" d="M352.317,-48C364.7514,-48 377.9892,-48 390.3253,-48"/>
<polygon fill="#191970" stroke="#191970" points="390.4381,-51.5001 400.4381,-48 390.4381,-44.5001 390.4381,-51.5001"/>
</g>
<!-- Node12 -->
<g id="node8" class="node">
<title>Node12</title>
<g id="a_node8"><a xlink:href="files_8c.html#a675d61c6bfe0d9ddd1be59233dfd7d5c" target="_top" xlink:title="Restituisce 1 se il percorso inizia con &quot;sendme_&quot;, 0 altrimenti. ">
<polygon fill="none" stroke="#000000" points="395,-.5 395,-19.5 486,-19.5 486,-.5 395,-.5"/>
<text text-anchor="middle" x="440.5" y="-7.5" font-family="Helvetica,sans-Serif" font-size="10.00" fill="#000000">checkFileName</text>
</a>
</g>
</g>
<!-- Node10&#45;&gt;Node12 -->
<g id="edge7" class="edge">
<title>Node10&#45;&gt;Node12</title>
<path fill="none" stroke="#191970" d="M335.4541,-38.411C353.5913,-33.5056 375.8684,-27.4804 395.2334,-22.2429"/>
<polygon fill="#191970" stroke="#191970" points="396.3179,-25.5754 405.0573,-19.5859 394.4903,-18.8182 396.3179,-25.5754"/>
</g>
<!-- Node14 -->
<g id="node10" class="node">
<title>Node14</title>
<g id="a_node10"><a xlink:href="files_8c.html#a5ac4517096592013308a3252f3226f60" target="_top" xlink:title="Restituisce 1 se il percorso ha la dimensione &lt;= 4 KB, 0 altrimenti. ">
<polygon fill="none" stroke="#000000" points="399.5,-119.5 399.5,-138.5 481.5,-138.5 481.5,-119.5 399.5,-119.5"/>
<text text-anchor="middle" x="440.5" y="-126.5" font-family="Helvetica,sans-Serif" font-size="10.00" fill="#000000">checkFileSize</text>
</a>
</g>
</g>
<!-- Node10&#45;&gt;Node14 -->
<g id="edge9" class="edge">
<title>Node10&#45;&gt;Node14</title>
<path fill="none" stroke="#191970" d="M315.3143,-57.5438C333.965,-69.0839 366.5095,-88.9549 395,-105 400.7195,-108.2211 406.9054,-111.5709 412.8185,-114.7101"/>
<polygon fill="#191970" stroke="#191970" points="411.2994,-117.8656 421.7795,-119.4208 414.5566,-111.6696 411.2994,-117.8656"/>
</g>
<!-- Node16 -->
<g id="node12" class="node">
<title>Node16</title>
<g id="a_node12"><a xlink:href="files_8c.html#a6a46f37bcdbf048db0fba5bb3e0e6342" target="_top" xlink:title="Aggiunge in fondo alla coda un nuovo filePath. ">
<polygon fill="none" stroke="#000000" points="414,-76.5 414,-95.5 467,-95.5 467,-76.5 414,-76.5"/>
<text text-anchor="middle" x="440.5" y="-83.5" font-family="Helvetica,sans-Serif" font-size="10.00" fill="#000000">append</text>
</a>
</g>
</g>
<!-- Node10&#45;&gt;Node16 -->
<g id="edge11" class="edge">
<title>Node10&#45;&gt;Node16</title>
<path fill="none" stroke="#191970" d="M335.4541,-57.589C356.4124,-63.2574 382.8987,-70.421 404.0318,-76.1367"/>
<polygon fill="#191970" stroke="#191970" points="403.3615,-79.5811 413.9285,-78.8134 405.1892,-72.8239 403.3615,-79.5811"/>
</g>
<!-- Node13 -->
<g id="node9" class="node">
<title>Node13</title>
<g id="a_node9"><a xlink:href="strings_8c.html#ab6b8529148710caedf063c1de6b0db16" target="_top" xlink:title="Restituisce vero se la stringa a inizia con la sotto stringa b. ">
<polygon fill="none" stroke="#000000" points="522.5,-.5 522.5,-19.5 590.5,-19.5 590.5,-.5 522.5,-.5"/>
<text text-anchor="middle" x="556.5" y="-7.5" font-family="Helvetica,sans-Serif" font-size="10.00" fill="#000000">StartsWith</text>
</a>
</g>
</g>
<!-- Node12&#45;&gt;Node13 -->
<g id="edge8" class="edge">
<title>Node12&#45;&gt;Node13</title>
<path fill="none" stroke="#191970" d="M486.0133,-10C494.5871,-10 503.5431,-10 512.0828,-10"/>
<polygon fill="#191970" stroke="#191970" points="512.2392,-13.5001 522.2392,-10 512.2392,-6.5001 512.2392,-13.5001"/>
</g>
<!-- Node15 -->
<g id="node11" class="node">
<title>Node15</title>
<g id="a_node11"><a xlink:href="files_8c.html#a096f8e9259afb2839ebe6822364f9928" target="_top" xlink:title="Restituisce dimensione del file in byte. ">
<polygon fill="none" stroke="#000000" points="522,-220.5 522,-239.5 591,-239.5 591,-220.5 522,-220.5"/>
<text text-anchor="middle" x="556.5" y="-227.5" font-family="Helvetica,sans-Serif" font-size="10.00" fill="#000000">getFileSize</text>
</a>
</g>
</g>
<!-- Node14&#45;&gt;Node15 -->
<g id="edge10" class="edge">
<title>Node14&#45;&gt;Node15</title>
<path fill="none" stroke="#191970" d="M458.475,-138.6583C467.1372,-143.6568 477.4707,-150.1416 486,-157 507.085,-173.9545 528.2418,-196.8357 541.7974,-212.4327"/>
<polygon fill="#191970" stroke="#191970" points="539.3371,-214.941 548.4975,-220.2644 544.6562,-210.3904 539.3371,-214.941"/>
</g>
<!-- Node19&#45;&gt;Node9 -->
<g id="edge17" class="edge">
<title>Node19&#45;&gt;Node9</title>
<path fill="none" stroke="#191970" d="M342.527,-322.4645C348.421,-319.9922 354.1189,-316.8897 359,-313 398.7089,-281.3562 423.3613,-224.7027 434.1431,-195.1401"/>
<polygon fill="#191970" stroke="#191970" points="437.4922,-196.1657 437.4899,-185.5709 430.8847,-193.8547 437.4922,-196.1657"/>
</g>
<!-- Node19&#45;&gt;Node15 -->
<g id="edge18" class="edge">
<title>Node19&#45;&gt;Node15</title>
<path fill="none" stroke="#191970" d="M348.6789,-336.6493C387.9594,-338.2199 443.4825,-335.3639 486,-313 513.6267,-298.4686 534.9427,-268.157 546.5967,-248.4643"/>
<polygon fill="#191970" stroke="#191970" points="549.7796,-249.9463 551.66,-239.5197 543.6879,-246.498 549.7796,-249.9463"/>
</g>
<!-- Node20 -->
<g id="node16" class="node">
<title>Node20</title>
<g id="a_node16"><a xlink:href="client_8c.html#a55586f2b7e9b3620294cf78cda8abdad" target="_top" xlink:title="Divide in 4 parti il contenuto del file da inviare al server. ">
<polygon fill="none" stroke="#000000" points="418.5,-284.5 418.5,-303.5 462.5,-303.5 462.5,-284.5 418.5,-284.5"/>
<text text-anchor="middle" x="440.5" y="-291.5" font-family="Helvetica,sans-Serif" font-size="10.00" fill="#000000">dividi</text>
</a>
</g>
</g>
<!-- Node19&#45;&gt;Node20 -->
<g id="edge19" class="edge">
<title>Node19&#45;&gt;Node20</title>
<path fill="none" stroke="#191970" d="M335.4541,-322.411C357.9112,-316.3372 386.7153,-308.5468 408.4797,-302.6603"/>
<polygon fill="#191970" stroke="#191970" points="409.498,-306.0107 418.2374,-300.0212 407.6704,-299.2535 409.498,-306.0107"/>
</g>
</g>
</svg>
