<?xml version="1.0" encoding="UTF-8" standalone="no"?>
<!DOCTYPE svg PUBLIC "-//W3C//DTD SVG 1.1//EN"
 "http://www.w3.org/Graphics/SVG/1.1/DTD/svg11.dtd">
<!-- Generated by graphviz version 2.40.1 (20161225.0304)
 -->
<!-- Title: SIGINTSignalHandler Pages: 1 -->
<!--zoomable 324 -->
<svg id="main" version="1.1" xmlns="http://www.w3.org/2000/svg" xmlns:xlink="http://www.w3.org/1999/xlink" xml:space="preserve" onload="init(evt)">
<style type="text/css"><![CDATA[
.edge:hover path { stroke: red; }
.edge:hover polygon { stroke: red; fill: red; }
]]></style>
<script type="text/javascript"><![CDATA[
var edges = document.getElementsByTagName('g');
if (edges && edges.length) {
  for (var i=0;i<edges.length;i++) {
    if (edges[i].id.substr(0,4)=='edge') {
      edges[i].setAttribute('class','edge');
    }
  }
}
]]></script>
        <defs>
                <circle id="rim" cx="0" cy="0" r="7"/>
                <circle id="rim2" cx="0" cy="0" r="3.5"/>
                <g id="zoomPlus">
                        <use xlink:href="#rim" fill="#404040">
                                <set attributeName="fill" to="#808080" begin="zoomplus.mouseover" end="zoomplus.mouseout"/>
                        </use>
                        <path d="M-4,0h8M0,-4v8" fill="none" stroke="white" stroke-width="1.5" pointer-events="none"/>
                </g>
                <g id="zoomMin">
                        <use xlink:href="#rim" fill="#404040">
                                <set attributeName="fill" to="#808080" begin="zoomminus.mouseover" end="zoomminus.mouseout"/>
                        </use>
                        <path d="M-4,0h8" fill="none" stroke="white" stroke-width="1.5" pointer-events="none"/>
                </g>
                <g id="dirArrow">
                        <path fill="none" stroke="white" stroke-width="1.5" d="M0,-3.0v7 M-2.5,-0.5L0,-3.0L2.5,-0.5"/>
                </g>
               <g id="resetDef">
                       <use xlink:href="#rim2" fill="#404040">
                               <set attributeName="fill" to="#808080" begin="reset.mouseover" end="reset.mouseout"/>
                       </use>
               </g>
        </defs>

<script type="text/javascript">
var viewWidth = 512;
var viewHeight = 324;
var sectionId = 'dynsection-5';
</script>
<script xlink:href="svgpan.js"/>
<svg id="graph" class="graph">
<g id="viewport">
<title>SIGINTSignalHandler</title>
<!-- Node31 -->
<g id="node1" class="node">
<title>Node31</title>
<polygon fill="#bfbfbf" stroke="#000000" points="0,-163 0,-182 118,-182 118,-163 0,-163"/>
<text text-anchor="middle" x="59" y="-170" font-family="Helvetica,sans-Serif" font-size="10.00" fill="#000000">SIGINTSignalHandler</text>
</g>
<!-- Node32 -->
<g id="node2" class="node">
<title>Node32</title>
<g id="a_node2"><a xlink:href="signals_8c.html#a6e96709c7c3ecbcde283f4a2a09e4baf" target="_top" xlink:title="block_all_signals">
<polygon fill="none" stroke="#000000" points="163,-296 163,-315 263,-315 263,-296 163,-296"/>
<text text-anchor="middle" x="213" y="-303" font-family="Helvetica,sans-Serif" font-size="10.00" fill="#000000">block_all_signals</text>
</a>
</g>
</g>
<!-- Node31&#45;&gt;Node32 -->
<g id="edge1" class="edge">
<title>Node31&#45;&gt;Node32</title>
<path fill="none" stroke="#191970" d="M64.3276,-182.0129C76.9935,-203.7727 111.0808,-257.5262 154,-286.5 156.9433,-288.4869 160.1081,-290.2773 163.3885,-291.8888"/>
<polygon fill="#191970" stroke="#191970" points="162.2828,-295.2236 172.8513,-295.9714 165.0559,-288.7963 162.2828,-295.2236"/>
</g>
<!-- Node33 -->
<g id="node3" class="node">
<title>Node33</title>
<g id="a_node3"><a xlink:href="err__exit_8c.html#aa223b0ecfe538d130ece562646a37d27" target="_top" xlink:title="Prints the error message of the last failed system call and terminates the calling process...">
<polygon fill="none" stroke="#000000" points="329,-211 329,-230 378,-230 378,-211 329,-211"/>
<text text-anchor="middle" x="353.5" y="-218" font-family="Helvetica,sans-Serif" font-size="10.00" fill="#000000">ErrExit</text>
</a>
</g>
</g>
<!-- Node31&#45;&gt;Node33 -->
<g id="edge2" class="edge">
<title>Node31&#45;&gt;Node33</title>
<path fill="none" stroke="#191970" d="M77.6974,-182.1337C96.4435,-191.2686 126.408,-204.4661 154,-210.5 210.7561,-222.9117 278.6652,-223.3612 318.824,-222.1896"/>
<polygon fill="#191970" stroke="#191970" points="319.0233,-225.6849 328.8974,-221.844 318.7833,-218.689 319.0233,-225.6849"/>
</g>
<!-- Node34 -->
<g id="node4" class="node">
<title>Node34</title>
<g id="a_node4"><a xlink:href="files_8c.html#a627e4b202ea71f3bd241ccf562449bd6" target="_top" xlink:title="find_sendme_files">
<polygon fill="none" stroke="#000000" points="161,-88 161,-107 265,-107 265,-88 161,-88"/>
<text text-anchor="middle" x="213" y="-95" font-family="Helvetica,sans-Serif" font-size="10.00" fill="#000000">find_sendme_files</text>
</a>
</g>
</g>
<!-- Node31&#45;&gt;Node34 -->
<g id="edge3" class="edge">
<title>Node31&#45;&gt;Node34</title>
<path fill="none" stroke="#191970" d="M78.8175,-162.8486C105.4998,-149.854 153.169,-126.6385 183.9178,-111.6634"/>
<polygon fill="#191970" stroke="#191970" points="185.8005,-114.6396 193.2585,-107.1144 182.7355,-108.3462 185.8005,-114.6396"/>
</g>
<!-- Node41 -->
<g id="node11" class="node">
<title>Node41</title>
<g id="a_node11"><a xlink:href="files_8c.html#a1cdd9b5b37408e31d80f31e474a71483" target="_top" xlink:title="Visualizza il contenuto della lista concatenata di filePath. ">
<polygon fill="none" stroke="#000000" points="183.5,-182 183.5,-201 242.5,-201 242.5,-182 183.5,-182"/>
<text text-anchor="middle" x="213" y="-189" font-family="Helvetica,sans-Serif" font-size="10.00" fill="#000000">print_list</text>
</a>
</g>
</g>
<!-- Node31&#45;&gt;Node41 -->
<g id="edge12" class="edge">
<title>Node31&#45;&gt;Node41</title>
<path fill="none" stroke="#191970" d="M118.1,-179.7916C136.5037,-182.0621 156.3516,-184.5109 173.1149,-186.5791"/>
<polygon fill="#191970" stroke="#191970" points="172.7599,-190.0618 183.1132,-187.8127 173.6171,-183.1144 172.7599,-190.0618"/>
</g>
<!-- Node42 -->
<g id="node12" class="node">
<title>Node42</title>
<g id="a_node12"><a xlink:href="files_8c.html#a3ba19f05c37434e7f20facff3445651a" target="_top" xlink:title="Conta il numero di file nella lista concatenata di filePath. ">
<polygon fill="none" stroke="#000000" points="178.5,-144 178.5,-163 247.5,-163 247.5,-144 178.5,-144"/>
<text text-anchor="middle" x="213" y="-151" font-family="Helvetica,sans-Serif" font-size="10.00" fill="#000000">count_files</text>
</a>
</g>
</g>
<!-- Node31&#45;&gt;Node42 -->
<g id="edge13" class="edge">
<title>Node31&#45;&gt;Node42</title>
<path fill="none" stroke="#191970" d="M118.1,-165.2084C134.7993,-163.1481 152.6877,-160.9411 168.3817,-159.0049"/>
<polygon fill="#191970" stroke="#191970" points="168.8473,-162.474 178.3434,-157.7758 167.9901,-155.5267 168.8473,-162.474"/>
</g>
<!-- Node43 -->
<g id="node13" class="node">
<title>Node43</title>
<g id="a_node13"><a xlink:href="client_8c.html#a54b47b58f228d7bc9827d2919687e25a" target="_top" xlink:title="Funzione eseguita da ogni Client i (figli di Client 0) per mandare i file al server. ">
<polygon fill="none" stroke="#000000" points="164.5,-258 164.5,-277 261.5,-277 261.5,-258 164.5,-258"/>
<text text-anchor="middle" x="213" y="-265" font-family="Helvetica,sans-Serif" font-size="10.00" fill="#000000">operazioni_figlio</text>
</a>
</g>
</g>
<!-- Node31&#45;&gt;Node43 -->
<g id="edge14" class="edge">
<title>Node31&#45;&gt;Node43</title>
<path fill="none" stroke="#191970" d="M69.7652,-182.0074C86.7429,-196.6518 121.19,-224.9715 154,-243.5 160.7522,-247.3131 168.2323,-250.8381 175.5348,-253.9466"/>
<polygon fill="#191970" stroke="#191970" points="174.7158,-257.3918 185.2977,-257.9153 177.352,-250.9071 174.7158,-257.3918"/>
</g>
<!-- Node45 -->
<g id="node15" class="node">
<title>Node45</title>
<g id="a_node15"><a xlink:href="files_8c.html#a786a7b6f9c01e8489d7196a79f5f3862" target="_top" xlink:title="Libera la memoria dello HEAP occupata dalla lista di filePath. ">
<polygon fill="none" stroke="#000000" points="185,-50 185,-69 241,-69 241,-50 185,-50"/>
<text text-anchor="middle" x="213" y="-57" font-family="Helvetica,sans-Serif" font-size="10.00" fill="#000000">free_list</text>
</a>
</g>
</g>
<!-- Node31&#45;&gt;Node45 -->
<g id="edge18" class="edge">
<title>Node31&#45;&gt;Node45</title>
<path fill="none" stroke="#191970" d="M66.2479,-162.7417C80.8085,-143.8007 115.528,-101.8671 154,-78.5 160.4497,-74.5826 167.7931,-71.3856 175.0565,-68.8084"/>
<polygon fill="#191970" stroke="#191970" points="176.3717,-72.0621 184.8201,-65.6687 174.2287,-65.3981 176.3717,-72.0621"/>
</g>
<!-- Node46 -->
<g id="node16" class="node">
<title>Node46</title>
<g id="a_node16"><a xlink:href="signals_8c.html#a6060ad9cb62b184abfe113560b29f3c4" target="_top" xlink:title="block_sig_no_SIGINT\l_SIGUSR1">
<polygon fill="none" stroke="#000000" points="154,-.5 154,-30.5 272,-30.5 272,-.5 154,-.5"/>
<text text-anchor="start" x="162" y="-18.5" font-family="Helvetica,sans-Serif" font-size="10.00" fill="#000000">block_sig_no_SIGINT</text>
<text text-anchor="middle" x="213" y="-7.5" font-family="Helvetica,sans-Serif" font-size="10.00" fill="#000000">_SIGUSR1</text>
</a>
</g>
</g>
<!-- Node31&#45;&gt;Node46 -->
<g id="edge19" class="edge">
<title>Node31&#45;&gt;Node46</title>
<path fill="none" stroke="#191970" d="M63.5956,-162.8227C75.3896,-138.9231 108.9922,-76.443 154,-40.5 156.0537,-38.8599 158.2308,-37.3097 160.4911,-35.8466"/>
<polygon fill="#191970" stroke="#191970" points="162.622,-38.658 169.5361,-30.6301 159.1248,-32.5942 162.622,-38.658"/>
</g>
<!-- Node34&#45;&gt;Node33 -->
<g id="edge11" class="edge">
<title>Node34&#45;&gt;Node33</title>
<path fill="none" stroke="#191970" d="M232.9159,-107.0236C245.174,-113.5615 260.6557,-123.1031 272,-134.5 293.4037,-156.0029 286.5055,-171.0879 308,-192.5 312.9448,-197.4258 318.9139,-201.8751 324.878,-205.7024"/>
<polygon fill="#191970" stroke="#191970" points="323.1126,-208.7247 333.4925,-210.8478 326.7021,-202.7151 323.1126,-208.7247"/>
</g>
<!-- Node34&#45;&gt;Node34 -->
<g id="edge10" class="edge">
<title>Node34&#45;&gt;Node34</title>
<path fill="none" stroke="#191970" d="M191.4219,-107.2571C180.9245,-116.0653 188.1172,-125.5 213,-125.5 228.9406,-125.5 237.6211,-121.628 239.0416,-116.5292"/>
<polygon fill="#191970" stroke="#191970" points="242.0692,-114.7493 234.5781,-107.2571 235.762,-117.7855 242.0692,-114.7493"/>
</g>
<!-- Node35 -->
<g id="node5" class="node">
<title>Node35</title>
<g id="a_node5"><a xlink:href="strings_8c.html#a21b51584b636c81767ed74b8a527ffd3" target="_top" xlink:title="Concatena la cartella directory al percorso path. ">
<polygon fill="none" stroke="#000000" points="313.5,-126 313.5,-145 393.5,-145 393.5,-126 313.5,-126"/>
<text text-anchor="middle" x="353.5" y="-133" font-family="Helvetica,sans-Serif" font-size="10.00" fill="#000000">append2Path</text>
</a>
</g>
</g>
<!-- Node34&#45;&gt;Node35 -->
<g id="edge4" class="edge">
<title>Node34&#45;&gt;Node35</title>
<path fill="none" stroke="#191970" d="M248.4541,-107.089C266.5913,-111.9944 288.8684,-118.0196 308.2334,-123.2571"/>
<polygon fill="#191970" stroke="#191970" points="307.4903,-126.6818 318.0573,-125.9141 309.3179,-119.9246 307.4903,-126.6818"/>
</g>
<!-- Node36 -->
<g id="node6" class="node">
<title>Node36</title>
<g id="a_node6"><a xlink:href="files_8c.html#a675d61c6bfe0d9ddd1be59233dfd7d5c" target="_top" xlink:title="Restituisce 1 se il percorso inizia con &quot;sendme_&quot;, 0 altrimenti. ">
<polygon fill="none" stroke="#000000" points="308,-50 308,-69 399,-69 399,-50 308,-50"/>
<text text-anchor="middle" x="353.5" y="-57" font-family="Helvetica,sans-Serif" font-size="10.00" fill="#000000">checkFileName</text>
</a>
</g>
</g>
<!-- Node34&#45;&gt;Node36 -->
<g id="edge5" class="edge">
<title>Node34&#45;&gt;Node36</title>
<path fill="none" stroke="#191970" d="M248.4541,-87.911C266.5913,-83.0056 288.8684,-76.9804 308.2334,-71.7429"/>
<polygon fill="#191970" stroke="#191970" points="309.3179,-75.0754 318.0573,-69.0859 307.4903,-68.3182 309.3179,-75.0754"/>
</g>
<!-- Node38 -->
<g id="node8" class="node">
<title>Node38</title>
<g id="a_node8"><a xlink:href="files_8c.html#a5ac4517096592013308a3252f3226f60" target="_top" xlink:title="Restituisce 1 se il percorso ha la dimensione &lt;= 4 KB, 0 altrimenti. ">
<polygon fill="none" stroke="#000000" points="312.5,-88 312.5,-107 394.5,-107 394.5,-88 312.5,-88"/>
<text text-anchor="middle" x="353.5" y="-95" font-family="Helvetica,sans-Serif" font-size="10.00" fill="#000000">checkFileSize</text>
</a>
</g>
</g>
<!-- Node34&#45;&gt;Node38 -->
<g id="edge7" class="edge">
<title>Node34&#45;&gt;Node38</title>
<path fill="none" stroke="#191970" d="M265.317,-97.5C277.265,-97.5 289.9547,-97.5 301.8735,-97.5"/>
<polygon fill="#191970" stroke="#191970" points="302.1112,-101.0001 312.1112,-97.5 302.1112,-94.0001 302.1112,-101.0001"/>
</g>
<!-- Node40 -->
<g id="node10" class="node">
<title>Node40</title>
<g id="a_node10"><a xlink:href="files_8c.html#a6a46f37bcdbf048db0fba5bb3e0e6342" target="_top" xlink:title="Aggiunge in fondo alla coda un nuovo filePath. ">
<polygon fill="none" stroke="#000000" points="327,-164 327,-183 380,-183 380,-164 327,-164"/>
<text text-anchor="middle" x="353.5" y="-171" font-family="Helvetica,sans-Serif" font-size="10.00" fill="#000000">append</text>
</a>
</g>
</g>
<!-- Node34&#45;&gt;Node40 -->
<g id="edge9" class="edge">
<title>Node34&#45;&gt;Node40</title>
<path fill="none" stroke="#191970" d="M228.3089,-107.0556C250.9531,-121.1257 292.379,-146.6044 308,-154.5 311.5931,-156.3161 315.4017,-158.1063 319.2254,-159.8186"/>
<polygon fill="#191970" stroke="#191970" points="318.0784,-163.1356 328.6467,-163.8854 320.8527,-156.7088 318.0784,-163.1356"/>
</g>
<!-- Node37 -->
<g id="node7" class="node">
<title>Node37</title>
<g id="a_node7"><a xlink:href="strings_8c.html#ab6b8529148710caedf063c1de6b0db16" target="_top" xlink:title="Restituisce vero se la stringa a inizia con la sotto stringa b. ">
<polygon fill="none" stroke="#000000" points="435.5,-50 435.5,-69 503.5,-69 503.5,-50 435.5,-50"/>
<text text-anchor="middle" x="469.5" y="-57" font-family="Helvetica,sans-Serif" font-size="10.00" fill="#000000">StartsWith</text>
</a>
</g>
</g>
<!-- Node36&#45;&gt;Node37 -->
<g id="edge6" class="edge">
<title>Node36&#45;&gt;Node37</title>
<path fill="none" stroke="#191970" d="M399.0133,-59.5C407.5871,-59.5 416.5431,-59.5 425.0828,-59.5"/>
<polygon fill="#191970" stroke="#191970" points="425.2392,-63.0001 435.2392,-59.5 425.2392,-56.0001 425.2392,-63.0001"/>
</g>
<!-- Node39 -->
<g id="node9" class="node">
<title>Node39</title>
<g id="a_node9"><a xlink:href="files_8c.html#a096f8e9259afb2839ebe6822364f9928" target="_top" xlink:title="Restituisce dimensione del file in byte. ">
<polygon fill="none" stroke="#000000" points="435,-192 435,-211 504,-211 504,-192 435,-192"/>
<text text-anchor="middle" x="469.5" y="-199" font-family="Helvetica,sans-Serif" font-size="10.00" fill="#000000">getFileSize</text>
</a>
</g>
</g>
<!-- Node38&#45;&gt;Node39 -->
<g id="edge8" class="edge">
<title>Node38&#45;&gt;Node39</title>
<path fill="none" stroke="#191970" d="M382.5482,-107.1553C388.2783,-109.7275 394.0452,-112.8342 399,-116.5 424.0514,-135.0343 445.7117,-164.2984 458.1882,-183.1956"/>
<polygon fill="#191970" stroke="#191970" points="455.3522,-185.2569 463.6976,-191.7842 461.2442,-181.4773 455.3522,-185.2569"/>
</g>
<!-- Node43&#45;&gt;Node33 -->
<g id="edge15" class="edge">
<title>Node43&#45;&gt;Node33</title>
<path fill="none" stroke="#191970" d="M241.4323,-257.9888C263.884,-250.4783 295.2955,-239.9706 319.1523,-231.99"/>
<polygon fill="#191970" stroke="#191970" points="320.4929,-235.2322 328.866,-228.7406 318.2722,-228.5938 320.4929,-235.2322"/>
</g>
<!-- Node43&#45;&gt;Node39 -->
<g id="edge16" class="edge">
<title>Node43&#45;&gt;Node39</title>
<path fill="none" stroke="#191970" d="M242.8075,-277.028C280.8082,-287.4422 347.7241,-299.8753 399,-277.5 425.8291,-265.7926 447.025,-238.2832 458.9158,-219.7772"/>
<polygon fill="#191970" stroke="#191970" points="462.0225,-221.4063 464.2663,-211.0518 456.0551,-217.747 462.0225,-221.4063"/>
</g>
<!-- Node44 -->
<g id="node14" class="node">
<title>Node44</title>
<g id="a_node14"><a xlink:href="client_8c.html#a55586f2b7e9b3620294cf78cda8abdad" target="_top" xlink:title="Divide in 4 parti il contenuto del file da inviare al server. ">
<polygon fill="none" stroke="#000000" points="331.5,-249 331.5,-268 375.5,-268 375.5,-249 331.5,-249"/>
<text text-anchor="middle" x="353.5" y="-256" font-family="Helvetica,sans-Serif" font-size="10.00" fill="#000000">dividi</text>
</a>
</g>
</g>
<!-- Node43&#45;&gt;Node44 -->
<g id="edge17" class="edge">
<title>Node43&#45;&gt;Node44</title>
<path fill="none" stroke="#191970" d="M261.7458,-264.3775C281.305,-263.1246 303.3256,-261.714 320.8908,-260.5888"/>
<polygon fill="#191970" stroke="#191970" points="321.4343,-264.0613 331.1901,-259.9291 320.9867,-257.0756 321.4343,-264.0613"/>
</g>
</g>
</svg>
        <g id="navigator" transform="translate(0 0)" fill="#404254">
                <rect fill="#f2f5e9" fill-opacity="0.5" stroke="#606060" stroke-width=".5" x="0" y="0" width="60" height="60"/>
                <use id="zoomplus" xlink:href="#zoomPlus" x="17" y="9" onmousedown="handleZoom(evt,'in')"/>
                <use id="zoomminus" xlink:href="#zoomMin" x="42" y="9" onmousedown="handleZoom(evt,'out')"/>
                <use id="reset" xlink:href="#resetDef" x="30" y="36" onmousedown="handleReset()"/>
                <g id="arrowUp" xlink:href="#dirArrow" transform="translate(30 24)" onmousedown="handlePan(0,-1)">
                  <use xlink:href="#rim" fill="#404040">
                        <set attributeName="fill" to="#808080" begin="arrowUp.mouseover" end="arrowUp.mouseout"/>
                  </use>
                  <path fill="none" stroke="white" stroke-width="1.5" d="M0,-3.0v7 M-2.5,-0.5L0,-3.0L2.5,-0.5"/>
                </g>
                <g id="arrowRight" xlink:href="#dirArrow" transform="rotate(90) translate(36 -43)" onmousedown="handlePan(1,0)">
                  <use xlink:href="#rim" fill="#404040">
                        <set attributeName="fill" to="#808080" begin="arrowRight.mouseover" end="arrowRight.mouseout"/>
                  </use>
                  <path fill="none" stroke="white" stroke-width="1.5" d="M0,-3.0v7 M-2.5,-0.5L0,-3.0L2.5,-0.5"/>
                </g>
                <g id="arrowDown" xlink:href="#dirArrow" transform="rotate(180) translate(-30 -48)" onmousedown="handlePan(0,1)">
                  <use xlink:href="#rim" fill="#404040">
                        <set attributeName="fill" to="#808080" begin="arrowDown.mouseover" end="arrowDown.mouseout"/>
                  </use>
                  <path fill="none" stroke="white" stroke-width="1.5" d="M0,-3.0v7 M-2.5,-0.5L0,-3.0L2.5,-0.5"/>
                </g>
                <g id="arrowLeft" xlink:href="#dirArrow" transform="rotate(270) translate(-36 17)" onmousedown="handlePan(-1,0)">
                  <use xlink:href="#rim" fill="#404040">
                        <set attributeName="fill" to="#808080" begin="arrowLeft.mouseover" end="arrowLeft.mouseout"/>
                  </use>
                  <path fill="none" stroke="white" stroke-width="1.5" d="M0,-3.0v7 M-2.5,-0.5L0,-3.0L2.5,-0.5"/>
                </g>
        </g>
        <svg viewBox="0 0 15 15" width="100%" height="30px" preserveAspectRatio="xMaxYMin meet">
         <g id="arrow_out" transform="scale(0.3 0.3)">
          <a xlink:href="client_8c_a48d605ff689f470746c858648f0a98c2_cgraph_org.svg" target="_base">
           <rect id="button" ry="5" rx="5" y="6" x="6" height="38" width="38"
                fill="#f2f5e9" fill-opacity="0.5" stroke="#606060" stroke-width="1.0"/>
           <path id="arrow"
             d="M 11.500037,31.436501 C 11.940474,20.09759 22.043105,11.32322 32.158766,21.979434 L 37.068811,17.246167 C 37.068811,17.246167 37.088388,32 37.088388,32 L 22.160133,31.978069 C 22.160133,31.978069 26.997745,27.140456 26.997745,27.140456 C 18.528582,18.264221 13.291696,25.230495 11.500037,31.436501 z"
             style="fill:#404040;"/>
          </a>
         </g>
        </svg>
</svg>
