<?xml version="1.0" encoding="UTF-8" standalone="no"?>
<!DOCTYPE svg PUBLIC "-//W3C//DTD SVG 1.1//EN"
 "http://www.w3.org/Graphics/SVG/1.1/DTD/svg11.dtd">
<!-- Generated by graphviz version 2.40.1 (20161225.0304)
 -->
<!-- Title: operazioni_figlio Pages: 1 -->
<svg width="577pt" height="355pt"
 viewBox="0.00 0.00 577.00 355.31" xmlns="http://www.w3.org/2000/svg" xmlns:xlink="http://www.w3.org/1999/xlink">
<g id="graph0" class="graph" transform="scale(1 1) rotate(0) translate(4 351.3125)">
<title>operazioni_figlio</title>
<!-- Node49 -->
<g id="node1" class="node">
<title>Node49</title>
<polygon fill="#bfbfbf" stroke="#000000" points="0,-176.5 0,-195.5 97,-195.5 97,-176.5 0,-176.5"/>
<text text-anchor="middle" x="48.5" y="-183.5" font-family="Helvetica,sans-Serif" font-size="10.00" fill="#000000">operazioni_figlio</text>
</g>
<!-- Node50 -->
<g id="node2" class="node">
<title>Node50</title>
<g id="a_node2"><a xlink:href="err__exit_8c.html#aa223b0ecfe538d130ece562646a37d27" target="_top" xlink:title="Prints the error message of the last failed system call and terminates the calling process...">
<polygon fill="none" stroke="#000000" points="520,-133.5 520,-152.5 569,-152.5 569,-133.5 520,-133.5"/>
<text text-anchor="middle" x="544.5" y="-140.5" font-family="Helvetica,sans-Serif" font-size="10.00" fill="#000000">ErrExit</text>
</a>
</g>
</g>
<!-- Node49&#45;&gt;Node50 -->
<g id="edge1" class="edge">
<title>Node49&#45;&gt;Node50</title>
<path fill="none" stroke="#191970" d="M53.6519,-195.5946C65.1054,-215.9947 94.7186,-263.8632 133,-289 225.4766,-349.7231 270.7183,-360.0155 378,-333 429.8711,-319.9379 447.4542,-315.0594 484,-276 515.2125,-242.6407 532.451,-190.3957 539.9296,-162.3463"/>
<polygon fill="#191970" stroke="#191970" points="543.3469,-163.1086 542.4017,-152.556 536.5599,-161.3948 543.3469,-163.1086"/>
</g>
<!-- Node51 -->
<g id="node3" class="node">
<title>Node51</title>
<g id="a_node3"><a xlink:href="files_8c.html#a096f8e9259afb2839ebe6822364f9928" target="_top" xlink:title="Restituisce la dimensione in byte del file con percorso filePath. ">
<polygon fill="none" stroke="#000000" points="157.5,-119.5 157.5,-138.5 226.5,-138.5 226.5,-119.5 157.5,-119.5"/>
<text text-anchor="middle" x="192" y="-126.5" font-family="Helvetica,sans-Serif" font-size="10.00" fill="#000000">getFileSize</text>
</a>
</g>
</g>
<!-- Node49&#45;&gt;Node51 -->
<g id="edge2" class="edge">
<title>Node49&#45;&gt;Node51</title>
<path fill="none" stroke="#191970" d="M68.0433,-176.4653C85.0041,-168.3714 110.3293,-156.717 133,-148 138.5981,-145.8475 144.5551,-143.7317 150.4495,-141.7386"/>
<polygon fill="#191970" stroke="#191970" points="151.8325,-144.9681 160.2357,-138.5155 149.6427,-138.3195 151.8325,-144.9681"/>
</g>
<!-- Node52 -->
<g id="node4" class="node">
<title>Node52</title>
<g id="a_node4"><a xlink:href="client_8c.html#a55586f2b7e9b3620294cf78cda8abdad" target="_top" xlink:title="Divide in 4 parti il contenuto del file da inviare al server. ">
<polygon fill="none" stroke="#000000" points="170,-81.5 170,-100.5 214,-100.5 214,-81.5 170,-81.5"/>
<text text-anchor="middle" x="192" y="-88.5" font-family="Helvetica,sans-Serif" font-size="10.00" fill="#000000">dividi</text>
</a>
</g>
</g>
<!-- Node49&#45;&gt;Node52 -->
<g id="edge3" class="edge">
<title>Node49&#45;&gt;Node52</title>
<path fill="none" stroke="#191970" d="M56.6366,-176.4224C70.6715,-160.47 101.0174,-128.3978 133,-110 141.2683,-105.2437 150.8843,-101.5033 159.9234,-98.6454"/>
<polygon fill="#191970" stroke="#191970" points="161.1517,-101.9335 169.7812,-95.7867 159.2021,-95.2105 161.1517,-101.9335"/>
</g>
<!-- Node53 -->
<g id="node5" class="node">
<title>Node53</title>
<g id="a_node5"><a xlink:href="semaphore_8c.html#a2581efba6a0833e3f289de94c779cc21" target="_top" xlink:title="Esegue la wait sul semaforo sem_num: decrementa il valore di 1 ed eventualmente mette in attesa il pr...">
<polygon fill="none" stroke="#000000" points="303,-304.5 303,-323.5 362,-323.5 362,-304.5 303,-304.5"/>
<text text-anchor="middle" x="332.5" y="-311.5" font-family="Helvetica,sans-Serif" font-size="10.00" fill="#000000">semWait</text>
</a>
</g>
</g>
<!-- Node49&#45;&gt;Node53 -->
<g id="edge4" class="edge">
<title>Node49&#45;&gt;Node53</title>
<path fill="none" stroke="#191970" d="M57.9993,-195.7566C72.7617,-210.3956 102.6791,-238.0259 133,-254 184.9181,-281.3522 251.1628,-298.1347 292.7191,-306.7583"/>
<polygon fill="#191970" stroke="#191970" points="292.2341,-310.2309 302.7286,-308.7764 293.6177,-303.3689 292.2341,-310.2309"/>
</g>
<!-- Node55 -->
<g id="node7" class="node">
<title>Node55</title>
<g id="a_node7"><a xlink:href="semaphore_8c.html#a40485eedbf6d56f7fd27bce5a537efbe" target="_top" xlink:title="Attende che il semaforo sem_num raggiunga il valore zero. ">
<polygon fill="none" stroke="#000000" points="151,-195.5 151,-214.5 233,-214.5 233,-195.5 151,-195.5"/>
<text text-anchor="middle" x="192" y="-202.5" font-family="Helvetica,sans-Serif" font-size="10.00" fill="#000000">semWaitZero</text>
</a>
</g>
</g>
<!-- Node49&#45;&gt;Node55 -->
<g id="edge7" class="edge">
<title>Node49&#45;&gt;Node55</title>
<path fill="none" stroke="#191970" d="M97.0826,-192.4325C111.0843,-194.2864 126.4046,-196.3149 140.5727,-198.1908"/>
<polygon fill="#191970" stroke="#191970" points="140.2774,-201.6822 150.6503,-199.5251 141.1962,-194.7427 140.2774,-201.6822"/>
</g>
<!-- Node56 -->
<g id="node8" class="node">
<title>Node56</title>
<g id="a_node8"><a xlink:href="semaphore_8c.html#a7bad0eb0b0c6ac701b59c36b8b7837bf" target="_top" xlink:title="Esegue la signal sul semaforo sem_num: incrementa il valore di 1. ">
<polygon fill="none" stroke="#000000" points="298.5,-266.5 298.5,-285.5 366.5,-285.5 366.5,-266.5 298.5,-266.5"/>
<text text-anchor="middle" x="332.5" y="-273.5" font-family="Helvetica,sans-Serif" font-size="10.00" fill="#000000">semSignal</text>
</a>
</g>
</g>
<!-- Node49&#45;&gt;Node56 -->
<g id="edge25" class="edge">
<title>Node49&#45;&gt;Node56</title>
<path fill="none" stroke="#191970" d="M67.257,-195.5322C84.1392,-203.8449 109.7885,-215.8207 133,-224 185.4384,-242.4782 247.6921,-257.6775 288.5427,-266.7737"/>
<polygon fill="#191970" stroke="#191970" points="287.9298,-270.2225 298.4483,-268.953 289.4339,-263.386 287.9298,-270.2225"/>
</g>
<!-- Node61 -->
<g id="node13" class="node">
<title>Node61</title>
<g id="a_node13"><a xlink:href="defines_8c.html#ac281b05b7a90ba292f5748cbfe3c389d" target="_top" xlink:title="Restituisce vero se l&#39;array contiene tutti true. ">
<polygon fill="none" stroke="#000000" points="133,-43.5 133,-62.5 251,-62.5 251,-43.5 133,-43.5"/>
<text text-anchor="middle" x="192" y="-50.5" font-family="Helvetica,sans-Serif" font-size="10.00" fill="#000000">arrayContainsAllTrue</text>
</a>
</g>
</g>
<!-- Node49&#45;&gt;Node61 -->
<g id="edge21" class="edge">
<title>Node49&#45;&gt;Node61</title>
<path fill="none" stroke="#191970" d="M52.9533,-176.4716C63.6189,-154.6792 92.7629,-100.8619 133,-72 135.667,-70.087 138.5359,-68.3601 141.5209,-66.8022"/>
<polygon fill="#191970" stroke="#191970" points="143.0789,-69.9387 150.7378,-62.618 140.1853,-63.5648 143.0789,-69.9387"/>
</g>
<!-- Node62 -->
<g id="node14" class="node">
<title>Node62</title>
<g id="a_node14"><a xlink:href="semaphore_8c.html#a0d970df04f11907f1acb332a47a39104" target="_top" xlink:title="semWaitNoBlocc">
<polygon fill="none" stroke="#000000" points="142.5,-157.5 142.5,-176.5 241.5,-176.5 241.5,-157.5 142.5,-157.5"/>
<text text-anchor="middle" x="192" y="-164.5" font-family="Helvetica,sans-Serif" font-size="10.00" fill="#000000">semWaitNoBlocc</text>
</a>
</g>
</g>
<!-- Node49&#45;&gt;Node62 -->
<g id="edge22" class="edge">
<title>Node49&#45;&gt;Node62</title>
<path fill="none" stroke="#191970" d="M97.0826,-179.5675C108.4024,-178.0687 120.584,-176.4558 132.3219,-174.9016"/>
<polygon fill="#191970" stroke="#191970" points="133.0358,-178.3377 142.4899,-173.5553 132.117,-171.3983 133.0358,-178.3377"/>
</g>
<!-- Node54 -->
<g id="node6" class="node">
<title>Node54</title>
<g id="a_node6"><a xlink:href="semaphore_8c.html#a77c6570406059144bb6a8ecf04f481da" target="_top" xlink:title="Funzione di supporto per manipolare i valori di un set di semafori. ">
<polygon fill="none" stroke="#000000" points="423.5,-247.5 423.5,-266.5 474.5,-266.5 474.5,-247.5 423.5,-247.5"/>
<text text-anchor="middle" x="449" y="-254.5" font-family="Helvetica,sans-Serif" font-size="10.00" fill="#000000">semOp</text>
</a>
</g>
</g>
<!-- Node53&#45;&gt;Node54 -->
<g id="edge5" class="edge">
<title>Node53&#45;&gt;Node54</title>
<path fill="none" stroke="#191970" d="M356.7758,-304.3681C363.6928,-301.4877 371.1957,-298.2325 378,-295 393.2427,-287.7588 409.8956,-278.8983 423.2403,-271.5552"/>
<polygon fill="#191970" stroke="#191970" points="425.2619,-274.4361 432.3051,-266.5214 421.8634,-268.3164 425.2619,-274.4361"/>
</g>
<!-- Node54&#45;&gt;Node50 -->
<g id="edge6" class="edge">
<title>Node54&#45;&gt;Node50</title>
<path fill="none" stroke="#191970" d="M458.1142,-247.4899C465.2949,-239.9062 475.4809,-228.945 484,-219 500.6922,-199.514 518.9121,-176.3465 530.9484,-160.7556"/>
<polygon fill="#191970" stroke="#191970" points="533.9459,-162.5989 537.2624,-152.5365 528.3948,-158.3345 533.9459,-162.5989"/>
</g>
<!-- Node55&#45;&gt;Node50 -->
<g id="edge14" class="edge">
<title>Node55&#45;&gt;Node50</title>
<path fill="none" stroke="#191970" d="M232.1413,-195.4604C238.7437,-192.9579 245.2874,-189.8469 251,-186 271.6739,-172.0779 264.4165,-153.5461 287,-143 360.3271,-108.7574 458.7117,-122.9436 510.0481,-134.1895"/>
<polygon fill="#191970" stroke="#191970" points="509.4365,-137.6398 519.9649,-136.4551 510.9956,-130.8157 509.4365,-137.6398"/>
</g>
<!-- Node55&#45;&gt;Node53 -->
<g id="edge9" class="edge">
<title>Node55&#45;&gt;Node53</title>
<path fill="none" stroke="#191970" d="M199.9889,-214.601C215.2828,-232.4776 250.4406,-271.2052 287,-295 289.7981,-296.8211 292.7996,-298.5284 295.8777,-300.1141"/>
<polygon fill="#191970" stroke="#191970" points="294.6752,-303.4161 305.2145,-304.4994 297.6511,-297.0802 294.6752,-303.4161"/>
</g>
<!-- Node55&#45;&gt;Node54 -->
<g id="edge8" class="edge">
<title>Node55&#45;&gt;Node54</title>
<path fill="none" stroke="#191970" d="M233.0066,-213.2971C282.8084,-223.3737 366.0007,-240.2064 413.2852,-249.7737"/>
<polygon fill="#191970" stroke="#191970" points="412.8719,-253.2609 423.3674,-251.8136 414.2602,-246.3999 412.8719,-253.2609"/>
</g>
<!-- Node55&#45;&gt;Node56 -->
<g id="edge10" class="edge">
<title>Node55&#45;&gt;Node56</title>
<path fill="none" stroke="#191970" d="M210.9485,-214.5754C234.9357,-226.697 276.4691,-247.6855 304.2153,-261.7066"/>
<polygon fill="#191970" stroke="#191970" points="302.8993,-264.9631 313.403,-266.3496 306.0565,-258.7155 302.8993,-264.9631"/>
</g>
<!-- Node57 -->
<g id="node9" class="node">
<title>Node57</title>
<g id="a_node9"><a xlink:href="semaphore_8c.html#aad78dc4ccefb184a74dd9ef808df8db6" target="_top" xlink:title="Inizializza il valore del semaforo sem_num al valore val. ">
<polygon fill="none" stroke="#000000" points="415,-76.5 415,-95.5 483,-95.5 483,-76.5 415,-76.5"/>
<text text-anchor="middle" x="449" y="-83.5" font-family="Helvetica,sans-Serif" font-size="10.00" fill="#000000">semSetVal</text>
</a>
</g>
</g>
<!-- Node55&#45;&gt;Node57 -->
<g id="edge12" class="edge">
<title>Node55&#45;&gt;Node57</title>
<path fill="none" stroke="#191970" d="M233.0437,-196.632C239.5458,-193.9992 245.8222,-190.5412 251,-186 279.0996,-161.3555 256.971,-132.2531 287,-110 320.7853,-84.9633 369.6048,-80.8451 404.8101,-81.8314"/>
<polygon fill="#191970" stroke="#191970" points="404.6702,-85.3285 414.8102,-82.2575 404.9683,-78.3349 404.6702,-85.3285"/>
</g>
<!-- Node58 -->
<g id="node10" class="node">
<title>Node58</title>
<g id="a_node10"><a xlink:href="semaphore_8c.html#a8df9b8ea63eaf93d09f437b356a4a1eb" target="_top" xlink:title="Inizializza i valori del set di semafori semid ai valori in values. ">
<polygon fill="none" stroke="#000000" points="416,-38.5 416,-57.5 482,-57.5 482,-38.5 416,-38.5"/>
<text text-anchor="middle" x="449" y="-45.5" font-family="Helvetica,sans-Serif" font-size="10.00" fill="#000000">semSetAll</text>
</a>
</g>
</g>
<!-- Node55&#45;&gt;Node58 -->
<g id="edge15" class="edge">
<title>Node55&#45;&gt;Node58</title>
<path fill="none" stroke="#191970" d="M233.2189,-197.2701C239.7784,-194.5675 246.0288,-190.9207 251,-186 286.9592,-150.4059 248.8308,-111.2131 287,-78 319.5029,-49.7175 369.8434,-44.3315 405.777,-44.6891"/>
<polygon fill="#191970" stroke="#191970" points="405.881,-48.1927 415.9662,-44.9464 406.0578,-41.195 405.881,-48.1927"/>
</g>
<!-- Node59 -->
<g id="node11" class="node">
<title>Node59</title>
<g id="a_node11"><a xlink:href="semaphore_8c.html#a530566146b6e3cc8415d8ae4259fd68f" target="_top" xlink:title="Cancella il set di semafori svegliando eventuali processi in attesa. ">
<polygon fill="none" stroke="#000000" points="414,-190.5 414,-209.5 484,-209.5 484,-190.5 414,-190.5"/>
<text text-anchor="middle" x="449" y="-197.5" font-family="Helvetica,sans-Serif" font-size="10.00" fill="#000000">semDelete</text>
</a>
</g>
</g>
<!-- Node55&#45;&gt;Node59 -->
<g id="edge17" class="edge">
<title>Node55&#45;&gt;Node59</title>
<path fill="none" stroke="#191970" d="M233.0066,-204.2022C279.6123,-203.2955 355.4604,-201.8198 403.7563,-200.8802"/>
<polygon fill="#191970" stroke="#191970" points="403.99,-204.3764 413.92,-200.6825 403.8538,-197.3778 403.99,-204.3764"/>
</g>
<!-- Node60 -->
<g id="node12" class="node">
<title>Node60</title>
<g id="a_node12"><a xlink:href="semaphore_8c.html#a34a010b0a39236a7261d7d5103426491" target="_top" xlink:title="Imposta i permessi su un set di semafori. ">
<polygon fill="none" stroke="#000000" points="293,-152.5 293,-171.5 372,-171.5 372,-152.5 293,-152.5"/>
<text text-anchor="middle" x="332.5" y="-159.5" font-family="Helvetica,sans-Serif" font-size="10.00" fill="#000000">semSetPerm</text>
</a>
</g>
</g>
<!-- Node55&#45;&gt;Node60 -->
<g id="edge19" class="edge">
<title>Node55&#45;&gt;Node60</title>
<path fill="none" stroke="#191970" d="M223.1815,-195.4569C243.3724,-189.2775 269.8768,-181.1658 291.7311,-174.4773"/>
<polygon fill="#191970" stroke="#191970" points="292.8678,-177.7898 301.4057,-171.5164 290.8192,-171.0962 292.8678,-177.7898"/>
</g>
<!-- Node56&#45;&gt;Node54 -->
<g id="edge11" class="edge">
<title>Node56&#45;&gt;Node54</title>
<path fill="none" stroke="#191970" d="M366.5098,-270.4533C381.2433,-268.0504 398.495,-265.2369 413.4022,-262.8056"/>
<polygon fill="#191970" stroke="#191970" points="413.982,-266.2574 423.2882,-261.1933 412.8552,-259.3487 413.982,-266.2574"/>
</g>
<!-- Node57&#45;&gt;Node50 -->
<g id="edge13" class="edge">
<title>Node57&#45;&gt;Node50</title>
<path fill="none" stroke="#191970" d="M465.2003,-95.6693C480.1074,-104.5667 502.4401,-117.8962 519.6107,-128.1446"/>
<polygon fill="#191970" stroke="#191970" points="518.1584,-131.3538 528.539,-133.4735 521.746,-125.343 518.1584,-131.3538"/>
</g>
<!-- Node58&#45;&gt;Node50 -->
<g id="edge16" class="edge">
<title>Node58&#45;&gt;Node50</title>
<path fill="none" stroke="#191970" d="M469.873,-57.5532C474.7549,-60.2572 479.7621,-63.4456 484,-67 503.8749,-83.6694 521.7072,-107.7436 532.7767,-124.3069"/>
<polygon fill="#191970" stroke="#191970" points="530.0932,-126.6007 538.4771,-133.0785 535.9627,-122.7863 530.0932,-126.6007"/>
</g>
<!-- Node59&#45;&gt;Node50 -->
<g id="edge18" class="edge">
<title>Node59&#45;&gt;Node50</title>
<path fill="none" stroke="#191970" d="M465.2003,-190.3307C480.1074,-181.4333 502.4401,-168.1038 519.6107,-157.8554"/>
<polygon fill="#191970" stroke="#191970" points="521.746,-160.657 528.539,-152.5265 518.1584,-154.6462 521.746,-160.657"/>
</g>
<!-- Node60&#45;&gt;Node50 -->
<g id="edge20" class="edge">
<title>Node60&#45;&gt;Node50</title>
<path fill="none" stroke="#191970" d="M372.3756,-158.4262C411.9542,-154.8791 472.011,-149.4967 509.7108,-146.1179"/>
<polygon fill="#191970" stroke="#191970" points="510.0679,-149.6 519.7156,-145.2212 509.443,-142.628 510.0679,-149.6"/>
</g>
<!-- Node63 -->
<g id="node15" class="node">
<title>Node63</title>
<g id="a_node15"><a xlink:href="semaphore_8c.html#a78e24598fb0a5416db19120d6748627e" target="_top" xlink:title="semOpNoBlocc">
<polygon fill="none" stroke="#000000" points="287,-.5 287,-19.5 378,-19.5 378,-.5 287,-.5"/>
<text text-anchor="middle" x="332.5" y="-7.5" font-family="Helvetica,sans-Serif" font-size="10.00" fill="#000000">semOpNoBlocc</text>
</a>
</g>
</g>
<!-- Node62&#45;&gt;Node63 -->
<g id="edge23" class="edge">
<title>Node62&#45;&gt;Node63</title>
<path fill="none" stroke="#191970" d="M237.4638,-157.4484C242.4608,-154.9869 247.1303,-151.8917 251,-148 288.464,-110.323 252.9481,-74.787 287,-34 289.9119,-30.5122 293.4634,-27.4628 297.2853,-24.8153"/>
<polygon fill="#191970" stroke="#191970" points="299.1489,-27.779 305.9406,-19.6473 295.5603,-21.7688 299.1489,-27.779"/>
</g>
<!-- Node63&#45;&gt;Node50 -->
<g id="edge24" class="edge">
<title>Node63&#45;&gt;Node50</title>
<path fill="none" stroke="#191970" d="M378.1234,-5.21C410.3986,-4.1694 453.2328,-7.7778 484,-29 516.5998,-51.4863 533.0238,-97.2652 540.0684,-123.4538"/>
<polygon fill="#191970" stroke="#191970" points="536.7207,-124.495 542.5331,-133.3531 543.5133,-122.8037 536.7207,-124.495"/>
</g>
</g>
</svg>
