<?xml version="1.0" encoding="UTF-8" standalone="no"?>
<!DOCTYPE svg PUBLIC "-//W3C//DTD SVG 1.1//EN"
 "http://www.w3.org/Graphics/SVG/1.1/DTD/svg11.dtd">
<!-- Generated by graphviz version 2.40.1 (20161225.0304)
 -->
<!-- Title: /mnt/c/Users/stefa/Desktop/system_call/src/debug.h Pages: 1 -->
<svg width="834pt" height="128pt"
 viewBox="0.00 0.00 834.00 128.00" xmlns="http://www.w3.org/2000/svg" xmlns:xlink="http://www.w3.org/1999/xlink">
<g id="graph0" class="graph" transform="scale(1 1) rotate(0) translate(4 124)">
<title>/mnt/c/Users/stefa/Desktop/system_call/src/debug.h</title>
<!-- Node3 -->
<g id="node1" class="node">
<title>Node3</title>
<polygon fill="#bfbfbf" stroke="#000000" points="350,-78.5 350,-119.5 472,-119.5 472,-78.5 350,-78.5"/>
<text text-anchor="start" x="358" y="-107.5" font-family="Helvetica,sans-Serif" font-size="10.00" fill="#000000">/mnt/c/Users/stefa</text>
<text text-anchor="start" x="358" y="-96.5" font-family="Helvetica,sans-Serif" font-size="10.00" fill="#000000">/Desktop/system_call</text>
<text text-anchor="middle" x="411" y="-85.5" font-family="Helvetica,sans-Serif" font-size="10.00" fill="#000000">/src/debug.h</text>
</g>
<!-- Node4 -->
<g id="node2" class="node">
<title>Node4</title>
<g id="a_node2"><a xlink:href="client_8c.html" target="_top" xlink:title="Contiene l&#39;implementazione del client. ">
<polygon fill="none" stroke="#000000" points="0,-.5 0,-41.5 122,-41.5 122,-.5 0,-.5"/>
<text text-anchor="start" x="8" y="-29.5" font-family="Helvetica,sans-Serif" font-size="10.00" fill="#000000">/mnt/c/Users/stefa</text>
<text text-anchor="start" x="8" y="-18.5" font-family="Helvetica,sans-Serif" font-size="10.00" fill="#000000">/Desktop/system_call</text>
<text text-anchor="middle" x="61" y="-7.5" font-family="Helvetica,sans-Serif" font-size="10.00" fill="#000000">/src/client.c</text>
</a>
</g>
</g>
<!-- Node3&#45;&gt;Node4 -->
<g id="edge1" class="edge">
<title>Node3&#45;&gt;Node4</title>
<path fill="none" stroke="#191970" d="M339.777,-86.346C282.9464,-75.8063 201.4645,-59.7033 131,-42 128.1697,-41.2889 125.283,-40.5361 122.3728,-39.7548"/>
<polygon fill="#191970" stroke="#191970" points="339.2703,-89.8115 349.7392,-88.1834 340.54,-82.9276 339.2703,-89.8115"/>
</g>
<!-- Node5 -->
<g id="node3" class="node">
<title>Node5</title>
<g id="a_node3"><a xlink:href="debug_8c.html" target="_top" xlink:title="Contiene l&#39;implementazione delle funzioni per il debugging. ">
<polygon fill="none" stroke="#000000" points="140,-.5 140,-41.5 262,-41.5 262,-.5 140,-.5"/>
<text text-anchor="start" x="148" y="-29.5" font-family="Helvetica,sans-Serif" font-size="10.00" fill="#000000">/mnt/c/Users/stefa</text>
<text text-anchor="start" x="148" y="-18.5" font-family="Helvetica,sans-Serif" font-size="10.00" fill="#000000">/Desktop/system_call</text>
<text text-anchor="middle" x="201" y="-7.5" font-family="Helvetica,sans-Serif" font-size="10.00" fill="#000000">/src/debug.c</text>
</a>
</g>
</g>
<!-- Node3&#45;&gt;Node5 -->
<g id="edge2" class="edge">
<title>Node3&#45;&gt;Node5</title>
<path fill="none" stroke="#191970" d="M346.0096,-74.8607C317.3012,-64.1976 283.9006,-51.7917 256.396,-41.5757"/>
<polygon fill="#191970" stroke="#191970" points="344.9573,-78.2035 355.5503,-78.4044 347.3947,-71.6415 344.9573,-78.2035"/>
</g>
<!-- Node6 -->
<g id="node4" class="node">
<title>Node6</title>
<g id="a_node4"><a xlink:href="fifo_8c.html" target="_top" xlink:title="Contiene l&#39;implementazione delle funzioni specifiche per la gestione delle FIFO. ">
<polygon fill="none" stroke="#000000" points="280,-.5 280,-41.5 402,-41.5 402,-.5 280,-.5"/>
<text text-anchor="start" x="288" y="-29.5" font-family="Helvetica,sans-Serif" font-size="10.00" fill="#000000">/mnt/c/Users/stefa</text>
<text text-anchor="start" x="288" y="-18.5" font-family="Helvetica,sans-Serif" font-size="10.00" fill="#000000">/Desktop/system_call</text>
<text text-anchor="middle" x="341" y="-7.5" font-family="Helvetica,sans-Serif" font-size="10.00" fill="#000000">/src/fifo.c</text>
</a>
</g>
</g>
<!-- Node3&#45;&gt;Node6 -->
<g id="edge3" class="edge">
<title>Node3&#45;&gt;Node6</title>
<path fill="none" stroke="#191970" d="M385.3118,-70.376C376.781,-60.8703 367.4544,-50.4778 359.5678,-41.6898"/>
<polygon fill="#191970" stroke="#191970" points="382.9573,-72.9927 392.2413,-78.0974 388.167,-68.3173 382.9573,-72.9927"/>
</g>
<!-- Node7 -->
<g id="node5" class="node">
<title>Node7</title>
<g id="a_node5"><a xlink:href="files_8c.html" target="_top" xlink:title="Contiene le funzioni specifiche per la gestione dei FILE. ">
<polygon fill="none" stroke="#000000" points="420,-.5 420,-41.5 542,-41.5 542,-.5 420,-.5"/>
<text text-anchor="start" x="428" y="-29.5" font-family="Helvetica,sans-Serif" font-size="10.00" fill="#000000">/mnt/c/Users/stefa</text>
<text text-anchor="start" x="428" y="-18.5" font-family="Helvetica,sans-Serif" font-size="10.00" fill="#000000">/Desktop/system_call</text>
<text text-anchor="middle" x="481" y="-7.5" font-family="Helvetica,sans-Serif" font-size="10.00" fill="#000000">/src/files.c</text>
</a>
</g>
</g>
<!-- Node3&#45;&gt;Node7 -->
<g id="edge4" class="edge">
<title>Node3&#45;&gt;Node7</title>
<path fill="none" stroke="#191970" d="M436.6882,-70.376C445.219,-60.8703 454.5456,-50.4778 462.4322,-41.6898"/>
<polygon fill="#191970" stroke="#191970" points="433.833,-68.3173 429.7587,-78.0974 439.0427,-72.9927 433.833,-68.3173"/>
</g>
<!-- Node8 -->
<g id="node6" class="node">
<title>Node8</title>
<g id="a_node6"><a xlink:href="message__queue_8c.html" target="_top" xlink:title="Contiene l&#39;implementazione delle funzioni specifiche per la gestione delle CODE DEI MESSAGGI...">
<polygon fill="none" stroke="#000000" points="560.5,-.5 560.5,-41.5 685.5,-41.5 685.5,-.5 560.5,-.5"/>
<text text-anchor="start" x="568.5" y="-29.5" font-family="Helvetica,sans-Serif" font-size="10.00" fill="#000000">/mnt/c/Users/stefa</text>
<text text-anchor="start" x="568.5" y="-18.5" font-family="Helvetica,sans-Serif" font-size="10.00" fill="#000000">/Desktop/system_call</text>
<text text-anchor="middle" x="623" y="-7.5" font-family="Helvetica,sans-Serif" font-size="10.00" fill="#000000">/src/message_queue.c</text>
</a>
</g>
</g>
<!-- Node3&#45;&gt;Node8 -->
<g id="edge5" class="edge">
<title>Node3&#45;&gt;Node8</title>
<path fill="none" stroke="#191970" d="M476.6094,-74.8607C505.5912,-64.1976 539.3098,-51.7917 567.0764,-41.5757"/>
<polygon fill="#191970" stroke="#191970" points="475.1542,-71.6666 466.9778,-78.4044 477.5713,-78.2361 475.1542,-71.6666"/>
</g>
<!-- Node9 -->
<g id="node7" class="node">
<title>Node9</title>
<g id="a_node7"><a xlink:href="server_8c.html" target="_top" xlink:title="Contiene l&#39;implementazione del server. ">
<polygon fill="none" stroke="#000000" points="704,-.5 704,-41.5 826,-41.5 826,-.5 704,-.5"/>
<text text-anchor="start" x="712" y="-29.5" font-family="Helvetica,sans-Serif" font-size="10.00" fill="#000000">/mnt/c/Users/stefa</text>
<text text-anchor="start" x="712" y="-18.5" font-family="Helvetica,sans-Serif" font-size="10.00" fill="#000000">/Desktop/system_call</text>
<text text-anchor="middle" x="765" y="-7.5" font-family="Helvetica,sans-Serif" font-size="10.00" fill="#000000">/src/server.c</text>
</a>
</g>
</g>
<!-- Node3&#45;&gt;Node9 -->
<g id="edge6" class="edge">
<title>Node3&#45;&gt;Node9</title>
<path fill="none" stroke="#191970" d="M482.138,-86.6275C539.8307,-76.1371 623.0837,-59.9627 695,-42 697.8312,-41.2928 700.7188,-40.5432 703.6296,-39.7645"/>
<polygon fill="#191970" stroke="#191970" points="481.2483,-83.2315 472.0305,-88.4547 482.4937,-90.1198 481.2483,-83.2315"/>
</g>
</g>
</svg>
