<?xml version="1.0" encoding="UTF-8" standalone="no"?>
<!DOCTYPE svg PUBLIC "-//W3C//DTD SVG 1.1//EN"
 "http://www.w3.org/Graphics/SVG/1.1/DTD/svg11.dtd">
<!-- Generated by graphviz version 2.40.1 (20161225.0304)
 -->
<!-- Title: /mnt/c/Users/stefa/Desktop/new/system_call/src/debug.h Pages: 1 -->
<svg width="410pt" height="128pt"
 viewBox="0.00 0.00 410.00 128.00" xmlns="http://www.w3.org/2000/svg" xmlns:xlink="http://www.w3.org/1999/xlink">
<g id="graph0" class="graph" transform="scale(1 1) rotate(0) translate(4 124)">
<title>/mnt/c/Users/stefa/Desktop/new/system_call/src/debug.h</title>
<!-- Node1 -->
<g id="node1" class="node">
<title>Node1</title>
<polygon fill="#bfbfbf" stroke="#000000" points="140,-78.5 140,-119.5 262,-119.5 262,-78.5 140,-78.5"/>
<text text-anchor="start" x="148" y="-107.5" font-family="Helvetica,sans-Serif" font-size="10.00" fill="#000000">/mnt/c/Users/stefa</text>
<text text-anchor="start" x="148" y="-96.5" font-family="Helvetica,sans-Serif" font-size="10.00" fill="#000000">/Desktop/new/system</text>
<text text-anchor="middle" x="201" y="-85.5" font-family="Helvetica,sans-Serif" font-size="10.00" fill="#000000">_call/src/debug.h</text>
</g>
<!-- Node2 -->
<g id="node2" class="node">
<title>Node2</title>
<g id="a_node2"><a xlink:href="debug_8c.html" target="_top" xlink:title="Contiene l&#39;implementazione delle funzioni per il debugging. ">
<polygon fill="none" stroke="#000000" points="0,-.5 0,-41.5 122,-41.5 122,-.5 0,-.5"/>
<text text-anchor="start" x="8" y="-29.5" font-family="Helvetica,sans-Serif" font-size="10.00" fill="#000000">/mnt/c/Users/stefa</text>
<text text-anchor="start" x="8" y="-18.5" font-family="Helvetica,sans-Serif" font-size="10.00" fill="#000000">/Desktop/new/system</text>
<text text-anchor="middle" x="61" y="-7.5" font-family="Helvetica,sans-Serif" font-size="10.00" fill="#000000">_call/src/debug.c</text>
</a>
</g>
</g>
<!-- Node1&#45;&gt;Node2 -->
<g id="edge1" class="edge">
<title>Node1&#45;&gt;Node2</title>
<path fill="none" stroke="#191970" d="M154.979,-73.3597C136.4355,-63.0283 115.3383,-51.2742 97.8377,-41.5239"/>
<polygon fill="#191970" stroke="#191970" points="153.411,-76.4926 163.8501,-78.3022 156.8179,-70.3776 153.411,-76.4926"/>
</g>
<!-- Node3 -->
<g id="node3" class="node">
<title>Node3</title>
<g id="a_node3"><a xlink:href="fifo_8c.html" target="_top" xlink:title="Contiene l&#39;implementazione delle funzioni specifiche per la gestione delle FIFO. ">
<polygon fill="none" stroke="#000000" points="140,-.5 140,-41.5 262,-41.5 262,-.5 140,-.5"/>
<text text-anchor="start" x="148" y="-29.5" font-family="Helvetica,sans-Serif" font-size="10.00" fill="#000000">/mnt/c/Users/stefa</text>
<text text-anchor="start" x="148" y="-18.5" font-family="Helvetica,sans-Serif" font-size="10.00" fill="#000000">/Desktop/new/system</text>
<text text-anchor="middle" x="201" y="-7.5" font-family="Helvetica,sans-Serif" font-size="10.00" fill="#000000">_call/src/fifo.c</text>
</a>
</g>
</g>
<!-- Node1&#45;&gt;Node3 -->
<g id="edge2" class="edge">
<title>Node1&#45;&gt;Node3</title>
<path fill="none" stroke="#191970" d="M201,-68.0789C201,-59.2178 201,-49.7747 201,-41.6898"/>
<polygon fill="#191970" stroke="#191970" points="197.5001,-68.0974 201,-78.0974 204.5001,-68.0975 197.5001,-68.0974"/>
</g>
<!-- Node4 -->
<g id="node4" class="node">
<title>Node4</title>
<g id="a_node4"><a xlink:href="files_8c.html" target="_top" xlink:title="Contiene le funzioni specifiche per la gestione dei FILE. ">
<polygon fill="none" stroke="#000000" points="280,-.5 280,-41.5 402,-41.5 402,-.5 280,-.5"/>
<text text-anchor="start" x="288" y="-29.5" font-family="Helvetica,sans-Serif" font-size="10.00" fill="#000000">/mnt/c/Users/stefa</text>
<text text-anchor="start" x="288" y="-18.5" font-family="Helvetica,sans-Serif" font-size="10.00" fill="#000000">/Desktop/new/system</text>
<text text-anchor="middle" x="341" y="-7.5" font-family="Helvetica,sans-Serif" font-size="10.00" fill="#000000">_call/src/files.c</text>
</a>
</g>
</g>
<!-- Node1&#45;&gt;Node4 -->
<g id="edge3" class="edge">
<title>Node1&#45;&gt;Node4</title>
<path fill="none" stroke="#191970" d="M247.021,-73.3597C265.5645,-63.0283 286.6617,-51.2742 304.1623,-41.5239"/>
<polygon fill="#191970" stroke="#191970" points="245.1821,-70.3776 238.1499,-78.3022 248.589,-76.4926 245.1821,-70.3776"/>
</g>
</g>
</svg>
