<?xml version="1.0" encoding="UTF-8" standalone="no"?>
<!DOCTYPE svg PUBLIC "-//W3C//DTD SVG 1.1//EN"
 "http://www.w3.org/Graphics/SVG/1.1/DTD/svg11.dtd">
<!-- Generated by graphviz version 2.40.1 (20161225.0304)
 -->
<!-- Title: /mnt/c/Users/stefa/Desktop/system_call/src/debug.h Pages: 1 -->
<svg width="690pt" height="128pt"
 viewBox="0.00 0.00 690.00 128.00" xmlns="http://www.w3.org/2000/svg" xmlns:xlink="http://www.w3.org/1999/xlink">
<g id="graph0" class="graph" transform="scale(1 1) rotate(0) translate(4 124)">
<title>/mnt/c/Users/stefa/Desktop/system_call/src/debug.h</title>
<!-- Node1 -->
<g id="node1" class="node">
<title>Node1</title>
<polygon fill="#bfbfbf" stroke="#000000" points="280,-78.5 280,-119.5 402,-119.5 402,-78.5 280,-78.5"/>
<text text-anchor="start" x="288" y="-107.5" font-family="Helvetica,sans-Serif" font-size="10.00" fill="#000000">/mnt/c/Users/stefa</text>
<text text-anchor="start" x="288" y="-96.5" font-family="Helvetica,sans-Serif" font-size="10.00" fill="#000000">/Desktop/system_call</text>
<text text-anchor="middle" x="341" y="-85.5" font-family="Helvetica,sans-Serif" font-size="10.00" fill="#000000">/src/debug.h</text>
</g>
<!-- Node2 -->
<g id="node2" class="node">
<title>Node2</title>
<g id="a_node2"><a xlink:href="client_8c.html" target="_top" xlink:title="Contiene l&#39;implementazione del client. ">
<polygon fill="none" stroke="#000000" points="0,-.5 0,-41.5 122,-41.5 122,-.5 0,-.5"/>
<text text-anchor="start" x="8" y="-29.5" font-family="Helvetica,sans-Serif" font-size="10.00" fill="#000000">/mnt/c/Users/stefa</text>
<text text-anchor="start" x="8" y="-18.5" font-family="Helvetica,sans-Serif" font-size="10.00" fill="#000000">/Desktop/system_call</text>
<text text-anchor="middle" x="61" y="-7.5" font-family="Helvetica,sans-Serif" font-size="10.00" fill="#000000">/src/client.c</text>
</a>
</g>
</g>
<!-- Node1&#45;&gt;Node2 -->
<g id="edge1" class="edge">
<title>Node1&#45;&gt;Node2</title>
<path fill="none" stroke="#191970" d="M269.9367,-80.2114C229.197,-69.3151 177.1416,-55.1808 131,-42 128.072,-41.1636 125.0778,-40.2994 122.0555,-39.4201"/>
<polygon fill="#191970" stroke="#191970" points="269.209,-83.6397 279.7735,-82.8383 271.0151,-76.8767 269.209,-83.6397"/>
</g>
<!-- Node3 -->
<g id="node3" class="node">
<title>Node3</title>
<g id="a_node3"><a xlink:href="debug_8c.html" target="_top" xlink:title="Contiene l&#39;implementazione delle funzioni per il debugging. ">
<polygon fill="none" stroke="#000000" points="140,-.5 140,-41.5 262,-41.5 262,-.5 140,-.5"/>
<text text-anchor="start" x="148" y="-29.5" font-family="Helvetica,sans-Serif" font-size="10.00" fill="#000000">/mnt/c/Users/stefa</text>
<text text-anchor="start" x="148" y="-18.5" font-family="Helvetica,sans-Serif" font-size="10.00" fill="#000000">/Desktop/system_call</text>
<text text-anchor="middle" x="201" y="-7.5" font-family="Helvetica,sans-Serif" font-size="10.00" fill="#000000">/src/debug.c</text>
</a>
</g>
</g>
<!-- Node1&#45;&gt;Node3 -->
<g id="edge2" class="edge">
<title>Node1&#45;&gt;Node3</title>
<path fill="none" stroke="#191970" d="M294.979,-73.3597C276.4355,-63.0283 255.3383,-51.2742 237.8377,-41.5239"/>
<polygon fill="#191970" stroke="#191970" points="293.411,-76.4926 303.8501,-78.3022 296.8179,-70.3776 293.411,-76.4926"/>
</g>
<!-- Node4 -->
<g id="node4" class="node">
<title>Node4</title>
<g id="a_node4"><a xlink:href="fifo_8c.html" target="_top" xlink:title="Contiene l&#39;implementazione delle funzioni specifiche per la gestione delle FIFO. ">
<polygon fill="none" stroke="#000000" points="280,-.5 280,-41.5 402,-41.5 402,-.5 280,-.5"/>
<text text-anchor="start" x="288" y="-29.5" font-family="Helvetica,sans-Serif" font-size="10.00" fill="#000000">/mnt/c/Users/stefa</text>
<text text-anchor="start" x="288" y="-18.5" font-family="Helvetica,sans-Serif" font-size="10.00" fill="#000000">/Desktop/system_call</text>
<text text-anchor="middle" x="341" y="-7.5" font-family="Helvetica,sans-Serif" font-size="10.00" fill="#000000">/src/fifo.c</text>
</a>
</g>
</g>
<!-- Node1&#45;&gt;Node4 -->
<g id="edge3" class="edge">
<title>Node1&#45;&gt;Node4</title>
<path fill="none" stroke="#191970" d="M341,-68.0789C341,-59.2178 341,-49.7747 341,-41.6898"/>
<polygon fill="#191970" stroke="#191970" points="337.5001,-68.0974 341,-78.0974 344.5001,-68.0975 337.5001,-68.0974"/>
</g>
<!-- Node5 -->
<g id="node5" class="node">
<title>Node5</title>
<g id="a_node5"><a xlink:href="files_8c.html" target="_top" xlink:title="Contiene le funzioni specifiche per la gestione dei FILE. ">
<polygon fill="none" stroke="#000000" points="420,-.5 420,-41.5 542,-41.5 542,-.5 420,-.5"/>
<text text-anchor="start" x="428" y="-29.5" font-family="Helvetica,sans-Serif" font-size="10.00" fill="#000000">/mnt/c/Users/stefa</text>
<text text-anchor="start" x="428" y="-18.5" font-family="Helvetica,sans-Serif" font-size="10.00" fill="#000000">/Desktop/system_call</text>
<text text-anchor="middle" x="481" y="-7.5" font-family="Helvetica,sans-Serif" font-size="10.00" fill="#000000">/src/files.c</text>
</a>
</g>
</g>
<!-- Node1&#45;&gt;Node5 -->
<g id="edge4" class="edge">
<title>Node1&#45;&gt;Node5</title>
<path fill="none" stroke="#191970" d="M387.021,-73.3597C405.5645,-63.0283 426.6617,-51.2742 444.1623,-41.5239"/>
<polygon fill="#191970" stroke="#191970" points="385.1821,-70.3776 378.1499,-78.3022 388.589,-76.4926 385.1821,-70.3776"/>
</g>
<!-- Node6 -->
<g id="node6" class="node">
<title>Node6</title>
<g id="a_node6"><a xlink:href="server_8c.html" target="_top" xlink:title="Contiene l&#39;implementazione del server. ">
<polygon fill="none" stroke="#000000" points="560,-.5 560,-41.5 682,-41.5 682,-.5 560,-.5"/>
<text text-anchor="start" x="568" y="-29.5" font-family="Helvetica,sans-Serif" font-size="10.00" fill="#000000">/mnt/c/Users/stefa</text>
<text text-anchor="start" x="568" y="-18.5" font-family="Helvetica,sans-Serif" font-size="10.00" fill="#000000">/Desktop/system_call</text>
<text text-anchor="middle" x="621" y="-7.5" font-family="Helvetica,sans-Serif" font-size="10.00" fill="#000000">/src/server.c</text>
</a>
</g>
</g>
<!-- Node1&#45;&gt;Node6 -->
<g id="edge5" class="edge">
<title>Node1&#45;&gt;Node6</title>
<path fill="none" stroke="#191970" d="M412.0633,-80.2114C452.803,-69.3151 504.8584,-55.1808 551,-42 553.928,-41.1636 556.9222,-40.2994 559.9445,-39.4201"/>
<polygon fill="#191970" stroke="#191970" points="410.9849,-76.8767 402.2265,-82.8383 412.791,-83.6397 410.9849,-76.8767"/>
</g>
</g>
</svg>
