<?xml version="1.0" encoding="UTF-8" standalone="no"?>
<!DOCTYPE svg PUBLIC "-//W3C//DTD SVG 1.1//EN"
 "http://www.w3.org/Graphics/SVG/1.1/DTD/svg11.dtd">
<!-- Generated by graphviz version 2.40.1 (20161225.0304)
 -->
<!-- Title: /mnt/c/Users/stefa/Desktop/system_call/src/debug.h Pages: 1 -->
<!--zoomable 128 -->
<svg id="main" version="1.1" xmlns="http://www.w3.org/2000/svg" xmlns:xlink="http://www.w3.org/1999/xlink" xml:space="preserve" onload="init(evt)">
<style type="text/css"><![CDATA[
.edge:hover path { stroke: red; }
.edge:hover polygon { stroke: red; fill: red; }
]]></style>
<script type="text/javascript"><![CDATA[
var edges = document.getElementsByTagName('g');
if (edges && edges.length) {
  for (var i=0;i<edges.length;i++) {
    if (edges[i].id.substr(0,4)=='edge') {
      edges[i].setAttribute('class','edge');
    }
  }
}
]]></script>
        <defs>
                <circle id="rim" cx="0" cy="0" r="7"/>
                <circle id="rim2" cx="0" cy="0" r="3.5"/>
                <g id="zoomPlus">
                        <use xlink:href="#rim" fill="#404040">
                                <set attributeName="fill" to="#808080" begin="zoomplus.mouseover" end="zoomplus.mouseout"/>
                        </use>
                        <path d="M-4,0h8M0,-4v8" fill="none" stroke="white" stroke-width="1.5" pointer-events="none"/>
                </g>
                <g id="zoomMin">
                        <use xlink:href="#rim" fill="#404040">
                                <set attributeName="fill" to="#808080" begin="zoomminus.mouseover" end="zoomminus.mouseout"/>
                        </use>
                        <path d="M-4,0h8" fill="none" stroke="white" stroke-width="1.5" pointer-events="none"/>
                </g>
                <g id="dirArrow">
                        <path fill="none" stroke="white" stroke-width="1.5" d="M0,-3.0v7 M-2.5,-0.5L0,-3.0L2.5,-0.5"/>
                </g>
               <g id="resetDef">
                       <use xlink:href="#rim2" fill="#404040">
                               <set attributeName="fill" to="#808080" begin="reset.mouseover" end="reset.mouseout"/>
                       </use>
               </g>
        </defs>

<script type="text/javascript">
var viewWidth = 834;
var viewHeight = 128;
var sectionId = 'dynsection-1';
</script>
<script xlink:href="svgpan.js"/>
<svg id="graph" class="graph">
<g id="viewport">
<title>/mnt/c/Users/stefa/Desktop/system_call/src/debug.h</title>
<!-- Node3 -->
<g id="node1" class="node">
<title>Node3</title>
<polygon fill="#bfbfbf" stroke="#000000" points="350,-78.5 350,-119.5 472,-119.5 472,-78.5 350,-78.5"/>
<text text-anchor="start" x="358" y="-107.5" font-family="Helvetica,sans-Serif" font-size="10.00" fill="#000000">/mnt/c/Users/stefa</text>
<text text-anchor="start" x="358" y="-96.5" font-family="Helvetica,sans-Serif" font-size="10.00" fill="#000000">/Desktop/system_call</text>
<text text-anchor="middle" x="411" y="-85.5" font-family="Helvetica,sans-Serif" font-size="10.00" fill="#000000">/src/debug.h</text>
</g>
<!-- Node4 -->
<g id="node2" class="node">
<title>Node4</title>
<g id="a_node2"><a xlink:href="client_8c.html" target="_top" xlink:title="Contiene l&#39;implementazione del client. ">
<polygon fill="none" stroke="#000000" points="0,-.5 0,-41.5 122,-41.5 122,-.5 0,-.5"/>
<text text-anchor="start" x="8" y="-29.5" font-family="Helvetica,sans-Serif" font-size="10.00" fill="#000000">/mnt/c/Users/stefa</text>
<text text-anchor="start" x="8" y="-18.5" font-family="Helvetica,sans-Serif" font-size="10.00" fill="#000000">/Desktop/system_call</text>
<text text-anchor="middle" x="61" y="-7.5" font-family="Helvetica,sans-Serif" font-size="10.00" fill="#000000">/src/client.c</text>
</a>
</g>
</g>
<!-- Node3&#45;&gt;Node4 -->
<g id="edge1" class="edge">
<title>Node3&#45;&gt;Node4</title>
<path fill="none" stroke="#191970" d="M339.777,-86.346C282.9464,-75.8063 201.4645,-59.7033 131,-42 128.1697,-41.2889 125.283,-40.5361 122.3728,-39.7548"/>
<polygon fill="#191970" stroke="#191970" points="339.2703,-89.8115 349.7392,-88.1834 340.54,-82.9276 339.2703,-89.8115"/>
</g>
<!-- Node5 -->
<g id="node3" class="node">
<title>Node5</title>
<g id="a_node3"><a xlink:href="debug_8c.html" target="_top" xlink:title="Contiene l&#39;implementazione delle funzioni per il debugging. ">
<polygon fill="none" stroke="#000000" points="140,-.5 140,-41.5 262,-41.5 262,-.5 140,-.5"/>
<text text-anchor="start" x="148" y="-29.5" font-family="Helvetica,sans-Serif" font-size="10.00" fill="#000000">/mnt/c/Users/stefa</text>
<text text-anchor="start" x="148" y="-18.5" font-family="Helvetica,sans-Serif" font-size="10.00" fill="#000000">/Desktop/system_call</text>
<text text-anchor="middle" x="201" y="-7.5" font-family="Helvetica,sans-Serif" font-size="10.00" fill="#000000">/src/debug.c</text>
</a>
</g>
</g>
<!-- Node3&#45;&gt;Node5 -->
<g id="edge2" class="edge">
<title>Node3&#45;&gt;Node5</title>
<path fill="none" stroke="#191970" d="M346.0096,-74.8607C317.3012,-64.1976 283.9006,-51.7917 256.396,-41.5757"/>
<polygon fill="#191970" stroke="#191970" points="344.9573,-78.2035 355.5503,-78.4044 347.3947,-71.6415 344.9573,-78.2035"/>
</g>
<!-- Node6 -->
<g id="node4" class="node">
<title>Node6</title>
<g id="a_node4"><a xlink:href="fifo_8c.html" target="_top" xlink:title="Contiene l&#39;implementazione delle funzioni specifiche per la gestione delle FIFO. ">
<polygon fill="none" stroke="#000000" points="280,-.5 280,-41.5 402,-41.5 402,-.5 280,-.5"/>
<text text-anchor="start" x="288" y="-29.5" font-family="Helvetica,sans-Serif" font-size="10.00" fill="#000000">/mnt/c/Users/stefa</text>
<text text-anchor="start" x="288" y="-18.5" font-family="Helvetica,sans-Serif" font-size="10.00" fill="#000000">/Desktop/system_call</text>
<text text-anchor="middle" x="341" y="-7.5" font-family="Helvetica,sans-Serif" font-size="10.00" fill="#000000">/src/fifo.c</text>
</a>
</g>
</g>
<!-- Node3&#45;&gt;Node6 -->
<g id="edge3" class="edge">
<title>Node3&#45;&gt;Node6</title>
<path fill="none" stroke="#191970" d="M385.3118,-70.376C376.781,-60.8703 367.4544,-50.4778 359.5678,-41.6898"/>
<polygon fill="#191970" stroke="#191970" points="382.9573,-72.9927 392.2413,-78.0974 388.167,-68.3173 382.9573,-72.9927"/>
</g>
<!-- Node7 -->
<g id="node5" class="node">
<title>Node7</title>
<g id="a_node5"><a xlink:href="files_8c.html" target="_top" xlink:title="Contiene le funzioni specifiche per la gestione dei FILE. ">
<polygon fill="none" stroke="#000000" points="420,-.5 420,-41.5 542,-41.5 542,-.5 420,-.5"/>
<text text-anchor="start" x="428" y="-29.5" font-family="Helvetica,sans-Serif" font-size="10.00" fill="#000000">/mnt/c/Users/stefa</text>
<text text-anchor="start" x="428" y="-18.5" font-family="Helvetica,sans-Serif" font-size="10.00" fill="#000000">/Desktop/system_call</text>
<text text-anchor="middle" x="481" y="-7.5" font-family="Helvetica,sans-Serif" font-size="10.00" fill="#000000">/src/files.c</text>
</a>
</g>
</g>
<!-- Node3&#45;&gt;Node7 -->
<g id="edge4" class="edge">
<title>Node3&#45;&gt;Node7</title>
<path fill="none" stroke="#191970" d="M436.6882,-70.376C445.219,-60.8703 454.5456,-50.4778 462.4322,-41.6898"/>
<polygon fill="#191970" stroke="#191970" points="433.833,-68.3173 429.7587,-78.0974 439.0427,-72.9927 433.833,-68.3173"/>
</g>
<!-- Node8 -->
<g id="node6" class="node">
<title>Node8</title>
<g id="a_node6"><a xlink:href="message__queue_8c.html" target="_top" xlink:title="Contiene l&#39;implementazione delle funzioni specifiche per la gestione delle CODE DEI MESSAGGI...">
<polygon fill="none" stroke="#000000" points="560.5,-.5 560.5,-41.5 685.5,-41.5 685.5,-.5 560.5,-.5"/>
<text text-anchor="start" x="568.5" y="-29.5" font-family="Helvetica,sans-Serif" font-size="10.00" fill="#000000">/mnt/c/Users/stefa</text>
<text text-anchor="start" x="568.5" y="-18.5" font-family="Helvetica,sans-Serif" font-size="10.00" fill="#000000">/Desktop/system_call</text>
<text text-anchor="middle" x="623" y="-7.5" font-family="Helvetica,sans-Serif" font-size="10.00" fill="#000000">/src/message_queue.c</text>
</a>
</g>
</g>
<!-- Node3&#45;&gt;Node8 -->
<g id="edge5" class="edge">
<title>Node3&#45;&gt;Node8</title>
<path fill="none" stroke="#191970" d="M476.6094,-74.8607C505.5912,-64.1976 539.3098,-51.7917 567.0764,-41.5757"/>
<polygon fill="#191970" stroke="#191970" points="475.1542,-71.6666 466.9778,-78.4044 477.5713,-78.2361 475.1542,-71.6666"/>
</g>
<!-- Node9 -->
<g id="node7" class="node">
<title>Node9</title>
<g id="a_node7"><a xlink:href="server_8c.html" target="_top" xlink:title="Contiene l&#39;implementazione del server. ">
<polygon fill="none" stroke="#000000" points="704,-.5 704,-41.5 826,-41.5 826,-.5 704,-.5"/>
<text text-anchor="start" x="712" y="-29.5" font-family="Helvetica,sans-Serif" font-size="10.00" fill="#000000">/mnt/c/Users/stefa</text>
<text text-anchor="start" x="712" y="-18.5" font-family="Helvetica,sans-Serif" font-size="10.00" fill="#000000">/Desktop/system_call</text>
<text text-anchor="middle" x="765" y="-7.5" font-family="Helvetica,sans-Serif" font-size="10.00" fill="#000000">/src/server.c</text>
</a>
</g>
</g>
<!-- Node3&#45;&gt;Node9 -->
<g id="edge6" class="edge">
<title>Node3&#45;&gt;Node9</title>
<path fill="none" stroke="#191970" d="M482.138,-86.6275C539.8307,-76.1371 623.0837,-59.9627 695,-42 697.8312,-41.2928 700.7188,-40.5432 703.6296,-39.7645"/>
<polygon fill="#191970" stroke="#191970" points="481.2483,-83.2315 472.0305,-88.4547 482.4937,-90.1198 481.2483,-83.2315"/>
</g>
</g>
</svg>
        <g id="navigator" transform="translate(0 0)" fill="#404254">
                <rect fill="#f2f5e9" fill-opacity="0.5" stroke="#606060" stroke-width=".5" x="0" y="0" width="60" height="60"/>
                <use id="zoomplus" xlink:href="#zoomPlus" x="17" y="9" onmousedown="handleZoom(evt,'in')"/>
                <use id="zoomminus" xlink:href="#zoomMin" x="42" y="9" onmousedown="handleZoom(evt,'out')"/>
                <use id="reset" xlink:href="#resetDef" x="30" y="36" onmousedown="handleReset()"/>
                <g id="arrowUp" xlink:href="#dirArrow" transform="translate(30 24)" onmousedown="handlePan(0,-1)">
                  <use xlink:href="#rim" fill="#404040">
                        <set attributeName="fill" to="#808080" begin="arrowUp.mouseover" end="arrowUp.mouseout"/>
                  </use>
                  <path fill="none" stroke="white" stroke-width="1.5" d="M0,-3.0v7 M-2.5,-0.5L0,-3.0L2.5,-0.5"/>
                </g>
                <g id="arrowRight" xlink:href="#dirArrow" transform="rotate(90) translate(36 -43)" onmousedown="handlePan(1,0)">
                  <use xlink:href="#rim" fill="#404040">
                        <set attributeName="fill" to="#808080" begin="arrowRight.mouseover" end="arrowRight.mouseout"/>
                  </use>
                  <path fill="none" stroke="white" stroke-width="1.5" d="M0,-3.0v7 M-2.5,-0.5L0,-3.0L2.5,-0.5"/>
                </g>
                <g id="arrowDown" xlink:href="#dirArrow" transform="rotate(180) translate(-30 -48)" onmousedown="handlePan(0,1)">
                  <use xlink:href="#rim" fill="#404040">
                        <set attributeName="fill" to="#808080" begin="arrowDown.mouseover" end="arrowDown.mouseout"/>
                  </use>
                  <path fill="none" stroke="white" stroke-width="1.5" d="M0,-3.0v7 M-2.5,-0.5L0,-3.0L2.5,-0.5"/>
                </g>
                <g id="arrowLeft" xlink:href="#dirArrow" transform="rotate(270) translate(-36 17)" onmousedown="handlePan(-1,0)">
                  <use xlink:href="#rim" fill="#404040">
                        <set attributeName="fill" to="#808080" begin="arrowLeft.mouseover" end="arrowLeft.mouseout"/>
                  </use>
                  <path fill="none" stroke="white" stroke-width="1.5" d="M0,-3.0v7 M-2.5,-0.5L0,-3.0L2.5,-0.5"/>
                </g>
        </g>
        <svg viewBox="0 0 15 15" width="100%" height="30px" preserveAspectRatio="xMaxYMin meet">
         <g id="arrow_out" transform="scale(0.3 0.3)">
          <a xlink:href="debug_8h__dep__incl_org.svg" target="_base">
           <rect id="button" ry="5" rx="5" y="6" x="6" height="38" width="38"
                fill="#f2f5e9" fill-opacity="0.5" stroke="#606060" stroke-width="1.0"/>
           <path id="arrow"
             d="M 11.500037,31.436501 C 11.940474,20.09759 22.043105,11.32322 32.158766,21.979434 L 37.068811,17.246167 C 37.068811,17.246167 37.088388,32 37.088388,32 L 22.160133,31.978069 C 22.160133,31.978069 26.997745,27.140456 26.997745,27.140456 C 18.528582,18.264221 13.291696,25.230495 11.500037,31.436501 z"
             style="fill:#404040;"/>
          </a>
         </g>
        </svg>
</svg>
