<?xml version="1.0" encoding="UTF-8" standalone="no"?>
<!DOCTYPE svg PUBLIC "-//W3C//DTD SVG 1.1//EN"
 "http://www.w3.org/Graphics/SVG/1.1/DTD/svg11.dtd">
<!-- Generated by graphviz version 2.40.1 (20161225.0304)
 -->
<!-- Title: print_msg Pages: 1 -->
<svg width="446pt" height="170pt"
 viewBox="0.00 0.00 446.00 170.02" xmlns="http://www.w3.org/2000/svg" xmlns:xlink="http://www.w3.org/1999/xlink">
<g id="graph0" class="graph" transform="scale(1 1) rotate(0) translate(4 166.0216)">
<title>print_msg</title>
<!-- Node34 -->
<g id="node1" class="node">
<title>Node34</title>
<polygon fill="#bfbfbf" stroke="#000000" points="0,-76.5 0,-95.5 65,-95.5 65,-76.5 0,-76.5"/>
<text text-anchor="middle" x="32.5" y="-83.5" font-family="Helvetica,sans-Serif" font-size="10.00" fill="#000000">print_msg</text>
</g>
<!-- Node35 -->
<g id="node2" class="node">
<title>Node35</title>
<g id="a_node2"><a xlink:href="client_8h.html#a748983b7ce27515a3ad116ada4334c4e" target="_top" xlink:title="int_to_string">
<polygon fill="none" stroke="#000000" points="121.5,-114.5 121.5,-133.5 198.5,-133.5 198.5,-114.5 121.5,-114.5"/>
<text text-anchor="middle" x="160" y="-121.5" font-family="Helvetica,sans-Serif" font-size="10.00" fill="#000000">int_to_string</text>
</a>
</g>
</g>
<!-- Node34&#45;&gt;Node35 -->
<g id="edge1" class="edge">
<title>Node34&#45;&gt;Node35</title>
<path fill="none" stroke="#191970" d="M74.5592,-98.5353C91.9041,-103.7048 111.6812,-109.5991 127.8367,-114.4141"/>
<polygon fill="#191970" stroke="#191970" points="75.2568,-95.0911 64.6736,-95.589 73.2574,-101.7995 75.2568,-95.0911"/>
</g>
<!-- Node36 -->
<g id="node3" class="node">
<title>Node36</title>
<g id="a_node3"><a xlink:href="client_8h.html#a8c7084a254c7cd640d66e647795ff8f6" target="_top" xlink:title="operazioni_client0">
<polygon fill="none" stroke="#000000" points="255,-95.5 255,-114.5 361,-114.5 361,-95.5 255,-95.5"/>
<text text-anchor="middle" x="308" y="-102.5" font-family="Helvetica,sans-Serif" font-size="10.00" fill="#000000">operazioni_client0</text>
</a>
</g>
</g>
<!-- Node34&#45;&gt;Node36 -->
<g id="edge4" class="edge">
<title>Node34&#45;&gt;Node36</title>
<path fill="none" stroke="#191970" d="M75.324,-88.9534C123.7176,-92.2909 202.5395,-97.7269 254.8311,-101.3332"/>
<polygon fill="#191970" stroke="#191970" points="75.4025,-85.4506 65.1853,-88.2542 74.9208,-92.434 75.4025,-85.4506"/>
</g>
<!-- Node37 -->
<g id="node4" class="node">
<title>Node37</title>
<g id="a_node4"><a xlink:href="client_8c.html#a0ddf1224851353fc92bfbff6f499fa97" target="_top" xlink:title="main">
<polygon fill="none" stroke="#000000" points="397,-123.5 397,-142.5 438,-142.5 438,-123.5 397,-123.5"/>
<text text-anchor="middle" x="417.5" y="-130.5" font-family="Helvetica,sans-Serif" font-size="10.00" fill="#000000">main</text>
</a>
</g>
</g>
<!-- Node34&#45;&gt;Node37 -->
<g id="edge5" class="edge">
<title>Node34&#45;&gt;Node37</title>
<path fill="none" stroke="#191970" d="M47.0197,-103.4233C59.657,-117.122 79.313,-135.157 101,-143 206.4649,-181.1407 344.8257,-152.1446 396.6833,-138.7912"/>
<polygon fill="#191970" stroke="#191970" points="49.3435,-100.7668 40.1028,-95.5841 44.0946,-105.3982 49.3435,-100.7668"/>
</g>
<!-- Node38 -->
<g id="node5" class="node">
<title>Node38</title>
<g id="a_node5"><a xlink:href="fifo_8h.html#a54a1ae8162825128cf02f95692402c18" target="_top" xlink:title="Facilita la creazione di una FIFO (o ne ottiene una esistente) in modalita&#39; lettura o scrittura...">
<polygon fill="none" stroke="#000000" points="126,-38.5 126,-57.5 194,-57.5 194,-38.5 126,-38.5"/>
<text text-anchor="middle" x="160" y="-45.5" font-family="Helvetica,sans-Serif" font-size="10.00" fill="#000000">create_fifo</text>
</a>
</g>
</g>
<!-- Node34&#45;&gt;Node38 -->
<g id="edge6" class="edge">
<title>Node34&#45;&gt;Node38</title>
<path fill="none" stroke="#191970" d="M74.5592,-73.4647C91.9041,-68.2952 111.6812,-62.4009 127.8367,-57.5859"/>
<polygon fill="#191970" stroke="#191970" points="73.2574,-70.2005 64.6736,-76.411 75.2568,-76.9089 73.2574,-70.2005"/>
</g>
<!-- Node40 -->
<g id="node7" class="node">
<title>Node40</title>
<g id="a_node7"><a xlink:href="server_8h.html#a6a3979b89e7153de6f4e9c4308d60403" target="_top" xlink:title="findAndMakeFullFiles">
<polygon fill="none" stroke="#000000" points="101,-.5 101,-19.5 219,-19.5 219,-.5 101,-.5"/>
<text text-anchor="middle" x="160" y="-7.5" font-family="Helvetica,sans-Serif" font-size="10.00" fill="#000000">findAndMakeFullFiles</text>
</a>
</g>
</g>
<!-- Node34&#45;&gt;Node40 -->
<g id="edge9" class="edge">
<title>Node34&#45;&gt;Node40</title>
<path fill="none" stroke="#191970" d="M49.1265,-69.0048C62.2199,-56.4502 81.4659,-39.7422 101,-29 107.7891,-25.2665 115.4264,-22.1302 122.8976,-19.5504"/>
<polygon fill="#191970" stroke="#191970" points="46.4934,-66.6854 41.8215,-76.1946 51.4037,-71.6744 46.4934,-66.6854"/>
</g>
<!-- Node35&#45;&gt;Node36 -->
<g id="edge2" class="edge">
<title>Node35&#45;&gt;Node36</title>
<path fill="none" stroke="#191970" d="M208.8308,-117.7312C223.596,-115.8356 239.8789,-113.7453 254.9083,-111.8158"/>
<polygon fill="#191970" stroke="#191970" points="208.3582,-114.263 198.8853,-119.008 209.2496,-121.2061 208.3582,-114.263"/>
</g>
<!-- Node36&#45;&gt;Node37 -->
<g id="edge3" class="edge">
<title>Node36&#45;&gt;Node37</title>
<path fill="none" stroke="#191970" d="M355.2838,-117.0908C369.8334,-120.8113 385.0997,-124.715 396.8687,-127.7244"/>
<polygon fill="#191970" stroke="#191970" points="355.9328,-113.6442 345.3774,-114.5577 354.1986,-120.426 355.9328,-113.6442"/>
</g>
<!-- Node38&#45;&gt;Node36 -->
<g id="edge7" class="edge">
<title>Node38&#45;&gt;Node36</title>
<path fill="none" stroke="#191970" d="M194.2814,-61.203C221.4563,-71.669 258.7867,-86.0462 283.1473,-95.4284"/>
<polygon fill="#191970" stroke="#191970" points="195.3616,-57.8685 184.7719,-57.5405 192.8458,-64.4007 195.3616,-57.8685"/>
</g>
<!-- Node39 -->
<g id="node6" class="node">
<title>Node39</title>
<g id="a_node6"><a xlink:href="server_8c.html#a0ddf1224851353fc92bfbff6f499fa97" target="_top" xlink:title="main">
<polygon fill="none" stroke="#000000" points="287.5,-19.5 287.5,-38.5 328.5,-38.5 328.5,-19.5 287.5,-19.5"/>
<text text-anchor="middle" x="308" y="-26.5" font-family="Helvetica,sans-Serif" font-size="10.00" fill="#000000">main</text>
</a>
</g>
</g>
<!-- Node38&#45;&gt;Node39 -->
<g id="edge8" class="edge">
<title>Node38&#45;&gt;Node39</title>
<path fill="none" stroke="#191970" d="M204.4723,-42.2907C231.874,-38.7729 265.7373,-34.4256 287.1091,-31.6819"/>
<polygon fill="#191970" stroke="#191970" points="203.7991,-38.8483 194.3262,-43.5933 204.6905,-45.7914 203.7991,-38.8483"/>
</g>
<!-- Node40&#45;&gt;Node39 -->
<g id="edge10" class="edge">
<title>Node40&#45;&gt;Node39</title>
<path fill="none" stroke="#191970" d="M229.3336,-18.9009C250.4974,-21.6179 272.1723,-24.4005 287.3969,-26.355"/>
<polygon fill="#191970" stroke="#191970" points="229.7088,-15.4205 219.3445,-17.6185 228.8174,-22.3635 229.7088,-15.4205"/>
</g>
</g>
</svg>
