<?xml version="1.0" encoding="UTF-8" standalone="no"?>
<!DOCTYPE svg PUBLIC "-//W3C//DTD SVG 1.1//EN"
 "http://www.w3.org/Graphics/SVG/1.1/DTD/svg11.dtd">
<!-- Generated by graphviz version 2.40.1 (20161225.0304)
 -->
<!-- Title: /mnt/c/Users/stefa/Desktop/progetti/system_call/src/defines.h Pages: 1 -->
<svg width="238pt" height="106pt"
 viewBox="0.00 0.00 237.50 106.00" xmlns="http://www.w3.org/2000/svg" xmlns:xlink="http://www.w3.org/1999/xlink">
<g id="graph0" class="graph" transform="scale(1 1) rotate(0) translate(4 102)">
<title>/mnt/c/Users/stefa/Desktop/progetti/system_call/src/defines.h</title>
<!-- Node0 -->
<g id="node1" class="node">
<title>Node0</title>
<polygon fill="#bfbfbf" stroke="#000000" points="46,-56.5 46,-97.5 186,-97.5 186,-56.5 46,-56.5"/>
<text text-anchor="start" x="54" y="-85.5" font-family="Helvetica,sans-Serif" font-size="10.00" fill="#000000">/mnt/c/Users/stefa</text>
<text text-anchor="start" x="54" y="-74.5" font-family="Helvetica,sans-Serif" font-size="10.00" fill="#000000">/Desktop/progetti/system</text>
<text text-anchor="middle" x="116" y="-63.5" font-family="Helvetica,sans-Serif" font-size="10.00" fill="#000000">_call/src/defines.h</text>
</g>
<!-- Node1 -->
<g id="node2" class="node">
<title>Node1</title>
<polygon fill="none" stroke="#bfbfbf" points="0,-.5 0,-19.5 62,-19.5 62,-.5 0,-.5"/>
<text text-anchor="middle" x="31" y="-7.5" font-family="Helvetica,sans-Serif" font-size="10.00" fill="#000000">stdbool.h</text>
</g>
<!-- Node0&#45;&gt;Node1 -->
<g id="edge1" class="edge">
<title>Node0&#45;&gt;Node1</title>
<path fill="none" stroke="#191970" d="M89.5714,-56.168C77.2995,-46.4949 62.931,-35.1692 51.4967,-26.1562"/>
<polygon fill="#191970" stroke="#191970" points="53.4283,-23.2222 43.4081,-19.7805 49.095,-28.7197 53.4283,-23.2222"/>
</g>
<!-- Node2 -->
<g id="node3" class="node">
<title>Node2</title>
<polygon fill="none" stroke="#bfbfbf" points="80,-.5 80,-19.5 152,-19.5 152,-.5 80,-.5"/>
<text text-anchor="middle" x="116" y="-7.5" font-family="Helvetica,sans-Serif" font-size="10.00" fill="#000000">sys/types.h</text>
</g>
<!-- Node0&#45;&gt;Node2 -->
<g id="edge2" class="edge">
<title>Node0&#45;&gt;Node2</title>
<path fill="none" stroke="#191970" d="M116,-56.168C116,-47.8226 116,-38.2471 116,-29.9879"/>
<polygon fill="#191970" stroke="#191970" points="119.5001,-29.7804 116,-19.7805 112.5001,-29.7805 119.5001,-29.7804"/>
</g>
<!-- Node3 -->
<g id="node4" class="node">
<title>Node3</title>
<polygon fill="none" stroke="#bfbfbf" points="170.5,-.5 170.5,-19.5 229.5,-19.5 229.5,-.5 170.5,-.5"/>
<text text-anchor="middle" x="200" y="-7.5" font-family="Helvetica,sans-Serif" font-size="10.00" fill="#000000">sys/ipc.h</text>
</g>
<!-- Node0&#45;&gt;Node3 -->
<g id="edge3" class="edge">
<title>Node0&#45;&gt;Node3</title>
<path fill="none" stroke="#191970" d="M142.1177,-56.168C154.2452,-46.4949 168.4446,-35.1692 179.7444,-26.1562"/>
<polygon fill="#191970" stroke="#191970" points="182.1026,-28.7523 187.7379,-19.7805 177.7377,-23.2799 182.1026,-28.7523"/>
</g>
</g>
</svg>
