<?xml version="1.0" encoding="UTF-8" standalone="no"?>
<!DOCTYPE svg PUBLIC "-//W3C//DTD SVG 1.1//EN"
 "http://www.w3.org/Graphics/SVG/1.1/DTD/svg11.dtd">
<!-- Generated by graphviz version 2.40.1 (20161225.0304)
 -->
<!-- Title: /mnt/c/Users/stefa/Desktop/system_call/src/defines.h Pages: 1 -->
<svg width="448pt" height="206pt"
 viewBox="0.00 0.00 448.00 206.00" xmlns="http://www.w3.org/2000/svg" xmlns:xlink="http://www.w3.org/1999/xlink">
<g id="graph0" class="graph" transform="scale(1 1) rotate(0) translate(4 202)">
<title>/mnt/c/Users/stefa/Desktop/system_call/src/defines.h</title>
<!-- Node3 -->
<g id="node1" class="node">
<title>Node3</title>
<polygon fill="#bfbfbf" stroke="#000000" points="184,-156.5 184,-197.5 306,-197.5 306,-156.5 184,-156.5"/>
<text text-anchor="start" x="192" y="-185.5" font-family="Helvetica,sans-Serif" font-size="10.00" fill="#000000">/mnt/c/Users/stefa</text>
<text text-anchor="start" x="192" y="-174.5" font-family="Helvetica,sans-Serif" font-size="10.00" fill="#000000">/Desktop/system_call</text>
<text text-anchor="middle" x="245" y="-163.5" font-family="Helvetica,sans-Serif" font-size="10.00" fill="#000000">/src/defines.h</text>
</g>
<!-- Node4 -->
<g id="node2" class="node">
<title>Node4</title>
<g id="a_node2"><a xlink:href="client_8c.html" target="_top" xlink:title="Contiene l&#39;implementazione del client. ">
<polygon fill="none" stroke="#000000" points="0,-78.5 0,-119.5 122,-119.5 122,-78.5 0,-78.5"/>
<text text-anchor="start" x="8" y="-107.5" font-family="Helvetica,sans-Serif" font-size="10.00" fill="#000000">/mnt/c/Users/stefa</text>
<text text-anchor="start" x="8" y="-96.5" font-family="Helvetica,sans-Serif" font-size="10.00" fill="#000000">/Desktop/system_call</text>
<text text-anchor="middle" x="61" y="-85.5" font-family="Helvetica,sans-Serif" font-size="10.00" fill="#000000">/src/client.c</text>
</a>
</g>
</g>
<!-- Node3&#45;&gt;Node4 -->
<g id="edge1" class="edge">
<title>Node3&#45;&gt;Node4</title>
<path fill="none" stroke="#191970" d="M186.8312,-152.3415C161.913,-141.7784 133.1479,-129.5844 109.4153,-119.5239"/>
<polygon fill="#191970" stroke="#191970" points="185.6015,-155.6216 196.1745,-156.3022 188.3336,-149.1768 185.6015,-155.6216"/>
</g>
<!-- Node5 -->
<g id="node3" class="node">
<title>Node5</title>
<g id="a_node3"><a xlink:href="defines_8c.html" target="_top" xlink:title="Contiene l&#39;implementazione delle funzioni specifiche del progetto. ">
<polygon fill="none" stroke="#000000" points="140,-78.5 140,-119.5 262,-119.5 262,-78.5 140,-78.5"/>
<text text-anchor="start" x="148" y="-107.5" font-family="Helvetica,sans-Serif" font-size="10.00" fill="#000000">/mnt/c/Users/stefa</text>
<text text-anchor="start" x="148" y="-96.5" font-family="Helvetica,sans-Serif" font-size="10.00" fill="#000000">/Desktop/system_call</text>
<text text-anchor="middle" x="201" y="-85.5" font-family="Helvetica,sans-Serif" font-size="10.00" fill="#000000">/src/defines.c</text>
</a>
</g>
</g>
<!-- Node3&#45;&gt;Node5 -->
<g id="edge2" class="edge">
<title>Node3&#45;&gt;Node5</title>
<path fill="none" stroke="#191970" d="M228.2073,-147.2312C223.0234,-138.0415 217.4302,-128.1263 212.6712,-119.6898"/>
<polygon fill="#191970" stroke="#191970" points="225.2471,-149.1073 233.2088,-156.0974 231.344,-145.668 225.2471,-149.1073"/>
</g>
<!-- Node6 -->
<g id="node4" class="node">
<title>Node6</title>
<g id="a_node4"><a xlink:href="server_8c.html" target="_top" xlink:title="Contiene l&#39;implementazione del server. ">
<polygon fill="none" stroke="#000000" points="273,-.5 273,-41.5 395,-41.5 395,-.5 273,-.5"/>
<text text-anchor="start" x="281" y="-29.5" font-family="Helvetica,sans-Serif" font-size="10.00" fill="#000000">/mnt/c/Users/stefa</text>
<text text-anchor="start" x="281" y="-18.5" font-family="Helvetica,sans-Serif" font-size="10.00" fill="#000000">/Desktop/system_call</text>
<text text-anchor="middle" x="334" y="-7.5" font-family="Helvetica,sans-Serif" font-size="10.00" fill="#000000">/src/server.c</text>
</a>
</g>
</g>
<!-- Node3&#45;&gt;Node6 -->
<g id="edge3" class="edge">
<title>Node3&#45;&gt;Node6</title>
<path fill="none" stroke="#191970" d="M261.9576,-147.2766C279.5741,-116.3982 306.6814,-68.8844 322.1326,-41.8013"/>
<polygon fill="#191970" stroke="#191970" points="258.7339,-145.8641 256.8185,-156.2844 264.814,-149.3329 258.7339,-145.8641"/>
</g>
<!-- Node7 -->
<g id="node5" class="node">
<title>Node7</title>
<g id="a_node5"><a xlink:href="server_8h.html" target="_top" xlink:title="Contiene la definizioni di variabili e funzioni specifiche del SERVER. ">
<polygon fill="none" stroke="#000000" points="318,-78.5 318,-119.5 440,-119.5 440,-78.5 318,-78.5"/>
<text text-anchor="start" x="326" y="-107.5" font-family="Helvetica,sans-Serif" font-size="10.00" fill="#000000">/mnt/c/Users/stefa</text>
<text text-anchor="start" x="326" y="-96.5" font-family="Helvetica,sans-Serif" font-size="10.00" fill="#000000">/Desktop/system_call</text>
<text text-anchor="middle" x="379" y="-85.5" font-family="Helvetica,sans-Serif" font-size="10.00" fill="#000000">/src/server.h</text>
</a>
</g>
</g>
<!-- Node3&#45;&gt;Node7 -->
<g id="edge4" class="edge">
<title>Node3&#45;&gt;Node7</title>
<path fill="none" stroke="#191970" d="M289.5333,-151.0776C307.1643,-140.8148 327.1427,-129.1856 343.7411,-119.5239"/>
<polygon fill="#191970" stroke="#191970" points="287.4395,-148.2466 280.5577,-156.3022 290.961,-154.2963 287.4395,-148.2466"/>
</g>
<!-- Node7&#45;&gt;Node6 -->
<g id="edge5" class="edge">
<title>Node7&#45;&gt;Node6</title>
<path fill="none" stroke="#191970" d="M361.8257,-69.2312C356.5239,-60.0415 350.8036,-50.1263 345.9364,-41.6898"/>
<polygon fill="#191970" stroke="#191970" points="358.9119,-71.1846 366.9408,-78.0974 364.9752,-67.6865 358.9119,-71.1846"/>
</g>
</g>
</svg>
