<?xml version="1.0" encoding="UTF-8" standalone="no"?>
<!DOCTYPE svg PUBLIC "-//W3C//DTD SVG 1.1//EN"
 "http://www.w3.org/Graphics/SVG/1.1/DTD/svg11.dtd">
<!-- Generated by graphviz version 2.40.1 (20161225.0304)
 -->
<!-- Title: /mnt/c/Users/stefa/Desktop/progetti/system_call/src/defines.h Pages: 1 -->
<svg width="660pt" height="206pt"
 viewBox="0.00 0.00 660.00 206.00" xmlns="http://www.w3.org/2000/svg" xmlns:xlink="http://www.w3.org/1999/xlink">
<g id="graph0" class="graph" transform="scale(1 1) rotate(0) translate(4 202)">
<title>/mnt/c/Users/stefa/Desktop/progetti/system_call/src/defines.h</title>
<!-- Node4 -->
<g id="node1" class="node">
<title>Node4</title>
<polygon fill="#bfbfbf" stroke="#000000" points="316,-156.5 316,-197.5 456,-197.5 456,-156.5 316,-156.5"/>
<text text-anchor="start" x="324" y="-185.5" font-family="Helvetica,sans-Serif" font-size="10.00" fill="#000000">/mnt/c/Users/stefa</text>
<text text-anchor="start" x="324" y="-174.5" font-family="Helvetica,sans-Serif" font-size="10.00" fill="#000000">/Desktop/progetti/system</text>
<text text-anchor="middle" x="386" y="-163.5" font-family="Helvetica,sans-Serif" font-size="10.00" fill="#000000">_call/src/defines.h</text>
</g>
<!-- Node5 -->
<g id="node2" class="node">
<title>Node5</title>
<g id="a_node2"><a xlink:href="client_8c.html" target="_top" xlink:title="Contiene l&#39;implementazione del client. ">
<polygon fill="none" stroke="#000000" points="0,-78.5 0,-119.5 140,-119.5 140,-78.5 0,-78.5"/>
<text text-anchor="start" x="8" y="-107.5" font-family="Helvetica,sans-Serif" font-size="10.00" fill="#000000">/mnt/c/Users/stefa</text>
<text text-anchor="start" x="8" y="-96.5" font-family="Helvetica,sans-Serif" font-size="10.00" fill="#000000">/Desktop/progetti/system</text>
<text text-anchor="middle" x="70" y="-85.5" font-family="Helvetica,sans-Serif" font-size="10.00" fill="#000000">_call/src/client.c</text>
</a>
</g>
</g>
<!-- Node4&#45;&gt;Node5 -->
<g id="edge1" class="edge">
<title>Node4&#45;&gt;Node5</title>
<path fill="none" stroke="#191970" d="M305.9842,-158.2559C259.9932,-147.3572 201.1713,-133.2059 149,-120 146.1109,-119.2687 143.1642,-118.516 140.1887,-117.7505"/>
<polygon fill="#191970" stroke="#191970" points="305.3558,-161.7038 315.8931,-160.6008 306.9679,-154.892 305.3558,-161.7038"/>
</g>
<!-- Node6 -->
<g id="node3" class="node">
<title>Node6</title>
<g id="a_node3"><a xlink:href="defines_8c.html" target="_top" xlink:title="Contiene l&#39;implementazione delle funzioni specifiche del progetto. ">
<polygon fill="none" stroke="#000000" points="158,-78.5 158,-119.5 298,-119.5 298,-78.5 158,-78.5"/>
<text text-anchor="start" x="166" y="-107.5" font-family="Helvetica,sans-Serif" font-size="10.00" fill="#000000">/mnt/c/Users/stefa</text>
<text text-anchor="start" x="166" y="-96.5" font-family="Helvetica,sans-Serif" font-size="10.00" fill="#000000">/Desktop/progetti/system</text>
<text text-anchor="middle" x="228" y="-85.5" font-family="Helvetica,sans-Serif" font-size="10.00" fill="#000000">_call/src/defines.c</text>
</a>
</g>
</g>
<!-- Node4&#45;&gt;Node6 -->
<g id="edge2" class="edge">
<title>Node4&#45;&gt;Node6</title>
<path fill="none" stroke="#191970" d="M334.9165,-151.7816C313.7844,-141.3493 289.594,-129.4072 269.574,-119.5239"/>
<polygon fill="#191970" stroke="#191970" points="333.5575,-155.0139 344.0737,-156.3022 336.6562,-148.7371 333.5575,-155.0139"/>
</g>
<!-- Node7 -->
<g id="node4" class="node">
<title>Node7</title>
<g id="a_node4"><a xlink:href="fifo_8c.html" target="_top" xlink:title="Contiene l&#39;implementazione delle funzioni specifiche per la gestione delle FIFO. ">
<polygon fill="none" stroke="#000000" points="316,-78.5 316,-119.5 456,-119.5 456,-78.5 316,-78.5"/>
<text text-anchor="start" x="324" y="-107.5" font-family="Helvetica,sans-Serif" font-size="10.00" fill="#000000">/mnt/c/Users/stefa</text>
<text text-anchor="start" x="324" y="-96.5" font-family="Helvetica,sans-Serif" font-size="10.00" fill="#000000">/Desktop/progetti/system</text>
<text text-anchor="middle" x="386" y="-85.5" font-family="Helvetica,sans-Serif" font-size="10.00" fill="#000000">_call/src/fifo.c</text>
</a>
</g>
</g>
<!-- Node4&#45;&gt;Node7 -->
<g id="edge3" class="edge">
<title>Node4&#45;&gt;Node7</title>
<path fill="none" stroke="#191970" d="M386,-146.0789C386,-137.2178 386,-127.7747 386,-119.6898"/>
<polygon fill="#191970" stroke="#191970" points="382.5001,-146.0974 386,-156.0974 389.5001,-146.0975 382.5001,-146.0974"/>
</g>
<!-- Node8 -->
<g id="node5" class="node">
<title>Node8</title>
<g id="a_node5"><a xlink:href="server_8c.html" target="_top" xlink:title="Contiene l&#39;implementazione del server. ">
<polygon fill="none" stroke="#000000" points="463,-.5 463,-41.5 603,-41.5 603,-.5 463,-.5"/>
<text text-anchor="start" x="471" y="-29.5" font-family="Helvetica,sans-Serif" font-size="10.00" fill="#000000">/mnt/c/Users/stefa</text>
<text text-anchor="start" x="471" y="-18.5" font-family="Helvetica,sans-Serif" font-size="10.00" fill="#000000">/Desktop/progetti/system</text>
<text text-anchor="middle" x="533" y="-7.5" font-family="Helvetica,sans-Serif" font-size="10.00" fill="#000000">_call/src/server.c</text>
</a>
</g>
</g>
<!-- Node4&#45;&gt;Node8 -->
<g id="edge4" class="edge">
<title>Node4&#45;&gt;Node8</title>
<path fill="none" stroke="#191970" d="M428.413,-150.4413C440.9187,-141.5778 454.148,-131.1063 465,-120 488.4616,-95.9885 509.3085,-63.0222 521.5499,-41.8616"/>
<polygon fill="#191970" stroke="#191970" points="426.1523,-147.7488 419.909,-156.3087 430.1277,-153.5105 426.1523,-147.7488"/>
</g>
<!-- Node9 -->
<g id="node6" class="node">
<title>Node9</title>
<g id="a_node6"><a xlink:href="server_8h.html" target="_top" xlink:title="Contiene la definizioni di variabili e funzioni specifiche del SERVER. ">
<polygon fill="none" stroke="#000000" points="512,-78.5 512,-119.5 652,-119.5 652,-78.5 512,-78.5"/>
<text text-anchor="start" x="520" y="-107.5" font-family="Helvetica,sans-Serif" font-size="10.00" fill="#000000">/mnt/c/Users/stefa</text>
<text text-anchor="start" x="520" y="-96.5" font-family="Helvetica,sans-Serif" font-size="10.00" fill="#000000">/Desktop/progetti/system</text>
<text text-anchor="middle" x="582" y="-85.5" font-family="Helvetica,sans-Serif" font-size="10.00" fill="#000000">_call/src/server.h</text>
</a>
</g>
</g>
<!-- Node4&#45;&gt;Node9 -->
<g id="edge5" class="edge">
<title>Node4&#45;&gt;Node9</title>
<path fill="none" stroke="#191970" d="M447.3577,-152.5821C473.994,-141.982 504.8493,-129.7028 530.297,-119.5757"/>
<polygon fill="#191970" stroke="#191970" points="445.7502,-149.4548 437.7531,-156.4044 448.3385,-155.9587 445.7502,-149.4548"/>
</g>
<!-- Node9&#45;&gt;Node8 -->
<g id="edge6" class="edge">
<title>Node9&#45;&gt;Node8</title>
<path fill="none" stroke="#191970" d="M563.4793,-69.5181C557.6559,-60.2482 551.3525,-50.2141 545.9974,-41.6898"/>
<polygon fill="#191970" stroke="#191970" points="560.5856,-71.4915 568.8689,-78.0974 566.5131,-67.7678 560.5856,-71.4915"/>
</g>
</g>
</svg>
