<?xml version="1.0" encoding="UTF-8" standalone="no"?>
<!DOCTYPE svg PUBLIC "-//W3C//DTD SVG 1.1//EN"
 "http://www.w3.org/Graphics/SVG/1.1/DTD/svg11.dtd">
<!-- Generated by graphviz version 2.40.1 (20161225.0304)
 -->
<!-- Title: /mnt/c/Users/stefa/Desktop/new/system_call/src/defines.c Pages: 1 -->
<svg width="308pt" height="162pt"
 viewBox="0.00 0.00 308.12 162.00" xmlns="http://www.w3.org/2000/svg" xmlns:xlink="http://www.w3.org/1999/xlink">
<g id="graph0" class="graph" transform="scale(1 1) rotate(0) translate(4 158)">
<title>/mnt/c/Users/stefa/Desktop/new/system_call/src/defines.c</title>
<!-- Node0 -->
<g id="node1" class="node">
<title>Node0</title>
<polygon fill="#bfbfbf" stroke="#000000" points="55.6154,-112.5 55.6154,-153.5 177.6154,-153.5 177.6154,-112.5 55.6154,-112.5"/>
<text text-anchor="start" x="63.6154" y="-141.5" font-family="Helvetica,sans-Serif" font-size="10.00" fill="#000000">/mnt/c/Users/stefa</text>
<text text-anchor="start" x="63.6154" y="-130.5" font-family="Helvetica,sans-Serif" font-size="10.00" fill="#000000">/Desktop/new/system</text>
<text text-anchor="middle" x="116.6154" y="-119.5" font-family="Helvetica,sans-Serif" font-size="10.00" fill="#000000">_call/src/defines.c</text>
</g>
<!-- Node1 -->
<g id="node2" class="node">
<title>Node1</title>
<polygon fill="none" stroke="#bfbfbf" points="15.1154,-.5 15.1154,-19.5 74.1154,-19.5 74.1154,-.5 15.1154,-.5"/>
<text text-anchor="middle" x="44.6154" y="-7.5" font-family="Helvetica,sans-Serif" font-size="10.00" fill="#000000">sys/ipc.h</text>
</g>
<!-- Node0&#45;&gt;Node1 -->
<g id="edge1" class="edge">
<title>Node0&#45;&gt;Node1</title>
<path fill="none" stroke="#191970" d="M55.5953,-116.5284C35.4909,-107.8844 15.3068,-94.9921 3.6154,-76 -6.826,-59.0385 8.4172,-39.6864 23.1898,-26.3442"/>
<polygon fill="#191970" stroke="#191970" points="25.7945,-28.7261 31.1823,-19.6035 21.2815,-23.3751 25.7945,-28.7261"/>
</g>
<!-- Node2 -->
<g id="node3" class="node">
<title>Node2</title>
<polygon fill="none" stroke="#bfbfbf" points="12.6154,-56.5 12.6154,-75.5 74.6154,-75.5 74.6154,-56.5 12.6154,-56.5"/>
<text text-anchor="middle" x="43.6154" y="-63.5" font-family="Helvetica,sans-Serif" font-size="10.00" fill="#000000">stdbool.h</text>
</g>
<!-- Node0&#45;&gt;Node2 -->
<g id="edge2" class="edge">
<title>Node0&#45;&gt;Node2</title>
<path fill="none" stroke="#191970" d="M93.9179,-112.168C83.5852,-102.6846 71.5218,-91.6127 61.799,-82.689"/>
<polygon fill="#191970" stroke="#191970" points="64.0058,-79.9637 54.2718,-75.7805 59.2725,-85.1209 64.0058,-79.9637"/>
</g>
<!-- Node3 -->
<g id="node4" class="node">
<title>Node3</title>
<polygon fill="none" stroke="#bfbfbf" points="93.1154,-56.5 93.1154,-75.5 140.1154,-75.5 140.1154,-56.5 93.1154,-56.5"/>
<text text-anchor="middle" x="116.6154" y="-63.5" font-family="Helvetica,sans-Serif" font-size="10.00" fill="#000000">fcntl.h</text>
</g>
<!-- Node0&#45;&gt;Node3 -->
<g id="edge3" class="edge">
<title>Node0&#45;&gt;Node3</title>
<path fill="none" stroke="#191970" d="M116.6154,-112.168C116.6154,-103.8226 116.6154,-94.2471 116.6154,-85.9879"/>
<polygon fill="#191970" stroke="#191970" points="120.1155,-85.7804 116.6154,-75.7805 113.1155,-85.7805 120.1155,-85.7804"/>
</g>
<!-- Node4 -->
<g id="node5" class="node">
<title>Node4</title>
<g id="a_node5"><a xlink:href="defines_8h.html" target="_top" xlink:title="Contiene la definizioni di variabili e funzioni specifiche del progetto. ">
<polygon fill="none" stroke="#000000" points="158.1154,-56.5 158.1154,-75.5 219.1154,-75.5 219.1154,-56.5 158.1154,-56.5"/>
<text text-anchor="middle" x="188.6154" y="-63.5" font-family="Helvetica,sans-Serif" font-size="10.00" fill="#000000">defines.h</text>
</a>
</g>
</g>
<!-- Node0&#45;&gt;Node4 -->
<g id="edge4" class="edge">
<title>Node0&#45;&gt;Node4</title>
<path fill="none" stroke="#191970" d="M139.002,-112.168C149.1932,-102.6846 161.0913,-91.6127 170.6809,-82.689"/>
<polygon fill="#191970" stroke="#191970" points="173.1687,-85.1551 178.1051,-75.7805 168.4,-80.0306 173.1687,-85.1551"/>
</g>
<!-- Node6 -->
<g id="node7" class="node">
<title>Node6</title>
<g id="a_node7"><a xlink:href="err__exit_8h.html" target="_top" xlink:title="Contiene la definizione della funzione di stampa degli errori. ">
<polygon fill="none" stroke="#000000" points="237.1154,-56.5 237.1154,-75.5 300.1154,-75.5 300.1154,-56.5 237.1154,-56.5"/>
<text text-anchor="middle" x="268.6154" y="-63.5" font-family="Helvetica,sans-Serif" font-size="10.00" fill="#000000">err_exit.h</text>
</a>
</g>
</g>
<!-- Node0&#45;&gt;Node6 -->
<g id="edge7" class="edge">
<title>Node0&#45;&gt;Node6</title>
<path fill="none" stroke="#191970" d="M163.4607,-112.3511C187.5154,-101.748 216.1631,-89.1204 237.4779,-79.7251"/>
<polygon fill="#191970" stroke="#191970" points="238.9736,-82.8908 246.7124,-75.6546 236.1501,-76.4855 238.9736,-82.8908"/>
</g>
<!-- Node4&#45;&gt;Node1 -->
<g id="edge6" class="edge">
<title>Node4&#45;&gt;Node1</title>
<path fill="none" stroke="#191970" d="M163.8609,-56.3733C140.3306,-47.2226 104.7468,-33.3844 78.5728,-23.2057"/>
<polygon fill="#191970" stroke="#191970" points="79.6355,-19.8636 69.0469,-19.5011 77.0983,-26.3877 79.6355,-19.8636"/>
</g>
<!-- Node5 -->
<g id="node6" class="node">
<title>Node5</title>
<polygon fill="none" stroke="#bfbfbf" points="152.6154,-.5 152.6154,-19.5 224.6154,-19.5 224.6154,-.5 152.6154,-.5"/>
<text text-anchor="middle" x="188.6154" y="-7.5" font-family="Helvetica,sans-Serif" font-size="10.00" fill="#000000">sys/types.h</text>
</g>
<!-- Node4&#45;&gt;Node5 -->
<g id="edge5" class="edge">
<title>Node4&#45;&gt;Node5</title>
<path fill="none" stroke="#191970" d="M188.6154,-56.2455C188.6154,-48.9382 188.6154,-38.6944 188.6154,-29.7046"/>
<polygon fill="#191970" stroke="#191970" points="192.1155,-29.6426 188.6154,-19.6427 185.1155,-29.6427 192.1155,-29.6426"/>
</g>
</g>
</svg>
