<?xml version="1.0" encoding="UTF-8" standalone="no"?>
<!DOCTYPE svg PUBLIC "-//W3C//DTD SVG 1.1//EN"
 "http://www.w3.org/Graphics/SVG/1.1/DTD/svg11.dtd">
<!-- Generated by graphviz version 2.40.1 (20161225.0304)
 -->
<!-- Title: get_project_ipc_key Pages: 1 -->
<svg width="458pt" height="66pt"
 viewBox="0.00 0.00 458.00 66.00" xmlns="http://www.w3.org/2000/svg" xmlns:xlink="http://www.w3.org/1999/xlink">
<g id="graph0" class="graph" transform="scale(1 1) rotate(0) translate(4 62)">
<title>get_project_ipc_key</title>
<!-- Node26 -->
<g id="node1" class="node">
<title>Node26</title>
<polygon fill="#bfbfbf" stroke="#000000" points="0,-19.5 0,-38.5 114,-38.5 114,-19.5 0,-19.5"/>
<text text-anchor="middle" x="57" y="-26.5" font-family="Helvetica,sans-Serif" font-size="10.00" fill="#000000">get_project_ipc_key</text>
</g>
<!-- Node27 -->
<g id="node2" class="node">
<title>Node27</title>
<g id="a_node2"><a xlink:href="defines_8h.html#a2d341373a96ffea0944553e5452cdbca" target="_top" xlink:title="get_ipc_key">
<polygon fill="none" stroke="#000000" points="153,-38.5 153,-57.5 228,-57.5 228,-38.5 153,-38.5"/>
<text text-anchor="middle" x="190.5" y="-45.5" font-family="Helvetica,sans-Serif" font-size="10.00" fill="#000000">get_ipc_key</text>
</a>
</g>
</g>
<!-- Node26&#45;&gt;Node27 -->
<g id="edge1" class="edge">
<title>Node26&#45;&gt;Node27</title>
<path fill="none" stroke="#191970" d="M123.9536,-38.529C133.9349,-39.9495 143.9102,-41.3692 152.9867,-42.661"/>
<polygon fill="#191970" stroke="#191970" points="124.3967,-35.0568 114.0033,-37.1128 123.4103,-41.987 124.3967,-35.0568"/>
</g>
<!-- Node31 -->
<g id="node6" class="node">
<title>Node31</title>
<g id="a_node6"><a xlink:href="defines_8h.html#afd25e0dffe44c8dd59ae86caabb94287" target="_top" xlink:title="get_ipc_key2">
<polygon fill="none" stroke="#000000" points="150,-.5 150,-19.5 231,-19.5 231,-.5 150,-.5"/>
<text text-anchor="middle" x="190.5" y="-7.5" font-family="Helvetica,sans-Serif" font-size="10.00" fill="#000000">get_ipc_key2</text>
</a>
</g>
</g>
<!-- Node26&#45;&gt;Node31 -->
<g id="edge5" class="edge">
<title>Node26&#45;&gt;Node31</title>
<path fill="none" stroke="#191970" d="M123.9502,-19.4715C132.7879,-18.2137 141.6209,-16.9566 149.8295,-15.7883"/>
<polygon fill="#191970" stroke="#191970" points="123.4103,-16.013 114.0033,-20.8872 124.3967,-22.9432 123.4103,-16.013"/>
</g>
<!-- Node28 -->
<g id="node3" class="node">
<title>Node28</title>
<g id="a_node3"><a xlink:href="client_8h.html#a8c7084a254c7cd640d66e647795ff8f6" target="_top" xlink:title="operazioni_client0">
<polygon fill="none" stroke="#000000" points="267,-38.5 267,-57.5 373,-57.5 373,-38.5 267,-38.5"/>
<text text-anchor="middle" x="320" y="-45.5" font-family="Helvetica,sans-Serif" font-size="10.00" fill="#000000">operazioni_client0</text>
</a>
</g>
</g>
<!-- Node27&#45;&gt;Node28 -->
<g id="edge2" class="edge">
<title>Node27&#45;&gt;Node28</title>
<path fill="none" stroke="#191970" d="M238.5238,-48C247.7993,-48 257.5664,-48 266.9902,-48"/>
<polygon fill="#191970" stroke="#191970" points="238.3049,-44.5001 228.3049,-48 238.3049,-51.5001 238.3049,-44.5001"/>
</g>
<!-- Node30 -->
<g id="node5" class="node">
<title>Node30</title>
<g id="a_node5"><a xlink:href="server_8c.html#a0ddf1224851353fc92bfbff6f499fa97" target="_top" xlink:title="main">
<polygon fill="none" stroke="#000000" points="299.5,-.5 299.5,-19.5 340.5,-19.5 340.5,-.5 299.5,-.5"/>
<text text-anchor="middle" x="320" y="-7.5" font-family="Helvetica,sans-Serif" font-size="10.00" fill="#000000">main</text>
</a>
</g>
</g>
<!-- Node27&#45;&gt;Node30 -->
<g id="edge4" class="edge">
<title>Node27&#45;&gt;Node30</title>
<path fill="none" stroke="#191970" d="M232.8009,-35.5874C255.1725,-29.0228 281.6244,-21.2608 299.4803,-16.0212"/>
<polygon fill="#191970" stroke="#191970" points="231.7882,-32.2369 223.1783,-38.411 233.7592,-38.9537 231.7882,-32.2369"/>
</g>
<!-- Node29 -->
<g id="node4" class="node">
<title>Node29</title>
<g id="a_node4"><a xlink:href="client_8c.html#a0ddf1224851353fc92bfbff6f499fa97" target="_top" xlink:title="main">
<polygon fill="none" stroke="#000000" points="409,-38.5 409,-57.5 450,-57.5 450,-38.5 409,-38.5"/>
<text text-anchor="middle" x="429.5" y="-45.5" font-family="Helvetica,sans-Serif" font-size="10.00" fill="#000000">main</text>
</a>
</g>
</g>
<!-- Node28&#45;&gt;Node29 -->
<g id="edge3" class="edge">
<title>Node28&#45;&gt;Node29</title>
<path fill="none" stroke="#191970" d="M383.2796,-48C392.5452,-48 401.4767,-48 408.9772,-48"/>
<polygon fill="#191970" stroke="#191970" points="383.1462,-44.5001 373.1462,-48 383.1462,-51.5001 383.1462,-44.5001"/>
</g>
<!-- Node31&#45;&gt;Node28 -->
<g id="edge6" class="edge">
<title>Node31&#45;&gt;Node28</title>
<path fill="none" stroke="#191970" d="M233.219,-22.5353C250.836,-27.7048 270.9232,-33.5991 287.3321,-38.4141"/>
<polygon fill="#191970" stroke="#191970" points="233.7592,-19.0463 223.1783,-19.589 231.7882,-25.7631 233.7592,-19.0463"/>
</g>
<!-- Node31&#45;&gt;Node30 -->
<g id="edge7" class="edge">
<title>Node31&#45;&gt;Node30</title>
<path fill="none" stroke="#191970" d="M241.2091,-10C261.5245,-10 283.7772,-10 299.4367,-10"/>
<polygon fill="#191970" stroke="#191970" points="241.1193,-6.5001 231.1193,-10 241.1193,-13.5001 241.1193,-6.5001"/>
</g>
</g>
</svg>
