<?xml version="1.0" encoding="UTF-8" standalone="no"?>
<!DOCTYPE svg PUBLIC "-//W3C//DTD SVG 1.1//EN"
 "http://www.w3.org/Graphics/SVG/1.1/DTD/svg11.dtd">
<!-- Generated by graphviz version 2.40.1 (20161225.0304)
 -->
<!-- Title: /mnt/c/Users/stefa/Desktop/progetti/system_call/src/defines.c Pages: 1 -->
<svg width="457pt" height="162pt"
 viewBox="0.00 0.00 457.00 162.00" xmlns="http://www.w3.org/2000/svg" xmlns:xlink="http://www.w3.org/1999/xlink">
<g id="graph0" class="graph" transform="scale(1 1) rotate(0) translate(4 158)">
<title>/mnt/c/Users/stefa/Desktop/progetti/system_call/src/defines.c</title>
<!-- Node0 -->
<g id="node1" class="node">
<title>Node0</title>
<polygon fill="#bfbfbf" stroke="#000000" points="158.5,-112.5 158.5,-153.5 298.5,-153.5 298.5,-112.5 158.5,-112.5"/>
<text text-anchor="start" x="166.5" y="-141.5" font-family="Helvetica,sans-Serif" font-size="10.00" fill="#000000">/mnt/c/Users/stefa</text>
<text text-anchor="start" x="166.5" y="-130.5" font-family="Helvetica,sans-Serif" font-size="10.00" fill="#000000">/Desktop/progetti/system</text>
<text text-anchor="middle" x="228.5" y="-119.5" font-family="Helvetica,sans-Serif" font-size="10.00" fill="#000000">_call/src/defines.c</text>
</g>
<!-- Node1 -->
<g id="node2" class="node">
<title>Node1</title>
<polygon fill="none" stroke="#bfbfbf" points="0,-.5 0,-19.5 59,-19.5 59,-.5 0,-.5"/>
<text text-anchor="middle" x="29.5" y="-7.5" font-family="Helvetica,sans-Serif" font-size="10.00" fill="#000000">sys/ipc.h</text>
</g>
<!-- Node0&#45;&gt;Node1 -->
<g id="edge1" class="edge">
<title>Node0&#45;&gt;Node1</title>
<path fill="none" stroke="#191970" d="M158.1322,-117.928C114.6156,-107.2787 64.1665,-92.0853 48.5,-76 36.5669,-63.7479 32.0412,-44.5056 30.3685,-29.9527"/>
<polygon fill="#191970" stroke="#191970" points="33.8533,-29.622 29.57,-19.9316 26.8754,-30.1781 33.8533,-29.622"/>
</g>
<!-- Node2 -->
<g id="node3" class="node">
<title>Node2</title>
<polygon fill="none" stroke="#bfbfbf" points="246.5,-.5 246.5,-19.5 308.5,-19.5 308.5,-.5 246.5,-.5"/>
<text text-anchor="middle" x="277.5" y="-7.5" font-family="Helvetica,sans-Serif" font-size="10.00" fill="#000000">stdbool.h</text>
</g>
<!-- Node0&#45;&gt;Node2 -->
<g id="edge2" class="edge">
<title>Node0&#45;&gt;Node2</title>
<path fill="none" stroke="#191970" d="M295.736,-112.4701C312.5943,-103.9616 328.6656,-92.1724 338.5,-76 350.5589,-56.1695 328.009,-37.101 306.998,-24.6042"/>
<polygon fill="#191970" stroke="#191970" points="308.6273,-21.5051 298.193,-19.6678 305.204,-27.611 308.6273,-21.5051"/>
</g>
<!-- Node3 -->
<g id="node4" class="node">
<title>Node3</title>
<polygon fill="none" stroke="#bfbfbf" points="137,-56.5 137,-75.5 184,-75.5 184,-56.5 137,-56.5"/>
<text text-anchor="middle" x="160.5" y="-63.5" font-family="Helvetica,sans-Serif" font-size="10.00" fill="#000000">fcntl.h</text>
</g>
<!-- Node0&#45;&gt;Node3 -->
<g id="edge3" class="edge">
<title>Node0&#45;&gt;Node3</title>
<path fill="none" stroke="#191970" d="M207.3571,-112.168C197.8284,-102.7794 186.7195,-91.834 177.7105,-82.9574"/>
<polygon fill="#191970" stroke="#191970" points="180.0062,-80.3058 170.4264,-75.7805 175.0932,-85.2921 180.0062,-80.3058"/>
</g>
<!-- Node4 -->
<g id="node5" class="node">
<title>Node4</title>
<polygon fill="none" stroke="#bfbfbf" points="202,-56.5 202,-75.5 255,-75.5 255,-56.5 202,-56.5"/>
<text text-anchor="middle" x="228.5" y="-63.5" font-family="Helvetica,sans-Serif" font-size="10.00" fill="#000000">string.h</text>
</g>
<!-- Node0&#45;&gt;Node4 -->
<g id="edge4" class="edge">
<title>Node0&#45;&gt;Node4</title>
<path fill="none" stroke="#191970" d="M228.5,-112.168C228.5,-103.8226 228.5,-94.2471 228.5,-85.9879"/>
<polygon fill="#191970" stroke="#191970" points="232.0001,-85.7804 228.5,-75.7805 225.0001,-85.7805 232.0001,-85.7804"/>
</g>
<!-- Node5 -->
<g id="node6" class="node">
<title>Node5</title>
<polygon fill="none" stroke="#bfbfbf" points="273.5,-56.5 273.5,-75.5 329.5,-75.5 329.5,-56.5 273.5,-56.5"/>
<text text-anchor="middle" x="301.5" y="-63.5" font-family="Helvetica,sans-Serif" font-size="10.00" fill="#000000">unistd.h</text>
</g>
<!-- Node0&#45;&gt;Node5 -->
<g id="edge5" class="edge">
<title>Node0&#45;&gt;Node5</title>
<path fill="none" stroke="#191970" d="M251.1975,-112.168C261.5302,-102.6846 273.5936,-91.6127 283.3164,-82.689"/>
<polygon fill="#191970" stroke="#191970" points="285.8429,-85.1209 290.8437,-75.7805 281.1096,-79.9637 285.8429,-85.1209"/>
</g>
<!-- Node6 -->
<g id="node7" class="node">
<title>Node6</title>
<g id="a_node7"><a xlink:href="defines_8h.html" target="_top" xlink:title="Contiene la definizioni di variabili e funzioni specifiche del progetto. ">
<polygon fill="none" stroke="#000000" points="58,-56.5 58,-75.5 119,-75.5 119,-56.5 58,-56.5"/>
<text text-anchor="middle" x="88.5" y="-63.5" font-family="Helvetica,sans-Serif" font-size="10.00" fill="#000000">defines.h</text>
</a>
</g>
</g>
<!-- Node0&#45;&gt;Node6 -->
<g id="edge6" class="edge">
<title>Node0&#45;&gt;Node6</title>
<path fill="none" stroke="#191970" d="M185.353,-112.3511C163.3969,-101.8435 137.2865,-89.3478 117.7115,-79.9798"/>
<polygon fill="#191970" stroke="#191970" points="119.205,-76.8144 108.6739,-75.6546 116.1832,-83.1286 119.205,-76.8144"/>
</g>
<!-- Node8 -->
<g id="node9" class="node">
<title>Node8</title>
<g id="a_node9"><a xlink:href="err__exit_8h.html" target="_top" xlink:title="Contiene la definizione della funzione di stampa degli errori. ">
<polygon fill="none" stroke="#000000" points="386,-56.5 386,-75.5 449,-75.5 449,-56.5 386,-56.5"/>
<text text-anchor="middle" x="417.5" y="-63.5" font-family="Helvetica,sans-Serif" font-size="10.00" fill="#000000">err_exit.h</text>
</a>
</g>
</g>
<!-- Node0&#45;&gt;Node8 -->
<g id="edge10" class="edge">
<title>Node0&#45;&gt;Node8</title>
<path fill="none" stroke="#191970" d="M286.4907,-112.4425C317.2805,-101.5275 354.1807,-88.4465 380.9619,-78.9527"/>
<polygon fill="#191970" stroke="#191970" points="382.4409,-82.1418 390.6967,-75.5017 380.102,-75.5441 382.4409,-82.1418"/>
</g>
<!-- Node6&#45;&gt;Node1 -->
<g id="edge9" class="edge">
<title>Node6&#45;&gt;Node1</title>
<path fill="none" stroke="#191970" d="M78.223,-56.2455C69.6782,-48.1352 57.3222,-36.4075 47.1915,-26.7919"/>
<polygon fill="#191970" stroke="#191970" points="49.3218,-23.9884 39.6592,-19.6427 44.5028,-29.0655 49.3218,-23.9884"/>
</g>
<!-- Node6&#45;&gt;Node2 -->
<g id="edge7" class="edge">
<title>Node6&#45;&gt;Node2</title>
<path fill="none" stroke="#191970" d="M119.2868,-56.878C151.1797,-47.4283 201.1953,-32.6088 236.4387,-22.1663"/>
<polygon fill="#191970" stroke="#191970" points="237.8184,-25.408 246.4121,-19.2112 235.8298,-18.6964 237.8184,-25.408"/>
</g>
<!-- Node7 -->
<g id="node8" class="node">
<title>Node7</title>
<polygon fill="none" stroke="#bfbfbf" points="77.5,-.5 77.5,-19.5 149.5,-19.5 149.5,-.5 77.5,-.5"/>
<text text-anchor="middle" x="113.5" y="-7.5" font-family="Helvetica,sans-Serif" font-size="10.00" fill="#000000">sys/types.h</text>
</g>
<!-- Node6&#45;&gt;Node7 -->
<g id="edge8" class="edge">
<title>Node6&#45;&gt;Node7</title>
<path fill="none" stroke="#191970" d="M92.8547,-56.2455C96.2244,-48.6973 100.993,-38.0158 105.0983,-28.8197"/>
<polygon fill="#191970" stroke="#191970" points="108.3147,-30.2009 109.1952,-19.6427 101.9227,-27.3473 108.3147,-30.2009"/>
</g>
</g>
</svg>
