<?xml version="1.0" encoding="UTF-8" standalone="no"?>
<!DOCTYPE svg PUBLIC "-//W3C//DTD SVG 1.1//EN"
 "http://www.w3.org/Graphics/SVG/1.1/DTD/svg11.dtd">
<!-- Generated by graphviz version 2.40.1 (20161225.0304)
 -->
<!-- Title: /mnt/c/Users/stefa/Desktop/system_call/src/err_exit.h Pages: 1 -->
<svg width="972pt" height="128pt"
 viewBox="0.00 0.00 971.50 128.00" xmlns="http://www.w3.org/2000/svg" xmlns:xlink="http://www.w3.org/1999/xlink">
<g id="graph0" class="graph" transform="scale(1 1) rotate(0) translate(4 124)">
<title>/mnt/c/Users/stefa/Desktop/system_call/src/err_exit.h</title>
<!-- Node1 -->
<g id="node1" class="node">
<title>Node1</title>
<polygon fill="#bfbfbf" stroke="#000000" points="420,-78.5 420,-119.5 542,-119.5 542,-78.5 420,-78.5"/>
<text text-anchor="start" x="428" y="-107.5" font-family="Helvetica,sans-Serif" font-size="10.00" fill="#000000">/mnt/c/Users/stefa</text>
<text text-anchor="start" x="428" y="-96.5" font-family="Helvetica,sans-Serif" font-size="10.00" fill="#000000">/Desktop/system_call</text>
<text text-anchor="middle" x="481" y="-85.5" font-family="Helvetica,sans-Serif" font-size="10.00" fill="#000000">/src/err_exit.h</text>
</g>
<!-- Node2 -->
<g id="node2" class="node">
<title>Node2</title>
<g id="a_node2"><a xlink:href="client_8c.html" target="_top" xlink:title="Contiene l&#39;implementazione del client. ">
<polygon fill="none" stroke="#000000" points="0,-.5 0,-41.5 122,-41.5 122,-.5 0,-.5"/>
<text text-anchor="start" x="8" y="-29.5" font-family="Helvetica,sans-Serif" font-size="10.00" fill="#000000">/mnt/c/Users/stefa</text>
<text text-anchor="start" x="8" y="-18.5" font-family="Helvetica,sans-Serif" font-size="10.00" fill="#000000">/Desktop/system_call</text>
<text text-anchor="middle" x="61" y="-7.5" font-family="Helvetica,sans-Serif" font-size="10.00" fill="#000000">/src/client.c</text>
</a>
</g>
</g>
<!-- Node1&#45;&gt;Node2 -->
<g id="edge1" class="edge">
<title>Node1&#45;&gt;Node2</title>
<path fill="none" stroke="#191970" d="M409.6464,-90.1477C338.5436,-80.679 226.4915,-64.0012 131,-42 128.1563,-41.3448 125.2585,-40.6378 122.3394,-39.8937"/>
<polygon fill="#191970" stroke="#191970" points="409.461,-93.6535 419.833,-91.4922 410.377,-86.7137 409.461,-93.6535"/>
</g>
<!-- Node3 -->
<g id="node3" class="node">
<title>Node3</title>
<g id="a_node3"><a xlink:href="err__exit_8c.html" target="_top" xlink:title="Contiene l&#39;implementazione della funzione di stampa degli errori. ">
<polygon fill="none" stroke="#000000" points="140,-.5 140,-41.5 262,-41.5 262,-.5 140,-.5"/>
<text text-anchor="start" x="148" y="-29.5" font-family="Helvetica,sans-Serif" font-size="10.00" fill="#000000">/mnt/c/Users/stefa</text>
<text text-anchor="start" x="148" y="-18.5" font-family="Helvetica,sans-Serif" font-size="10.00" fill="#000000">/Desktop/system_call</text>
<text text-anchor="middle" x="201" y="-7.5" font-family="Helvetica,sans-Serif" font-size="10.00" fill="#000000">/src/err_exit.c</text>
</a>
</g>
</g>
<!-- Node1&#45;&gt;Node3 -->
<g id="edge2" class="edge">
<title>Node1&#45;&gt;Node3</title>
<path fill="none" stroke="#191970" d="M409.9367,-80.2114C369.197,-69.3151 317.1416,-55.1808 271,-42 268.072,-41.1636 265.0778,-40.2994 262.0555,-39.4201"/>
<polygon fill="#191970" stroke="#191970" points="409.209,-83.6397 419.7735,-82.8383 411.0151,-76.8767 409.209,-83.6397"/>
</g>
<!-- Node4 -->
<g id="node4" class="node">
<title>Node4</title>
<g id="a_node4"><a xlink:href="fifo_8c.html" target="_top" xlink:title="Contiene l&#39;implementazione delle funzioni specifiche per la gestione delle FIFO. ">
<polygon fill="none" stroke="#000000" points="280,-.5 280,-41.5 402,-41.5 402,-.5 280,-.5"/>
<text text-anchor="start" x="288" y="-29.5" font-family="Helvetica,sans-Serif" font-size="10.00" fill="#000000">/mnt/c/Users/stefa</text>
<text text-anchor="start" x="288" y="-18.5" font-family="Helvetica,sans-Serif" font-size="10.00" fill="#000000">/Desktop/system_call</text>
<text text-anchor="middle" x="341" y="-7.5" font-family="Helvetica,sans-Serif" font-size="10.00" fill="#000000">/src/fifo.c</text>
</a>
</g>
</g>
<!-- Node1&#45;&gt;Node4 -->
<g id="edge3" class="edge">
<title>Node1&#45;&gt;Node4</title>
<path fill="none" stroke="#191970" d="M434.979,-73.3597C416.4355,-63.0283 395.3383,-51.2742 377.8377,-41.5239"/>
<polygon fill="#191970" stroke="#191970" points="433.411,-76.4926 443.8501,-78.3022 436.8179,-70.3776 433.411,-76.4926"/>
</g>
<!-- Node5 -->
<g id="node5" class="node">
<title>Node5</title>
<g id="a_node5"><a xlink:href="files_8c.html" target="_top" xlink:title="Contiene le funzioni specifiche per la gestione dei FILE. ">
<polygon fill="none" stroke="#000000" points="420,-.5 420,-41.5 542,-41.5 542,-.5 420,-.5"/>
<text text-anchor="start" x="428" y="-29.5" font-family="Helvetica,sans-Serif" font-size="10.00" fill="#000000">/mnt/c/Users/stefa</text>
<text text-anchor="start" x="428" y="-18.5" font-family="Helvetica,sans-Serif" font-size="10.00" fill="#000000">/Desktop/system_call</text>
<text text-anchor="middle" x="481" y="-7.5" font-family="Helvetica,sans-Serif" font-size="10.00" fill="#000000">/src/files.c</text>
</a>
</g>
</g>
<!-- Node1&#45;&gt;Node5 -->
<g id="edge4" class="edge">
<title>Node1&#45;&gt;Node5</title>
<path fill="none" stroke="#191970" d="M481,-68.0789C481,-59.2178 481,-49.7747 481,-41.6898"/>
<polygon fill="#191970" stroke="#191970" points="477.5001,-68.0974 481,-78.0974 484.5001,-68.0975 477.5001,-68.0974"/>
</g>
<!-- Node6 -->
<g id="node6" class="node">
<title>Node6</title>
<g id="a_node6"><a xlink:href="semaphore_8c.html" target="_top" xlink:title="Contiene l&#39;implementazione delle funzioni specifiche per la gestione dei SEMAFORI. ">
<polygon fill="none" stroke="#000000" points="560,-.5 560,-41.5 682,-41.5 682,-.5 560,-.5"/>
<text text-anchor="start" x="568" y="-29.5" font-family="Helvetica,sans-Serif" font-size="10.00" fill="#000000">/mnt/c/Users/stefa</text>
<text text-anchor="start" x="568" y="-18.5" font-family="Helvetica,sans-Serif" font-size="10.00" fill="#000000">/Desktop/system_call</text>
<text text-anchor="middle" x="621" y="-7.5" font-family="Helvetica,sans-Serif" font-size="10.00" fill="#000000">/src/semaphore.c</text>
</a>
</g>
</g>
<!-- Node1&#45;&gt;Node6 -->
<g id="edge5" class="edge">
<title>Node1&#45;&gt;Node6</title>
<path fill="none" stroke="#191970" d="M527.021,-73.3597C545.5645,-63.0283 566.6617,-51.2742 584.1623,-41.5239"/>
<polygon fill="#191970" stroke="#191970" points="525.1821,-70.3776 518.1499,-78.3022 528.589,-76.4926 525.1821,-70.3776"/>
</g>
<!-- Node7 -->
<g id="node7" class="node">
<title>Node7</title>
<g id="a_node7"><a xlink:href="server_8c.html" target="_top" xlink:title="Contiene l&#39;implementazione del server. ">
<polygon fill="none" stroke="#000000" points="700,-.5 700,-41.5 822,-41.5 822,-.5 700,-.5"/>
<text text-anchor="start" x="708" y="-29.5" font-family="Helvetica,sans-Serif" font-size="10.00" fill="#000000">/mnt/c/Users/stefa</text>
<text text-anchor="start" x="708" y="-18.5" font-family="Helvetica,sans-Serif" font-size="10.00" fill="#000000">/Desktop/system_call</text>
<text text-anchor="middle" x="761" y="-7.5" font-family="Helvetica,sans-Serif" font-size="10.00" fill="#000000">/src/server.c</text>
</a>
</g>
</g>
<!-- Node1&#45;&gt;Node7 -->
<g id="edge6" class="edge">
<title>Node1&#45;&gt;Node7</title>
<path fill="none" stroke="#191970" d="M552.0633,-80.2114C592.803,-69.3151 644.8584,-55.1808 691,-42 693.928,-41.1636 696.9222,-40.2994 699.9445,-39.4201"/>
<polygon fill="#191970" stroke="#191970" points="550.9849,-76.8767 542.2265,-82.8383 552.791,-83.6397 550.9849,-76.8767"/>
</g>
<!-- Node8 -->
<g id="node8" class="node">
<title>Node8</title>
<g id="a_node8"><a xlink:href="shared__memory_8c.html" target="_top" xlink:title="Contiene l&#39;implementazione delle funzioni specifiche per la gestione della MEMORIA CONDIVISA...">
<polygon fill="none" stroke="#000000" points="840.5,-.5 840.5,-41.5 963.5,-41.5 963.5,-.5 840.5,-.5"/>
<text text-anchor="start" x="848.5" y="-29.5" font-family="Helvetica,sans-Serif" font-size="10.00" fill="#000000">/mnt/c/Users/stefa</text>
<text text-anchor="start" x="848.5" y="-18.5" font-family="Helvetica,sans-Serif" font-size="10.00" fill="#000000">/Desktop/system_call</text>
<text text-anchor="middle" x="902" y="-7.5" font-family="Helvetica,sans-Serif" font-size="10.00" fill="#000000">/src/shared_memory.c</text>
</a>
</g>
</g>
<!-- Node1&#45;&gt;Node8 -->
<g id="edge7" class="edge">
<title>Node1&#45;&gt;Node8</title>
<path fill="none" stroke="#191970" d="M552.3353,-90.0682C623.4243,-80.5388 735.466,-63.8159 831,-42 834.0076,-41.3132 837.0753,-40.5706 840.1654,-39.7887"/>
<polygon fill="#191970" stroke="#191970" points="551.6025,-86.6347 542.1508,-91.4217 552.5248,-93.5737 551.6025,-86.6347"/>
</g>
</g>
</svg>
