<?xml version="1.0" encoding="UTF-8" standalone="no"?>
<!DOCTYPE svg PUBLIC "-//W3C//DTD SVG 1.1//EN"
 "http://www.w3.org/Graphics/SVG/1.1/DTD/svg11.dtd">
<!-- Generated by graphviz version 2.40.1 (20161225.0304)
 -->
<!-- Title: /mnt/c/Users/stefa/Desktop/new/system_call/src/err_exit.c Pages: 1 -->
<svg width="354pt" height="106pt"
 viewBox="0.00 0.00 354.00 106.00" xmlns="http://www.w3.org/2000/svg" xmlns:xlink="http://www.w3.org/1999/xlink">
<g id="graph0" class="graph" transform="scale(1 1) rotate(0) translate(4 102)">
<title>/mnt/c/Users/stefa/Desktop/new/system_call/src/err_exit.c</title>
<!-- Node0 -->
<g id="node1" class="node">
<title>Node0</title>
<polygon fill="#bfbfbf" stroke="#000000" points="119.5,-56.5 119.5,-97.5 241.5,-97.5 241.5,-56.5 119.5,-56.5"/>
<text text-anchor="start" x="127.5" y="-85.5" font-family="Helvetica,sans-Serif" font-size="10.00" fill="#000000">/mnt/c/Users/stefa</text>
<text text-anchor="start" x="127.5" y="-74.5" font-family="Helvetica,sans-Serif" font-size="10.00" fill="#000000">/Desktop/new/system</text>
<text text-anchor="middle" x="180.5" y="-63.5" font-family="Helvetica,sans-Serif" font-size="10.00" fill="#000000">_call/src/err_exit.c</text>
</g>
<!-- Node1 -->
<g id="node2" class="node">
<title>Node1</title>
<g id="a_node2"><a xlink:href="err__exit_8h.html" target="_top" xlink:title="Contiene la definizione della funzione di stampa degli errori. ">
<polygon fill="none" stroke="#000000" points="0,-.5 0,-19.5 63,-19.5 63,-.5 0,-.5"/>
<text text-anchor="middle" x="31.5" y="-7.5" font-family="Helvetica,sans-Serif" font-size="10.00" fill="#000000">err_exit.h</text>
</a>
</g>
</g>
<!-- Node0&#45;&gt;Node1 -->
<g id="edge1" class="edge">
<title>Node0&#45;&gt;Node1</title>
<path fill="none" stroke="#191970" d="M134.5793,-56.3511C111.1055,-45.7958 83.17,-33.2342 62.3058,-23.8523"/>
<polygon fill="#191970" stroke="#191970" points="63.5265,-20.5637 52.9708,-19.6546 60.6557,-26.9479 63.5265,-20.5637"/>
</g>
<!-- Node2 -->
<g id="node3" class="node">
<title>Node2</title>
<polygon fill="none" stroke="#bfbfbf" points="81,-.5 81,-19.5 134,-19.5 134,-.5 81,-.5"/>
<text text-anchor="middle" x="107.5" y="-7.5" font-family="Helvetica,sans-Serif" font-size="10.00" fill="#000000">stdlib.h</text>
</g>
<!-- Node0&#45;&gt;Node2 -->
<g id="edge2" class="edge">
<title>Node0&#45;&gt;Node2</title>
<path fill="none" stroke="#191970" d="M157.8025,-56.168C147.4698,-46.6846 135.4064,-35.6127 125.6836,-26.689"/>
<polygon fill="#191970" stroke="#191970" points="127.8904,-23.9637 118.1563,-19.7805 123.1571,-29.1209 127.8904,-23.9637"/>
</g>
<!-- Node3 -->
<g id="node4" class="node">
<title>Node3</title>
<polygon fill="none" stroke="#bfbfbf" points="152.5,-.5 152.5,-19.5 208.5,-19.5 208.5,-.5 152.5,-.5"/>
<text text-anchor="middle" x="180.5" y="-7.5" font-family="Helvetica,sans-Serif" font-size="10.00" fill="#000000">stdarg.h</text>
</g>
<!-- Node0&#45;&gt;Node3 -->
<g id="edge3" class="edge">
<title>Node0&#45;&gt;Node3</title>
<path fill="none" stroke="#191970" d="M180.5,-56.168C180.5,-47.8226 180.5,-38.2471 180.5,-29.9879"/>
<polygon fill="#191970" stroke="#191970" points="184.0001,-29.7804 180.5,-19.7805 177.0001,-29.7805 184.0001,-29.7804"/>
</g>
<!-- Node4 -->
<g id="node5" class="node">
<title>Node4</title>
<polygon fill="none" stroke="#bfbfbf" points="226.5,-.5 226.5,-19.5 276.5,-19.5 276.5,-.5 226.5,-.5"/>
<text text-anchor="middle" x="251.5" y="-7.5" font-family="Helvetica,sans-Serif" font-size="10.00" fill="#000000">stdio.h</text>
</g>
<!-- Node0&#45;&gt;Node4 -->
<g id="edge4" class="edge">
<title>Node0&#45;&gt;Node4</title>
<path fill="none" stroke="#191970" d="M202.5757,-56.168C212.6253,-46.6846 224.3582,-35.6127 233.8146,-26.689"/>
<polygon fill="#191970" stroke="#191970" points="236.2648,-29.1893 241.1356,-19.7805 231.4605,-24.0982 236.2648,-29.1893"/>
</g>
<!-- Node5 -->
<g id="node6" class="node">
<title>Node5</title>
<polygon fill="none" stroke="#bfbfbf" points="295,-.5 295,-19.5 346,-19.5 346,-.5 295,-.5"/>
<text text-anchor="middle" x="320.5" y="-7.5" font-family="Helvetica,sans-Serif" font-size="10.00" fill="#000000">errno.h</text>
</g>
<!-- Node0&#45;&gt;Node5 -->
<g id="edge5" class="edge">
<title>Node0&#45;&gt;Node5</title>
<path fill="none" stroke="#191970" d="M223.647,-56.3511C245.6031,-45.8435 271.7135,-33.3478 291.2885,-23.9798"/>
<polygon fill="#191970" stroke="#191970" points="292.8168,-27.1286 300.3261,-19.6546 289.795,-20.8144 292.8168,-27.1286"/>
</g>
</g>
</svg>
