<?xml version="1.0" encoding="UTF-8" standalone="no"?>
<!DOCTYPE svg PUBLIC "-//W3C//DTD SVG 1.1//EN"
 "http://www.w3.org/Graphics/SVG/1.1/DTD/svg11.dtd">
<!-- Generated by graphviz version 2.40.1 (20161225.0304)
 -->
<!-- Title: /mnt/c/Users/stefa/Desktop/progetti/system_call/src/err_exit.h Pages: 1 -->
<svg width="1426pt" height="128pt"
 viewBox="0.00 0.00 1426.00 128.00" xmlns="http://www.w3.org/2000/svg" xmlns:xlink="http://www.w3.org/1999/xlink">
<g id="graph0" class="graph" transform="scale(1 1) rotate(0) translate(4 124)">
<title>/mnt/c/Users/stefa/Desktop/progetti/system_call/src/err_exit.h</title>
<!-- Node1 -->
<g id="node1" class="node">
<title>Node1</title>
<polygon fill="#bfbfbf" stroke="#000000" points="632,-78.5 632,-119.5 772,-119.5 772,-78.5 632,-78.5"/>
<text text-anchor="start" x="640" y="-107.5" font-family="Helvetica,sans-Serif" font-size="10.00" fill="#000000">/mnt/c/Users/stefa</text>
<text text-anchor="start" x="640" y="-96.5" font-family="Helvetica,sans-Serif" font-size="10.00" fill="#000000">/Desktop/progetti/system</text>
<text text-anchor="middle" x="702" y="-85.5" font-family="Helvetica,sans-Serif" font-size="10.00" fill="#000000">_call/src/err_exit.h</text>
</g>
<!-- Node2 -->
<g id="node2" class="node">
<title>Node2</title>
<g id="a_node2"><a xlink:href="client_8c.html" target="_top" xlink:title="Contiene l&#39;implementazione del client. ">
<polygon fill="none" stroke="#000000" points="0,-.5 0,-41.5 140,-41.5 140,-.5 0,-.5"/>
<text text-anchor="start" x="8" y="-29.5" font-family="Helvetica,sans-Serif" font-size="10.00" fill="#000000">/mnt/c/Users/stefa</text>
<text text-anchor="start" x="8" y="-18.5" font-family="Helvetica,sans-Serif" font-size="10.00" fill="#000000">/Desktop/progetti/system</text>
<text text-anchor="middle" x="70" y="-7.5" font-family="Helvetica,sans-Serif" font-size="10.00" fill="#000000">_call/src/client.c</text>
</a>
</g>
</g>
<!-- Node1&#45;&gt;Node2 -->
<g id="edge1" class="edge">
<title>Node1&#45;&gt;Node2</title>
<path fill="none" stroke="#191970" d="M621.4807,-94.6762C513.3252,-87.9649 315.4615,-72.5082 149,-42 146.0686,-41.4627 143.0865,-40.8723 140.0818,-40.2411"/>
<polygon fill="#191970" stroke="#191970" points="621.4683,-98.1819 631.6632,-95.2986 621.8954,-91.1949 621.4683,-98.1819"/>
</g>
<!-- Node3 -->
<g id="node3" class="node">
<title>Node3</title>
<g id="a_node3"><a xlink:href="defines_8c.html" target="_top" xlink:title="Contiene l&#39;implementazione delle funzioni specifiche del progetto. ">
<polygon fill="none" stroke="#000000" points="158,-.5 158,-41.5 298,-41.5 298,-.5 158,-.5"/>
<text text-anchor="start" x="166" y="-29.5" font-family="Helvetica,sans-Serif" font-size="10.00" fill="#000000">/mnt/c/Users/stefa</text>
<text text-anchor="start" x="166" y="-18.5" font-family="Helvetica,sans-Serif" font-size="10.00" fill="#000000">/Desktop/progetti/system</text>
<text text-anchor="middle" x="228" y="-7.5" font-family="Helvetica,sans-Serif" font-size="10.00" fill="#000000">_call/src/defines.c</text>
</a>
</g>
</g>
<!-- Node1&#45;&gt;Node3 -->
<g id="edge2" class="edge">
<title>Node1&#45;&gt;Node3</title>
<path fill="none" stroke="#191970" d="M621.6235,-90.1847C541.473,-80.7422 415.0655,-64.082 307,-42 304.0801,-41.4034 301.1077,-40.7633 298.1109,-40.0909"/>
<polygon fill="#191970" stroke="#191970" points="621.3099,-93.6718 631.6486,-91.3565 622.1226,-86.7191 621.3099,-93.6718"/>
</g>
<!-- Node4 -->
<g id="node4" class="node">
<title>Node4</title>
<g id="a_node4"><a xlink:href="err__exit_8c.html" target="_top" xlink:title="Contiene l&#39;implementazione della funzione di stampa degli errori. ">
<polygon fill="none" stroke="#000000" points="316,-.5 316,-41.5 456,-41.5 456,-.5 316,-.5"/>
<text text-anchor="start" x="324" y="-29.5" font-family="Helvetica,sans-Serif" font-size="10.00" fill="#000000">/mnt/c/Users/stefa</text>
<text text-anchor="start" x="324" y="-18.5" font-family="Helvetica,sans-Serif" font-size="10.00" fill="#000000">/Desktop/progetti/system</text>
<text text-anchor="middle" x="386" y="-7.5" font-family="Helvetica,sans-Serif" font-size="10.00" fill="#000000">_call/src/err_exit.c</text>
</a>
</g>
</g>
<!-- Node1&#45;&gt;Node4 -->
<g id="edge3" class="edge">
<title>Node1&#45;&gt;Node4</title>
<path fill="none" stroke="#191970" d="M621.9842,-80.2559C575.9932,-69.3572 517.1713,-55.2059 465,-42 462.1109,-41.2687 459.1642,-40.516 456.1887,-39.7505"/>
<polygon fill="#191970" stroke="#191970" points="621.3558,-83.7038 631.8931,-82.6008 622.9679,-76.892 621.3558,-83.7038"/>
</g>
<!-- Node5 -->
<g id="node5" class="node">
<title>Node5</title>
<g id="a_node5"><a xlink:href="fifo_8c.html" target="_top" xlink:title="Contiene l&#39;implementazione delle funzioni specifiche per la gestione delle FIFO. ">
<polygon fill="none" stroke="#000000" points="474,-.5 474,-41.5 614,-41.5 614,-.5 474,-.5"/>
<text text-anchor="start" x="482" y="-29.5" font-family="Helvetica,sans-Serif" font-size="10.00" fill="#000000">/mnt/c/Users/stefa</text>
<text text-anchor="start" x="482" y="-18.5" font-family="Helvetica,sans-Serif" font-size="10.00" fill="#000000">/Desktop/progetti/system</text>
<text text-anchor="middle" x="544" y="-7.5" font-family="Helvetica,sans-Serif" font-size="10.00" fill="#000000">_call/src/fifo.c</text>
</a>
</g>
</g>
<!-- Node1&#45;&gt;Node5 -->
<g id="edge4" class="edge">
<title>Node1&#45;&gt;Node5</title>
<path fill="none" stroke="#191970" d="M650.9165,-73.7816C629.7844,-63.3493 605.594,-51.4072 585.574,-41.5239"/>
<polygon fill="#191970" stroke="#191970" points="649.5575,-77.0139 660.0737,-78.3022 652.6562,-70.7371 649.5575,-77.0139"/>
</g>
<!-- Node6 -->
<g id="node6" class="node">
<title>Node6</title>
<g id="a_node6"><a xlink:href="files_8c.html" target="_top" xlink:title="Contiene le funzioni specifiche per la gestione dei FILE. ">
<polygon fill="none" stroke="#000000" points="632,-.5 632,-41.5 772,-41.5 772,-.5 632,-.5"/>
<text text-anchor="start" x="640" y="-29.5" font-family="Helvetica,sans-Serif" font-size="10.00" fill="#000000">/mnt/c/Users/stefa</text>
<text text-anchor="start" x="640" y="-18.5" font-family="Helvetica,sans-Serif" font-size="10.00" fill="#000000">/Desktop/progetti/system</text>
<text text-anchor="middle" x="702" y="-7.5" font-family="Helvetica,sans-Serif" font-size="10.00" fill="#000000">_call/src/files.c</text>
</a>
</g>
</g>
<!-- Node1&#45;&gt;Node6 -->
<g id="edge5" class="edge">
<title>Node1&#45;&gt;Node6</title>
<path fill="none" stroke="#191970" d="M702,-68.0789C702,-59.2178 702,-49.7747 702,-41.6898"/>
<polygon fill="#191970" stroke="#191970" points="698.5001,-68.0974 702,-78.0974 705.5001,-68.0975 698.5001,-68.0974"/>
</g>
<!-- Node7 -->
<g id="node7" class="node">
<title>Node7</title>
<g id="a_node7"><a xlink:href="message__queue_8c.html" target="_top" xlink:title="Contiene l&#39;implementazione delle funzioni specifiche per la gestione delle CODE DEI MESSAGGI...">
<polygon fill="none" stroke="#000000" points="790.5,-.5 790.5,-41.5 937.5,-41.5 937.5,-.5 790.5,-.5"/>
<text text-anchor="start" x="798.5" y="-29.5" font-family="Helvetica,sans-Serif" font-size="10.00" fill="#000000">/mnt/c/Users/stefa</text>
<text text-anchor="start" x="798.5" y="-18.5" font-family="Helvetica,sans-Serif" font-size="10.00" fill="#000000">/Desktop/progetti/system</text>
<text text-anchor="middle" x="864" y="-7.5" font-family="Helvetica,sans-Serif" font-size="10.00" fill="#000000">_call/src/message_queue.c</text>
</a>
</g>
</g>
<!-- Node1&#45;&gt;Node7 -->
<g id="edge6" class="edge">
<title>Node1&#45;&gt;Node7</title>
<path fill="none" stroke="#191970" d="M754.0854,-73.9218C775.8213,-63.4564 800.7546,-51.4515 821.3735,-41.5239"/>
<polygon fill="#191970" stroke="#191970" points="752.4794,-70.8105 744.9877,-78.3022 755.5161,-77.1175 752.4794,-70.8105"/>
</g>
<!-- Node8 -->
<g id="node8" class="node">
<title>Node8</title>
<g id="a_node8"><a xlink:href="semaphore_8c.html" target="_top" xlink:title="Contiene l&#39;implementazione delle funzioni specifiche per la gestione dei SEMAFORI. ">
<polygon fill="none" stroke="#000000" points="956,-.5 956,-41.5 1096,-41.5 1096,-.5 956,-.5"/>
<text text-anchor="start" x="964" y="-29.5" font-family="Helvetica,sans-Serif" font-size="10.00" fill="#000000">/mnt/c/Users/stefa</text>
<text text-anchor="start" x="964" y="-18.5" font-family="Helvetica,sans-Serif" font-size="10.00" fill="#000000">/Desktop/progetti/system</text>
<text text-anchor="middle" x="1026" y="-7.5" font-family="Helvetica,sans-Serif" font-size="10.00" fill="#000000">_call/src/semaphore.c</text>
</a>
</g>
</g>
<!-- Node1&#45;&gt;Node8 -->
<g id="edge7" class="edge">
<title>Node1&#45;&gt;Node8</title>
<path fill="none" stroke="#191970" d="M782.1089,-81.0263C830.0388,-70.1073 892.109,-55.6774 947,-42 949.8918,-41.2794 952.8408,-40.5358 955.8181,-39.7777"/>
<polygon fill="#191970" stroke="#191970" points="781.0784,-77.6712 772.1034,-83.3015 782.6306,-84.497 781.0784,-77.6712"/>
</g>
<!-- Node9 -->
<g id="node9" class="node">
<title>Node9</title>
<g id="a_node9"><a xlink:href="server_8c.html" target="_top" xlink:title="Contiene l&#39;implementazione del server. ">
<polygon fill="none" stroke="#000000" points="1114,-.5 1114,-41.5 1254,-41.5 1254,-.5 1114,-.5"/>
<text text-anchor="start" x="1122" y="-29.5" font-family="Helvetica,sans-Serif" font-size="10.00" fill="#000000">/mnt/c/Users/stefa</text>
<text text-anchor="start" x="1122" y="-18.5" font-family="Helvetica,sans-Serif" font-size="10.00" fill="#000000">/Desktop/progetti/system</text>
<text text-anchor="middle" x="1184" y="-7.5" font-family="Helvetica,sans-Serif" font-size="10.00" fill="#000000">_call/src/server.c</text>
</a>
</g>
</g>
<!-- Node1&#45;&gt;Node9 -->
<g id="edge8" class="edge">
<title>Node1&#45;&gt;Node9</title>
<path fill="none" stroke="#191970" d="M782.5371,-90.4745C864.2332,-81.1562 994.0945,-64.5002 1105,-42 1107.9207,-41.4074 1110.8939,-40.7708 1113.8912,-40.1013"/>
<polygon fill="#191970" stroke="#191970" points="781.8675,-87.0278 772.3243,-91.6297 782.6543,-93.9835 781.8675,-87.0278"/>
</g>
<!-- Node10 -->
<g id="node10" class="node">
<title>Node10</title>
<g id="a_node10"><a xlink:href="shared__memory_8c.html" target="_top" xlink:title="Contiene l&#39;implementazione delle funzioni specifiche per la gestione della MEMORIA CONDIVISA...">
<polygon fill="none" stroke="#000000" points="1272,-.5 1272,-41.5 1418,-41.5 1418,-.5 1272,-.5"/>
<text text-anchor="start" x="1280" y="-29.5" font-family="Helvetica,sans-Serif" font-size="10.00" fill="#000000">/mnt/c/Users/stefa</text>
<text text-anchor="start" x="1280" y="-18.5" font-family="Helvetica,sans-Serif" font-size="10.00" fill="#000000">/Desktop/progetti/system</text>
<text text-anchor="middle" x="1345" y="-7.5" font-family="Helvetica,sans-Serif" font-size="10.00" fill="#000000">_call/src/shared_memory.c</text>
</a>
</g>
</g>
<!-- Node1&#45;&gt;Node10 -->
<g id="edge9" class="edge">
<title>Node1&#45;&gt;Node10</title>
<path fill="none" stroke="#191970" d="M782.7369,-94.5973C892.2097,-87.7643 1093.5276,-72.136 1263,-42 1265.8937,-41.4854 1268.8358,-40.9231 1271.801,-40.3236"/>
<polygon fill="#191970" stroke="#191970" points="782.1997,-91.1237 772.4336,-95.2313 782.6297,-98.1104 782.1997,-91.1237"/>
</g>
</g>
</svg>
