<?xml version="1.0" encoding="UTF-8" standalone="no"?>
<!DOCTYPE svg PUBLIC "-//W3C//DTD SVG 1.1//EN"
 "http://www.w3.org/Graphics/SVG/1.1/DTD/svg11.dtd">
<!-- Generated by graphviz version 2.40.1 (20161225.0304)
 -->
<!-- Title: create_fifo Pages: 1 -->
<svg width="307pt" height="104pt"
 viewBox="0.00 0.00 307.00 104.00" xmlns="http://www.w3.org/2000/svg" xmlns:xlink="http://www.w3.org/1999/xlink">
<g id="graph0" class="graph" transform="scale(1 1) rotate(0) translate(4 100)">
<title>create_fifo</title>
<!-- Node3 -->
<g id="node1" class="node">
<title>Node3</title>
<polygon fill="#bfbfbf" stroke="#000000" points="0,-38.5 0,-57.5 68,-57.5 68,-38.5 0,-38.5"/>
<text text-anchor="middle" x="34" y="-45.5" font-family="Helvetica,sans-Serif" font-size="10.00" fill="#000000">create_fifo</text>
</g>
<!-- Node4 -->
<g id="node2" class="node">
<title>Node4</title>
<g id="a_node2"><a xlink:href="client_8h.html#a48d605ff689f470746c858648f0a98c2" target="_top" xlink:title="Handler del segnale SIGINT. ">
<polygon fill="none" stroke="#000000" points="104,-76.5 104,-95.5 222,-95.5 222,-76.5 104,-76.5"/>
<text text-anchor="middle" x="163" y="-83.5" font-family="Helvetica,sans-Serif" font-size="10.00" fill="#000000">SIGINTSignalHandler</text>
</a>
</g>
</g>
<!-- Node3&#45;&gt;Node4 -->
<g id="edge1" class="edge">
<title>Node3&#45;&gt;Node4</title>
<path fill="none" stroke="#191970" d="M76.554,-60.5353C94.103,-65.7048 114.1127,-71.5991 130.4583,-76.4141"/>
<polygon fill="#191970" stroke="#191970" points="77.1336,-57.0574 66.5521,-57.589 75.1556,-63.7721 77.1336,-57.0574"/>
</g>
<!-- Node6 -->
<g id="node4" class="node">
<title>Node6</title>
<g id="a_node4"><a xlink:href="fifo_8h.html#ae4a1d7aadbfb8d041fccec7ebf8ab431" target="_top" xlink:title="Garantisce la creazione di una nuova FIFO cancellando l&#39;eventuale file della FIFO esistente...">
<polygon fill="none" stroke="#000000" points="116,-38.5 116,-57.5 210,-57.5 210,-38.5 116,-38.5"/>
<text text-anchor="middle" x="163" y="-45.5" font-family="Helvetica,sans-Serif" font-size="10.00" fill="#000000">create_new_fifo</text>
</a>
</g>
</g>
<!-- Node3&#45;&gt;Node6 -->
<g id="edge3" class="edge">
<title>Node3&#45;&gt;Node6</title>
<path fill="none" stroke="#191970" d="M78.5396,-48C90.6298,-48 103.758,-48 115.9804,-48"/>
<polygon fill="#191970" stroke="#191970" points="78.231,-44.5001 68.231,-48 78.2309,-51.5001 78.231,-44.5001"/>
</g>
<!-- Node7 -->
<g id="node5" class="node">
<title>Node7</title>
<g id="a_node5"><a xlink:href="server_8c.html#a0ddf1224851353fc92bfbff6f499fa97" target="_top" xlink:title="main">
<polygon fill="none" stroke="#000000" points="142.5,-.5 142.5,-19.5 183.5,-19.5 183.5,-.5 142.5,-.5"/>
<text text-anchor="middle" x="163" y="-7.5" font-family="Helvetica,sans-Serif" font-size="10.00" fill="#000000">main</text>
</a>
</g>
</g>
<!-- Node3&#45;&gt;Node7 -->
<g id="edge4" class="edge">
<title>Node3&#45;&gt;Node7</title>
<path fill="none" stroke="#191970" d="M76.3738,-35.5178C98.4487,-29.0151 124.4579,-21.3535 142.1754,-16.1344"/>
<polygon fill="#191970" stroke="#191970" points="75.1556,-32.2279 66.5521,-38.411 77.1336,-38.9426 75.1556,-32.2279"/>
</g>
<!-- Node5 -->
<g id="node3" class="node">
<title>Node5</title>
<g id="a_node3"><a xlink:href="client_8c.html#a0ddf1224851353fc92bfbff6f499fa97" target="_top" xlink:title="main">
<polygon fill="none" stroke="#000000" points="258,-76.5 258,-95.5 299,-95.5 299,-76.5 258,-76.5"/>
<text text-anchor="middle" x="278.5" y="-83.5" font-family="Helvetica,sans-Serif" font-size="10.00" fill="#000000">main</text>
</a>
</g>
</g>
<!-- Node4&#45;&gt;Node5 -->
<g id="edge2" class="edge">
<title>Node4&#45;&gt;Node5</title>
<path fill="none" stroke="#191970" d="M232.2973,-86C241.5856,-86 250.4584,-86 257.9009,-86"/>
<polygon fill="#191970" stroke="#191970" points="232.1034,-82.5001 222.1034,-86 232.1034,-89.5001 232.1034,-82.5001"/>
</g>
</g>
</svg>
