<?xml version="1.0" encoding="UTF-8" standalone="no"?>
<!DOCTYPE svg PUBLIC "-//W3C//DTD SVG 1.1//EN"
 "http://www.w3.org/Graphics/SVG/1.1/DTD/svg11.dtd">
<!-- Generated by graphviz version 2.40.1 (20161225.0304)
 -->
<!-- Title: make_fifo Pages: 1 -->
<svg width="408pt" height="104pt"
 viewBox="0.00 0.00 408.00 104.00" xmlns="http://www.w3.org/2000/svg" xmlns:xlink="http://www.w3.org/1999/xlink">
<g id="graph0" class="graph" transform="scale(1 1) rotate(0) translate(4 100)">
<title>make_fifo</title>
<!-- Node15 -->
<g id="node1" class="node">
<title>Node15</title>
<polygon fill="#bfbfbf" stroke="#000000" points="0,-38.5 0,-57.5 65,-57.5 65,-38.5 0,-38.5"/>
<text text-anchor="middle" x="32.5" y="-45.5" font-family="Helvetica,sans-Serif" font-size="10.00" fill="#000000">make_fifo</text>
</g>
<!-- Node16 -->
<g id="node2" class="node">
<title>Node16</title>
<g id="a_node2"><a xlink:href="fifo_8h.html#a54a1ae8162825128cf02f95692402c18" target="_top" xlink:title="Facilita la creazione di una FIFO (o ne ottiene una esistente) in modalita&#39; lettura o scrittura...">
<polygon fill="none" stroke="#000000" points="101,-38.5 101,-57.5 169,-57.5 169,-38.5 101,-38.5"/>
<text text-anchor="middle" x="135" y="-45.5" font-family="Helvetica,sans-Serif" font-size="10.00" fill="#000000">create_fifo</text>
</a>
</g>
</g>
<!-- Node15&#45;&gt;Node16 -->
<g id="edge1" class="edge">
<title>Node15&#45;&gt;Node16</title>
<path fill="none" stroke="#191970" d="M75.3573,-48C83.8555,-48 92.6702,-48 100.8323,-48"/>
<polygon fill="#191970" stroke="#191970" points="75.2135,-44.5001 65.2135,-48 75.2134,-51.5001 75.2135,-44.5001"/>
</g>
<!-- Node17 -->
<g id="node3" class="node">
<title>Node17</title>
<g id="a_node3"><a xlink:href="client_8h.html#a48d605ff689f470746c858648f0a98c2" target="_top" xlink:title="Handler del segnale SIGINT. ">
<polygon fill="none" stroke="#000000" points="205,-76.5 205,-95.5 323,-95.5 323,-76.5 205,-76.5"/>
<text text-anchor="middle" x="264" y="-83.5" font-family="Helvetica,sans-Serif" font-size="10.00" fill="#000000">SIGINTSignalHandler</text>
</a>
</g>
</g>
<!-- Node16&#45;&gt;Node17 -->
<g id="edge2" class="edge">
<title>Node16&#45;&gt;Node17</title>
<path fill="none" stroke="#191970" d="M177.554,-60.5353C195.103,-65.7048 215.1127,-71.5991 231.4583,-76.4141"/>
<polygon fill="#191970" stroke="#191970" points="178.1336,-57.0574 167.5521,-57.589 176.1556,-63.7721 178.1336,-57.0574"/>
</g>
<!-- Node19 -->
<g id="node5" class="node">
<title>Node19</title>
<g id="a_node5"><a xlink:href="fifo_8h.html#ae4a1d7aadbfb8d041fccec7ebf8ab431" target="_top" xlink:title="Garantisce la creazione di una nuova FIFO cancellando l&#39;eventuale file della FIFO esistente...">
<polygon fill="none" stroke="#000000" points="217,-38.5 217,-57.5 311,-57.5 311,-38.5 217,-38.5"/>
<text text-anchor="middle" x="264" y="-45.5" font-family="Helvetica,sans-Serif" font-size="10.00" fill="#000000">create_new_fifo</text>
</a>
</g>
</g>
<!-- Node16&#45;&gt;Node19 -->
<g id="edge4" class="edge">
<title>Node16&#45;&gt;Node19</title>
<path fill="none" stroke="#191970" d="M179.5396,-48C191.6298,-48 204.758,-48 216.9804,-48"/>
<polygon fill="#191970" stroke="#191970" points="179.231,-44.5001 169.231,-48 179.2309,-51.5001 179.231,-44.5001"/>
</g>
<!-- Node20 -->
<g id="node6" class="node">
<title>Node20</title>
<g id="a_node6"><a xlink:href="server_8c.html#a0ddf1224851353fc92bfbff6f499fa97" target="_top" xlink:title="main">
<polygon fill="none" stroke="#000000" points="243.5,-.5 243.5,-19.5 284.5,-19.5 284.5,-.5 243.5,-.5"/>
<text text-anchor="middle" x="264" y="-7.5" font-family="Helvetica,sans-Serif" font-size="10.00" fill="#000000">main</text>
</a>
</g>
</g>
<!-- Node16&#45;&gt;Node20 -->
<g id="edge5" class="edge">
<title>Node16&#45;&gt;Node20</title>
<path fill="none" stroke="#191970" d="M177.3738,-35.5178C199.4487,-29.0151 225.4579,-21.3535 243.1754,-16.1344"/>
<polygon fill="#191970" stroke="#191970" points="176.1556,-32.2279 167.5521,-38.411 178.1336,-38.9426 176.1556,-32.2279"/>
</g>
<!-- Node18 -->
<g id="node4" class="node">
<title>Node18</title>
<g id="a_node4"><a xlink:href="client_8c.html#a0ddf1224851353fc92bfbff6f499fa97" target="_top" xlink:title="main">
<polygon fill="none" stroke="#000000" points="359,-76.5 359,-95.5 400,-95.5 400,-76.5 359,-76.5"/>
<text text-anchor="middle" x="379.5" y="-83.5" font-family="Helvetica,sans-Serif" font-size="10.00" fill="#000000">main</text>
</a>
</g>
</g>
<!-- Node17&#45;&gt;Node18 -->
<g id="edge3" class="edge">
<title>Node17&#45;&gt;Node18</title>
<path fill="none" stroke="#191970" d="M333.2973,-86C342.5856,-86 351.4584,-86 358.9009,-86"/>
<polygon fill="#191970" stroke="#191970" points="333.1034,-82.5001 323.1034,-86 333.1034,-89.5001 333.1034,-82.5001"/>
</g>
</g>
</svg>
