<?xml version="1.0" encoding="UTF-8" standalone="no"?>
<!DOCTYPE svg PUBLIC "-//W3C//DTD SVG 1.1//EN"
 "http://www.w3.org/Graphics/SVG/1.1/DTD/svg11.dtd">
<!-- Generated by graphviz version 2.40.1 (20161225.0304)
 -->
<!-- Title: /mnt/c/Users/stefa/Desktop/system_call/src/fifo.c Pages: 1 -->
<svg width="614pt" height="162pt"
 viewBox="0.00 0.00 613.74 162.00" xmlns="http://www.w3.org/2000/svg" xmlns:xlink="http://www.w3.org/1999/xlink">
<g id="graph0" class="graph" transform="scale(1 1) rotate(0) translate(4 158)">
<title>/mnt/c/Users/stefa/Desktop/system_call/src/fifo.c</title>
<!-- Node0 -->
<g id="node1" class="node">
<title>Node0</title>
<polygon fill="#bfbfbf" stroke="#000000" points="256.5,-112.5 256.5,-153.5 378.5,-153.5 378.5,-112.5 256.5,-112.5"/>
<text text-anchor="start" x="264.5" y="-141.5" font-family="Helvetica,sans-Serif" font-size="10.00" fill="#000000">/mnt/c/Users/stefa</text>
<text text-anchor="start" x="264.5" y="-130.5" font-family="Helvetica,sans-Serif" font-size="10.00" fill="#000000">/Desktop/system_call</text>
<text text-anchor="middle" x="317.5" y="-119.5" font-family="Helvetica,sans-Serif" font-size="10.00" fill="#000000">/src/fifo.c</text>
</g>
<!-- Node1 -->
<g id="node2" class="node">
<title>Node1</title>
<polygon fill="none" stroke="#bfbfbf" points="0,-.5 0,-19.5 53,-19.5 53,-.5 0,-.5"/>
<text text-anchor="middle" x="26.5" y="-7.5" font-family="Helvetica,sans-Serif" font-size="10.00" fill="#000000">stdlib.h</text>
</g>
<!-- Node0&#45;&gt;Node1 -->
<g id="edge1" class="edge">
<title>Node0&#45;&gt;Node1</title>
<path fill="none" stroke="#191970" d="M256.3002,-130.287C177.5204,-125.3631 47.2089,-111.885 17.5,-76 6.8182,-63.0976 11.105,-43.6672 16.8415,-29.2262"/>
<polygon fill="#191970" stroke="#191970" points="20.189,-30.3146 21.0815,-19.7574 13.8002,-27.4538 20.189,-30.3146"/>
</g>
<!-- Node2 -->
<g id="node3" class="node">
<title>Node2</title>
<polygon fill="none" stroke="#bfbfbf" points="333.5,-.5 333.5,-19.5 383.5,-19.5 383.5,-.5 333.5,-.5"/>
<text text-anchor="middle" x="358.5" y="-7.5" font-family="Helvetica,sans-Serif" font-size="10.00" fill="#000000">stdio.h</text>
</g>
<!-- Node0&#45;&gt;Node2 -->
<g id="edge2" class="edge">
<title>Node0&#45;&gt;Node2</title>
<path fill="none" stroke="#191970" d="M378.6844,-129.5462C453.5803,-123.8914 573.8931,-109.6982 601.5,-76 607.1331,-69.1239 607.1708,-62.845 601.5,-56 575.5301,-24.6528 454.7181,-14.5061 393.8076,-11.3517"/>
<polygon fill="#191970" stroke="#191970" points="393.6743,-7.8413 383.5175,-10.8561 393.3375,-14.8332 393.6743,-7.8413"/>
</g>
<!-- Node3 -->
<g id="node4" class="node">
<title>Node3</title>
<polygon fill="none" stroke="#bfbfbf" points="101,-56.5 101,-75.5 160,-75.5 160,-56.5 101,-56.5"/>
<text text-anchor="middle" x="130.5" y="-63.5" font-family="Helvetica,sans-Serif" font-size="10.00" fill="#000000">sys/ipc.h</text>
</g>
<!-- Node0&#45;&gt;Node3 -->
<g id="edge3" class="edge">
<title>Node0&#45;&gt;Node3</title>
<path fill="none" stroke="#191970" d="M260.123,-112.4425C229.659,-101.5275 193.1492,-88.4465 166.6515,-78.9527"/>
<polygon fill="#191970" stroke="#191970" points="167.6142,-75.5798 157.0196,-75.5017 165.2531,-82.1696 167.6142,-75.5798"/>
</g>
<!-- Node4 -->
<g id="node5" class="node">
<title>Node4</title>
<polygon fill="none" stroke="#bfbfbf" points="178.5,-56.5 178.5,-75.5 242.5,-75.5 242.5,-56.5 178.5,-56.5"/>
<text text-anchor="middle" x="210.5" y="-63.5" font-family="Helvetica,sans-Serif" font-size="10.00" fill="#000000">sys/stat.h</text>
</g>
<!-- Node0&#45;&gt;Node4 -->
<g id="edge4" class="edge">
<title>Node0&#45;&gt;Node4</title>
<path fill="none" stroke="#191970" d="M284.5234,-112.3511C268.3529,-102.2256 249.2339,-90.254 234.4775,-81.0139"/>
<polygon fill="#191970" stroke="#191970" points="236.2516,-77.9954 225.9186,-75.6546 232.5366,-83.9282 236.2516,-77.9954"/>
</g>
<!-- Node5 -->
<g id="node6" class="node">
<title>Node5</title>
<polygon fill="none" stroke="#bfbfbf" points="261,-56.5 261,-75.5 308,-75.5 308,-56.5 261,-56.5"/>
<text text-anchor="middle" x="284.5" y="-63.5" font-family="Helvetica,sans-Serif" font-size="10.00" fill="#000000">fcntl.h</text>
</g>
<!-- Node0&#45;&gt;Node5 -->
<g id="edge5" class="edge">
<title>Node0&#45;&gt;Node5</title>
<path fill="none" stroke="#191970" d="M307.2395,-112.168C302.9422,-103.4433 297.9827,-93.374 293.7942,-84.87"/>
<polygon fill="#191970" stroke="#191970" points="296.8756,-83.2049 289.3172,-75.7805 290.596,-86.2979 296.8756,-83.2049"/>
</g>
<!-- Node6 -->
<g id="node7" class="node">
<title>Node6</title>
<polygon fill="none" stroke="#bfbfbf" points="326,-56.5 326,-75.5 377,-75.5 377,-56.5 326,-56.5"/>
<text text-anchor="middle" x="351.5" y="-63.5" font-family="Helvetica,sans-Serif" font-size="10.00" fill="#000000">errno.h</text>
</g>
<!-- Node0&#45;&gt;Node6 -->
<g id="edge6" class="edge">
<title>Node0&#45;&gt;Node6</title>
<path fill="none" stroke="#191970" d="M328.0714,-112.168C332.4989,-103.4433 337.6087,-93.374 341.9242,-84.87"/>
<polygon fill="#191970" stroke="#191970" points="345.1326,-86.2818 346.5368,-75.7805 338.8903,-83.1141 345.1326,-86.2818"/>
</g>
<!-- Node7 -->
<g id="node8" class="node">
<title>Node7</title>
<polygon fill="none" stroke="#bfbfbf" points="395.5,-56.5 395.5,-75.5 451.5,-75.5 451.5,-56.5 395.5,-56.5"/>
<text text-anchor="middle" x="423.5" y="-63.5" font-family="Helvetica,sans-Serif" font-size="10.00" fill="#000000">unistd.h</text>
</g>
<!-- Node0&#45;&gt;Node7 -->
<g id="edge7" class="edge">
<title>Node0&#45;&gt;Node7</title>
<path fill="none" stroke="#191970" d="M350.1684,-112.3511C366.1878,-102.2256 385.1281,-90.254 399.7466,-81.0139"/>
<polygon fill="#191970" stroke="#191970" points="401.6425,-83.9562 408.2255,-75.6546 397.9024,-78.0391 401.6425,-83.9562"/>
</g>
<!-- Node8 -->
<g id="node9" class="node">
<title>Node8</title>
<g id="a_node9"><a xlink:href="err__exit_8h.html" target="_top" xlink:title="Contiene la definizione della funzione di stampa degli errori. ">
<polygon fill="none" stroke="#000000" points="470,-56.5 470,-75.5 533,-75.5 533,-56.5 470,-56.5"/>
<text text-anchor="middle" x="501.5" y="-63.5" font-family="Helvetica,sans-Serif" font-size="10.00" fill="#000000">err_exit.h</text>
</a>
</g>
</g>
<!-- Node0&#45;&gt;Node8 -->
<g id="edge8" class="edge">
<title>Node0&#45;&gt;Node8</title>
<path fill="none" stroke="#191970" d="M373.9565,-112.4425C403.9318,-101.5275 439.8558,-88.4465 465.9285,-78.9527"/>
<polygon fill="#191970" stroke="#191970" points="467.2069,-82.212 475.4058,-75.5017 464.8118,-75.6345 467.2069,-82.212"/>
</g>
<!-- Node9 -->
<g id="node10" class="node">
<title>Node9</title>
<g id="a_node10"><a xlink:href="fifo_8h.html" target="_top" xlink:title="Contiene la definizioni di variabili e funzioni specifiche per la gestione delle FIFO. ">
<polygon fill="none" stroke="#000000" points="551,-56.5 551,-75.5 592,-75.5 592,-56.5 551,-56.5"/>
<text text-anchor="middle" x="571.5" y="-63.5" font-family="Helvetica,sans-Serif" font-size="10.00" fill="#000000">fifo.h</text>
</a>
</g>
</g>
<!-- Node0&#45;&gt;Node9 -->
<g id="edge9" class="edge">
<title>Node0&#45;&gt;Node9</title>
<path fill="none" stroke="#191970" d="M378.5182,-119.0078C421.6845,-108.7731 481.0756,-94.0167 541.303,-76.2016"/>
<polygon fill="#191970" stroke="#191970" points="542.3919,-79.5293 550.9739,-73.3164 540.3906,-72.8214 542.3919,-79.5293"/>
</g>
<!-- Node10 -->
<g id="node11" class="node">
<title>Node10</title>
<g id="a_node11"><a xlink:href="debug_8h.html" target="_top" xlink:title="Contiene la definizioni di variabili e funzioni per il debugging. ">
<polygon fill="none" stroke="#000000" points="26.5,-56.5 26.5,-75.5 82.5,-75.5 82.5,-56.5 26.5,-56.5"/>
<text text-anchor="middle" x="54.5" y="-63.5" font-family="Helvetica,sans-Serif" font-size="10.00" fill="#000000">debug.h</text>
</a>
</g>
</g>
<!-- Node0&#45;&gt;Node10 -->
<g id="edge10" class="edge">
<title>Node0&#45;&gt;Node10</title>
<path fill="none" stroke="#191970" d="M256.0389,-117.7967C212.8592,-107.0468 153.4928,-92.1304 92.5593,-76.2495"/>
<polygon fill="#191970" stroke="#191970" points="93.3285,-72.8331 82.7687,-73.6929 91.5599,-79.606 93.3285,-72.8331"/>
</g>
<!-- Node10&#45;&gt;Node1 -->
<g id="edge12" class="edge">
<title>Node10&#45;&gt;Node1</title>
<path fill="none" stroke="#191970" d="M49.6228,-56.2455C45.8487,-48.6973 40.5079,-38.0158 35.9099,-28.8197"/>
<polygon fill="#191970" stroke="#191970" points="38.924,-27.0217 31.3213,-19.6427 32.663,-30.1522 38.924,-27.0217"/>
</g>
<!-- Node10&#45;&gt;Node2 -->
<g id="edge11" class="edge">
<title>Node10&#45;&gt;Node2</title>
<path fill="none" stroke="#191970" d="M82.7147,-58.0833C85.6718,-57.3408 88.641,-56.6312 91.5,-56 174.0036,-37.7855 272.1796,-22.4847 323.4157,-14.9763"/>
<polygon fill="#191970" stroke="#191970" points="323.924,-18.4393 333.3164,-13.537 322.9169,-11.5121 323.924,-18.4393"/>
</g>
</g>
</svg>
