<?xml version="1.0" encoding="UTF-8" standalone="no"?>
<!DOCTYPE svg PUBLIC "-//W3C//DTD SVG 1.1//EN"
 "http://www.w3.org/Graphics/SVG/1.1/DTD/svg11.dtd">
<!-- Generated by graphviz version 2.40.1 (20161225.0304)
 -->
<!-- Title: /mnt/c/Users/stefa/Desktop/system_call/src/fifo.c Pages: 1 -->
<svg width="136pt" height="106pt"
 viewBox="0.00 0.00 135.50 106.00" xmlns="http://www.w3.org/2000/svg" xmlns:xlink="http://www.w3.org/1999/xlink">
<g id="graph0" class="graph" transform="scale(1 1) rotate(0) translate(4 102)">
<title>/mnt/c/Users/stefa/Desktop/system_call/src/fifo.c</title>
<!-- Node0 -->
<g id="node1" class="node">
<title>Node0</title>
<polygon fill="#bfbfbf" stroke="#000000" points="5.5,-56.5 5.5,-97.5 127.5,-97.5 127.5,-56.5 5.5,-56.5"/>
<text text-anchor="start" x="13.5" y="-85.5" font-family="Helvetica,sans-Serif" font-size="10.00" fill="#000000">/mnt/c/Users/stefa</text>
<text text-anchor="start" x="13.5" y="-74.5" font-family="Helvetica,sans-Serif" font-size="10.00" fill="#000000">/Desktop/system_call</text>
<text text-anchor="middle" x="66.5" y="-63.5" font-family="Helvetica,sans-Serif" font-size="10.00" fill="#000000">/src/fifo.c</text>
</g>
<!-- Node1 -->
<g id="node2" class="node">
<title>Node1</title>
<g id="a_node2"><a xlink:href="err__exit_8h.html" target="_top" xlink:title="Contiene la definizione della funzione di stampa degli errori. ">
<polygon fill="none" stroke="#000000" points="0,-.5 0,-19.5 63,-19.5 63,-.5 0,-.5"/>
<text text-anchor="middle" x="31.5" y="-7.5" font-family="Helvetica,sans-Serif" font-size="10.00" fill="#000000">err_exit.h</text>
</a>
</g>
</g>
<!-- Node0&#45;&gt;Node1 -->
<g id="edge1" class="edge">
<title>Node0&#45;&gt;Node1</title>
<path fill="none" stroke="#191970" d="M55.6176,-56.168C51.0599,-47.4433 45.7999,-37.374 41.3575,-28.87"/>
<polygon fill="#191970" stroke="#191970" points="44.3417,-27.0234 36.6092,-19.7805 38.1372,-30.2646 44.3417,-27.0234"/>
</g>
<!-- Node2 -->
<g id="node3" class="node">
<title>Node2</title>
<g id="a_node3"><a xlink:href="fifo_8h.html" target="_top" xlink:title="Contiene la definizioni di variabili e funzioni specifiche per la gestione delle FIFO. ">
<polygon fill="none" stroke="#000000" points="81,-.5 81,-19.5 122,-19.5 122,-.5 81,-.5"/>
<text text-anchor="middle" x="101.5" y="-7.5" font-family="Helvetica,sans-Serif" font-size="10.00" fill="#000000">fifo.h</text>
</a>
</g>
</g>
<!-- Node0&#45;&gt;Node2 -->
<g id="edge2" class="edge">
<title>Node0&#45;&gt;Node2</title>
<path fill="none" stroke="#191970" d="M77.3824,-56.168C81.9401,-47.4433 87.2001,-37.374 91.6425,-28.87"/>
<polygon fill="#191970" stroke="#191970" points="94.8628,-30.2646 96.3908,-19.7805 88.6583,-27.0234 94.8628,-30.2646"/>
</g>
</g>
</svg>
