<?xml version="1.0" encoding="UTF-8" standalone="no"?>
<!DOCTYPE svg PUBLIC "-//W3C//DTD SVG 1.1//EN"
 "http://www.w3.org/Graphics/SVG/1.1/DTD/svg11.dtd">
<!-- Generated by graphviz version 2.40.1 (20161225.0304)
 -->
<!-- Title: /mnt/c/Users/stefa/Desktop/system_call/src/fifo.c Pages: 1 -->
<svg width="714pt" height="106pt"
 viewBox="0.00 0.00 713.50 106.00" xmlns="http://www.w3.org/2000/svg" xmlns:xlink="http://www.w3.org/1999/xlink">
<g id="graph0" class="graph" transform="scale(1 1) rotate(0) translate(4 102)">
<title>/mnt/c/Users/stefa/Desktop/system_call/src/fifo.c</title>
<!-- Node0 -->
<g id="node1" class="node">
<title>Node0</title>
<polygon fill="#bfbfbf" stroke="#000000" points="295.5,-56.5 295.5,-97.5 417.5,-97.5 417.5,-56.5 295.5,-56.5"/>
<text text-anchor="start" x="303.5" y="-85.5" font-family="Helvetica,sans-Serif" font-size="10.00" fill="#000000">/mnt/c/Users/stefa</text>
<text text-anchor="start" x="303.5" y="-74.5" font-family="Helvetica,sans-Serif" font-size="10.00" fill="#000000">/Desktop/system_call</text>
<text text-anchor="middle" x="356.5" y="-63.5" font-family="Helvetica,sans-Serif" font-size="10.00" fill="#000000">/src/fifo.c</text>
</g>
<!-- Node1 -->
<g id="node2" class="node">
<title>Node1</title>
<polygon fill="none" stroke="#bfbfbf" points="0,-.5 0,-19.5 53,-19.5 53,-.5 0,-.5"/>
<text text-anchor="middle" x="26.5" y="-7.5" font-family="Helvetica,sans-Serif" font-size="10.00" fill="#000000">stdlib.h</text>
</g>
<!-- Node0&#45;&gt;Node1 -->
<g id="edge1" class="edge">
<title>Node0&#45;&gt;Node1</title>
<path fill="none" stroke="#191970" d="M295.3873,-66.6125C237.9255,-56.515 149.3359,-40.1003 63.13,-20.0038"/>
<polygon fill="#191970" stroke="#191970" points="63.7111,-16.5451 53.1755,-17.664 62.1093,-23.3594 63.7111,-16.5451"/>
</g>
<!-- Node2 -->
<g id="node3" class="node">
<title>Node2</title>
<polygon fill="none" stroke="#bfbfbf" points="71.5,-.5 71.5,-19.5 121.5,-19.5 121.5,-.5 71.5,-.5"/>
<text text-anchor="middle" x="96.5" y="-7.5" font-family="Helvetica,sans-Serif" font-size="10.00" fill="#000000">stdio.h</text>
</g>
<!-- Node0&#45;&gt;Node2 -->
<g id="edge2" class="edge">
<title>Node0&#45;&gt;Node2</title>
<path fill="none" stroke="#191970" d="M295.4218,-62.279C252.1646,-51.6958 192.5511,-36.7955 131.5242,-20.212"/>
<polygon fill="#191970" stroke="#191970" points="132.2886,-16.7927 121.7199,-17.5365 130.4456,-23.5458 132.2886,-16.7927"/>
</g>
<!-- Node3 -->
<g id="node4" class="node">
<title>Node3</title>
<polygon fill="none" stroke="#bfbfbf" points="140,-.5 140,-19.5 199,-19.5 199,-.5 140,-.5"/>
<text text-anchor="middle" x="169.5" y="-7.5" font-family="Helvetica,sans-Serif" font-size="10.00" fill="#000000">sys/ipc.h</text>
</g>
<!-- Node0&#45;&gt;Node3 -->
<g id="edge3" class="edge">
<title>Node0&#45;&gt;Node3</title>
<path fill="none" stroke="#191970" d="M299.123,-56.4425C268.659,-45.5275 232.1492,-32.4465 205.6515,-22.9527"/>
<polygon fill="#191970" stroke="#191970" points="206.6142,-19.5798 196.0196,-19.5017 204.2531,-26.1696 206.6142,-19.5798"/>
</g>
<!-- Node4 -->
<g id="node5" class="node">
<title>Node4</title>
<polygon fill="none" stroke="#bfbfbf" points="217.5,-.5 217.5,-19.5 281.5,-19.5 281.5,-.5 217.5,-.5"/>
<text text-anchor="middle" x="249.5" y="-7.5" font-family="Helvetica,sans-Serif" font-size="10.00" fill="#000000">sys/stat.h</text>
</g>
<!-- Node0&#45;&gt;Node4 -->
<g id="edge4" class="edge">
<title>Node0&#45;&gt;Node4</title>
<path fill="none" stroke="#191970" d="M323.5234,-56.3511C307.3529,-46.2256 288.2339,-34.254 273.4775,-25.0139"/>
<polygon fill="#191970" stroke="#191970" points="275.2516,-21.9954 264.9186,-19.6546 271.5366,-27.9282 275.2516,-21.9954"/>
</g>
<!-- Node5 -->
<g id="node6" class="node">
<title>Node5</title>
<polygon fill="none" stroke="#bfbfbf" points="300,-.5 300,-19.5 347,-19.5 347,-.5 300,-.5"/>
<text text-anchor="middle" x="323.5" y="-7.5" font-family="Helvetica,sans-Serif" font-size="10.00" fill="#000000">fcntl.h</text>
</g>
<!-- Node0&#45;&gt;Node5 -->
<g id="edge5" class="edge">
<title>Node0&#45;&gt;Node5</title>
<path fill="none" stroke="#191970" d="M346.2395,-56.168C341.9422,-47.4433 336.9827,-37.374 332.7942,-28.87"/>
<polygon fill="#191970" stroke="#191970" points="335.8756,-27.2049 328.3172,-19.7805 329.596,-30.2979 335.8756,-27.2049"/>
</g>
<!-- Node6 -->
<g id="node7" class="node">
<title>Node6</title>
<polygon fill="none" stroke="#bfbfbf" points="365,-.5 365,-19.5 416,-19.5 416,-.5 365,-.5"/>
<text text-anchor="middle" x="390.5" y="-7.5" font-family="Helvetica,sans-Serif" font-size="10.00" fill="#000000">errno.h</text>
</g>
<!-- Node0&#45;&gt;Node6 -->
<g id="edge6" class="edge">
<title>Node0&#45;&gt;Node6</title>
<path fill="none" stroke="#191970" d="M367.0714,-56.168C371.4989,-47.4433 376.6087,-37.374 380.9242,-28.87"/>
<polygon fill="#191970" stroke="#191970" points="384.1326,-30.2818 385.5368,-19.7805 377.8903,-27.1141 384.1326,-30.2818"/>
</g>
<!-- Node7 -->
<g id="node8" class="node">
<title>Node7</title>
<polygon fill="none" stroke="#bfbfbf" points="434.5,-.5 434.5,-19.5 490.5,-19.5 490.5,-.5 434.5,-.5"/>
<text text-anchor="middle" x="462.5" y="-7.5" font-family="Helvetica,sans-Serif" font-size="10.00" fill="#000000">unistd.h</text>
</g>
<!-- Node0&#45;&gt;Node7 -->
<g id="edge7" class="edge">
<title>Node0&#45;&gt;Node7</title>
<path fill="none" stroke="#191970" d="M389.1684,-56.3511C405.1878,-46.2256 424.1281,-34.254 438.7466,-25.0139"/>
<polygon fill="#191970" stroke="#191970" points="440.6425,-27.9562 447.2255,-19.6546 436.9024,-22.0391 440.6425,-27.9562"/>
</g>
<!-- Node8 -->
<g id="node9" class="node">
<title>Node8</title>
<g id="a_node9"><a xlink:href="err__exit_8h.html" target="_top" xlink:title="Contiene la definizione della funzione di stampa degli errori. ">
<polygon fill="none" stroke="#000000" points="509,-.5 509,-19.5 572,-19.5 572,-.5 509,-.5"/>
<text text-anchor="middle" x="540.5" y="-7.5" font-family="Helvetica,sans-Serif" font-size="10.00" fill="#000000">err_exit.h</text>
</a>
</g>
</g>
<!-- Node0&#45;&gt;Node8 -->
<g id="edge8" class="edge">
<title>Node0&#45;&gt;Node8</title>
<path fill="none" stroke="#191970" d="M412.9565,-56.4425C442.9318,-45.5275 478.8558,-32.4465 504.9285,-22.9527"/>
<polygon fill="#191970" stroke="#191970" points="506.2069,-26.212 514.4058,-19.5017 503.8118,-19.6345 506.2069,-26.212"/>
</g>
<!-- Node9 -->
<g id="node10" class="node">
<title>Node9</title>
<g id="a_node10"><a xlink:href="fifo_8h.html" target="_top" xlink:title="Contiene la definizioni di variabili e funzioni specifiche per la gestione delle FIFO. ">
<polygon fill="none" stroke="#000000" points="590,-.5 590,-19.5 631,-19.5 631,-.5 590,-.5"/>
<text text-anchor="middle" x="610.5" y="-7.5" font-family="Helvetica,sans-Serif" font-size="10.00" fill="#000000">fifo.h</text>
</a>
</g>
</g>
<!-- Node0&#45;&gt;Node9 -->
<g id="edge9" class="edge">
<title>Node0&#45;&gt;Node9</title>
<path fill="none" stroke="#191970" d="M417.5182,-63.0078C460.6845,-52.7731 520.0756,-38.0167 580.303,-20.2016"/>
<polygon fill="#191970" stroke="#191970" points="581.3919,-23.5293 589.9739,-17.3164 579.3906,-16.8214 581.3919,-23.5293"/>
</g>
<!-- Node10 -->
<g id="node11" class="node">
<title>Node10</title>
<g id="a_node11"><a xlink:href="debug_8h.html" target="_top" xlink:title="Contiene la definizioni di variabili e funzioni per il debugging. ">
<polygon fill="none" stroke="#000000" points="649.5,-.5 649.5,-19.5 705.5,-19.5 705.5,-.5 649.5,-.5"/>
<text text-anchor="middle" x="677.5" y="-7.5" font-family="Helvetica,sans-Serif" font-size="10.00" fill="#000000">debug.h</text>
</a>
</g>
</g>
<!-- Node0&#45;&gt;Node10 -->
<g id="edge10" class="edge">
<title>Node0&#45;&gt;Node10</title>
<path fill="none" stroke="#191970" d="M417.6917,-65.9251C473.1817,-55.6081 557.418,-39.2662 639.5259,-20.123"/>
<polygon fill="#191970" stroke="#191970" points="640.3315,-23.5291 649.2669,-17.8361 638.7316,-16.7143 640.3315,-23.5291"/>
</g>
</g>
</svg>
