<?xml version="1.0" encoding="UTF-8" standalone="no"?>
<!DOCTYPE svg PUBLIC "-//W3C//DTD SVG 1.1//EN"
 "http://www.w3.org/Graphics/SVG/1.1/DTD/svg11.dtd">
<!-- Generated by graphviz version 2.40.1 (20161225.0304)
 -->
<!-- Title: create_fifo Pages: 1 -->
<svg width="262pt" height="104pt"
 viewBox="0.00 0.00 262.00 104.00" xmlns="http://www.w3.org/2000/svg" xmlns:xlink="http://www.w3.org/1999/xlink">
<g id="graph0" class="graph" transform="scale(1 1) rotate(0) translate(4 100)">
<title>create_fifo</title>
<!-- Node0 -->
<g id="node1" class="node">
<title>Node0</title>
<polygon fill="#bfbfbf" stroke="#000000" points="0,-38.5 0,-57.5 68,-57.5 68,-38.5 0,-38.5"/>
<text text-anchor="middle" x="34" y="-45.5" font-family="Helvetica,sans-Serif" font-size="10.00" fill="#000000">create_fifo</text>
</g>
<!-- Node1 -->
<g id="node2" class="node">
<title>Node1</title>
<g id="a_node2"><a xlink:href="fifo_8c.html#ab83de0eb3bc3947e3c031685d5c2474b" target="_top" xlink:title="Crea o ottiene una IPC FIFO usando mkfifo. ">
<polygon fill="none" stroke="#000000" points="104,-76.5 104,-95.5 169,-95.5 169,-76.5 104,-76.5"/>
<text text-anchor="middle" x="136.5" y="-83.5" font-family="Helvetica,sans-Serif" font-size="10.00" fill="#000000">make_fifo</text>
</a>
</g>
</g>
<!-- Node0&#45;&gt;Node1 -->
<g id="edge1" class="edge">
<title>Node0&#45;&gt;Node1</title>
<path fill="none" stroke="#191970" d="M59.8651,-57.589C72.3685,-62.2244 87.5688,-67.8596 101.1249,-72.8853"/>
<polygon fill="#191970" stroke="#191970" points="100.0501,-76.2196 110.6432,-76.4141 102.4835,-69.6561 100.0501,-76.2196"/>
</g>
<!-- Node2 -->
<g id="node3" class="node">
<title>Node2</title>
<g id="a_node3"><a xlink:href="err__exit_8c.html#aa223b0ecfe538d130ece562646a37d27" target="_top" xlink:title="Prints the error message of the last failed system call and terminates the calling process...">
<polygon fill="none" stroke="#000000" points="205,-38.5 205,-57.5 254,-57.5 254,-38.5 205,-38.5"/>
<text text-anchor="middle" x="229.5" y="-45.5" font-family="Helvetica,sans-Serif" font-size="10.00" fill="#000000">ErrExit</text>
</a>
</g>
</g>
<!-- Node0&#45;&gt;Node2 -->
<g id="edge3" class="edge">
<title>Node0&#45;&gt;Node2</title>
<path fill="none" stroke="#191970" d="M68.0535,-48C103.4473,-48 158.5752,-48 194.3649,-48"/>
<polygon fill="#191970" stroke="#191970" points="194.8079,-51.5001 204.8079,-48 194.8079,-44.5001 194.8079,-51.5001"/>
</g>
<!-- Node3 -->
<g id="node4" class="node">
<title>Node3</title>
<g id="a_node4"><a xlink:href="defines_8c.html#a2ce7c4d064c3b1a3f182c3e830a4c31d" target="_top" xlink:title="Visualizza sullo standard output un messaggio utilizzando la write. ">
<polygon fill="none" stroke="#000000" points="104,-.5 104,-19.5 169,-19.5 169,-.5 104,-.5"/>
<text text-anchor="middle" x="136.5" y="-7.5" font-family="Helvetica,sans-Serif" font-size="10.00" fill="#000000">print_msg</text>
</a>
</g>
</g>
<!-- Node0&#45;&gt;Node3 -->
<g id="edge4" class="edge">
<title>Node0&#45;&gt;Node3</title>
<path fill="none" stroke="#191970" d="M59.8651,-38.411C72.3685,-33.7756 87.5688,-28.1404 101.1249,-23.1147"/>
<polygon fill="#191970" stroke="#191970" points="102.4835,-26.3439 110.6432,-19.5859 100.0501,-19.7804 102.4835,-26.3439"/>
</g>
<!-- Node1&#45;&gt;Node2 -->
<g id="edge2" class="edge">
<title>Node1&#45;&gt;Node2</title>
<path fill="none" stroke="#191970" d="M159.9678,-76.411C171.0921,-71.8656 184.5692,-66.3588 196.6854,-61.4081"/>
<polygon fill="#191970" stroke="#191970" points="198.1065,-64.6084 206.0397,-57.5859 195.4587,-58.1285 198.1065,-64.6084"/>
</g>
<!-- Node3&#45;&gt;Node2 -->
<g id="edge5" class="edge">
<title>Node3&#45;&gt;Node2</title>
<path fill="none" stroke="#191970" d="M159.9678,-19.589C171.0921,-24.1344 184.5692,-29.6412 196.6854,-34.5919"/>
<polygon fill="#191970" stroke="#191970" points="195.4587,-37.8715 206.0397,-38.4141 198.1065,-31.3916 195.4587,-37.8715"/>
</g>
</g>
</svg>
