<?xml version="1.0" encoding="UTF-8" standalone="no"?>
<!DOCTYPE svg PUBLIC "-//W3C//DTD SVG 1.1//EN"
 "http://www.w3.org/Graphics/SVG/1.1/DTD/svg11.dtd">
<!-- Generated by graphviz version 2.40.1 (20161225.0304)
 -->
<!-- Title: create_new_fifo Pages: 1 -->
<svg width="392pt" height="85pt"
 viewBox="0.00 0.00 392.00 85.00" xmlns="http://www.w3.org/2000/svg" xmlns:xlink="http://www.w3.org/1999/xlink">
<g id="graph0" class="graph" transform="scale(1 1) rotate(0) translate(4 81)">
<title>create_new_fifo</title>
<!-- Node8 -->
<g id="node1" class="node">
<title>Node8</title>
<polygon fill="#bfbfbf" stroke="#000000" points="0,-57.5 0,-76.5 94,-76.5 94,-57.5 0,-57.5"/>
<text text-anchor="middle" x="47" y="-64.5" font-family="Helvetica,sans-Serif" font-size="10.00" fill="#000000">create_new_fifo</text>
</g>
<!-- Node9 -->
<g id="node2" class="node">
<title>Node9</title>
<g id="a_node2"><a xlink:href="err__exit_8c.html#aa223b0ecfe538d130ece562646a37d27" target="_top" xlink:title="Prints the error message of the last failed system call and terminates the calling process...">
<polygon fill="none" stroke="#000000" points="335,-38.5 335,-57.5 384,-57.5 384,-38.5 335,-38.5"/>
<text text-anchor="middle" x="359.5" y="-45.5" font-family="Helvetica,sans-Serif" font-size="10.00" fill="#000000">ErrExit</text>
</a>
</g>
</g>
<!-- Node8&#45;&gt;Node9 -->
<g id="edge1" class="edge">
<title>Node8&#45;&gt;Node9</title>
<path fill="none" stroke="#191970" d="M94.1717,-69.3802C145.0007,-71.1741 228.1391,-71.8727 299,-62 307.5023,-60.8154 316.5685,-59.0133 325.0253,-57.0925"/>
<polygon fill="#191970" stroke="#191970" points="326.0439,-60.4478 334.9596,-54.7241 324.4205,-53.6386 326.0439,-60.4478"/>
</g>
<!-- Node10 -->
<g id="node3" class="node">
<title>Node10</title>
<g id="a_node3"><a xlink:href="fifo_8c.html#a54a1ae8162825128cf02f95692402c18" target="_top" xlink:title="Facilita la creazione di una FIFO (o ne ottiene una esistente) in modalita&#39; lettura o scrittura...">
<polygon fill="none" stroke="#000000" points="130,-38.5 130,-57.5 198,-57.5 198,-38.5 130,-38.5"/>
<text text-anchor="middle" x="164" y="-45.5" font-family="Helvetica,sans-Serif" font-size="10.00" fill="#000000">create_fifo</text>
</a>
</g>
</g>
<!-- Node8&#45;&gt;Node10 -->
<g id="edge2" class="edge">
<title>Node8&#45;&gt;Node10</title>
<path fill="none" stroke="#191970" d="M94.2511,-59.3267C102.7278,-57.9502 111.5319,-56.5205 119.9149,-55.1591"/>
<polygon fill="#191970" stroke="#191970" points="120.5715,-58.5984 129.8811,-53.5407 119.4494,-51.6889 120.5715,-58.5984"/>
</g>
<!-- Node10&#45;&gt;Node9 -->
<g id="edge5" class="edge">
<title>Node10&#45;&gt;Node9</title>
<path fill="none" stroke="#191970" d="M198.0535,-48C233.4473,-48 288.5752,-48 324.3649,-48"/>
<polygon fill="#191970" stroke="#191970" points="324.8079,-51.5001 334.8079,-48 324.8079,-44.5001 324.8079,-51.5001"/>
</g>
<!-- Node11 -->
<g id="node4" class="node">
<title>Node11</title>
<g id="a_node4"><a xlink:href="fifo_8c.html#ab83de0eb3bc3947e3c031685d5c2474b" target="_top" xlink:title="Crea o ottiene una IPC FIFO usando mkfifo. ">
<polygon fill="none" stroke="#000000" points="234,-.5 234,-19.5 299,-19.5 299,-.5 234,-.5"/>
<text text-anchor="middle" x="266.5" y="-7.5" font-family="Helvetica,sans-Serif" font-size="10.00" fill="#000000">make_fifo</text>
</a>
</g>
</g>
<!-- Node10&#45;&gt;Node11 -->
<g id="edge3" class="edge">
<title>Node10&#45;&gt;Node11</title>
<path fill="none" stroke="#191970" d="M189.8651,-38.411C202.3685,-33.7756 217.5688,-28.1404 231.1249,-23.1147"/>
<polygon fill="#191970" stroke="#191970" points="232.4835,-26.3439 240.6432,-19.5859 230.0501,-19.7804 232.4835,-26.3439"/>
</g>
<!-- Node11&#45;&gt;Node9 -->
<g id="edge4" class="edge">
<title>Node11&#45;&gt;Node9</title>
<path fill="none" stroke="#191970" d="M289.9678,-19.589C301.0921,-24.1344 314.5692,-29.6412 326.6854,-34.5919"/>
<polygon fill="#191970" stroke="#191970" points="325.4587,-37.8715 336.0397,-38.4141 328.1065,-31.3916 325.4587,-37.8715"/>
</g>
</g>
</svg>
