<?xml version="1.0" encoding="UTF-8" standalone="no"?>
<!DOCTYPE svg PUBLIC "-//W3C//DTD SVG 1.1//EN"
 "http://www.w3.org/Graphics/SVG/1.1/DTD/svg11.dtd">
<!-- Generated by graphviz version 2.40.1 (20161225.0304)
 -->
<!-- Title: make_fifo Pages: 1 -->
<svg width="408pt" height="85pt"
 viewBox="0.00 0.00 408.00 85.00" xmlns="http://www.w3.org/2000/svg" xmlns:xlink="http://www.w3.org/1999/xlink">
<g id="graph0" class="graph" transform="scale(1 1) rotate(0) translate(4 81)">
<title>make_fifo</title>
<!-- Node16 -->
<g id="node1" class="node">
<title>Node16</title>
<polygon fill="#bfbfbf" stroke="#000000" points="0,-19.5 0,-38.5 65,-38.5 65,-19.5 0,-19.5"/>
<text text-anchor="middle" x="32.5" y="-26.5" font-family="Helvetica,sans-Serif" font-size="10.00" fill="#000000">make_fifo</text>
</g>
<!-- Node17 -->
<g id="node2" class="node">
<title>Node17</title>
<g id="a_node2"><a xlink:href="fifo_8h.html#a54a1ae8162825128cf02f95692402c18" target="_top" xlink:title="Facilita la creazione di una FIFO (o ne ottiene una esistente) in modalita&#39; lettura o scrittura...">
<polygon fill="none" stroke="#000000" points="101,-19.5 101,-38.5 169,-38.5 169,-19.5 101,-19.5"/>
<text text-anchor="middle" x="135" y="-26.5" font-family="Helvetica,sans-Serif" font-size="10.00" fill="#000000">create_fifo</text>
</a>
</g>
</g>
<!-- Node16&#45;&gt;Node17 -->
<g id="edge1" class="edge">
<title>Node16&#45;&gt;Node17</title>
<path fill="none" stroke="#191970" d="M75.3573,-29C83.8555,-29 92.6702,-29 100.8323,-29"/>
<polygon fill="#191970" stroke="#191970" points="75.2135,-25.5001 65.2135,-29 75.2134,-32.5001 75.2135,-25.5001"/>
</g>
<!-- Node18 -->
<g id="node3" class="node">
<title>Node18</title>
<g id="a_node3"><a xlink:href="client_8h.html#a48d605ff689f470746c858648f0a98c2" target="_top" xlink:title="Handler del segnale SIGINT. ">
<polygon fill="none" stroke="#000000" points="205,-57.5 205,-76.5 323,-76.5 323,-57.5 205,-57.5"/>
<text text-anchor="middle" x="264" y="-64.5" font-family="Helvetica,sans-Serif" font-size="10.00" fill="#000000">SIGINTSignalHandler</text>
</a>
</g>
</g>
<!-- Node17&#45;&gt;Node18 -->
<g id="edge2" class="edge">
<title>Node17&#45;&gt;Node18</title>
<path fill="none" stroke="#191970" d="M177.554,-41.5353C195.103,-46.7048 215.1127,-52.5991 231.4583,-57.4141"/>
<polygon fill="#191970" stroke="#191970" points="178.1336,-38.0574 167.5521,-38.589 176.1556,-44.7721 178.1336,-38.0574"/>
</g>
<!-- Node20 -->
<g id="node5" class="node">
<title>Node20</title>
<g id="a_node5"><a xlink:href="fifo_8h.html#ae4a1d7aadbfb8d041fccec7ebf8ab431" target="_top" xlink:title="Garantisce la creazione di una nuova FIFO cancellando l&#39;eventuale file della FIFO esistente...">
<polygon fill="none" stroke="#000000" points="217,-19.5 217,-38.5 311,-38.5 311,-19.5 217,-19.5"/>
<text text-anchor="middle" x="264" y="-26.5" font-family="Helvetica,sans-Serif" font-size="10.00" fill="#000000">create_new_fifo</text>
</a>
</g>
</g>
<!-- Node17&#45;&gt;Node20 -->
<g id="edge4" class="edge">
<title>Node17&#45;&gt;Node20</title>
<path fill="none" stroke="#191970" d="M179.5396,-29C191.6298,-29 204.758,-29 216.9804,-29"/>
<polygon fill="#191970" stroke="#191970" points="179.231,-25.5001 169.231,-29 179.2309,-32.5001 179.231,-25.5001"/>
</g>
<!-- Node21 -->
<g id="node6" class="node">
<title>Node21</title>
<g id="a_node6"><a xlink:href="server_8c.html#a0ddf1224851353fc92bfbff6f499fa97" target="_top" xlink:title="main">
<polygon fill="none" stroke="#000000" points="359,-.5 359,-19.5 400,-19.5 400,-.5 359,-.5"/>
<text text-anchor="middle" x="379.5" y="-7.5" font-family="Helvetica,sans-Serif" font-size="10.00" fill="#000000">main</text>
</a>
</g>
</g>
<!-- Node17&#45;&gt;Node21 -->
<g id="edge6" class="edge">
<title>Node17&#45;&gt;Node21</title>
<path fill="none" stroke="#191970" d="M173.1368,-16.6873C183.3742,-13.9238 194.5151,-11.3977 205,-10 260.2543,-2.6345 326.2275,-5.8569 358.9667,-8.2521"/>
<polygon fill="#191970" stroke="#191970" points="171.9193,-13.3947 163.2583,-19.497 173.8344,-20.1277 171.9193,-13.3947"/>
</g>
<!-- Node19 -->
<g id="node4" class="node">
<title>Node19</title>
<g id="a_node4"><a xlink:href="client_8c.html#a0ddf1224851353fc92bfbff6f499fa97" target="_top" xlink:title="main">
<polygon fill="none" stroke="#000000" points="359,-57.5 359,-76.5 400,-76.5 400,-57.5 359,-57.5"/>
<text text-anchor="middle" x="379.5" y="-64.5" font-family="Helvetica,sans-Serif" font-size="10.00" fill="#000000">main</text>
</a>
</g>
</g>
<!-- Node18&#45;&gt;Node19 -->
<g id="edge3" class="edge">
<title>Node18&#45;&gt;Node19</title>
<path fill="none" stroke="#191970" d="M333.2973,-67C342.5856,-67 351.4584,-67 358.9009,-67"/>
<polygon fill="#191970" stroke="#191970" points="333.1034,-63.5001 323.1034,-67 333.1034,-70.5001 333.1034,-63.5001"/>
</g>
<!-- Node20&#45;&gt;Node21 -->
<g id="edge5" class="edge">
<title>Node20&#45;&gt;Node21</title>
<path fill="none" stroke="#191970" d="M321.5088,-19.5397C334.9105,-17.3351 348.3296,-15.1276 358.879,-13.3922"/>
<polygon fill="#191970" stroke="#191970" points="320.6108,-16.1403 311.3115,-21.2172 321.7471,-23.0474 320.6108,-16.1403"/>
</g>
</g>
</svg>
