<?xml version="1.0" encoding="UTF-8" standalone="no"?>
<!DOCTYPE svg PUBLIC "-//W3C//DTD SVG 1.1//EN"
 "http://www.w3.org/Graphics/SVG/1.1/DTD/svg11.dtd">
<!-- Generated by graphviz version 2.40.1 (20161225.0304)
 -->
<!-- Title: create_fifo Pages: 1 -->
<svg width="307pt" height="85pt"
 viewBox="0.00 0.00 307.00 85.00" xmlns="http://www.w3.org/2000/svg" xmlns:xlink="http://www.w3.org/1999/xlink">
<g id="graph0" class="graph" transform="scale(1 1) rotate(0) translate(4 81)">
<title>create_fifo</title>
<!-- Node3 -->
<g id="node1" class="node">
<title>Node3</title>
<polygon fill="#bfbfbf" stroke="#000000" points="0,-19.5 0,-38.5 68,-38.5 68,-19.5 0,-19.5"/>
<text text-anchor="middle" x="34" y="-26.5" font-family="Helvetica,sans-Serif" font-size="10.00" fill="#000000">create_fifo</text>
</g>
<!-- Node4 -->
<g id="node2" class="node">
<title>Node4</title>
<g id="a_node2"><a xlink:href="client_8h.html#a48d605ff689f470746c858648f0a98c2" target="_top" xlink:title="Handler del segnale SIGINT. ">
<polygon fill="none" stroke="#000000" points="104,-57.5 104,-76.5 222,-76.5 222,-57.5 104,-57.5"/>
<text text-anchor="middle" x="163" y="-64.5" font-family="Helvetica,sans-Serif" font-size="10.00" fill="#000000">SIGINTSignalHandler</text>
</a>
</g>
</g>
<!-- Node3&#45;&gt;Node4 -->
<g id="edge1" class="edge">
<title>Node3&#45;&gt;Node4</title>
<path fill="none" stroke="#191970" d="M76.554,-41.5353C94.103,-46.7048 114.1127,-52.5991 130.4583,-57.4141"/>
<polygon fill="#191970" stroke="#191970" points="77.1336,-38.0574 66.5521,-38.589 75.1556,-44.7721 77.1336,-38.0574"/>
</g>
<!-- Node6 -->
<g id="node4" class="node">
<title>Node6</title>
<g id="a_node4"><a xlink:href="fifo_8h.html#ae4a1d7aadbfb8d041fccec7ebf8ab431" target="_top" xlink:title="Garantisce la creazione di una nuova FIFO cancellando l&#39;eventuale file della FIFO esistente...">
<polygon fill="none" stroke="#000000" points="116,-19.5 116,-38.5 210,-38.5 210,-19.5 116,-19.5"/>
<text text-anchor="middle" x="163" y="-26.5" font-family="Helvetica,sans-Serif" font-size="10.00" fill="#000000">create_new_fifo</text>
</a>
</g>
</g>
<!-- Node3&#45;&gt;Node6 -->
<g id="edge3" class="edge">
<title>Node3&#45;&gt;Node6</title>
<path fill="none" stroke="#191970" d="M78.5396,-29C90.6298,-29 103.758,-29 115.9804,-29"/>
<polygon fill="#191970" stroke="#191970" points="78.231,-25.5001 68.231,-29 78.2309,-32.5001 78.231,-25.5001"/>
</g>
<!-- Node7 -->
<g id="node5" class="node">
<title>Node7</title>
<g id="a_node5"><a xlink:href="server_8c.html#a0ddf1224851353fc92bfbff6f499fa97" target="_top" xlink:title="main">
<polygon fill="none" stroke="#000000" points="258,-.5 258,-19.5 299,-19.5 299,-.5 258,-.5"/>
<text text-anchor="middle" x="278.5" y="-7.5" font-family="Helvetica,sans-Serif" font-size="10.00" fill="#000000">main</text>
</a>
</g>
</g>
<!-- Node3&#45;&gt;Node7 -->
<g id="edge5" class="edge">
<title>Node3&#45;&gt;Node7</title>
<path fill="none" stroke="#191970" d="M72.1368,-16.6873C82.3742,-13.9238 93.5151,-11.3977 104,-10 159.2543,-2.6345 225.2275,-5.8569 257.9667,-8.2521"/>
<polygon fill="#191970" stroke="#191970" points="70.9193,-13.3947 62.2583,-19.497 72.8344,-20.1277 70.9193,-13.3947"/>
</g>
<!-- Node5 -->
<g id="node3" class="node">
<title>Node5</title>
<g id="a_node3"><a xlink:href="client_8c.html#a0ddf1224851353fc92bfbff6f499fa97" target="_top" xlink:title="main">
<polygon fill="none" stroke="#000000" points="258,-57.5 258,-76.5 299,-76.5 299,-57.5 258,-57.5"/>
<text text-anchor="middle" x="278.5" y="-64.5" font-family="Helvetica,sans-Serif" font-size="10.00" fill="#000000">main</text>
</a>
</g>
</g>
<!-- Node4&#45;&gt;Node5 -->
<g id="edge2" class="edge">
<title>Node4&#45;&gt;Node5</title>
<path fill="none" stroke="#191970" d="M232.2973,-67C241.5856,-67 250.4584,-67 257.9009,-67"/>
<polygon fill="#191970" stroke="#191970" points="232.1034,-63.5001 222.1034,-67 232.1034,-70.5001 232.1034,-63.5001"/>
</g>
<!-- Node6&#45;&gt;Node7 -->
<g id="edge4" class="edge">
<title>Node6&#45;&gt;Node7</title>
<path fill="none" stroke="#191970" d="M220.5088,-19.5397C233.9105,-17.3351 247.3296,-15.1276 257.879,-13.3922"/>
<polygon fill="#191970" stroke="#191970" points="219.6108,-16.1403 210.3115,-21.2172 220.7471,-23.0474 219.6108,-16.1403"/>
</g>
</g>
</svg>
