<?xml version="1.0" encoding="UTF-8" standalone="no"?>
<!DOCTYPE svg PUBLIC "-//W3C//DTD SVG 1.1//EN"
 "http://www.w3.org/Graphics/SVG/1.1/DTD/svg11.dtd">
<!-- Generated by graphviz version 2.40.1 (20161225.0304)
 -->
<!-- Title: create_fifo Pages: 1 -->
<svg width="262pt" height="28pt"
 viewBox="0.00 0.00 262.00 28.00" xmlns="http://www.w3.org/2000/svg" xmlns:xlink="http://www.w3.org/1999/xlink">
<g id="graph0" class="graph" transform="scale(1 1) rotate(0) translate(4 24)">
<title>create_fifo</title>
<!-- Node0 -->
<g id="node1" class="node">
<title>Node0</title>
<polygon fill="#bfbfbf" stroke="#000000" points="0,-.5 0,-19.5 68,-19.5 68,-.5 0,-.5"/>
<text text-anchor="middle" x="34" y="-7.5" font-family="Helvetica,sans-Serif" font-size="10.00" fill="#000000">create_fifo</text>
</g>
<!-- Node1 -->
<g id="node2" class="node">
<title>Node1</title>
<g id="a_node2"><a xlink:href="fifo_8c.html#ab83de0eb3bc3947e3c031685d5c2474b" target="_top" xlink:title="Crea o ottiene una IPC FIFO usando mkfifo. ">
<polygon fill="none" stroke="#000000" points="104,-.5 104,-19.5 169,-19.5 169,-.5 104,-.5"/>
<text text-anchor="middle" x="136.5" y="-7.5" font-family="Helvetica,sans-Serif" font-size="10.00" fill="#000000">make_fifo</text>
</a>
</g>
</g>
<!-- Node0&#45;&gt;Node1 -->
<g id="edge1" class="edge">
<title>Node0&#45;&gt;Node1</title>
<path fill="none" stroke="#191970" d="M68.131,-10C76.3288,-10 85.1867,-10 93.7223,-10"/>
<polygon fill="#191970" stroke="#191970" points="93.9077,-13.5001 103.9077,-10 93.9077,-6.5001 93.9077,-13.5001"/>
</g>
<!-- Node2 -->
<g id="node3" class="node">
<title>Node2</title>
<g id="a_node3"><a xlink:href="err__exit_8c.html#aa223b0ecfe538d130ece562646a37d27" target="_top" xlink:title="Prints the error message of the last failed system call and terminates the calling process...">
<polygon fill="none" stroke="#000000" points="205,-.5 205,-19.5 254,-19.5 254,-.5 205,-.5"/>
<text text-anchor="middle" x="229.5" y="-7.5" font-family="Helvetica,sans-Serif" font-size="10.00" fill="#000000">ErrExit</text>
</a>
</g>
</g>
<!-- Node1&#45;&gt;Node2 -->
<g id="edge2" class="edge">
<title>Node1&#45;&gt;Node2</title>
<path fill="none" stroke="#191970" d="M169.0269,-10C177.2767,-10 186.1734,-10 194.5384,-10"/>
<polygon fill="#191970" stroke="#191970" points="194.7609,-13.5001 204.7609,-10 194.7609,-6.5001 194.7609,-13.5001"/>
</g>
</g>
</svg>
