<?xml version="1.0" encoding="UTF-8" standalone="no"?>
<!DOCTYPE svg PUBLIC "-//W3C//DTD SVG 1.1//EN"
 "http://www.w3.org/Graphics/SVG/1.1/DTD/svg11.dtd">
<!-- Generated by graphviz version 2.40.1 (20161225.0304)
 -->
<!-- Title: /mnt/c/Users/stefa/Desktop/progetti/system_call/src/fifo.c Pages: 1 -->
<svg width="799pt" height="162pt"
 viewBox="0.00 0.00 798.50 162.00" xmlns="http://www.w3.org/2000/svg" xmlns:xlink="http://www.w3.org/1999/xlink">
<g id="graph0" class="graph" transform="scale(1 1) rotate(0) translate(4 158)">
<title>/mnt/c/Users/stefa/Desktop/progetti/system_call/src/fifo.c</title>
<!-- Node0 -->
<g id="node1" class="node">
<title>Node0</title>
<polygon fill="#bfbfbf" stroke="#000000" points="258.5,-112.5 258.5,-153.5 398.5,-153.5 398.5,-112.5 258.5,-112.5"/>
<text text-anchor="start" x="266.5" y="-141.5" font-family="Helvetica,sans-Serif" font-size="10.00" fill="#000000">/mnt/c/Users/stefa</text>
<text text-anchor="start" x="266.5" y="-130.5" font-family="Helvetica,sans-Serif" font-size="10.00" fill="#000000">/Desktop/progetti/system</text>
<text text-anchor="middle" x="328.5" y="-119.5" font-family="Helvetica,sans-Serif" font-size="10.00" fill="#000000">_call/src/fifo.c</text>
</g>
<!-- Node1 -->
<g id="node2" class="node">
<title>Node1</title>
<polygon fill="none" stroke="#bfbfbf" points="0,-.5 0,-19.5 53,-19.5 53,-.5 0,-.5"/>
<text text-anchor="middle" x="26.5" y="-7.5" font-family="Helvetica,sans-Serif" font-size="10.00" fill="#000000">stdlib.h</text>
</g>
<!-- Node0&#45;&gt;Node1 -->
<g id="edge1" class="edge">
<title>Node0&#45;&gt;Node1</title>
<path fill="none" stroke="#191970" d="M258.3712,-128.725C181.2319,-122.4746 64.2239,-107.909 34.5,-76 23.09,-63.7512 22.0405,-44.198 23.2746,-29.548"/>
<polygon fill="#191970" stroke="#191970" points="26.7628,-29.8598 24.5297,-19.503 19.8168,-28.9919 26.7628,-29.8598"/>
</g>
<!-- Node2 -->
<g id="node3" class="node">
<title>Node2</title>
<polygon fill="none" stroke="#bfbfbf" points="81.5,-.5 81.5,-19.5 131.5,-19.5 131.5,-.5 81.5,-.5"/>
<text text-anchor="middle" x="106.5" y="-7.5" font-family="Helvetica,sans-Serif" font-size="10.00" fill="#000000">stdio.h</text>
</g>
<!-- Node0&#45;&gt;Node2 -->
<g id="edge2" class="edge">
<title>Node0&#45;&gt;Node2</title>
<path fill="none" stroke="#191970" d="M258.1268,-123.1727C221.8219,-115.2612 178.555,-101.1214 146.5,-76 131.0554,-63.8961 120.1908,-44.0407 113.7207,-29.2641"/>
<polygon fill="#191970" stroke="#191970" points="116.7936,-27.5295 109.7834,-19.5855 110.3096,-30.1673 116.7936,-27.5295"/>
</g>
<!-- Node3 -->
<g id="node4" class="node">
<title>Node3</title>
<polygon fill="none" stroke="#bfbfbf" points="561,-.5 561,-19.5 620,-19.5 620,-.5 561,-.5"/>
<text text-anchor="middle" x="590.5" y="-7.5" font-family="Helvetica,sans-Serif" font-size="10.00" fill="#000000">sys/ipc.h</text>
</g>
<!-- Node0&#45;&gt;Node3 -->
<g id="edge3" class="edge">
<title>Node0&#45;&gt;Node3</title>
<path fill="none" stroke="#191970" d="M398.6953,-125.4721C463.4112,-117.0669 553.0311,-101.2283 577.5,-76 589.2922,-63.8418 591.8956,-44.2766 591.9368,-29.5991"/>
<polygon fill="#191970" stroke="#191970" points="595.4321,-29.4007 591.5787,-19.5315 588.4365,-29.6496 595.4321,-29.4007"/>
</g>
<!-- Node4 -->
<g id="node5" class="node">
<title>Node4</title>
<polygon fill="none" stroke="#bfbfbf" points="155.5,-56.5 155.5,-75.5 219.5,-75.5 219.5,-56.5 155.5,-56.5"/>
<text text-anchor="middle" x="187.5" y="-63.5" font-family="Helvetica,sans-Serif" font-size="10.00" fill="#000000">sys/stat.h</text>
</g>
<!-- Node0&#45;&gt;Node4 -->
<g id="edge4" class="edge">
<title>Node0&#45;&gt;Node4</title>
<path fill="none" stroke="#191970" d="M285.0448,-112.3511C262.9319,-101.8435 236.6349,-89.3478 216.9202,-79.9798"/>
<polygon fill="#191970" stroke="#191970" points="218.3523,-76.7853 207.818,-75.6546 215.348,-83.1078 218.3523,-76.7853"/>
</g>
<!-- Node5 -->
<g id="node6" class="node">
<title>Node5</title>
<polygon fill="none" stroke="#bfbfbf" points="238,-56.5 238,-75.5 285,-75.5 285,-56.5 238,-56.5"/>
<text text-anchor="middle" x="261.5" y="-63.5" font-family="Helvetica,sans-Serif" font-size="10.00" fill="#000000">fcntl.h</text>
</g>
<!-- Node0&#45;&gt;Node5 -->
<g id="edge5" class="edge">
<title>Node0&#45;&gt;Node5</title>
<path fill="none" stroke="#191970" d="M307.668,-112.168C298.2794,-102.7794 287.334,-91.834 278.4574,-82.9574"/>
<polygon fill="#191970" stroke="#191970" points="280.8265,-80.3767 271.2805,-75.7805 275.8767,-85.3265 280.8265,-80.3767"/>
</g>
<!-- Node6 -->
<g id="node7" class="node">
<title>Node6</title>
<polygon fill="none" stroke="#bfbfbf" points="303,-56.5 303,-75.5 354,-75.5 354,-56.5 303,-56.5"/>
<text text-anchor="middle" x="328.5" y="-63.5" font-family="Helvetica,sans-Serif" font-size="10.00" fill="#000000">errno.h</text>
</g>
<!-- Node0&#45;&gt;Node6 -->
<g id="edge6" class="edge">
<title>Node0&#45;&gt;Node6</title>
<path fill="none" stroke="#191970" d="M328.5,-112.168C328.5,-103.8226 328.5,-94.2471 328.5,-85.9879"/>
<polygon fill="#191970" stroke="#191970" points="332.0001,-85.7804 328.5,-75.7805 325.0001,-85.7805 332.0001,-85.7804"/>
</g>
<!-- Node7 -->
<g id="node8" class="node">
<title>Node7</title>
<polygon fill="none" stroke="#bfbfbf" points="372.5,-56.5 372.5,-75.5 428.5,-75.5 428.5,-56.5 372.5,-56.5"/>
<text text-anchor="middle" x="400.5" y="-63.5" font-family="Helvetica,sans-Serif" font-size="10.00" fill="#000000">unistd.h</text>
</g>
<!-- Node0&#45;&gt;Node7 -->
<g id="edge7" class="edge">
<title>Node0&#45;&gt;Node7</title>
<path fill="none" stroke="#191970" d="M350.8866,-112.168C361.0778,-102.6846 372.9759,-91.6127 382.5655,-82.689"/>
<polygon fill="#191970" stroke="#191970" points="385.0532,-85.1551 389.9896,-75.7805 380.2846,-80.0306 385.0532,-85.1551"/>
</g>
<!-- Node8 -->
<g id="node9" class="node">
<title>Node8</title>
<g id="a_node9"><a xlink:href="err__exit_8h.html" target="_top" xlink:title="Contiene la definizione della funzione di stampa degli errori. ">
<polygon fill="none" stroke="#000000" points="447,-56.5 447,-75.5 510,-75.5 510,-56.5 447,-56.5"/>
<text text-anchor="middle" x="478.5" y="-63.5" font-family="Helvetica,sans-Serif" font-size="10.00" fill="#000000">err_exit.h</text>
</a>
</g>
</g>
<!-- Node0&#45;&gt;Node8 -->
<g id="edge8" class="edge">
<title>Node0&#45;&gt;Node8</title>
<path fill="none" stroke="#191970" d="M374.7289,-112.3511C398.3602,-101.7958 426.4832,-89.2342 447.4875,-79.8523"/>
<polygon fill="#191970" stroke="#191970" points="449.182,-82.9287 456.8851,-75.6546 446.3271,-76.5373 449.182,-82.9287"/>
</g>
<!-- Node9 -->
<g id="node10" class="node">
<title>Node9</title>
<g id="a_node10"><a xlink:href="fifo_8h.html" target="_top" xlink:title="Contiene la definizioni di variabili e funzioni specifiche per la gestione delle FIFO. ">
<polygon fill="none" stroke="#000000" points="528,-56.5 528,-75.5 569,-75.5 569,-56.5 528,-56.5"/>
<text text-anchor="middle" x="548.5" y="-63.5" font-family="Helvetica,sans-Serif" font-size="10.00" fill="#000000">fifo.h</text>
</a>
</g>
</g>
<!-- Node0&#45;&gt;Node9 -->
<g id="edge9" class="edge">
<title>Node0&#45;&gt;Node9</title>
<path fill="none" stroke="#191970" d="M398.5886,-112.5249C432.1359,-102.5944 473.0755,-90.2879 518.1825,-76.038"/>
<polygon fill="#191970" stroke="#191970" points="519.3946,-79.3255 527.87,-72.9679 517.2798,-72.6526 519.3946,-79.3255"/>
</g>
<!-- Node10 -->
<g id="node11" class="node">
<title>Node10</title>
<g id="a_node11"><a xlink:href="debug_8h.html" target="_top" xlink:title="Contiene la definizioni di variabili e funzioni per il debugging. ">
<polygon fill="none" stroke="#000000" points="43.5,-56.5 43.5,-75.5 99.5,-75.5 99.5,-56.5 43.5,-56.5"/>
<text text-anchor="middle" x="71.5" y="-63.5" font-family="Helvetica,sans-Serif" font-size="10.00" fill="#000000">debug.h</text>
</a>
</g>
</g>
<!-- Node0&#45;&gt;Node10 -->
<g id="edge10" class="edge">
<title>Node0&#45;&gt;Node10</title>
<path fill="none" stroke="#191970" d="M258.2736,-114.692C210.3875,-102.208 148.8036,-86.1531 109.7266,-75.9657"/>
<polygon fill="#191970" stroke="#191970" points="110.3752,-72.5179 99.8157,-73.3819 108.6093,-79.2915 110.3752,-72.5179"/>
</g>
<!-- Node11 -->
<g id="node12" class="node">
<title>Node11</title>
<g id="a_node12"><a xlink:href="defines_8h.html" target="_top" xlink:title="Contiene la definizioni di variabili e funzioni specifiche del progetto. ">
<polygon fill="none" stroke="#000000" points="638,-56.5 638,-75.5 699,-75.5 699,-56.5 638,-56.5"/>
<text text-anchor="middle" x="668.5" y="-63.5" font-family="Helvetica,sans-Serif" font-size="10.00" fill="#000000">defines.h</text>
</a>
</g>
</g>
<!-- Node0&#45;&gt;Node11 -->
<g id="edge13" class="edge">
<title>Node0&#45;&gt;Node11</title>
<path fill="none" stroke="#191970" d="M398.536,-119.1988C467.7119,-105.5671 571.138,-85.186 627.7891,-74.0224"/>
<polygon fill="#191970" stroke="#191970" points="628.6694,-77.4164 637.804,-72.0489 627.316,-70.5484 628.6694,-77.4164"/>
</g>
<!-- Node10&#45;&gt;Node1 -->
<g id="edge12" class="edge">
<title>Node10&#45;&gt;Node1</title>
<path fill="none" stroke="#191970" d="M63.6616,-56.2455C57.338,-48.3761 48.2776,-37.101 40.6864,-27.6542"/>
<polygon fill="#191970" stroke="#191970" points="43.2408,-25.2454 34.2486,-19.6427 37.7842,-29.6302 43.2408,-25.2454"/>
</g>
<!-- Node10&#45;&gt;Node2 -->
<g id="edge11" class="edge">
<title>Node10&#45;&gt;Node2</title>
<path fill="none" stroke="#191970" d="M77.5965,-56.2455C82.4145,-48.5367 89.2751,-37.5598 95.1032,-28.2348"/>
<polygon fill="#191970" stroke="#191970" points="98.1413,-29.9777 100.4733,-19.6427 92.2053,-26.2677 98.1413,-29.9777"/>
</g>
<!-- Node11&#45;&gt;Node3 -->
<g id="edge16" class="edge">
<title>Node11&#45;&gt;Node3</title>
<path fill="none" stroke="#191970" d="M654.9134,-56.2455C643.1695,-47.814 625.9801,-35.4729 612.3118,-25.6598"/>
<polygon fill="#191970" stroke="#191970" points="614.0954,-22.6316 603.9309,-19.6427 610.0129,-28.3179 614.0954,-22.6316"/>
</g>
<!-- Node12 -->
<g id="node13" class="node">
<title>Node12</title>
<polygon fill="none" stroke="#bfbfbf" points="728.5,-.5 728.5,-19.5 790.5,-19.5 790.5,-.5 728.5,-.5"/>
<text text-anchor="middle" x="759.5" y="-7.5" font-family="Helvetica,sans-Serif" font-size="10.00" fill="#000000">stdbool.h</text>
</g>
<!-- Node11&#45;&gt;Node12 -->
<g id="edge14" class="edge">
<title>Node11&#45;&gt;Node12</title>
<path fill="none" stroke="#191970" d="M684.351,-56.2455C698.3132,-47.6534 718.8728,-35.0014 734.9596,-25.1018"/>
<polygon fill="#191970" stroke="#191970" points="737.1484,-27.8645 743.8307,-19.6427 733.4797,-21.9029 737.1484,-27.8645"/>
</g>
<!-- Node13 -->
<g id="node14" class="node">
<title>Node13</title>
<polygon fill="none" stroke="#bfbfbf" points="638.5,-.5 638.5,-19.5 710.5,-19.5 710.5,-.5 638.5,-.5"/>
<text text-anchor="middle" x="674.5" y="-7.5" font-family="Helvetica,sans-Serif" font-size="10.00" fill="#000000">sys/types.h</text>
</g>
<!-- Node11&#45;&gt;Node13 -->
<g id="edge15" class="edge">
<title>Node11&#45;&gt;Node13</title>
<path fill="none" stroke="#191970" d="M669.5451,-56.2455C670.328,-48.9382 671.4256,-38.6944 672.3888,-29.7046"/>
<polygon fill="#191970" stroke="#191970" points="675.8815,-29.9587 673.4669,-19.6427 668.9214,-29.2129 675.8815,-29.9587"/>
</g>
</g>
</svg>
