<?xml version="1.0" encoding="UTF-8" standalone="no"?>
<!DOCTYPE svg PUBLIC "-//W3C//DTD SVG 1.1//EN"
 "http://www.w3.org/Graphics/SVG/1.1/DTD/svg11.dtd">
<!-- Generated by graphviz version 2.40.1 (20161225.0304)
 -->
<!-- Title: find_sendme_files Pages: 1 -->
<svg width="483pt" height="57pt"
 viewBox="0.00 0.00 483.00 56.72" xmlns="http://www.w3.org/2000/svg" xmlns:xlink="http://www.w3.org/1999/xlink">
<g id="graph0" class="graph" transform="scale(1 1) rotate(0) translate(4 52.7228)">
<title>find_sendme_files</title>
<!-- Node29 -->
<g id="node1" class="node">
<title>Node29</title>
<polygon fill="#bfbfbf" stroke="#000000" points="0,-28.5 0,-47.5 104,-47.5 104,-28.5 0,-28.5"/>
<text text-anchor="middle" x="52" y="-35.5" font-family="Helvetica,sans-Serif" font-size="10.00" fill="#000000">find_sendme_files</text>
</g>
<!-- Node30 -->
<g id="node2" class="node">
<title>Node30</title>
<g id="a_node2"><a xlink:href="client_8h.html#a48d605ff689f470746c858648f0a98c2" target="_top" xlink:title="Handler del segnale SIGINT. ">
<polygon fill="none" stroke="#000000" points="280,-28.5 280,-47.5 398,-47.5 398,-28.5 280,-28.5"/>
<text text-anchor="middle" x="339" y="-35.5" font-family="Helvetica,sans-Serif" font-size="10.00" fill="#000000">SIGINTSignalHandler</text>
</a>
</g>
</g>
<!-- Node29&#45;&gt;Node30 -->
<g id="edge1" class="edge">
<title>Node29&#45;&gt;Node30</title>
<path fill="none" stroke="#191970" d="M114.1373,-45.1523C122.8125,-45.918 131.6219,-46.5727 140,-47 186.1622,-49.3544 197.8293,-49.1821 244,-47 255.5839,-46.4525 267.9358,-45.5315 279.7696,-44.4822"/>
<polygon fill="#191970" stroke="#191970" points="114.3313,-41.6553 104.049,-44.2096 113.68,-48.6249 114.3313,-41.6553"/>
</g>
<!-- Node32 -->
<g id="node4" class="node">
<title>Node32</title>
<g id="a_node4"><a xlink:href="files_8h.html#a627e4b202ea71f3bd241ccf562449bd6" target="_top" xlink:title="find_sendme_files">
<polygon fill="none" stroke="#000000" points="140,-.5 140,-19.5 244,-19.5 244,-.5 140,-.5"/>
<text text-anchor="middle" x="192" y="-7.5" font-family="Helvetica,sans-Serif" font-size="10.00" fill="#000000">find_sendme_files</text>
</a>
</g>
</g>
<!-- Node29&#45;&gt;Node32 -->
<g id="edge3" class="edge">
<title>Node29&#45;&gt;Node32</title>
<path fill="none" stroke="#191970" d="M109.7705,-26.4459C121.3005,-24.1399 133.2873,-21.7425 144.4269,-19.5146"/>
<polygon fill="#191970" stroke="#191970" points="108.9079,-23.049 99.7885,-28.4423 110.2807,-29.9131 108.9079,-23.049"/>
</g>
<!-- Node31 -->
<g id="node3" class="node">
<title>Node31</title>
<g id="a_node3"><a xlink:href="client_8h.html#a0ddf1224851353fc92bfbff6f499fa97" target="_top" xlink:title="main">
<polygon fill="none" stroke="#000000" points="434,-28.5 434,-47.5 475,-47.5 475,-28.5 434,-28.5"/>
<text text-anchor="middle" x="454.5" y="-35.5" font-family="Helvetica,sans-Serif" font-size="10.00" fill="#000000">main</text>
</a>
</g>
</g>
<!-- Node30&#45;&gt;Node31 -->
<g id="edge2" class="edge">
<title>Node30&#45;&gt;Node31</title>
<path fill="none" stroke="#191970" d="M408.2973,-38C417.5856,-38 426.4584,-38 433.9009,-38"/>
<polygon fill="#191970" stroke="#191970" points="408.1034,-34.5001 398.1034,-38 408.1034,-41.5001 408.1034,-34.5001"/>
</g>
<!-- Node32&#45;&gt;Node30 -->
<g id="edge4" class="edge">
<title>Node32&#45;&gt;Node30</title>
<path fill="none" stroke="#191970" d="M252.2923,-21.4843C264.5112,-23.8116 277.2335,-26.235 289.0482,-28.4854"/>
<polygon fill="#191970" stroke="#191970" points="252.6562,-17.9907 242.1779,-19.5577 251.3464,-24.8671 252.6562,-17.9907"/>
</g>
<!-- Node32&#45;&gt;Node32 -->
<g id="edge5" class="edge">
<title>Node32&#45;&gt;Node32</title>
<path fill="none" stroke="#191970" d="M165.9584,-29.0292C167.3789,-34.128 176.0594,-38 192,-38 216.8828,-38 224.0755,-28.5653 213.5781,-19.7571"/>
<polygon fill="#191970" stroke="#191970" points="169.238,-30.2855 170.4219,-19.7571 162.9308,-27.2493 169.238,-30.2855"/>
</g>
</g>
</svg>
