<?xml version="1.0" encoding="UTF-8" standalone="no"?>
<!DOCTYPE svg PUBLIC "-//W3C//DTD SVG 1.1//EN"
 "http://www.w3.org/Graphics/SVG/1.1/DTD/svg11.dtd">
<!-- Generated by graphviz version 2.40.1 (20161225.0304)
 -->
<!-- Title: /mnt/c/Users/stefa/Desktop/system_call/src/files.c Pages: 1 -->
<svg width="723pt" height="162pt"
 viewBox="0.00 0.00 722.50 162.00" xmlns="http://www.w3.org/2000/svg" xmlns:xlink="http://www.w3.org/1999/xlink">
<g id="graph0" class="graph" transform="scale(1 1) rotate(0) translate(4 158)">
<title>/mnt/c/Users/stefa/Desktop/system_call/src/files.c</title>
<!-- Node0 -->
<g id="node1" class="node">
<title>Node0</title>
<polygon fill="#bfbfbf" stroke="#000000" points="294.5,-112.5 294.5,-153.5 416.5,-153.5 416.5,-112.5 294.5,-112.5"/>
<text text-anchor="start" x="302.5" y="-141.5" font-family="Helvetica,sans-Serif" font-size="10.00" fill="#000000">/mnt/c/Users/stefa</text>
<text text-anchor="start" x="302.5" y="-130.5" font-family="Helvetica,sans-Serif" font-size="10.00" fill="#000000">/Desktop/system_call</text>
<text text-anchor="middle" x="355.5" y="-119.5" font-family="Helvetica,sans-Serif" font-size="10.00" fill="#000000">/src/files.c</text>
</g>
<!-- Node1 -->
<g id="node2" class="node">
<title>Node1</title>
<polygon fill="none" stroke="#bfbfbf" points="0,-56.5 0,-75.5 53,-75.5 53,-56.5 0,-56.5"/>
<text text-anchor="middle" x="26.5" y="-63.5" font-family="Helvetica,sans-Serif" font-size="10.00" fill="#000000">stdlib.h</text>
</g>
<!-- Node0&#45;&gt;Node1 -->
<g id="edge1" class="edge">
<title>Node0&#45;&gt;Node1</title>
<path fill="none" stroke="#191970" d="M294.3143,-122.5467C237.0381,-112.4331 148.9061,-96.0331 63.0861,-75.9949"/>
<polygon fill="#191970" stroke="#191970" points="63.7119,-72.5466 53.1759,-73.6621 62.1079,-79.3604 63.7119,-72.5466"/>
</g>
<!-- Node2 -->
<g id="node3" class="node">
<title>Node2</title>
<polygon fill="none" stroke="#bfbfbf" points="71.5,-56.5 71.5,-75.5 135.5,-75.5 135.5,-56.5 71.5,-56.5"/>
<text text-anchor="middle" x="103.5" y="-63.5" font-family="Helvetica,sans-Serif" font-size="10.00" fill="#000000">sys/stat.h</text>
</g>
<!-- Node0&#45;&gt;Node2 -->
<g id="edge2" class="edge">
<title>Node0&#45;&gt;Node2</title>
<path fill="none" stroke="#191970" d="M294.4978,-116.7812C248.304,-104.4995 186.0598,-87.9504 145.3696,-77.132"/>
<polygon fill="#191970" stroke="#191970" points="146.0755,-73.6981 135.5119,-74.5111 144.2768,-80.4631 146.0755,-73.6981"/>
</g>
<!-- Node3 -->
<g id="node4" class="node">
<title>Node3</title>
<polygon fill="none" stroke="#bfbfbf" points="153.5,-56.5 153.5,-75.5 207.5,-75.5 207.5,-56.5 153.5,-56.5"/>
<text text-anchor="middle" x="180.5" y="-63.5" font-family="Helvetica,sans-Serif" font-size="10.00" fill="#000000">dirent.h</text>
</g>
<!-- Node0&#45;&gt;Node3 -->
<g id="edge3" class="edge">
<title>Node0&#45;&gt;Node3</title>
<path fill="none" stroke="#191970" d="M301.5663,-112.3511C273.4974,-101.6047 239.9969,-88.7788 215.3589,-79.346"/>
<polygon fill="#191970" stroke="#191970" points="216.3077,-75.9615 205.7173,-75.6546 213.8048,-82.4988 216.3077,-75.9615"/>
</g>
<!-- Node4 -->
<g id="node5" class="node">
<title>Node4</title>
<polygon fill="none" stroke="#bfbfbf" points="226,-56.5 226,-75.5 277,-75.5 277,-56.5 226,-56.5"/>
<text text-anchor="middle" x="251.5" y="-63.5" font-family="Helvetica,sans-Serif" font-size="10.00" fill="#000000">errno.h</text>
</g>
<!-- Node0&#45;&gt;Node4 -->
<g id="edge4" class="edge">
<title>Node0&#45;&gt;Node4</title>
<path fill="none" stroke="#191970" d="M323.448,-112.3511C307.8791,-102.3212 289.4983,-90.4797 275.2123,-81.2762"/>
<polygon fill="#191970" stroke="#191970" points="276.7884,-78.1281 266.4863,-75.6546 272.9973,-84.0127 276.7884,-78.1281"/>
</g>
<!-- Node5 -->
<g id="node6" class="node">
<title>Node5</title>
<polygon fill="none" stroke="#bfbfbf" points="295.5,-56.5 295.5,-75.5 345.5,-75.5 345.5,-56.5 295.5,-56.5"/>
<text text-anchor="middle" x="320.5" y="-63.5" font-family="Helvetica,sans-Serif" font-size="10.00" fill="#000000">stdio.h</text>
</g>
<!-- Node0&#45;&gt;Node5 -->
<g id="edge5" class="edge">
<title>Node0&#45;&gt;Node5</title>
<path fill="none" stroke="#191970" d="M344.6176,-112.168C340.0599,-103.4433 334.7999,-93.374 330.3575,-84.87"/>
<polygon fill="#191970" stroke="#191970" points="333.3417,-83.0234 325.6092,-75.7805 327.1372,-86.2646 333.3417,-83.0234"/>
</g>
<!-- Node6 -->
<g id="node7" class="node">
<title>Node6</title>
<polygon fill="none" stroke="#bfbfbf" points="364,-56.5 364,-75.5 417,-75.5 417,-56.5 364,-56.5"/>
<text text-anchor="middle" x="390.5" y="-63.5" font-family="Helvetica,sans-Serif" font-size="10.00" fill="#000000">string.h</text>
</g>
<!-- Node0&#45;&gt;Node6 -->
<g id="edge6" class="edge">
<title>Node0&#45;&gt;Node6</title>
<path fill="none" stroke="#191970" d="M366.3824,-112.168C370.9401,-103.4433 376.2001,-93.374 380.6425,-84.87"/>
<polygon fill="#191970" stroke="#191970" points="383.8628,-86.2646 385.3908,-75.7805 377.6583,-83.0234 383.8628,-86.2646"/>
</g>
<!-- Node7 -->
<g id="node8" class="node">
<title>Node7</title>
<g id="a_node8"><a xlink:href="strings_8h.html" target="_top" xlink:title="Contiene la definizioni di variabili e funzioni specifiche per la gestione delle STRINGHE. ">
<polygon fill="none" stroke="#000000" points="435,-56.5 435,-75.5 494,-75.5 494,-56.5 435,-56.5"/>
<text text-anchor="middle" x="464.5" y="-63.5" font-family="Helvetica,sans-Serif" font-size="10.00" fill="#000000">strings.h</text>
</a>
</g>
</g>
<!-- Node0&#45;&gt;Node7 -->
<g id="edge7" class="edge">
<title>Node0&#45;&gt;Node7</title>
<path fill="none" stroke="#191970" d="M389.093,-112.3511C405.5658,-102.2256 425.0421,-90.254 440.0743,-81.0139"/>
<polygon fill="#191970" stroke="#191970" points="442.1068,-83.873 448.7932,-75.6546 438.4411,-77.9095 442.1068,-83.873"/>
</g>
<!-- Node9 -->
<g id="node10" class="node">
<title>Node9</title>
<g id="a_node10"><a xlink:href="files_8h.html" target="_top" xlink:title="Contiene la definizioni di variabili e funzioni specifiche per la gestione dei FILE. ">
<polygon fill="none" stroke="#000000" points="512.5,-56.5 512.5,-75.5 558.5,-75.5 558.5,-56.5 512.5,-56.5"/>
<text text-anchor="middle" x="535.5" y="-63.5" font-family="Helvetica,sans-Serif" font-size="10.00" fill="#000000">files.h</text>
</a>
</g>
</g>
<!-- Node0&#45;&gt;Node9 -->
<g id="edge9" class="edge">
<title>Node0&#45;&gt;Node9</title>
<path fill="none" stroke="#191970" d="M410.9747,-112.3511C441.0681,-101.1496 477.2317,-87.6888 502.8145,-78.1663"/>
<polygon fill="#191970" stroke="#191970" points="504.2532,-81.3654 512.4041,-74.5968 501.8113,-74.8051 504.2532,-81.3654"/>
</g>
<!-- Node10 -->
<g id="node11" class="node">
<title>Node10</title>
<g id="a_node11"><a xlink:href="err__exit_8h.html" target="_top" xlink:title="Contiene la definizione della funzione di stampa degli errori. ">
<polygon fill="none" stroke="#000000" points="577,-56.5 577,-75.5 640,-75.5 640,-56.5 577,-56.5"/>
<text text-anchor="middle" x="608.5" y="-63.5" font-family="Helvetica,sans-Serif" font-size="10.00" fill="#000000">err_exit.h</text>
</a>
</g>
</g>
<!-- Node0&#45;&gt;Node10 -->
<g id="edge10" class="edge">
<title>Node0&#45;&gt;Node10</title>
<path fill="none" stroke="#191970" d="M416.7442,-116.7812C463.2561,-104.4638 525.9761,-87.8542 566.82,-77.0378"/>
<polygon fill="#191970" stroke="#191970" points="567.9388,-80.3622 576.7096,-74.4188 566.1468,-73.5955 567.9388,-80.3622"/>
</g>
<!-- Node11 -->
<g id="node12" class="node">
<title>Node11</title>
<g id="a_node12"><a xlink:href="debug_8h.html" target="_top" xlink:title="Contiene la definizioni di variabili e funzioni per il debugging. ">
<polygon fill="none" stroke="#000000" points="658.5,-56.5 658.5,-75.5 714.5,-75.5 714.5,-56.5 658.5,-56.5"/>
<text text-anchor="middle" x="686.5" y="-63.5" font-family="Helvetica,sans-Serif" font-size="10.00" fill="#000000">debug.h</text>
</a>
</g>
</g>
<!-- Node0&#45;&gt;Node11 -->
<g id="edge11" class="edge">
<title>Node0&#45;&gt;Node11</title>
<path fill="none" stroke="#191970" d="M416.584,-122.4897C474.0253,-112.3046 562.6,-95.8259 648.3693,-76.145"/>
<polygon fill="#191970" stroke="#191970" points="649.3169,-79.5183 658.2714,-73.8554 647.7399,-72.6982 649.3169,-79.5183"/>
</g>
<!-- Node8 -->
<g id="node9" class="node">
<title>Node8</title>
<polygon fill="none" stroke="#bfbfbf" points="433.5,-.5 433.5,-19.5 495.5,-19.5 495.5,-.5 433.5,-.5"/>
<text text-anchor="middle" x="464.5" y="-7.5" font-family="Helvetica,sans-Serif" font-size="10.00" fill="#000000">stdbool.h</text>
</g>
<!-- Node7&#45;&gt;Node8 -->
<g id="edge8" class="edge">
<title>Node7&#45;&gt;Node8</title>
<path fill="none" stroke="#191970" d="M464.5,-56.2455C464.5,-48.9382 464.5,-38.6944 464.5,-29.7046"/>
<polygon fill="#191970" stroke="#191970" points="468.0001,-29.6426 464.5,-19.6427 461.0001,-29.6427 468.0001,-29.6426"/>
</g>
</g>
</svg>
