<?xml version="1.0" encoding="UTF-8" standalone="no"?>
<!DOCTYPE svg PUBLIC "-//W3C//DTD SVG 1.1//EN"
 "http://www.w3.org/Graphics/SVG/1.1/DTD/svg11.dtd">
<!-- Generated by graphviz version 2.40.1 (20161225.0304)
 -->
<!-- Title: find_sendme_files Pages: 1 -->
<svg width="252pt" height="46pt"
 viewBox="0.00 0.00 252.00 46.00" xmlns="http://www.w3.org/2000/svg" xmlns:xlink="http://www.w3.org/1999/xlink">
<g id="graph0" class="graph" transform="scale(1 1) rotate(0) translate(4 42)">
<title>find_sendme_files</title>
<!-- Node21 -->
<g id="node1" class="node">
<title>Node21</title>
<polygon fill="#bfbfbf" stroke="#000000" points="0,-.5 0,-19.5 104,-19.5 104,-.5 0,-.5"/>
<text text-anchor="middle" x="52" y="-7.5" font-family="Helvetica,sans-Serif" font-size="10.00" fill="#000000">find_sendme_files</text>
</g>
<!-- Node22 -->
<g id="node2" class="node">
<title>Node22</title>
<g id="a_node2"><a xlink:href="files_8h.html#a627e4b202ea71f3bd241ccf562449bd6" target="_top" xlink:title="find_sendme_files">
<polygon fill="none" stroke="#000000" points="140,-.5 140,-19.5 244,-19.5 244,-.5 140,-.5"/>
<text text-anchor="middle" x="192" y="-7.5" font-family="Helvetica,sans-Serif" font-size="10.00" fill="#000000">find_sendme_files</text>
</a>
</g>
</g>
<!-- Node21&#45;&gt;Node22 -->
<g id="edge1" class="edge">
<title>Node21&#45;&gt;Node22</title>
<path fill="none" stroke="#191970" d="M114.3869,-10C122.8847,-10 131.5339,-10 139.8256,-10"/>
<polygon fill="#191970" stroke="#191970" points="114.1309,-6.5001 104.1308,-10 114.1308,-13.5001 114.1309,-6.5001"/>
</g>
<!-- Node22&#45;&gt;Node22 -->
<g id="edge2" class="edge">
<title>Node22&#45;&gt;Node22</title>
<path fill="none" stroke="#191970" d="M165.9584,-29.0292C167.3789,-34.128 176.0594,-38 192,-38 216.8828,-38 224.0755,-28.5653 213.5781,-19.7571"/>
<polygon fill="#191970" stroke="#191970" points="169.238,-30.2855 170.4219,-19.7571 162.9308,-27.2493 169.238,-30.2855"/>
</g>
</g>
</svg>
