<?xml version="1.0" encoding="UTF-8" standalone="no"?>
<!DOCTYPE svg PUBLIC "-//W3C//DTD SVG 1.1//EN"
 "http://www.w3.org/Graphics/SVG/1.1/DTD/svg11.dtd">
<!-- Generated by graphviz version 2.40.1 (20161225.0304)
 -->
<!-- Title: /mnt/c/Users/stefa/Desktop/system_call/src/files.c Pages: 1 -->
<svg width="648pt" height="162pt"
 viewBox="0.00 0.00 648.00 162.00" xmlns="http://www.w3.org/2000/svg" xmlns:xlink="http://www.w3.org/1999/xlink">
<g id="graph0" class="graph" transform="scale(1 1) rotate(0) translate(4 158)">
<title>/mnt/c/Users/stefa/Desktop/system_call/src/files.c</title>
<!-- Node0 -->
<g id="node1" class="node">
<title>Node0</title>
<polygon fill="#bfbfbf" stroke="#000000" points="259.5,-112.5 259.5,-153.5 381.5,-153.5 381.5,-112.5 259.5,-112.5"/>
<text text-anchor="start" x="267.5" y="-141.5" font-family="Helvetica,sans-Serif" font-size="10.00" fill="#000000">/mnt/c/Users/stefa</text>
<text text-anchor="start" x="267.5" y="-130.5" font-family="Helvetica,sans-Serif" font-size="10.00" fill="#000000">/Desktop/system_call</text>
<text text-anchor="middle" x="320.5" y="-119.5" font-family="Helvetica,sans-Serif" font-size="10.00" fill="#000000">/src/files.c</text>
</g>
<!-- Node1 -->
<g id="node2" class="node">
<title>Node1</title>
<polygon fill="none" stroke="#bfbfbf" points="0,-56.5 0,-75.5 53,-75.5 53,-56.5 0,-56.5"/>
<text text-anchor="middle" x="26.5" y="-63.5" font-family="Helvetica,sans-Serif" font-size="10.00" fill="#000000">stdlib.h</text>
</g>
<!-- Node0&#45;&gt;Node1 -->
<g id="edge1" class="edge">
<title>Node0&#45;&gt;Node1</title>
<path fill="none" stroke="#191970" d="M259.2944,-120.4415C209.1344,-109.9293 136.0938,-94.1214 63.0332,-76.0358"/>
<polygon fill="#191970" stroke="#191970" points="63.7437,-72.6059 53.1943,-73.5863 62.0525,-79.3986 63.7437,-72.6059"/>
</g>
<!-- Node2 -->
<g id="node3" class="node">
<title>Node2</title>
<polygon fill="none" stroke="#bfbfbf" points="71.5,-56.5 71.5,-75.5 135.5,-75.5 135.5,-56.5 71.5,-56.5"/>
<text text-anchor="middle" x="103.5" y="-63.5" font-family="Helvetica,sans-Serif" font-size="10.00" fill="#000000">sys/stat.h</text>
</g>
<!-- Node0&#45;&gt;Node2 -->
<g id="edge2" class="edge">
<title>Node0&#45;&gt;Node2</title>
<path fill="none" stroke="#191970" d="M259.4759,-114.1585C222.5541,-102.7586 176.4958,-88.5379 144.0308,-78.5141"/>
<polygon fill="#191970" stroke="#191970" points="145.0045,-75.1518 134.417,-75.5458 142.9394,-81.8402 145.0045,-75.1518"/>
</g>
<!-- Node3 -->
<g id="node4" class="node">
<title>Node3</title>
<polygon fill="none" stroke="#bfbfbf" points="153.5,-56.5 153.5,-75.5 207.5,-75.5 207.5,-56.5 153.5,-56.5"/>
<text text-anchor="middle" x="180.5" y="-63.5" font-family="Helvetica,sans-Serif" font-size="10.00" fill="#000000">dirent.h</text>
</g>
<!-- Node0&#45;&gt;Node3 -->
<g id="edge3" class="edge">
<title>Node0&#45;&gt;Node3</title>
<path fill="none" stroke="#191970" d="M277.353,-112.3511C255.3969,-101.8435 229.2865,-89.3478 209.7115,-79.9798"/>
<polygon fill="#191970" stroke="#191970" points="211.205,-76.8144 200.6739,-75.6546 208.1832,-83.1286 211.205,-76.8144"/>
</g>
<!-- Node4 -->
<g id="node5" class="node">
<title>Node4</title>
<polygon fill="none" stroke="#bfbfbf" points="226,-56.5 226,-75.5 277,-75.5 277,-56.5 226,-56.5"/>
<text text-anchor="middle" x="251.5" y="-63.5" font-family="Helvetica,sans-Serif" font-size="10.00" fill="#000000">errno.h</text>
</g>
<!-- Node0&#45;&gt;Node4 -->
<g id="edge4" class="edge">
<title>Node0&#45;&gt;Node4</title>
<path fill="none" stroke="#191970" d="M299.0462,-112.168C289.3773,-102.7794 278.1051,-91.834 268.9636,-82.9574"/>
<polygon fill="#191970" stroke="#191970" points="271.185,-80.2358 261.5724,-75.7805 266.3085,-85.2578 271.185,-80.2358"/>
</g>
<!-- Node5 -->
<g id="node6" class="node">
<title>Node5</title>
<polygon fill="none" stroke="#bfbfbf" points="295.5,-56.5 295.5,-75.5 345.5,-75.5 345.5,-56.5 295.5,-56.5"/>
<text text-anchor="middle" x="320.5" y="-63.5" font-family="Helvetica,sans-Serif" font-size="10.00" fill="#000000">stdio.h</text>
</g>
<!-- Node0&#45;&gt;Node5 -->
<g id="edge5" class="edge">
<title>Node0&#45;&gt;Node5</title>
<path fill="none" stroke="#191970" d="M320.5,-112.168C320.5,-103.8226 320.5,-94.2471 320.5,-85.9879"/>
<polygon fill="#191970" stroke="#191970" points="324.0001,-85.7804 320.5,-75.7805 317.0001,-85.7805 324.0001,-85.7804"/>
</g>
<!-- Node6 -->
<g id="node7" class="node">
<title>Node6</title>
<polygon fill="none" stroke="#bfbfbf" points="364,-56.5 364,-75.5 417,-75.5 417,-56.5 364,-56.5"/>
<text text-anchor="middle" x="390.5" y="-63.5" font-family="Helvetica,sans-Serif" font-size="10.00" fill="#000000">string.h</text>
</g>
<!-- Node0&#45;&gt;Node6 -->
<g id="edge6" class="edge">
<title>Node0&#45;&gt;Node6</title>
<path fill="none" stroke="#191970" d="M342.2647,-112.168C352.0738,-102.7794 363.5093,-91.834 372.7833,-82.9574"/>
<polygon fill="#191970" stroke="#191970" points="375.4775,-85.2235 380.2816,-75.7805 370.6373,-80.1666 375.4775,-85.2235"/>
</g>
<!-- Node7 -->
<g id="node8" class="node">
<title>Node7</title>
<g id="a_node8"><a xlink:href="strings_8h.html" target="_top" xlink:title="Contiene la definizioni di variabili e funzioni specifiche per la gestione delle STRINGHE. ">
<polygon fill="none" stroke="#000000" points="435,-56.5 435,-75.5 494,-75.5 494,-56.5 435,-56.5"/>
<text text-anchor="middle" x="464.5" y="-63.5" font-family="Helvetica,sans-Serif" font-size="10.00" fill="#000000">strings.h</text>
</a>
</g>
</g>
<!-- Node0&#45;&gt;Node7 -->
<g id="edge7" class="edge">
<title>Node0&#45;&gt;Node7</title>
<path fill="none" stroke="#191970" d="M364.8797,-112.3511C387.4631,-101.8435 414.3196,-89.3478 434.4538,-79.9798"/>
<polygon fill="#191970" stroke="#191970" points="436.1596,-83.0465 443.7497,-75.6546 433.2066,-76.6999 436.1596,-83.0465"/>
</g>
<!-- Node9 -->
<g id="node10" class="node">
<title>Node9</title>
<g id="a_node10"><a xlink:href="files_8h.html" target="_top" xlink:title="Contiene la definizioni di variabili e funzioni specifiche per la gestione dei FILE. ">
<polygon fill="none" stroke="#000000" points="512.5,-56.5 512.5,-75.5 558.5,-75.5 558.5,-56.5 512.5,-56.5"/>
<text text-anchor="middle" x="535.5" y="-63.5" font-family="Helvetica,sans-Serif" font-size="10.00" fill="#000000">files.h</text>
</a>
</g>
</g>
<!-- Node0&#45;&gt;Node9 -->
<g id="edge9" class="edge">
<title>Node0&#45;&gt;Node9</title>
<path fill="none" stroke="#191970" d="M381.5044,-114.0142C414.7262,-103.6713 456.8079,-90.5642 502.6023,-76.2784"/>
<polygon fill="#191970" stroke="#191970" points="503.925,-79.5321 512.4288,-73.2126 501.8402,-72.8498 503.925,-79.5321"/>
</g>
<!-- Node10 -->
<g id="node11" class="node">
<title>Node10</title>
<g id="a_node11"><a xlink:href="err__exit_8h.html" target="_top" xlink:title="Contiene la definizione della funzione di stampa degli errori. ">
<polygon fill="none" stroke="#000000" points="577,-56.5 577,-75.5 640,-75.5 640,-56.5 577,-56.5"/>
<text text-anchor="middle" x="608.5" y="-63.5" font-family="Helvetica,sans-Serif" font-size="10.00" fill="#000000">err_exit.h</text>
</a>
</g>
</g>
<!-- Node0&#45;&gt;Node10 -->
<g id="edge10" class="edge">
<title>Node0&#45;&gt;Node10</title>
<path fill="none" stroke="#191970" d="M381.7068,-119.0979C429.4733,-108.1974 497.7645,-92.5018 566.9579,-76.1086"/>
<polygon fill="#191970" stroke="#191970" points="567.8034,-79.5052 576.7253,-73.7912 566.1874,-72.6943 567.8034,-79.5052"/>
</g>
<!-- Node8 -->
<g id="node9" class="node">
<title>Node8</title>
<polygon fill="none" stroke="#bfbfbf" points="433.5,-.5 433.5,-19.5 495.5,-19.5 495.5,-.5 433.5,-.5"/>
<text text-anchor="middle" x="464.5" y="-7.5" font-family="Helvetica,sans-Serif" font-size="10.00" fill="#000000">stdbool.h</text>
</g>
<!-- Node7&#45;&gt;Node8 -->
<g id="edge8" class="edge">
<title>Node7&#45;&gt;Node8</title>
<path fill="none" stroke="#191970" d="M464.5,-56.2455C464.5,-48.9382 464.5,-38.6944 464.5,-29.7046"/>
<polygon fill="#191970" stroke="#191970" points="468.0001,-29.6426 464.5,-19.6427 461.0001,-29.6427 468.0001,-29.6426"/>
</g>
</g>
</svg>
