<?xml version="1.0" encoding="UTF-8" standalone="no"?>
<!DOCTYPE svg PUBLIC "-//W3C//DTD SVG 1.1//EN"
 "http://www.w3.org/Graphics/SVG/1.1/DTD/svg11.dtd">
<!-- Generated by graphviz version 2.40.1 (20161225.0304)
 -->
<!-- Title: find_sendme_files Pages: 1 -->
<svg width="343pt" height="46pt"
 viewBox="0.00 0.00 343.00 46.00" xmlns="http://www.w3.org/2000/svg" xmlns:xlink="http://www.w3.org/1999/xlink">
<g id="graph0" class="graph" transform="scale(1 1) rotate(0) translate(4 42)">
<title>find_sendme_files</title>
<!-- Node30 -->
<g id="node1" class="node">
<title>Node30</title>
<polygon fill="#bfbfbf" stroke="#000000" points="0,-.5 0,-19.5 104,-19.5 104,-.5 0,-.5"/>
<text text-anchor="middle" x="52" y="-7.5" font-family="Helvetica,sans-Serif" font-size="10.00" fill="#000000">find_sendme_files</text>
</g>
<!-- Node30&#45;&gt;Node30 -->
<g id="edge3" class="edge">
<title>Node30&#45;&gt;Node30</title>
<path fill="none" stroke="#191970" d="M24.7475,-28.6539C25.8867,-33.9368 34.9708,-38 52,-38 77.9492,-38 85.4502,-28.5653 74.5028,-19.7571"/>
<polygon fill="#191970" stroke="#191970" points="27.8752,-30.227 29.4972,-19.7571 21.7001,-26.9303 27.8752,-30.227"/>
</g>
<!-- Node31 -->
<g id="node2" class="node">
<title>Node31</title>
<g id="a_node2"><a xlink:href="client_8h.html#a48d605ff689f470746c858648f0a98c2" target="_top" xlink:title="Handler del segnale SIGINT. ">
<polygon fill="none" stroke="#000000" points="140,-.5 140,-19.5 258,-19.5 258,-.5 140,-.5"/>
<text text-anchor="middle" x="199" y="-7.5" font-family="Helvetica,sans-Serif" font-size="10.00" fill="#000000">SIGINTSignalHandler</text>
</a>
</g>
</g>
<!-- Node30&#45;&gt;Node31 -->
<g id="edge1" class="edge">
<title>Node30&#45;&gt;Node31</title>
<path fill="none" stroke="#191970" d="M114.4207,-10C122.8733,-10 131.526,-10 139.9176,-10"/>
<polygon fill="#191970" stroke="#191970" points="114.2406,-6.5001 104.2406,-10 114.2406,-13.5001 114.2406,-6.5001"/>
</g>
<!-- Node32 -->
<g id="node3" class="node">
<title>Node32</title>
<g id="a_node3"><a xlink:href="client_8c.html#a0ddf1224851353fc92bfbff6f499fa97" target="_top" xlink:title="main">
<polygon fill="none" stroke="#000000" points="294,-.5 294,-19.5 335,-19.5 335,-.5 294,-.5"/>
<text text-anchor="middle" x="314.5" y="-7.5" font-family="Helvetica,sans-Serif" font-size="10.00" fill="#000000">main</text>
</a>
</g>
</g>
<!-- Node31&#45;&gt;Node32 -->
<g id="edge2" class="edge">
<title>Node31&#45;&gt;Node32</title>
<path fill="none" stroke="#191970" d="M268.2973,-10C277.5856,-10 286.4584,-10 293.9009,-10"/>
<polygon fill="#191970" stroke="#191970" points="268.1034,-6.5001 258.1034,-10 268.1034,-13.5001 268.1034,-6.5001"/>
</g>
</g>
</svg>
