<?xml version="1.0" encoding="UTF-8" standalone="no"?>
<!DOCTYPE svg PUBLIC "-//W3C//DTD SVG 1.1//EN"
 "http://www.w3.org/Graphics/SVG/1.1/DTD/svg11.dtd">
<!-- Generated by graphviz version 2.40.1 (20161225.0304)
 -->
<!-- Title: find_sendme_files Pages: 1 -->
<svg width="331pt" height="46pt"
 viewBox="0.00 0.00 331.00 46.00" xmlns="http://www.w3.org/2000/svg" xmlns:xlink="http://www.w3.org/1999/xlink">
<g id="graph0" class="graph" transform="scale(1 1) rotate(0) translate(4 42)">
<title>find_sendme_files</title>
<!-- Node30 -->
<g id="node1" class="node">
<title>Node30</title>
<polygon fill="#bfbfbf" stroke="#000000" points="0,-.5 0,-19.5 104,-19.5 104,-.5 0,-.5"/>
<text text-anchor="middle" x="52" y="-7.5" font-family="Helvetica,sans-Serif" font-size="10.00" fill="#000000">find_sendme_files</text>
</g>
<!-- Node30&#45;&gt;Node30 -->
<g id="edge3" class="edge">
<title>Node30&#45;&gt;Node30</title>
<path fill="none" stroke="#191970" d="M25.9584,-29.0292C27.3789,-34.128 36.0594,-38 52,-38 76.8828,-38 84.0755,-28.5653 73.5781,-19.7571"/>
<polygon fill="#191970" stroke="#191970" points="29.238,-30.2855 30.4219,-19.7571 22.9308,-27.2493 29.238,-30.2855"/>
</g>
<!-- Node31 -->
<g id="node2" class="node">
<title>Node31</title>
<g id="a_node2"><a xlink:href="client_8h.html#a8c7084a254c7cd640d66e647795ff8f6" target="_top" xlink:title="operazioni_client0">
<polygon fill="none" stroke="#000000" points="140,-.5 140,-19.5 246,-19.5 246,-.5 140,-.5"/>
<text text-anchor="middle" x="193" y="-7.5" font-family="Helvetica,sans-Serif" font-size="10.00" fill="#000000">operazioni_client0</text>
</a>
</g>
</g>
<!-- Node30&#45;&gt;Node31 -->
<g id="edge1" class="edge">
<title>Node30&#45;&gt;Node31</title>
<path fill="none" stroke="#191970" d="M114.317,-10C122.7832,-10 131.409,-10 139.6971,-10"/>
<polygon fill="#191970" stroke="#191970" points="114.1026,-6.5001 104.1026,-10 114.1026,-13.5001 114.1026,-6.5001"/>
</g>
<!-- Node32 -->
<g id="node3" class="node">
<title>Node32</title>
<g id="a_node3"><a xlink:href="client_8c.html#a0ddf1224851353fc92bfbff6f499fa97" target="_top" xlink:title="main">
<polygon fill="none" stroke="#000000" points="282,-.5 282,-19.5 323,-19.5 323,-.5 282,-.5"/>
<text text-anchor="middle" x="302.5" y="-7.5" font-family="Helvetica,sans-Serif" font-size="10.00" fill="#000000">main</text>
</a>
</g>
</g>
<!-- Node31&#45;&gt;Node32 -->
<g id="edge2" class="edge">
<title>Node31&#45;&gt;Node32</title>
<path fill="none" stroke="#191970" d="M256.2796,-10C265.5452,-10 274.4767,-10 281.9772,-10"/>
<polygon fill="#191970" stroke="#191970" points="256.1462,-6.5001 246.1462,-10 256.1462,-13.5001 256.1462,-6.5001"/>
</g>
</g>
</svg>
