<?xml version="1.0" encoding="UTF-8" standalone="no"?>
<!DOCTYPE svg PUBLIC "-//W3C//DTD SVG 1.1//EN"
 "http://www.w3.org/Graphics/SVG/1.1/DTD/svg11.dtd">
<!-- Generated by graphviz version 2.40.1 (20161225.0304)
 -->
<!-- Title: checkFileSize Pages: 1 -->
<svg width="230pt" height="46pt"
 viewBox="0.00 0.00 230.00 46.00" xmlns="http://www.w3.org/2000/svg" xmlns:xlink="http://www.w3.org/1999/xlink">
<g id="graph0" class="graph" transform="scale(1 1) rotate(0) translate(4 42)">
<title>checkFileSize</title>
<!-- Node9 -->
<g id="node1" class="node">
<title>Node9</title>
<polygon fill="#bfbfbf" stroke="#000000" points="0,-.5 0,-19.5 82,-19.5 82,-.5 0,-.5"/>
<text text-anchor="middle" x="41" y="-7.5" font-family="Helvetica,sans-Serif" font-size="10.00" fill="#000000">checkFileSize</text>
</g>
<!-- Node10 -->
<g id="node2" class="node">
<title>Node10</title>
<g id="a_node2"><a xlink:href="files_8h.html#a627e4b202ea71f3bd241ccf562449bd6" target="_top" xlink:title="find_sendme_files">
<polygon fill="none" stroke="#000000" points="118,-.5 118,-19.5 222,-19.5 222,-.5 118,-.5"/>
<text text-anchor="middle" x="170" y="-7.5" font-family="Helvetica,sans-Serif" font-size="10.00" fill="#000000">find_sendme_files</text>
</a>
</g>
</g>
<!-- Node9&#45;&gt;Node10 -->
<g id="edge1" class="edge">
<title>Node9&#45;&gt;Node10</title>
<path fill="none" stroke="#191970" d="M92.2567,-10C100.687,-10 109.4327,-10 117.8837,-10"/>
<polygon fill="#191970" stroke="#191970" points="92.1711,-6.5001 82.1711,-10 92.171,-13.5001 92.1711,-6.5001"/>
</g>
<!-- Node10&#45;&gt;Node10 -->
<g id="edge2" class="edge">
<title>Node10&#45;&gt;Node10</title>
<path fill="none" stroke="#191970" d="M146.1906,-29.0292C147.4893,-34.128 155.4258,-38 170,-38 192.75,-38 199.3262,-28.5653 189.7285,-19.7571"/>
<polygon fill="#191970" stroke="#191970" points="149.4465,-30.3197 150.2715,-19.7571 143.0396,-27.4998 149.4465,-30.3197"/>
</g>
</g>
</svg>
