<?xml version="1.0" encoding="UTF-8" standalone="no"?>
<!DOCTYPE svg PUBLIC "-//W3C//DTD SVG 1.1//EN"
 "http://www.w3.org/Graphics/SVG/1.1/DTD/svg11.dtd">
<!-- Generated by graphviz version 2.40.1 (20161225.0304)
 -->
<!-- Title: getFileSize Pages: 1 -->
<svg width="335pt" height="46pt"
 viewBox="0.00 0.00 335.00 46.00" xmlns="http://www.w3.org/2000/svg" xmlns:xlink="http://www.w3.org/1999/xlink">
<g id="graph0" class="graph" transform="scale(1 1) rotate(0) translate(4 42)">
<title>getFileSize</title>
<!-- Node26 -->
<g id="node1" class="node">
<title>Node26</title>
<polygon fill="#bfbfbf" stroke="#000000" points="0,-.5 0,-19.5 69,-19.5 69,-.5 0,-.5"/>
<text text-anchor="middle" x="34.5" y="-7.5" font-family="Helvetica,sans-Serif" font-size="10.00" fill="#000000">getFileSize</text>
</g>
<!-- Node27 -->
<g id="node2" class="node">
<title>Node27</title>
<g id="a_node2"><a xlink:href="files_8h.html#a5ac4517096592013308a3252f3226f60" target="_top" xlink:title="Restituisce 1 se il percorso ha la dimensione &lt;= 4 KB, 0 altrimenti. ">
<polygon fill="none" stroke="#000000" points="105,-.5 105,-19.5 187,-19.5 187,-.5 105,-.5"/>
<text text-anchor="middle" x="146" y="-7.5" font-family="Helvetica,sans-Serif" font-size="10.00" fill="#000000">checkFileSize</text>
</a>
</g>
</g>
<!-- Node26&#45;&gt;Node27 -->
<g id="edge1" class="edge">
<title>Node26&#45;&gt;Node27</title>
<path fill="none" stroke="#191970" d="M79.2074,-10C87.6248,-10 96.3919,-10 104.6994,-10"/>
<polygon fill="#191970" stroke="#191970" points="79.1681,-6.5001 69.1681,-10 79.1681,-13.5001 79.1681,-6.5001"/>
</g>
<!-- Node28 -->
<g id="node3" class="node">
<title>Node28</title>
<g id="a_node3"><a xlink:href="files_8h.html#a627e4b202ea71f3bd241ccf562449bd6" target="_top" xlink:title="find_sendme_files">
<polygon fill="none" stroke="#000000" points="223,-.5 223,-19.5 327,-19.5 327,-.5 223,-.5"/>
<text text-anchor="middle" x="275" y="-7.5" font-family="Helvetica,sans-Serif" font-size="10.00" fill="#000000">find_sendme_files</text>
</a>
</g>
</g>
<!-- Node27&#45;&gt;Node28 -->
<g id="edge2" class="edge">
<title>Node27&#45;&gt;Node28</title>
<path fill="none" stroke="#191970" d="M197.2567,-10C205.687,-10 214.4327,-10 222.8837,-10"/>
<polygon fill="#191970" stroke="#191970" points="197.1711,-6.5001 187.1711,-10 197.171,-13.5001 197.1711,-6.5001"/>
</g>
<!-- Node28&#45;&gt;Node28 -->
<g id="edge3" class="edge">
<title>Node28&#45;&gt;Node28</title>
<path fill="none" stroke="#191970" d="M251.1906,-29.0292C252.4893,-34.128 260.4258,-38 275,-38 297.75,-38 304.3262,-28.5653 294.7285,-19.7571"/>
<polygon fill="#191970" stroke="#191970" points="254.4465,-30.3197 255.2715,-19.7571 248.0396,-27.4998 254.4465,-30.3197"/>
</g>
</g>
</svg>
