<?xml version="1.0" encoding="UTF-8" standalone="no"?>
<!DOCTYPE svg PUBLIC "-//W3C//DTD SVG 1.1//EN"
 "http://www.w3.org/Graphics/SVG/1.1/DTD/svg11.dtd">
<!-- Generated by graphviz version 2.40.1 (20161225.0304)
 -->
<!-- Title: checkFileSize Pages: 1 -->
<svg width="461pt" height="46pt"
 viewBox="0.00 0.00 461.00 46.00" xmlns="http://www.w3.org/2000/svg" xmlns:xlink="http://www.w3.org/1999/xlink">
<g id="graph0" class="graph" transform="scale(1 1) rotate(0) translate(4 42)">
<title>checkFileSize</title>
<!-- Node13 -->
<g id="node1" class="node">
<title>Node13</title>
<polygon fill="#bfbfbf" stroke="#000000" points="0,-.5 0,-19.5 82,-19.5 82,-.5 0,-.5"/>
<text text-anchor="middle" x="41" y="-7.5" font-family="Helvetica,sans-Serif" font-size="10.00" fill="#000000">checkFileSize</text>
</g>
<!-- Node14 -->
<g id="node2" class="node">
<title>Node14</title>
<g id="a_node2"><a xlink:href="files_8h.html#a627e4b202ea71f3bd241ccf562449bd6" target="_top" xlink:title="find_sendme_files">
<polygon fill="none" stroke="#000000" points="118,-.5 118,-19.5 222,-19.5 222,-.5 118,-.5"/>
<text text-anchor="middle" x="170" y="-7.5" font-family="Helvetica,sans-Serif" font-size="10.00" fill="#000000">find_sendme_files</text>
</a>
</g>
</g>
<!-- Node13&#45;&gt;Node14 -->
<g id="edge1" class="edge">
<title>Node13&#45;&gt;Node14</title>
<path fill="none" stroke="#191970" d="M92.2567,-10C100.687,-10 109.4327,-10 117.8837,-10"/>
<polygon fill="#191970" stroke="#191970" points="92.1711,-6.5001 82.1711,-10 92.171,-13.5001 92.1711,-6.5001"/>
</g>
<!-- Node14&#45;&gt;Node14 -->
<g id="edge4" class="edge">
<title>Node14&#45;&gt;Node14</title>
<path fill="none" stroke="#191970" d="M146.1906,-29.0292C147.4893,-34.128 155.4258,-38 170,-38 192.75,-38 199.3262,-28.5653 189.7285,-19.7571"/>
<polygon fill="#191970" stroke="#191970" points="149.4465,-30.3197 150.2715,-19.7571 143.0396,-27.4998 149.4465,-30.3197"/>
</g>
<!-- Node15 -->
<g id="node3" class="node">
<title>Node15</title>
<g id="a_node3"><a xlink:href="client_8h.html#a48d605ff689f470746c858648f0a98c2" target="_top" xlink:title="Handler del segnale SIGINT. ">
<polygon fill="none" stroke="#000000" points="258,-.5 258,-19.5 376,-19.5 376,-.5 258,-.5"/>
<text text-anchor="middle" x="317" y="-7.5" font-family="Helvetica,sans-Serif" font-size="10.00" fill="#000000">SIGINTSignalHandler</text>
</a>
</g>
</g>
<!-- Node14&#45;&gt;Node15 -->
<g id="edge2" class="edge">
<title>Node14&#45;&gt;Node15</title>
<path fill="none" stroke="#191970" d="M232.4207,-10C240.8733,-10 249.526,-10 257.9176,-10"/>
<polygon fill="#191970" stroke="#191970" points="232.2406,-6.5001 222.2406,-10 232.2406,-13.5001 232.2406,-6.5001"/>
</g>
<!-- Node16 -->
<g id="node4" class="node">
<title>Node16</title>
<g id="a_node4"><a xlink:href="client_8h.html#a0ddf1224851353fc92bfbff6f499fa97" target="_top" xlink:title="main">
<polygon fill="none" stroke="#000000" points="412,-.5 412,-19.5 453,-19.5 453,-.5 412,-.5"/>
<text text-anchor="middle" x="432.5" y="-7.5" font-family="Helvetica,sans-Serif" font-size="10.00" fill="#000000">main</text>
</a>
</g>
</g>
<!-- Node15&#45;&gt;Node16 -->
<g id="edge3" class="edge">
<title>Node15&#45;&gt;Node16</title>
<path fill="none" stroke="#191970" d="M386.2973,-10C395.5856,-10 404.4584,-10 411.9009,-10"/>
<polygon fill="#191970" stroke="#191970" points="386.1034,-6.5001 376.1034,-10 386.1034,-13.5001 386.1034,-6.5001"/>
</g>
</g>
</svg>
