<?xml version="1.0" encoding="UTF-8" standalone="no"?>
<!DOCTYPE svg PUBLIC "-//W3C//DTD SVG 1.1//EN"
 "http://www.w3.org/Graphics/SVG/1.1/DTD/svg11.dtd">
<!-- Generated by graphviz version 2.40.1 (20161225.0304)
 -->
<!-- Title: /mnt/c/Users/stefa/Desktop/progetti/system_call/src/files.c Pages: 1 -->
<svg width="639pt" height="162pt"
 viewBox="0.00 0.00 638.51 162.00" xmlns="http://www.w3.org/2000/svg" xmlns:xlink="http://www.w3.org/1999/xlink">
<g id="graph0" class="graph" transform="scale(1 1) rotate(0) translate(4 158)">
<title>/mnt/c/Users/stefa/Desktop/progetti/system_call/src/files.c</title>
<!-- Node0 -->
<g id="node1" class="node">
<title>Node0</title>
<polygon fill="#bfbfbf" stroke="#000000" points="234.5106,-112.5 234.5106,-153.5 374.5106,-153.5 374.5106,-112.5 234.5106,-112.5"/>
<text text-anchor="start" x="242.5106" y="-141.5" font-family="Helvetica,sans-Serif" font-size="10.00" fill="#000000">/mnt/c/Users/stefa</text>
<text text-anchor="start" x="242.5106" y="-130.5" font-family="Helvetica,sans-Serif" font-size="10.00" fill="#000000">/Desktop/progetti/system</text>
<text text-anchor="middle" x="304.5106" y="-119.5" font-family="Helvetica,sans-Serif" font-size="10.00" fill="#000000">_call/src/files.c</text>
</g>
<!-- Node1 -->
<g id="node2" class="node">
<title>Node1</title>
<polygon fill="none" stroke="#bfbfbf" points="131.0106,-.5 131.0106,-19.5 184.0106,-19.5 184.0106,-.5 131.0106,-.5"/>
<text text-anchor="middle" x="157.5106" y="-7.5" font-family="Helvetica,sans-Serif" font-size="10.00" fill="#000000">stdlib.h</text>
</g>
<!-- Node0&#45;&gt;Node1 -->
<g id="edge1" class="edge">
<title>Node0&#45;&gt;Node1</title>
<path fill="none" stroke="#191970" d="M234.3629,-129.5503C155.7975,-124.0451 35.7293,-110.1494 7.5106,-76 -25.86,-35.6159 66.3764,-19.1809 120.7937,-13.1359"/>
<polygon fill="#191970" stroke="#191970" points="121.2168,-16.6109 130.8001,-12.093 120.4911,-9.6486 121.2168,-16.6109"/>
</g>
<!-- Node2 -->
<g id="node3" class="node">
<title>Node2</title>
<polygon fill="none" stroke="#bfbfbf" points="16.5106,-56.5 16.5106,-75.5 80.5106,-75.5 80.5106,-56.5 16.5106,-56.5"/>
<text text-anchor="middle" x="48.5106" y="-63.5" font-family="Helvetica,sans-Serif" font-size="10.00" fill="#000000">sys/stat.h</text>
</g>
<!-- Node0&#45;&gt;Node2 -->
<g id="edge2" class="edge">
<title>Node0&#45;&gt;Node2</title>
<path fill="none" stroke="#191970" d="M234.2189,-114.6033C188.1564,-102.5479 129.4836,-87.1921 90.5456,-77.0013"/>
<polygon fill="#191970" stroke="#191970" points="91.1631,-73.5451 80.6028,-74.3991 89.3907,-80.3171 91.1631,-73.5451"/>
</g>
<!-- Node3 -->
<g id="node4" class="node">
<title>Node3</title>
<polygon fill="none" stroke="#bfbfbf" points="98.5106,-56.5 98.5106,-75.5 152.5106,-75.5 152.5106,-56.5 98.5106,-56.5"/>
<text text-anchor="middle" x="125.5106" y="-63.5" font-family="Helvetica,sans-Serif" font-size="10.00" fill="#000000">dirent.h</text>
</g>
<!-- Node0&#45;&gt;Node3 -->
<g id="edge3" class="edge">
<title>Node0&#45;&gt;Node3</title>
<path fill="none" stroke="#191970" d="M249.3442,-112.3511C220.5061,-101.557 186.0627,-88.6647 160.8309,-79.2204"/>
<polygon fill="#191970" stroke="#191970" points="161.8968,-75.8823 151.3044,-75.6546 159.4429,-82.4381 161.8968,-75.8823"/>
</g>
<!-- Node4 -->
<g id="node5" class="node">
<title>Node4</title>
<polygon fill="none" stroke="#bfbfbf" points="171.0106,-56.5 171.0106,-75.5 222.0106,-75.5 222.0106,-56.5 171.0106,-56.5"/>
<text text-anchor="middle" x="196.5106" y="-63.5" font-family="Helvetica,sans-Serif" font-size="10.00" fill="#000000">errno.h</text>
</g>
<!-- Node0&#45;&gt;Node4 -->
<g id="edge4" class="edge">
<title>Node0&#45;&gt;Node4</title>
<path fill="none" stroke="#191970" d="M271.2258,-112.3511C254.9042,-102.2256 235.6066,-90.254 220.7122,-81.0139"/>
<polygon fill="#191970" stroke="#191970" points="222.4161,-77.9522 212.0733,-75.6546 218.7259,-83.9005 222.4161,-77.9522"/>
</g>
<!-- Node5 -->
<g id="node6" class="node">
<title>Node5</title>
<polygon fill="none" stroke="#bfbfbf" points="307.5106,-.5 307.5106,-19.5 357.5106,-19.5 357.5106,-.5 307.5106,-.5"/>
<text text-anchor="middle" x="332.5106" y="-7.5" font-family="Helvetica,sans-Serif" font-size="10.00" fill="#000000">stdio.h</text>
</g>
<!-- Node0&#45;&gt;Node5 -->
<g id="edge5" class="edge">
<title>Node0&#45;&gt;Node5</title>
<path fill="none" stroke="#191970" d="M342.8803,-112.3641C356.0533,-103.1317 369.29,-90.9258 376.5106,-76 385.2646,-57.9046 369.7306,-38.9871 354.76,-26.0682"/>
<polygon fill="#191970" stroke="#191970" points="356.6445,-23.0922 346.6589,-19.5514 352.257,-28.5465 356.6445,-23.0922"/>
</g>
<!-- Node6 -->
<g id="node7" class="node">
<title>Node6</title>
<polygon fill="none" stroke="#bfbfbf" points="315.0106,-56.5 315.0106,-75.5 368.0106,-75.5 368.0106,-56.5 315.0106,-56.5"/>
<text text-anchor="middle" x="341.5106" y="-63.5" font-family="Helvetica,sans-Serif" font-size="10.00" fill="#000000">string.h</text>
</g>
<!-- Node0&#45;&gt;Node6 -->
<g id="edge6" class="edge">
<title>Node0&#45;&gt;Node6</title>
<path fill="none" stroke="#191970" d="M316.0149,-112.168C320.8854,-103.3484 326.5146,-93.155 331.2427,-84.5933"/>
<polygon fill="#191970" stroke="#191970" points="334.3391,-86.2263 336.1095,-75.7805 328.2113,-82.8424 334.3391,-86.2263"/>
</g>
<!-- Node7 -->
<g id="node8" class="node">
<title>Node7</title>
<g id="a_node8"><a xlink:href="strings_8h.html" target="_top" xlink:title="Contiene la definizioni di variabili e funzioni specifiche per la gestione delle STRINGHE. ">
<polygon fill="none" stroke="#000000" points="570.0106,-56.5 570.0106,-75.5 629.0106,-75.5 629.0106,-56.5 570.0106,-56.5"/>
<text text-anchor="middle" x="599.5106" y="-63.5" font-family="Helvetica,sans-Serif" font-size="10.00" fill="#000000">strings.h</text>
</a>
</g>
</g>
<!-- Node0&#45;&gt;Node7 -->
<g id="edge7" class="edge">
<title>Node0&#45;&gt;Node7</title>
<path fill="none" stroke="#191970" d="M374.7647,-118.1928C424.0928,-107.6168 491.8422,-92.7343 559.6631,-76.3924"/>
<polygon fill="#191970" stroke="#191970" points="560.7717,-79.7252 569.6678,-73.9711 559.1251,-72.9217 560.7717,-79.7252"/>
</g>
<!-- Node9 -->
<g id="node10" class="node">
<title>Node9</title>
<g id="a_node10"><a xlink:href="files_8h.html" target="_top" xlink:title="Contiene la definizioni di variabili e funzioni specifiche per la gestione dei FILE. ">
<polygon fill="none" stroke="#000000" points="424.5106,-56.5 424.5106,-75.5 470.5106,-75.5 470.5106,-56.5 424.5106,-56.5"/>
<text text-anchor="middle" x="447.5106" y="-63.5" font-family="Helvetica,sans-Serif" font-size="10.00" fill="#000000">files.h</text>
</a>
</g>
</g>
<!-- Node0&#45;&gt;Node9 -->
<g id="edge9" class="edge">
<title>Node0&#45;&gt;Node9</title>
<path fill="none" stroke="#191970" d="M348.5822,-112.3511C371.0088,-101.8435 397.6787,-89.3478 417.6731,-79.9798"/>
<polygon fill="#191970" stroke="#191970" points="419.3341,-83.0668 426.9045,-75.6546 416.3641,-76.728 419.3341,-83.0668"/>
</g>
<!-- Node10 -->
<g id="node11" class="node">
<title>Node10</title>
<g id="a_node11"><a xlink:href="err__exit_8h.html" target="_top" xlink:title="Contiene la definizione della funzione di stampa degli errori. ">
<polygon fill="none" stroke="#000000" points="489.0106,-56.5 489.0106,-75.5 552.0106,-75.5 552.0106,-56.5 489.0106,-56.5"/>
<text text-anchor="middle" x="520.5106" y="-63.5" font-family="Helvetica,sans-Serif" font-size="10.00" fill="#000000">err_exit.h</text>
</a>
</g>
</g>
<!-- Node0&#45;&gt;Node10 -->
<g id="edge10" class="edge">
<title>Node0&#45;&gt;Node10</title>
<path fill="none" stroke="#191970" d="M370.7857,-112.4425C406.4391,-101.3833 449.2617,-88.1004 479.9602,-78.5781"/>
<polygon fill="#191970" stroke="#191970" points="481.3642,-81.8072 489.8784,-75.5017 479.2903,-75.1215 481.3642,-81.8072"/>
</g>
<!-- Node11 -->
<g id="node12" class="node">
<title>Node11</title>
<g id="a_node12"><a xlink:href="debug_8h.html" target="_top" xlink:title="Contiene la definizioni di variabili e funzioni per il debugging. ">
<polygon fill="none" stroke="#000000" points="240.5106,-56.5 240.5106,-75.5 296.5106,-75.5 296.5106,-56.5 240.5106,-56.5"/>
<text text-anchor="middle" x="268.5106" y="-63.5" font-family="Helvetica,sans-Serif" font-size="10.00" fill="#000000">debug.h</text>
</a>
</g>
</g>
<!-- Node0&#45;&gt;Node11 -->
<g id="edge11" class="edge">
<title>Node0&#45;&gt;Node11</title>
<path fill="none" stroke="#191970" d="M293.3174,-112.168C288.5784,-103.3484 283.1014,-93.155 278.5011,-84.5933"/>
<polygon fill="#191970" stroke="#191970" points="281.5822,-82.9328 273.7658,-75.7805 275.4159,-86.246 281.5822,-82.9328"/>
</g>
<!-- Node8 -->
<g id="node9" class="node">
<title>Node8</title>
<polygon fill="none" stroke="#bfbfbf" points="568.5106,-.5 568.5106,-19.5 630.5106,-19.5 630.5106,-.5 568.5106,-.5"/>
<text text-anchor="middle" x="599.5106" y="-7.5" font-family="Helvetica,sans-Serif" font-size="10.00" fill="#000000">stdbool.h</text>
</g>
<!-- Node7&#45;&gt;Node8 -->
<g id="edge8" class="edge">
<title>Node7&#45;&gt;Node8</title>
<path fill="none" stroke="#191970" d="M599.5106,-56.2455C599.5106,-48.9382 599.5106,-38.6944 599.5106,-29.7046"/>
<polygon fill="#191970" stroke="#191970" points="603.0107,-29.6426 599.5106,-19.6427 596.0107,-29.6427 603.0107,-29.6426"/>
</g>
<!-- Node11&#45;&gt;Node1 -->
<g id="edge13" class="edge">
<title>Node11&#45;&gt;Node1</title>
<path fill="none" stroke="#191970" d="M249.4291,-56.3733C231.7705,-47.4644 205.3054,-34.1127 185.3009,-24.0203"/>
<polygon fill="#191970" stroke="#191970" points="186.8479,-20.8806 176.3432,-19.5011 183.6948,-27.1303 186.8479,-20.8806"/>
</g>
<!-- Node11&#45;&gt;Node5 -->
<g id="edge12" class="edge">
<title>Node11&#45;&gt;Node5</title>
<path fill="none" stroke="#191970" d="M279.6586,-56.2455C289.0193,-48.0549 302.5964,-36.1749 313.6456,-26.5069"/>
<polygon fill="#191970" stroke="#191970" points="316.2694,-28.8618 321.4904,-19.6427 311.6599,-23.5937 316.2694,-28.8618"/>
</g>
</g>
</svg>
