<?xml version="1.0" encoding="UTF-8" standalone="no"?>
<!DOCTYPE svg PUBLIC "-//W3C//DTD SVG 1.1//EN"
 "http://www.w3.org/Graphics/SVG/1.1/DTD/svg11.dtd">
<!-- Generated by graphviz version 2.40.1 (20161225.0304)
 -->
<!-- Title: find_sendme_files Pages: 1 -->
<svg width="344pt" height="180pt"
 viewBox="0.00 0.00 344.00 180.00" xmlns="http://www.w3.org/2000/svg" xmlns:xlink="http://www.w3.org/1999/xlink">
<g id="graph0" class="graph" transform="scale(1 1) rotate(0) translate(4 176)">
<title>find_sendme_files</title>
<!-- Node21 -->
<g id="node1" class="node">
<title>Node21</title>
<polygon fill="#bfbfbf" stroke="#000000" points="0,-76.5 0,-95.5 104,-95.5 104,-76.5 0,-76.5"/>
<text text-anchor="middle" x="52" y="-83.5" font-family="Helvetica,sans-Serif" font-size="10.00" fill="#000000">find_sendme_files</text>
</g>
<!-- Node21&#45;&gt;Node21 -->
<g id="edge7" class="edge">
<title>Node21&#45;&gt;Node21</title>
<path fill="none" stroke="#191970" d="M31.655,-95.7571C21.7574,-104.5653 28.5391,-114 52,-114 67.0297,-114 75.2142,-110.128 76.5535,-105.0292"/>
<polygon fill="#191970" stroke="#191970" points="79.6652,-103.4164 72.345,-95.7571 73.291,-106.3096 79.6652,-103.4164"/>
</g>
<!-- Node22 -->
<g id="node2" class="node">
<title>Node22</title>
<g id="a_node2"><a xlink:href="strings_8c.html#a21b51584b636c81767ed74b8a527ffd3" target="_top" xlink:title="Concatena la cartella directory al percorso path. ">
<polygon fill="none" stroke="#000000" points="145.5,-152.5 145.5,-171.5 225.5,-171.5 225.5,-152.5 145.5,-152.5"/>
<text text-anchor="middle" x="185.5" y="-159.5" font-family="Helvetica,sans-Serif" font-size="10.00" fill="#000000">append2Path</text>
</a>
</g>
</g>
<!-- Node21&#45;&gt;Node22 -->
<g id="edge1" class="edge">
<title>Node21&#45;&gt;Node22</title>
<path fill="none" stroke="#191970" d="M65.2605,-95.6674C82.1003,-107.6873 112.3046,-128.3988 140,-143 143.4786,-144.8339 147.1739,-146.6215 150.896,-148.3203"/>
<polygon fill="#191970" stroke="#191970" points="149.5306,-151.5431 160.0957,-152.3359 152.331,-145.1276 149.5306,-151.5431"/>
</g>
<!-- Node23 -->
<g id="node3" class="node">
<title>Node23</title>
<g id="a_node3"><a xlink:href="files_8c.html#a675d61c6bfe0d9ddd1be59233dfd7d5c" target="_top" xlink:title="Restituisce 1 se il percorso inizia con &quot;sendme_&quot;, 0 altrimenti. ">
<polygon fill="none" stroke="#000000" points="140,-114.5 140,-133.5 231,-133.5 231,-114.5 140,-114.5"/>
<text text-anchor="middle" x="185.5" y="-121.5" font-family="Helvetica,sans-Serif" font-size="10.00" fill="#000000">checkFileName</text>
</a>
</g>
</g>
<!-- Node21&#45;&gt;Node23 -->
<g id="edge2" class="edge">
<title>Node21&#45;&gt;Node23</title>
<path fill="none" stroke="#191970" d="M85.6877,-95.589C102.7632,-100.4494 123.7004,-106.4091 141.9816,-111.6127"/>
<polygon fill="#191970" stroke="#191970" points="141.2469,-115.0426 151.8231,-114.4141 143.1634,-108.31 141.2469,-115.0426"/>
</g>
<!-- Node25 -->
<g id="node5" class="node">
<title>Node25</title>
<g id="a_node5"><a xlink:href="files_8c.html#a5ac4517096592013308a3252f3226f60" target="_top" xlink:title="Restituisce 1 se il percorso ha la dimensione &lt;= 4 KB, 0 altrimenti. ">
<polygon fill="none" stroke="#000000" points="144.5,-76.5 144.5,-95.5 226.5,-95.5 226.5,-76.5 144.5,-76.5"/>
<text text-anchor="middle" x="185.5" y="-83.5" font-family="Helvetica,sans-Serif" font-size="10.00" fill="#000000">checkFileSize</text>
</a>
</g>
</g>
<!-- Node21&#45;&gt;Node25 -->
<g id="edge4" class="edge">
<title>Node21&#45;&gt;Node25</title>
<path fill="none" stroke="#191970" d="M104.3796,-86C114.2468,-86 124.5539,-86 134.3819,-86"/>
<polygon fill="#191970" stroke="#191970" points="134.4118,-89.5001 144.4118,-86 134.4117,-82.5001 134.4118,-89.5001"/>
</g>
<!-- Node27 -->
<g id="node7" class="node">
<title>Node27</title>
<g id="a_node7"><a xlink:href="files_8c.html#a6a46f37bcdbf048db0fba5bb3e0e6342" target="_top" xlink:title="Aggiunge in fondo alla coda un nuovo filePath. ">
<polygon fill="none" stroke="#000000" points="159,-38.5 159,-57.5 212,-57.5 212,-38.5 159,-38.5"/>
<text text-anchor="middle" x="185.5" y="-45.5" font-family="Helvetica,sans-Serif" font-size="10.00" fill="#000000">append</text>
</a>
</g>
</g>
<!-- Node21&#45;&gt;Node27 -->
<g id="edge6" class="edge">
<title>Node21&#45;&gt;Node27</title>
<path fill="none" stroke="#191970" d="M85.6877,-76.411C105.0261,-70.9064 129.3178,-63.9919 149.0947,-58.3626"/>
<polygon fill="#191970" stroke="#191970" points="150.3153,-61.6542 158.9751,-55.5502 148.3989,-54.9216 150.3153,-61.6542"/>
</g>
<!-- Node28 -->
<g id="node8" class="node">
<title>Node28</title>
<g id="a_node8"><a xlink:href="err__exit_8c.html#aa223b0ecfe538d130ece562646a37d27" target="_top" xlink:title="Prints the error message of the last failed system call and terminates the calling process...">
<polygon fill="none" stroke="#000000" points="161,-.5 161,-19.5 210,-19.5 210,-.5 161,-.5"/>
<text text-anchor="middle" x="185.5" y="-7.5" font-family="Helvetica,sans-Serif" font-size="10.00" fill="#000000">ErrExit</text>
</a>
</g>
</g>
<!-- Node21&#45;&gt;Node28 -->
<g id="edge8" class="edge">
<title>Node21&#45;&gt;Node28</title>
<path fill="none" stroke="#191970" d="M65.2605,-76.3326C82.1003,-64.3127 112.3046,-43.6012 140,-29 143.5614,-27.1224 147.35,-25.2934 151.1619,-23.5586"/>
<polygon fill="#191970" stroke="#191970" points="152.7962,-26.6645 160.57,-19.4659 150.0038,-20.2456 152.7962,-26.6645"/>
</g>
<!-- Node24 -->
<g id="node4" class="node">
<title>Node24</title>
<g id="a_node4"><a xlink:href="strings_8c.html#ab6b8529148710caedf063c1de6b0db16" target="_top" xlink:title="Restituisce vero se la stringa a inizia con la sotto stringa b. ">
<polygon fill="none" stroke="#000000" points="267.5,-114.5 267.5,-133.5 335.5,-133.5 335.5,-114.5 267.5,-114.5"/>
<text text-anchor="middle" x="301.5" y="-121.5" font-family="Helvetica,sans-Serif" font-size="10.00" fill="#000000">StartsWith</text>
</a>
</g>
</g>
<!-- Node23&#45;&gt;Node24 -->
<g id="edge3" class="edge">
<title>Node23&#45;&gt;Node24</title>
<path fill="none" stroke="#191970" d="M231.0133,-124C239.5871,-124 248.5431,-124 257.0828,-124"/>
<polygon fill="#191970" stroke="#191970" points="257.2392,-127.5001 267.2392,-124 257.2392,-120.5001 257.2392,-127.5001"/>
</g>
<!-- Node26 -->
<g id="node6" class="node">
<title>Node26</title>
<g id="a_node6"><a xlink:href="files_8c.html#a096f8e9259afb2839ebe6822364f9928" target="_top" xlink:title="Restituisce dimensione del file in byte. ">
<polygon fill="none" stroke="#000000" points="267,-76.5 267,-95.5 336,-95.5 336,-76.5 267,-76.5"/>
<text text-anchor="middle" x="301.5" y="-83.5" font-family="Helvetica,sans-Serif" font-size="10.00" fill="#000000">getFileSize</text>
</a>
</g>
</g>
<!-- Node25&#45;&gt;Node26 -->
<g id="edge5" class="edge">
<title>Node25&#45;&gt;Node26</title>
<path fill="none" stroke="#191970" d="M226.7239,-86C236.4869,-86 246.9438,-86 256.8511,-86"/>
<polygon fill="#191970" stroke="#191970" points="256.9245,-89.5001 266.9244,-86 256.9244,-82.5001 256.9245,-89.5001"/>
</g>
</g>
</svg>
