<?xml version="1.0" encoding="UTF-8" standalone="no"?>
<!DOCTYPE svg PUBLIC "-//W3C//DTD SVG 1.1//EN"
 "http://www.w3.org/Graphics/SVG/1.1/DTD/svg11.dtd">
<!-- Generated by graphviz version 2.40.1 (20161225.0304)
 -->
<!-- Title: getFileSize Pages: 1 -->
<svg width="554pt" height="84pt"
 viewBox="0.00 0.00 554.00 84.00" xmlns="http://www.w3.org/2000/svg" xmlns:xlink="http://www.w3.org/1999/xlink">
<g id="graph0" class="graph" transform="scale(1 1) rotate(0) translate(4 80)">
<title>getFileSize</title>
<!-- Node38 -->
<g id="node1" class="node">
<title>Node38</title>
<polygon fill="#bfbfbf" stroke="#000000" points="0,-28.5 0,-47.5 69,-47.5 69,-28.5 0,-28.5"/>
<text text-anchor="middle" x="34.5" y="-35.5" font-family="Helvetica,sans-Serif" font-size="10.00" fill="#000000">getFileSize</text>
</g>
<!-- Node39 -->
<g id="node2" class="node">
<title>Node39</title>
<g id="a_node2"><a xlink:href="client_8h.html#a54b47b58f228d7bc9827d2919687e25a" target="_top" xlink:title="Funzione eseguita da ogni Client i (figli di Client 0) per mandare i file al server. ">
<polygon fill="none" stroke="#000000" points="226.5,-56.5 226.5,-75.5 323.5,-75.5 323.5,-56.5 226.5,-56.5"/>
<text text-anchor="middle" x="275" y="-63.5" font-family="Helvetica,sans-Serif" font-size="10.00" fill="#000000">operazioni_figlio</text>
</a>
</g>
</g>
<!-- Node38&#45;&gt;Node39 -->
<g id="edge1" class="edge">
<title>Node38&#45;&gt;Node39</title>
<path fill="none" stroke="#191970" d="M79.3641,-43.2233C121.1034,-48.0827 183.1515,-55.3066 226.1314,-60.3105"/>
<polygon fill="#191970" stroke="#191970" points="79.5516,-39.7215 69.2139,-42.0415 78.742,-46.6746 79.5516,-39.7215"/>
</g>
<!-- Node42 -->
<g id="node5" class="node">
<title>Node42</title>
<g id="a_node5"><a xlink:href="files_8h.html#a5ac4517096592013308a3252f3226f60" target="_top" xlink:title="Restituisce 1 se il percorso ha la dimensione &lt;= 4 KB, 0 altrimenti. ">
<polygon fill="none" stroke="#000000" points="105,-9.5 105,-28.5 187,-28.5 187,-9.5 105,-9.5"/>
<text text-anchor="middle" x="146" y="-16.5" font-family="Helvetica,sans-Serif" font-size="10.00" fill="#000000">checkFileSize</text>
</a>
</g>
</g>
<!-- Node38&#45;&gt;Node42 -->
<g id="edge4" class="edge">
<title>Node38&#45;&gt;Node42</title>
<path fill="none" stroke="#191970" d="M79.2074,-30.3817C87.6248,-28.9473 96.3919,-27.4534 104.6994,-26.0378"/>
<polygon fill="#191970" stroke="#191970" points="78.438,-26.9623 69.1681,-32.0924 79.614,-33.8628 78.438,-26.9623"/>
</g>
<!-- Node40 -->
<g id="node3" class="node">
<title>Node40</title>
<g id="a_node3"><a xlink:href="client_8h.html#a8c7084a254c7cd640d66e647795ff8f6" target="_top" xlink:title="operazioni_client0">
<polygon fill="none" stroke="#000000" points="363,-28.5 363,-47.5 469,-47.5 469,-28.5 363,-28.5"/>
<text text-anchor="middle" x="416" y="-35.5" font-family="Helvetica,sans-Serif" font-size="10.00" fill="#000000">operazioni_client0</text>
</a>
</g>
</g>
<!-- Node39&#45;&gt;Node40 -->
<g id="edge2" class="edge">
<title>Node39&#45;&gt;Node40</title>
<path fill="none" stroke="#191970" d="M333.1832,-54.4459C344.7955,-52.1399 356.8679,-49.7425 368.0871,-47.5146"/>
<polygon fill="#191970" stroke="#191970" points="332.2566,-51.0615 323.1298,-56.4423 333.6201,-57.9274 332.2566,-51.0615"/>
</g>
<!-- Node41 -->
<g id="node4" class="node">
<title>Node41</title>
<g id="a_node4"><a xlink:href="client_8c.html#a0ddf1224851353fc92bfbff6f499fa97" target="_top" xlink:title="main">
<polygon fill="none" stroke="#000000" points="505,-28.5 505,-47.5 546,-47.5 546,-28.5 505,-28.5"/>
<text text-anchor="middle" x="525.5" y="-35.5" font-family="Helvetica,sans-Serif" font-size="10.00" fill="#000000">main</text>
</a>
</g>
</g>
<!-- Node40&#45;&gt;Node41 -->
<g id="edge3" class="edge">
<title>Node40&#45;&gt;Node41</title>
<path fill="none" stroke="#191970" d="M479.2796,-38C488.5452,-38 497.4767,-38 504.9772,-38"/>
<polygon fill="#191970" stroke="#191970" points="479.1462,-34.5001 469.1462,-38 479.1462,-41.5001 479.1462,-34.5001"/>
</g>
<!-- Node43 -->
<g id="node6" class="node">
<title>Node43</title>
<g id="a_node6"><a xlink:href="files_8h.html#a627e4b202ea71f3bd241ccf562449bd6" target="_top" xlink:title="find_sendme_files">
<polygon fill="none" stroke="#000000" points="223,-.5 223,-19.5 327,-19.5 327,-.5 223,-.5"/>
<text text-anchor="middle" x="275" y="-7.5" font-family="Helvetica,sans-Serif" font-size="10.00" fill="#000000">find_sendme_files</text>
</a>
</g>
</g>
<!-- Node42&#45;&gt;Node43 -->
<g id="edge5" class="edge">
<title>Node42&#45;&gt;Node43</title>
<path fill="none" stroke="#191970" d="M197.2567,-15.4239C205.687,-14.8358 214.4327,-14.2256 222.8837,-13.636"/>
<polygon fill="#191970" stroke="#191970" points="196.9032,-11.94 187.1711,-16.1276 197.3905,-18.923 196.9032,-11.94"/>
</g>
<!-- Node43&#45;&gt;Node40 -->
<g id="edge6" class="edge">
<title>Node43&#45;&gt;Node40</title>
<path fill="none" stroke="#191970" d="M333.1832,-21.5541C344.7955,-23.8601 356.8679,-26.2575 368.0871,-28.4854"/>
<polygon fill="#191970" stroke="#191970" points="333.6201,-18.0726 323.1298,-19.5577 332.2566,-24.9385 333.6201,-18.0726"/>
</g>
<!-- Node43&#45;&gt;Node43 -->
<g id="edge7" class="edge">
<title>Node43&#45;&gt;Node43</title>
<path fill="none" stroke="#191970" d="M251.1906,-29.0292C252.4893,-34.128 260.4258,-38 275,-38 297.75,-38 304.3262,-28.5653 294.7285,-19.7571"/>
<polygon fill="#191970" stroke="#191970" points="254.4465,-30.3197 255.2715,-19.7571 248.0396,-27.4998 254.4465,-30.3197"/>
</g>
</g>
</svg>
