<?xml version="1.0" encoding="UTF-8" standalone="no"?>
<!DOCTYPE svg PUBLIC "-//W3C//DTD SVG 1.1//EN"
 "http://www.w3.org/Graphics/SVG/1.1/DTD/svg11.dtd">
<!-- Generated by graphviz version 2.40.1 (20161225.0304)
 -->
<!-- Title: find_sendme_files Pages: 1 -->
<svg width="471pt" height="57pt"
 viewBox="0.00 0.00 471.00 56.76" xmlns="http://www.w3.org/2000/svg" xmlns:xlink="http://www.w3.org/1999/xlink">
<g id="graph0" class="graph" transform="scale(1 1) rotate(0) translate(4 52.7593)">
<title>find_sendme_files</title>
<!-- Node29 -->
<g id="node1" class="node">
<title>Node29</title>
<polygon fill="#bfbfbf" stroke="#000000" points="0,-28.5 0,-47.5 104,-47.5 104,-28.5 0,-28.5"/>
<text text-anchor="middle" x="52" y="-35.5" font-family="Helvetica,sans-Serif" font-size="10.00" fill="#000000">find_sendme_files</text>
</g>
<!-- Node30 -->
<g id="node2" class="node">
<title>Node30</title>
<g id="a_node2"><a xlink:href="client_8h.html#a8c7084a254c7cd640d66e647795ff8f6" target="_top" xlink:title="operazioni_client0">
<polygon fill="none" stroke="#000000" points="280,-28.5 280,-47.5 386,-47.5 386,-28.5 280,-28.5"/>
<text text-anchor="middle" x="333" y="-35.5" font-family="Helvetica,sans-Serif" font-size="10.00" fill="#000000">operazioni_client0</text>
</a>
</g>
</g>
<!-- Node29&#45;&gt;Node30 -->
<g id="edge1" class="edge">
<title>Node29&#45;&gt;Node30</title>
<path fill="none" stroke="#191970" d="M114.1373,-45.1523C122.8125,-45.918 131.6219,-46.5727 140,-47 186.1622,-49.3544 197.8364,-49.3282 244,-47 255.6329,-46.4133 268.0885,-45.3979 279.8864,-44.2554"/>
<polygon fill="#191970" stroke="#191970" points="114.3313,-41.6553 104.049,-44.2096 113.68,-48.6249 114.3313,-41.6553"/>
</g>
<!-- Node32 -->
<g id="node4" class="node">
<title>Node32</title>
<g id="a_node4"><a xlink:href="files_8h.html#a627e4b202ea71f3bd241ccf562449bd6" target="_top" xlink:title="find_sendme_files">
<polygon fill="none" stroke="#000000" points="140,-.5 140,-19.5 244,-19.5 244,-.5 140,-.5"/>
<text text-anchor="middle" x="192" y="-7.5" font-family="Helvetica,sans-Serif" font-size="10.00" fill="#000000">find_sendme_files</text>
</a>
</g>
</g>
<!-- Node29&#45;&gt;Node32 -->
<g id="edge3" class="edge">
<title>Node29&#45;&gt;Node32</title>
<path fill="none" stroke="#191970" d="M109.7705,-26.4459C121.3005,-24.1399 133.2873,-21.7425 144.4269,-19.5146"/>
<polygon fill="#191970" stroke="#191970" points="108.9079,-23.049 99.7885,-28.4423 110.2807,-29.9131 108.9079,-23.049"/>
</g>
<!-- Node31 -->
<g id="node3" class="node">
<title>Node31</title>
<g id="a_node3"><a xlink:href="client_8c.html#a0ddf1224851353fc92bfbff6f499fa97" target="_top" xlink:title="main">
<polygon fill="none" stroke="#000000" points="422,-28.5 422,-47.5 463,-47.5 463,-28.5 422,-28.5"/>
<text text-anchor="middle" x="442.5" y="-35.5" font-family="Helvetica,sans-Serif" font-size="10.00" fill="#000000">main</text>
</a>
</g>
</g>
<!-- Node30&#45;&gt;Node31 -->
<g id="edge2" class="edge">
<title>Node30&#45;&gt;Node31</title>
<path fill="none" stroke="#191970" d="M396.2796,-38C405.5452,-38 414.4767,-38 421.9772,-38"/>
<polygon fill="#191970" stroke="#191970" points="396.1462,-34.5001 386.1462,-38 396.1462,-41.5001 396.1462,-34.5001"/>
</g>
<!-- Node32&#45;&gt;Node30 -->
<g id="edge4" class="edge">
<title>Node32&#45;&gt;Node30</title>
<path fill="none" stroke="#191970" d="M250.1832,-21.5541C261.7955,-23.8601 273.8679,-26.2575 285.0871,-28.4854"/>
<polygon fill="#191970" stroke="#191970" points="250.6201,-18.0726 240.1298,-19.5577 249.2566,-24.9385 250.6201,-18.0726"/>
</g>
<!-- Node32&#45;&gt;Node32 -->
<g id="edge5" class="edge">
<title>Node32&#45;&gt;Node32</title>
<path fill="none" stroke="#191970" d="M165.9584,-29.0292C167.3789,-34.128 176.0594,-38 192,-38 216.8828,-38 224.0755,-28.5653 213.5781,-19.7571"/>
<polygon fill="#191970" stroke="#191970" points="169.238,-30.2855 170.4219,-19.7571 162.9308,-27.2493 169.238,-30.2855"/>
</g>
</g>
</svg>
