<?xml version="1.0" encoding="UTF-8" standalone="no"?>
<!DOCTYPE svg PUBLIC "-//W3C//DTD SVG 1.1//EN"
 "http://www.w3.org/Graphics/SVG/1.1/DTD/svg11.dtd">
<!-- Generated by graphviz version 2.40.1 (20161225.0304)
 -->
<!-- Title: checkFileName Pages: 1 -->
<svg width="458pt" height="46pt"
 viewBox="0.00 0.00 458.00 46.00" xmlns="http://www.w3.org/2000/svg" xmlns:xlink="http://www.w3.org/1999/xlink">
<g id="graph0" class="graph" transform="scale(1 1) rotate(0) translate(4 42)">
<title>checkFileName</title>
<!-- Node7 -->
<g id="node1" class="node">
<title>Node7</title>
<polygon fill="#bfbfbf" stroke="#000000" points="0,-.5 0,-19.5 91,-19.5 91,-.5 0,-.5"/>
<text text-anchor="middle" x="45.5" y="-7.5" font-family="Helvetica,sans-Serif" font-size="10.00" fill="#000000">checkFileName</text>
</g>
<!-- Node8 -->
<g id="node2" class="node">
<title>Node8</title>
<g id="a_node2"><a xlink:href="files_8h.html#a627e4b202ea71f3bd241ccf562449bd6" target="_top" xlink:title="find_sendme_files">
<polygon fill="none" stroke="#000000" points="127,-.5 127,-19.5 231,-19.5 231,-.5 127,-.5"/>
<text text-anchor="middle" x="179" y="-7.5" font-family="Helvetica,sans-Serif" font-size="10.00" fill="#000000">find_sendme_files</text>
</a>
</g>
</g>
<!-- Node7&#45;&gt;Node8 -->
<g id="edge1" class="edge">
<title>Node7&#45;&gt;Node8</title>
<path fill="none" stroke="#191970" d="M101.2222,-10C109.675,-10 118.3705,-10 126.7461,-10"/>
<polygon fill="#191970" stroke="#191970" points="101.0698,-6.5001 91.0697,-10 101.0697,-13.5001 101.0698,-6.5001"/>
</g>
<!-- Node8&#45;&gt;Node8 -->
<g id="edge4" class="edge">
<title>Node8&#45;&gt;Node8</title>
<path fill="none" stroke="#191970" d="M154.4465,-29.0292C155.7858,-34.128 163.9703,-38 179,-38 202.4609,-38 209.2426,-28.5653 199.345,-19.7571"/>
<polygon fill="#191970" stroke="#191970" points="157.709,-30.3096 158.655,-19.7571 151.3348,-27.4164 157.709,-30.3096"/>
</g>
<!-- Node9 -->
<g id="node3" class="node">
<title>Node9</title>
<g id="a_node3"><a xlink:href="client_8h.html#a8c7084a254c7cd640d66e647795ff8f6" target="_top" xlink:title="operazioni_client0">
<polygon fill="none" stroke="#000000" points="267,-.5 267,-19.5 373,-19.5 373,-.5 267,-.5"/>
<text text-anchor="middle" x="320" y="-7.5" font-family="Helvetica,sans-Serif" font-size="10.00" fill="#000000">operazioni_client0</text>
</a>
</g>
</g>
<!-- Node8&#45;&gt;Node9 -->
<g id="edge2" class="edge">
<title>Node8&#45;&gt;Node9</title>
<path fill="none" stroke="#191970" d="M241.317,-10C249.7832,-10 258.409,-10 266.6971,-10"/>
<polygon fill="#191970" stroke="#191970" points="241.1026,-6.5001 231.1026,-10 241.1026,-13.5001 241.1026,-6.5001"/>
</g>
<!-- Node10 -->
<g id="node4" class="node">
<title>Node10</title>
<g id="a_node4"><a xlink:href="client_8c.html#a0ddf1224851353fc92bfbff6f499fa97" target="_top" xlink:title="main">
<polygon fill="none" stroke="#000000" points="409,-.5 409,-19.5 450,-19.5 450,-.5 409,-.5"/>
<text text-anchor="middle" x="429.5" y="-7.5" font-family="Helvetica,sans-Serif" font-size="10.00" fill="#000000">main</text>
</a>
</g>
</g>
<!-- Node9&#45;&gt;Node10 -->
<g id="edge3" class="edge">
<title>Node9&#45;&gt;Node10</title>
<path fill="none" stroke="#191970" d="M383.2796,-10C392.5452,-10 401.4767,-10 408.9772,-10"/>
<polygon fill="#191970" stroke="#191970" points="383.1462,-6.5001 373.1462,-10 383.1462,-13.5001 383.1462,-6.5001"/>
</g>
</g>
</svg>
