<?xml version="1.0" encoding="UTF-8" standalone="no"?>
<!DOCTYPE svg PUBLIC "-//W3C//DTD SVG 1.1//EN"
 "http://www.w3.org/Graphics/SVG/1.1/DTD/svg11.dtd">
<!-- Generated by graphviz version 2.40.1 (20161225.0304)
 -->
<!-- Title: /mnt/c/Users/stefa/Desktop/progetti/system_call/src/files.c Pages: 1 -->
<!--zoomable 162 -->
<svg id="main" version="1.1" xmlns="http://www.w3.org/2000/svg" xmlns:xlink="http://www.w3.org/1999/xlink" xml:space="preserve" onload="init(evt)">
<style type="text/css"><![CDATA[
.edge:hover path { stroke: red; }
.edge:hover polygon { stroke: red; fill: red; }
]]></style>
<script type="text/javascript"><![CDATA[
var edges = document.getElementsByTagName('g');
if (edges && edges.length) {
  for (var i=0;i<edges.length;i++) {
    if (edges[i].id.substr(0,4)=='edge') {
      edges[i].setAttribute('class','edge');
    }
  }
}
]]></script>
        <defs>
                <circle id="rim" cx="0" cy="0" r="7"/>
                <circle id="rim2" cx="0" cy="0" r="3.5"/>
                <g id="zoomPlus">
                        <use xlink:href="#rim" fill="#404040">
                                <set attributeName="fill" to="#808080" begin="zoomplus.mouseover" end="zoomplus.mouseout"/>
                        </use>
                        <path d="M-4,0h8M0,-4v8" fill="none" stroke="white" stroke-width="1.5" pointer-events="none"/>
                </g>
                <g id="zoomMin">
                        <use xlink:href="#rim" fill="#404040">
                                <set attributeName="fill" to="#808080" begin="zoomminus.mouseover" end="zoomminus.mouseout"/>
                        </use>
                        <path d="M-4,0h8" fill="none" stroke="white" stroke-width="1.5" pointer-events="none"/>
                </g>
                <g id="dirArrow">
                        <path fill="none" stroke="white" stroke-width="1.5" d="M0,-3.0v7 M-2.5,-0.5L0,-3.0L2.5,-0.5"/>
                </g>
               <g id="resetDef">
                       <use xlink:href="#rim2" fill="#404040">
                               <set attributeName="fill" to="#808080" begin="reset.mouseover" end="reset.mouseout"/>
                       </use>
               </g>
        </defs>

<script type="text/javascript">
var viewWidth = 639;
var viewHeight = 162;
var sectionId = 'dynsection-0';
</script>
<script xlink:href="svgpan.js"/>
<svg id="graph" class="graph">
<g id="viewport">
<title>/mnt/c/Users/stefa/Desktop/progetti/system_call/src/files.c</title>
<!-- Node0 -->
<g id="node1" class="node">
<title>Node0</title>
<polygon fill="#bfbfbf" stroke="#000000" points="234.5106,-112.5 234.5106,-153.5 374.5106,-153.5 374.5106,-112.5 234.5106,-112.5"/>
<text text-anchor="start" x="242.5106" y="-141.5" font-family="Helvetica,sans-Serif" font-size="10.00" fill="#000000">/mnt/c/Users/stefa</text>
<text text-anchor="start" x="242.5106" y="-130.5" font-family="Helvetica,sans-Serif" font-size="10.00" fill="#000000">/Desktop/progetti/system</text>
<text text-anchor="middle" x="304.5106" y="-119.5" font-family="Helvetica,sans-Serif" font-size="10.00" fill="#000000">_call/src/files.c</text>
</g>
<!-- Node1 -->
<g id="node2" class="node">
<title>Node1</title>
<polygon fill="none" stroke="#bfbfbf" points="131.0106,-.5 131.0106,-19.5 184.0106,-19.5 184.0106,-.5 131.0106,-.5"/>
<text text-anchor="middle" x="157.5106" y="-7.5" font-family="Helvetica,sans-Serif" font-size="10.00" fill="#000000">stdlib.h</text>
</g>
<!-- Node0&#45;&gt;Node1 -->
<g id="edge1" class="edge">
<title>Node0&#45;&gt;Node1</title>
<path fill="none" stroke="#191970" d="M234.3629,-129.5503C155.7975,-124.0451 35.7293,-110.1494 7.5106,-76 -25.86,-35.6159 66.3764,-19.1809 120.7937,-13.1359"/>
<polygon fill="#191970" stroke="#191970" points="121.2168,-16.6109 130.8001,-12.093 120.4911,-9.6486 121.2168,-16.6109"/>
</g>
<!-- Node2 -->
<g id="node3" class="node">
<title>Node2</title>
<polygon fill="none" stroke="#bfbfbf" points="16.5106,-56.5 16.5106,-75.5 80.5106,-75.5 80.5106,-56.5 16.5106,-56.5"/>
<text text-anchor="middle" x="48.5106" y="-63.5" font-family="Helvetica,sans-Serif" font-size="10.00" fill="#000000">sys/stat.h</text>
</g>
<!-- Node0&#45;&gt;Node2 -->
<g id="edge2" class="edge">
<title>Node0&#45;&gt;Node2</title>
<path fill="none" stroke="#191970" d="M234.2189,-114.6033C188.1564,-102.5479 129.4836,-87.1921 90.5456,-77.0013"/>
<polygon fill="#191970" stroke="#191970" points="91.1631,-73.5451 80.6028,-74.3991 89.3907,-80.3171 91.1631,-73.5451"/>
</g>
<!-- Node3 -->
<g id="node4" class="node">
<title>Node3</title>
<polygon fill="none" stroke="#bfbfbf" points="98.5106,-56.5 98.5106,-75.5 152.5106,-75.5 152.5106,-56.5 98.5106,-56.5"/>
<text text-anchor="middle" x="125.5106" y="-63.5" font-family="Helvetica,sans-Serif" font-size="10.00" fill="#000000">dirent.h</text>
</g>
<!-- Node0&#45;&gt;Node3 -->
<g id="edge3" class="edge">
<title>Node0&#45;&gt;Node3</title>
<path fill="none" stroke="#191970" d="M249.3442,-112.3511C220.5061,-101.557 186.0627,-88.6647 160.8309,-79.2204"/>
<polygon fill="#191970" stroke="#191970" points="161.8968,-75.8823 151.3044,-75.6546 159.4429,-82.4381 161.8968,-75.8823"/>
</g>
<!-- Node4 -->
<g id="node5" class="node">
<title>Node4</title>
<polygon fill="none" stroke="#bfbfbf" points="171.0106,-56.5 171.0106,-75.5 222.0106,-75.5 222.0106,-56.5 171.0106,-56.5"/>
<text text-anchor="middle" x="196.5106" y="-63.5" font-family="Helvetica,sans-Serif" font-size="10.00" fill="#000000">errno.h</text>
</g>
<!-- Node0&#45;&gt;Node4 -->
<g id="edge4" class="edge">
<title>Node0&#45;&gt;Node4</title>
<path fill="none" stroke="#191970" d="M271.2258,-112.3511C254.9042,-102.2256 235.6066,-90.254 220.7122,-81.0139"/>
<polygon fill="#191970" stroke="#191970" points="222.4161,-77.9522 212.0733,-75.6546 218.7259,-83.9005 222.4161,-77.9522"/>
</g>
<!-- Node5 -->
<g id="node6" class="node">
<title>Node5</title>
<polygon fill="none" stroke="#bfbfbf" points="307.5106,-.5 307.5106,-19.5 357.5106,-19.5 357.5106,-.5 307.5106,-.5"/>
<text text-anchor="middle" x="332.5106" y="-7.5" font-family="Helvetica,sans-Serif" font-size="10.00" fill="#000000">stdio.h</text>
</g>
<!-- Node0&#45;&gt;Node5 -->
<g id="edge5" class="edge">
<title>Node0&#45;&gt;Node5</title>
<path fill="none" stroke="#191970" d="M342.8803,-112.3641C356.0533,-103.1317 369.29,-90.9258 376.5106,-76 385.2646,-57.9046 369.7306,-38.9871 354.76,-26.0682"/>
<polygon fill="#191970" stroke="#191970" points="356.6445,-23.0922 346.6589,-19.5514 352.257,-28.5465 356.6445,-23.0922"/>
</g>
<!-- Node6 -->
<g id="node7" class="node">
<title>Node6</title>
<polygon fill="none" stroke="#bfbfbf" points="315.0106,-56.5 315.0106,-75.5 368.0106,-75.5 368.0106,-56.5 315.0106,-56.5"/>
<text text-anchor="middle" x="341.5106" y="-63.5" font-family="Helvetica,sans-Serif" font-size="10.00" fill="#000000">string.h</text>
</g>
<!-- Node0&#45;&gt;Node6 -->
<g id="edge6" class="edge">
<title>Node0&#45;&gt;Node6</title>
<path fill="none" stroke="#191970" d="M316.0149,-112.168C320.8854,-103.3484 326.5146,-93.155 331.2427,-84.5933"/>
<polygon fill="#191970" stroke="#191970" points="334.3391,-86.2263 336.1095,-75.7805 328.2113,-82.8424 334.3391,-86.2263"/>
</g>
<!-- Node7 -->
<g id="node8" class="node">
<title>Node7</title>
<g id="a_node8"><a xlink:href="strings_8h.html" target="_top" xlink:title="Contiene la definizioni di variabili e funzioni specifiche per la gestione delle STRINGHE. ">
<polygon fill="none" stroke="#000000" points="570.0106,-56.5 570.0106,-75.5 629.0106,-75.5 629.0106,-56.5 570.0106,-56.5"/>
<text text-anchor="middle" x="599.5106" y="-63.5" font-family="Helvetica,sans-Serif" font-size="10.00" fill="#000000">strings.h</text>
</a>
</g>
</g>
<!-- Node0&#45;&gt;Node7 -->
<g id="edge7" class="edge">
<title>Node0&#45;&gt;Node7</title>
<path fill="none" stroke="#191970" d="M374.7647,-118.1928C424.0928,-107.6168 491.8422,-92.7343 559.6631,-76.3924"/>
<polygon fill="#191970" stroke="#191970" points="560.7717,-79.7252 569.6678,-73.9711 559.1251,-72.9217 560.7717,-79.7252"/>
</g>
<!-- Node9 -->
<g id="node10" class="node">
<title>Node9</title>
<g id="a_node10"><a xlink:href="files_8h.html" target="_top" xlink:title="Contiene la definizioni di variabili e funzioni specifiche per la gestione dei FILE. ">
<polygon fill="none" stroke="#000000" points="424.5106,-56.5 424.5106,-75.5 470.5106,-75.5 470.5106,-56.5 424.5106,-56.5"/>
<text text-anchor="middle" x="447.5106" y="-63.5" font-family="Helvetica,sans-Serif" font-size="10.00" fill="#000000">files.h</text>
</a>
</g>
</g>
<!-- Node0&#45;&gt;Node9 -->
<g id="edge9" class="edge">
<title>Node0&#45;&gt;Node9</title>
<path fill="none" stroke="#191970" d="M348.5822,-112.3511C371.0088,-101.8435 397.6787,-89.3478 417.6731,-79.9798"/>
<polygon fill="#191970" stroke="#191970" points="419.3341,-83.0668 426.9045,-75.6546 416.3641,-76.728 419.3341,-83.0668"/>
</g>
<!-- Node10 -->
<g id="node11" class="node">
<title>Node10</title>
<g id="a_node11"><a xlink:href="err__exit_8h.html" target="_top" xlink:title="Contiene la definizione della funzione di stampa degli errori. ">
<polygon fill="none" stroke="#000000" points="489.0106,-56.5 489.0106,-75.5 552.0106,-75.5 552.0106,-56.5 489.0106,-56.5"/>
<text text-anchor="middle" x="520.5106" y="-63.5" font-family="Helvetica,sans-Serif" font-size="10.00" fill="#000000">err_exit.h</text>
</a>
</g>
</g>
<!-- Node0&#45;&gt;Node10 -->
<g id="edge10" class="edge">
<title>Node0&#45;&gt;Node10</title>
<path fill="none" stroke="#191970" d="M370.7857,-112.4425C406.4391,-101.3833 449.2617,-88.1004 479.9602,-78.5781"/>
<polygon fill="#191970" stroke="#191970" points="481.3642,-81.8072 489.8784,-75.5017 479.2903,-75.1215 481.3642,-81.8072"/>
</g>
<!-- Node11 -->
<g id="node12" class="node">
<title>Node11</title>
<g id="a_node12"><a xlink:href="debug_8h.html" target="_top" xlink:title="Contiene la definizioni di variabili e funzioni per il debugging. ">
<polygon fill="none" stroke="#000000" points="240.5106,-56.5 240.5106,-75.5 296.5106,-75.5 296.5106,-56.5 240.5106,-56.5"/>
<text text-anchor="middle" x="268.5106" y="-63.5" font-family="Helvetica,sans-Serif" font-size="10.00" fill="#000000">debug.h</text>
</a>
</g>
</g>
<!-- Node0&#45;&gt;Node11 -->
<g id="edge11" class="edge">
<title>Node0&#45;&gt;Node11</title>
<path fill="none" stroke="#191970" d="M293.3174,-112.168C288.5784,-103.3484 283.1014,-93.155 278.5011,-84.5933"/>
<polygon fill="#191970" stroke="#191970" points="281.5822,-82.9328 273.7658,-75.7805 275.4159,-86.246 281.5822,-82.9328"/>
</g>
<!-- Node8 -->
<g id="node9" class="node">
<title>Node8</title>
<polygon fill="none" stroke="#bfbfbf" points="568.5106,-.5 568.5106,-19.5 630.5106,-19.5 630.5106,-.5 568.5106,-.5"/>
<text text-anchor="middle" x="599.5106" y="-7.5" font-family="Helvetica,sans-Serif" font-size="10.00" fill="#000000">stdbool.h</text>
</g>
<!-- Node7&#45;&gt;Node8 -->
<g id="edge8" class="edge">
<title>Node7&#45;&gt;Node8</title>
<path fill="none" stroke="#191970" d="M599.5106,-56.2455C599.5106,-48.9382 599.5106,-38.6944 599.5106,-29.7046"/>
<polygon fill="#191970" stroke="#191970" points="603.0107,-29.6426 599.5106,-19.6427 596.0107,-29.6427 603.0107,-29.6426"/>
</g>
<!-- Node11&#45;&gt;Node1 -->
<g id="edge13" class="edge">
<title>Node11&#45;&gt;Node1</title>
<path fill="none" stroke="#191970" d="M249.4291,-56.3733C231.7705,-47.4644 205.3054,-34.1127 185.3009,-24.0203"/>
<polygon fill="#191970" stroke="#191970" points="186.8479,-20.8806 176.3432,-19.5011 183.6948,-27.1303 186.8479,-20.8806"/>
</g>
<!-- Node11&#45;&gt;Node5 -->
<g id="edge12" class="edge">
<title>Node11&#45;&gt;Node5</title>
<path fill="none" stroke="#191970" d="M279.6586,-56.2455C289.0193,-48.0549 302.5964,-36.1749 313.6456,-26.5069"/>
<polygon fill="#191970" stroke="#191970" points="316.2694,-28.8618 321.4904,-19.6427 311.6599,-23.5937 316.2694,-28.8618"/>
</g>
</g>
</svg>
        <g id="navigator" transform="translate(0 0)" fill="#404254">
                <rect fill="#f2f5e9" fill-opacity="0.5" stroke="#606060" stroke-width=".5" x="0" y="0" width="60" height="60"/>
                <use id="zoomplus" xlink:href="#zoomPlus" x="17" y="9" onmousedown="handleZoom(evt,'in')"/>
                <use id="zoomminus" xlink:href="#zoomMin" x="42" y="9" onmousedown="handleZoom(evt,'out')"/>
                <use id="reset" xlink:href="#resetDef" x="30" y="36" onmousedown="handleReset()"/>
                <g id="arrowUp" xlink:href="#dirArrow" transform="translate(30 24)" onmousedown="handlePan(0,-1)">
                  <use xlink:href="#rim" fill="#404040">
                        <set attributeName="fill" to="#808080" begin="arrowUp.mouseover" end="arrowUp.mouseout"/>
                  </use>
                  <path fill="none" stroke="white" stroke-width="1.5" d="M0,-3.0v7 M-2.5,-0.5L0,-3.0L2.5,-0.5"/>
                </g>
                <g id="arrowRight" xlink:href="#dirArrow" transform="rotate(90) translate(36 -43)" onmousedown="handlePan(1,0)">
                  <use xlink:href="#rim" fill="#404040">
                        <set attributeName="fill" to="#808080" begin="arrowRight.mouseover" end="arrowRight.mouseout"/>
                  </use>
                  <path fill="none" stroke="white" stroke-width="1.5" d="M0,-3.0v7 M-2.5,-0.5L0,-3.0L2.5,-0.5"/>
                </g>
                <g id="arrowDown" xlink:href="#dirArrow" transform="rotate(180) translate(-30 -48)" onmousedown="handlePan(0,1)">
                  <use xlink:href="#rim" fill="#404040">
                        <set attributeName="fill" to="#808080" begin="arrowDown.mouseover" end="arrowDown.mouseout"/>
                  </use>
                  <path fill="none" stroke="white" stroke-width="1.5" d="M0,-3.0v7 M-2.5,-0.5L0,-3.0L2.5,-0.5"/>
                </g>
                <g id="arrowLeft" xlink:href="#dirArrow" transform="rotate(270) translate(-36 17)" onmousedown="handlePan(-1,0)">
                  <use xlink:href="#rim" fill="#404040">
                        <set attributeName="fill" to="#808080" begin="arrowLeft.mouseover" end="arrowLeft.mouseout"/>
                  </use>
                  <path fill="none" stroke="white" stroke-width="1.5" d="M0,-3.0v7 M-2.5,-0.5L0,-3.0L2.5,-0.5"/>
                </g>
        </g>
        <svg viewBox="0 0 15 15" width="100%" height="30px" preserveAspectRatio="xMaxYMin meet">
         <g id="arrow_out" transform="scale(0.3 0.3)">
          <a xlink:href="files_8c__incl_org.svg" target="_base">
           <rect id="button" ry="5" rx="5" y="6" x="6" height="38" width="38"
                fill="#f2f5e9" fill-opacity="0.5" stroke="#606060" stroke-width="1.0"/>
           <path id="arrow"
             d="M 11.500037,31.436501 C 11.940474,20.09759 22.043105,11.32322 32.158766,21.979434 L 37.068811,17.246167 C 37.068811,17.246167 37.088388,32 37.088388,32 L 22.160133,31.978069 C 22.160133,31.978069 26.997745,27.140456 26.997745,27.140456 C 18.528582,18.264221 13.291696,25.230495 11.500037,31.436501 z"
             style="fill:#404040;"/>
          </a>
         </g>
        </svg>
</svg>
