<?xml version="1.0" encoding="UTF-8" standalone="no"?>
<!DOCTYPE svg PUBLIC "-//W3C//DTD SVG 1.1//EN"
 "http://www.w3.org/Graphics/SVG/1.1/DTD/svg11.dtd">
<!-- Generated by graphviz version 2.40.1 (20161225.0304)
 -->
<!-- Title: getFileSize Pages: 1 -->
<svg width="210pt" height="66pt"
 viewBox="0.00 0.00 210.00 66.00" xmlns="http://www.w3.org/2000/svg" xmlns:xlink="http://www.w3.org/1999/xlink">
<g id="graph0" class="graph" transform="scale(1 1) rotate(0) translate(4 62)">
<title>getFileSize</title>
<!-- Node15 -->
<g id="node1" class="node">
<title>Node15</title>
<polygon fill="#bfbfbf" stroke="#000000" points="0,-19.5 0,-38.5 69,-38.5 69,-19.5 0,-19.5"/>
<text text-anchor="middle" x="34.5" y="-26.5" font-family="Helvetica,sans-Serif" font-size="10.00" fill="#000000">getFileSize</text>
</g>
<!-- Node16 -->
<g id="node2" class="node">
<title>Node16</title>
<g id="a_node2"><a xlink:href="client_8h.html#a54b47b58f228d7bc9827d2919687e25a" target="_top" xlink:title="Funzione eseguita da ogni Client i (figli di Client 0) per mandare i file al server. ">
<polygon fill="none" stroke="#000000" points="105,-38.5 105,-57.5 202,-57.5 202,-38.5 105,-38.5"/>
<text text-anchor="middle" x="153.5" y="-45.5" font-family="Helvetica,sans-Serif" font-size="10.00" fill="#000000">operazioni_figlio</text>
</a>
</g>
</g>
<!-- Node15&#45;&gt;Node16 -->
<g id="edge1" class="edge">
<title>Node15&#45;&gt;Node16</title>
<path fill="none" stroke="#191970" d="M79.1805,-36.1339C87.5393,-37.4685 96.3148,-38.8696 104.7883,-40.2225"/>
<polygon fill="#191970" stroke="#191970" points="79.6664,-32.6672 69.2396,-34.5467 78.5627,-39.5796 79.6664,-32.6672"/>
</g>
<!-- Node17 -->
<g id="node3" class="node">
<title>Node17</title>
<g id="a_node3"><a xlink:href="files_8h.html#a5ac4517096592013308a3252f3226f60" target="_top" xlink:title="Restituisce 1 se il percorso ha la dimensione &lt;= 4 KB, 0 altrimenti. ">
<polygon fill="none" stroke="#000000" points="112.5,-.5 112.5,-19.5 194.5,-19.5 194.5,-.5 112.5,-.5"/>
<text text-anchor="middle" x="153.5" y="-7.5" font-family="Helvetica,sans-Serif" font-size="10.00" fill="#000000">checkFileSize</text>
</a>
</g>
</g>
<!-- Node15&#45;&gt;Node17 -->
<g id="edge2" class="edge">
<title>Node15&#45;&gt;Node17</title>
<path fill="none" stroke="#191970" d="M79.32,-21.8439C90.1059,-20.1217 101.5782,-18.29 112.1953,-16.5949"/>
<polygon fill="#191970" stroke="#191970" points="78.5627,-18.4204 69.2396,-23.4533 79.6664,-25.3328 78.5627,-18.4204"/>
</g>
</g>
</svg>
