<?xml version="1.0" encoding="UTF-8" standalone="no"?>
<!DOCTYPE svg PUBLIC "-//W3C//DTD SVG 1.1//EN"
 "http://www.w3.org/Graphics/SVG/1.1/DTD/svg11.dtd">
<!-- Generated by graphviz version 2.40.1 (20161225.0304)
 -->
<!-- Title: /mnt/c/Users/stefa/Desktop/system_call/src/message_queue.c Pages: 1 -->
<svg width="385pt" height="162pt"
 viewBox="0.00 0.00 384.84 162.00" xmlns="http://www.w3.org/2000/svg" xmlns:xlink="http://www.w3.org/1999/xlink">
<g id="graph0" class="graph" transform="scale(1 1) rotate(0) translate(4 158)">
<title>/mnt/c/Users/stefa/Desktop/system_call/src/message_queue.c</title>
<!-- Node0 -->
<g id="node1" class="node">
<title>Node0</title>
<polygon fill="#bfbfbf" stroke="#000000" points="51.8447,-112.5 51.8447,-153.5 176.8447,-153.5 176.8447,-112.5 51.8447,-112.5"/>
<text text-anchor="start" x="59.8447" y="-141.5" font-family="Helvetica,sans-Serif" font-size="10.00" fill="#000000">/mnt/c/Users/stefa</text>
<text text-anchor="start" x="59.8447" y="-130.5" font-family="Helvetica,sans-Serif" font-size="10.00" fill="#000000">/Desktop/system_call</text>
<text text-anchor="middle" x="114.3447" y="-119.5" font-family="Helvetica,sans-Serif" font-size="10.00" fill="#000000">/src/message_queue.c</text>
</g>
<!-- Node1 -->
<g id="node2" class="node">
<title>Node1</title>
<polygon fill="none" stroke="#bfbfbf" points="79.3447,-.5 79.3447,-19.5 145.3447,-19.5 145.3447,-.5 79.3447,-.5"/>
<text text-anchor="middle" x="112.3447" y="-7.5" font-family="Helvetica,sans-Serif" font-size="10.00" fill="#000000">sys/msg.h</text>
</g>
<!-- Node0&#45;&gt;Node1 -->
<g id="edge1" class="edge">
<title>Node0&#45;&gt;Node1</title>
<path fill="none" stroke="#191970" d="M51.7218,-114.7101C33.224,-106.0689 15.0732,-93.6426 4.3447,-76 -13.7343,-46.2697 31.874,-28.0668 69.2988,-18.5058"/>
<polygon fill="#191970" stroke="#191970" points="70.1828,-21.893 79.0845,-16.1475 68.5428,-15.0878 70.1828,-21.893"/>
</g>
<!-- Node2 -->
<g id="node3" class="node">
<title>Node2</title>
<polygon fill="none" stroke="#bfbfbf" points="13.8447,-56.5 13.8447,-75.5 64.8447,-75.5 64.8447,-56.5 13.8447,-56.5"/>
<text text-anchor="middle" x="39.3447" y="-63.5" font-family="Helvetica,sans-Serif" font-size="10.00" fill="#000000">errno.h</text>
</g>
<!-- Node0&#45;&gt;Node2 -->
<g id="edge2" class="edge">
<title>Node0&#45;&gt;Node2</title>
<path fill="none" stroke="#191970" d="M91.0253,-112.168C80.4095,-102.6846 68.0156,-91.6127 58.0264,-82.689"/>
<polygon fill="#191970" stroke="#191970" points="60.0824,-79.8325 50.293,-75.7805 55.4188,-85.0528 60.0824,-79.8325"/>
</g>
<!-- Node3 -->
<g id="node4" class="node">
<title>Node3</title>
<g id="a_node4"><a xlink:href="err__exit_8h.html" target="_top" xlink:title="Contiene la definizione della funzione di stampa degli errori. ">
<polygon fill="none" stroke="#000000" points="82.8447,-56.5 82.8447,-75.5 145.8447,-75.5 145.8447,-56.5 82.8447,-56.5"/>
<text text-anchor="middle" x="114.3447" y="-63.5" font-family="Helvetica,sans-Serif" font-size="10.00" fill="#000000">err_exit.h</text>
</a>
</g>
</g>
<!-- Node0&#45;&gt;Node3 -->
<g id="edge3" class="edge">
<title>Node0&#45;&gt;Node3</title>
<path fill="none" stroke="#191970" d="M114.3447,-112.168C114.3447,-103.8226 114.3447,-94.2471 114.3447,-85.9879"/>
<polygon fill="#191970" stroke="#191970" points="117.8448,-85.7804 114.3447,-75.7805 110.8448,-85.7805 117.8448,-85.7804"/>
</g>
<!-- Node4 -->
<g id="node5" class="node">
<title>Node4</title>
<g id="a_node5"><a xlink:href="message__queue_8h.html" target="_top" xlink:title="Contiene la definizioni di variabili e funzioni specifiche per la gestione delle CODE DEI MESSAGGI...">
<polygon fill="none" stroke="#000000" points="163.8447,-56.5 163.8447,-75.5 268.8447,-75.5 268.8447,-56.5 163.8447,-56.5"/>
<text text-anchor="middle" x="216.3447" y="-63.5" font-family="Helvetica,sans-Serif" font-size="10.00" fill="#000000">message_queue.h</text>
</a>
</g>
</g>
<!-- Node0&#45;&gt;Node4 -->
<g id="edge4" class="edge">
<title>Node0&#45;&gt;Node4</title>
<path fill="none" stroke="#191970" d="M145.7803,-112.3511C161.0498,-102.3212 179.0771,-90.4797 193.0884,-81.2762"/>
<polygon fill="#191970" stroke="#191970" points="195.21,-84.0702 201.6466,-75.6546 191.3669,-78.2195 195.21,-84.0702"/>
</g>
<!-- Node5 -->
<g id="node6" class="node">
<title>Node5</title>
<g id="a_node6"><a xlink:href="debug_8h.html" target="_top" xlink:title="Contiene la definizioni di variabili e funzioni per il debugging. ">
<polygon fill="none" stroke="#000000" points="287.3447,-56.5 287.3447,-75.5 343.3447,-75.5 343.3447,-56.5 287.3447,-56.5"/>
<text text-anchor="middle" x="315.3447" y="-63.5" font-family="Helvetica,sans-Serif" font-size="10.00" fill="#000000">debug.h</text>
</a>
</g>
</g>
<!-- Node0&#45;&gt;Node5 -->
<g id="edge6" class="edge">
<title>Node0&#45;&gt;Node5</title>
<path fill="none" stroke="#191970" d="M176.0173,-112.4425C209.1538,-101.397 248.945,-88.1332 277.5042,-78.6135"/>
<polygon fill="#191970" stroke="#191970" points="278.7282,-81.8949 287.1082,-75.4122 276.5146,-75.2541 278.7282,-81.8949"/>
</g>
<!-- Node4&#45;&gt;Node1 -->
<g id="edge5" class="edge">
<title>Node4&#45;&gt;Node1</title>
<path fill="none" stroke="#191970" d="M198.2293,-56.2455C181.8996,-47.4527 157.6737,-34.4079 139.1108,-24.4125"/>
<polygon fill="#191970" stroke="#191970" points="140.7166,-21.3021 130.2525,-19.6427 137.3979,-27.4654 140.7166,-21.3021"/>
</g>
<!-- Node6 -->
<g id="node7" class="node">
<title>Node6</title>
<polygon fill="none" stroke="#bfbfbf" points="255.3447,-.5 255.3447,-19.5 305.3447,-19.5 305.3447,-.5 255.3447,-.5"/>
<text text-anchor="middle" x="280.3447" y="-7.5" font-family="Helvetica,sans-Serif" font-size="10.00" fill="#000000">stdio.h</text>
</g>
<!-- Node5&#45;&gt;Node6 -->
<g id="edge7" class="edge">
<title>Node5&#45;&gt;Node6</title>
<path fill="none" stroke="#191970" d="M309.2481,-56.2455C304.4301,-48.5367 297.5696,-37.5598 291.7414,-28.2348"/>
<polygon fill="#191970" stroke="#191970" points="294.6394,-26.2677 286.3714,-19.6427 288.7034,-29.9777 294.6394,-26.2677"/>
</g>
<!-- Node7 -->
<g id="node8" class="node">
<title>Node7</title>
<polygon fill="none" stroke="#bfbfbf" points="323.8447,-.5 323.8447,-19.5 376.8447,-19.5 376.8447,-.5 323.8447,-.5"/>
<text text-anchor="middle" x="350.3447" y="-7.5" font-family="Helvetica,sans-Serif" font-size="10.00" fill="#000000">stdlib.h</text>
</g>
<!-- Node5&#45;&gt;Node7 -->
<g id="edge8" class="edge">
<title>Node5&#45;&gt;Node7</title>
<path fill="none" stroke="#191970" d="M321.4412,-56.2455C326.2592,-48.5367 333.1198,-37.5598 338.9479,-28.2348"/>
<polygon fill="#191970" stroke="#191970" points="341.986,-29.9777 344.318,-19.6427 336.05,-26.2677 341.986,-29.9777"/>
</g>
</g>
</svg>
