<?xml version="1.0" encoding="UTF-8" standalone="no"?>
<!DOCTYPE svg PUBLIC "-//W3C//DTD SVG 1.1//EN"
 "http://www.w3.org/Graphics/SVG/1.1/DTD/svg11.dtd">
<!-- Generated by graphviz version 2.40.1 (20161225.0304)
 -->
<!-- Title: /mnt/c/Users/stefa/Desktop/progetti/system_call/src/message_queue.h Pages: 1 -->
<svg width="314pt" height="128pt"
 viewBox="0.00 0.00 313.50 128.00" xmlns="http://www.w3.org/2000/svg" xmlns:xlink="http://www.w3.org/1999/xlink">
<g id="graph0" class="graph" transform="scale(1 1) rotate(0) translate(4 124)">
<title>/mnt/c/Users/stefa/Desktop/progetti/system_call/src/message_queue.h</title>
<!-- Node2 -->
<g id="node1" class="node">
<title>Node2</title>
<polygon fill="#bfbfbf" stroke="#000000" points="80.5,-78.5 80.5,-119.5 228.5,-119.5 228.5,-78.5 80.5,-78.5"/>
<text text-anchor="start" x="88.5" y="-107.5" font-family="Helvetica,sans-Serif" font-size="10.00" fill="#000000">/mnt/c/Users/stefa</text>
<text text-anchor="start" x="88.5" y="-96.5" font-family="Helvetica,sans-Serif" font-size="10.00" fill="#000000">/Desktop/progetti/system</text>
<text text-anchor="middle" x="154.5" y="-85.5" font-family="Helvetica,sans-Serif" font-size="10.00" fill="#000000">_call/src/message_queue.h</text>
</g>
<!-- Node3 -->
<g id="node2" class="node">
<title>Node3</title>
<g id="a_node2"><a xlink:href="message__queue_8c.html" target="_top" xlink:title="Contiene l&#39;implementazione delle funzioni specifiche per la gestione delle CODE DEI MESSAGGI...">
<polygon fill="none" stroke="#000000" points="0,-.5 0,-41.5 147,-41.5 147,-.5 0,-.5"/>
<text text-anchor="start" x="8" y="-29.5" font-family="Helvetica,sans-Serif" font-size="10.00" fill="#000000">/mnt/c/Users/stefa</text>
<text text-anchor="start" x="8" y="-18.5" font-family="Helvetica,sans-Serif" font-size="10.00" fill="#000000">/Desktop/progetti/system</text>
<text text-anchor="middle" x="73.5" y="-7.5" font-family="Helvetica,sans-Serif" font-size="10.00" fill="#000000">_call/src/message_queue.c</text>
</a>
</g>
</g>
<!-- Node2&#45;&gt;Node3 -->
<g id="edge1" class="edge">
<title>Node2&#45;&gt;Node3</title>
<path fill="none" stroke="#191970" d="M125.3662,-70.9452C115.3361,-61.2866 104.2941,-50.6535 94.9856,-41.6898"/>
<polygon fill="#191970" stroke="#191970" points="123.1625,-73.6821 132.7935,-78.0974 128.018,-68.6399 123.1625,-73.6821"/>
</g>
<!-- Node4 -->
<g id="node3" class="node">
<title>Node4</title>
<g id="a_node3"><a xlink:href="server_8c.html" target="_top" xlink:title="Contiene l&#39;implementazione del server. ">
<polygon fill="none" stroke="#000000" points="165.5,-.5 165.5,-41.5 305.5,-41.5 305.5,-.5 165.5,-.5"/>
<text text-anchor="start" x="173.5" y="-29.5" font-family="Helvetica,sans-Serif" font-size="10.00" fill="#000000">/mnt/c/Users/stefa</text>
<text text-anchor="start" x="173.5" y="-18.5" font-family="Helvetica,sans-Serif" font-size="10.00" fill="#000000">/Desktop/progetti/system</text>
<text text-anchor="middle" x="235.5" y="-7.5" font-family="Helvetica,sans-Serif" font-size="10.00" fill="#000000">_call/src/server.c</text>
</a>
</g>
</g>
<!-- Node2&#45;&gt;Node4 -->
<g id="edge2" class="edge">
<title>Node2&#45;&gt;Node4</title>
<path fill="none" stroke="#191970" d="M183.6338,-70.9452C193.6639,-61.2866 204.7059,-50.6535 214.0144,-41.6898"/>
<polygon fill="#191970" stroke="#191970" points="180.982,-68.6399 176.2065,-78.0974 185.8375,-73.6821 180.982,-68.6399"/>
</g>
</g>
</svg>
