<?xml version="1.0" encoding="UTF-8" standalone="no"?>
<!DOCTYPE svg PUBLIC "-//W3C//DTD SVG 1.1//EN"
 "http://www.w3.org/Graphics/SVG/1.1/DTD/svg11.dtd">
<!-- Generated by graphviz version 2.40.1 (20161225.0304)
 -->
<!-- Title: semWait Pages: 1 -->
<svg width="431pt" height="142pt"
 viewBox="0.00 0.00 431.00 142.00" xmlns="http://www.w3.org/2000/svg" xmlns:xlink="http://www.w3.org/1999/xlink">
<g id="graph0" class="graph" transform="scale(1 1) rotate(0) translate(4 138)">
<title>semWait</title>
<!-- Node56 -->
<g id="node1" class="node">
<title>Node56</title>
<polygon fill="#bfbfbf" stroke="#000000" points="0,-57.5 0,-76.5 59,-76.5 59,-57.5 0,-57.5"/>
<text text-anchor="middle" x="29.5" y="-64.5" font-family="Helvetica,sans-Serif" font-size="10.00" fill="#000000">semWait</text>
</g>
<!-- Node57 -->
<g id="node2" class="node">
<title>Node57</title>
<g id="a_node2"><a xlink:href="semaphore_8h.html#a40485eedbf6d56f7fd27bce5a537efbe" target="_top" xlink:title="Attende che il semaforo sem_num raggiunga il valore zero. ">
<polygon fill="none" stroke="#000000" points="102.5,-114.5 102.5,-133.5 184.5,-133.5 184.5,-114.5 102.5,-114.5"/>
<text text-anchor="middle" x="143.5" y="-121.5" font-family="Helvetica,sans-Serif" font-size="10.00" fill="#000000">semWaitZero</text>
</a>
</g>
</g>
<!-- Node56&#45;&gt;Node57 -->
<g id="edge1" class="edge">
<title>Node56&#45;&gt;Node57</title>
<path fill="none" stroke="#191970" d="M57.5873,-81.2063C69.1638,-87.0472 82.718,-93.8673 95,-100 104.5818,-104.7844 115.2476,-110.067 124.1317,-114.4553"/>
<polygon fill="#191970" stroke="#191970" points="58.9037,-77.9502 48.3995,-76.5669 55.7484,-84.1987 58.9037,-77.9502"/>
</g>
<!-- Node58 -->
<g id="node3" class="node">
<title>Node58</title>
<g id="a_node3"><a xlink:href="client_8h.html#a48d605ff689f470746c858648f0a98c2" target="_top" xlink:title="Handler del segnale SIGINT. ">
<polygon fill="none" stroke="#000000" points="228,-57.5 228,-76.5 346,-76.5 346,-57.5 228,-57.5"/>
<text text-anchor="middle" x="287" y="-64.5" font-family="Helvetica,sans-Serif" font-size="10.00" fill="#000000">SIGINTSignalHandler</text>
</a>
</g>
</g>
<!-- Node56&#45;&gt;Node58 -->
<g id="edge2" class="edge">
<title>Node56&#45;&gt;Node58</title>
<path fill="none" stroke="#191970" d="M69.2494,-67C111.6556,-67 179.2852,-67 227.9268,-67"/>
<polygon fill="#191970" stroke="#191970" points="69.0386,-63.5001 59.0385,-67 69.0385,-70.5001 69.0386,-63.5001"/>
</g>
<!-- Node60 -->
<g id="node5" class="node">
<title>Node60</title>
<g id="a_node5"><a xlink:href="client_8h.html#a54b47b58f228d7bc9827d2919687e25a" target="_top" xlink:title="Funzione eseguita da ogni Client i (figli di Client 0) per mandare i file al server. ">
<polygon fill="none" stroke="#000000" points="95,-38.5 95,-57.5 192,-57.5 192,-38.5 95,-38.5"/>
<text text-anchor="middle" x="143.5" y="-45.5" font-family="Helvetica,sans-Serif" font-size="10.00" fill="#000000">operazioni_figlio</text>
</a>
</g>
</g>
<!-- Node56&#45;&gt;Node60 -->
<g id="edge4" class="edge">
<title>Node56&#45;&gt;Node60</title>
<path fill="none" stroke="#191970" d="M69.1882,-60.3853C77.3776,-59.0204 86.0937,-57.5677 94.5671,-56.1555"/>
<polygon fill="#191970" stroke="#191970" points="68.4431,-56.9611 59.1546,-62.0576 69.5939,-63.8659 68.4431,-56.9611"/>
</g>
<!-- Node61 -->
<g id="node6" class="node">
<title>Node61</title>
<g id="a_node6"><a xlink:href="server_8c.html#a0ddf1224851353fc92bfbff6f499fa97" target="_top" xlink:title="main">
<polygon fill="none" stroke="#000000" points="123,-.5 123,-19.5 164,-19.5 164,-.5 123,-.5"/>
<text text-anchor="middle" x="143.5" y="-7.5" font-family="Helvetica,sans-Serif" font-size="10.00" fill="#000000">main</text>
</a>
</g>
</g>
<!-- Node56&#45;&gt;Node61 -->
<g id="edge6" class="edge">
<title>Node56&#45;&gt;Node61</title>
<path fill="none" stroke="#191970" d="M53.1859,-52.086C65.4277,-44.6815 80.7525,-35.8742 95,-29 103.9592,-24.6773 114.1737,-20.5614 122.9106,-17.2728"/>
<polygon fill="#191970" stroke="#191970" points="51.187,-49.2062 44.4945,-57.4196 54.8483,-55.1724 51.187,-49.2062"/>
</g>
<!-- Node59 -->
<g id="node4" class="node">
<title>Node59</title>
<g id="a_node4"><a xlink:href="client_8c.html#a0ddf1224851353fc92bfbff6f499fa97" target="_top" xlink:title="main">
<polygon fill="none" stroke="#000000" points="382,-57.5 382,-76.5 423,-76.5 423,-57.5 382,-57.5"/>
<text text-anchor="middle" x="402.5" y="-64.5" font-family="Helvetica,sans-Serif" font-size="10.00" fill="#000000">main</text>
</a>
</g>
</g>
<!-- Node58&#45;&gt;Node59 -->
<g id="edge3" class="edge">
<title>Node58&#45;&gt;Node59</title>
<path fill="none" stroke="#191970" d="M356.2973,-67C365.5856,-67 374.4584,-67 381.9009,-67"/>
<polygon fill="#191970" stroke="#191970" points="356.1034,-63.5001 346.1034,-67 356.1034,-70.5001 356.1034,-63.5001"/>
</g>
<!-- Node60&#45;&gt;Node58 -->
<g id="edge5" class="edge">
<title>Node60&#45;&gt;Node58</title>
<path fill="none" stroke="#191970" d="M202.2134,-55.7739C210.6468,-56.8905 219.3289,-58.0401 227.7722,-59.158"/>
<polygon fill="#191970" stroke="#191970" points="202.4555,-52.2755 192.0826,-54.4325 201.5366,-59.2149 202.4555,-52.2755"/>
</g>
</g>
</svg>
