<?xml version="1.0" encoding="UTF-8" standalone="no"?>
<!DOCTYPE svg PUBLIC "-//W3C//DTD SVG 1.1//EN"
 "http://www.w3.org/Graphics/SVG/1.1/DTD/svg11.dtd">
<!-- Generated by graphviz version 2.40.1 (20161225.0304)
 -->
<!-- Title: semOpNoBlocc Pages: 1 -->
<!--zoomable 66 -->
<svg id="main" version="1.1" xmlns="http://www.w3.org/2000/svg" xmlns:xlink="http://www.w3.org/1999/xlink" xml:space="preserve" onload="init(evt)">
<style type="text/css"><![CDATA[
.edge:hover path { stroke: red; }
.edge:hover polygon { stroke: red; fill: red; }
]]></style>
<script type="text/javascript"><![CDATA[
var edges = document.getElementsByTagName('g');
if (edges && edges.length) {
  for (var i=0;i<edges.length;i++) {
    if (edges[i].id.substr(0,4)=='edge') {
      edges[i].setAttribute('class','edge');
    }
  }
}
]]></script>
        <defs>
                <circle id="rim" cx="0" cy="0" r="7"/>
                <circle id="rim2" cx="0" cy="0" r="3.5"/>
                <g id="zoomPlus">
                        <use xlink:href="#rim" fill="#404040">
                                <set attributeName="fill" to="#808080" begin="zoomplus.mouseover" end="zoomplus.mouseout"/>
                        </use>
                        <path d="M-4,0h8M0,-4v8" fill="none" stroke="white" stroke-width="1.5" pointer-events="none"/>
                </g>
                <g id="zoomMin">
                        <use xlink:href="#rim" fill="#404040">
                                <set attributeName="fill" to="#808080" begin="zoomminus.mouseover" end="zoomminus.mouseout"/>
                        </use>
                        <path d="M-4,0h8" fill="none" stroke="white" stroke-width="1.5" pointer-events="none"/>
                </g>
                <g id="dirArrow">
                        <path fill="none" stroke="white" stroke-width="1.5" d="M0,-3.0v7 M-2.5,-0.5L0,-3.0L2.5,-0.5"/>
                </g>
               <g id="resetDef">
                       <use xlink:href="#rim2" fill="#404040">
                               <set attributeName="fill" to="#808080" begin="reset.mouseover" end="reset.mouseout"/>
                       </use>
               </g>
        </defs>

<script type="text/javascript">
var viewWidth = 586;
var viewHeight = 66;
var sectionId = 'dynsection-10';
</script>
<script xlink:href="svgpan.js"/>
<svg id="graph" class="graph">
<g id="viewport">
<title>semOpNoBlocc</title>
<!-- Node32 -->
<g id="node1" class="node">
<title>Node32</title>
<polygon fill="#bfbfbf" stroke="#000000" points="0,-19.5 0,-38.5 91,-38.5 91,-19.5 0,-19.5"/>
<text text-anchor="middle" x="45.5" y="-26.5" font-family="Helvetica,sans-Serif" font-size="10.00" fill="#000000">semOpNoBlocc</text>
</g>
<!-- Node33 -->
<g id="node2" class="node">
<title>Node33</title>
<g id="a_node2"><a xlink:href="semaphore_8h.html#a0d970df04f11907f1acb332a47a39104" target="_top" xlink:title="semWaitNoBlocc">
<polygon fill="none" stroke="#000000" points="127,-19.5 127,-38.5 226,-38.5 226,-19.5 127,-19.5"/>
<text text-anchor="middle" x="176.5" y="-26.5" font-family="Helvetica,sans-Serif" font-size="10.00" fill="#000000">semWaitNoBlocc</text>
</a>
</g>
</g>
<!-- Node32&#45;&gt;Node33 -->
<g id="edge1" class="edge">
<title>Node32&#45;&gt;Node33</title>
<path fill="none" stroke="#191970" d="M101.4839,-29C109.9385,-29 118.6091,-29 126.9162,-29"/>
<polygon fill="#191970" stroke="#191970" points="101.3175,-25.5001 91.3174,-29 101.3174,-32.5001 101.3175,-25.5001"/>
</g>
<!-- Node34 -->
<g id="node3" class="node">
<title>Node34</title>
<g id="a_node3"><a xlink:href="client_8h.html#a54b47b58f228d7bc9827d2919687e25a" target="_top" xlink:title="Funzione eseguita da ogni Client i (figli di Client 0) per mandare i file al server. ">
<polygon fill="none" stroke="#000000" points="262,-38.5 262,-57.5 359,-57.5 359,-38.5 262,-38.5"/>
<text text-anchor="middle" x="310.5" y="-45.5" font-family="Helvetica,sans-Serif" font-size="10.00" fill="#000000">operazioni_figlio</text>
</a>
</g>
</g>
<!-- Node33&#45;&gt;Node34 -->
<g id="edge2" class="edge">
<title>Node33&#45;&gt;Node34</title>
<path fill="none" stroke="#191970" d="M235.9742,-37.4329C244.5515,-38.6491 253.2955,-39.8889 261.6342,-41.0713"/>
<polygon fill="#191970" stroke="#191970" points="236.4083,-33.9595 226.0159,-36.0209 235.4255,-40.8902 236.4083,-33.9595"/>
</g>
<!-- Node37 -->
<g id="node6" class="node">
<title>Node37</title>
<g id="a_node6"><a xlink:href="server_8c.html#a0ddf1224851353fc92bfbff6f499fa97" target="_top" xlink:title="main">
<polygon fill="none" stroke="#000000" points="290,-.5 290,-19.5 331,-19.5 331,-.5 290,-.5"/>
<text text-anchor="middle" x="310.5" y="-7.5" font-family="Helvetica,sans-Serif" font-size="10.00" fill="#000000">main</text>
</a>
</g>
</g>
<!-- Node33&#45;&gt;Node37 -->
<g id="edge5" class="edge">
<title>Node33&#45;&gt;Node37</title>
<path fill="none" stroke="#191970" d="M235.9885,-20.5651C255.2712,-17.8309 275.3944,-14.9777 289.8607,-12.9265"/>
<polygon fill="#191970" stroke="#191970" points="235.4255,-17.1098 226.0159,-21.9791 236.4083,-24.0405 235.4255,-17.1098"/>
</g>
<!-- Node35 -->
<g id="node4" class="node">
<title>Node35</title>
<g id="a_node4"><a xlink:href="client_8h.html#a8c7084a254c7cd640d66e647795ff8f6" target="_top" xlink:title="operazioni_client0">
<polygon fill="none" stroke="#000000" points="395,-38.5 395,-57.5 501,-57.5 501,-38.5 395,-38.5"/>
<text text-anchor="middle" x="448" y="-45.5" font-family="Helvetica,sans-Serif" font-size="10.00" fill="#000000">operazioni_client0</text>
</a>
</g>
</g>
<!-- Node34&#45;&gt;Node35 -->
<g id="edge3" class="edge">
<title>Node34&#45;&gt;Node35</title>
<path fill="none" stroke="#191970" d="M369.4381,-48C377.8052,-48 386.3702,-48 394.6237,-48"/>
<polygon fill="#191970" stroke="#191970" points="369.3645,-44.5001 359.3645,-48 369.3645,-51.5001 369.3645,-44.5001"/>
</g>
<!-- Node36 -->
<g id="node5" class="node">
<title>Node36</title>
<g id="a_node5"><a xlink:href="client_8c.html#a0ddf1224851353fc92bfbff6f499fa97" target="_top" xlink:title="main">
<polygon fill="none" stroke="#000000" points="537,-38.5 537,-57.5 578,-57.5 578,-38.5 537,-38.5"/>
<text text-anchor="middle" x="557.5" y="-45.5" font-family="Helvetica,sans-Serif" font-size="10.00" fill="#000000">main</text>
</a>
</g>
</g>
<!-- Node35&#45;&gt;Node36 -->
<g id="edge4" class="edge">
<title>Node35&#45;&gt;Node36</title>
<path fill="none" stroke="#191970" d="M511.2796,-48C520.5452,-48 529.4767,-48 536.9772,-48"/>
<polygon fill="#191970" stroke="#191970" points="511.1462,-44.5001 501.1462,-48 511.1462,-51.5001 511.1462,-44.5001"/>
</g>
</g>
</svg>
        <g id="navigator" transform="translate(0 0)" fill="#404254">
                <rect fill="#f2f5e9" fill-opacity="0.5" stroke="#606060" stroke-width=".5" x="0" y="0" width="60" height="60"/>
                <use id="zoomplus" xlink:href="#zoomPlus" x="17" y="9" onmousedown="handleZoom(evt,'in')"/>
                <use id="zoomminus" xlink:href="#zoomMin" x="42" y="9" onmousedown="handleZoom(evt,'out')"/>
                <use id="reset" xlink:href="#resetDef" x="30" y="36" onmousedown="handleReset()"/>
                <g id="arrowUp" xlink:href="#dirArrow" transform="translate(30 24)" onmousedown="handlePan(0,-1)">
                  <use xlink:href="#rim" fill="#404040">
                        <set attributeName="fill" to="#808080" begin="arrowUp.mouseover" end="arrowUp.mouseout"/>
                  </use>
                  <path fill="none" stroke="white" stroke-width="1.5" d="M0,-3.0v7 M-2.5,-0.5L0,-3.0L2.5,-0.5"/>
                </g>
                <g id="arrowRight" xlink:href="#dirArrow" transform="rotate(90) translate(36 -43)" onmousedown="handlePan(1,0)">
                  <use xlink:href="#rim" fill="#404040">
                        <set attributeName="fill" to="#808080" begin="arrowRight.mouseover" end="arrowRight.mouseout"/>
                  </use>
                  <path fill="none" stroke="white" stroke-width="1.5" d="M0,-3.0v7 M-2.5,-0.5L0,-3.0L2.5,-0.5"/>
                </g>
                <g id="arrowDown" xlink:href="#dirArrow" transform="rotate(180) translate(-30 -48)" onmousedown="handlePan(0,1)">
                  <use xlink:href="#rim" fill="#404040">
                        <set attributeName="fill" to="#808080" begin="arrowDown.mouseover" end="arrowDown.mouseout"/>
                  </use>
                  <path fill="none" stroke="white" stroke-width="1.5" d="M0,-3.0v7 M-2.5,-0.5L0,-3.0L2.5,-0.5"/>
                </g>
                <g id="arrowLeft" xlink:href="#dirArrow" transform="rotate(270) translate(-36 17)" onmousedown="handlePan(-1,0)">
                  <use xlink:href="#rim" fill="#404040">
                        <set attributeName="fill" to="#808080" begin="arrowLeft.mouseover" end="arrowLeft.mouseout"/>
                  </use>
                  <path fill="none" stroke="white" stroke-width="1.5" d="M0,-3.0v7 M-2.5,-0.5L0,-3.0L2.5,-0.5"/>
                </g>
        </g>
        <svg viewBox="0 0 15 15" width="100%" height="30px" preserveAspectRatio="xMaxYMin meet">
         <g id="arrow_out" transform="scale(0.3 0.3)">
          <a xlink:href="semaphore_8h_a78e24598fb0a5416db19120d6748627e_icgraph_org.svg" target="_base">
           <rect id="button" ry="5" rx="5" y="6" x="6" height="38" width="38"
                fill="#f2f5e9" fill-opacity="0.5" stroke="#606060" stroke-width="1.0"/>
           <path id="arrow"
             d="M 11.500037,31.436501 C 11.940474,20.09759 22.043105,11.32322 32.158766,21.979434 L 37.068811,17.246167 C 37.068811,17.246167 37.088388,32 37.088388,32 L 22.160133,31.978069 C 22.160133,31.978069 26.997745,27.140456 26.997745,27.140456 C 18.528582,18.264221 13.291696,25.230495 11.500037,31.436501 z"
             style="fill:#404040;"/>
          </a>
         </g>
        </svg>
</svg>
