<?xml version="1.0" encoding="UTF-8" standalone="no"?>
<!DOCTYPE svg PUBLIC "-//W3C//DTD SVG 1.1//EN"
 "http://www.w3.org/Graphics/SVG/1.1/DTD/svg11.dtd">
<!-- Generated by graphviz version 2.40.1 (20161225.0304)
 -->
<!-- Title: semSignal Pages: 1 -->
<svg width="440pt" height="142pt"
 viewBox="0.00 0.00 440.00 142.00" xmlns="http://www.w3.org/2000/svg" xmlns:xlink="http://www.w3.org/1999/xlink">
<g id="graph0" class="graph" transform="scale(1 1) rotate(0) translate(4 138)">
<title>semSignal</title>
<!-- Node47 -->
<g id="node1" class="node">
<title>Node47</title>
<polygon fill="#bfbfbf" stroke="#000000" points="0,-57.5 0,-76.5 68,-76.5 68,-57.5 0,-57.5"/>
<text text-anchor="middle" x="34" y="-64.5" font-family="Helvetica,sans-Serif" font-size="10.00" fill="#000000">semSignal</text>
</g>
<!-- Node48 -->
<g id="node2" class="node">
<title>Node48</title>
<g id="a_node2"><a xlink:href="semaphore_8h.html#a40485eedbf6d56f7fd27bce5a537efbe" target="_top" xlink:title="Attende che il semaforo sem_num raggiunga il valore zero. ">
<polygon fill="none" stroke="#000000" points="111.5,-114.5 111.5,-133.5 193.5,-133.5 193.5,-114.5 111.5,-114.5"/>
<text text-anchor="middle" x="152.5" y="-121.5" font-family="Helvetica,sans-Serif" font-size="10.00" fill="#000000">semWaitZero</text>
</a>
</g>
</g>
<!-- Node47&#45;&gt;Node48 -->
<g id="edge1" class="edge">
<title>Node47&#45;&gt;Node48</title>
<path fill="none" stroke="#191970" d="M62.8913,-80.8971C84.5125,-91.2972 113.5239,-105.252 132.6011,-114.4284"/>
<polygon fill="#191970" stroke="#191970" points="64.3631,-77.7212 53.8342,-76.5405 61.3287,-84.0294 64.3631,-77.7212"/>
</g>
<!-- Node49 -->
<g id="node3" class="node">
<title>Node49</title>
<g id="a_node3"><a xlink:href="client_8h.html#a48d605ff689f470746c858648f0a98c2" target="_top" xlink:title="Handler del segnale SIGINT. ">
<polygon fill="none" stroke="#000000" points="237,-57.5 237,-76.5 355,-76.5 355,-57.5 237,-57.5"/>
<text text-anchor="middle" x="296" y="-64.5" font-family="Helvetica,sans-Serif" font-size="10.00" fill="#000000">SIGINTSignalHandler</text>
</a>
</g>
</g>
<!-- Node47&#45;&gt;Node49 -->
<g id="edge2" class="edge">
<title>Node47&#45;&gt;Node49</title>
<path fill="none" stroke="#191970" d="M78.2722,-67C121.8933,-67 188.8111,-67 236.9444,-67"/>
<polygon fill="#191970" stroke="#191970" points="78.252,-63.5001 68.2519,-67 78.2519,-70.5001 78.252,-63.5001"/>
</g>
<!-- Node51 -->
<g id="node5" class="node">
<title>Node51</title>
<g id="a_node5"><a xlink:href="client_8h.html#a54b47b58f228d7bc9827d2919687e25a" target="_top" xlink:title="Funzione eseguita da ogni Client i (figli di Client 0) per mandare i file al server. ">
<polygon fill="none" stroke="#000000" points="104,-38.5 104,-57.5 201,-57.5 201,-38.5 104,-38.5"/>
<text text-anchor="middle" x="152.5" y="-45.5" font-family="Helvetica,sans-Serif" font-size="10.00" fill="#000000">operazioni_figlio</text>
</a>
</g>
</g>
<!-- Node47&#45;&gt;Node51 -->
<g id="edge4" class="edge">
<title>Node47&#45;&gt;Node51</title>
<path fill="none" stroke="#191970" d="M78.1864,-59.9153C86.5251,-58.5783 95.29,-57.1729 103.7591,-55.815"/>
<polygon fill="#191970" stroke="#191970" points="77.5949,-56.4653 68.2751,-61.5044 78.7031,-63.377 77.5949,-56.4653"/>
</g>
<!-- Node52 -->
<g id="node6" class="node">
<title>Node52</title>
<g id="a_node6"><a xlink:href="server_8c.html#a0ddf1224851353fc92bfbff6f499fa97" target="_top" xlink:title="main">
<polygon fill="none" stroke="#000000" points="132,-.5 132,-19.5 173,-19.5 173,-.5 132,-.5"/>
<text text-anchor="middle" x="152.5" y="-7.5" font-family="Helvetica,sans-Serif" font-size="10.00" fill="#000000">main</text>
</a>
</g>
</g>
<!-- Node47&#45;&gt;Node52 -->
<g id="edge6" class="edge">
<title>Node47&#45;&gt;Node52</title>
<path fill="none" stroke="#191970" d="M59.3082,-52.2755C72.4418,-44.8881 88.8661,-36.0391 104,-29 113.0196,-24.8048 123.2426,-20.7068 131.9695,-17.3971"/>
<polygon fill="#191970" stroke="#191970" points="57.3522,-49.3615 50.3921,-57.3495 60.8144,-55.4454 57.3522,-49.3615"/>
</g>
<!-- Node50 -->
<g id="node4" class="node">
<title>Node50</title>
<g id="a_node4"><a xlink:href="client_8c.html#a0ddf1224851353fc92bfbff6f499fa97" target="_top" xlink:title="main">
<polygon fill="none" stroke="#000000" points="391,-57.5 391,-76.5 432,-76.5 432,-57.5 391,-57.5"/>
<text text-anchor="middle" x="411.5" y="-64.5" font-family="Helvetica,sans-Serif" font-size="10.00" fill="#000000">main</text>
</a>
</g>
</g>
<!-- Node49&#45;&gt;Node50 -->
<g id="edge3" class="edge">
<title>Node49&#45;&gt;Node50</title>
<path fill="none" stroke="#191970" d="M365.2973,-67C374.5856,-67 383.4584,-67 390.9009,-67"/>
<polygon fill="#191970" stroke="#191970" points="365.1034,-63.5001 355.1034,-67 365.1034,-70.5001 365.1034,-63.5001"/>
</g>
<!-- Node51&#45;&gt;Node49 -->
<g id="edge5" class="edge">
<title>Node51&#45;&gt;Node49</title>
<path fill="none" stroke="#191970" d="M211.2134,-55.7739C219.6468,-56.8905 228.3289,-58.0401 236.7722,-59.158"/>
<polygon fill="#191970" stroke="#191970" points="211.4555,-52.2755 201.0826,-54.4325 210.5366,-59.2149 211.4555,-52.2755"/>
</g>
</g>
</svg>
