<?xml version="1.0" encoding="UTF-8" standalone="no"?>
<!DOCTYPE svg PUBLIC "-//W3C//DTD SVG 1.1//EN"
 "http://www.w3.org/Graphics/SVG/1.1/DTD/svg11.dtd">
<!-- Generated by graphviz version 2.40.1 (20161225.0304)
 -->
<!-- Title: semDelete Pages: 1 -->
<svg width="584pt" height="85pt"
 viewBox="0.00 0.00 584.00 85.00" xmlns="http://www.w3.org/2000/svg" xmlns:xlink="http://www.w3.org/1999/xlink">
<g id="graph0" class="graph" transform="scale(1 1) rotate(0) translate(4 81)">
<title>semDelete</title>
<!-- Node12 -->
<g id="node1" class="node">
<title>Node12</title>
<polygon fill="#bfbfbf" stroke="#000000" points="0,-19.5 0,-38.5 70,-38.5 70,-19.5 0,-19.5"/>
<text text-anchor="middle" x="35" y="-26.5" font-family="Helvetica,sans-Serif" font-size="10.00" fill="#000000">semDelete</text>
</g>
<!-- Node13 -->
<g id="node2" class="node">
<title>Node13</title>
<g id="a_node2"><a xlink:href="semaphore_8h.html#a40485eedbf6d56f7fd27bce5a537efbe" target="_top" xlink:title="Attende che il semaforo sem_num raggiunga il valore zero. ">
<polygon fill="none" stroke="#000000" points="124,-38.5 124,-57.5 206,-57.5 206,-38.5 124,-38.5"/>
<text text-anchor="middle" x="165" y="-45.5" font-family="Helvetica,sans-Serif" font-size="10.00" fill="#000000">semWaitZero</text>
</a>
</g>
</g>
<!-- Node12&#45;&gt;Node13 -->
<g id="edge1" class="edge">
<title>Node12&#45;&gt;Node13</title>
<path fill="none" stroke="#191970" d="M80.2057,-35.607C94.3713,-37.6773 109.9235,-39.9504 123.7974,-41.9781"/>
<polygon fill="#191970" stroke="#191970" points="80.5809,-32.1247 70.1799,-34.1417 79.5686,-39.0511 80.5809,-32.1247"/>
</g>
<!-- Node18 -->
<g id="node7" class="node">
<title>Node18</title>
<g id="a_node7"><a xlink:href="server_8c.html#a48d605ff689f470746c858648f0a98c2" target="_top" xlink:title="Chiude tutte le IPC e termina. ">
<polygon fill="none" stroke="#000000" points="106,-.5 106,-19.5 224,-19.5 224,-.5 106,-.5"/>
<text text-anchor="middle" x="165" y="-7.5" font-family="Helvetica,sans-Serif" font-size="10.00" fill="#000000">SIGINTSignalHandler</text>
</a>
</g>
</g>
<!-- Node12&#45;&gt;Node18 -->
<g id="edge7" class="edge">
<title>Node12&#45;&gt;Node18</title>
<path fill="none" stroke="#191970" d="M80.2958,-22.3798C88.5135,-21.1788 97.1952,-19.9099 105.7434,-18.6606"/>
<polygon fill="#191970" stroke="#191970" points="79.5686,-18.9489 70.1799,-23.8583 80.5809,-25.8753 79.5686,-18.9489"/>
</g>
<!-- Node14 -->
<g id="node3" class="node">
<title>Node14</title>
<g id="a_node3"><a xlink:href="client_8h.html#a8c7084a254c7cd640d66e647795ff8f6" target="_top" xlink:title="operazioni_client0">
<polygon fill="none" stroke="#000000" points="393,-57.5 393,-76.5 499,-76.5 499,-57.5 393,-57.5"/>
<text text-anchor="middle" x="446" y="-64.5" font-family="Helvetica,sans-Serif" font-size="10.00" fill="#000000">operazioni_client0</text>
</a>
</g>
</g>
<!-- Node13&#45;&gt;Node14 -->
<g id="edge2" class="edge">
<title>Node13&#45;&gt;Node14</title>
<path fill="none" stroke="#191970" d="M213.5397,-59.6248C228.3617,-62.655 244.7686,-65.4918 260,-67 304.667,-71.4229 355.664,-71.0428 392.9486,-69.7715"/>
<polygon fill="#191970" stroke="#191970" points="214.074,-56.1603 203.5655,-57.51 212.622,-63.0081 214.074,-56.1603"/>
</g>
<!-- Node16 -->
<g id="node5" class="node">
<title>Node16</title>
<g id="a_node5"><a xlink:href="client_8h.html#a54b47b58f228d7bc9827d2919687e25a" target="_top" xlink:title="Funzione eseguita da ogni Client i (figli di Client 0) per mandare i file al server. ">
<polygon fill="none" stroke="#000000" points="260,-38.5 260,-57.5 357,-57.5 357,-38.5 260,-38.5"/>
<text text-anchor="middle" x="308.5" y="-45.5" font-family="Helvetica,sans-Serif" font-size="10.00" fill="#000000">operazioni_figlio</text>
</a>
</g>
</g>
<!-- Node13&#45;&gt;Node16 -->
<g id="edge4" class="edge">
<title>Node13&#45;&gt;Node16</title>
<path fill="none" stroke="#191970" d="M216.2014,-48C230.3771,-48 245.7215,-48 259.7532,-48"/>
<polygon fill="#191970" stroke="#191970" points="216.1214,-44.5001 206.1213,-48 216.1213,-51.5001 216.1214,-44.5001"/>
</g>
<!-- Node17 -->
<g id="node6" class="node">
<title>Node17</title>
<g id="a_node6"><a xlink:href="server_8c.html#a0ddf1224851353fc92bfbff6f499fa97" target="_top" xlink:title="main">
<polygon fill="none" stroke="#000000" points="288,-.5 288,-19.5 329,-19.5 329,-.5 288,-.5"/>
<text text-anchor="middle" x="308.5" y="-7.5" font-family="Helvetica,sans-Serif" font-size="10.00" fill="#000000">main</text>
</a>
</g>
</g>
<!-- Node13&#45;&gt;Node17 -->
<g id="edge6" class="edge">
<title>Node13&#45;&gt;Node17</title>
<path fill="none" stroke="#191970" d="M211.1873,-35.7692C237.0074,-28.9319 267.9081,-20.7491 287.854,-15.4672"/>
<polygon fill="#191970" stroke="#191970" points="209.9819,-32.4677 201.2111,-38.411 211.7739,-39.2345 209.9819,-32.4677"/>
</g>
<!-- Node15 -->
<g id="node4" class="node">
<title>Node15</title>
<g id="a_node4"><a xlink:href="client_8c.html#a0ddf1224851353fc92bfbff6f499fa97" target="_top" xlink:title="main">
<polygon fill="none" stroke="#000000" points="535,-57.5 535,-76.5 576,-76.5 576,-57.5 535,-57.5"/>
<text text-anchor="middle" x="555.5" y="-64.5" font-family="Helvetica,sans-Serif" font-size="10.00" fill="#000000">main</text>
</a>
</g>
</g>
<!-- Node14&#45;&gt;Node15 -->
<g id="edge3" class="edge">
<title>Node14&#45;&gt;Node15</title>
<path fill="none" stroke="#191970" d="M509.2796,-67C518.5452,-67 527.4767,-67 534.9772,-67"/>
<polygon fill="#191970" stroke="#191970" points="509.1462,-63.5001 499.1462,-67 509.1462,-70.5001 509.1462,-63.5001"/>
</g>
<!-- Node16&#45;&gt;Node14 -->
<g id="edge5" class="edge">
<title>Node16&#45;&gt;Node14</title>
<path fill="none" stroke="#191970" d="M367.4381,-56.1442C375.8052,-57.3003 384.3702,-58.4839 392.6237,-59.6244"/>
<polygon fill="#191970" stroke="#191970" points="367.7495,-52.654 357.3645,-54.7522 366.7913,-59.5881 367.7495,-52.654"/>
</g>
<!-- Node18&#45;&gt;Node17 -->
<g id="edge8" class="edge">
<title>Node18&#45;&gt;Node17</title>
<path fill="none" stroke="#191970" d="M234.3169,-10C253.7716,-10 273.4652,-10 287.6674,-10"/>
<polygon fill="#191970" stroke="#191970" points="234.1955,-6.5001 224.1954,-10 234.1954,-13.5001 234.1955,-6.5001"/>
</g>
</g>
</svg>
