<?xml version="1.0" encoding="UTF-8" standalone="no"?>
<!DOCTYPE svg PUBLIC "-//W3C//DTD SVG 1.1//EN"
 "http://www.w3.org/Graphics/SVG/1.1/DTD/svg11.dtd">
<!-- Generated by graphviz version 2.40.1 (20161225.0304)
 -->
<!-- Title: getSemaphores Pages: 1 -->
<svg width="273pt" height="47pt"
 viewBox="0.00 0.00 273.00 47.00" xmlns="http://www.w3.org/2000/svg" xmlns:xlink="http://www.w3.org/1999/xlink">
<g id="graph0" class="graph" transform="scale(1 1) rotate(0) translate(4 43)">
<title>getSemaphores</title>
<!-- Node3 -->
<g id="node1" class="node">
<title>Node3</title>
<polygon fill="#bfbfbf" stroke="#000000" points="0,-19.5 0,-38.5 93,-38.5 93,-19.5 0,-19.5"/>
<text text-anchor="middle" x="46.5" y="-26.5" font-family="Helvetica,sans-Serif" font-size="10.00" fill="#000000">getSemaphores</text>
</g>
<!-- Node4 -->
<g id="node2" class="node">
<title>Node4</title>
<g id="a_node2"><a xlink:href="err__exit_8c.html#aa223b0ecfe538d130ece562646a37d27" target="_top" xlink:title="Prints the error message of the last failed system call and terminates the calling process...">
<polygon fill="none" stroke="#000000" points="216,-19.5 216,-38.5 265,-38.5 265,-19.5 216,-19.5"/>
<text text-anchor="middle" x="240.5" y="-26.5" font-family="Helvetica,sans-Serif" font-size="10.00" fill="#000000">ErrExit</text>
</a>
</g>
</g>
<!-- Node3&#45;&gt;Node4 -->
<g id="edge1" class="edge">
<title>Node3&#45;&gt;Node4</title>
<path fill="none" stroke="#191970" d="M93.462,-29C128.1198,-29 174.5135,-29 205.8462,-29"/>
<polygon fill="#191970" stroke="#191970" points="205.856,-32.5001 215.8559,-29 205.8559,-25.5001 205.856,-32.5001"/>
</g>
<!-- Node5 -->
<g id="node3" class="node">
<title>Node5</title>
<g id="a_node3"><a xlink:href="semaphore_8c.html#a77c6570406059144bb6a8ecf04f481da" target="_top" xlink:title="Funzione di supporto per manipolare i valori di un set di semafori. ">
<polygon fill="none" stroke="#000000" points="129,-.5 129,-19.5 180,-19.5 180,-.5 129,-.5"/>
<text text-anchor="middle" x="154.5" y="-7.5" font-family="Helvetica,sans-Serif" font-size="10.00" fill="#000000">semOp</text>
</a>
</g>
</g>
<!-- Node3&#45;&gt;Node5 -->
<g id="edge2" class="edge">
<title>Node3&#45;&gt;Node5</title>
<path fill="none" stroke="#191970" d="M93.2422,-20.7768C101.8202,-19.2677 110.647,-17.7149 118.8356,-16.2743"/>
<polygon fill="#191970" stroke="#191970" points="119.5573,-19.7012 128.7996,-14.5214 118.3444,-12.807 119.5573,-19.7012"/>
</g>
<!-- Node5&#45;&gt;Node4 -->
<g id="edge3" class="edge">
<title>Node5&#45;&gt;Node4</title>
<path fill="none" stroke="#191970" d="M180.3028,-15.7006C188.4108,-17.4919 197.4953,-19.499 206.1007,-21.4002"/>
<polygon fill="#191970" stroke="#191970" points="205.3758,-24.8243 215.8954,-23.5641 206.886,-17.9892 205.3758,-24.8243"/>
</g>
</g>
</svg>
