<?xml version="1.0" encoding="UTF-8" standalone="no"?>
<!DOCTYPE svg PUBLIC "-//W3C//DTD SVG 1.1//EN"
 "http://www.w3.org/Graphics/SVG/1.1/DTD/svg11.dtd">
<!-- Generated by graphviz version 2.40.1 (20161225.0304)
 -->
<!-- Title: semSetVal Pages: 1 -->
<svg width="546pt" height="85pt"
 viewBox="0.00 0.00 546.00 85.00" xmlns="http://www.w3.org/2000/svg" xmlns:xlink="http://www.w3.org/1999/xlink">
<g id="graph0" class="graph" transform="scale(1 1) rotate(0) translate(4 81)">
<title>semSetVal</title>
<!-- Node56 -->
<g id="node1" class="node">
<title>Node56</title>
<polygon fill="#bfbfbf" stroke="#000000" points="0,-38.5 0,-57.5 68,-57.5 68,-38.5 0,-38.5"/>
<text text-anchor="middle" x="34" y="-45.5" font-family="Helvetica,sans-Serif" font-size="10.00" fill="#000000">semSetVal</text>
</g>
<!-- Node57 -->
<g id="node2" class="node">
<title>Node57</title>
<g id="a_node2"><a xlink:href="semaphore_8h.html#a40485eedbf6d56f7fd27bce5a537efbe" target="_top" xlink:title="Attende che il semaforo sem_num raggiunga il valore zero. ">
<polygon fill="none" stroke="#000000" points="104,-38.5 104,-57.5 186,-57.5 186,-38.5 104,-38.5"/>
<text text-anchor="middle" x="145" y="-45.5" font-family="Helvetica,sans-Serif" font-size="10.00" fill="#000000">semWaitZero</text>
</a>
</g>
</g>
<!-- Node56&#45;&gt;Node57 -->
<g id="edge1" class="edge">
<title>Node56&#45;&gt;Node57</title>
<path fill="none" stroke="#191970" d="M78.2194,-48C86.6169,-48 95.3741,-48 103.6776,-48"/>
<polygon fill="#191970" stroke="#191970" points="78.2094,-44.5001 68.2094,-48 78.2093,-51.5001 78.2094,-44.5001"/>
</g>
<!-- Node58 -->
<g id="node3" class="node">
<title>Node58</title>
<g id="a_node3"><a xlink:href="client_8h.html#a8c7084a254c7cd640d66e647795ff8f6" target="_top" xlink:title="operazioni_client0">
<polygon fill="none" stroke="#000000" points="355,-57.5 355,-76.5 461,-76.5 461,-57.5 355,-57.5"/>
<text text-anchor="middle" x="408" y="-64.5" font-family="Helvetica,sans-Serif" font-size="10.00" fill="#000000">operazioni_client0</text>
</a>
</g>
</g>
<!-- Node57&#45;&gt;Node58 -->
<g id="edge2" class="edge">
<title>Node57&#45;&gt;Node58</title>
<path fill="none" stroke="#191970" d="M185.9681,-60.0557C197.516,-62.92 210.1597,-65.5608 222,-67 266.5574,-72.4161 317.5639,-71.9507 354.8799,-70.3939"/>
<polygon fill="#191970" stroke="#191970" points="186.7087,-56.632 176.1499,-57.5056 184.9489,-63.4072 186.7087,-56.632"/>
</g>
<!-- Node60 -->
<g id="node5" class="node">
<title>Node60</title>
<g id="a_node5"><a xlink:href="client_8h.html#a54b47b58f228d7bc9827d2919687e25a" target="_top" xlink:title="Funzione eseguita da ogni Client i (figli di Client 0) per mandare i file al server. ">
<polygon fill="none" stroke="#000000" points="222,-38.5 222,-57.5 319,-57.5 319,-38.5 222,-38.5"/>
<text text-anchor="middle" x="270.5" y="-45.5" font-family="Helvetica,sans-Serif" font-size="10.00" fill="#000000">operazioni_figlio</text>
</a>
</g>
</g>
<!-- Node57&#45;&gt;Node60 -->
<g id="edge4" class="edge">
<title>Node57&#45;&gt;Node60</title>
<path fill="none" stroke="#191970" d="M196.2429,-48C204.7173,-48 213.4815,-48 221.8886,-48"/>
<polygon fill="#191970" stroke="#191970" points="196.0934,-44.5001 186.0934,-48 196.0934,-51.5001 196.0934,-44.5001"/>
</g>
<!-- Node61 -->
<g id="node6" class="node">
<title>Node61</title>
<g id="a_node6"><a xlink:href="server_8c.html#a0ddf1224851353fc92bfbff6f499fa97" target="_top" xlink:title="main">
<polygon fill="none" stroke="#000000" points="250,-.5 250,-19.5 291,-19.5 291,-.5 250,-.5"/>
<text text-anchor="middle" x="270.5" y="-7.5" font-family="Helvetica,sans-Serif" font-size="10.00" fill="#000000">main</text>
</a>
</g>
</g>
<!-- Node57&#45;&gt;Node61 -->
<g id="edge6" class="edge">
<title>Node57&#45;&gt;Node61</title>
<path fill="none" stroke="#191970" d="M186.4506,-35.4492C207.7218,-29.0085 232.6978,-21.4461 249.8641,-16.2483"/>
<polygon fill="#191970" stroke="#191970" points="185.2255,-32.1632 176.6689,-38.411 187.2541,-38.8628 185.2255,-32.1632"/>
</g>
<!-- Node59 -->
<g id="node4" class="node">
<title>Node59</title>
<g id="a_node4"><a xlink:href="client_8c.html#a0ddf1224851353fc92bfbff6f499fa97" target="_top" xlink:title="main">
<polygon fill="none" stroke="#000000" points="497,-57.5 497,-76.5 538,-76.5 538,-57.5 497,-57.5"/>
<text text-anchor="middle" x="517.5" y="-64.5" font-family="Helvetica,sans-Serif" font-size="10.00" fill="#000000">main</text>
</a>
</g>
</g>
<!-- Node58&#45;&gt;Node59 -->
<g id="edge3" class="edge">
<title>Node58&#45;&gt;Node59</title>
<path fill="none" stroke="#191970" d="M471.2796,-67C480.5452,-67 489.4767,-67 496.9772,-67"/>
<polygon fill="#191970" stroke="#191970" points="471.1462,-63.5001 461.1462,-67 471.1462,-70.5001 471.1462,-63.5001"/>
</g>
<!-- Node60&#45;&gt;Node58 -->
<g id="edge5" class="edge">
<title>Node60&#45;&gt;Node58</title>
<path fill="none" stroke="#191970" d="M329.4381,-56.1442C337.8052,-57.3003 346.3702,-58.4839 354.6237,-59.6244"/>
<polygon fill="#191970" stroke="#191970" points="329.7495,-52.654 319.3645,-54.7522 328.7913,-59.5881 329.7495,-52.654"/>
</g>
</g>
</svg>
