<?xml version="1.0" encoding="UTF-8" standalone="no"?>
<!DOCTYPE svg PUBLIC "-//W3C//DTD SVG 1.1//EN"
 "http://www.w3.org/Graphics/SVG/1.1/DTD/svg11.dtd">
<!-- Generated by graphviz version 2.40.1 (20161225.0304)
 -->
<!-- Title: semSignal Pages: 1 -->
<svg width="546pt" height="100pt"
 viewBox="0.00 0.00 546.00 100.36" xmlns="http://www.w3.org/2000/svg" xmlns:xlink="http://www.w3.org/1999/xlink">
<g id="graph0" class="graph" transform="scale(1 1) rotate(0) translate(4 96.3598)">
<title>semSignal</title>
<!-- Node65 -->
<g id="node1" class="node">
<title>Node65</title>
<polygon fill="#bfbfbf" stroke="#000000" points="0,-22.1274 0,-41.1274 68,-41.1274 68,-22.1274 0,-22.1274"/>
<text text-anchor="middle" x="34" y="-29.1274" font-family="Helvetica,sans-Serif" font-size="10.00" fill="#000000">semSignal</text>
</g>
<!-- Node66 -->
<g id="node2" class="node">
<title>Node66</title>
<g id="a_node2"><a xlink:href="semaphore_8h.html#a40485eedbf6d56f7fd27bce5a537efbe" target="_top" xlink:title="Attende che il semaforo sem_num raggiunga il valore zero. ">
<polygon fill="none" stroke="#000000" points="104,-60.1274 104,-79.1274 186,-79.1274 186,-60.1274 104,-60.1274"/>
<text text-anchor="middle" x="145" y="-67.1274" font-family="Helvetica,sans-Serif" font-size="10.00" fill="#000000">semWaitZero</text>
</a>
</g>
</g>
<!-- Node65&#45;&gt;Node66 -->
<g id="edge1" class="edge">
<title>Node65&#45;&gt;Node66</title>
<path fill="none" stroke="#191970" d="M71.8913,-44.5992C86.6795,-49.6618 103.3285,-55.3615 116.999,-60.0415"/>
<polygon fill="#191970" stroke="#191970" points="72.6046,-41.144 62.01,-41.2164 70.3373,-47.7667 72.6046,-41.144"/>
</g>
<!-- Node67 -->
<g id="node3" class="node">
<title>Node67</title>
<g id="a_node3"><a xlink:href="client_8h.html#a8c7084a254c7cd640d66e647795ff8f6" target="_top" xlink:title="operazioni_client0">
<polygon fill="none" stroke="#000000" points="355,-60.1274 355,-79.1274 461,-79.1274 461,-60.1274 355,-60.1274"/>
<text text-anchor="middle" x="408" y="-67.1274" font-family="Helvetica,sans-Serif" font-size="10.00" fill="#000000">operazioni_client0</text>
</a>
</g>
</g>
<!-- Node65&#45;&gt;Node67 -->
<g id="edge7" class="edge">
<title>Node65&#45;&gt;Node67</title>
<path fill="none" stroke="#191970" d="M77.3453,-19.6034C134.1001,-5.9056 236.115,11.6393 319,-12.6274 350.697,-21.9075 381.8203,-46.3174 397.5062,-59.9929"/>
<polygon fill="#191970" stroke="#191970" points="76.1485,-16.2944 67.2895,-22.1054 77.8387,-23.0873 76.1485,-16.2944"/>
</g>
<!-- Node70 -->
<g id="node6" class="node">
<title>Node70</title>
<g id="a_node6"><a xlink:href="server_8c.html#a0ddf1224851353fc92bfbff6f499fa97" target="_top" xlink:title="main">
<polygon fill="none" stroke="#000000" points="250,-22.1274 250,-41.1274 291,-41.1274 291,-22.1274 250,-22.1274"/>
<text text-anchor="middle" x="270.5" y="-29.1274" font-family="Helvetica,sans-Serif" font-size="10.00" fill="#000000">main</text>
</a>
</g>
</g>
<!-- Node65&#45;&gt;Node70 -->
<g id="edge8" class="edge">
<title>Node65&#45;&gt;Node70</title>
<path fill="none" stroke="#191970" d="M78.2472,-31.6274C129.4139,-31.6274 211.4896,-31.6274 249.69,-31.6274"/>
<polygon fill="#191970" stroke="#191970" points="78.1366,-28.1275 68.1366,-31.6274 78.1365,-35.1275 78.1366,-28.1275"/>
</g>
<!-- Node66&#45;&gt;Node67 -->
<g id="edge2" class="edge">
<title>Node66&#45;&gt;Node67</title>
<path fill="none" stroke="#191970" d="M185.9681,-81.6832C197.516,-84.5475 210.1597,-87.1882 222,-88.6274 264.7961,-93.8294 276.1271,-93.1528 319,-88.6274 336.5978,-86.7699 355.8326,-82.901 371.9038,-79.1362"/>
<polygon fill="#191970" stroke="#191970" points="186.7087,-78.2594 176.1499,-79.1331 184.9489,-85.0346 186.7087,-78.2594"/>
</g>
<!-- Node69 -->
<g id="node5" class="node">
<title>Node69</title>
<g id="a_node5"><a xlink:href="client_8h.html#a54b47b58f228d7bc9827d2919687e25a" target="_top" xlink:title="Funzione eseguita da ogni Client i (figli di Client 0) per mandare i file al server. ">
<polygon fill="none" stroke="#000000" points="222,-60.1274 222,-79.1274 319,-79.1274 319,-60.1274 222,-60.1274"/>
<text text-anchor="middle" x="270.5" y="-67.1274" font-family="Helvetica,sans-Serif" font-size="10.00" fill="#000000">operazioni_figlio</text>
</a>
</g>
</g>
<!-- Node66&#45;&gt;Node69 -->
<g id="edge4" class="edge">
<title>Node66&#45;&gt;Node69</title>
<path fill="none" stroke="#191970" d="M196.2429,-69.6274C204.7173,-69.6274 213.4815,-69.6274 221.8886,-69.6274"/>
<polygon fill="#191970" stroke="#191970" points="196.0934,-66.1275 186.0934,-69.6274 196.0934,-73.1275 196.0934,-66.1275"/>
</g>
<!-- Node66&#45;&gt;Node70 -->
<g id="edge6" class="edge">
<title>Node66&#45;&gt;Node70</title>
<path fill="none" stroke="#191970" d="M186.4506,-57.0766C207.7218,-50.636 232.6978,-43.0735 249.8641,-37.8757"/>
<polygon fill="#191970" stroke="#191970" points="185.2255,-53.7906 176.6689,-60.0384 187.2541,-60.4902 185.2255,-53.7906"/>
</g>
<!-- Node68 -->
<g id="node4" class="node">
<title>Node68</title>
<g id="a_node4"><a xlink:href="client_8c.html#a0ddf1224851353fc92bfbff6f499fa97" target="_top" xlink:title="main">
<polygon fill="none" stroke="#000000" points="497,-60.1274 497,-79.1274 538,-79.1274 538,-60.1274 497,-60.1274"/>
<text text-anchor="middle" x="517.5" y="-67.1274" font-family="Helvetica,sans-Serif" font-size="10.00" fill="#000000">main</text>
</a>
</g>
</g>
<!-- Node67&#45;&gt;Node68 -->
<g id="edge3" class="edge">
<title>Node67&#45;&gt;Node68</title>
<path fill="none" stroke="#191970" d="M471.2796,-69.6274C480.5452,-69.6274 489.4767,-69.6274 496.9772,-69.6274"/>
<polygon fill="#191970" stroke="#191970" points="471.1462,-66.1275 461.1462,-69.6274 471.1462,-73.1275 471.1462,-66.1275"/>
</g>
<!-- Node69&#45;&gt;Node67 -->
<g id="edge5" class="edge">
<title>Node69&#45;&gt;Node67</title>
<path fill="none" stroke="#191970" d="M329.4381,-69.6274C337.8052,-69.6274 346.3702,-69.6274 354.6237,-69.6274"/>
<polygon fill="#191970" stroke="#191970" points="329.3645,-66.1275 319.3645,-69.6274 329.3645,-73.1275 329.3645,-66.1275"/>
</g>
</g>
</svg>
