<?xml version="1.0" encoding="UTF-8" standalone="no"?>
<!DOCTYPE svg PUBLIC "-//W3C//DTD SVG 1.1//EN"
 "http://www.w3.org/Graphics/SVG/1.1/DTD/svg11.dtd">
<!-- Generated by graphviz version 2.40.1 (20161225.0304)
 -->
<!-- Title: semGetStats Pages: 1 -->
<svg width="558pt" height="85pt"
 viewBox="0.00 0.00 558.00 85.00" xmlns="http://www.w3.org/2000/svg" xmlns:xlink="http://www.w3.org/1999/xlink">
<g id="graph0" class="graph" transform="scale(1 1) rotate(0) translate(4 81)">
<title>semGetStats</title>
<!-- Node21 -->
<g id="node1" class="node">
<title>Node21</title>
<polygon fill="#bfbfbf" stroke="#000000" points="0,-38.5 0,-57.5 80,-57.5 80,-38.5 0,-38.5"/>
<text text-anchor="middle" x="40" y="-45.5" font-family="Helvetica,sans-Serif" font-size="10.00" fill="#000000">semGetStats</text>
</g>
<!-- Node22 -->
<g id="node2" class="node">
<title>Node22</title>
<g id="a_node2"><a xlink:href="semaphore_8h.html#a40485eedbf6d56f7fd27bce5a537efbe" target="_top" xlink:title="Attende che il semaforo sem_num raggiunga il valore zero. ">
<polygon fill="none" stroke="#000000" points="116,-38.5 116,-57.5 198,-57.5 198,-38.5 116,-38.5"/>
<text text-anchor="middle" x="157" y="-45.5" font-family="Helvetica,sans-Serif" font-size="10.00" fill="#000000">semWaitZero</text>
</a>
</g>
</g>
<!-- Node21&#45;&gt;Node22 -->
<g id="edge1" class="edge">
<title>Node21&#45;&gt;Node22</title>
<path fill="none" stroke="#191970" d="M90.4515,-48C98.9369,-48 107.6525,-48 115.8659,-48"/>
<polygon fill="#191970" stroke="#191970" points="90.2648,-44.5001 80.2648,-48 90.2647,-51.5001 90.2648,-44.5001"/>
</g>
<!-- Node23 -->
<g id="node3" class="node">
<title>Node23</title>
<g id="a_node3"><a xlink:href="client_8h.html#a8c7084a254c7cd640d66e647795ff8f6" target="_top" xlink:title="operazioni_client0">
<polygon fill="none" stroke="#000000" points="367,-57.5 367,-76.5 473,-76.5 473,-57.5 367,-57.5"/>
<text text-anchor="middle" x="420" y="-64.5" font-family="Helvetica,sans-Serif" font-size="10.00" fill="#000000">operazioni_client0</text>
</a>
</g>
</g>
<!-- Node22&#45;&gt;Node23 -->
<g id="edge2" class="edge">
<title>Node22&#45;&gt;Node23</title>
<path fill="none" stroke="#191970" d="M197.9681,-60.0557C209.516,-62.92 222.1597,-65.5608 234,-67 278.5574,-72.4161 329.5639,-71.9507 366.8799,-70.3939"/>
<polygon fill="#191970" stroke="#191970" points="198.7087,-56.632 188.1499,-57.5056 196.9489,-63.4072 198.7087,-56.632"/>
</g>
<!-- Node25 -->
<g id="node5" class="node">
<title>Node25</title>
<g id="a_node5"><a xlink:href="client_8h.html#a54b47b58f228d7bc9827d2919687e25a" target="_top" xlink:title="Funzione eseguita da ogni Client i (figli di Client 0) per mandare i file al server. ">
<polygon fill="none" stroke="#000000" points="234,-38.5 234,-57.5 331,-57.5 331,-38.5 234,-38.5"/>
<text text-anchor="middle" x="282.5" y="-45.5" font-family="Helvetica,sans-Serif" font-size="10.00" fill="#000000">operazioni_figlio</text>
</a>
</g>
</g>
<!-- Node22&#45;&gt;Node25 -->
<g id="edge4" class="edge">
<title>Node22&#45;&gt;Node25</title>
<path fill="none" stroke="#191970" d="M208.2429,-48C216.7173,-48 225.4815,-48 233.8886,-48"/>
<polygon fill="#191970" stroke="#191970" points="208.0934,-44.5001 198.0934,-48 208.0934,-51.5001 208.0934,-44.5001"/>
</g>
<!-- Node26 -->
<g id="node6" class="node">
<title>Node26</title>
<g id="a_node6"><a xlink:href="server_8c.html#a0ddf1224851353fc92bfbff6f499fa97" target="_top" xlink:title="main">
<polygon fill="none" stroke="#000000" points="262,-.5 262,-19.5 303,-19.5 303,-.5 262,-.5"/>
<text text-anchor="middle" x="282.5" y="-7.5" font-family="Helvetica,sans-Serif" font-size="10.00" fill="#000000">main</text>
</a>
</g>
</g>
<!-- Node22&#45;&gt;Node26 -->
<g id="edge6" class="edge">
<title>Node22&#45;&gt;Node26</title>
<path fill="none" stroke="#191970" d="M198.4506,-35.4492C219.7218,-29.0085 244.6978,-21.4461 261.8641,-16.2483"/>
<polygon fill="#191970" stroke="#191970" points="197.2255,-32.1632 188.6689,-38.411 199.2541,-38.8628 197.2255,-32.1632"/>
</g>
<!-- Node24 -->
<g id="node4" class="node">
<title>Node24</title>
<g id="a_node4"><a xlink:href="client_8c.html#a0ddf1224851353fc92bfbff6f499fa97" target="_top" xlink:title="main">
<polygon fill="none" stroke="#000000" points="509,-57.5 509,-76.5 550,-76.5 550,-57.5 509,-57.5"/>
<text text-anchor="middle" x="529.5" y="-64.5" font-family="Helvetica,sans-Serif" font-size="10.00" fill="#000000">main</text>
</a>
</g>
</g>
<!-- Node23&#45;&gt;Node24 -->
<g id="edge3" class="edge">
<title>Node23&#45;&gt;Node24</title>
<path fill="none" stroke="#191970" d="M483.2796,-67C492.5452,-67 501.4767,-67 508.9772,-67"/>
<polygon fill="#191970" stroke="#191970" points="483.1462,-63.5001 473.1462,-67 483.1462,-70.5001 483.1462,-63.5001"/>
</g>
<!-- Node25&#45;&gt;Node23 -->
<g id="edge5" class="edge">
<title>Node25&#45;&gt;Node23</title>
<path fill="none" stroke="#191970" d="M341.4381,-56.1442C349.8052,-57.3003 358.3702,-58.4839 366.6237,-59.6244"/>
<polygon fill="#191970" stroke="#191970" points="341.7495,-52.654 331.3645,-54.7522 340.7913,-59.5881 341.7495,-52.654"/>
</g>
</g>
</svg>
