<?xml version="1.0" encoding="UTF-8" standalone="no"?>
<!DOCTYPE svg PUBLIC "-//W3C//DTD SVG 1.1//EN"
 "http://www.w3.org/Graphics/SVG/1.1/DTD/svg11.dtd">
<!-- Generated by graphviz version 2.40.1 (20161225.0304)
 -->
<!-- Title: semOp Pages: 1 -->
<!--zoomable 241 -->
<svg id="main" version="1.1" xmlns="http://www.w3.org/2000/svg" xmlns:xlink="http://www.w3.org/1999/xlink" xml:space="preserve" onload="init(evt)">
<style type="text/css"><![CDATA[
.edge:hover path { stroke: red; }
.edge:hover polygon { stroke: red; fill: red; }
]]></style>
<script type="text/javascript"><![CDATA[
var edges = document.getElementsByTagName('g');
if (edges && edges.length) {
  for (var i=0;i<edges.length;i++) {
    if (edges[i].id.substr(0,4)=='edge') {
      edges[i].setAttribute('class','edge');
    }
  }
}
]]></script>
        <defs>
                <circle id="rim" cx="0" cy="0" r="7"/>
                <circle id="rim2" cx="0" cy="0" r="3.5"/>
                <g id="zoomPlus">
                        <use xlink:href="#rim" fill="#404040">
                                <set attributeName="fill" to="#808080" begin="zoomplus.mouseover" end="zoomplus.mouseout"/>
                        </use>
                        <path d="M-4,0h8M0,-4v8" fill="none" stroke="white" stroke-width="1.5" pointer-events="none"/>
                </g>
                <g id="zoomMin">
                        <use xlink:href="#rim" fill="#404040">
                                <set attributeName="fill" to="#808080" begin="zoomminus.mouseover" end="zoomminus.mouseout"/>
                        </use>
                        <path d="M-4,0h8" fill="none" stroke="white" stroke-width="1.5" pointer-events="none"/>
                </g>
                <g id="dirArrow">
                        <path fill="none" stroke="white" stroke-width="1.5" d="M0,-3.0v7 M-2.5,-0.5L0,-3.0L2.5,-0.5"/>
                </g>
               <g id="resetDef">
                       <use xlink:href="#rim2" fill="#404040">
                               <set attributeName="fill" to="#808080" begin="reset.mouseover" end="reset.mouseout"/>
                       </use>
               </g>
        </defs>

<script type="text/javascript">
var viewWidth = 644;
var viewHeight = 241;
var sectionId = 'dynsection-10';
</script>
<script xlink:href="svgpan.js"/>
<svg id="graph" class="graph">
<g id="viewport">
<title>semOp</title>
<!-- Node29 -->
<g id="node1" class="node">
<title>Node29</title>
<polygon fill="#bfbfbf" stroke="#000000" points="0,-118.8458 0,-137.8458 51,-137.8458 51,-118.8458 0,-118.8458"/>
<text text-anchor="middle" x="25.5" y="-125.8458" font-family="Helvetica,sans-Serif" font-size="10.00" fill="#000000">semOp</text>
</g>
<!-- Node30 -->
<g id="node2" class="node">
<title>Node30</title>
<g id="a_node2"><a xlink:href="semaphore_8h.html#a2581efba6a0833e3f289de94c779cc21" target="_top" xlink:title="Esegue la wait sul semaforo sem_num: decrementa il valore di 1 ed eventualmente mette in attesa il pr...">
<polygon fill="none" stroke="#000000" points="91.5,-61.8458 91.5,-80.8458 150.5,-80.8458 150.5,-61.8458 91.5,-61.8458"/>
<text text-anchor="middle" x="121" y="-68.8458" font-family="Helvetica,sans-Serif" font-size="10.00" fill="#000000">semWait</text>
</a>
</g>
</g>
<!-- Node29&#45;&gt;Node30 -->
<g id="edge1" class="edge">
<title>Node29&#45;&gt;Node30</title>
<path fill="none" stroke="#191970" d="M50.666,-113.3252C67.8917,-103.0439 90.2119,-89.7219 105.039,-80.8722"/>
<polygon fill="#191970" stroke="#191970" points="48.4933,-110.5459 41.7003,-118.6765 52.0809,-116.5567 48.4933,-110.5459"/>
</g>
<!-- Node31 -->
<g id="node3" class="node">
<title>Node31</title>
<g id="a_node3"><a xlink:href="semaphore_8h.html#a40485eedbf6d56f7fd27bce5a537efbe" target="_top" xlink:title="Attende che il semaforo sem_num raggiunga il valore zero. ">
<polygon fill="none" stroke="#000000" points="196.5,-61.8458 196.5,-80.8458 278.5,-80.8458 278.5,-61.8458 196.5,-61.8458"/>
<text text-anchor="middle" x="237.5" y="-68.8458" font-family="Helvetica,sans-Serif" font-size="10.00" fill="#000000">semWaitZero</text>
</a>
</g>
</g>
<!-- Node29&#45;&gt;Node31 -->
<g id="edge17" class="edge">
<title>Node29&#45;&gt;Node31</title>
<path fill="none" stroke="#191970" d="M60.9709,-118.8088C100.1196,-108.2829 162.7654,-91.4395 201.9469,-80.9048"/>
<polygon fill="#191970" stroke="#191970" points="59.8204,-115.4937 51.0722,-121.4702 61.638,-122.2536 59.8204,-115.4937"/>
</g>
<!-- Node36 -->
<g id="node8" class="node">
<title>Node36</title>
<g id="a_node8"><a xlink:href="semaphore_8h.html#a7bad0eb0b0c6ac701b59c36b8b7837bf" target="_top" xlink:title="Esegue la signal sul semaforo sem_num: incrementa il valore di 1. ">
<polygon fill="none" stroke="#000000" points="87,-137.8458 87,-156.8458 155,-156.8458 155,-137.8458 87,-137.8458"/>
<text text-anchor="middle" x="121" y="-144.8458" font-family="Helvetica,sans-Serif" font-size="10.00" fill="#000000">semSignal</text>
</a>
</g>
</g>
<!-- Node29&#45;&gt;Node36 -->
<g id="edge11" class="edge">
<title>Node29&#45;&gt;Node36</title>
<path fill="none" stroke="#191970" d="M61.0019,-135.409C69.41,-137.0818 78.3613,-138.8627 86.7141,-140.5245"/>
<polygon fill="#191970" stroke="#191970" points="61.583,-131.956 51.0922,-133.4374 60.217,-138.8215 61.583,-131.956"/>
</g>
<!-- Node37 -->
<g id="node9" class="node">
<title>Node37</title>
<g id="a_node9"><a xlink:href="semaphore_8h.html#afee4d9b0eb613bf632622e9244204d51" target="_top" xlink:title="Ottiene un insieme di semafori gia&#39; creato. ">
<polygon fill="none" stroke="#000000" points="191,-213.8458 191,-232.8458 284,-232.8458 284,-213.8458 191,-213.8458"/>
<text text-anchor="middle" x="237.5" y="-220.8458" font-family="Helvetica,sans-Serif" font-size="10.00" fill="#000000">getSemaphores</text>
</a>
</g>
</g>
<!-- Node29&#45;&gt;Node37 -->
<g id="edge15" class="edge">
<title>Node29&#45;&gt;Node37</title>
<path fill="none" stroke="#191970" d="M47.7079,-143.5008C59.1469,-150.9333 73.4966,-159.6932 87,-166.3458 127.3517,-186.2253 176.4748,-203.6449 207.3764,-213.8359"/>
<polygon fill="#191970" stroke="#191970" points="49.5008,-140.4903 39.2299,-137.8903 45.6377,-146.3278 49.5008,-140.4903"/>
</g>
<!-- Node30&#45;&gt;Node31 -->
<g id="edge2" class="edge">
<title>Node30&#45;&gt;Node31</title>
<path fill="none" stroke="#191970" d="M160.8791,-71.3458C172.352,-71.3458 184.8841,-71.3458 196.4277,-71.3458"/>
<polygon fill="#191970" stroke="#191970" points="160.6993,-67.8459 150.6993,-71.3458 160.6993,-74.8459 160.6993,-67.8459"/>
</g>
<!-- Node32 -->
<g id="node4" class="node">
<title>Node32</title>
<g id="a_node4"><a xlink:href="client_8h.html#a8c7084a254c7cd640d66e647795ff8f6" target="_top" xlink:title="operazioni_client0">
<polygon fill="none" stroke="#000000" points="453,-61.8458 453,-80.8458 559,-80.8458 559,-61.8458 453,-61.8458"/>
<text text-anchor="middle" x="506" y="-68.8458" font-family="Helvetica,sans-Serif" font-size="10.00" fill="#000000">operazioni_client0</text>
</a>
</g>
</g>
<!-- Node30&#45;&gt;Node32 -->
<g id="edge8" class="edge">
<title>Node30&#45;&gt;Node32</title>
<path fill="none" stroke="#191970" d="M145.0847,-56.571C158.2198,-49.1367 175.0197,-40.6094 191,-35.3458 286.8133,-3.7863 320.1869,13.9988 417,-14.3458 448.697,-23.6259 479.8203,-48.0358 495.5062,-61.7112"/>
<polygon fill="#191970" stroke="#191970" points="143.1105,-53.6704 136.2321,-61.7288 146.6345,-59.7187 143.1105,-53.6704"/>
</g>
<!-- Node34 -->
<g id="node6" class="node">
<title>Node34</title>
<g id="a_node6"><a xlink:href="client_8h.html#a54b47b58f228d7bc9827d2919687e25a" target="_top" xlink:title="Funzione eseguita da ogni Client i (figli di Client 0) per mandare i file al server. ">
<polygon fill="none" stroke="#000000" points="320,-23.8458 320,-42.8458 417,-42.8458 417,-23.8458 320,-23.8458"/>
<text text-anchor="middle" x="368.5" y="-30.8458" font-family="Helvetica,sans-Serif" font-size="10.00" fill="#000000">operazioni_figlio</text>
</a>
</g>
</g>
<!-- Node30&#45;&gt;Node34 -->
<g id="edge9" class="edge">
<title>Node30&#45;&gt;Node34</title>
<path fill="none" stroke="#191970" d="M160.6684,-59.4073C170.5096,-56.7706 181.0801,-54.2108 191,-52.3458 234.2509,-44.2142 284.1332,-39.2577 319.9829,-36.4558"/>
<polygon fill="#191970" stroke="#191970" points="159.4387,-56.116 150.7348,-62.1569 161.3061,-62.8624 159.4387,-56.116"/>
</g>
<!-- Node35 -->
<g id="node7" class="node">
<title>Node35</title>
<g id="a_node7"><a xlink:href="server_8c.html#a0ddf1224851353fc92bfbff6f499fa97" target="_top" xlink:title="main">
<polygon fill="none" stroke="#000000" points="348,-99.8458 348,-118.8458 389,-118.8458 389,-99.8458 348,-99.8458"/>
<text text-anchor="middle" x="368.5" y="-106.8458" font-family="Helvetica,sans-Serif" font-size="10.00" fill="#000000">main</text>
</a>
</g>
</g>
<!-- Node30&#45;&gt;Node35 -->
<g id="edge10" class="edge">
<title>Node30&#45;&gt;Node35</title>
<path fill="none" stroke="#191970" d="M160.6684,-83.2842C170.5096,-85.9209 181.0801,-88.4807 191,-90.3458 247.1957,-100.911 314.5864,-106.1163 347.8467,-108.1998"/>
<polygon fill="#191970" stroke="#191970" points="161.3061,-79.8292 150.7348,-80.5346 159.4387,-86.5755 161.3061,-79.8292"/>
</g>
<!-- Node31&#45;&gt;Node32 -->
<g id="edge3" class="edge">
<title>Node31&#45;&gt;Node32</title>
<path fill="none" stroke="#191970" d="M288.8471,-71.3458C335.9088,-71.3458 405.3057,-71.3458 452.9092,-71.3458"/>
<polygon fill="#191970" stroke="#191970" points="288.5717,-67.8459 278.5716,-71.3458 288.5716,-74.8459 288.5717,-67.8459"/>
</g>
<!-- Node31&#45;&gt;Node34 -->
<g id="edge5" class="edge">
<title>Node31&#45;&gt;Node34</title>
<path fill="none" stroke="#191970" d="M280.2148,-58.9552C298.1547,-53.7513 318.6996,-47.7917 335.4537,-42.9317"/>
<polygon fill="#191970" stroke="#191970" points="279.1858,-55.6093 270.5568,-61.7568 281.136,-62.3322 279.1858,-55.6093"/>
</g>
<!-- Node31&#45;&gt;Node35 -->
<g id="edge7" class="edge">
<title>Node31&#45;&gt;Node35</title>
<path fill="none" stroke="#191970" d="M280.2909,-83.7584C302.9216,-90.323 329.6799,-98.085 347.7427,-103.3245"/>
<polygon fill="#191970" stroke="#191970" points="281.136,-80.3593 270.5568,-80.9348 279.1858,-87.0822 281.136,-80.3593"/>
</g>
<!-- Node33 -->
<g id="node5" class="node">
<title>Node33</title>
<g id="a_node5"><a xlink:href="client_8c.html#a0ddf1224851353fc92bfbff6f499fa97" target="_top" xlink:title="main">
<polygon fill="none" stroke="#000000" points="595,-61.8458 595,-80.8458 636,-80.8458 636,-61.8458 595,-61.8458"/>
<text text-anchor="middle" x="615.5" y="-68.8458" font-family="Helvetica,sans-Serif" font-size="10.00" fill="#000000">main</text>
</a>
</g>
</g>
<!-- Node32&#45;&gt;Node33 -->
<g id="edge4" class="edge">
<title>Node32&#45;&gt;Node33</title>
<path fill="none" stroke="#191970" d="M569.2796,-71.3458C578.5452,-71.3458 587.4767,-71.3458 594.9772,-71.3458"/>
<polygon fill="#191970" stroke="#191970" points="569.1462,-67.8459 559.1462,-71.3458 569.1462,-74.8459 569.1462,-67.8459"/>
</g>
<!-- Node34&#45;&gt;Node32 -->
<g id="edge6" class="edge">
<title>Node34&#45;&gt;Node32</title>
<path fill="none" stroke="#191970" d="M413.0729,-45.6641C431.9645,-50.885 453.6472,-56.8773 471.314,-61.7598"/>
<polygon fill="#191970" stroke="#191970" points="413.7681,-42.2251 403.1971,-42.9348 411.9034,-48.9722 413.7681,-42.2251"/>
</g>
<!-- Node36&#45;&gt;Node31 -->
<g id="edge12" class="edge">
<title>Node36&#45;&gt;Node31</title>
<path fill="none" stroke="#191970" d="M144.3908,-132.0865C167.8179,-116.8036 203.1448,-93.7577 222.865,-80.8931"/>
<polygon fill="#191970" stroke="#191970" points="142.2179,-129.3251 135.7548,-137.7203 146.0425,-135.1879 142.2179,-129.3251"/>
</g>
<!-- Node36&#45;&gt;Node32 -->
<g id="edge13" class="edge">
<title>Node36&#45;&gt;Node32</title>
<path fill="none" stroke="#191970" d="M165.1693,-151.8585C224.3664,-156.2823 331.8467,-158.5606 417,-128.3458 447.7804,-117.424 478.7847,-94.1331 494.8204,-80.9542"/>
<polygon fill="#191970" stroke="#191970" points="165.2921,-148.3572 155.0439,-151.0451 164.7315,-155.3347 165.2921,-148.3572"/>
</g>
<!-- Node36&#45;&gt;Node35 -->
<g id="edge14" class="edge">
<title>Node36&#45;&gt;Node35</title>
<path fill="none" stroke="#191970" d="M165.1004,-140.5748C218.9111,-132.3129 307.6602,-118.6868 347.7283,-112.5349"/>
<polygon fill="#191970" stroke="#191970" points="164.507,-137.1248 155.154,-142.1019 165.5693,-144.0437 164.507,-137.1248"/>
</g>
<!-- Node37&#45;&gt;Node32 -->
<g id="edge16" class="edge">
<title>Node37&#45;&gt;Node32</title>
<path fill="none" stroke="#191970" d="M294.2528,-227.1571C331.6607,-227.0572 380.3287,-221.7319 417,-199.3458 464.3586,-170.4356 492.9407,-105.7468 502.4494,-81.1197"/>
<polygon fill="#191970" stroke="#191970" points="294.0537,-223.6551 284.0198,-227.0565 293.9849,-230.6547 294.0537,-223.6551"/>
</g>
</g>
</svg>
        <g id="navigator" transform="translate(0 0)" fill="#404254">
                <rect fill="#f2f5e9" fill-opacity="0.5" stroke="#606060" stroke-width=".5" x="0" y="0" width="60" height="60"/>
                <use id="zoomplus" xlink:href="#zoomPlus" x="17" y="9" onmousedown="handleZoom(evt,'in')"/>
                <use id="zoomminus" xlink:href="#zoomMin" x="42" y="9" onmousedown="handleZoom(evt,'out')"/>
                <use id="reset" xlink:href="#resetDef" x="30" y="36" onmousedown="handleReset()"/>
                <g id="arrowUp" xlink:href="#dirArrow" transform="translate(30 24)" onmousedown="handlePan(0,-1)">
                  <use xlink:href="#rim" fill="#404040">
                        <set attributeName="fill" to="#808080" begin="arrowUp.mouseover" end="arrowUp.mouseout"/>
                  </use>
                  <path fill="none" stroke="white" stroke-width="1.5" d="M0,-3.0v7 M-2.5,-0.5L0,-3.0L2.5,-0.5"/>
                </g>
                <g id="arrowRight" xlink:href="#dirArrow" transform="rotate(90) translate(36 -43)" onmousedown="handlePan(1,0)">
                  <use xlink:href="#rim" fill="#404040">
                        <set attributeName="fill" to="#808080" begin="arrowRight.mouseover" end="arrowRight.mouseout"/>
                  </use>
                  <path fill="none" stroke="white" stroke-width="1.5" d="M0,-3.0v7 M-2.5,-0.5L0,-3.0L2.5,-0.5"/>
                </g>
                <g id="arrowDown" xlink:href="#dirArrow" transform="rotate(180) translate(-30 -48)" onmousedown="handlePan(0,1)">
                  <use xlink:href="#rim" fill="#404040">
                        <set attributeName="fill" to="#808080" begin="arrowDown.mouseover" end="arrowDown.mouseout"/>
                  </use>
                  <path fill="none" stroke="white" stroke-width="1.5" d="M0,-3.0v7 M-2.5,-0.5L0,-3.0L2.5,-0.5"/>
                </g>
                <g id="arrowLeft" xlink:href="#dirArrow" transform="rotate(270) translate(-36 17)" onmousedown="handlePan(-1,0)">
                  <use xlink:href="#rim" fill="#404040">
                        <set attributeName="fill" to="#808080" begin="arrowLeft.mouseover" end="arrowLeft.mouseout"/>
                  </use>
                  <path fill="none" stroke="white" stroke-width="1.5" d="M0,-3.0v7 M-2.5,-0.5L0,-3.0L2.5,-0.5"/>
                </g>
        </g>
        <svg viewBox="0 0 15 15" width="100%" height="30px" preserveAspectRatio="xMaxYMin meet">
         <g id="arrow_out" transform="scale(0.3 0.3)">
          <a xlink:href="semaphore_8c_a77c6570406059144bb6a8ecf04f481da_icgraph_org.svg" target="_base">
           <rect id="button" ry="5" rx="5" y="6" x="6" height="38" width="38"
                fill="#f2f5e9" fill-opacity="0.5" stroke="#606060" stroke-width="1.0"/>
           <path id="arrow"
             d="M 11.500037,31.436501 C 11.940474,20.09759 22.043105,11.32322 32.158766,21.979434 L 37.068811,17.246167 C 37.068811,17.246167 37.088388,32 37.088388,32 L 22.160133,31.978069 C 22.160133,31.978069 26.997745,27.140456 26.997745,27.140456 C 18.528582,18.264221 13.291696,25.230495 11.500037,31.436501 z"
             style="fill:#404040;"/>
          </a>
         </g>
        </svg>
</svg>
