<?xml version="1.0" encoding="UTF-8" standalone="no"?>
<!DOCTYPE svg PUBLIC "-//W3C//DTD SVG 1.1//EN"
 "http://www.w3.org/Graphics/SVG/1.1/DTD/svg11.dtd">
<!-- Generated by graphviz version 2.40.1 (20161225.0304)
 -->
<!-- Title: semOp Pages: 1 -->
<svg width="306pt" height="142pt"
 viewBox="0.00 0.00 306.00 142.00" xmlns="http://www.w3.org/2000/svg" xmlns:xlink="http://www.w3.org/1999/xlink">
<g id="graph0" class="graph" transform="scale(1 1) rotate(0) translate(4 138)">
<title>semOp</title>
<!-- Node17 -->
<g id="node1" class="node">
<title>Node17</title>
<polygon fill="#bfbfbf" stroke="#000000" points="0,-57.5 0,-76.5 51,-76.5 51,-57.5 0,-57.5"/>
<text text-anchor="middle" x="25.5" y="-64.5" font-family="Helvetica,sans-Serif" font-size="10.00" fill="#000000">semOp</text>
</g>
<!-- Node18 -->
<g id="node2" class="node">
<title>Node18</title>
<g id="a_node2"><a xlink:href="semaphore_8h.html#a2581efba6a0833e3f289de94c779cc21" target="_top" xlink:title="Esegue la wait sul semaforo sem_num: decrementa il valore di 1 ed eventualmente mette in attesa il pr...">
<polygon fill="none" stroke="#000000" points="104,-114.5 104,-133.5 163,-133.5 163,-114.5 104,-114.5"/>
<text text-anchor="middle" x="133.5" y="-121.5" font-family="Helvetica,sans-Serif" font-size="10.00" fill="#000000">semWait</text>
</a>
</g>
</g>
<!-- Node17&#45;&gt;Node18 -->
<g id="edge1" class="edge">
<title>Node17&#45;&gt;Node18</title>
<path fill="none" stroke="#191970" d="M52.17,-81.4306C62.9632,-87.2393 75.5553,-93.9765 87,-100 96.1648,-104.8236 106.3883,-110.1104 114.9102,-114.4914"/>
<polygon fill="#191970" stroke="#191970" points="53.6854,-78.2714 43.2222,-76.6064 50.3633,-84.4329 53.6854,-78.2714"/>
</g>
<!-- Node19 -->
<g id="node3" class="node">
<title>Node19</title>
<g id="a_node3"><a xlink:href="semaphore_8h.html#a40485eedbf6d56f7fd27bce5a537efbe" target="_top" xlink:title="Attende che il semaforo sem_num raggiunga il valore zero. ">
<polygon fill="none" stroke="#000000" points="216,-76.5 216,-95.5 298,-95.5 298,-76.5 216,-76.5"/>
<text text-anchor="middle" x="257" y="-83.5" font-family="Helvetica,sans-Serif" font-size="10.00" fill="#000000">semWaitZero</text>
</a>
</g>
</g>
<!-- Node17&#45;&gt;Node19 -->
<g id="edge6" class="edge">
<title>Node17&#45;&gt;Node19</title>
<path fill="none" stroke="#191970" d="M61.1338,-69.9246C102.796,-73.3439 171.6384,-78.9941 215.625,-82.6042"/>
<polygon fill="#191970" stroke="#191970" points="61.4119,-66.4357 51.1591,-69.1059 60.8392,-73.4123 61.4119,-66.4357"/>
</g>
<!-- Node20 -->
<g id="node4" class="node">
<title>Node20</title>
<g id="a_node4"><a xlink:href="semaphore_8h.html#a7bad0eb0b0c6ac701b59c36b8b7837bf" target="_top" xlink:title="Esegue la signal sul semaforo sem_num: incrementa il valore di 1. ">
<polygon fill="none" stroke="#000000" points="99.5,-38.5 99.5,-57.5 167.5,-57.5 167.5,-38.5 99.5,-38.5"/>
<text text-anchor="middle" x="133.5" y="-45.5" font-family="Helvetica,sans-Serif" font-size="10.00" fill="#000000">semSignal</text>
</a>
</g>
</g>
<!-- Node17&#45;&gt;Node20 -->
<g id="edge3" class="edge">
<title>Node17&#45;&gt;Node20</title>
<path fill="none" stroke="#191970" d="M60.9809,-60.758C73.2336,-58.6024 86.9337,-56.1922 99.0985,-54.0521"/>
<polygon fill="#191970" stroke="#191970" points="60.3368,-57.3175 51.0945,-62.4973 61.5497,-64.2116 60.3368,-57.3175"/>
</g>
<!-- Node21 -->
<g id="node5" class="node">
<title>Node21</title>
<g id="a_node5"><a xlink:href="semaphore_8h.html#afee4d9b0eb613bf632622e9244204d51" target="_top" xlink:title="Ottiene un insieme di semafori gia&#39; creato. ">
<polygon fill="none" stroke="#000000" points="87,-.5 87,-19.5 180,-19.5 180,-.5 87,-.5"/>
<text text-anchor="middle" x="133.5" y="-7.5" font-family="Helvetica,sans-Serif" font-size="10.00" fill="#000000">getSemaphores</text>
</a>
</g>
</g>
<!-- Node17&#45;&gt;Node21 -->
<g id="edge5" class="edge">
<title>Node17&#45;&gt;Node21</title>
<path fill="none" stroke="#191970" d="M48.2356,-51.6998C59.6169,-44.367 73.7603,-35.7367 87,-29 93.6844,-25.5988 101.1254,-22.3386 108.0603,-19.5084"/>
<polygon fill="#191970" stroke="#191970" points="46.2199,-48.836 39.7701,-57.2415 50.0538,-54.6927 46.2199,-48.836"/>
</g>
<!-- Node18&#45;&gt;Node19 -->
<g id="edge2" class="edge">
<title>Node18&#45;&gt;Node19</title>
<path fill="none" stroke="#191970" d="M172.8298,-111.8985C189.9939,-106.6173 209.8322,-100.5132 225.9366,-95.558"/>
<polygon fill="#191970" stroke="#191970" points="171.6098,-108.6119 163.0813,-114.8981 173.6684,-115.3024 171.6098,-108.6119"/>
</g>
<!-- Node20&#45;&gt;Node19 -->
<g id="edge4" class="edge">
<title>Node20&#45;&gt;Node19</title>
<path fill="none" stroke="#191970" d="M174.2397,-60.5353C191.0405,-65.7048 210.197,-71.5991 225.8457,-76.4141"/>
<polygon fill="#191970" stroke="#191970" points="175.2514,-57.1847 164.6643,-57.589 173.1927,-63.8752 175.2514,-57.1847"/>
</g>
</g>
</svg>
