<?xml version="1.0" encoding="UTF-8" standalone="no"?>
<!DOCTYPE svg PUBLIC "-//W3C//DTD SVG 1.1//EN"
 "http://www.w3.org/Graphics/SVG/1.1/DTD/svg11.dtd">
<!-- Generated by graphviz version 2.40.1 (20161225.0304)
 -->
<!-- Title: semWait Pages: 1 -->
<!--zoomable 123 -->
<svg id="main" version="1.1" xmlns="http://www.w3.org/2000/svg" xmlns:xlink="http://www.w3.org/1999/xlink" xml:space="preserve" onload="init(evt)">
<style type="text/css"><![CDATA[
.edge:hover path { stroke: red; }
.edge:hover polygon { stroke: red; fill: red; }
]]></style>
<script type="text/javascript"><![CDATA[
var edges = document.getElementsByTagName('g');
if (edges && edges.length) {
  for (var i=0;i<edges.length;i++) {
    if (edges[i].id.substr(0,4)=='edge') {
      edges[i].setAttribute('class','edge');
    }
  }
}
]]></script>
        <defs>
                <circle id="rim" cx="0" cy="0" r="7"/>
                <circle id="rim2" cx="0" cy="0" r="3.5"/>
                <g id="zoomPlus">
                        <use xlink:href="#rim" fill="#404040">
                                <set attributeName="fill" to="#808080" begin="zoomplus.mouseover" end="zoomplus.mouseout"/>
                        </use>
                        <path d="M-4,0h8M0,-4v8" fill="none" stroke="white" stroke-width="1.5" pointer-events="none"/>
                </g>
                <g id="zoomMin">
                        <use xlink:href="#rim" fill="#404040">
                                <set attributeName="fill" to="#808080" begin="zoomminus.mouseover" end="zoomminus.mouseout"/>
                        </use>
                        <path d="M-4,0h8" fill="none" stroke="white" stroke-width="1.5" pointer-events="none"/>
                </g>
                <g id="dirArrow">
                        <path fill="none" stroke="white" stroke-width="1.5" d="M0,-3.0v7 M-2.5,-0.5L0,-3.0L2.5,-0.5"/>
                </g>
               <g id="resetDef">
                       <use xlink:href="#rim2" fill="#404040">
                               <set attributeName="fill" to="#808080" begin="reset.mouseover" end="reset.mouseout"/>
                       </use>
               </g>
        </defs>

<script type="text/javascript">
var viewWidth = 537;
var viewHeight = 123;
var sectionId = 'dynsection-20';
</script>
<script xlink:href="svgpan.js"/>
<svg id="graph" class="graph">
<g id="viewport">
<title>semWait</title>
<!-- Node74 -->
<g id="node1" class="node">
<title>Node74</title>
<polygon fill="#bfbfbf" stroke="#000000" points="0,-57.5 0,-76.5 59,-76.5 59,-57.5 0,-57.5"/>
<text text-anchor="middle" x="29.5" y="-64.5" font-family="Helvetica,sans-Serif" font-size="10.00" fill="#000000">semWait</text>
</g>
<!-- Node75 -->
<g id="node2" class="node">
<title>Node75</title>
<g id="a_node2"><a xlink:href="semaphore_8h.html#a40485eedbf6d56f7fd27bce5a537efbe" target="_top" xlink:title="Attende che il semaforo sem_num raggiunga il valore zero. ">
<polygon fill="none" stroke="#000000" points="95,-38.5 95,-57.5 177,-57.5 177,-38.5 95,-38.5"/>
<text text-anchor="middle" x="136" y="-45.5" font-family="Helvetica,sans-Serif" font-size="10.00" fill="#000000">semWaitZero</text>
</a>
</g>
</g>
<!-- Node74&#45;&gt;Node75 -->
<g id="edge1" class="edge">
<title>Node74&#45;&gt;Node75</title>
<path fill="none" stroke="#191970" d="M69.1392,-59.9282C77.5642,-58.4252 86.4765,-56.8352 94.9529,-55.323"/>
<polygon fill="#191970" stroke="#191970" points="68.396,-56.5055 59.1662,-61.7074 69.6255,-63.3966 68.396,-56.5055"/>
</g>
<!-- Node76 -->
<g id="node3" class="node">
<title>Node76</title>
<g id="a_node3"><a xlink:href="client_8h.html#a8c7084a254c7cd640d66e647795ff8f6" target="_top" xlink:title="operazioni_client0">
<polygon fill="none" stroke="#000000" points="346,-38.5 346,-57.5 452,-57.5 452,-38.5 346,-38.5"/>
<text text-anchor="middle" x="399" y="-45.5" font-family="Helvetica,sans-Serif" font-size="10.00" fill="#000000">operazioni_client0</text>
</a>
</g>
</g>
<!-- Node74&#45;&gt;Node76 -->
<g id="edge7" class="edge">
<title>Node74&#45;&gt;Node76</title>
<path fill="none" stroke="#191970" d="M62.4682,-80.1667C115.579,-99.4586 222.936,-130.4902 310,-105 341.697,-95.7199 372.8203,-71.31 388.5062,-57.6345"/>
<polygon fill="#191970" stroke="#191970" points="63.488,-76.8117 52.8953,-76.6012 61.0447,-83.3715 63.488,-76.8117"/>
</g>
<!-- Node78 -->
<g id="node5" class="node">
<title>Node78</title>
<g id="a_node5"><a xlink:href="client_8h.html#a54b47b58f228d7bc9827d2919687e25a" target="_top" xlink:title="Funzione eseguita da ogni Client i (figli di Client 0) per mandare i file al server. ">
<polygon fill="none" stroke="#000000" points="213,-.5 213,-19.5 310,-19.5 310,-.5 213,-.5"/>
<text text-anchor="middle" x="261.5" y="-7.5" font-family="Helvetica,sans-Serif" font-size="10.00" fill="#000000">operazioni_figlio</text>
</a>
</g>
</g>
<!-- Node74&#45;&gt;Node78 -->
<g id="edge8" class="edge">
<title>Node74&#45;&gt;Node78</title>
<path fill="none" stroke="#191970" d="M50.8793,-51.5637C63.1853,-43.4784 79.286,-34.2015 95,-29 133.2537,-16.3375 178.8499,-11.815 212.647,-10.331"/>
<polygon fill="#191970" stroke="#191970" points="48.5692,-48.9025 42.2777,-57.4271 52.512,-54.6865 48.5692,-48.9025"/>
</g>
<!-- Node79 -->
<g id="node6" class="node">
<title>Node79</title>
<g id="a_node6"><a xlink:href="server_8c.html#a0ddf1224851353fc92bfbff6f499fa97" target="_top" xlink:title="main">
<polygon fill="none" stroke="#000000" points="241,-76.5 241,-95.5 282,-95.5 282,-76.5 241,-76.5"/>
<text text-anchor="middle" x="261.5" y="-83.5" font-family="Helvetica,sans-Serif" font-size="10.00" fill="#000000">main</text>
</a>
</g>
</g>
<!-- Node74&#45;&gt;Node79 -->
<g id="edge9" class="edge">
<title>Node74&#45;&gt;Node79</title>
<path fill="none" stroke="#191970" d="M69.4524,-70.272C119.2849,-74.3531 202.5929,-81.1757 240.9839,-84.3198"/>
<polygon fill="#191970" stroke="#191970" points="69.6073,-66.773 59.355,-69.445 69.0359,-73.7497 69.6073,-66.773"/>
</g>
<!-- Node75&#45;&gt;Node76 -->
<g id="edge2" class="edge">
<title>Node75&#45;&gt;Node76</title>
<path fill="none" stroke="#191970" d="M187.3789,-48C233.1022,-48 299.709,-48 345.9363,-48"/>
<polygon fill="#191970" stroke="#191970" points="187.0938,-44.5001 177.0938,-48 187.0937,-51.5001 187.0938,-44.5001"/>
</g>
<!-- Node75&#45;&gt;Node78 -->
<g id="edge4" class="edge">
<title>Node75&#45;&gt;Node78</title>
<path fill="none" stroke="#191970" d="M177.3995,-35.4647C194.4723,-30.2952 213.9391,-24.4009 229.8412,-19.5859"/>
<polygon fill="#191970" stroke="#191970" points="176.2255,-32.1632 167.6689,-38.411 178.2541,-38.8628 176.2255,-32.1632"/>
</g>
<!-- Node75&#45;&gt;Node79 -->
<g id="edge6" class="edge">
<title>Node75&#45;&gt;Node79</title>
<path fill="none" stroke="#191970" d="M177.4506,-60.5508C198.7218,-66.9915 223.6978,-74.5539 240.8641,-79.7517"/>
<polygon fill="#191970" stroke="#191970" points="178.2541,-57.1372 167.6689,-57.589 176.2255,-63.8368 178.2541,-57.1372"/>
</g>
<!-- Node77 -->
<g id="node4" class="node">
<title>Node77</title>
<g id="a_node4"><a xlink:href="client_8c.html#a0ddf1224851353fc92bfbff6f499fa97" target="_top" xlink:title="main">
<polygon fill="none" stroke="#000000" points="488,-38.5 488,-57.5 529,-57.5 529,-38.5 488,-38.5"/>
<text text-anchor="middle" x="508.5" y="-45.5" font-family="Helvetica,sans-Serif" font-size="10.00" fill="#000000">main</text>
</a>
</g>
</g>
<!-- Node76&#45;&gt;Node77 -->
<g id="edge3" class="edge">
<title>Node76&#45;&gt;Node77</title>
<path fill="none" stroke="#191970" d="M462.2796,-48C471.5452,-48 480.4767,-48 487.9772,-48"/>
<polygon fill="#191970" stroke="#191970" points="462.1462,-44.5001 452.1462,-48 462.1462,-51.5001 462.1462,-44.5001"/>
</g>
<!-- Node78&#45;&gt;Node76 -->
<g id="edge5" class="edge">
<title>Node78&#45;&gt;Node76</title>
<path fill="none" stroke="#191970" d="M306.0729,-22.3183C324.9645,-27.5393 346.6472,-33.5316 364.314,-38.4141"/>
<polygon fill="#191970" stroke="#191970" points="306.7681,-18.8793 296.1971,-19.589 304.9034,-25.6264 306.7681,-18.8793"/>
</g>
</g>
</svg>
        <g id="navigator" transform="translate(0 0)" fill="#404254">
                <rect fill="#f2f5e9" fill-opacity="0.5" stroke="#606060" stroke-width=".5" x="0" y="0" width="60" height="60"/>
                <use id="zoomplus" xlink:href="#zoomPlus" x="17" y="9" onmousedown="handleZoom(evt,'in')"/>
                <use id="zoomminus" xlink:href="#zoomMin" x="42" y="9" onmousedown="handleZoom(evt,'out')"/>
                <use id="reset" xlink:href="#resetDef" x="30" y="36" onmousedown="handleReset()"/>
                <g id="arrowUp" xlink:href="#dirArrow" transform="translate(30 24)" onmousedown="handlePan(0,-1)">
                  <use xlink:href="#rim" fill="#404040">
                        <set attributeName="fill" to="#808080" begin="arrowUp.mouseover" end="arrowUp.mouseout"/>
                  </use>
                  <path fill="none" stroke="white" stroke-width="1.5" d="M0,-3.0v7 M-2.5,-0.5L0,-3.0L2.5,-0.5"/>
                </g>
                <g id="arrowRight" xlink:href="#dirArrow" transform="rotate(90) translate(36 -43)" onmousedown="handlePan(1,0)">
                  <use xlink:href="#rim" fill="#404040">
                        <set attributeName="fill" to="#808080" begin="arrowRight.mouseover" end="arrowRight.mouseout"/>
                  </use>
                  <path fill="none" stroke="white" stroke-width="1.5" d="M0,-3.0v7 M-2.5,-0.5L0,-3.0L2.5,-0.5"/>
                </g>
                <g id="arrowDown" xlink:href="#dirArrow" transform="rotate(180) translate(-30 -48)" onmousedown="handlePan(0,1)">
                  <use xlink:href="#rim" fill="#404040">
                        <set attributeName="fill" to="#808080" begin="arrowDown.mouseover" end="arrowDown.mouseout"/>
                  </use>
                  <path fill="none" stroke="white" stroke-width="1.5" d="M0,-3.0v7 M-2.5,-0.5L0,-3.0L2.5,-0.5"/>
                </g>
                <g id="arrowLeft" xlink:href="#dirArrow" transform="rotate(270) translate(-36 17)" onmousedown="handlePan(-1,0)">
                  <use xlink:href="#rim" fill="#404040">
                        <set attributeName="fill" to="#808080" begin="arrowLeft.mouseover" end="arrowLeft.mouseout"/>
                  </use>
                  <path fill="none" stroke="white" stroke-width="1.5" d="M0,-3.0v7 M-2.5,-0.5L0,-3.0L2.5,-0.5"/>
                </g>
        </g>
        <svg viewBox="0 0 15 15" width="100%" height="30px" preserveAspectRatio="xMaxYMin meet">
         <g id="arrow_out" transform="scale(0.3 0.3)">
          <a xlink:href="semaphore_8c_a2581efba6a0833e3f289de94c779cc21_icgraph_org.svg" target="_base">
           <rect id="button" ry="5" rx="5" y="6" x="6" height="38" width="38"
                fill="#f2f5e9" fill-opacity="0.5" stroke="#606060" stroke-width="1.0"/>
           <path id="arrow"
             d="M 11.500037,31.436501 C 11.940474,20.09759 22.043105,11.32322 32.158766,21.979434 L 37.068811,17.246167 C 37.068811,17.246167 37.088388,32 37.088388,32 L 22.160133,31.978069 C 22.160133,31.978069 26.997745,27.140456 26.997745,27.140456 C 18.528582,18.264221 13.291696,25.230495 11.500037,31.436501 z"
             style="fill:#404040;"/>
          </a>
         </g>
        </svg>
</svg>
