<?xml version="1.0" encoding="UTF-8" standalone="no"?>
<!DOCTYPE svg PUBLIC "-//W3C//DTD SVG 1.1//EN"
 "http://www.w3.org/Graphics/SVG/1.1/DTD/svg11.dtd">
<!-- Generated by graphviz version 2.40.1 (20161225.0304)
 -->
<!-- Title: semSignal Pages: 1 -->
<svg width="248pt" height="28pt"
 viewBox="0.00 0.00 248.00 28.00" xmlns="http://www.w3.org/2000/svg" xmlns:xlink="http://www.w3.org/1999/xlink">
<g id="graph0" class="graph" transform="scale(1 1) rotate(0) translate(4 24)">
<title>semSignal</title>
<!-- Node62 -->
<g id="node1" class="node">
<title>Node62</title>
<polygon fill="#bfbfbf" stroke="#000000" points="0,-.5 0,-19.5 68,-19.5 68,-.5 0,-.5"/>
<text text-anchor="middle" x="34" y="-7.5" font-family="Helvetica,sans-Serif" font-size="10.00" fill="#000000">semSignal</text>
</g>
<!-- Node63 -->
<g id="node2" class="node">
<title>Node63</title>
<g id="a_node2"><a xlink:href="semaphore_8c.html#a77c6570406059144bb6a8ecf04f481da" target="_top" xlink:title="Funzione di supporto per manipolare i valori di un set di semafori. ">
<polygon fill="none" stroke="#000000" points="104,-.5 104,-19.5 155,-19.5 155,-.5 104,-.5"/>
<text text-anchor="middle" x="129.5" y="-7.5" font-family="Helvetica,sans-Serif" font-size="10.00" fill="#000000">semOp</text>
</a>
</g>
</g>
<!-- Node62&#45;&gt;Node63 -->
<g id="edge1" class="edge">
<title>Node62&#45;&gt;Node63</title>
<path fill="none" stroke="#191970" d="M68.2079,-10C76.487,-10 85.3581,-10 93.7078,-10"/>
<polygon fill="#191970" stroke="#191970" points="93.9215,-13.5001 103.9215,-10 93.9214,-6.5001 93.9215,-13.5001"/>
</g>
<!-- Node64 -->
<g id="node3" class="node">
<title>Node64</title>
<g id="a_node3"><a xlink:href="err__exit_8c.html#aa223b0ecfe538d130ece562646a37d27" target="_top" xlink:title="Prints the error message of the last failed system call and terminates the calling process...">
<polygon fill="none" stroke="#000000" points="191,-.5 191,-19.5 240,-19.5 240,-.5 191,-.5"/>
<text text-anchor="middle" x="215.5" y="-7.5" font-family="Helvetica,sans-Serif" font-size="10.00" fill="#000000">ErrExit</text>
</a>
</g>
</g>
<!-- Node63&#45;&gt;Node64 -->
<g id="edge2" class="edge">
<title>Node63&#45;&gt;Node64</title>
<path fill="none" stroke="#191970" d="M155.3028,-10C163.3226,-10 172.2979,-10 180.82,-10"/>
<polygon fill="#191970" stroke="#191970" points="180.8955,-13.5001 190.8954,-10 180.8954,-6.5001 180.8955,-13.5001"/>
</g>
</g>
</svg>
