<?xml version="1.0" encoding="UTF-8" standalone="no"?>
<!DOCTYPE svg PUBLIC "-//W3C//DTD SVG 1.1//EN"
 "http://www.w3.org/Graphics/SVG/1.1/DTD/svg11.dtd">
<!-- Generated by graphviz version 2.40.1 (20161225.0304)
 -->
<!-- Title: semSignal Pages: 1 -->
<svg width="546pt" height="123pt"
 viewBox="0.00 0.00 546.00 122.99" xmlns="http://www.w3.org/2000/svg" xmlns:xlink="http://www.w3.org/1999/xlink">
<g id="graph0" class="graph" transform="scale(1 1) rotate(0) translate(4 118.9919)">
<title>semSignal</title>
<!-- Node65 -->
<g id="node1" class="node">
<title>Node65</title>
<polygon fill="#bfbfbf" stroke="#000000" points="0,-57.5 0,-76.5 68,-76.5 68,-57.5 0,-57.5"/>
<text text-anchor="middle" x="34" y="-64.5" font-family="Helvetica,sans-Serif" font-size="10.00" fill="#000000">semSignal</text>
</g>
<!-- Node66 -->
<g id="node2" class="node">
<title>Node66</title>
<g id="a_node2"><a xlink:href="semaphore_8h.html#a40485eedbf6d56f7fd27bce5a537efbe" target="_top" xlink:title="Attende che il semaforo sem_num raggiunga il valore zero. ">
<polygon fill="none" stroke="#000000" points="104,-38.5 104,-57.5 186,-57.5 186,-38.5 104,-38.5"/>
<text text-anchor="middle" x="145" y="-45.5" font-family="Helvetica,sans-Serif" font-size="10.00" fill="#000000">semWaitZero</text>
</a>
</g>
</g>
<!-- Node65&#45;&gt;Node66 -->
<g id="edge1" class="edge">
<title>Node65&#45;&gt;Node66</title>
<path fill="none" stroke="#191970" d="M78.2194,-59.4309C86.6169,-57.9935 95.3741,-56.4945 103.6776,-55.0732"/>
<polygon fill="#191970" stroke="#191970" points="77.4755,-56.0073 68.2094,-61.1443 78.6566,-62.9069 77.4755,-56.0073"/>
</g>
<!-- Node67 -->
<g id="node3" class="node">
<title>Node67</title>
<g id="a_node3"><a xlink:href="client_8h.html#a8c7084a254c7cd640d66e647795ff8f6" target="_top" xlink:title="operazioni_client0">
<polygon fill="none" stroke="#000000" points="355,-38.5 355,-57.5 461,-57.5 461,-38.5 355,-38.5"/>
<text text-anchor="middle" x="408" y="-45.5" font-family="Helvetica,sans-Serif" font-size="10.00" fill="#000000">operazioni_client0</text>
</a>
</g>
</g>
<!-- Node65&#45;&gt;Node67 -->
<g id="edge7" class="edge">
<title>Node65&#45;&gt;Node67</title>
<path fill="none" stroke="#191970" d="M67.092,-80.1124C120.9186,-99.5235 230.3392,-130.9577 319,-105 350.697,-95.7199 381.8203,-71.31 397.5062,-57.6345"/>
<polygon fill="#191970" stroke="#191970" points="67.9912,-76.7133 57.398,-76.5277 65.5633,-83.2788 67.9912,-76.7133"/>
</g>
<!-- Node69 -->
<g id="node5" class="node">
<title>Node69</title>
<g id="a_node5"><a xlink:href="client_8h.html#a54b47b58f228d7bc9827d2919687e25a" target="_top" xlink:title="Funzione eseguita da ogni Client i (figli di Client 0) per mandare i file al server. ">
<polygon fill="none" stroke="#000000" points="222,-.5 222,-19.5 319,-19.5 319,-.5 222,-.5"/>
<text text-anchor="middle" x="270.5" y="-7.5" font-family="Helvetica,sans-Serif" font-size="10.00" fill="#000000">operazioni_figlio</text>
</a>
</g>
</g>
<!-- Node65&#45;&gt;Node69 -->
<g id="edge8" class="edge">
<title>Node65&#45;&gt;Node69</title>
<path fill="none" stroke="#191970" d="M56.2231,-52.0642C69.5171,-43.879 87.0702,-34.3389 104,-29 142.4294,-16.8811 188.0112,-12.314 221.7581,-10.6746"/>
<polygon fill="#191970" stroke="#191970" points="54.3201,-49.1266 47.7601,-57.4462 58.0765,-55.0334 54.3201,-49.1266"/>
</g>
<!-- Node70 -->
<g id="node6" class="node">
<title>Node70</title>
<g id="a_node6"><a xlink:href="server_8c.html#a0ddf1224851353fc92bfbff6f499fa97" target="_top" xlink:title="main">
<polygon fill="none" stroke="#000000" points="250,-76.5 250,-95.5 291,-95.5 291,-76.5 250,-76.5"/>
<text text-anchor="middle" x="270.5" y="-83.5" font-family="Helvetica,sans-Serif" font-size="10.00" fill="#000000">main</text>
</a>
</g>
</g>
<!-- Node65&#45;&gt;Node70 -->
<g id="edge9" class="edge">
<title>Node65&#45;&gt;Node70</title>
<path fill="none" stroke="#191970" d="M78.2472,-70.5547C129.4139,-74.6654 211.4896,-81.2592 249.69,-84.3282"/>
<polygon fill="#191970" stroke="#191970" points="78.3848,-67.0546 68.1366,-69.7425 77.8241,-74.0321 78.3848,-67.0546"/>
</g>
<!-- Node66&#45;&gt;Node67 -->
<g id="edge2" class="edge">
<title>Node66&#45;&gt;Node67</title>
<path fill="none" stroke="#191970" d="M196.3789,-48C242.1022,-48 308.709,-48 354.9363,-48"/>
<polygon fill="#191970" stroke="#191970" points="196.0938,-44.5001 186.0938,-48 196.0937,-51.5001 196.0938,-44.5001"/>
</g>
<!-- Node66&#45;&gt;Node69 -->
<g id="edge4" class="edge">
<title>Node66&#45;&gt;Node69</title>
<path fill="none" stroke="#191970" d="M186.3995,-35.4647C203.4723,-30.2952 222.9391,-24.4009 238.8412,-19.5859"/>
<polygon fill="#191970" stroke="#191970" points="185.2255,-32.1632 176.6689,-38.411 187.2541,-38.8628 185.2255,-32.1632"/>
</g>
<!-- Node66&#45;&gt;Node70 -->
<g id="edge6" class="edge">
<title>Node66&#45;&gt;Node70</title>
<path fill="none" stroke="#191970" d="M186.4506,-60.5508C207.7218,-66.9915 232.6978,-74.5539 249.8641,-79.7517"/>
<polygon fill="#191970" stroke="#191970" points="187.2541,-57.1372 176.6689,-57.589 185.2255,-63.8368 187.2541,-57.1372"/>
</g>
<!-- Node68 -->
<g id="node4" class="node">
<title>Node68</title>
<g id="a_node4"><a xlink:href="client_8c.html#a0ddf1224851353fc92bfbff6f499fa97" target="_top" xlink:title="main">
<polygon fill="none" stroke="#000000" points="497,-38.5 497,-57.5 538,-57.5 538,-38.5 497,-38.5"/>
<text text-anchor="middle" x="517.5" y="-45.5" font-family="Helvetica,sans-Serif" font-size="10.00" fill="#000000">main</text>
</a>
</g>
</g>
<!-- Node67&#45;&gt;Node68 -->
<g id="edge3" class="edge">
<title>Node67&#45;&gt;Node68</title>
<path fill="none" stroke="#191970" d="M471.2796,-48C480.5452,-48 489.4767,-48 496.9772,-48"/>
<polygon fill="#191970" stroke="#191970" points="471.1462,-44.5001 461.1462,-48 471.1462,-51.5001 471.1462,-44.5001"/>
</g>
<!-- Node69&#45;&gt;Node67 -->
<g id="edge5" class="edge">
<title>Node69&#45;&gt;Node67</title>
<path fill="none" stroke="#191970" d="M315.0729,-22.3183C333.9645,-27.5393 355.6472,-33.5316 373.314,-38.4141"/>
<polygon fill="#191970" stroke="#191970" points="315.7681,-18.8793 305.1971,-19.589 313.9034,-25.6264 315.7681,-18.8793"/>
</g>
</g>
</svg>
