<?xml version="1.0" encoding="UTF-8" standalone="no"?>
<!DOCTYPE svg PUBLIC "-//W3C//DTD SVG 1.1//EN"
 "http://www.w3.org/Graphics/SVG/1.1/DTD/svg11.dtd">
<!-- Generated by graphviz version 2.40.1 (20161225.0304)
 -->
<!-- Title: semSetAll Pages: 1 -->
<svg width="544pt" height="85pt"
 viewBox="0.00 0.00 544.00 85.00" xmlns="http://www.w3.org/2000/svg" xmlns:xlink="http://www.w3.org/1999/xlink">
<g id="graph0" class="graph" transform="scale(1 1) rotate(0) translate(4 81)">
<title>semSetAll</title>
<!-- Node40 -->
<g id="node1" class="node">
<title>Node40</title>
<polygon fill="#bfbfbf" stroke="#000000" points="0,-19.5 0,-38.5 66,-38.5 66,-19.5 0,-19.5"/>
<text text-anchor="middle" x="33" y="-26.5" font-family="Helvetica,sans-Serif" font-size="10.00" fill="#000000">semSetAll</text>
</g>
<!-- Node41 -->
<g id="node2" class="node">
<title>Node41</title>
<g id="a_node2"><a xlink:href="semaphore_8h.html#a40485eedbf6d56f7fd27bce5a537efbe" target="_top" xlink:title="Attende che il semaforo sem_num raggiunga il valore zero. ">
<polygon fill="none" stroke="#000000" points="102,-38.5 102,-57.5 184,-57.5 184,-38.5 102,-38.5"/>
<text text-anchor="middle" x="143" y="-45.5" font-family="Helvetica,sans-Serif" font-size="10.00" fill="#000000">semWaitZero</text>
</a>
</g>
</g>
<!-- Node40&#45;&gt;Node41 -->
<g id="edge1" class="edge">
<title>Node40&#45;&gt;Node41</title>
<path fill="none" stroke="#191970" d="M76.0838,-36.4418C84.5562,-37.9052 93.4248,-39.437 101.8323,-40.8892"/>
<polygon fill="#191970" stroke="#191970" points="76.4535,-32.9538 66.0036,-34.7006 75.262,-39.8517 76.4535,-32.9538"/>
</g>
<!-- Node45 -->
<g id="node6" class="node">
<title>Node45</title>
<g id="a_node6"><a xlink:href="server_8c.html#a0ddf1224851353fc92bfbff6f499fa97" target="_top" xlink:title="main">
<polygon fill="none" stroke="#000000" points="248,-.5 248,-19.5 289,-19.5 289,-.5 248,-.5"/>
<text text-anchor="middle" x="268.5" y="-7.5" font-family="Helvetica,sans-Serif" font-size="10.00" fill="#000000">main</text>
</a>
</g>
</g>
<!-- Node40&#45;&gt;Node45 -->
<g id="edge7" class="edge">
<title>Node40&#45;&gt;Node45</title>
<path fill="none" stroke="#191970" d="M76.302,-25.5064C127.27,-21.3944 209.7887,-14.7368 247.9439,-11.6585"/>
<polygon fill="#191970" stroke="#191970" points="75.928,-22.0251 66.2419,-26.3181 76.491,-29.0025 75.928,-22.0251"/>
</g>
<!-- Node42 -->
<g id="node3" class="node">
<title>Node42</title>
<g id="a_node3"><a xlink:href="client_8h.html#a8c7084a254c7cd640d66e647795ff8f6" target="_top" xlink:title="operazioni_client0">
<polygon fill="none" stroke="#000000" points="353,-57.5 353,-76.5 459,-76.5 459,-57.5 353,-57.5"/>
<text text-anchor="middle" x="406" y="-64.5" font-family="Helvetica,sans-Serif" font-size="10.00" fill="#000000">operazioni_client0</text>
</a>
</g>
</g>
<!-- Node41&#45;&gt;Node42 -->
<g id="edge2" class="edge">
<title>Node41&#45;&gt;Node42</title>
<path fill="none" stroke="#191970" d="M183.9681,-60.0557C195.516,-62.92 208.1597,-65.5608 220,-67 264.5574,-72.4161 315.5639,-71.9507 352.8799,-70.3939"/>
<polygon fill="#191970" stroke="#191970" points="184.7087,-56.632 174.1499,-57.5056 182.9489,-63.4072 184.7087,-56.632"/>
</g>
<!-- Node44 -->
<g id="node5" class="node">
<title>Node44</title>
<g id="a_node5"><a xlink:href="client_8h.html#a54b47b58f228d7bc9827d2919687e25a" target="_top" xlink:title="Funzione eseguita da ogni Client i (figli di Client 0) per mandare i file al server. ">
<polygon fill="none" stroke="#000000" points="220,-38.5 220,-57.5 317,-57.5 317,-38.5 220,-38.5"/>
<text text-anchor="middle" x="268.5" y="-45.5" font-family="Helvetica,sans-Serif" font-size="10.00" fill="#000000">operazioni_figlio</text>
</a>
</g>
</g>
<!-- Node41&#45;&gt;Node44 -->
<g id="edge4" class="edge">
<title>Node41&#45;&gt;Node44</title>
<path fill="none" stroke="#191970" d="M194.2429,-48C202.7173,-48 211.4815,-48 219.8886,-48"/>
<polygon fill="#191970" stroke="#191970" points="194.0934,-44.5001 184.0934,-48 194.0934,-51.5001 194.0934,-44.5001"/>
</g>
<!-- Node41&#45;&gt;Node45 -->
<g id="edge6" class="edge">
<title>Node41&#45;&gt;Node45</title>
<path fill="none" stroke="#191970" d="M184.4506,-35.4492C205.7218,-29.0085 230.6978,-21.4461 247.8641,-16.2483"/>
<polygon fill="#191970" stroke="#191970" points="183.2255,-32.1632 174.6689,-38.411 185.2541,-38.8628 183.2255,-32.1632"/>
</g>
<!-- Node43 -->
<g id="node4" class="node">
<title>Node43</title>
<g id="a_node4"><a xlink:href="client_8c.html#a0ddf1224851353fc92bfbff6f499fa97" target="_top" xlink:title="main">
<polygon fill="none" stroke="#000000" points="495,-57.5 495,-76.5 536,-76.5 536,-57.5 495,-57.5"/>
<text text-anchor="middle" x="515.5" y="-64.5" font-family="Helvetica,sans-Serif" font-size="10.00" fill="#000000">main</text>
</a>
</g>
</g>
<!-- Node42&#45;&gt;Node43 -->
<g id="edge3" class="edge">
<title>Node42&#45;&gt;Node43</title>
<path fill="none" stroke="#191970" d="M469.2796,-67C478.5452,-67 487.4767,-67 494.9772,-67"/>
<polygon fill="#191970" stroke="#191970" points="469.1462,-63.5001 459.1462,-67 469.1462,-70.5001 469.1462,-63.5001"/>
</g>
<!-- Node44&#45;&gt;Node42 -->
<g id="edge5" class="edge">
<title>Node44&#45;&gt;Node42</title>
<path fill="none" stroke="#191970" d="M327.4381,-56.1442C335.8052,-57.3003 344.3702,-58.4839 352.6237,-59.6244"/>
<polygon fill="#191970" stroke="#191970" points="327.7495,-52.654 317.3645,-54.7522 326.7913,-59.5881 327.7495,-52.654"/>
</g>
</g>
</svg>
