<?xml version="1.0" encoding="UTF-8" standalone="no"?>
<!DOCTYPE svg PUBLIC "-//W3C//DTD SVG 1.1//EN"
 "http://www.w3.org/Graphics/SVG/1.1/DTD/svg11.dtd">
<!-- Generated by graphviz version 2.40.1 (20161225.0304)
 -->
<!-- Title: semOp Pages: 1 -->
<svg width="644pt" height="240pt"
 viewBox="0.00 0.00 644.00 239.51" xmlns="http://www.w3.org/2000/svg" xmlns:xlink="http://www.w3.org/1999/xlink">
<g id="graph0" class="graph" transform="scale(1 1) rotate(0) translate(4 235.5052)">
<title>semOp</title>
<!-- Node29 -->
<g id="node1" class="node">
<title>Node29</title>
<polygon fill="#bfbfbf" stroke="#000000" points="0,-79.0052 0,-98.0052 51,-98.0052 51,-79.0052 0,-79.0052"/>
<text text-anchor="middle" x="25.5" y="-86.0052" font-family="Helvetica,sans-Serif" font-size="10.00" fill="#000000">semOp</text>
</g>
<!-- Node30 -->
<g id="node2" class="node">
<title>Node30</title>
<g id="a_node2"><a xlink:href="semaphore_8h.html#a2581efba6a0833e3f289de94c779cc21" target="_top" xlink:title="Esegue la wait sul semaforo sem_num: decrementa il valore di 1 ed eventualmente mette in attesa il pr...">
<polygon fill="none" stroke="#000000" points="91.5,-98.0052 91.5,-117.0052 150.5,-117.0052 150.5,-98.0052 91.5,-98.0052"/>
<text text-anchor="middle" x="121" y="-105.0052" font-family="Helvetica,sans-Serif" font-size="10.00" fill="#000000">semWait</text>
</a>
</g>
</g>
<!-- Node29&#45;&gt;Node30 -->
<g id="edge1" class="edge">
<title>Node29&#45;&gt;Node30</title>
<path fill="none" stroke="#191970" d="M61.0944,-95.5868C71.0293,-97.5634 81.7162,-99.6896 91.274,-101.5911"/>
<polygon fill="#191970" stroke="#191970" points="61.583,-92.1155 51.0922,-93.5968 60.217,-98.9809 61.583,-92.1155"/>
</g>
<!-- Node31 -->
<g id="node3" class="node">
<title>Node31</title>
<g id="a_node3"><a xlink:href="semaphore_8h.html#a40485eedbf6d56f7fd27bce5a537efbe" target="_top" xlink:title="Attende che il semaforo sem_num raggiunga il valore zero. ">
<polygon fill="none" stroke="#000000" points="196.5,-60.0052 196.5,-79.0052 278.5,-79.0052 278.5,-60.0052 196.5,-60.0052"/>
<text text-anchor="middle" x="237.5" y="-67.0052" font-family="Helvetica,sans-Serif" font-size="10.00" fill="#000000">semWaitZero</text>
</a>
</g>
</g>
<!-- Node29&#45;&gt;Node31 -->
<g id="edge18" class="edge">
<title>Node29&#45;&gt;Node31</title>
<path fill="none" stroke="#191970" d="M61.4675,-85.2817C98.7677,-81.9387 157.007,-76.7192 196.1752,-73.2088"/>
<polygon fill="#191970" stroke="#191970" points="60.7198,-81.8346 51.0722,-86.2133 61.3447,-88.8066 60.7198,-81.8346"/>
</g>
<!-- Node36 -->
<g id="node8" class="node">
<title>Node36</title>
<g id="a_node8"><a xlink:href="semaphore_8h.html#a7bad0eb0b0c6ac701b59c36b8b7837bf" target="_top" xlink:title="Esegue la signal sul semaforo sem_num: incrementa il valore di 1. ">
<polygon fill="none" stroke="#000000" points="87,-22.0052 87,-41.0052 155,-41.0052 155,-22.0052 87,-22.0052"/>
<text text-anchor="middle" x="121" y="-29.0052" font-family="Helvetica,sans-Serif" font-size="10.00" fill="#000000">semSignal</text>
</a>
</g>
</g>
<!-- Node29&#45;&gt;Node36 -->
<g id="edge11" class="edge">
<title>Node29&#45;&gt;Node36</title>
<path fill="none" stroke="#191970" d="M50.666,-73.4846C67.8917,-63.2033 90.2119,-49.8813 105.039,-41.0317"/>
<polygon fill="#191970" stroke="#191970" points="48.4933,-70.7054 41.7003,-78.8359 52.0809,-76.7161 48.4933,-70.7054"/>
</g>
<!-- Node37 -->
<g id="node9" class="node">
<title>Node37</title>
<g id="a_node9"><a xlink:href="semaphore_8h.html#afee4d9b0eb613bf632622e9244204d51" target="_top" xlink:title="Ottiene un insieme di semafori gia&#39; creato. ">
<polygon fill="none" stroke="#000000" points="191,-212.0052 191,-231.0052 284,-231.0052 284,-212.0052 191,-212.0052"/>
<text text-anchor="middle" x="237.5" y="-219.0052" font-family="Helvetica,sans-Serif" font-size="10.00" fill="#000000">getSemaphores</text>
</a>
</g>
</g>
<!-- Node29&#45;&gt;Node37 -->
<g id="edge16" class="edge">
<title>Node29&#45;&gt;Node37</title>
<path fill="none" stroke="#191970" d="M47.3039,-103.9382C78.5179,-125.7824 138.0283,-166.5083 191,-197.5052 199.6251,-202.5522 209.4234,-207.6931 217.7941,-211.9154"/>
<polygon fill="#191970" stroke="#191970" points="49.1155,-100.9335 38.9209,-98.0488 45.0914,-106.6613 49.1155,-100.9335"/>
</g>
<!-- Node30&#45;&gt;Node31 -->
<g id="edge2" class="edge">
<title>Node30&#45;&gt;Node31</title>
<path fill="none" stroke="#191970" d="M160.3216,-94.6793C175.9534,-89.5805 193.6258,-83.8161 208.1115,-79.0911"/>
<polygon fill="#191970" stroke="#191970" points="158.8195,-91.4876 150.3979,-97.9162 160.9903,-98.1426 158.8195,-91.4876"/>
</g>
<!-- Node32 -->
<g id="node4" class="node">
<title>Node32</title>
<g id="a_node4"><a xlink:href="client_8h.html#a8c7084a254c7cd640d66e647795ff8f6" target="_top" xlink:title="operazioni_client0">
<polygon fill="none" stroke="#000000" points="453,-79.0052 453,-98.0052 559,-98.0052 559,-79.0052 453,-79.0052"/>
<text text-anchor="middle" x="506" y="-86.0052" font-family="Helvetica,sans-Serif" font-size="10.00" fill="#000000">operazioni_client0</text>
</a>
</g>
</g>
<!-- Node30&#45;&gt;Node32 -->
<g id="edge8" class="edge">
<title>Node30&#45;&gt;Node32</title>
<path fill="none" stroke="#191970" d="M154.6109,-120.5715C210.2545,-140.2784 324.5505,-172.5722 417,-145.5052 448.697,-136.2251 479.8203,-111.8152 495.5062,-98.1397"/>
<polygon fill="#191970" stroke="#191970" points="155.5163,-117.1768 144.9221,-117.0555 153.1283,-123.7569 155.5163,-117.1768"/>
</g>
<!-- Node34 -->
<g id="node6" class="node">
<title>Node34</title>
<g id="a_node6"><a xlink:href="client_8h.html#a54b47b58f228d7bc9827d2919687e25a" target="_top" xlink:title="Funzione eseguita da ogni Client i (figli di Client 0) per mandare i file al server. ">
<polygon fill="none" stroke="#000000" points="320,-79.0052 320,-98.0052 417,-98.0052 417,-79.0052 320,-79.0052"/>
<text text-anchor="middle" x="368.5" y="-86.0052" font-family="Helvetica,sans-Serif" font-size="10.00" fill="#000000">operazioni_figlio</text>
</a>
</g>
</g>
<!-- Node30&#45;&gt;Node34 -->
<g id="edge9" class="edge">
<title>Node30&#45;&gt;Node34</title>
<path fill="none" stroke="#191970" d="M161.0119,-104.4336C204.3102,-101.1097 273.3707,-95.808 319.7935,-92.2443"/>
<polygon fill="#191970" stroke="#191970" points="160.557,-100.9581 150.8543,-105.2133 161.0929,-107.9376 160.557,-100.9581"/>
</g>
<!-- Node35 -->
<g id="node7" class="node">
<title>Node35</title>
<g id="a_node7"><a xlink:href="server_8c.html#a0ddf1224851353fc92bfbff6f499fa97" target="_top" xlink:title="main">
<polygon fill="none" stroke="#000000" points="348,-117.0052 348,-136.0052 389,-136.0052 389,-117.0052 348,-117.0052"/>
<text text-anchor="middle" x="368.5" y="-124.0052" font-family="Helvetica,sans-Serif" font-size="10.00" fill="#000000">main</text>
</a>
</g>
</g>
<!-- Node30&#45;&gt;Node35 -->
<g id="edge10" class="edge">
<title>Node30&#45;&gt;Node35</title>
<path fill="none" stroke="#191970" d="M160.9765,-110.5741C214.333,-114.6701 306.8567,-121.773 347.8869,-124.9228"/>
<polygon fill="#191970" stroke="#191970" points="161.0929,-107.0728 150.8543,-109.797 160.557,-114.0523 161.0929,-107.0728"/>
</g>
<!-- Node31&#45;&gt;Node32 -->
<g id="edge3" class="edge">
<title>Node31&#45;&gt;Node32</title>
<path fill="none" stroke="#191970" d="M288.8717,-66.6503C324.8476,-65.3479 373.9848,-64.9648 417,-69.5052 434.5978,-71.3627 453.8326,-75.2316 469.9038,-78.9964"/>
<polygon fill="#191970" stroke="#191970" points="288.4738,-63.1633 278.6212,-67.059 288.7527,-70.1577 288.4738,-63.1633"/>
</g>
<!-- Node31&#45;&gt;Node34 -->
<g id="edge5" class="edge">
<title>Node31&#45;&gt;Node34</title>
<path fill="none" stroke="#191970" d="M288.6254,-76.9203C298.865,-78.4054 309.5975,-79.9621 319.7539,-81.4351"/>
<polygon fill="#191970" stroke="#191970" points="288.9887,-73.4365 278.5898,-75.4648 287.9838,-80.364 288.9887,-73.4365"/>
</g>
<!-- Node31&#45;&gt;Node35 -->
<g id="edge7" class="edge">
<title>Node31&#45;&gt;Node35</title>
<path fill="none" stroke="#191970" d="M266.5657,-83.3953C282.2863,-90.7805 302.0973,-99.8831 320,-107.5052 328.9861,-111.3311 339.0222,-115.3104 347.6229,-118.6329"/>
<polygon fill="#191970" stroke="#191970" points="267.8966,-80.1532 257.3596,-79.0476 264.9073,-86.4829 267.8966,-80.1532"/>
</g>
<!-- Node33 -->
<g id="node5" class="node">
<title>Node33</title>
<g id="a_node5"><a xlink:href="client_8c.html#a0ddf1224851353fc92bfbff6f499fa97" target="_top" xlink:title="main">
<polygon fill="none" stroke="#000000" points="595,-79.0052 595,-98.0052 636,-98.0052 636,-79.0052 595,-79.0052"/>
<text text-anchor="middle" x="615.5" y="-86.0052" font-family="Helvetica,sans-Serif" font-size="10.00" fill="#000000">main</text>
</a>
</g>
</g>
<!-- Node32&#45;&gt;Node33 -->
<g id="edge4" class="edge">
<title>Node32&#45;&gt;Node33</title>
<path fill="none" stroke="#191970" d="M569.2796,-88.5052C578.5452,-88.5052 587.4767,-88.5052 594.9772,-88.5052"/>
<polygon fill="#191970" stroke="#191970" points="569.1462,-85.0053 559.1462,-88.5052 569.1462,-92.0053 569.1462,-85.0053"/>
</g>
<!-- Node34&#45;&gt;Node32 -->
<g id="edge6" class="edge">
<title>Node34&#45;&gt;Node32</title>
<path fill="none" stroke="#191970" d="M427.4381,-88.5052C435.8052,-88.5052 444.3702,-88.5052 452.6237,-88.5052"/>
<polygon fill="#191970" stroke="#191970" points="427.3645,-85.0053 417.3645,-88.5052 427.3645,-92.0053 427.3645,-85.0053"/>
</g>
<!-- Node36&#45;&gt;Node31 -->
<g id="edge12" class="edge">
<title>Node36&#45;&gt;Node31</title>
<path fill="none" stroke="#191970" d="M160.3216,-44.3311C175.9534,-49.4299 193.6258,-55.1943 208.1115,-59.9193"/>
<polygon fill="#191970" stroke="#191970" points="160.9903,-40.8678 150.3979,-41.0942 158.8195,-47.5227 160.9903,-40.8678"/>
</g>
<!-- Node36&#45;&gt;Node32 -->
<g id="edge13" class="edge">
<title>Node36&#45;&gt;Node32</title>
<path fill="none" stroke="#191970" d="M150.2844,-17.9803C162.5805,-13.0056 177.2067,-7.9841 191,-5.5052 231.6816,1.8059 243.3263,1.8496 284,-5.5052 362.7543,-19.7459 449.9871,-60.2586 487.3546,-78.9019"/>
<polygon fill="#191970" stroke="#191970" points="148.8322,-14.7942 140.9831,-21.9105 151.5568,-21.2422 148.8322,-14.7942"/>
</g>
<!-- Node36&#45;&gt;Node34 -->
<g id="edge14" class="edge">
<title>Node36&#45;&gt;Node34</title>
<path fill="none" stroke="#191970" d="M159.2947,-19.2542C193.1166,-10.5043 243.2486,-2.6575 284,-17.5052 317.8465,-29.8371 347.5524,-62.3473 360.9455,-78.7482"/>
<polygon fill="#191970" stroke="#191970" points="158.0724,-15.9599 149.3503,-21.9745 159.9195,-22.7118 158.0724,-15.9599"/>
</g>
<!-- Node36&#45;&gt;Node35 -->
<g id="edge15" class="edge">
<title>Node36&#45;&gt;Node35</title>
<path fill="none" stroke="#191970" d="M165.6663,-26.7527C200.4937,-25.2691 248.7101,-28.2936 284,-50.5052 309.3582,-66.4658 296.8994,-88.4228 320,-107.5052 327.9482,-114.0708 338.4352,-118.5567 347.6238,-121.5131"/>
<polygon fill="#191970" stroke="#191970" points="165.1017,-23.279 155.3167,-27.3416 165.4994,-30.2677 165.1017,-23.279"/>
</g>
<!-- Node37&#45;&gt;Node32 -->
<g id="edge17" class="edge">
<title>Node37&#45;&gt;Node32</title>
<path fill="none" stroke="#191970" d="M294.4551,-224.3727C331.5309,-223.8091 379.7435,-218.3201 417,-197.5052 459.8685,-173.5549 490.2859,-120.0188 501.3772,-98.1205"/>
<polygon fill="#191970" stroke="#191970" points="294.2987,-220.8732 284.3115,-224.4097 294.3243,-227.8731 294.2987,-220.8732"/>
</g>
</g>
</svg>
