<?xml version="1.0" encoding="UTF-8" standalone="no"?>
<!DOCTYPE svg PUBLIC "-//W3C//DTD SVG 1.1//EN"
 "http://www.w3.org/Graphics/SVG/1.1/DTD/svg11.dtd">
<!-- Generated by graphviz version 2.40.1 (20161225.0304)
 -->
<!-- Title: semOp Pages: 1 -->
<!--zoomable 208 -->
<svg id="main" version="1.1" xmlns="http://www.w3.org/2000/svg" xmlns:xlink="http://www.w3.org/1999/xlink" xml:space="preserve" onload="init(evt)">
<style type="text/css"><![CDATA[
.edge:hover path { stroke: red; }
.edge:hover polygon { stroke: red; fill: red; }
]]></style>
<script type="text/javascript"><![CDATA[
var edges = document.getElementsByTagName('g');
if (edges && edges.length) {
  for (var i=0;i<edges.length;i++) {
    if (edges[i].id.substr(0,4)=='edge') {
      edges[i].setAttribute('class','edge');
    }
  }
}
]]></script>
        <defs>
                <circle id="rim" cx="0" cy="0" r="7"/>
                <circle id="rim2" cx="0" cy="0" r="3.5"/>
                <g id="zoomPlus">
                        <use xlink:href="#rim" fill="#404040">
                                <set attributeName="fill" to="#808080" begin="zoomplus.mouseover" end="zoomplus.mouseout"/>
                        </use>
                        <path d="M-4,0h8M0,-4v8" fill="none" stroke="white" stroke-width="1.5" pointer-events="none"/>
                </g>
                <g id="zoomMin">
                        <use xlink:href="#rim" fill="#404040">
                                <set attributeName="fill" to="#808080" begin="zoomminus.mouseover" end="zoomminus.mouseout"/>
                        </use>
                        <path d="M-4,0h8" fill="none" stroke="white" stroke-width="1.5" pointer-events="none"/>
                </g>
                <g id="dirArrow">
                        <path fill="none" stroke="white" stroke-width="1.5" d="M0,-3.0v7 M-2.5,-0.5L0,-3.0L2.5,-0.5"/>
                </g>
               <g id="resetDef">
                       <use xlink:href="#rim2" fill="#404040">
                               <set attributeName="fill" to="#808080" begin="reset.mouseover" end="reset.mouseout"/>
                       </use>
               </g>
        </defs>

<script type="text/javascript">
var viewWidth = 552;
var viewHeight = 208;
var sectionId = 'dynsection-10';
</script>
<script xlink:href="svgpan.js"/>
<svg id="graph" class="graph">
<g id="viewport">
<title>semOp</title>
<!-- Node22 -->
<g id="node1" class="node">
<title>Node22</title>
<polygon fill="#bfbfbf" stroke="#000000" points="0,-85.5 0,-104.5 51,-104.5 51,-85.5 0,-85.5"/>
<text text-anchor="middle" x="25.5" y="-92.5" font-family="Helvetica,sans-Serif" font-size="10.00" fill="#000000">semOp</text>
</g>
<!-- Node23 -->
<g id="node2" class="node">
<title>Node23</title>
<g id="a_node2"><a xlink:href="semaphore_8h.html#a2581efba6a0833e3f289de94c779cc21" target="_top" xlink:title="Esegue la wait sul semaforo sem_num: decrementa il valore di 1 ed eventualmente mette in attesa il pr...">
<polygon fill="none" stroke="#000000" points="104,-66.5 104,-85.5 163,-85.5 163,-66.5 104,-66.5"/>
<text text-anchor="middle" x="133.5" y="-73.5" font-family="Helvetica,sans-Serif" font-size="10.00" fill="#000000">semWait</text>
</a>
</g>
</g>
<!-- Node22&#45;&gt;Node23 -->
<g id="edge1" class="edge">
<title>Node22&#45;&gt;Node23</title>
<path fill="none" stroke="#191970" d="M61.2432,-88.7118C75.0682,-86.2797 90.7026,-83.5292 103.8836,-81.2103"/>
<polygon fill="#191970" stroke="#191970" points="60.3368,-85.3175 51.0945,-90.4973 61.5497,-92.2116 60.3368,-85.3175"/>
</g>
<!-- Node24 -->
<g id="node3" class="node">
<title>Node24</title>
<g id="a_node3"><a xlink:href="semaphore_8h.html#a40485eedbf6d56f7fd27bce5a537efbe" target="_top" xlink:title="Attende che il semaforo sem_num raggiunga il valore zero. ">
<polygon fill="none" stroke="#000000" points="223.5,-.5 223.5,-19.5 305.5,-19.5 305.5,-.5 223.5,-.5"/>
<text text-anchor="middle" x="264.5" y="-7.5" font-family="Helvetica,sans-Serif" font-size="10.00" fill="#000000">semWaitZero</text>
</a>
</g>
</g>
<!-- Node22&#45;&gt;Node24 -->
<g id="edge15" class="edge">
<title>Node22&#45;&gt;Node24</title>
<path fill="none" stroke="#191970" d="M46.9852,-79.546C58.4231,-71.8926 72.9895,-63.0255 87,-57 131.8054,-37.7305 186.4561,-24.706 223.1797,-17.3447"/>
<polygon fill="#191970" stroke="#191970" points="44.8086,-76.7951 38.5534,-85.3463 48.7759,-82.5623 44.8086,-76.7951"/>
</g>
<!-- Node29 -->
<g id="node8" class="node">
<title>Node29</title>
<g id="a_node8"><a xlink:href="semaphore_8h.html#a7bad0eb0b0c6ac701b59c36b8b7837bf" target="_top" xlink:title="Esegue la signal sul semaforo sem_num: incrementa il valore di 1. ">
<polygon fill="none" stroke="#000000" points="99.5,-104.5 99.5,-123.5 167.5,-123.5 167.5,-104.5 99.5,-104.5"/>
<text text-anchor="middle" x="133.5" y="-111.5" font-family="Helvetica,sans-Serif" font-size="10.00" fill="#000000">semSignal</text>
</a>
</g>
</g>
<!-- Node22&#45;&gt;Node29 -->
<g id="edge8" class="edge">
<title>Node22&#45;&gt;Node29</title>
<path fill="none" stroke="#191970" d="M60.9809,-101.242C73.2336,-103.3976 86.9337,-105.8078 99.0985,-107.9479"/>
<polygon fill="#191970" stroke="#191970" points="61.5497,-97.7884 51.0945,-99.5027 60.3368,-104.6825 61.5497,-97.7884"/>
</g>
<!-- Node30 -->
<g id="node9" class="node">
<title>Node30</title>
<g id="a_node9"><a xlink:href="semaphore_8h.html#afee4d9b0eb613bf632622e9244204d51" target="_top" xlink:title="Ottiene un insieme di semafori gia&#39; creato. ">
<polygon fill="none" stroke="#000000" points="87,-180.5 87,-199.5 180,-199.5 180,-180.5 87,-180.5"/>
<text text-anchor="middle" x="133.5" y="-187.5" font-family="Helvetica,sans-Serif" font-size="10.00" fill="#000000">getSemaphores</text>
</a>
</g>
</g>
<!-- Node22&#45;&gt;Node30 -->
<g id="edge13" class="edge">
<title>Node22&#45;&gt;Node30</title>
<path fill="none" stroke="#191970" d="M44.2648,-111.5061C66.8995,-131.4162 104.1934,-164.2211 122.5704,-180.386"/>
<polygon fill="#191970" stroke="#191970" points="46.4713,-108.7856 36.6511,-104.8089 41.848,-114.0416 46.4713,-108.7856"/>
</g>
<!-- Node23&#45;&gt;Node24 -->
<g id="edge2" class="edge">
<title>Node23&#45;&gt;Node24</title>
<path fill="none" stroke="#191970" d="M161.449,-61.6719C177.4066,-53.5162 197.8001,-43.1354 216,-34 225.5718,-29.1955 236.2364,-23.9107 245.1224,-19.5261"/>
<polygon fill="#191970" stroke="#191970" points="159.4542,-58.761 152.1457,-66.4314 162.6424,-64.9928 159.4542,-58.761"/>
</g>
<!-- Node25 -->
<g id="node4" class="node">
<title>Node25</title>
<g id="a_node4"><a xlink:href="client_8h.html#a48d605ff689f470746c858648f0a98c2" target="_top" xlink:title="Handler del segnale SIGINT. ">
<polygon fill="none" stroke="#000000" points="349,-114.5 349,-133.5 467,-133.5 467,-114.5 349,-114.5"/>
<text text-anchor="middle" x="408" y="-121.5" font-family="Helvetica,sans-Serif" font-size="10.00" fill="#000000">SIGINTSignalHandler</text>
</a>
</g>
</g>
<!-- Node23&#45;&gt;Node25 -->
<g id="edge3" class="edge">
<title>Node23&#45;&gt;Node25</title>
<path fill="none" stroke="#191970" d="M172.9052,-66.9852C209.807,-60.1791 266.1364,-54.0195 313,-67 346.365,-76.2416 379.777,-100.6671 396.6748,-114.3553"/>
<polygon fill="#191970" stroke="#191970" points="172.183,-63.5601 163.0362,-68.9067 173.5208,-70.431 172.183,-63.5601"/>
</g>
<!-- Node27 -->
<g id="node6" class="node">
<title>Node27</title>
<g id="a_node6"><a xlink:href="client_8h.html#a54b47b58f228d7bc9827d2919687e25a" target="_top" xlink:title="Funzione eseguita da ogni Client i (figli di Client 0) per mandare i file al server. ">
<polygon fill="none" stroke="#000000" points="216,-76.5 216,-95.5 313,-95.5 313,-76.5 216,-76.5"/>
<text text-anchor="middle" x="264.5" y="-83.5" font-family="Helvetica,sans-Serif" font-size="10.00" fill="#000000">operazioni_figlio</text>
</a>
</g>
</g>
<!-- Node23&#45;&gt;Node27 -->
<g id="edge5" class="edge">
<title>Node23&#45;&gt;Node27</title>
<path fill="none" stroke="#191970" d="M173.5317,-79.0559C186.8961,-80.076 201.936,-81.2241 215.8804,-82.2886"/>
<polygon fill="#191970" stroke="#191970" points="173.4634,-75.5405 163.2259,-78.2692 172.9305,-82.5202 173.4634,-75.5405"/>
</g>
<!-- Node28 -->
<g id="node7" class="node">
<title>Node28</title>
<g id="a_node7"><a xlink:href="server_8c.html#a0ddf1224851353fc92bfbff6f499fa97" target="_top" xlink:title="main">
<polygon fill="none" stroke="#000000" points="244,-114.5 244,-133.5 285,-133.5 285,-114.5 244,-114.5"/>
<text text-anchor="middle" x="264.5" y="-121.5" font-family="Helvetica,sans-Serif" font-size="10.00" fill="#000000">main</text>
</a>
</g>
</g>
<!-- Node23&#45;&gt;Node28 -->
<g id="edge7" class="edge">
<title>Node23&#45;&gt;Node28</title>
<path fill="none" stroke="#191970" d="M169.1788,-89.0731C193.1697,-97.8637 223.9468,-109.1408 243.939,-116.4662"/>
<polygon fill="#191970" stroke="#191970" points="170.2887,-85.7523 159.695,-85.5982 167.8803,-92.325 170.2887,-85.7523"/>
</g>
<!-- Node26 -->
<g id="node5" class="node">
<title>Node26</title>
<g id="a_node5"><a xlink:href="client_8c.html#a0ddf1224851353fc92bfbff6f499fa97" target="_top" xlink:title="main">
<polygon fill="none" stroke="#000000" points="503,-114.5 503,-133.5 544,-133.5 544,-114.5 503,-114.5"/>
<text text-anchor="middle" x="523.5" y="-121.5" font-family="Helvetica,sans-Serif" font-size="10.00" fill="#000000">main</text>
</a>
</g>
</g>
<!-- Node25&#45;&gt;Node26 -->
<g id="edge4" class="edge">
<title>Node25&#45;&gt;Node26</title>
<path fill="none" stroke="#191970" d="M477.2973,-124C486.5856,-124 495.4584,-124 502.9009,-124"/>
<polygon fill="#191970" stroke="#191970" points="477.1034,-120.5001 467.1034,-124 477.1034,-127.5001 477.1034,-120.5001"/>
</g>
<!-- Node27&#45;&gt;Node25 -->
<g id="edge6" class="edge">
<title>Node27&#45;&gt;Node25</title>
<path fill="none" stroke="#191970" d="M310.4735,-98.1742C330.3164,-103.4287 353.1928,-109.4866 371.8005,-114.4141"/>
<polygon fill="#191970" stroke="#191970" points="311.2739,-94.7655 300.7111,-95.589 309.4819,-101.5323 311.2739,-94.7655"/>
</g>
<!-- Node29&#45;&gt;Node24 -->
<g id="edge9" class="edge">
<title>Node29&#45;&gt;Node24</title>
<path fill="none" stroke="#191970" d="M171.2324,-100.1314C174.2797,-98.5499 177.2429,-96.8386 180,-95 212.8929,-73.0656 243.5066,-36.8685 257.1054,-19.6623"/>
<polygon fill="#191970" stroke="#191970" points="169.5256,-97.0661 161.9601,-104.4832 172.4997,-103.4029 169.5256,-97.0661"/>
</g>
<!-- Node29&#45;&gt;Node25 -->
<g id="edge10" class="edge">
<title>Node29&#45;&gt;Node25</title>
<path fill="none" stroke="#191970" d="M163.8133,-127.4241C179.1295,-133.487 198.199,-139.9624 216,-143 269.3255,-152.0995 331.782,-142.1563 370.6262,-133.5755"/>
<polygon fill="#191970" stroke="#191970" points="164.9216,-124.0958 154.3413,-123.5398 162.2656,-130.5724 164.9216,-124.0958"/>
</g>
<!-- Node29&#45;&gt;Node27 -->
<g id="edge11" class="edge">
<title>Node29&#45;&gt;Node27</title>
<path fill="none" stroke="#191970" d="M177.635,-104.5666C191.1965,-101.6679 206.1302,-98.476 219.7336,-95.5684"/>
<polygon fill="#191970" stroke="#191970" points="176.6243,-101.2035 167.5767,-106.7164 178.0874,-108.0488 176.6243,-101.2035"/>
</g>
<!-- Node29&#45;&gt;Node28 -->
<g id="edge12" class="edge">
<title>Node29&#45;&gt;Node28</title>
<path fill="none" stroke="#191970" d="M177.8346,-117.3843C200.1038,-119.0843 226.0303,-121.0634 243.6827,-122.4109"/>
<polygon fill="#191970" stroke="#191970" points="177.8142,-113.8727 167.5767,-116.6013 177.2813,-120.8524 177.8142,-113.8727"/>
</g>
<!-- Node30&#45;&gt;Node25 -->
<g id="edge14" class="edge">
<title>Node30&#45;&gt;Node25</title>
<path fill="none" stroke="#191970" d="M190.2782,-182.3644C225.8581,-176.9691 272.4901,-168.7789 313,-158 337.8849,-151.3786 365.5151,-141.1507 384.5326,-133.6415"/>
<polygon fill="#191970" stroke="#191970" points="189.4578,-178.9478 180.0812,-183.8803 190.4872,-185.8717 189.4578,-178.9478"/>
</g>
</g>
</svg>
        <g id="navigator" transform="translate(0 0)" fill="#404254">
                <rect fill="#f2f5e9" fill-opacity="0.5" stroke="#606060" stroke-width=".5" x="0" y="0" width="60" height="60"/>
                <use id="zoomplus" xlink:href="#zoomPlus" x="17" y="9" onmousedown="handleZoom(evt,'in')"/>
                <use id="zoomminus" xlink:href="#zoomMin" x="42" y="9" onmousedown="handleZoom(evt,'out')"/>
                <use id="reset" xlink:href="#resetDef" x="30" y="36" onmousedown="handleReset()"/>
                <g id="arrowUp" xlink:href="#dirArrow" transform="translate(30 24)" onmousedown="handlePan(0,-1)">
                  <use xlink:href="#rim" fill="#404040">
                        <set attributeName="fill" to="#808080" begin="arrowUp.mouseover" end="arrowUp.mouseout"/>
                  </use>
                  <path fill="none" stroke="white" stroke-width="1.5" d="M0,-3.0v7 M-2.5,-0.5L0,-3.0L2.5,-0.5"/>
                </g>
                <g id="arrowRight" xlink:href="#dirArrow" transform="rotate(90) translate(36 -43)" onmousedown="handlePan(1,0)">
                  <use xlink:href="#rim" fill="#404040">
                        <set attributeName="fill" to="#808080" begin="arrowRight.mouseover" end="arrowRight.mouseout"/>
                  </use>
                  <path fill="none" stroke="white" stroke-width="1.5" d="M0,-3.0v7 M-2.5,-0.5L0,-3.0L2.5,-0.5"/>
                </g>
                <g id="arrowDown" xlink:href="#dirArrow" transform="rotate(180) translate(-30 -48)" onmousedown="handlePan(0,1)">
                  <use xlink:href="#rim" fill="#404040">
                        <set attributeName="fill" to="#808080" begin="arrowDown.mouseover" end="arrowDown.mouseout"/>
                  </use>
                  <path fill="none" stroke="white" stroke-width="1.5" d="M0,-3.0v7 M-2.5,-0.5L0,-3.0L2.5,-0.5"/>
                </g>
                <g id="arrowLeft" xlink:href="#dirArrow" transform="rotate(270) translate(-36 17)" onmousedown="handlePan(-1,0)">
                  <use xlink:href="#rim" fill="#404040">
                        <set attributeName="fill" to="#808080" begin="arrowLeft.mouseover" end="arrowLeft.mouseout"/>
                  </use>
                  <path fill="none" stroke="white" stroke-width="1.5" d="M0,-3.0v7 M-2.5,-0.5L0,-3.0L2.5,-0.5"/>
                </g>
        </g>
        <svg viewBox="0 0 15 15" width="100%" height="30px" preserveAspectRatio="xMaxYMin meet">
         <g id="arrow_out" transform="scale(0.3 0.3)">
          <a xlink:href="semaphore_8h_a77c6570406059144bb6a8ecf04f481da_icgraph_org.svg" target="_base">
           <rect id="button" ry="5" rx="5" y="6" x="6" height="38" width="38"
                fill="#f2f5e9" fill-opacity="0.5" stroke="#606060" stroke-width="1.0"/>
           <path id="arrow"
             d="M 11.500037,31.436501 C 11.940474,20.09759 22.043105,11.32322 32.158766,21.979434 L 37.068811,17.246167 C 37.068811,17.246167 37.088388,32 37.088388,32 L 22.160133,31.978069 C 22.160133,31.978069 26.997745,27.140456 26.997745,27.140456 C 18.528582,18.264221 13.291696,25.230495 11.500037,31.436501 z"
             style="fill:#404040;"/>
          </a>
         </g>
        </svg>
</svg>
