<?xml version="1.0" encoding="UTF-8" standalone="no"?>
<!DOCTYPE svg PUBLIC "-//W3C//DTD SVG 1.1//EN"
 "http://www.w3.org/Graphics/SVG/1.1/DTD/svg11.dtd">
<!-- Generated by graphviz version 2.40.1 (20161225.0304)
 -->
<!-- Title: main Pages: 1 -->
<svg width="339pt" height="66pt"
 viewBox="0.00 0.00 339.00 66.00" xmlns="http://www.w3.org/2000/svg" xmlns:xlink="http://www.w3.org/1999/xlink">
<g id="graph0" class="graph" transform="scale(1 1) rotate(0) translate(4 62)">
<title>main</title>
<!-- Node0 -->
<g id="node1" class="node">
<title>Node0</title>
<polygon fill="#bfbfbf" stroke="#000000" points="0,-19.5 0,-38.5 41,-38.5 41,-19.5 0,-19.5"/>
<text text-anchor="middle" x="20.5" y="-26.5" font-family="Helvetica,sans-Serif" font-size="10.00" fill="#000000">main</text>
</g>
<!-- Node1 -->
<g id="node2" class="node">
<title>Node1</title>
<g id="a_node2"><a xlink:href="err__exit_8c.html#aa223b0ecfe538d130ece562646a37d27" target="_top" xlink:title="Prints the error message of the last failed system call and terminates the calling process...">
<polygon fill="none" stroke="#000000" points="111.5,-38.5 111.5,-57.5 160.5,-57.5 160.5,-38.5 111.5,-38.5"/>
<text text-anchor="middle" x="136" y="-45.5" font-family="Helvetica,sans-Serif" font-size="10.00" fill="#000000">ErrExit</text>
</a>
</g>
</g>
<!-- Node0&#45;&gt;Node1 -->
<g id="edge1" class="edge">
<title>Node0&#45;&gt;Node1</title>
<path fill="none" stroke="#191970" d="M41.1491,-32.3968C57.7595,-35.1293 81.4713,-39.0299 101.031,-42.2475"/>
<polygon fill="#191970" stroke="#191970" points="100.6737,-45.7357 111.1093,-43.9054 101.81,-38.8285 100.6737,-45.7357"/>
</g>
<!-- Node2 -->
<g id="node3" class="node">
<title>Node2</title>
<g id="a_node3"><a xlink:href="server_8c.html#a48d605ff689f470746c858648f0a98c2" target="_top" xlink:title="Chiude tutte le IPC e termina. ">
<polygon fill="none" stroke="#000000" points="77,-.5 77,-19.5 195,-19.5 195,-.5 77,-.5"/>
<text text-anchor="middle" x="136" y="-7.5" font-family="Helvetica,sans-Serif" font-size="10.00" fill="#000000">SIGINTSignalHandler</text>
</a>
</g>
</g>
<!-- Node0&#45;&gt;Node2 -->
<g id="edge2" class="edge">
<title>Node0&#45;&gt;Node2</title>
<path fill="none" stroke="#191970" d="M41.1491,-25.6032C48.8544,-24.3356 58.0877,-22.8167 67.7259,-21.2312"/>
<polygon fill="#191970" stroke="#191970" points="68.5701,-24.6395 77.8693,-19.5626 67.4338,-17.7323 68.5701,-24.6395"/>
</g>
<!-- Node3 -->
<g id="node4" class="node">
<title>Node3</title>
<g id="a_node4"><a xlink:href="signals_8c.html#a6e96709c7c3ecbcde283f4a2a09e4baf" target="_top" xlink:title="block_all_signals">
<polygon fill="none" stroke="#000000" points="231,-.5 231,-19.5 331,-19.5 331,-.5 231,-.5"/>
<text text-anchor="middle" x="281" y="-7.5" font-family="Helvetica,sans-Serif" font-size="10.00" fill="#000000">block_all_signals</text>
</a>
</g>
</g>
<!-- Node2&#45;&gt;Node3 -->
<g id="edge3" class="edge">
<title>Node2&#45;&gt;Node3</title>
<path fill="none" stroke="#191970" d="M195.3954,-10C203.7358,-10 212.3156,-10 220.6731,-10"/>
<polygon fill="#191970" stroke="#191970" points="220.7264,-13.5001 230.7263,-10 220.7263,-6.5001 220.7264,-13.5001"/>
</g>
</g>
</svg>
