<?xml version="1.0" encoding="UTF-8" standalone="no"?>
<!DOCTYPE svg PUBLIC "-//W3C//DTD SVG 1.1//EN"
 "http://www.w3.org/Graphics/SVG/1.1/DTD/svg11.dtd">
<!-- Generated by graphviz version 2.40.1 (20161225.0304)
 -->
<!-- Title: /mnt/c/Users/stefa/Desktop/progetti/system_call/src/server.c Pages: 1 -->
<!--zoomable 218 -->
<svg id="main" version="1.1" xmlns="http://www.w3.org/2000/svg" xmlns:xlink="http://www.w3.org/1999/xlink" xml:space="preserve" onload="init(evt)">
<style type="text/css"><![CDATA[
.edge:hover path { stroke: red; }
.edge:hover polygon { stroke: red; fill: red; }
]]></style>
<script type="text/javascript"><![CDATA[
var edges = document.getElementsByTagName('g');
if (edges && edges.length) {
  for (var i=0;i<edges.length;i++) {
    if (edges[i].id.substr(0,4)=='edge') {
      edges[i].setAttribute('class','edge');
    }
  }
}
]]></script>
        <defs>
                <circle id="rim" cx="0" cy="0" r="7"/>
                <circle id="rim2" cx="0" cy="0" r="3.5"/>
                <g id="zoomPlus">
                        <use xlink:href="#rim" fill="#404040">
                                <set attributeName="fill" to="#808080" begin="zoomplus.mouseover" end="zoomplus.mouseout"/>
                        </use>
                        <path d="M-4,0h8M0,-4v8" fill="none" stroke="white" stroke-width="1.5" pointer-events="none"/>
                </g>
                <g id="zoomMin">
                        <use xlink:href="#rim" fill="#404040">
                                <set attributeName="fill" to="#808080" begin="zoomminus.mouseover" end="zoomminus.mouseout"/>
                        </use>
                        <path d="M-4,0h8" fill="none" stroke="white" stroke-width="1.5" pointer-events="none"/>
                </g>
                <g id="dirArrow">
                        <path fill="none" stroke="white" stroke-width="1.5" d="M0,-3.0v7 M-2.5,-0.5L0,-3.0L2.5,-0.5"/>
                </g>
               <g id="resetDef">
                       <use xlink:href="#rim2" fill="#404040">
                               <set attributeName="fill" to="#808080" begin="reset.mouseover" end="reset.mouseout"/>
                       </use>
               </g>
        </defs>

<script type="text/javascript">
var viewWidth = 1265;
var viewHeight = 218;
var sectionId = 'dynsection-0';
</script>
<script xlink:href="svgpan.js"/>
<svg id="graph" class="graph">
<g id="viewport">
<title>/mnt/c/Users/stefa/Desktop/progetti/system_call/src/server.c</title>
<!-- Node0 -->
<g id="node1" class="node">
<title>Node0</title>
<polygon fill="#bfbfbf" stroke="#000000" points="572.5,-168.5 572.5,-209.5 712.5,-209.5 712.5,-168.5 572.5,-168.5"/>
<text text-anchor="start" x="580.5" y="-197.5" font-family="Helvetica,sans-Serif" font-size="10.00" fill="#000000">/mnt/c/Users/stefa</text>
<text text-anchor="start" x="580.5" y="-186.5" font-family="Helvetica,sans-Serif" font-size="10.00" fill="#000000">/Desktop/progetti/system</text>
<text text-anchor="middle" x="642.5" y="-175.5" font-family="Helvetica,sans-Serif" font-size="10.00" fill="#000000">_call/src/server.c</text>
</g>
<!-- Node1 -->
<g id="node2" class="node">
<title>Node1</title>
<polygon fill="none" stroke="#bfbfbf" points="0,-112.5 0,-131.5 55,-131.5 55,-112.5 0,-112.5"/>
<text text-anchor="middle" x="27.5" y="-119.5" font-family="Helvetica,sans-Serif" font-size="10.00" fill="#000000">signal.h</text>
</g>
<!-- Node0&#45;&gt;Node1 -->
<g id="edge1" class="edge">
<title>Node0&#45;&gt;Node1</title>
<path fill="none" stroke="#191970" d="M572.4165,-185.0773C464.0219,-178.3253 249.4241,-162.2274 69.5,-132 68.211,-131.7835 66.9028,-131.55 65.5839,-131.303"/>
<polygon fill="#191970" stroke="#191970" points="65.9087,-127.7961 55.407,-129.198 64.4908,-134.651 65.9087,-127.7961"/>
</g>
<!-- Node2 -->
<g id="node3" class="node">
<title>Node2</title>
<polygon fill="none" stroke="#bfbfbf" points="309.5,-56.5 309.5,-75.5 359.5,-75.5 359.5,-56.5 309.5,-56.5"/>
<text text-anchor="middle" x="334.5" y="-63.5" font-family="Helvetica,sans-Serif" font-size="10.00" fill="#000000">stdio.h</text>
</g>
<!-- Node0&#45;&gt;Node2 -->
<g id="edge2" class="edge">
<title>Node0&#45;&gt;Node2</title>
<path fill="none" stroke="#191970" d="M572.0746,-184.6749C456.2059,-176.8342 235.7938,-158.5854 212.5,-132 184.3054,-99.8214 254.002,-80.519 299.2981,-71.7188"/>
<polygon fill="#191970" stroke="#191970" points="300.1852,-75.1142 309.3811,-69.8524 298.911,-68.2311 300.1852,-75.1142"/>
</g>
<!-- Node3 -->
<g id="node4" class="node">
<title>Node3</title>
<polygon fill="none" stroke="#bfbfbf" points="112,-112.5 112,-131.5 165,-131.5 165,-112.5 112,-112.5"/>
<text text-anchor="middle" x="138.5" y="-119.5" font-family="Helvetica,sans-Serif" font-size="10.00" fill="#000000">string.h</text>
</g>
<!-- Node0&#45;&gt;Node3 -->
<g id="edge3" class="edge">
<title>Node0&#45;&gt;Node3</title>
<path fill="none" stroke="#191970" d="M572.3031,-182.9313C481.2564,-174.4724 317.7236,-157.2757 179.5,-132 178.0586,-131.7364 176.5921,-131.453 175.1133,-131.1544"/>
<polygon fill="#191970" stroke="#191970" points="175.8264,-127.7277 165.31,-129.0141 174.3333,-134.5666 175.8264,-127.7277"/>
</g>
<!-- Node4 -->
<g id="node5" class="node">
<title>Node4</title>
<polygon fill="none" stroke="#bfbfbf" points="449,-56.5 449,-75.5 502,-75.5 502,-56.5 449,-56.5"/>
<text text-anchor="middle" x="475.5" y="-63.5" font-family="Helvetica,sans-Serif" font-size="10.00" fill="#000000">stdlib.h</text>
</g>
<!-- Node0&#45;&gt;Node4 -->
<g id="edge4" class="edge">
<title>Node0&#45;&gt;Node4</title>
<path fill="none" stroke="#191970" d="M634.1492,-168.4171C626.235,-151.2267 612.8285,-127.1615 594.5,-112 570.6495,-92.2706 537.3775,-80.3736 512.0773,-73.637"/>
<polygon fill="#191970" stroke="#191970" points="512.6705,-70.1775 502.1194,-71.1395 510.9675,-76.9672 512.6705,-70.1775"/>
</g>
<!-- Node5 -->
<g id="node6" class="node">
<title>Node5</title>
<polygon fill="none" stroke="#bfbfbf" points="221.5,-112.5 221.5,-131.5 277.5,-131.5 277.5,-112.5 221.5,-112.5"/>
<text text-anchor="middle" x="249.5" y="-119.5" font-family="Helvetica,sans-Serif" font-size="10.00" fill="#000000">unistd.h</text>
</g>
<!-- Node0&#45;&gt;Node5 -->
<g id="edge5" class="edge">
<title>Node0&#45;&gt;Node5</title>
<path fill="none" stroke="#191970" d="M572.1813,-179.9661C502.3301,-170.4887 392.0365,-154.169 287.7764,-132.1048"/>
<polygon fill="#191970" stroke="#191970" points="288.218,-128.6201 277.7072,-129.9516 286.7542,-135.4654 288.218,-128.6201"/>
</g>
<!-- Node6 -->
<g id="node7" class="node">
<title>Node6</title>
<polygon fill="none" stroke="#bfbfbf" points="295.5,-112.5 295.5,-131.5 359.5,-131.5 359.5,-112.5 295.5,-112.5"/>
<text text-anchor="middle" x="327.5" y="-119.5" font-family="Helvetica,sans-Serif" font-size="10.00" fill="#000000">sys/stat.h</text>
</g>
<!-- Node0&#45;&gt;Node6 -->
<g id="edge6" class="edge">
<title>Node0&#45;&gt;Node6</title>
<path fill="none" stroke="#191970" d="M572.2494,-175.0726C519.1947,-164.3958 444.3417,-148.9964 369.7482,-132.2309"/>
<polygon fill="#191970" stroke="#191970" points="370.2297,-128.7516 359.7045,-129.9647 368.6889,-135.5799 370.2297,-128.7516"/>
</g>
<!-- Node7 -->
<g id="node8" class="node">
<title>Node7</title>
<polygon fill="none" stroke="#bfbfbf" points="385.5,-.5 385.5,-19.5 447.5,-19.5 447.5,-.5 385.5,-.5"/>
<text text-anchor="middle" x="416.5" y="-7.5" font-family="Helvetica,sans-Serif" font-size="10.00" fill="#000000">stdbool.h</text>
</g>
<!-- Node0&#45;&gt;Node7 -->
<g id="edge7" class="edge">
<title>Node0&#45;&gt;Node7</title>
<path fill="none" stroke="#191970" d="M572.2416,-186.7226C433.1404,-181.4874 133.3816,-166.3129 102.5,-132 22.1225,-42.6917 272.9801,-18.1541 375.1951,-11.9457"/>
<polygon fill="#191970" stroke="#191970" points="375.3993,-15.4398 385.1809,-11.369 374.9957,-8.4514 375.3993,-15.4398"/>
</g>
<!-- Node8 -->
<g id="node9" class="node">
<title>Node8</title>
<polygon fill="none" stroke="#bfbfbf" points="452,-112.5 452,-131.5 517,-131.5 517,-112.5 452,-112.5"/>
<text text-anchor="middle" x="484.5" y="-119.5" font-family="Helvetica,sans-Serif" font-size="10.00" fill="#000000">inttypes.h</text>
</g>
<!-- Node0&#45;&gt;Node8 -->
<g id="edge8" class="edge">
<title>Node0&#45;&gt;Node8</title>
<path fill="none" stroke="#191970" d="M593.8056,-168.3511C568.6887,-157.7003 538.7545,-145.0066 516.5677,-135.5983"/>
<polygon fill="#191970" stroke="#191970" points="517.8405,-132.3364 507.2677,-131.6546 515.1077,-138.781 517.8405,-132.3364"/>
</g>
<!-- Node9 -->
<g id="node10" class="node">
<title>Node9</title>
<polygon fill="none" stroke="#bfbfbf" points="535,-112.5 535,-131.5 586,-131.5 586,-112.5 535,-112.5"/>
<text text-anchor="middle" x="560.5" y="-119.5" font-family="Helvetica,sans-Serif" font-size="10.00" fill="#000000">errno.h</text>
</g>
<!-- Node0&#45;&gt;Node9 -->
<g id="edge9" class="edge">
<title>Node0&#45;&gt;Node9</title>
<path fill="none" stroke="#191970" d="M617.0042,-168.168C605.1654,-158.4949 591.3041,-147.1692 580.2733,-138.1562"/>
<polygon fill="#191970" stroke="#191970" points="582.4285,-135.3974 572.4701,-131.7805 577.9994,-140.8181 582.4285,-135.3974"/>
</g>
<!-- Node10 -->
<g id="node11" class="node">
<title>Node10</title>
<polygon fill="none" stroke="#bfbfbf" points="965.5,-56.5 965.5,-75.5 1031.5,-75.5 1031.5,-56.5 965.5,-56.5"/>
<text text-anchor="middle" x="998.5" y="-63.5" font-family="Helvetica,sans-Serif" font-size="10.00" fill="#000000">sys/msg.h</text>
</g>
<!-- Node0&#45;&gt;Node10 -->
<g id="edge10" class="edge">
<title>Node0&#45;&gt;Node10</title>
<path fill="none" stroke="#191970" d="M712.6144,-175.8585C758.3728,-166.2196 818.959,-151.431 870.5,-132 908.0482,-117.8443 948.8261,-95.4967 974.0258,-80.7928"/>
<polygon fill="#191970" stroke="#191970" points="976.0498,-83.6624 982.8818,-75.5646 972.4911,-77.6344 976.0498,-83.6624"/>
</g>
<!-- Node11 -->
<g id="node12" class="node">
<title>Node11</title>
<polygon fill="none" stroke="#bfbfbf" points="1152.5,-.5 1152.5,-19.5 1224.5,-19.5 1224.5,-.5 1152.5,-.5"/>
<text text-anchor="middle" x="1188.5" y="-7.5" font-family="Helvetica,sans-Serif" font-size="10.00" fill="#000000">sys/types.h</text>
</g>
<!-- Node0&#45;&gt;Node11 -->
<g id="edge11" class="edge">
<title>Node0&#45;&gt;Node11</title>
<path fill="none" stroke="#191970" d="M712.7713,-186.2357C859.2847,-179.8908 1187.1909,-162.4399 1227.5,-132 1255.5619,-110.8087 1265.1849,-87.4727 1249.5,-56 1242.8997,-42.756 1230.4673,-32.3192 1218.5395,-24.7581"/>
<polygon fill="#191970" stroke="#191970" points="1220.0199,-21.5691 1209.6216,-19.5378 1216.4835,-27.6102 1220.0199,-21.5691"/>
</g>
<!-- Node12 -->
<g id="node13" class="node">
<title>Node12</title>
<polygon fill="none" stroke="#bfbfbf" points="717,-112.5 717,-131.5 764,-131.5 764,-112.5 717,-112.5"/>
<text text-anchor="middle" x="740.5" y="-119.5" font-family="Helvetica,sans-Serif" font-size="10.00" fill="#000000">fcntl.h</text>
</g>
<!-- Node0&#45;&gt;Node12 -->
<g id="edge12" class="edge">
<title>Node0&#45;&gt;Node12</title>
<path fill="none" stroke="#191970" d="M672.7029,-168.3511C687.2338,-158.4167 704.3642,-146.7051 717.7701,-137.5398"/>
<polygon fill="#191970" stroke="#191970" points="720.0985,-140.1878 726.3783,-131.6546 716.1478,-134.4092 720.0985,-140.1878"/>
</g>
<!-- Node13 -->
<g id="node14" class="node">
<title>Node13</title>
<g id="a_node14"><a xlink:href="err__exit_8h.html" target="_top" xlink:title="Contiene la definizione della funzione di stampa degli errori. ">
<polygon fill="none" stroke="#000000" points="782,-112.5 782,-131.5 845,-131.5 845,-112.5 782,-112.5"/>
<text text-anchor="middle" x="813.5" y="-119.5" font-family="Helvetica,sans-Serif" font-size="10.00" fill="#000000">err_exit.h</text>
</a>
</g>
</g>
<!-- Node0&#45;&gt;Node13 -->
<g id="edge13" class="edge">
<title>Node0&#45;&gt;Node13</title>
<path fill="none" stroke="#191970" d="M695.2009,-168.3511C722.6282,-157.6047 755.3631,-144.7788 779.4379,-135.346"/>
<polygon fill="#191970" stroke="#191970" points="780.8251,-138.5616 788.8591,-131.6546 778.2714,-132.044 780.8251,-138.5616"/>
</g>
<!-- Node14 -->
<g id="node15" class="node">
<title>Node14</title>
<g id="a_node15"><a xlink:href="defines_8h.html" target="_top" xlink:title="Contiene la definizioni di variabili e funzioni specifiche del progetto. ">
<polygon fill="none" stroke="#000000" points="719,-56.5 719,-75.5 780,-75.5 780,-56.5 719,-56.5"/>
<text text-anchor="middle" x="749.5" y="-63.5" font-family="Helvetica,sans-Serif" font-size="10.00" fill="#000000">defines.h</text>
</a>
</g>
</g>
<!-- Node0&#45;&gt;Node14 -->
<g id="edge14" class="edge">
<title>Node0&#45;&gt;Node14</title>
<path fill="none" stroke="#191970" d="M712.7158,-179.3058C767.1936,-170.1767 836.2562,-154.5203 853.5,-132 874.5043,-104.5687 827.5745,-85.4741 790.0916,-75.1193"/>
<polygon fill="#191970" stroke="#191970" points="790.8858,-71.7092 780.3246,-72.5529 789.1068,-78.4794 790.8858,-71.7092"/>
</g>
<!-- Node16 -->
<g id="node17" class="node">
<title>Node16</title>
<g id="a_node17"><a xlink:href="shared__memory_8h.html" target="_top" xlink:title="Contiene la definizioni di variabili e funzioni specifiche per la gestione della MEMORIA CONDIVISA...">
<polygon fill="none" stroke="#000000" points="1136.5,-56.5 1136.5,-75.5 1240.5,-75.5 1240.5,-56.5 1136.5,-56.5"/>
<text text-anchor="middle" x="1188.5" y="-63.5" font-family="Helvetica,sans-Serif" font-size="10.00" fill="#000000">shared_memory.h</text>
</a>
</g>
</g>
<!-- Node0&#45;&gt;Node16 -->
<g id="edge18" class="edge">
<title>Node0&#45;&gt;Node16</title>
<path fill="none" stroke="#191970" d="M712.6316,-187.1338C857.4005,-182.5559 1178.5903,-168.3712 1211.5,-132 1223.6356,-118.5879 1213.8407,-98.418 1203.5399,-83.9073"/>
<polygon fill="#191970" stroke="#191970" points="1206.1173,-81.5168 1197.2524,-75.7147 1200.5642,-85.7786 1206.1173,-81.5168"/>
</g>
<!-- Node17 -->
<g id="node18" class="node">
<title>Node17</title>
<g id="a_node18"><a xlink:href="semaphore_8h.html" target="_top" xlink:title="Contiene la definizioni di variabili e funzioni specifiche per la gestione dei SEMAFORI. ">
<polygon fill="none" stroke="#000000" points="939.5,-112.5 939.5,-131.5 1019.5,-131.5 1019.5,-112.5 939.5,-112.5"/>
<text text-anchor="middle" x="979.5" y="-119.5" font-family="Helvetica,sans-Serif" font-size="10.00" fill="#000000">semaphore.h</text>
</a>
</g>
</g>
<!-- Node0&#45;&gt;Node17 -->
<g id="edge20" class="edge">
<title>Node0&#45;&gt;Node17</title>
<path fill="none" stroke="#191970" d="M712.736,-175.0362C777.5189,-162.1565 872.0893,-143.3547 929.4977,-131.9411"/>
<polygon fill="#191970" stroke="#191970" points="930.2964,-135.3509 939.422,-129.968 928.9314,-128.4853 930.2964,-135.3509"/>
</g>
<!-- Node18 -->
<g id="node19" class="node">
<title>Node18</title>
<g id="a_node19"><a xlink:href="fifo_8h.html" target="_top" xlink:title="Contiene la definizioni di variabili e funzioni specifiche per la gestione delle FIFO. ">
<polygon fill="none" stroke="#000000" points="1038,-112.5 1038,-131.5 1079,-131.5 1079,-112.5 1038,-112.5"/>
<text text-anchor="middle" x="1058.5" y="-119.5" font-family="Helvetica,sans-Serif" font-size="10.00" fill="#000000">fifo.h</text>
</a>
</g>
</g>
<!-- Node0&#45;&gt;Node18 -->
<g id="edge21" class="edge">
<title>Node0&#45;&gt;Node18</title>
<path fill="none" stroke="#191970" d="M712.58,-182.3823C788.3334,-174.3916 912.5895,-158.855 1028.2478,-131.6857"/>
<polygon fill="#191970" stroke="#191970" points="1029.0641,-135.0893 1037.9805,-129.3667 1027.4415,-128.2799 1029.0641,-135.0893"/>
</g>
<!-- Node19 -->
<g id="node20" class="node">
<title>Node19</title>
<g id="a_node20"><a xlink:href="debug_8h.html" target="_top" xlink:title="Contiene la definizioni di variabili e funzioni per il debugging. ">
<polygon fill="none" stroke="#000000" points="377.5,-112.5 377.5,-131.5 433.5,-131.5 433.5,-112.5 377.5,-112.5"/>
<text text-anchor="middle" x="405.5" y="-119.5" font-family="Helvetica,sans-Serif" font-size="10.00" fill="#000000">debug.h</text>
</a>
</g>
</g>
<!-- Node0&#45;&gt;Node19 -->
<g id="edge22" class="edge">
<title>Node0&#45;&gt;Node19</title>
<path fill="none" stroke="#191970" d="M572.3541,-169.1697C530.1153,-157.2288 477.983,-142.491 443.3463,-132.6992"/>
<polygon fill="#191970" stroke="#191970" points="444.2019,-129.3039 433.6268,-129.9515 442.2976,-136.0399 444.2019,-129.3039"/>
</g>
<!-- Node20 -->
<g id="node21" class="node">
<title>Node20</title>
<g id="a_node21"><a xlink:href="message__queue_8h.html" target="_top" xlink:title="Contiene la definizioni di variabili e funzioni specifiche per la gestione delle CODE DEI MESSAGGI...">
<polygon fill="none" stroke="#000000" points="1097,-112.5 1097,-131.5 1202,-131.5 1202,-112.5 1097,-112.5"/>
<text text-anchor="middle" x="1149.5" y="-119.5" font-family="Helvetica,sans-Serif" font-size="10.00" fill="#000000">message_queue.h</text>
</a>
</g>
</g>
<!-- Node0&#45;&gt;Node20 -->
<g id="edge25" class="edge">
<title>Node0&#45;&gt;Node20</title>
<path fill="none" stroke="#191970" d="M712.515,-180.8286C798.3718,-170.6339 948.587,-152.2335 1087.0014,-132.1829"/>
<polygon fill="#191970" stroke="#191970" points="1087.5538,-135.6395 1096.9458,-130.7365 1086.5462,-128.7124 1087.5538,-135.6395"/>
</g>
<!-- Node21 -->
<g id="node22" class="node">
<title>Node21</title>
<g id="a_node22"><a xlink:href="server_8h.html" target="_top" xlink:title="Contiene la definizioni di variabili e funzioni specifiche del SERVER. ">
<polygon fill="none" stroke="#000000" points="642.5,-112.5 642.5,-131.5 698.5,-131.5 698.5,-112.5 642.5,-112.5"/>
<text text-anchor="middle" x="670.5" y="-119.5" font-family="Helvetica,sans-Serif" font-size="10.00" fill="#000000">server.h</text>
</a>
</g>
</g>
<!-- Node0&#45;&gt;Node21 -->
<g id="edge27" class="edge">
<title>Node0&#45;&gt;Node21</title>
<path fill="none" stroke="#191970" d="M651.2059,-168.168C654.8124,-159.5381 658.9687,-149.5928 662.4979,-141.1479"/>
<polygon fill="#191970" stroke="#191970" points="665.786,-142.3568 666.4126,-131.7805 659.3273,-139.6576 665.786,-142.3568"/>
</g>
<!-- Node14&#45;&gt;Node7 -->
<g id="edge15" class="edge">
<title>Node14&#45;&gt;Node7</title>
<path fill="none" stroke="#191970" d="M718.769,-60.832C658.5819,-50.7105 525.1571,-28.2727 457.5185,-16.898"/>
<polygon fill="#191970" stroke="#191970" points="458.0828,-13.4438 447.6408,-15.2369 456.9219,-20.3469 458.0828,-13.4438"/>
</g>
<!-- Node14&#45;&gt;Node11 -->
<g id="edge16" class="edge">
<title>Node14&#45;&gt;Node11</title>
<path fill="none" stroke="#191970" d="M780.0211,-62.1066C855.6782,-52.4556 1052.2503,-27.3804 1142.265,-15.8979"/>
<polygon fill="#191970" stroke="#191970" points="1142.9651,-19.337 1152.4418,-14.5997 1142.0793,-12.3933 1142.9651,-19.337"/>
</g>
<!-- Node15 -->
<g id="node16" class="node">
<title>Node15</title>
<polygon fill="none" stroke="#bfbfbf" points="720,-.5 720,-19.5 779,-19.5 779,-.5 720,-.5"/>
<text text-anchor="middle" x="749.5" y="-7.5" font-family="Helvetica,sans-Serif" font-size="10.00" fill="#000000">sys/ipc.h</text>
</g>
<!-- Node14&#45;&gt;Node15 -->
<g id="edge17" class="edge">
<title>Node14&#45;&gt;Node15</title>
<path fill="none" stroke="#191970" d="M749.5,-56.2455C749.5,-48.9382 749.5,-38.6944 749.5,-29.7046"/>
<polygon fill="#191970" stroke="#191970" points="753.0001,-29.6426 749.5,-19.6427 746.0001,-29.6427 753.0001,-29.6426"/>
</g>
<!-- Node16&#45;&gt;Node11 -->
<g id="edge19" class="edge">
<title>Node16&#45;&gt;Node11</title>
<path fill="none" stroke="#191970" d="M1188.5,-56.2455C1188.5,-48.9382 1188.5,-38.6944 1188.5,-29.7046"/>
<polygon fill="#191970" stroke="#191970" points="1192.0001,-29.6426 1188.5,-19.6427 1185.0001,-29.6427 1192.0001,-29.6426"/>
</g>
<!-- Node19&#45;&gt;Node2 -->
<g id="edge23" class="edge">
<title>Node19&#45;&gt;Node2</title>
<path fill="none" stroke="#191970" d="M393.1327,-112.2455C382.5446,-103.8943 367.0936,-91.7076 354.7107,-81.9408"/>
<polygon fill="#191970" stroke="#191970" points="356.7447,-79.0875 346.7255,-75.6427 352.4097,-84.5837 356.7447,-79.0875"/>
</g>
<!-- Node19&#45;&gt;Node4 -->
<g id="edge24" class="edge">
<title>Node19&#45;&gt;Node4</title>
<path fill="none" stroke="#191970" d="M417.6931,-112.2455C428.1321,-103.8943 443.3655,-91.7076 455.574,-81.9408"/>
<polygon fill="#191970" stroke="#191970" points="457.8244,-84.6227 463.4467,-75.6427 453.4515,-79.1566 457.8244,-84.6227"/>
</g>
<!-- Node20&#45;&gt;Node10 -->
<g id="edge26" class="edge">
<title>Node20&#45;&gt;Node10</title>
<path fill="none" stroke="#191970" d="M1123.5422,-112.3733C1098.7593,-103.1822 1061.2254,-89.2624 1033.746,-79.0713"/>
<polygon fill="#191970" stroke="#191970" points="1034.7121,-75.6968 1024.1191,-75.5011 1032.2781,-82.26 1034.7121,-75.6968"/>
</g>
<!-- Node21&#45;&gt;Node14 -->
<g id="edge28" class="edge">
<title>Node21&#45;&gt;Node14</title>
<path fill="none" stroke="#191970" d="M684.2607,-112.2455C696.1552,-103.814 713.565,-91.4729 727.4085,-81.6598"/>
<polygon fill="#191970" stroke="#191970" points="729.7628,-84.2811 735.8969,-75.6427 725.7146,-78.5704 729.7628,-84.2811"/>
</g>
</g>
</svg>
        <g id="navigator" transform="translate(0 0)" fill="#404254">
                <rect fill="#f2f5e9" fill-opacity="0.5" stroke="#606060" stroke-width=".5" x="0" y="0" width="60" height="60"/>
                <use id="zoomplus" xlink:href="#zoomPlus" x="17" y="9" onmousedown="handleZoom(evt,'in')"/>
                <use id="zoomminus" xlink:href="#zoomMin" x="42" y="9" onmousedown="handleZoom(evt,'out')"/>
                <use id="reset" xlink:href="#resetDef" x="30" y="36" onmousedown="handleReset()"/>
                <g id="arrowUp" xlink:href="#dirArrow" transform="translate(30 24)" onmousedown="handlePan(0,-1)">
                  <use xlink:href="#rim" fill="#404040">
                        <set attributeName="fill" to="#808080" begin="arrowUp.mouseover" end="arrowUp.mouseout"/>
                  </use>
                  <path fill="none" stroke="white" stroke-width="1.5" d="M0,-3.0v7 M-2.5,-0.5L0,-3.0L2.5,-0.5"/>
                </g>
                <g id="arrowRight" xlink:href="#dirArrow" transform="rotate(90) translate(36 -43)" onmousedown="handlePan(1,0)">
                  <use xlink:href="#rim" fill="#404040">
                        <set attributeName="fill" to="#808080" begin="arrowRight.mouseover" end="arrowRight.mouseout"/>
                  </use>
                  <path fill="none" stroke="white" stroke-width="1.5" d="M0,-3.0v7 M-2.5,-0.5L0,-3.0L2.5,-0.5"/>
                </g>
                <g id="arrowDown" xlink:href="#dirArrow" transform="rotate(180) translate(-30 -48)" onmousedown="handlePan(0,1)">
                  <use xlink:href="#rim" fill="#404040">
                        <set attributeName="fill" to="#808080" begin="arrowDown.mouseover" end="arrowDown.mouseout"/>
                  </use>
                  <path fill="none" stroke="white" stroke-width="1.5" d="M0,-3.0v7 M-2.5,-0.5L0,-3.0L2.5,-0.5"/>
                </g>
                <g id="arrowLeft" xlink:href="#dirArrow" transform="rotate(270) translate(-36 17)" onmousedown="handlePan(-1,0)">
                  <use xlink:href="#rim" fill="#404040">
                        <set attributeName="fill" to="#808080" begin="arrowLeft.mouseover" end="arrowLeft.mouseout"/>
                  </use>
                  <path fill="none" stroke="white" stroke-width="1.5" d="M0,-3.0v7 M-2.5,-0.5L0,-3.0L2.5,-0.5"/>
                </g>
        </g>
        <svg viewBox="0 0 15 15" width="100%" height="30px" preserveAspectRatio="xMaxYMin meet">
         <g id="arrow_out" transform="scale(0.3 0.3)">
          <a xlink:href="server_8c__incl_org.svg" target="_base">
           <rect id="button" ry="5" rx="5" y="6" x="6" height="38" width="38"
                fill="#f2f5e9" fill-opacity="0.5" stroke="#606060" stroke-width="1.0"/>
           <path id="arrow"
             d="M 11.500037,31.436501 C 11.940474,20.09759 22.043105,11.32322 32.158766,21.979434 L 37.068811,17.246167 C 37.068811,17.246167 37.088388,32 37.088388,32 L 22.160133,31.978069 C 22.160133,31.978069 26.997745,27.140456 26.997745,27.140456 C 18.528582,18.264221 13.291696,25.230495 11.500037,31.436501 z"
             style="fill:#404040;"/>
          </a>
         </g>
        </svg>
</svg>
