<?xml version="1.0" encoding="UTF-8" standalone="no"?>
<!DOCTYPE svg PUBLIC "-//W3C//DTD SVG 1.1//EN"
 "http://www.w3.org/Graphics/SVG/1.1/DTD/svg11.dtd">
<!-- Generated by graphviz version 2.40.1 (20161225.0304)
 -->
<!-- Title: SIGINTSignalHandler Pages: 1 -->
<!--zoomable 818 -->
<svg id="main" version="1.1" xmlns="http://www.w3.org/2000/svg" xmlns:xlink="http://www.w3.org/1999/xlink" xml:space="preserve" onload="init(evt)">
<style type="text/css"><![CDATA[
.edge:hover path { stroke: red; }
.edge:hover polygon { stroke: red; fill: red; }
]]></style>
<script type="text/javascript"><![CDATA[
var edges = document.getElementsByTagName('g');
if (edges && edges.length) {
  for (var i=0;i<edges.length;i++) {
    if (edges[i].id.substr(0,4)=='edge') {
      edges[i].setAttribute('class','edge');
    }
  }
}
]]></script>
        <defs>
                <circle id="rim" cx="0" cy="0" r="7"/>
                <circle id="rim2" cx="0" cy="0" r="3.5"/>
                <g id="zoomPlus">
                        <use xlink:href="#rim" fill="#404040">
                                <set attributeName="fill" to="#808080" begin="zoomplus.mouseover" end="zoomplus.mouseout"/>
                        </use>
                        <path d="M-4,0h8M0,-4v8" fill="none" stroke="white" stroke-width="1.5" pointer-events="none"/>
                </g>
                <g id="zoomMin">
                        <use xlink:href="#rim" fill="#404040">
                                <set attributeName="fill" to="#808080" begin="zoomminus.mouseover" end="zoomminus.mouseout"/>
                        </use>
                        <path d="M-4,0h8" fill="none" stroke="white" stroke-width="1.5" pointer-events="none"/>
                </g>
                <g id="dirArrow">
                        <path fill="none" stroke="white" stroke-width="1.5" d="M0,-3.0v7 M-2.5,-0.5L0,-3.0L2.5,-0.5"/>
                </g>
               <g id="resetDef">
                       <use xlink:href="#rim2" fill="#404040">
                               <set attributeName="fill" to="#808080" begin="reset.mouseover" end="reset.mouseout"/>
                       </use>
               </g>
        </defs>

<script type="text/javascript">
var viewWidth = 694;
var viewHeight = 818;
var sectionId = 'dynsection-4';
</script>
<script xlink:href="svgpan.js"/>
<svg id="graph" class="graph">
<g id="viewport">
<title>SIGINTSignalHandler</title>
<!-- Node46 -->
<g id="node1" class="node">
<title>Node46</title>
<polygon fill="#bfbfbf" stroke="#000000" points="0,-410 0,-429 118,-429 118,-410 0,-410"/>
<text text-anchor="middle" x="59" y="-417" font-family="Helvetica,sans-Serif" font-size="10.00" fill="#000000">SIGINTSignalHandler</text>
</g>
<!-- Node47 -->
<g id="node2" class="node">
<title>Node47</title>
<g id="a_node2"><a xlink:href="signals_8c.html#a6e96709c7c3ecbcde283f4a2a09e4baf" target="_top" xlink:title="block_all_signals">
<polygon fill="none" stroke="#000000" points="163,-790 163,-809 263,-809 263,-790 163,-790"/>
<text text-anchor="middle" x="213" y="-797" font-family="Helvetica,sans-Serif" font-size="10.00" fill="#000000">block_all_signals</text>
</a>
</g>
</g>
<!-- Node46&#45;&gt;Node47 -->
<g id="edge1" class="edge">
<title>Node46&#45;&gt;Node47</title>
<path fill="none" stroke="#191970" d="M60.38,-429.0438C67.9296,-480.0989 105.666,-720.6815 154,-775.5 157.3001,-779.2429 161.27,-782.4119 165.571,-785.0932"/>
<polygon fill="#191970" stroke="#191970" points="164.2782,-788.3683 174.7559,-789.9392 167.5447,-782.1772 164.2782,-788.3683"/>
</g>
<!-- Node48 -->
<g id="node3" class="node">
<title>Node48</title>
<g id="a_node3"><a xlink:href="shared__memory_8c.html#a660a60242a5174977ab2debcdbd0e587" target="_top" xlink:title="Ottiene l&#39;id o crea una memoria condivisa. ">
<polygon fill="none" stroke="#000000" points="469,-600 469,-619 594,-619 594,-600 469,-600"/>
<text text-anchor="middle" x="531.5" y="-607" font-family="Helvetica,sans-Serif" font-size="10.00" fill="#000000">alloc_shared_memory</text>
</a>
</g>
</g>
<!-- Node46&#45;&gt;Node48 -->
<g id="edge2" class="edge">
<title>Node46&#45;&gt;Node48</title>
<path fill="none" stroke="#191970" d="M63.0961,-429.192C73.9641,-453.6533 106.0198,-518.1673 154,-549.5 246.3141,-609.7842 377.8079,-617.0916 458.7434,-614.7943"/>
<polygon fill="#191970" stroke="#191970" points="458.9687,-618.2887 468.8437,-614.4502 458.7303,-611.2928 458.9687,-618.2887"/>
</g>
<!-- Node49 -->
<g id="node4" class="node">
<title>Node49</title>
<g id="a_node4"><a xlink:href="err__exit_8c.html#aa223b0ecfe538d130ece562646a37d27" target="_top" xlink:title="Prints the error message of the last failed system call and terminates the calling process...">
<polygon fill="none" stroke="#000000" points="637,-524 637,-543 686,-543 686,-524 637,-524"/>
<text text-anchor="middle" x="661.5" y="-531" font-family="Helvetica,sans-Serif" font-size="10.00" fill="#000000">ErrExit</text>
</a>
</g>
</g>
<!-- Node46&#45;&gt;Node49 -->
<g id="edge16" class="edge">
<title>Node46&#45;&gt;Node49</title>
<path fill="none" stroke="#191970" d="M61.5716,-429.2297C69.7317,-458.1208 97.8753,-544.0323 154,-586.5 210.2175,-629.0379 238.1341,-615.0855 308,-624.5 437.0678,-641.892 486.8251,-691.1505 601,-628.5 630.3015,-612.4216 647.4459,-575.4616 655.6047,-552.6731"/>
<polygon fill="#191970" stroke="#191970" points="658.97,-553.6453 658.8175,-543.0515 652.3303,-551.4281 658.97,-553.6453"/>
</g>
<!-- Node50 -->
<g id="node5" class="node">
<title>Node50</title>
<g id="a_node5"><a xlink:href="defines_8c.html#a2d341373a96ffea0944553e5452cdbca" target="_top" xlink:title="get_ipc_key">
<polygon fill="none" stroke="#000000" points="494,-562 494,-581 569,-581 569,-562 494,-562"/>
<text text-anchor="middle" x="531.5" y="-569" font-family="Helvetica,sans-Serif" font-size="10.00" fill="#000000">get_ipc_key</text>
</a>
</g>
</g>
<!-- Node46&#45;&gt;Node50 -->
<g id="edge4" class="edge">
<title>Node46&#45;&gt;Node50</title>
<path fill="none" stroke="#191970" d="M65.2758,-429.1136C78.8358,-449.0263 112.9809,-494.7349 154,-516.5 261.4221,-573.4992 408.9483,-577.0279 483.7883,-574.4663"/>
<polygon fill="#191970" stroke="#191970" points="484.0001,-577.9608 493.8544,-574.0694 483.7242,-570.9662 484.0001,-577.9608"/>
</g>
<!-- Node51 -->
<g id="node6" class="node">
<title>Node51</title>
<g id="a_node6"><a xlink:href="shared__memory_8c.html#ab2ffe00ec7425a3a4229cd0d53ed901c" target="_top" xlink:title="Recupera il puntatore alla memoria condivisa aggiungendola allo spazio degli indirizzi. ">
<polygon fill="none" stroke="#000000" points="473,-524 473,-543 590,-543 590,-524 473,-524"/>
<text text-anchor="middle" x="531.5" y="-531" font-family="Helvetica,sans-Serif" font-size="10.00" fill="#000000">get_shared_memory</text>
</a>
</g>
</g>
<!-- Node46&#45;&gt;Node51 -->
<g id="edge6" class="edge">
<title>Node46&#45;&gt;Node51</title>
<path fill="none" stroke="#191970" d="M69.1901,-429.0105C85.6593,-443.81 119.7536,-472.1397 154,-486.5 255.4233,-529.029 384.6289,-536.1163 462.5582,-535.8751"/>
<polygon fill="#191970" stroke="#191970" points="462.7634,-539.3737 472.7375,-535.8008 462.7122,-532.3739 462.7634,-539.3737"/>
</g>
<!-- Node52 -->
<g id="node7" class="node">
<title>Node52</title>
<g id="a_node7"><a xlink:href="semaphore_8c.html#afee4d9b0eb613bf632622e9244204d51" target="_top" xlink:title="Ottiene un insieme di semafori gia&#39; creato. ">
<polygon fill="none" stroke="#000000" points="320.5,-486 320.5,-505 413.5,-505 413.5,-486 320.5,-486"/>
<text text-anchor="middle" x="367" y="-493" font-family="Helvetica,sans-Serif" font-size="10.00" fill="#000000">getSemaphores</text>
</a>
</g>
</g>
<!-- Node46&#45;&gt;Node52 -->
<g id="edge8" class="edge">
<title>Node46&#45;&gt;Node52</title>
<path fill="none" stroke="#191970" d="M78.1703,-429.1267C97.0257,-438.2188 126.8498,-451.6052 154,-459.5 205.8426,-474.5748 266.735,-484.0794 310.1051,-489.5115"/>
<polygon fill="#191970" stroke="#191970" points="309.8343,-493.0043 320.1844,-490.7402 310.6814,-486.0557 309.8343,-493.0043"/>
</g>
<!-- Node54 -->
<g id="node9" class="node">
<title>Node54</title>
<g id="a_node9"><a xlink:href="fifo_8c.html#a54a1ae8162825128cf02f95692402c18" target="_top" xlink:title="Facilita la creazione di una FIFO (o ne ottiene una esistente) in modalita&#39; lettura o scrittura...">
<polygon fill="none" stroke="#000000" points="333,-30 333,-49 401,-49 401,-30 333,-30"/>
<text text-anchor="middle" x="367" y="-37" font-family="Helvetica,sans-Serif" font-size="10.00" fill="#000000">create_fifo</text>
</a>
</g>
</g>
<!-- Node46&#45;&gt;Node54 -->
<g id="edge12" class="edge">
<title>Node46&#45;&gt;Node54</title>
<path fill="none" stroke="#191970" d="M64.541,-409.748C77.4022,-387.9772 111.4529,-335.0885 154,-306.5 199.732,-275.7715 235.8978,-310.1208 272,-268.5 334.0488,-196.9664 245.9512,-130.0336 308,-58.5 312.1646,-53.6988 317.5481,-50.1016 323.3662,-47.4085"/>
<polygon fill="#191970" stroke="#191970" points="324.6266,-50.6739 332.7543,-43.8775 322.1622,-44.122 324.6266,-50.6739"/>
</g>
<!-- Node56 -->
<g id="node11" class="node">
<title>Node56</title>
<g id="a_node11"><a xlink:href="files_8c.html#a627e4b202ea71f3bd241ccf562449bd6" target="_top" xlink:title="find_sendme_files">
<polygon fill="none" stroke="#000000" points="161,-316 161,-335 265,-335 265,-316 161,-316"/>
<text text-anchor="middle" x="213" y="-323" font-family="Helvetica,sans-Serif" font-size="10.00" fill="#000000">find_sendme_files</text>
</a>
</g>
</g>
<!-- Node46&#45;&gt;Node56 -->
<g id="edge17" class="edge">
<title>Node46&#45;&gt;Node56</title>
<path fill="none" stroke="#191970" d="M74.6138,-409.9695C101.4784,-393.5717 156.6322,-359.9063 188.604,-340.3911"/>
<polygon fill="#191970" stroke="#191970" points="190.6328,-343.2533 197.3448,-335.0557 186.9858,-337.2784 190.6328,-343.2533"/>
</g>
<!-- Node63 -->
<g id="node18" class="node">
<title>Node63</title>
<g id="a_node18"><a xlink:href="files_8c.html#a1cdd9b5b37408e31d80f31e474a71483" target="_top" xlink:title="Visualizza il contenuto della lista concatenata di filePath. ">
<polygon fill="none" stroke="#000000" points="183.5,-240 183.5,-259 242.5,-259 242.5,-240 183.5,-240"/>
<text text-anchor="middle" x="213" y="-247" font-family="Helvetica,sans-Serif" font-size="10.00" fill="#000000">print_list</text>
</a>
</g>
</g>
<!-- Node46&#45;&gt;Node63 -->
<g id="edge26" class="edge">
<title>Node46&#45;&gt;Node63</title>
<path fill="none" stroke="#191970" d="M62.8033,-409.8811C73.4071,-384.2145 105.7268,-313.3529 154,-273.5 159.8627,-268.66 166.8316,-264.6886 173.8898,-261.4685"/>
<polygon fill="#191970" stroke="#191970" points="175.554,-264.5688 183.4745,-257.532 172.8946,-258.0936 175.554,-264.5688"/>
</g>
<!-- Node64 -->
<g id="node19" class="node">
<title>Node64</title>
<g id="a_node19"><a xlink:href="files_8c.html#a3ba19f05c37434e7f20facff3445651a" target="_top" xlink:title="Conta il numero di file nella lista concatenata di filePath. ">
<polygon fill="none" stroke="#000000" points="178.5,-202 178.5,-221 247.5,-221 247.5,-202 178.5,-202"/>
<text text-anchor="middle" x="213" y="-209" font-family="Helvetica,sans-Serif" font-size="10.00" fill="#000000">count_files</text>
</a>
</g>
</g>
<!-- Node46&#45;&gt;Node64 -->
<g id="edge27" class="edge">
<title>Node46&#45;&gt;Node64</title>
<path fill="none" stroke="#191970" d="M61.1121,-409.6014C68.2763,-378.435 94.5916,-281.3869 154,-230.5 158.3418,-226.781 163.4224,-223.7873 168.7481,-221.378"/>
<polygon fill="#191970" stroke="#191970" points="170.4083,-224.49 178.4927,-217.6421 167.9024,-217.9539 170.4083,-224.49"/>
</g>
<!-- Node65 -->
<g id="node20" class="node">
<title>Node65</title>
<g id="a_node20"><a xlink:href="client_8c.html#a748983b7ce27515a3ad116ada4334c4e" target="_top" xlink:title="int_to_string">
<polygon fill="none" stroke="#000000" points="174.5,-164 174.5,-183 251.5,-183 251.5,-164 174.5,-164"/>
<text text-anchor="middle" x="213" y="-171" font-family="Helvetica,sans-Serif" font-size="10.00" fill="#000000">int_to_string</text>
</a>
</g>
</g>
<!-- Node46&#45;&gt;Node65 -->
<g id="edge28" class="edge">
<title>Node46&#45;&gt;Node65</title>
<path fill="none" stroke="#191970" d="M60.1891,-409.6667C64.9385,-374.7129 85.7269,-255.2154 154,-192.5 157.2096,-189.5517 160.8803,-187.0607 164.786,-184.9561"/>
<polygon fill="#191970" stroke="#191970" points="166.5347,-188.0074 174.2189,-180.7133 163.6632,-181.6234 166.5347,-188.0074"/>
</g>
<!-- Node66 -->
<g id="node21" class="node">
<title>Node66</title>
<g id="a_node21"><a xlink:href="semaphore_8c.html#a2581efba6a0833e3f289de94c779cc21" target="_top" xlink:title="Esegue la wait sul semaforo sem_num: decrementa il valore di 1 ed eventualmente mette in attesa il pr...">
<polygon fill="none" stroke="#000000" points="337.5,-448 337.5,-467 396.5,-467 396.5,-448 337.5,-448"/>
<text text-anchor="middle" x="367" y="-455" font-family="Helvetica,sans-Serif" font-size="10.00" fill="#000000">semWait</text>
</a>
</g>
</g>
<!-- Node46&#45;&gt;Node66 -->
<g id="edge29" class="edge">
<title>Node46&#45;&gt;Node66</title>
<path fill="none" stroke="#191970" d="M101.3918,-429.0007C117.7615,-432.4002 136.6865,-436.004 154,-438.5 214.0863,-447.1625 284.3153,-452.5106 327.2152,-455.2442"/>
<polygon fill="#191970" stroke="#191970" points="327.0507,-458.7406 337.2485,-455.8674 327.4847,-451.7541 327.0507,-458.7406"/>
</g>
<!-- Node67 -->
<g id="node22" class="node">
<title>Node67</title>
<g id="a_node22"><a xlink:href="client_8c.html#ac129a55ffa08a55addb9ea1afbd709f8" target="_top" xlink:title="strEquals">
<polygon fill="none" stroke="#000000" points="182,-126 182,-145 244,-145 244,-126 182,-126"/>
<text text-anchor="middle" x="213" y="-133" font-family="Helvetica,sans-Serif" font-size="10.00" fill="#000000">strEquals</text>
</a>
</g>
</g>
<!-- Node46&#45;&gt;Node67 -->
<g id="edge31" class="edge">
<title>Node46&#45;&gt;Node67</title>
<path fill="none" stroke="#191970" d="M59.5065,-409.9493C62.044,-371.8861 76.5626,-229.4478 154,-154.5 159.0914,-149.5723 165.4668,-145.9225 172.1288,-143.2193"/>
<polygon fill="#191970" stroke="#191970" points="173.6214,-146.4097 181.9785,-139.8974 171.3844,-139.7767 173.6214,-146.4097"/>
</g>
<!-- Node68 -->
<g id="node23" class="node">
<title>Node68</title>
<g id="a_node23"><a xlink:href="semaphore_8c.html#a7bad0eb0b0c6ac701b59c36b8b7837bf" target="_top" xlink:title="Esegue la signal sul semaforo sem_num: incrementa il valore di 1. ">
<polygon fill="none" stroke="#000000" points="333,-258 333,-277 401,-277 401,-258 333,-258"/>
<text text-anchor="middle" x="367" y="-265" font-family="Helvetica,sans-Serif" font-size="10.00" fill="#000000">semSignal</text>
</a>
</g>
</g>
<!-- Node46&#45;&gt;Node68 -->
<g id="edge32" class="edge">
<title>Node46&#45;&gt;Node68</title>
<path fill="none" stroke="#191970" d="M102.0961,-409.9499C160.4112,-396.7279 258.7332,-373.2614 272,-362.5 299.4771,-340.2119 281.9669,-315.459 308,-291.5 312.4828,-287.3744 317.7687,-283.9129 323.3044,-281.0208"/>
<polygon fill="#191970" stroke="#191970" points="325.1349,-284.0316 332.7588,-276.6745 322.211,-277.6714 325.1349,-284.0316"/>
</g>
<!-- Node69 -->
<g id="node24" class="node">
<title>Node69</title>
<g id="a_node24"><a xlink:href="defines_8c.html#aea9b93cad897755a46cb9e3373ba8cc2" target="_top" xlink:title="Rende bloccante oppure non bloccante un file descriptor. ">
<polygon fill="none" stroke="#000000" points="185,-88 185,-107 241,-107 241,-88 185,-88"/>
<text text-anchor="middle" x="213" y="-95" font-family="Helvetica,sans-Serif" font-size="10.00" fill="#000000">blockFD</text>
</a>
</g>
</g>
<!-- Node46&#45;&gt;Node69 -->
<g id="edge34" class="edge">
<title>Node46&#45;&gt;Node69</title>
<path fill="none" stroke="#191970" d="M60.8003,-409.8138C69.6768,-363.0094 110.1206,-160.7196 154,-116.5 159.7559,-110.6995 167.2885,-106.6684 175.0372,-103.8673"/>
<polygon fill="#191970" stroke="#191970" points="176.2701,-107.1519 184.8504,-100.9366 174.267,-100.4447 176.2701,-107.1519"/>
</g>
<!-- Node70 -->
<g id="node25" class="node">
<title>Node70</title>
<g id="a_node25"><a xlink:href="files_8c.html#a786a7b6f9c01e8489d7196a79f5f3862" target="_top" xlink:title="Libera la memoria dello HEAP occupata dalla lista di filePath. ">
<polygon fill="none" stroke="#000000" points="185,-50 185,-69 241,-69 241,-50 185,-50"/>
<text text-anchor="middle" x="213" y="-57" font-family="Helvetica,sans-Serif" font-size="10.00" fill="#000000">free_list</text>
</a>
</g>
</g>
<!-- Node46&#45;&gt;Node70 -->
<g id="edge35" class="edge">
<title>Node46&#45;&gt;Node70</title>
<path fill="none" stroke="#191970" d="M60.4187,-409.9673C68.026,-360.0361 105.457,-129.0167 154,-78.5 159.662,-72.6078 167.1564,-68.5394 174.8978,-65.7312"/>
<polygon fill="#191970" stroke="#191970" points="176.1322,-69.0156 184.7165,-62.8059 174.1334,-62.307 176.1322,-69.0156"/>
</g>
<!-- Node71 -->
<g id="node26" class="node">
<title>Node71</title>
<g id="a_node26"><a xlink:href="client_8c.html#a54b47b58f228d7bc9827d2919687e25a" target="_top" xlink:title="Funzione eseguita da ogni Client i (figli di Client 0) per mandare i file al server. ">
<polygon fill="none" stroke="#000000" points="164.5,-410 164.5,-429 261.5,-429 261.5,-410 164.5,-410"/>
<text text-anchor="middle" x="213" y="-417" font-family="Helvetica,sans-Serif" font-size="10.00" fill="#000000">operazioni_figlio</text>
</a>
</g>
</g>
<!-- Node46&#45;&gt;Node71 -->
<g id="edge36" class="edge">
<title>Node46&#45;&gt;Node71</title>
<path fill="none" stroke="#191970" d="M118.1,-419.5C129.9088,-419.5 142.3122,-419.5 154.1138,-419.5"/>
<polygon fill="#191970" stroke="#191970" points="154.2999,-423.0001 164.2999,-419.5 154.2998,-416.0001 154.2999,-423.0001"/>
</g>
<!-- Node74 -->
<g id="node29" class="node">
<title>Node74</title>
<g id="a_node29"><a xlink:href="signals_8c.html#a6060ad9cb62b184abfe113560b29f3c4" target="_top" xlink:title="block_sig_no_SIGINT\l_SIGUSR1">
<polygon fill="none" stroke="#000000" points="154,-.5 154,-30.5 272,-30.5 272,-.5 154,-.5"/>
<text text-anchor="start" x="162" y="-18.5" font-family="Helvetica,sans-Serif" font-size="10.00" fill="#000000">block_sig_no_SIGINT</text>
<text text-anchor="middle" x="213" y="-7.5" font-family="Helvetica,sans-Serif" font-size="10.00" fill="#000000">_SIGUSR1</text>
</a>
</g>
</g>
<!-- Node46&#45;&gt;Node74 -->
<g id="edge43" class="edge">
<title>Node46&#45;&gt;Node74</title>
<path fill="none" stroke="#191970" d="M60.2622,-409.711C67.3303,-356.2187 103.5016,-99.5133 154,-40.5 155.1437,-39.1635 156.3712,-37.8966 157.6678,-36.696"/>
<polygon fill="#191970" stroke="#191970" points="159.9284,-39.3735 165.7469,-30.5194 155.6768,-33.8125 159.9284,-39.3735"/>
</g>
<!-- Node75 -->
<g id="node30" class="node">
<title>Node75</title>
<g id="a_node30"><a xlink:href="shared__memory_8c.html#a6530d61365abd3e580722ed907ea5f5b" target="_top" xlink:title="Scollega la memoria condivisa dallo spazio degli indirizzi. ">
<polygon fill="none" stroke="#000000" points="471,-752 471,-771 592,-771 592,-752 471,-752"/>
<text text-anchor="middle" x="531.5" y="-759" font-family="Helvetica,sans-Serif" font-size="10.00" fill="#000000">free_shared_memory</text>
</a>
</g>
</g>
<!-- Node46&#45;&gt;Node75 -->
<g id="edge44" class="edge">
<title>Node46&#45;&gt;Node75</title>
<path fill="none" stroke="#191970" d="M60.5737,-429.1629C68.5246,-476.7615 105.8007,-685.6452 154,-726.5 246.86,-805.2102 402.5754,-788.4601 481.8606,-773.0985"/>
<polygon fill="#191970" stroke="#191970" points="482.9512,-776.4493 492.065,-771.0465 481.5712,-769.5867 482.9512,-776.4493"/>
</g>
<!-- Node76 -->
<g id="node31" class="node">
<title>Node76</title>
<g id="a_node31"><a xlink:href="shared__memory_8c.html#a8fd9943e1b39a1f286977096e0a50d7b" target="_top" xlink:title="Elimina la memoria condivisa. ">
<polygon fill="none" stroke="#000000" points="462,-714 462,-733 601,-733 601,-714 462,-714"/>
<text text-anchor="middle" x="531.5" y="-721" font-family="Helvetica,sans-Serif" font-size="10.00" fill="#000000">remove_shared_memory</text>
</a>
</g>
</g>
<!-- Node46&#45;&gt;Node76 -->
<g id="edge46" class="edge">
<title>Node46&#45;&gt;Node76</title>
<path fill="none" stroke="#191970" d="M60.9827,-429.1467C70.2219,-473.1236 110.4448,-653.9487 154,-688.5 248.1337,-763.1739 399.9772,-749.1458 479.3566,-734.9499"/>
<polygon fill="#191970" stroke="#191970" points="480.4072,-738.3146 489.5985,-733.0448 479.1271,-731.4326 480.4072,-738.3146"/>
</g>
<!-- Node77 -->
<g id="node32" class="node">
<title>Node77</title>
<g id="a_node32"><a xlink:href="semaphore_8c.html#a530566146b6e3cc8415d8ae4259fd68f" target="_top" xlink:title="Cancella il set di semafori svegliando eventuali processi in attesa. ">
<polygon fill="none" stroke="#000000" points="496.5,-676 496.5,-695 566.5,-695 566.5,-676 496.5,-676"/>
<text text-anchor="middle" x="531.5" y="-683" font-family="Helvetica,sans-Serif" font-size="10.00" fill="#000000">semDelete</text>
</a>
</g>
</g>
<!-- Node46&#45;&gt;Node77 -->
<g id="edge48" class="edge">
<title>Node46&#45;&gt;Node77</title>
<path fill="none" stroke="#191970" d="M59.3479,-429.0399C61.2757,-466.3212 73.771,-602.991 154,-661.5 205.7405,-699.233 397.7406,-693.4031 486.2636,-688.4856"/>
<polygon fill="#191970" stroke="#191970" points="486.4947,-691.9781 496.2767,-687.9085 486.0919,-684.9897 486.4947,-691.9781"/>
</g>
<!-- Node48&#45;&gt;Node49 -->
<g id="edge3" class="edge">
<title>Node48&#45;&gt;Node49</title>
<path fill="none" stroke="#191970" d="M578.7253,-599.96C586.4279,-597.4642 594.1271,-594.3556 601,-590.5 619.1706,-580.3065 636.0885,-563.4813 647.3873,-550.7467"/>
<polygon fill="#191970" stroke="#191970" points="650.1081,-552.9505 653.9575,-543.0797 644.7928,-548.3955 650.1081,-552.9505"/>
</g>
<!-- Node50&#45;&gt;Node49 -->
<g id="edge5" class="edge">
<title>Node50&#45;&gt;Node49</title>
<path fill="none" stroke="#191970" d="M567.2861,-561.992C578.1391,-559.0345 590.0781,-555.7067 601,-552.5 609.5035,-550.0033 618.6414,-547.1981 627.1739,-544.5252"/>
<polygon fill="#191970" stroke="#191970" points="628.3552,-547.8226 636.8378,-541.4747 626.2481,-541.1473 628.3552,-547.8226"/>
</g>
<!-- Node51&#45;&gt;Node49 -->
<g id="edge7" class="edge">
<title>Node51&#45;&gt;Node49</title>
<path fill="none" stroke="#191970" d="M590.0349,-533.5C602.4963,-533.5 615.2779,-533.5 626.5231,-533.5"/>
<polygon fill="#191970" stroke="#191970" points="626.7732,-537.0001 636.7731,-533.5 626.7731,-530.0001 626.7732,-537.0001"/>
</g>
<!-- Node52&#45;&gt;Node49 -->
<g id="edge9" class="edge">
<title>Node52&#45;&gt;Node49</title>
<path fill="none" stroke="#191970" d="M413.591,-496.2303C461.1168,-497.6866 536.7926,-501.9746 601,-514.5 609.6208,-516.1817 618.7443,-518.6606 627.2199,-521.2764"/>
<polygon fill="#191970" stroke="#191970" points="626.2112,-524.6286 636.8028,-524.3705 628.362,-517.9672 626.2112,-524.6286"/>
</g>
<!-- Node53 -->
<g id="node8" class="node">
<title>Node53</title>
<g id="a_node8"><a xlink:href="semaphore_8c.html#a77c6570406059144bb6a8ecf04f481da" target="_top" xlink:title="Funzione di supporto per manipolare i valori di un set di semafori. ">
<polygon fill="none" stroke="#000000" points="506,-448 506,-467 557,-467 557,-448 506,-448"/>
<text text-anchor="middle" x="531.5" y="-455" font-family="Helvetica,sans-Serif" font-size="10.00" fill="#000000">semOp</text>
</a>
</g>
</g>
<!-- Node52&#45;&gt;Node53 -->
<g id="edge10" class="edge">
<title>Node52&#45;&gt;Node53</title>
<path fill="none" stroke="#191970" d="M408.5103,-485.911C435.4468,-479.6886 470.1823,-471.6646 495.8651,-465.7318"/>
<polygon fill="#191970" stroke="#191970" points="496.9654,-469.0699 505.921,-463.4088 495.3898,-462.2495 496.9654,-469.0699"/>
</g>
<!-- Node53&#45;&gt;Node49 -->
<g id="edge11" class="edge">
<title>Node53&#45;&gt;Node49</title>
<path fill="none" stroke="#191970" d="M557.2597,-463.8718C570.808,-467.8357 587.384,-473.6815 601,-481.5 617.5899,-491.0262 633.89,-505.4106 645.3836,-516.6375"/>
<polygon fill="#191970" stroke="#191970" points="642.9828,-519.1869 652.5172,-523.8071 647.945,-514.2496 642.9828,-519.1869"/>
</g>
<!-- Node54&#45;&gt;Node49 -->
<g id="edge15" class="edge">
<title>Node54&#45;&gt;Node49</title>
<path fill="none" stroke="#191970" d="M401.3109,-46.7971C464.672,-60.4186 594.2377,-89.015 601,-96.5 629.4454,-127.9855 653.9781,-432.413 660.0573,-513.6557"/>
<polygon fill="#191970" stroke="#191970" points="656.5915,-514.2488 660.8186,-523.9638 663.5725,-513.7332 656.5915,-514.2488"/>
</g>
<!-- Node55 -->
<g id="node10" class="node">
<title>Node55</title>
<g id="a_node10"><a xlink:href="fifo_8c.html#ab83de0eb3bc3947e3c031685d5c2474b" target="_top" xlink:title="Crea o ottiene una IPC FIFO usando mkfifo. ">
<polygon fill="none" stroke="#000000" points="499,-30 499,-49 564,-49 564,-30 499,-30"/>
<text text-anchor="middle" x="531.5" y="-37" font-family="Helvetica,sans-Serif" font-size="10.00" fill="#000000">make_fifo</text>
</a>
</g>
</g>
<!-- Node54&#45;&gt;Node55 -->
<g id="edge13" class="edge">
<title>Node54&#45;&gt;Node55</title>
<path fill="none" stroke="#191970" d="M401.0845,-39.5C426.5358,-39.5 461.4875,-39.5 488.8016,-39.5"/>
<polygon fill="#191970" stroke="#191970" points="488.8603,-43.0001 498.8603,-39.5 488.8603,-36.0001 488.8603,-43.0001"/>
</g>
<!-- Node55&#45;&gt;Node49 -->
<g id="edge14" class="edge">
<title>Node55&#45;&gt;Node49</title>
<path fill="none" stroke="#191970" d="M564.1651,-43.2129C577.5443,-46.4317 591.9751,-52.4115 601,-63.5 629.9215,-99.0346 654.3196,-428.6009 660.1677,-513.5841"/>
<polygon fill="#191970" stroke="#191970" points="656.6852,-513.9607 660.8552,-523.7004 663.6691,-513.486 656.6852,-513.9607"/>
</g>
<!-- Node56&#45;&gt;Node49 -->
<g id="edge25" class="edge">
<title>Node56&#45;&gt;Node49</title>
<path fill="none" stroke="#191970" d="M251.1911,-315.8922C258.9337,-312.4353 266.4062,-307.7721 272,-301.5 311.6194,-257.0769 260.5896,-208.4912 308,-172.5 361.5767,-131.8278 558.4359,-196.4136 601,-248.5 634.7572,-289.8092 653.9598,-456.5392 659.6741,-513.9566"/>
<polygon fill="#191970" stroke="#191970" points="656.1905,-514.2966 660.6374,-523.9131 663.158,-513.6224 656.1905,-514.2966"/>
</g>
<!-- Node56&#45;&gt;Node56 -->
<g id="edge24" class="edge">
<title>Node56&#45;&gt;Node56</title>
<path fill="none" stroke="#191970" d="M189.2641,-335.2571C177.7169,-344.0653 185.6289,-353.5 213,-353.5 230.9623,-353.5 240.5442,-349.4368 241.7458,-344.1539"/>
<polygon fill="#191970" stroke="#191970" points="244.6923,-342.2532 236.7359,-335.2571 238.5928,-345.6879 244.6923,-342.2532"/>
</g>
<!-- Node57 -->
<g id="node12" class="node">
<title>Node57</title>
<g id="a_node12"><a xlink:href="strings_8c.html#a21b51584b636c81767ed74b8a527ffd3" target="_top" xlink:title="Concatena la cartella directory al percorso path. ">
<polygon fill="none" stroke="#000000" points="327,-182 327,-201 407,-201 407,-182 327,-182"/>
<text text-anchor="middle" x="367" y="-189" font-family="Helvetica,sans-Serif" font-size="10.00" fill="#000000">append2Path</text>
</a>
</g>
</g>
<!-- Node56&#45;&gt;Node57 -->
<g id="edge18" class="edge">
<title>Node56&#45;&gt;Node57</title>
<path fill="none" stroke="#191970" d="M249.4888,-315.979C257.6786,-312.4862 265.7748,-307.7854 272,-301.5 302.6067,-270.5972 276.2593,-240.2369 308,-210.5 310.9204,-207.764 314.2373,-205.4219 317.7739,-203.4171"/>
<polygon fill="#191970" stroke="#191970" points="319.3713,-206.5335 326.9169,-199.096 316.3802,-200.2047 319.3713,-206.5335"/>
</g>
<!-- Node58 -->
<g id="node13" class="node">
<title>Node58</title>
<g id="a_node13"><a xlink:href="files_8c.html#a675d61c6bfe0d9ddd1be59233dfd7d5c" target="_top" xlink:title="Restituisce 1 se il percorso inizia con &quot;sendme_&quot;, 0 altrimenti. ">
<polygon fill="none" stroke="#000000" points="321.5,-68 321.5,-87 412.5,-87 412.5,-68 321.5,-68"/>
<text text-anchor="middle" x="367" y="-75" font-family="Helvetica,sans-Serif" font-size="10.00" fill="#000000">checkFileName</text>
</a>
</g>
</g>
<!-- Node56&#45;&gt;Node58 -->
<g id="edge19" class="edge">
<title>Node56&#45;&gt;Node58</title>
<path fill="none" stroke="#191970" d="M252.5704,-315.8707C259.9532,-312.4317 266.9295,-307.7812 272,-301.5 330.1054,-229.5209 247.2442,-166.2565 308,-96.5 309.3782,-94.9176 310.8888,-93.4661 312.5035,-92.1346"/>
<polygon fill="#191970" stroke="#191970" points="314.8242,-94.8016 321.3154,-86.4281 311.0192,-88.926 314.8242,-94.8016"/>
</g>
<!-- Node60 -->
<g id="node15" class="node">
<title>Node60</title>
<g id="a_node15"><a xlink:href="files_8c.html#a5ac4517096592013308a3252f3226f60" target="_top" xlink:title="Restituisce 1 se il percorso ha la dimensione &lt;= 4 KB, 0 altrimenti. ">
<polygon fill="none" stroke="#000000" points="326,-220 326,-239 408,-239 408,-220 326,-220"/>
<text text-anchor="middle" x="367" y="-227" font-family="Helvetica,sans-Serif" font-size="10.00" fill="#000000">checkFileSize</text>
</a>
</g>
</g>
<!-- Node56&#45;&gt;Node60 -->
<g id="edge21" class="edge">
<title>Node56&#45;&gt;Node60</title>
<path fill="none" stroke="#191970" d="M246.1038,-315.9659C255.099,-312.3693 264.4348,-307.6206 272,-301.5 294.1377,-283.5895 285.2082,-265.5704 308,-248.5 310.6701,-246.5002 313.5586,-244.7061 316.5736,-243.0972"/>
<polygon fill="#191970" stroke="#191970" points="318.2827,-246.1637 325.9059,-238.8058 315.3581,-239.8039 318.2827,-246.1637"/>
</g>
<!-- Node62 -->
<g id="node17" class="node">
<title>Node62</title>
<g id="a_node17"><a xlink:href="files_8c.html#a6a46f37bcdbf048db0fba5bb3e0e6342" target="_top" xlink:title="Aggiunge in fondo alla coda un nuovo filePath. ">
<polygon fill="none" stroke="#000000" points="340.5,-106 340.5,-125 393.5,-125 393.5,-106 340.5,-106"/>
<text text-anchor="middle" x="367" y="-113" font-family="Helvetica,sans-Serif" font-size="10.00" fill="#000000">append</text>
</a>
</g>
</g>
<!-- Node56&#45;&gt;Node62 -->
<g id="edge23" class="edge">
<title>Node56&#45;&gt;Node62</title>
<path fill="none" stroke="#191970" d="M251.7477,-315.9731C259.3668,-312.5179 266.6472,-307.8349 272,-301.5 319.6033,-245.1624 260.3967,-195.8376 308,-139.5 313.9633,-132.4425 322.3191,-127.4353 330.8703,-123.8918"/>
<polygon fill="#191970" stroke="#191970" points="332.2348,-127.1216 340.4909,-120.4818 329.8961,-120.5238 332.2348,-127.1216"/>
</g>
<!-- Node59 -->
<g id="node14" class="node">
<title>Node59</title>
<g id="a_node14"><a xlink:href="strings_8c.html#ab6b8529148710caedf063c1de6b0db16" target="_top" xlink:title="Restituisce vero se la stringa a inizia con la sotto stringa b. ">
<polygon fill="none" stroke="#000000" points="497.5,-106 497.5,-125 565.5,-125 565.5,-106 497.5,-106"/>
<text text-anchor="middle" x="531.5" y="-113" font-family="Helvetica,sans-Serif" font-size="10.00" fill="#000000">StartsWith</text>
</a>
</g>
</g>
<!-- Node58&#45;&gt;Node59 -->
<g id="edge20" class="edge">
<title>Node58&#45;&gt;Node59</title>
<path fill="none" stroke="#191970" d="M408.5103,-87.089C432.6862,-92.6737 463.1445,-99.7097 487.7017,-105.3825"/>
<polygon fill="#191970" stroke="#191970" points="486.9529,-108.8016 497.4841,-107.6422 488.5285,-101.9812 486.9529,-108.8016"/>
</g>
<!-- Node61 -->
<g id="node16" class="node">
<title>Node61</title>
<g id="a_node16"><a xlink:href="files_8c.html#a096f8e9259afb2839ebe6822364f9928" target="_top" xlink:title="Restituisce dimensione del file in byte. ">
<polygon fill="none" stroke="#000000" points="497,-258 497,-277 566,-277 566,-258 497,-258"/>
<text text-anchor="middle" x="531.5" y="-265" font-family="Helvetica,sans-Serif" font-size="10.00" fill="#000000">getFileSize</text>
</a>
</g>
</g>
<!-- Node60&#45;&gt;Node61 -->
<g id="edge22" class="edge">
<title>Node60&#45;&gt;Node61</title>
<path fill="none" stroke="#191970" d="M408.086,-238.991C432.0906,-244.5361 462.3979,-251.5372 486.9711,-257.2137"/>
<polygon fill="#191970" stroke="#191970" points="486.2389,-260.6366 496.7701,-259.4773 487.8144,-253.8162 486.2389,-260.6366"/>
</g>
<!-- Node66&#45;&gt;Node53 -->
<g id="edge30" class="edge">
<title>Node66&#45;&gt;Node53</title>
<path fill="none" stroke="#191970" d="M396.7897,-457.5C424.5787,-457.5 466.0797,-457.5 495.6669,-457.5"/>
<polygon fill="#191970" stroke="#191970" points="495.9809,-461.0001 505.9809,-457.5 495.9809,-454.0001 495.9809,-461.0001"/>
</g>
<!-- Node68&#45;&gt;Node53 -->
<g id="edge33" class="edge">
<title>Node68&#45;&gt;Node53</title>
<path fill="none" stroke="#191970" d="M375.3837,-277.1833C401.5574,-307.4143 482.0328,-400.3647 516.0568,-439.6629"/>
<polygon fill="#191970" stroke="#191970" points="513.7443,-442.3391 522.9359,-447.6083 519.0364,-437.7572 513.7443,-442.3391"/>
</g>
<!-- Node71&#45;&gt;Node49 -->
<g id="edge37" class="edge">
<title>Node71&#45;&gt;Node49</title>
<path fill="none" stroke="#191970" d="M240.6539,-409.9453C250.8719,-405.8654 262.3145,-400.6226 272,-394.5 290.095,-383.0614 287.9902,-370.1077 308,-362.5 357.021,-343.8623 374.6521,-351.8315 426,-362.5 509.0227,-379.7496 536.5131,-383.4386 601,-438.5 625.7919,-459.6682 643.9518,-493.5565 653.6032,-514.6192"/>
<polygon fill="#191970" stroke="#191970" points="650.4189,-516.0727 657.6494,-523.8168 656.8263,-513.254 650.4189,-516.0727"/>
</g>
<!-- Node71&#45;&gt;Node61 -->
<g id="edge38" class="edge">
<title>Node71&#45;&gt;Node61</title>
<path fill="none" stroke="#191970" d="M246.1706,-409.9205C255.2681,-406.1639 264.6412,-401.124 272,-394.5 296.5445,-372.4062 282.0703,-349.9504 308,-329.5 335.6641,-307.6818 429.9411,-286.7216 486.8359,-275.6413"/>
<polygon fill="#191970" stroke="#191970" points="487.4972,-279.0784 496.6572,-273.7543 486.1764,-272.2041 487.4972,-279.0784"/>
</g>
<!-- Node71&#45;&gt;Node66 -->
<g id="edge41" class="edge">
<title>Node71&#45;&gt;Node66</title>
<path fill="none" stroke="#191970" d="M251.8607,-429.089C274.9908,-434.7964 304.2637,-442.0196 327.5049,-447.7545"/>
<polygon fill="#191970" stroke="#191970" points="326.8397,-451.1952 337.387,-450.1929 328.5167,-444.3991 326.8397,-451.1952"/>
</g>
<!-- Node71&#45;&gt;Node68 -->
<g id="edge42" class="edge">
<title>Node71&#45;&gt;Node68</title>
<path fill="none" stroke="#191970" d="M250.298,-409.9039C258.2694,-406.4316 266.065,-401.7588 272,-395.5 305.6566,-360.0073 274.3434,-326.9927 308,-291.5 312.3942,-286.8661 317.8083,-283.1016 323.5585,-280.05"/>
<polygon fill="#191970" stroke="#191970" points="325.1458,-283.1725 332.773,-275.8189 322.2247,-276.8111 325.1458,-283.1725"/>
</g>
<!-- Node72 -->
<g id="node27" class="node">
<title>Node72</title>
<g id="a_node27"><a xlink:href="client_8c.html#a55586f2b7e9b3620294cf78cda8abdad" target="_top" xlink:title="Divide in 4 parti il contenuto del file da inviare al server. ">
<polygon fill="none" stroke="#000000" points="345,-410 345,-429 389,-429 389,-410 345,-410"/>
<text text-anchor="middle" x="367" y="-417" font-family="Helvetica,sans-Serif" font-size="10.00" fill="#000000">dividi</text>
</a>
</g>
</g>
<!-- Node71&#45;&gt;Node72 -->
<g id="edge39" class="edge">
<title>Node71&#45;&gt;Node72</title>
<path fill="none" stroke="#191970" d="M261.7266,-419.5C285.5477,-419.5 313.5613,-419.5 334.6997,-419.5"/>
<polygon fill="#191970" stroke="#191970" points="334.7716,-423.0001 344.7715,-419.5 334.7715,-416.0001 334.7716,-423.0001"/>
</g>
<!-- Node73 -->
<g id="node28" class="node">
<title>Node73</title>
<g id="a_node28"><a xlink:href="defines_8c.html#ac281b05b7a90ba292f5748cbfe3c389d" target="_top" xlink:title="Restituisce vero se l&#39;array contiene tutti true. ">
<polygon fill="none" stroke="#000000" points="308,-372 308,-391 426,-391 426,-372 308,-372"/>
<text text-anchor="middle" x="367" y="-379" font-family="Helvetica,sans-Serif" font-size="10.00" fill="#000000">arrayContainsAllTrue</text>
</a>
</g>
</g>
<!-- Node71&#45;&gt;Node73 -->
<g id="edge40" class="edge">
<title>Node71&#45;&gt;Node73</title>
<path fill="none" stroke="#191970" d="M251.8607,-409.911C272.0911,-404.9191 297.0207,-398.7676 318.5036,-393.4666"/>
<polygon fill="#191970" stroke="#191970" points="319.5485,-396.8139 328.4187,-391.0201 317.8714,-390.0177 319.5485,-396.8139"/>
</g>
<!-- Node75&#45;&gt;Node49 -->
<g id="edge45" class="edge">
<title>Node75&#45;&gt;Node49</title>
<path fill="none" stroke="#191970" d="M587.4801,-751.9379C592.4532,-749.4588 597.0793,-746.3627 601,-742.5 628.3451,-715.5596 650.404,-599.6631 658.3347,-553.0382"/>
<polygon fill="#191970" stroke="#191970" points="661.815,-553.4455 660.0033,-543.0067 654.9098,-552.2969 661.815,-553.4455"/>
</g>
<!-- Node76&#45;&gt;Node49 -->
<g id="edge47" class="edge">
<title>Node76&#45;&gt;Node49</title>
<path fill="none" stroke="#191970" d="M586.9093,-713.8644C592.0556,-711.4038 596.8768,-708.332 601,-704.5 644.9187,-663.6838 656.9747,-588.9943 660.2696,-553.3934"/>
<polygon fill="#191970" stroke="#191970" points="663.7685,-553.5436 661.0608,-543.3006 656.7899,-552.9965 663.7685,-553.5436"/>
</g>
<!-- Node77&#45;&gt;Node49 -->
<g id="edge49" class="edge">
<title>Node77&#45;&gt;Node49</title>
<path fill="none" stroke="#191970" d="M566.5244,-679.2244C578.5572,-675.6574 591.4002,-670.1063 601,-661.5 633.814,-632.0819 650.3407,-581.0836 657.2983,-553.1641"/>
<polygon fill="#191970" stroke="#191970" points="660.793,-553.5878 659.6468,-543.0552 653.9746,-552.0038 660.793,-553.5878"/>
</g>
</g>
</svg>
        <g id="navigator" transform="translate(0 0)" fill="#404254">
                <rect fill="#f2f5e9" fill-opacity="0.5" stroke="#606060" stroke-width=".5" x="0" y="0" width="60" height="60"/>
                <use id="zoomplus" xlink:href="#zoomPlus" x="17" y="9" onmousedown="handleZoom(evt,'in')"/>
                <use id="zoomminus" xlink:href="#zoomMin" x="42" y="9" onmousedown="handleZoom(evt,'out')"/>
                <use id="reset" xlink:href="#resetDef" x="30" y="36" onmousedown="handleReset()"/>
                <g id="arrowUp" xlink:href="#dirArrow" transform="translate(30 24)" onmousedown="handlePan(0,-1)">
                  <use xlink:href="#rim" fill="#404040">
                        <set attributeName="fill" to="#808080" begin="arrowUp.mouseover" end="arrowUp.mouseout"/>
                  </use>
                  <path fill="none" stroke="white" stroke-width="1.5" d="M0,-3.0v7 M-2.5,-0.5L0,-3.0L2.5,-0.5"/>
                </g>
                <g id="arrowRight" xlink:href="#dirArrow" transform="rotate(90) translate(36 -43)" onmousedown="handlePan(1,0)">
                  <use xlink:href="#rim" fill="#404040">
                        <set attributeName="fill" to="#808080" begin="arrowRight.mouseover" end="arrowRight.mouseout"/>
                  </use>
                  <path fill="none" stroke="white" stroke-width="1.5" d="M0,-3.0v7 M-2.5,-0.5L0,-3.0L2.5,-0.5"/>
                </g>
                <g id="arrowDown" xlink:href="#dirArrow" transform="rotate(180) translate(-30 -48)" onmousedown="handlePan(0,1)">
                  <use xlink:href="#rim" fill="#404040">
                        <set attributeName="fill" to="#808080" begin="arrowDown.mouseover" end="arrowDown.mouseout"/>
                  </use>
                  <path fill="none" stroke="white" stroke-width="1.5" d="M0,-3.0v7 M-2.5,-0.5L0,-3.0L2.5,-0.5"/>
                </g>
                <g id="arrowLeft" xlink:href="#dirArrow" transform="rotate(270) translate(-36 17)" onmousedown="handlePan(-1,0)">
                  <use xlink:href="#rim" fill="#404040">
                        <set attributeName="fill" to="#808080" begin="arrowLeft.mouseover" end="arrowLeft.mouseout"/>
                  </use>
                  <path fill="none" stroke="white" stroke-width="1.5" d="M0,-3.0v7 M-2.5,-0.5L0,-3.0L2.5,-0.5"/>
                </g>
        </g>
        <svg viewBox="0 0 15 15" width="100%" height="30px" preserveAspectRatio="xMaxYMin meet">
         <g id="arrow_out" transform="scale(0.3 0.3)">
          <a xlink:href="server_8c_a48d605ff689f470746c858648f0a98c2_cgraph_org.svg" target="_base">
           <rect id="button" ry="5" rx="5" y="6" x="6" height="38" width="38"
                fill="#f2f5e9" fill-opacity="0.5" stroke="#606060" stroke-width="1.0"/>
           <path id="arrow"
             d="M 11.500037,31.436501 C 11.940474,20.09759 22.043105,11.32322 32.158766,21.979434 L 37.068811,17.246167 C 37.068811,17.246167 37.088388,32 37.088388,32 L 22.160133,31.978069 C 22.160133,31.978069 26.997745,27.140456 26.997745,27.140456 C 18.528582,18.264221 13.291696,25.230495 11.500037,31.436501 z"
             style="fill:#404040;"/>
          </a>
         </g>
        </svg>
</svg>
