<?xml version="1.0" encoding="UTF-8" standalone="no"?>
<!DOCTYPE svg PUBLIC "-//W3C//DTD SVG 1.1//EN"
 "http://www.w3.org/Graphics/SVG/1.1/DTD/svg11.dtd">
<!-- Generated by graphviz version 2.40.1 (20161225.0304)
 -->
<!-- Title: /mnt/c/Users/stefa/Desktop/system_call/src/server.c Pages: 1 -->
<!--zoomable 218 -->
<svg id="main" version="1.1" xmlns="http://www.w3.org/2000/svg" xmlns:xlink="http://www.w3.org/1999/xlink" xml:space="preserve" onload="init(evt)">
<style type="text/css"><![CDATA[
.edge:hover path { stroke: red; }
.edge:hover polygon { stroke: red; fill: red; }
]]></style>
<script type="text/javascript"><![CDATA[
var edges = document.getElementsByTagName('g');
if (edges && edges.length) {
  for (var i=0;i<edges.length;i++) {
    if (edges[i].id.substr(0,4)=='edge') {
      edges[i].setAttribute('class','edge');
    }
  }
}
]]></script>
        <defs>
                <circle id="rim" cx="0" cy="0" r="7"/>
                <circle id="rim2" cx="0" cy="0" r="3.5"/>
                <g id="zoomPlus">
                        <use xlink:href="#rim" fill="#404040">
                                <set attributeName="fill" to="#808080" begin="zoomplus.mouseover" end="zoomplus.mouseout"/>
                        </use>
                        <path d="M-4,0h8M0,-4v8" fill="none" stroke="white" stroke-width="1.5" pointer-events="none"/>
                </g>
                <g id="zoomMin">
                        <use xlink:href="#rim" fill="#404040">
                                <set attributeName="fill" to="#808080" begin="zoomminus.mouseover" end="zoomminus.mouseout"/>
                        </use>
                        <path d="M-4,0h8" fill="none" stroke="white" stroke-width="1.5" pointer-events="none"/>
                </g>
                <g id="dirArrow">
                        <path fill="none" stroke="white" stroke-width="1.5" d="M0,-3.0v7 M-2.5,-0.5L0,-3.0L2.5,-0.5"/>
                </g>
               <g id="resetDef">
                       <use xlink:href="#rim2" fill="#404040">
                               <set attributeName="fill" to="#808080" begin="reset.mouseover" end="reset.mouseout"/>
                       </use>
               </g>
        </defs>

<script type="text/javascript">
var viewWidth = 1329;
var viewHeight = 218;
var sectionId = 'dynsection-0';
</script>
<script xlink:href="svgpan.js"/>
<svg id="graph" class="graph">
<g id="viewport">
<title>/mnt/c/Users/stefa/Desktop/system_call/src/server.c</title>
<!-- Node0 -->
<g id="node1" class="node">
<title>Node0</title>
<polygon fill="#bfbfbf" stroke="#000000" points="606.5,-168.5 606.5,-209.5 728.5,-209.5 728.5,-168.5 606.5,-168.5"/>
<text text-anchor="start" x="614.5" y="-197.5" font-family="Helvetica,sans-Serif" font-size="10.00" fill="#000000">/mnt/c/Users/stefa</text>
<text text-anchor="start" x="614.5" y="-186.5" font-family="Helvetica,sans-Serif" font-size="10.00" fill="#000000">/Desktop/system_call</text>
<text text-anchor="middle" x="667.5" y="-175.5" font-family="Helvetica,sans-Serif" font-size="10.00" fill="#000000">/src/server.c</text>
</g>
<!-- Node1 -->
<g id="node2" class="node">
<title>Node1</title>
<polygon fill="none" stroke="#bfbfbf" points="0,-112.5 0,-131.5 55,-131.5 55,-112.5 0,-112.5"/>
<text text-anchor="middle" x="27.5" y="-119.5" font-family="Helvetica,sans-Serif" font-size="10.00" fill="#000000">signal.h</text>
</g>
<!-- Node0&#45;&gt;Node1 -->
<g id="edge1" class="edge">
<title>Node0&#45;&gt;Node1</title>
<path fill="none" stroke="#191970" d="M606.4462,-185.9829C497.8455,-179.994 264.2081,-164.2989 69.5,-132 68.2106,-131.7861 66.902,-131.555 65.5827,-131.3099"/>
<polygon fill="#191970" stroke="#191970" points="65.9047,-127.8028 55.4043,-129.2142 64.493,-134.659 65.9047,-127.8028"/>
</g>
<!-- Node2 -->
<g id="node3" class="node">
<title>Node2</title>
<polygon fill="none" stroke="#bfbfbf" points="69.5,-56.5 69.5,-75.5 119.5,-75.5 119.5,-56.5 69.5,-56.5"/>
<text text-anchor="middle" x="94.5" y="-63.5" font-family="Helvetica,sans-Serif" font-size="10.00" fill="#000000">stdio.h</text>
</g>
<!-- Node0&#45;&gt;Node2 -->
<g id="edge2" class="edge">
<title>Node0&#45;&gt;Node2</title>
<path fill="none" stroke="#191970" d="M606.4041,-187.0765C467.6425,-182.1154 137.9684,-166.7633 102.5,-132 90.5449,-120.2826 89.568,-100.6587 90.9674,-85.8475"/>
<polygon fill="#191970" stroke="#191970" points="94.4719,-86.052 92.3582,-75.6702 87.5364,-85.1041 94.4719,-86.052"/>
</g>
<!-- Node3 -->
<g id="node4" class="node">
<title>Node3</title>
<polygon fill="none" stroke="#bfbfbf" points="224,-112.5 224,-131.5 277,-131.5 277,-112.5 224,-112.5"/>
<text text-anchor="middle" x="250.5" y="-119.5" font-family="Helvetica,sans-Serif" font-size="10.00" fill="#000000">string.h</text>
</g>
<!-- Node0&#45;&gt;Node3 -->
<g id="edge3" class="edge">
<title>Node0&#45;&gt;Node3</title>
<path fill="none" stroke="#191970" d="M606.3797,-182.196C532.8461,-173.4888 405.5612,-156.7576 287.1137,-131.9083"/>
<polygon fill="#191970" stroke="#191970" points="287.6552,-128.4454 277.1465,-129.7934 286.2022,-135.2929 287.6552,-128.4454"/>
</g>
<!-- Node4 -->
<g id="node5" class="node">
<title>Node4</title>
<polygon fill="none" stroke="#bfbfbf" points="148,-56.5 148,-75.5 201,-75.5 201,-56.5 148,-56.5"/>
<text text-anchor="middle" x="174.5" y="-63.5" font-family="Helvetica,sans-Serif" font-size="10.00" fill="#000000">stdlib.h</text>
</g>
<!-- Node0&#45;&gt;Node4 -->
<g id="edge4" class="edge">
<title>Node0&#45;&gt;Node4</title>
<path fill="none" stroke="#191970" d="M606.1484,-187.7858C497.7574,-184.5925 277.8371,-173.0949 214.5,-132 197.6964,-121.0973 186.8774,-100.4202 180.7838,-85.103"/>
<polygon fill="#191970" stroke="#191970" points="184.013,-83.7417 177.3046,-75.5412 177.4349,-86.1352 184.013,-83.7417"/>
</g>
<!-- Node5 -->
<g id="node6" class="node">
<title>Node5</title>
<polygon fill="none" stroke="#bfbfbf" points="295.5,-112.5 295.5,-131.5 351.5,-131.5 351.5,-112.5 295.5,-112.5"/>
<text text-anchor="middle" x="323.5" y="-119.5" font-family="Helvetica,sans-Serif" font-size="10.00" fill="#000000">unistd.h</text>
</g>
<!-- Node0&#45;&gt;Node5 -->
<g id="edge5" class="edge">
<title>Node0&#45;&gt;Node5</title>
<path fill="none" stroke="#191970" d="M606.3336,-179.1334C546.3459,-169.1204 452.1172,-152.4974 361.6011,-132.1209"/>
<polygon fill="#191970" stroke="#191970" points="362.25,-128.6792 351.7233,-129.8786 360.7004,-135.5055 362.25,-128.6792"/>
</g>
<!-- Node6 -->
<g id="node7" class="node">
<title>Node6</title>
<polygon fill="none" stroke="#bfbfbf" points="369.5,-112.5 369.5,-131.5 433.5,-131.5 433.5,-112.5 369.5,-112.5"/>
<text text-anchor="middle" x="401.5" y="-119.5" font-family="Helvetica,sans-Serif" font-size="10.00" fill="#000000">sys/stat.h</text>
</g>
<!-- Node0&#45;&gt;Node6 -->
<g id="edge6" class="edge">
<title>Node0&#45;&gt;Node6</title>
<path fill="none" stroke="#191970" d="M606.4742,-173.6288C556.5273,-161.0482 487.2007,-143.5863 443.3493,-132.541"/>
<polygon fill="#191970" stroke="#191970" points="444.1389,-129.1306 433.5868,-130.082 442.4291,-135.9186 444.1389,-129.1306"/>
</g>
<!-- Node7 -->
<g id="node8" class="node">
<title>Node7</title>
<polygon fill="none" stroke="#bfbfbf" points="451.5,-112.5 451.5,-131.5 513.5,-131.5 513.5,-112.5 451.5,-112.5"/>
<text text-anchor="middle" x="482.5" y="-119.5" font-family="Helvetica,sans-Serif" font-size="10.00" fill="#000000">stdbool.h</text>
</g>
<!-- Node0&#45;&gt;Node7 -->
<g id="edge7" class="edge">
<title>Node0&#45;&gt;Node7</title>
<path fill="none" stroke="#191970" d="M610.7367,-168.4425C580.5984,-157.5275 544.4792,-144.4465 518.2648,-134.9527"/>
<polygon fill="#191970" stroke="#191970" points="519.3302,-131.6161 508.736,-131.5017 516.9465,-138.1978 519.3302,-131.6161"/>
</g>
<!-- Node8 -->
<g id="node9" class="node">
<title>Node8</title>
<polygon fill="none" stroke="#bfbfbf" points="532,-112.5 532,-131.5 597,-131.5 597,-112.5 532,-112.5"/>
<text text-anchor="middle" x="564.5" y="-119.5" font-family="Helvetica,sans-Serif" font-size="10.00" fill="#000000">inttypes.h</text>
</g>
<!-- Node0&#45;&gt;Node8 -->
<g id="edge8" class="edge">
<title>Node0&#45;&gt;Node8</title>
<path fill="none" stroke="#191970" d="M635.7562,-168.3511C620.337,-158.3212 602.1329,-146.4797 587.9843,-137.2762"/>
<polygon fill="#191970" stroke="#191970" points="589.6333,-134.1735 579.3422,-131.6546 585.8163,-140.0413 589.6333,-134.1735"/>
</g>
<!-- Node9 -->
<g id="node10" class="node">
<title>Node9</title>
<polygon fill="none" stroke="#bfbfbf" points="615,-112.5 615,-131.5 666,-131.5 666,-112.5 615,-112.5"/>
<text text-anchor="middle" x="640.5" y="-119.5" font-family="Helvetica,sans-Serif" font-size="10.00" fill="#000000">errno.h</text>
</g>
<!-- Node0&#45;&gt;Node9 -->
<g id="edge9" class="edge">
<title>Node0&#45;&gt;Node9</title>
<path fill="none" stroke="#191970" d="M659.105,-168.168C655.6273,-159.5381 651.6195,-149.5928 648.2163,-141.1479"/>
<polygon fill="#191970" stroke="#191970" points="651.4255,-139.7474 644.4414,-131.7805 644.9329,-142.3639 651.4255,-139.7474"/>
</g>
<!-- Node10 -->
<g id="node11" class="node">
<title>Node10</title>
<polygon fill="none" stroke="#bfbfbf" points="669.5,-56.5 669.5,-75.5 735.5,-75.5 735.5,-56.5 669.5,-56.5"/>
<text text-anchor="middle" x="702.5" y="-63.5" font-family="Helvetica,sans-Serif" font-size="10.00" fill="#000000">sys/msg.h</text>
</g>
<!-- Node0&#45;&gt;Node10 -->
<g id="edge10" class="edge">
<title>Node0&#45;&gt;Node10</title>
<path fill="none" stroke="#191970" d="M673.3582,-168.4126C679.9473,-145.2565 690.5663,-107.9384 697.0034,-85.3165"/>
<polygon fill="#191970" stroke="#191970" points="700.421,-86.0943 699.7916,-75.5182 693.6883,-84.1784 700.421,-86.0943"/>
</g>
<!-- Node11 -->
<g id="node12" class="node">
<title>Node11</title>
<polygon fill="none" stroke="#bfbfbf" points="851.5,-.5 851.5,-19.5 923.5,-19.5 923.5,-.5 851.5,-.5"/>
<text text-anchor="middle" x="887.5" y="-7.5" font-family="Helvetica,sans-Serif" font-size="10.00" fill="#000000">sys/types.h</text>
</g>
<!-- Node0&#45;&gt;Node11 -->
<g id="edge11" class="edge">
<title>Node0&#45;&gt;Node11</title>
<path fill="none" stroke="#191970" d="M728.6149,-176.3007C775.4585,-165.4883 835.0987,-149.0369 853.5,-132 882.1586,-105.4665 887.4162,-57.0196 887.9494,-29.8423"/>
<polygon fill="#191970" stroke="#191970" points="891.4493,-29.6208 887.943,-19.623 884.4493,-29.6252 891.4493,-29.6208"/>
</g>
<!-- Node12 -->
<g id="node13" class="node">
<title>Node12</title>
<polygon fill="none" stroke="#bfbfbf" points="1035,-112.5 1035,-131.5 1082,-131.5 1082,-112.5 1035,-112.5"/>
<text text-anchor="middle" x="1058.5" y="-119.5" font-family="Helvetica,sans-Serif" font-size="10.00" fill="#000000">fcntl.h</text>
</g>
<!-- Node0&#45;&gt;Node12 -->
<g id="edge12" class="edge">
<title>Node0&#45;&gt;Node12</title>
<path fill="none" stroke="#191970" d="M728.7976,-181.8256C798.381,-173.1042 915.3544,-156.6965 1024.9129,-131.8714"/>
<polygon fill="#191970" stroke="#191970" points="1025.8468,-135.2481 1034.8109,-129.6006 1024.2815,-128.4254 1025.8468,-135.2481"/>
</g>
<!-- Node13 -->
<g id="node14" class="node">
<title>Node13</title>
<g id="a_node14"><a xlink:href="err__exit_8h.html" target="_top" xlink:title="Contiene la definizione della funzione di stampa degli errori. ">
<polygon fill="none" stroke="#000000" points="1100,-112.5 1100,-131.5 1163,-131.5 1163,-112.5 1100,-112.5"/>
<text text-anchor="middle" x="1131.5" y="-119.5" font-family="Helvetica,sans-Serif" font-size="10.00" fill="#000000">err_exit.h</text>
</a>
</g>
</g>
<!-- Node0&#45;&gt;Node13 -->
<g id="edge13" class="edge">
<title>Node0&#45;&gt;Node13</title>
<path fill="none" stroke="#191970" d="M728.5794,-182.9494C809.266,-174.4773 955.9155,-157.4227 1089.6775,-132.1998"/>
<polygon fill="#191970" stroke="#191970" points="1090.5262,-135.6011 1099.6942,-130.2909 1089.2157,-128.7249 1090.5262,-135.6011"/>
</g>
<!-- Node14 -->
<g id="node15" class="node">
<title>Node14</title>
<g id="a_node15"><a xlink:href="defines_8h.html" target="_top" xlink:title="Contiene la definizioni di variabili e funzioni specifiche del progetto. ">
<polygon fill="none" stroke="#000000" points="935,-56.5 935,-75.5 996,-75.5 996,-56.5 935,-56.5"/>
<text text-anchor="middle" x="965.5" y="-63.5" font-family="Helvetica,sans-Serif" font-size="10.00" fill="#000000">defines.h</text>
</a>
</g>
</g>
<!-- Node0&#45;&gt;Node14 -->
<g id="edge14" class="edge">
<title>Node0&#45;&gt;Node14</title>
<path fill="none" stroke="#191970" d="M728.5099,-178.9949C789.5783,-168.2031 878.6339,-150.1202 908.5,-132 928.009,-120.1636 944.3037,-99.3875 954.4067,-84.3008"/>
<polygon fill="#191970" stroke="#191970" points="957.4226,-86.0814 959.8705,-75.7732 951.5286,-82.305 957.4226,-86.0814"/>
</g>
<!-- Node16 -->
<g id="node17" class="node">
<title>Node16</title>
<g id="a_node17"><a xlink:href="shared__memory_8h.html" target="_top" xlink:title="Contiene la definizioni di variabili e funzioni specifiche per la gestione della MEMORIA CONDIVISA...">
<polygon fill="none" stroke="#000000" points="762.5,-56.5 762.5,-75.5 866.5,-75.5 866.5,-56.5 762.5,-56.5"/>
<text text-anchor="middle" x="814.5" y="-63.5" font-family="Helvetica,sans-Serif" font-size="10.00" fill="#000000">shared_memory.h</text>
</a>
</g>
</g>
<!-- Node0&#45;&gt;Node16 -->
<g id="edge17" class="edge">
<title>Node0&#45;&gt;Node16</title>
<path fill="none" stroke="#191970" d="M728.6807,-176.3702C771.8955,-166.064 824.3657,-150.2568 837.5,-132 847.8471,-117.6175 838.9083,-98.1703 829.3177,-84.1149"/>
<polygon fill="#191970" stroke="#191970" points="831.889,-81.7067 823.1174,-75.7645 826.2689,-85.8798 831.889,-81.7067"/>
</g>
<!-- Node17 -->
<g id="node18" class="node">
<title>Node17</title>
<g id="a_node18"><a xlink:href="semaphore_8h.html" target="_top" xlink:title="Contiene la definizioni di variabili e funzioni specifiche per la gestione dei SEMAFORI. ">
<polygon fill="none" stroke="#000000" points="1181.5,-112.5 1181.5,-131.5 1261.5,-131.5 1261.5,-112.5 1181.5,-112.5"/>
<text text-anchor="middle" x="1221.5" y="-119.5" font-family="Helvetica,sans-Serif" font-size="10.00" fill="#000000">semaphore.h</text>
</a>
</g>
</g>
<!-- Node0&#45;&gt;Node17 -->
<g id="edge19" class="edge">
<title>Node0&#45;&gt;Node17</title>
<path fill="none" stroke="#191970" d="M728.7584,-183.8571C822.1486,-175.6258 1005.8827,-157.8981 1171.5626,-132.0327"/>
<polygon fill="#191970" stroke="#191970" points="1172.1075,-135.4902 1181.4414,-130.4773 1171.0187,-128.5753 1172.1075,-135.4902"/>
</g>
<!-- Node18 -->
<g id="node19" class="node">
<title>Node18</title>
<g id="a_node19"><a xlink:href="fifo_8h.html" target="_top" xlink:title="Contiene la definizioni di variabili e funzioni specifiche per la gestione delle FIFO. ">
<polygon fill="none" stroke="#000000" points="1280,-112.5 1280,-131.5 1321,-131.5 1321,-112.5 1280,-112.5"/>
<text text-anchor="middle" x="1300.5" y="-119.5" font-family="Helvetica,sans-Serif" font-size="10.00" fill="#000000">fifo.h</text>
</a>
</g>
</g>
<!-- Node0&#45;&gt;Node18 -->
<g id="edge20" class="edge">
<title>Node0&#45;&gt;Node18</title>
<path fill="none" stroke="#191970" d="M728.5255,-187.802C836.4024,-184.6924 1067.6627,-173.5699 1269.7805,-131.6936"/>
<polygon fill="#191970" stroke="#191970" points="1270.6206,-135.0936 1279.6867,-129.6113 1269.1806,-128.2433 1270.6206,-135.0936"/>
</g>
<!-- Node19 -->
<g id="node20" class="node">
<title>Node19</title>
<g id="a_node20"><a xlink:href="debug_8h.html" target="_top" xlink:title="Contiene la definizioni di variabili e funzioni per il debugging. ">
<polygon fill="none" stroke="#000000" points="111.5,-112.5 111.5,-131.5 167.5,-131.5 167.5,-112.5 111.5,-112.5"/>
<text text-anchor="middle" x="139.5" y="-119.5" font-family="Helvetica,sans-Serif" font-size="10.00" fill="#000000">debug.h</text>
</a>
</g>
</g>
<!-- Node0&#45;&gt;Node19 -->
<g id="edge21" class="edge">
<title>Node0&#45;&gt;Node19</title>
<path fill="none" stroke="#191970" d="M606.1707,-184.1254C513.6631,-176.2505 333.1195,-158.8462 181.5,-132 180.2545,-131.7795 178.9907,-131.5446 177.7165,-131.2981"/>
<polygon fill="#191970" stroke="#191970" points="178.3784,-127.8609 167.8725,-129.2307 176.9396,-134.7114 178.3784,-127.8609"/>
</g>
<!-- Node20 -->
<g id="node21" class="node">
<title>Node20</title>
<g id="a_node21"><a xlink:href="message__queue_8h.html" target="_top" xlink:title="Contiene la definizioni di variabili e funzioni specifiche per la gestione delle CODE DEI MESSAGGI...">
<polygon fill="none" stroke="#000000" points="723,-112.5 723,-131.5 828,-131.5 828,-112.5 723,-112.5"/>
<text text-anchor="middle" x="775.5" y="-119.5" font-family="Helvetica,sans-Serif" font-size="10.00" fill="#000000">message_queue.h</text>
</a>
</g>
</g>
<!-- Node0&#45;&gt;Node20 -->
<g id="edge24" class="edge">
<title>Node0&#45;&gt;Node20</title>
<path fill="none" stroke="#191970" d="M700.7848,-168.3511C717.1064,-158.2256 736.4041,-146.254 751.2984,-137.0139"/>
<polygon fill="#191970" stroke="#191970" points="753.2848,-139.9005 759.9373,-131.6546 749.5946,-133.9522 753.2848,-139.9005"/>
</g>
<!-- Node21 -->
<g id="node22" class="node">
<title>Node21</title>
<g id="a_node22"><a xlink:href="server_8h.html" target="_top" xlink:title="Contiene la definizioni di variabili e funzioni specifiche del SERVER. ">
<polygon fill="none" stroke="#000000" points="960.5,-112.5 960.5,-131.5 1016.5,-131.5 1016.5,-112.5 960.5,-112.5"/>
<text text-anchor="middle" x="988.5" y="-119.5" font-family="Helvetica,sans-Serif" font-size="10.00" fill="#000000">server.h</text>
</a>
</g>
</g>
<!-- Node0&#45;&gt;Node21 -->
<g id="edge26" class="edge">
<title>Node0&#45;&gt;Node21</title>
<path fill="none" stroke="#191970" d="M728.5771,-177.1102C785.182,-165.9515 871.6787,-148.5458 946.5,-132 947.735,-131.7269 948.9897,-131.4463 950.2562,-131.1605"/>
<polygon fill="#191970" stroke="#191970" points="951.1028,-134.5572 960.0621,-128.9019 949.5316,-127.7358 951.1028,-134.5572"/>
</g>
<!-- Node14&#45;&gt;Node11 -->
<g id="edge15" class="edge">
<title>Node14&#45;&gt;Node11</title>
<path fill="none" stroke="#191970" d="M951.9134,-56.2455C940.1695,-47.814 922.9801,-35.4729 909.3118,-25.6598"/>
<polygon fill="#191970" stroke="#191970" points="911.0954,-22.6316 900.9309,-19.6427 907.0129,-28.3179 911.0954,-22.6316"/>
</g>
<!-- Node15 -->
<g id="node16" class="node">
<title>Node15</title>
<polygon fill="none" stroke="#bfbfbf" points="942,-.5 942,-19.5 1001,-19.5 1001,-.5 942,-.5"/>
<text text-anchor="middle" x="971.5" y="-7.5" font-family="Helvetica,sans-Serif" font-size="10.00" fill="#000000">sys/ipc.h</text>
</g>
<!-- Node14&#45;&gt;Node15 -->
<g id="edge16" class="edge">
<title>Node14&#45;&gt;Node15</title>
<path fill="none" stroke="#191970" d="M966.5451,-56.2455C967.328,-48.9382 968.4256,-38.6944 969.3888,-29.7046"/>
<polygon fill="#191970" stroke="#191970" points="972.8815,-29.9587 970.4669,-19.6427 965.9214,-29.2129 972.8815,-29.9587"/>
</g>
<!-- Node16&#45;&gt;Node11 -->
<g id="edge18" class="edge">
<title>Node16&#45;&gt;Node11</title>
<path fill="none" stroke="#191970" d="M827.2156,-56.2455C838.102,-47.8943 853.9883,-35.7076 866.72,-25.9408"/>
<polygon fill="#191970" stroke="#191970" points="869.1261,-28.5063 874.9301,-19.6427 864.8654,-22.9523 869.1261,-28.5063"/>
</g>
<!-- Node19&#45;&gt;Node2 -->
<g id="edge22" class="edge">
<title>Node19&#45;&gt;Node2</title>
<path fill="none" stroke="#191970" d="M131.6616,-112.2455C125.338,-104.3761 116.2776,-93.101 108.6864,-83.6542"/>
<polygon fill="#191970" stroke="#191970" points="111.2408,-81.2454 102.2486,-75.6427 105.7842,-85.6302 111.2408,-81.2454"/>
</g>
<!-- Node19&#45;&gt;Node4 -->
<g id="edge23" class="edge">
<title>Node19&#45;&gt;Node4</title>
<path fill="none" stroke="#191970" d="M145.5965,-112.2455C150.4145,-104.5367 157.2751,-93.5598 163.1032,-84.2348"/>
<polygon fill="#191970" stroke="#191970" points="166.1413,-85.9777 168.4733,-75.6427 160.2053,-82.2677 166.1413,-85.9777"/>
</g>
<!-- Node20&#45;&gt;Node10 -->
<g id="edge25" class="edge">
<title>Node20&#45;&gt;Node10</title>
<path fill="none" stroke="#191970" d="M762.7844,-112.2455C751.898,-103.8943 736.0117,-91.7076 723.28,-81.9408"/>
<polygon fill="#191970" stroke="#191970" points="725.1346,-78.9523 715.0699,-75.6427 720.8739,-84.5063 725.1346,-78.9523"/>
</g>
<!-- Node21&#45;&gt;Node14 -->
<g id="edge27" class="edge">
<title>Node21&#45;&gt;Node14</title>
<path fill="none" stroke="#191970" d="M984.4937,-112.2455C981.4265,-104.7776 977.0997,-94.2427 973.3503,-85.1137"/>
<polygon fill="#191970" stroke="#191970" points="976.4972,-83.5631 969.4604,-75.6427 970.0221,-86.2226 976.4972,-83.5631"/>
</g>
</g>
</svg>
        <g id="navigator" transform="translate(0 0)" fill="#404254">
                <rect fill="#f2f5e9" fill-opacity="0.5" stroke="#606060" stroke-width=".5" x="0" y="0" width="60" height="60"/>
                <use id="zoomplus" xlink:href="#zoomPlus" x="17" y="9" onmousedown="handleZoom(evt,'in')"/>
                <use id="zoomminus" xlink:href="#zoomMin" x="42" y="9" onmousedown="handleZoom(evt,'out')"/>
                <use id="reset" xlink:href="#resetDef" x="30" y="36" onmousedown="handleReset()"/>
                <g id="arrowUp" xlink:href="#dirArrow" transform="translate(30 24)" onmousedown="handlePan(0,-1)">
                  <use xlink:href="#rim" fill="#404040">
                        <set attributeName="fill" to="#808080" begin="arrowUp.mouseover" end="arrowUp.mouseout"/>
                  </use>
                  <path fill="none" stroke="white" stroke-width="1.5" d="M0,-3.0v7 M-2.5,-0.5L0,-3.0L2.5,-0.5"/>
                </g>
                <g id="arrowRight" xlink:href="#dirArrow" transform="rotate(90) translate(36 -43)" onmousedown="handlePan(1,0)">
                  <use xlink:href="#rim" fill="#404040">
                        <set attributeName="fill" to="#808080" begin="arrowRight.mouseover" end="arrowRight.mouseout"/>
                  </use>
                  <path fill="none" stroke="white" stroke-width="1.5" d="M0,-3.0v7 M-2.5,-0.5L0,-3.0L2.5,-0.5"/>
                </g>
                <g id="arrowDown" xlink:href="#dirArrow" transform="rotate(180) translate(-30 -48)" onmousedown="handlePan(0,1)">
                  <use xlink:href="#rim" fill="#404040">
                        <set attributeName="fill" to="#808080" begin="arrowDown.mouseover" end="arrowDown.mouseout"/>
                  </use>
                  <path fill="none" stroke="white" stroke-width="1.5" d="M0,-3.0v7 M-2.5,-0.5L0,-3.0L2.5,-0.5"/>
                </g>
                <g id="arrowLeft" xlink:href="#dirArrow" transform="rotate(270) translate(-36 17)" onmousedown="handlePan(-1,0)">
                  <use xlink:href="#rim" fill="#404040">
                        <set attributeName="fill" to="#808080" begin="arrowLeft.mouseover" end="arrowLeft.mouseout"/>
                  </use>
                  <path fill="none" stroke="white" stroke-width="1.5" d="M0,-3.0v7 M-2.5,-0.5L0,-3.0L2.5,-0.5"/>
                </g>
        </g>
        <svg viewBox="0 0 15 15" width="100%" height="30px" preserveAspectRatio="xMaxYMin meet">
         <g id="arrow_out" transform="scale(0.3 0.3)">
          <a xlink:href="server_8c__incl_org.svg" target="_base">
           <rect id="button" ry="5" rx="5" y="6" x="6" height="38" width="38"
                fill="#f2f5e9" fill-opacity="0.5" stroke="#606060" stroke-width="1.0"/>
           <path id="arrow"
             d="M 11.500037,31.436501 C 11.940474,20.09759 22.043105,11.32322 32.158766,21.979434 L 37.068811,17.246167 C 37.068811,17.246167 37.088388,32 37.088388,32 L 22.160133,31.978069 C 22.160133,31.978069 26.997745,27.140456 26.997745,27.140456 C 18.528582,18.264221 13.291696,25.230495 11.500037,31.436501 z"
             style="fill:#404040;"/>
          </a>
         </g>
        </svg>
</svg>
