<?xml version="1.0" encoding="UTF-8" standalone="no"?>
<!DOCTYPE svg PUBLIC "-//W3C//DTD SVG 1.1//EN"
 "http://www.w3.org/Graphics/SVG/1.1/DTD/svg11.dtd">
<!-- Generated by graphviz version 2.40.1 (20161225.0304)
 -->
<!-- Title: main Pages: 1 -->
<svg width="614pt" height="691pt"
 viewBox="0.00 0.00 614.00 690.96" xmlns="http://www.w3.org/2000/svg" xmlns:xlink="http://www.w3.org/1999/xlink">
<g id="graph0" class="graph" transform="scale(1 1) rotate(0) translate(4 686.9604)">
<title>main</title>
<!-- Node6 -->
<g id="node1" class="node">
<title>Node6</title>
<polygon fill="#bfbfbf" stroke="#000000" points="0,-326.4068 0,-345.4068 41,-345.4068 41,-326.4068 0,-326.4068"/>
<text text-anchor="middle" x="20.5" y="-333.4068" font-family="Helvetica,sans-Serif" font-size="10.00" fill="#000000">main</text>
</g>
<!-- Node7 -->
<g id="node2" class="node">
<title>Node7</title>
<g id="a_node2"><a xlink:href="err__exit_8c.html#aa223b0ecfe538d130ece562646a37d27" target="_top" xlink:title="Prints the error message of the last failed system call and terminates the calling process...">
<polygon fill="none" stroke="#000000" points="557,-364.4068 557,-383.4068 606,-383.4068 606,-364.4068 557,-364.4068"/>
<text text-anchor="middle" x="581.5" y="-371.4068" font-family="Helvetica,sans-Serif" font-size="10.00" fill="#000000">ErrExit</text>
</a>
</g>
</g>
<!-- Node6&#45;&gt;Node7 -->
<g id="edge1" class="edge">
<title>Node6&#45;&gt;Node7</title>
<path fill="none" stroke="#191970" d="M21.2575,-345.565C24.7815,-388.0107 40.9491,-557.4931 77,-593.9068 174.8508,-692.7422 243.804,-648.2517 382,-663.9068 443.3852,-670.8606 473.063,-702.8752 521,-663.9068 563.278,-629.5386 577.0158,-453.4142 580.4955,-393.7205"/>
<polygon fill="#191970" stroke="#191970" points="584.008,-393.5872 581.0601,-383.4107 577.0185,-393.2043 584.008,-393.5872"/>
</g>
<!-- Node8 -->
<g id="node3" class="node">
<title>Node8</title>
<g id="a_node3"><a xlink:href="server_8c.html#a48d605ff689f470746c858648f0a98c2" target="_top" xlink:title="Chiude tutte le IPC e termina. ">
<polygon fill="none" stroke="#000000" points="224.5,-573.4068 224.5,-592.4068 342.5,-592.4068 342.5,-573.4068 224.5,-573.4068"/>
<text text-anchor="middle" x="283.5" y="-580.4068" font-family="Helvetica,sans-Serif" font-size="10.00" fill="#000000">SIGINTSignalHandler</text>
</a>
</g>
</g>
<!-- Node6&#45;&gt;Node8 -->
<g id="edge2" class="edge">
<title>Node6&#45;&gt;Node8</title>
<path fill="none" stroke="#191970" d="M21.4354,-345.6097C25.4692,-385.2858 42.7436,-534.4733 77,-563.9068 118.2537,-599.3524 182.7323,-599.5796 228.6572,-593.8114"/>
<polygon fill="#191970" stroke="#191970" points="229.3166,-597.2535 238.7407,-592.4124 228.3545,-590.3199 229.3166,-597.2535"/>
</g>
<!-- Node12 -->
<g id="node7" class="node">
<title>Node12</title>
<g id="a_node7"><a xlink:href="defines_8c.html#a2d341373a96ffea0944553e5452cdbca" target="_top" xlink:title="get_ipc_key">
<polygon fill="none" stroke="#000000" points="93.5,-535.4068 93.5,-554.4068 168.5,-554.4068 168.5,-535.4068 93.5,-535.4068"/>
<text text-anchor="middle" x="131" y="-542.4068" font-family="Helvetica,sans-Serif" font-size="10.00" fill="#000000">get_ipc_key</text>
</a>
</g>
</g>
<!-- Node6&#45;&gt;Node12 -->
<g id="edge10" class="edge">
<title>Node6&#45;&gt;Node12</title>
<path fill="none" stroke="#191970" d="M22.1556,-345.4272C28.3506,-380.0606 51.1374,-498.7371 77,-525.9068 79.1906,-528.2081 81.6761,-530.2309 84.3489,-532.0089"/>
<polygon fill="#191970" stroke="#191970" points="82.929,-535.2199 93.3905,-536.8954 86.2572,-529.0618 82.929,-535.2199"/>
</g>
<!-- Node14 -->
<g id="node9" class="node">
<title>Node14</title>
<g id="a_node9"><a xlink:href="shared__memory_8c.html#a660a60242a5174977ab2debcdbd0e587" target="_top" xlink:title="Ottiene l&#39;id o crea una memoria condivisa. ">
<polygon fill="none" stroke="#000000" points="221,-497.4068 221,-516.4068 346,-516.4068 346,-497.4068 221,-497.4068"/>
<text text-anchor="middle" x="283.5" y="-504.4068" font-family="Helvetica,sans-Serif" font-size="10.00" fill="#000000">alloc_shared_memory</text>
</a>
</g>
</g>
<!-- Node6&#45;&gt;Node14 -->
<g id="edge13" class="edge">
<title>Node6&#45;&gt;Node14</title>
<path fill="none" stroke="#191970" d="M22.7989,-345.6858C28.317,-366.9878 44.344,-417.8376 77,-444.9068 99.9447,-463.9262 174.2421,-483.2731 227.1298,-495.1812"/>
<polygon fill="#191970" stroke="#191970" points="226.5482,-498.6373 237.0692,-497.3889 228.066,-491.8038 226.5482,-498.6373"/>
</g>
<!-- Node15 -->
<g id="node10" class="node">
<title>Node15</title>
<g id="a_node10"><a xlink:href="shared__memory_8c.html#ab2ffe00ec7425a3a4229cd0d53ed901c" target="_top" xlink:title="Recupera il puntatore alla memoria condivisa aggiungendola allo spazio degli indirizzi. ">
<polygon fill="none" stroke="#000000" points="393,-421.4068 393,-440.4068 510,-440.4068 510,-421.4068 393,-421.4068"/>
<text text-anchor="middle" x="451.5" y="-428.4068" font-family="Helvetica,sans-Serif" font-size="10.00" fill="#000000">get_shared_memory</text>
</a>
</g>
</g>
<!-- Node6&#45;&gt;Node15 -->
<g id="edge15" class="edge">
<title>Node6&#45;&gt;Node15</title>
<path fill="none" stroke="#191970" d="M24.3371,-345.5191C31.6739,-362.4466 49.4538,-397.1749 77,-411.9068 128.1135,-439.2427 289.3246,-437.7421 382.7328,-434.2957"/>
<polygon fill="#191970" stroke="#191970" points="383.0851,-437.7848 392.9425,-433.9013 382.8148,-430.79 383.0851,-437.7848"/>
</g>
<!-- Node16 -->
<g id="node11" class="node">
<title>Node16</title>
<g id="a_node11"><a xlink:href="defines_8c.html#afd25e0dffe44c8dd59ae86caabb94287" target="_top" xlink:title="get_ipc_key2">
<polygon fill="none" stroke="#000000" points="90.5,-497.4068 90.5,-516.4068 171.5,-516.4068 171.5,-497.4068 90.5,-497.4068"/>
<text text-anchor="middle" x="131" y="-504.4068" font-family="Helvetica,sans-Serif" font-size="10.00" fill="#000000">get_ipc_key2</text>
</a>
</g>
</g>
<!-- Node6&#45;&gt;Node16 -->
<g id="edge17" class="edge">
<title>Node6&#45;&gt;Node16</title>
<path fill="none" stroke="#191970" d="M21.6332,-345.492C25.1368,-371.0871 38.0198,-441.8747 77,-482.9068 80.5739,-486.6688 84.8434,-489.8811 89.3942,-492.614"/>
<polygon fill="#191970" stroke="#191970" points="87.8976,-495.7808 98.3833,-497.2973 91.132,-489.5728 87.8976,-495.7808"/>
</g>
<!-- Node17 -->
<g id="node12" class="node">
<title>Node17</title>
<g id="a_node12"><a xlink:href="semaphore_8c.html#a2081de3d1c08dbacaf10ca46a717fabb" target="_top" xlink:title="Crea un insieme di semafori. ">
<polygon fill="none" stroke="#000000" points="77,-383.4068 77,-402.4068 185,-402.4068 185,-383.4068 77,-383.4068"/>
<text text-anchor="middle" x="131" y="-390.4068" font-family="Helvetica,sans-Serif" font-size="10.00" fill="#000000">createSemaphores</text>
</a>
</g>
</g>
<!-- Node6&#45;&gt;Node17 -->
<g id="edge19" class="edge">
<title>Node6&#45;&gt;Node17</title>
<path fill="none" stroke="#191970" d="M36.0704,-345.6269C47.2751,-352.4662 62.8458,-361.6558 77,-368.9068 83.8424,-372.412 91.3061,-375.9216 98.441,-379.1327"/>
<polygon fill="#191970" stroke="#191970" points="97.3156,-382.4617 107.8774,-383.2979 100.1423,-376.0578 97.3156,-382.4617"/>
</g>
<!-- Node18 -->
<g id="node13" class="node">
<title>Node18</title>
<g id="a_node13"><a xlink:href="semaphore_8c.html#a8df9b8ea63eaf93d09f437b356a4a1eb" target="_top" xlink:title="Inizializza i valori del set di semafori semid ai valori in values. ">
<polygon fill="none" stroke="#000000" points="250.5,-269.4068 250.5,-288.4068 316.5,-288.4068 316.5,-269.4068 250.5,-269.4068"/>
<text text-anchor="middle" x="283.5" y="-276.4068" font-family="Helvetica,sans-Serif" font-size="10.00" fill="#000000">semSetAll</text>
</a>
</g>
</g>
<!-- Node6&#45;&gt;Node18 -->
<g id="edge21" class="edge">
<title>Node6&#45;&gt;Node18</title>
<path fill="none" stroke="#191970" d="M31.2642,-326.2173C42.0058,-317.1764 59.4037,-304.1692 77,-297.9068 130.8954,-278.7259 197.4425,-276.036 240.1716,-276.755"/>
<polygon fill="#191970" stroke="#191970" points="240.1541,-280.2555 250.2348,-276.9951 240.3211,-273.2575 240.1541,-280.2555"/>
</g>
<!-- Node19 -->
<g id="node14" class="node">
<title>Node19</title>
<g id="a_node14"><a xlink:href="fifo_8c.html#a54a1ae8162825128cf02f95692402c18" target="_top" xlink:title="Facilita la creazione di una FIFO (o ne ottiene una esistente) in modalita&#39; lettura o scrittura...">
<polygon fill="none" stroke="#000000" points="249.5,-345.4068 249.5,-364.4068 317.5,-364.4068 317.5,-345.4068 249.5,-345.4068"/>
<text text-anchor="middle" x="283.5" y="-352.4068" font-family="Helvetica,sans-Serif" font-size="10.00" fill="#000000">create_fifo</text>
</a>
</g>
</g>
<!-- Node6&#45;&gt;Node19 -->
<g id="edge23" class="edge">
<title>Node6&#45;&gt;Node19</title>
<path fill="none" stroke="#191970" d="M41.1372,-337.3977C83.5444,-340.4613 181.3271,-347.5255 238.8928,-351.6842"/>
<polygon fill="#191970" stroke="#191970" points="238.9249,-355.1956 249.1511,-352.4253 239.4293,-348.2138 238.9249,-355.1956"/>
</g>
<!-- Node21 -->
<g id="node16" class="node">
<title>Node21</title>
<g id="a_node16"><a xlink:href="server_8c.html#ab53aa0eb44ad55d2e189f18d3bd6017b" target="_top" xlink:title="string_to_int">
<polygon fill="none" stroke="#000000" points="92.5,-307.4068 92.5,-326.4068 169.5,-326.4068 169.5,-307.4068 92.5,-307.4068"/>
<text text-anchor="middle" x="131" y="-314.4068" font-family="Helvetica,sans-Serif" font-size="10.00" fill="#000000">string_to_int</text>
</a>
</g>
</g>
<!-- Node6&#45;&gt;Node21 -->
<g id="edge27" class="edge">
<title>Node6&#45;&gt;Node21</title>
<path fill="none" stroke="#191970" d="M41.0252,-332.3776C52.6888,-330.3721 67.8244,-327.7696 82.3438,-325.273"/>
<polygon fill="#191970" stroke="#191970" points="82.9847,-328.7143 92.247,-323.5702 81.7984,-321.8155 82.9847,-328.7143"/>
</g>
<!-- Node22 -->
<g id="node17" class="node">
<title>Node22</title>
<g id="a_node17"><a xlink:href="semaphore_8c.html#a7bad0eb0b0c6ac701b59c36b8b7837bf" target="_top" xlink:title="Esegue la signal sul semaforo sem_num: incrementa il valore di 1. ">
<polygon fill="none" stroke="#000000" points="249.5,-231.4068 249.5,-250.4068 317.5,-250.4068 317.5,-231.4068 249.5,-231.4068"/>
<text text-anchor="middle" x="283.5" y="-238.4068" font-family="Helvetica,sans-Serif" font-size="10.00" fill="#000000">semSignal</text>
</a>
</g>
</g>
<!-- Node6&#45;&gt;Node22 -->
<g id="edge29" class="edge">
<title>Node6&#45;&gt;Node22</title>
<path fill="none" stroke="#191970" d="M26.3836,-326.0513C35.3722,-311.9538 53.9347,-286.3617 77,-273.9068 127.8685,-246.4385 195.3496,-240.3737 239.0961,-239.7135"/>
<polygon fill="#191970" stroke="#191970" points="239.1611,-243.2132 249.139,-239.6506 239.1172,-236.2134 239.1611,-243.2132"/>
</g>
<!-- Node24 -->
<g id="node19" class="node">
<title>Node24</title>
<g id="a_node19"><a xlink:href="semaphore_8c.html#a2581efba6a0833e3f289de94c779cc21" target="_top" xlink:title="Esegue la wait sul semaforo sem_num: decrementa il valore di 1 ed eventualmente mette in attesa il pr...">
<polygon fill="none" stroke="#000000" points="254,-193.4068 254,-212.4068 313,-212.4068 313,-193.4068 254,-193.4068"/>
<text text-anchor="middle" x="283.5" y="-200.4068" font-family="Helvetica,sans-Serif" font-size="10.00" fill="#000000">semWait</text>
</a>
</g>
</g>
<!-- Node6&#45;&gt;Node24 -->
<g id="edge32" class="edge">
<title>Node6&#45;&gt;Node24</title>
<path fill="none" stroke="#191970" d="M23.0983,-326.3195C29.0164,-306.4567 45.487,-260.8373 77,-238.9068 126.7758,-204.2669 199.2483,-199.47 243.7779,-200.3418"/>
<polygon fill="#191970" stroke="#191970" points="243.8215,-203.8446 253.9227,-200.6483 244.033,-196.8478 243.8215,-203.8446"/>
</g>
<!-- Node25 -->
<g id="node20" class="node">
<title>Node25</title>
<g id="a_node20"><a xlink:href="semaphore_8c.html#a40485eedbf6d56f7fd27bce5a537efbe" target="_top" xlink:title="Attende che il semaforo sem_num raggiunga il valore zero. ">
<polygon fill="none" stroke="#000000" points="90,-155.4068 90,-174.4068 172,-174.4068 172,-155.4068 90,-155.4068"/>
<text text-anchor="middle" x="131" y="-162.4068" font-family="Helvetica,sans-Serif" font-size="10.00" fill="#000000">semWaitZero</text>
</a>
</g>
</g>
<!-- Node6&#45;&gt;Node25 -->
<g id="edge34" class="edge">
<title>Node6&#45;&gt;Node25</title>
<path fill="none" stroke="#191970" d="M21.6332,-326.3216C25.1368,-300.7265 38.0198,-229.9389 77,-188.9068 80.5739,-185.1448 84.8434,-181.9325 89.3942,-179.1996"/>
<polygon fill="#191970" stroke="#191970" points="91.132,-182.2408 98.3833,-174.5163 87.8976,-176.0328 91.132,-182.2408"/>
</g>
<!-- Node29 -->
<g id="node24" class="node">
<title>Node29</title>
<g id="a_node24"><a xlink:href="defines_8c.html#aea9b93cad897755a46cb9e3373ba8cc2" target="_top" xlink:title="Rende bloccante oppure non bloccante un file descriptor. ">
<polygon fill="none" stroke="#000000" points="103,-117.4068 103,-136.4068 159,-136.4068 159,-117.4068 103,-117.4068"/>
<text text-anchor="middle" x="131" y="-124.4068" font-family="Helvetica,sans-Serif" font-size="10.00" fill="#000000">blockFD</text>
</a>
</g>
</g>
<!-- Node6&#45;&gt;Node29 -->
<g id="edge47" class="edge">
<title>Node6&#45;&gt;Node29</title>
<path fill="none" stroke="#191970" d="M22.1556,-326.3864C28.3506,-291.7529 51.1374,-173.0765 77,-145.9068 81.4968,-141.1828 87.2366,-137.6322 93.2867,-134.9638"/>
<polygon fill="#191970" stroke="#191970" points="94.7182,-138.1674 102.9154,-131.455 92.3214,-131.5905 94.7182,-138.1674"/>
</g>
<!-- Node30 -->
<g id="node25" class="node">
<title>Node30</title>
<g id="a_node25"><a xlink:href="server_8c.html#ac94aa68fd5fccbf448cfe8788bd46225" target="_top" xlink:title="aggiungiAMatrice">
<polygon fill="none" stroke="#000000" points="80.5,-79.4068 80.5,-98.4068 181.5,-98.4068 181.5,-79.4068 80.5,-79.4068"/>
<text text-anchor="middle" x="131" y="-86.4068" font-family="Helvetica,sans-Serif" font-size="10.00" fill="#000000">aggiungiAMatrice</text>
</a>
</g>
</g>
<!-- Node6&#45;&gt;Node30 -->
<g id="edge48" class="edge">
<title>Node6&#45;&gt;Node30</title>
<path fill="none" stroke="#191970" d="M21.68,-326.1568C26.6057,-286.9432 46.6917,-141.2541 77,-107.9068 78.2178,-106.5669 79.5358,-105.3214 80.9335,-104.1638"/>
<polygon fill="#191970" stroke="#191970" points="83.2172,-106.8522 89.6683,-98.4478 79.3841,-100.9949 83.2172,-106.8522"/>
</g>
<!-- Node31 -->
<g id="node26" class="node">
<title>Node31</title>
<g id="a_node26"><a xlink:href="server_8c.html#aefaefec035e6211d28b35a6d2ce3b3fa" target="_top" xlink:title="costruisciStringa">
<polygon fill="none" stroke="#000000" points="82,-41.4068 82,-60.4068 180,-60.4068 180,-41.4068 82,-41.4068"/>
<text text-anchor="middle" x="131" y="-48.4068" font-family="Helvetica,sans-Serif" font-size="10.00" fill="#000000">costruisciStringa</text>
</a>
</g>
</g>
<!-- Node6&#45;&gt;Node31 -->
<g id="edge49" class="edge">
<title>Node6&#45;&gt;Node31</title>
<path fill="none" stroke="#191970" d="M21.2918,-326.3391C25.017,-283.4935 42.0992,-109.6285 77,-69.9068 78.1726,-68.5723 79.4447,-67.3315 80.7967,-66.1778"/>
<polygon fill="#191970" stroke="#191970" points="82.9302,-68.9609 89.2772,-60.4776 79.0253,-63.1513 82.9302,-68.9609"/>
</g>
<!-- Node8&#45;&gt;Node7 -->
<g id="edge3" class="edge">
<title>Node8&#45;&gt;Node7</title>
<path fill="none" stroke="#191970" d="M296.18,-592.5462C334.5227,-620.4499 450.9039,-695.8502 521,-639.9068 559.8727,-608.8827 575.6836,-449.7185 580.1085,-393.5569"/>
<polygon fill="#191970" stroke="#191970" points="583.6056,-393.7257 580.8647,-383.4916 576.6253,-393.2012 583.6056,-393.7257"/>
</g>
<!-- Node9 -->
<g id="node4" class="node">
<title>Node9</title>
<g id="a_node4"><a xlink:href="shared__memory_8c.html#a6530d61365abd3e580722ed907ea5f5b" target="_top" xlink:title="Scollega la memoria condivisa dallo spazio degli indirizzi. ">
<polygon fill="none" stroke="#000000" points="391,-611.4068 391,-630.4068 512,-630.4068 512,-611.4068 391,-611.4068"/>
<text text-anchor="middle" x="451.5" y="-618.4068" font-family="Helvetica,sans-Serif" font-size="10.00" fill="#000000">free_shared_memory</text>
</a>
</g>
</g>
<!-- Node8&#45;&gt;Node9 -->
<g id="edge4" class="edge">
<title>Node8&#45;&gt;Node9</title>
<path fill="none" stroke="#191970" d="M325.8935,-592.4958C348.2626,-597.5555 375.8982,-603.8064 399.5472,-609.1556"/>
<polygon fill="#191970" stroke="#191970" points="398.8856,-612.5943 409.4114,-611.3867 400.4299,-605.7667 398.8856,-612.5943"/>
</g>
<!-- Node10 -->
<g id="node5" class="node">
<title>Node10</title>
<g id="a_node5"><a xlink:href="shared__memory_8c.html#a8fd9943e1b39a1f286977096e0a50d7b" target="_top" xlink:title="Elimina la memoria condivisa. ">
<polygon fill="none" stroke="#000000" points="382,-573.4068 382,-592.4068 521,-592.4068 521,-573.4068 382,-573.4068"/>
<text text-anchor="middle" x="451.5" y="-580.4068" font-family="Helvetica,sans-Serif" font-size="10.00" fill="#000000">remove_shared_memory</text>
</a>
</g>
</g>
<!-- Node8&#45;&gt;Node10 -->
<g id="edge6" class="edge">
<title>Node8&#45;&gt;Node10</title>
<path fill="none" stroke="#191970" d="M342.7305,-582.9068C352.1258,-582.9068 361.975,-582.9068 371.7475,-582.9068"/>
<polygon fill="#191970" stroke="#191970" points="371.8813,-586.4069 381.8813,-582.9068 371.8812,-579.4069 371.8813,-586.4069"/>
</g>
<!-- Node11 -->
<g id="node6" class="node">
<title>Node11</title>
<g id="a_node6"><a xlink:href="semaphore_8c.html#a530566146b6e3cc8415d8ae4259fd68f" target="_top" xlink:title="Cancella il set di semafori svegliando eventuali processi in attesa. ">
<polygon fill="none" stroke="#000000" points="416.5,-459.4068 416.5,-478.4068 486.5,-478.4068 486.5,-459.4068 416.5,-459.4068"/>
<text text-anchor="middle" x="451.5" y="-466.4068" font-family="Helvetica,sans-Serif" font-size="10.00" fill="#000000">semDelete</text>
</a>
</g>
</g>
<!-- Node8&#45;&gt;Node11 -->
<g id="edge8" class="edge">
<title>Node8&#45;&gt;Node11</title>
<path fill="none" stroke="#191970" d="M324.249,-573.352C331.7275,-570.8174 339.285,-567.6991 346,-563.9068 382.9455,-543.0417 417.9092,-507.2797 436.8499,-486.0909"/>
<polygon fill="#191970" stroke="#191970" points="439.5515,-488.3186 443.5128,-478.4922 434.2883,-483.7036 439.5515,-488.3186"/>
</g>
<!-- Node9&#45;&gt;Node7 -->
<g id="edge5" class="edge">
<title>Node9&#45;&gt;Node7</title>
<path fill="none" stroke="#191970" d="M507.9069,-611.2633C512.7339,-608.7955 517.2109,-605.7244 521,-601.9068 550.642,-572.042 571.6788,-443.2132 578.8258,-393.5418"/>
<polygon fill="#191970" stroke="#191970" points="582.317,-393.8488 580.2407,-383.4594 575.3849,-392.876 582.317,-393.8488"/>
</g>
<!-- Node10&#45;&gt;Node7 -->
<g id="edge7" class="edge">
<title>Node10&#45;&gt;Node7</title>
<path fill="none" stroke="#191970" d="M498.3289,-573.397C506.6979,-569.9578 514.7337,-565.2769 521,-558.9068 544.6024,-534.9132 568.1049,-436.2468 577.3723,-393.6442"/>
<polygon fill="#191970" stroke="#191970" points="580.8389,-394.1701 579.5056,-383.6595 573.9934,-392.7075 580.8389,-394.1701"/>
</g>
<!-- Node11&#45;&gt;Node7 -->
<g id="edge9" class="edge">
<title>Node11&#45;&gt;Node7</title>
<path fill="none" stroke="#191970" d="M486.5459,-463.8363C498.1802,-461.0174 510.7641,-456.6521 521,-449.9068 543.3375,-435.1868 561.2215,-409.5292 571.5947,-392.1401"/>
<polygon fill="#191970" stroke="#191970" points="574.6373,-393.8701 576.5655,-383.4522 568.5614,-390.3938 574.6373,-393.8701"/>
</g>
<!-- Node13 -->
<g id="node8" class="node">
<title>Node13</title>
<g id="a_node8"><a xlink:href="defines_8c.html#abe68b7232c057100c2e21586906436d7" target="_top" xlink:title="get_project_ipc_key">
<polygon fill="none" stroke="#000000" points="226.5,-535.4068 226.5,-554.4068 340.5,-554.4068 340.5,-535.4068 226.5,-535.4068"/>
<text text-anchor="middle" x="283.5" y="-542.4068" font-family="Helvetica,sans-Serif" font-size="10.00" fill="#000000">get_project_ipc_key</text>
</a>
</g>
</g>
<!-- Node12&#45;&gt;Node13 -->
<g id="edge11" class="edge">
<title>Node12&#45;&gt;Node13</title>
<path fill="none" stroke="#191970" d="M168.6966,-544.9068C183.086,-544.9068 199.9612,-544.9068 216.2772,-544.9068"/>
<polygon fill="#191970" stroke="#191970" points="216.3367,-548.4069 226.3367,-544.9068 216.3367,-541.4069 216.3367,-548.4069"/>
</g>
<!-- Node13&#45;&gt;Node7 -->
<g id="edge12" class="edge">
<title>Node13&#45;&gt;Node7</title>
<path fill="none" stroke="#191970" d="M340.698,-553.2698C392.8332,-557.6703 469.3689,-555.6667 521,-516.9068 560.9365,-486.9261 574.7548,-425.4543 579.3423,-393.7666"/>
<polygon fill="#191970" stroke="#191970" points="582.8515,-393.916 580.6461,-383.5532 575.9079,-393.0295 582.8515,-393.916"/>
</g>
<!-- Node14&#45;&gt;Node7 -->
<g id="edge14" class="edge">
<title>Node14&#45;&gt;Node7</title>
<path fill="none" stroke="#191970" d="M337.254,-516.4644C388.7138,-522.6232 466.3812,-523.7976 521,-487.9068 554.0967,-466.1585 570.3314,-420.0985 577.2113,-393.6651"/>
<polygon fill="#191970" stroke="#191970" points="580.6805,-394.2068 579.6089,-383.6663 573.8735,-392.5745 580.6805,-394.2068"/>
</g>
<!-- Node15&#45;&gt;Node7 -->
<g id="edge16" class="edge">
<title>Node15&#45;&gt;Node7</title>
<path fill="none" stroke="#191970" d="M482.7184,-421.3596C494.8444,-417.3328 508.7393,-412.3223 521,-406.9068 533.1046,-401.5603 546.0426,-394.6739 556.8345,-388.5762"/>
<polygon fill="#191970" stroke="#191970" points="558.7697,-391.5007 565.691,-383.4791 555.278,-385.4337 558.7697,-391.5007"/>
</g>
<!-- Node16&#45;&gt;Node13 -->
<g id="edge18" class="edge">
<title>Node16&#45;&gt;Node13</title>
<path fill="none" stroke="#191970" d="M169.4822,-516.4958C189.5156,-521.4877 214.2023,-527.6392 235.476,-532.9402"/>
<polygon fill="#191970" stroke="#191970" points="234.745,-536.365 245.2945,-535.3867 236.4375,-529.5726 234.745,-536.365"/>
</g>
<!-- Node17&#45;&gt;Node7 -->
<g id="edge20" class="edge">
<title>Node17&#45;&gt;Node7</title>
<path fill="none" stroke="#191970" d="M185.2967,-391.756C260.6792,-389.9762 401.2889,-385.9983 521,-378.9068 529.2852,-378.416 538.198,-377.754 546.5684,-377.0726"/>
<polygon fill="#191970" stroke="#191970" points="547.1221,-380.5384 556.7926,-376.2105 546.5339,-373.5632 547.1221,-380.5384"/>
</g>
<!-- Node18&#45;&gt;Node7 -->
<g id="edge22" class="edge">
<title>Node18&#45;&gt;Node7</title>
<path fill="none" stroke="#191970" d="M316.8765,-272.463C373.9415,-262.173 487.3629,-245.1058 521,-264.9068 553.9665,-284.313 570.2508,-328.8815 577.1738,-354.6159"/>
<polygon fill="#191970" stroke="#191970" points="573.7867,-355.4989 579.589,-364.3636 580.5812,-353.8153 573.7867,-355.4989"/>
</g>
<!-- Node19&#45;&gt;Node7 -->
<g id="edge26" class="edge">
<title>Node19&#45;&gt;Node7</title>
<path fill="none" stroke="#191970" d="M317.6844,-357.0863C374.8218,-360.7293 489.1144,-368.0164 546.6755,-371.6864"/>
<polygon fill="#191970" stroke="#191970" points="546.5342,-375.1845 556.7367,-372.3279 546.9797,-368.1986 546.5342,-375.1845"/>
</g>
<!-- Node20 -->
<g id="node15" class="node">
<title>Node20</title>
<g id="a_node15"><a xlink:href="fifo_8c.html#ab83de0eb3bc3947e3c031685d5c2474b" target="_top" xlink:title="Crea o ottiene una IPC FIFO usando mkfifo. ">
<polygon fill="none" stroke="#000000" points="419,-307.4068 419,-326.4068 484,-326.4068 484,-307.4068 419,-307.4068"/>
<text text-anchor="middle" x="451.5" y="-314.4068" font-family="Helvetica,sans-Serif" font-size="10.00" fill="#000000">make_fifo</text>
</a>
</g>
</g>
<!-- Node19&#45;&gt;Node20 -->
<g id="edge24" class="edge">
<title>Node19&#45;&gt;Node20</title>
<path fill="none" stroke="#191970" d="M317.9027,-347.1252C344.236,-341.1689 380.7008,-332.9209 408.8821,-326.5466"/>
<polygon fill="#191970" stroke="#191970" points="409.8743,-329.9106 418.8557,-324.2906 408.3299,-323.0831 409.8743,-329.9106"/>
</g>
<!-- Node20&#45;&gt;Node7 -->
<g id="edge25" class="edge">
<title>Node20&#45;&gt;Node7</title>
<path fill="none" stroke="#191970" d="M482.7184,-326.454C494.8444,-330.4808 508.7393,-335.4913 521,-340.9068 533.1046,-346.2533 546.0426,-353.1397 556.8345,-359.2374"/>
<polygon fill="#191970" stroke="#191970" points="555.278,-362.3798 565.691,-364.3345 558.7697,-356.3129 555.278,-362.3798"/>
</g>
<!-- Node21&#45;&gt;Node7 -->
<g id="edge28" class="edge">
<title>Node21&#45;&gt;Node7</title>
<path fill="none" stroke="#191970" d="M169.6476,-313.07C218.8935,-308.3909 306.6695,-300.7539 382,-297.9068 443.7337,-295.5736 465.3518,-271.0782 521,-297.9068 545.4818,-309.7097 563.1158,-336.7705 572.8217,-355.2016"/>
<polygon fill="#191970" stroke="#191970" points="569.8082,-357.0025 577.3914,-364.4016 576.0774,-353.8885 569.8082,-357.0025"/>
</g>
<!-- Node23 -->
<g id="node18" class="node">
<title>Node23</title>
<g id="a_node18"><a xlink:href="semaphore_8c.html#a77c6570406059144bb6a8ecf04f481da" target="_top" xlink:title="Funzione di supporto per manipolare i valori di un set di semafori. ">
<polygon fill="none" stroke="#000000" points="426,-193.4068 426,-212.4068 477,-212.4068 477,-193.4068 426,-193.4068"/>
<text text-anchor="middle" x="451.5" y="-200.4068" font-family="Helvetica,sans-Serif" font-size="10.00" fill="#000000">semOp</text>
</a>
</g>
</g>
<!-- Node22&#45;&gt;Node23 -->
<g id="edge30" class="edge">
<title>Node22&#45;&gt;Node23</title>
<path fill="none" stroke="#191970" d="M317.9027,-233.1252C346.4589,-226.6661 386.9294,-217.5121 415.8307,-210.9749"/>
<polygon fill="#191970" stroke="#191970" points="416.9302,-214.3147 425.9116,-208.6946 415.3858,-207.4871 416.9302,-214.3147"/>
</g>
<!-- Node23&#45;&gt;Node7 -->
<g id="edge31" class="edge">
<title>Node23&#45;&gt;Node7</title>
<path fill="none" stroke="#191970" d="M477.0004,-206.4217C491.4697,-209.5992 509.0237,-215.605 521,-226.9068 558.0038,-261.8266 573.0873,-322.6885 578.6316,-354.0178"/>
<polygon fill="#191970" stroke="#191970" points="575.2139,-354.8082 580.2655,-364.1212 582.1241,-353.6906 575.2139,-354.8082"/>
</g>
<!-- Node24&#45;&gt;Node23 -->
<g id="edge33" class="edge">
<title>Node24&#45;&gt;Node23</title>
<path fill="none" stroke="#191970" d="M313.1483,-202.9068C341.7978,-202.9068 385.2298,-202.9068 415.7725,-202.9068"/>
<polygon fill="#191970" stroke="#191970" points="415.993,-206.4069 425.993,-202.9068 415.9929,-199.4069 415.993,-206.4069"/>
</g>
<!-- Node25&#45;&gt;Node7 -->
<g id="edge40" class="edge">
<title>Node25&#45;&gt;Node7</title>
<path fill="none" stroke="#191970" d="M170.2552,-155.3152C175.6038,-152.8507 180.7176,-149.7653 185,-145.9068 212.7671,-120.8883 189.4172,-89.8934 221,-69.9068 252.8941,-49.7232 511.2331,-73.384 521,-81.9068 562.3238,-117.9667 576.6869,-294.3525 580.4105,-354.0861"/>
<polygon fill="#191970" stroke="#191970" points="576.936,-354.6245 581.0182,-364.4013 583.9239,-354.2127 576.936,-354.6245"/>
</g>
<!-- Node25&#45;&gt;Node11 -->
<g id="edge42" class="edge">
<title>Node25&#45;&gt;Node11</title>
<path fill="none" stroke="#191970" d="M134.9378,-174.5701C151.2954,-214.6416 213.3826,-366.0226 221,-373.9068 271.4687,-426.143 354.8178,-450.7175 406.2533,-461.4497"/>
<polygon fill="#191970" stroke="#191970" points="405.6038,-464.8891 416.0957,-463.4157 406.975,-458.0247 405.6038,-464.8891"/>
</g>
<!-- Node25&#45;&gt;Node18 -->
<g id="edge41" class="edge">
<title>Node25&#45;&gt;Node18</title>
<path fill="none" stroke="#191970" d="M137.4764,-174.5494C150.8231,-193.6831 183.3187,-236.6082 221,-259.9068 226.9625,-263.5934 233.6894,-266.6075 240.464,-269.0588"/>
<polygon fill="#191970" stroke="#191970" points="239.7482,-272.506 250.3402,-272.2604 241.9068,-265.8471 239.7482,-272.506"/>
</g>
<!-- Node25&#45;&gt;Node22 -->
<g id="edge37" class="edge">
<title>Node25&#45;&gt;Node22</title>
<path fill="none" stroke="#191970" d="M143.7821,-174.577C160.6815,-186.9828 191.7461,-208.4958 221,-221.9068 226.886,-224.6051 233.2552,-227.0449 239.5994,-229.2073"/>
<polygon fill="#191970" stroke="#191970" points="238.8841,-232.6534 249.4752,-232.3742 241.0216,-225.9877 238.8841,-232.6534"/>
</g>
<!-- Node25&#45;&gt;Node23 -->
<g id="edge35" class="edge">
<title>Node25&#45;&gt;Node23</title>
<path fill="none" stroke="#191970" d="M172.339,-167.4506C215.7178,-170.3793 285.833,-175.847 346,-183.9068 369.2476,-187.021 395.175,-191.6739 415.5092,-195.5957"/>
<polygon fill="#191970" stroke="#191970" points="415.103,-199.0825 425.589,-197.5678 416.4472,-192.2127 415.103,-199.0825"/>
</g>
<!-- Node25&#45;&gt;Node24 -->
<g id="edge36" class="edge">
<title>Node25&#45;&gt;Node24</title>
<path fill="none" stroke="#191970" d="M169.4822,-174.4958C192.2333,-180.1649 220.986,-187.3295 243.9254,-193.0456"/>
<polygon fill="#191970" stroke="#191970" points="243.1395,-196.4567 253.6891,-195.4785 244.8321,-189.6644 243.1395,-196.4567"/>
</g>
<!-- Node26 -->
<g id="node21" class="node">
<title>Node26</title>
<g id="a_node21"><a xlink:href="semaphore_8c.html#aad78dc4ccefb184a74dd9ef808df8db6" target="_top" xlink:title="Inizializza il valore del semaforo sem_num al valore val. ">
<polygon fill="none" stroke="#000000" points="417.5,-3.4068 417.5,-22.4068 485.5,-22.4068 485.5,-3.4068 417.5,-3.4068"/>
<text text-anchor="middle" x="451.5" y="-10.4068" font-family="Helvetica,sans-Serif" font-size="10.00" fill="#000000">semSetVal</text>
</a>
</g>
</g>
<!-- Node25&#45;&gt;Node26 -->
<g id="edge38" class="edge">
<title>Node25&#45;&gt;Node26</title>
<path fill="none" stroke="#191970" d="M171.5146,-155.3779C176.497,-152.9116 181.1724,-149.8091 185,-145.9068 220.7251,-109.4845 181.2583,-68.8983 221,-36.9068 273.6309,5.4604 356.3984,2.571 407.117,-4.4312"/>
<polygon fill="#191970" stroke="#191970" points="406.716,-7.91 417.1229,-5.9235 407.7486,-.9866 406.716,-7.91"/>
</g>
<!-- Node27 -->
<g id="node22" class="node">
<title>Node27</title>
<g id="a_node22"><a xlink:href="semaphore_8c.html#a7d80413e893e7d9ae3d153e23c2df2e4" target="_top" xlink:title="Recupera statistiche di un set di semafori. ">
<polygon fill="none" stroke="#000000" points="411.5,-146.4068 411.5,-165.4068 491.5,-165.4068 491.5,-146.4068 411.5,-146.4068"/>
<text text-anchor="middle" x="451.5" y="-153.4068" font-family="Helvetica,sans-Serif" font-size="10.00" fill="#000000">semGetStats</text>
</a>
</g>
</g>
<!-- Node25&#45;&gt;Node27 -->
<g id="edge43" class="edge">
<title>Node25&#45;&gt;Node27</title>
<path fill="none" stroke="#191970" d="M172.0641,-157.1531C187.3646,-154.6252 204.9188,-152.1501 221,-150.9068 282.9598,-146.1165 354.5462,-148.9757 401.2931,-151.9678"/>
<polygon fill="#191970" stroke="#191970" points="401.2476,-155.4725 411.4583,-152.6457 401.7134,-148.488 401.2476,-155.4725"/>
</g>
<!-- Node28 -->
<g id="node23" class="node">
<title>Node28</title>
<g id="a_node23"><a xlink:href="semaphore_8c.html#a34a010b0a39236a7261d7d5103426491" target="_top" xlink:title="Imposta i permessi su un set di semafori. ">
<polygon fill="none" stroke="#000000" points="244,-79.4068 244,-98.4068 323,-98.4068 323,-79.4068 244,-79.4068"/>
<text text-anchor="middle" x="283.5" y="-86.4068" font-family="Helvetica,sans-Serif" font-size="10.00" fill="#000000">semSetPerm</text>
</a>
</g>
</g>
<!-- Node25&#45;&gt;Node28 -->
<g id="edge45" class="edge">
<title>Node25&#45;&gt;Node28</title>
<path fill="none" stroke="#191970" d="M164.7927,-155.3801C171.7133,-152.7858 178.7778,-149.6377 185,-145.9068 203.6151,-134.7449 202.5447,-124.3311 221,-112.9068 227.5227,-108.8691 234.8363,-105.3181 242.0996,-102.2712"/>
<polygon fill="#191970" stroke="#191970" points="243.8616,-105.3398 251.8936,-98.4306 241.3061,-98.8229 243.8616,-105.3398"/>
</g>
<!-- Node26&#45;&gt;Node7 -->
<g id="edge39" class="edge">
<title>Node26&#45;&gt;Node7</title>
<path fill="none" stroke="#191970" d="M485.6983,-17.2881C498.5192,-20.6353 512.1179,-26.5304 521,-36.9068 562.4791,-85.3641 576.9312,-289.4209 580.5199,-354.1313"/>
<polygon fill="#191970" stroke="#191970" points="577.0299,-354.4149 581.0523,-364.2164 584.0202,-354.0458 577.0299,-354.4149"/>
</g>
<!-- Node27&#45;&gt;Node7 -->
<g id="edge44" class="edge">
<title>Node27&#45;&gt;Node7</title>
<path fill="none" stroke="#191970" d="M491.5867,-165.2728C502.3254,-169.4503 513.125,-175.4203 521,-183.9068 566.4537,-232.89 577.7584,-316.0299 580.5697,-353.9665"/>
<polygon fill="#191970" stroke="#191970" points="577.0917,-354.434 581.1979,-364.2008 584.0786,-354.0051 577.0917,-354.434"/>
</g>
<!-- Node28&#45;&gt;Node7 -->
<g id="edge46" class="edge">
<title>Node28&#45;&gt;Node7</title>
<path fill="none" stroke="#191970" d="M323.3114,-85.0711C375.7315,-82.3568 467.4951,-86.0388 521,-136.9068 552.7597,-167.1013 572.633,-302.6546 579.1427,-354.0576"/>
<polygon fill="#191970" stroke="#191970" points="575.6948,-354.6966 580.3897,-364.1945 582.6424,-353.8419 575.6948,-354.6966"/>
</g>
</g>
</svg>
