<?xml version="1.0" encoding="UTF-8" standalone="no"?>
<!DOCTYPE svg PUBLIC "-//W3C//DTD SVG 1.1//EN"
 "http://www.w3.org/Graphics/SVG/1.1/DTD/svg11.dtd">
<!-- Generated by graphviz version 2.40.1 (20161225.0304)
 -->
<!-- Title: main Pages: 1 -->
<svg width="607pt" height="878pt"
 viewBox="0.00 0.00 607.00 878.34" xmlns="http://www.w3.org/2000/svg" xmlns:xlink="http://www.w3.org/1999/xlink">
<g id="graph0" class="graph" transform="scale(1 1) rotate(0) translate(4 874.3386)">
<title>main</title>
<!-- Node13 -->
<g id="node1" class="node">
<title>Node13</title>
<polygon fill="#bfbfbf" stroke="#000000" points="0,-494.5 0,-513.5 41,-513.5 41,-494.5 0,-494.5"/>
<text text-anchor="middle" x="20.5" y="-501.5" font-family="Helvetica,sans-Serif" font-size="10.00" fill="#000000">main</text>
</g>
<!-- Node14 -->
<g id="node2" class="node">
<title>Node14</title>
<g id="a_node2"><a xlink:href="err__exit_8c.html#aa223b0ecfe538d130ece562646a37d27" target="_top" xlink:title="Prints the error message of the last failed system call and terminates the calling process...">
<polygon fill="none" stroke="#000000" points="550,-437.5 550,-456.5 599,-456.5 599,-437.5 550,-437.5"/>
<text text-anchor="middle" x="574.5" y="-444.5" font-family="Helvetica,sans-Serif" font-size="10.00" fill="#000000">ErrExit</text>
</a>
</g>
</g>
<!-- Node13&#45;&gt;Node14 -->
<g id="edge1" class="edge">
<title>Node13&#45;&gt;Node14</title>
<path fill="none" stroke="#191970" d="M22.4373,-513.5772C29.0473,-545.2427 51.7087,-645.6504 77,-665 115.5646,-694.5047 475.994,-698.2208 514,-668 545.9191,-642.6192 565.5172,-516.1362 572.056,-466.7758"/>
<polygon fill="#191970" stroke="#191970" points="575.5439,-467.0935 573.3459,-456.7291 568.6009,-466.202 575.5439,-467.0935"/>
</g>
<!-- Node15 -->
<g id="node3" class="node">
<title>Node15</title>
<g id="a_node3"><a xlink:href="server_8c.html#a48d605ff689f470746c858648f0a98c2" target="_top" xlink:title="Chiude tutte le IPC e termina. ">
<polygon fill="none" stroke="#000000" points="217.5,-646.5 217.5,-665.5 335.5,-665.5 335.5,-646.5 217.5,-646.5"/>
<text text-anchor="middle" x="276.5" y="-653.5" font-family="Helvetica,sans-Serif" font-size="10.00" fill="#000000">SIGINTSignalHandler</text>
</a>
</g>
</g>
<!-- Node13&#45;&gt;Node15 -->
<g id="edge2" class="edge">
<title>Node13&#45;&gt;Node15</title>
<path fill="none" stroke="#191970" d="M21.3521,-513.7448C24.127,-538.9533 35.3026,-606.4687 77,-637 113.955,-664.0588 165.6589,-668.3126 207.1702,-666.0603"/>
<polygon fill="#191970" stroke="#191970" points="207.476,-669.5477 217.2165,-665.3797 207.0027,-662.5638 207.476,-669.5477"/>
</g>
<!-- Node19 -->
<g id="node7" class="node">
<title>Node19</title>
<g id="a_node7"><a xlink:href="defines_8c.html#a2d341373a96ffea0944553e5452cdbca" target="_top" xlink:title="get_ipc_key">
<polygon fill="none" stroke="#000000" points="90,-570.5 90,-589.5 165,-589.5 165,-570.5 90,-570.5"/>
<text text-anchor="middle" x="127.5" y="-577.5" font-family="Helvetica,sans-Serif" font-size="10.00" fill="#000000">get_ipc_key</text>
</a>
</g>
</g>
<!-- Node13&#45;&gt;Node19 -->
<g id="edge10" class="edge">
<title>Node13&#45;&gt;Node19</title>
<path fill="none" stroke="#191970" d="M29.3586,-513.7671C39.9058,-524.9904 58.4375,-543.469 77,-556 82.3854,-559.6355 88.4072,-563.0107 94.3643,-566.0132"/>
<polygon fill="#191970" stroke="#191970" points="93.0392,-569.2589 103.5715,-570.4083 96.0548,-562.9418 93.0392,-569.2589"/>
</g>
<!-- Node21 -->
<g id="node9" class="node">
<title>Node21</title>
<g id="a_node9"><a xlink:href="shared__memory_8c.html#a660a60242a5174977ab2debcdbd0e587" target="_top" xlink:title="Ottiene l&#39;id o crea una memoria condivisa. ">
<polygon fill="none" stroke="#000000" points="214,-570.5 214,-589.5 339,-589.5 339,-570.5 214,-570.5"/>
<text text-anchor="middle" x="276.5" y="-577.5" font-family="Helvetica,sans-Serif" font-size="10.00" fill="#000000">alloc_shared_memory</text>
</a>
</g>
</g>
<!-- Node13&#45;&gt;Node21 -->
<g id="edge13" class="edge">
<title>Node13&#45;&gt;Node21</title>
<path fill="none" stroke="#191970" d="M40.8815,-513.5143C51.5036,-518.2526 64.7935,-523.8417 77,-528 125.4123,-544.4922 181.9345,-558.7742 222.4305,-568.1752"/>
<polygon fill="#191970" stroke="#191970" points="221.8362,-571.6298 232.3661,-570.4585 223.404,-564.8076 221.8362,-571.6298"/>
</g>
<!-- Node22 -->
<g id="node10" class="node">
<title>Node22</title>
<g id="a_node10"><a xlink:href="shared__memory_8c.html#ab2ffe00ec7425a3a4229cd0d53ed901c" target="_top" xlink:title="Recupera il puntatore alla memoria condivisa aggiungendola allo spazio degli indirizzi. ">
<polygon fill="none" stroke="#000000" points="218,-532.5 218,-551.5 335,-551.5 335,-532.5 218,-532.5"/>
<text text-anchor="middle" x="276.5" y="-539.5" font-family="Helvetica,sans-Serif" font-size="10.00" fill="#000000">get_shared_memory</text>
</a>
</g>
</g>
<!-- Node13&#45;&gt;Node22 -->
<g id="edge15" class="edge">
<title>Node13&#45;&gt;Node22</title>
<path fill="none" stroke="#191970" d="M41.0168,-507.0455C76.7037,-512.3427 151.7287,-523.4793 207.5568,-531.7662"/>
<polygon fill="#191970" stroke="#191970" points="207.3384,-535.2721 217.744,-533.2784 208.3663,-528.348 207.3384,-535.2721"/>
</g>
<!-- Node23 -->
<g id="node11" class="node">
<title>Node23</title>
<g id="a_node11"><a xlink:href="defines_8c.html#afd25e0dffe44c8dd59ae86caabb94287" target="_top" xlink:title="get_ipc_key2">
<polygon fill="none" stroke="#000000" points="87,-608.5 87,-627.5 168,-627.5 168,-608.5 87,-608.5"/>
<text text-anchor="middle" x="127.5" y="-615.5" font-family="Helvetica,sans-Serif" font-size="10.00" fill="#000000">get_ipc_key2</text>
</a>
</g>
</g>
<!-- Node13&#45;&gt;Node23 -->
<g id="edge17" class="edge">
<title>Node13&#45;&gt;Node23</title>
<path fill="none" stroke="#191970" d="M25.1556,-513.5564C35.8157,-535.1155 62.2131,-586.6194 77,-599 79.011,-600.6838 81.1863,-602.2265 83.4658,-603.639"/>
<polygon fill="#191970" stroke="#191970" points="82.1671,-606.9103 92.6475,-608.4633 85.4231,-600.7136 82.1671,-606.9103"/>
</g>
<!-- Node24 -->
<g id="node12" class="node">
<title>Node24</title>
<g id="a_node12"><a xlink:href="semaphore_8c.html#a2081de3d1c08dbacaf10ca46a717fabb" target="_top" xlink:title="Crea un insieme di semafori. ">
<polygon fill="none" stroke="#000000" points="390.5,-228.5 390.5,-247.5 498.5,-247.5 498.5,-228.5 390.5,-228.5"/>
<text text-anchor="middle" x="444.5" y="-235.5" font-family="Helvetica,sans-Serif" font-size="10.00" fill="#000000">createSemaphores</text>
</a>
</g>
</g>
<!-- Node13&#45;&gt;Node24 -->
<g id="edge19" class="edge">
<title>Node13&#45;&gt;Node24</title>
<path fill="none" stroke="#191970" d="M22.7271,-494.416C28.4787,-471.2382 45.6181,-411.1096 77,-371 123.9415,-311.0037 143.4572,-296.7537 214,-268 267.2672,-246.288 332.6772,-239.4537 380.1935,-237.6606"/>
<polygon fill="#191970" stroke="#191970" points="380.4663,-241.1538 390.3522,-237.3434 380.2478,-234.1573 380.4663,-241.1538"/>
</g>
<!-- Node25 -->
<g id="node13" class="node">
<title>Node25</title>
<g id="a_node13"><a xlink:href="semaphore_8c.html#a8df9b8ea63eaf93d09f437b356a4a1eb" target="_top" xlink:title="Inizializza i valori del set di semafori semid ai valori in values. ">
<polygon fill="none" stroke="#000000" points="243.5,-190.5 243.5,-209.5 309.5,-209.5 309.5,-190.5 243.5,-190.5"/>
<text text-anchor="middle" x="276.5" y="-197.5" font-family="Helvetica,sans-Serif" font-size="10.00" fill="#000000">semSetAll</text>
</a>
</g>
</g>
<!-- Node13&#45;&gt;Node25 -->
<g id="edge21" class="edge">
<title>Node13&#45;&gt;Node25</title>
<path fill="none" stroke="#191970" d="M20.9819,-494.3421C23.4294,-449.4608 36.0163,-261.8528 77,-224 118.844,-185.3526 188.4692,-186.2417 233.4142,-191.9554"/>
<polygon fill="#191970" stroke="#191970" points="233.0539,-195.439 243.4432,-193.362 234.0262,-188.5069 233.0539,-195.439"/>
</g>
<!-- Node26 -->
<g id="node14" class="node">
<title>Node26</title>
<g id="a_node14"><a xlink:href="fifo_8c.html#a54a1ae8162825128cf02f95692402c18" target="_top" xlink:title="Facilita la creazione di una FIFO (o ne ottiene una esistente) in modalita&#39; lettura o scrittura...">
<polygon fill="none" stroke="#000000" points="242.5,-133.5 242.5,-152.5 310.5,-152.5 310.5,-133.5 242.5,-133.5"/>
<text text-anchor="middle" x="276.5" y="-140.5" font-family="Helvetica,sans-Serif" font-size="10.00" fill="#000000">create_fifo</text>
</a>
</g>
</g>
<!-- Node13&#45;&gt;Node26 -->
<g id="edge23" class="edge">
<title>Node13&#45;&gt;Node26</title>
<path fill="none" stroke="#191970" d="M20.8102,-494.446C22.5674,-446.4139 32.8254,-231.815 77,-186 116.9269,-144.5904 186.4502,-138.4095 231.9716,-139.4287"/>
<polygon fill="#191970" stroke="#191970" points="232.0307,-142.9329 242.147,-139.7847 232.2755,-135.9371 232.0307,-142.9329"/>
</g>
<!-- Node29 -->
<g id="node17" class="node">
<title>Node29</title>
<g id="a_node17"><a xlink:href="message__queue_8c.html#afebbb2a5c42d6a8bd4c95ab012c1dc8a" target="_top" xlink:title="Restituisce statistiche della coda dei messaggi. ">
<polygon fill="none" stroke="#000000" points="87.5,-836.5 87.5,-855.5 167.5,-855.5 167.5,-836.5 87.5,-836.5"/>
<text text-anchor="middle" x="127.5" y="-843.5" font-family="Helvetica,sans-Serif" font-size="10.00" fill="#000000">msqGetStats</text>
</a>
</g>
</g>
<!-- Node13&#45;&gt;Node29 -->
<g id="edge29" class="edge">
<title>Node13&#45;&gt;Node29</title>
<path fill="none" stroke="#191970" d="M20.9236,-513.5805C23.2343,-561.7637 35.769,-777.2521 77,-827 78.0087,-828.2171 79.1039,-829.3562 80.2697,-830.4225"/>
<polygon fill="#191970" stroke="#191970" points="78.6328,-833.551 88.8222,-836.4541 82.6672,-827.8305 78.6328,-833.551"/>
</g>
<!-- Node30 -->
<g id="node18" class="node">
<title>Node30</title>
<g id="a_node18"><a xlink:href="message__queue_8c.html#aded429c9008be24df92b60660cc0acfe" target="_top" xlink:title="Imposta nuove configurazioni sulla coda dei messaggi. ">
<polygon fill="none" stroke="#000000" points="88.5,-798.5 88.5,-817.5 166.5,-817.5 166.5,-798.5 88.5,-798.5"/>
<text text-anchor="middle" x="127.5" y="-805.5" font-family="Helvetica,sans-Serif" font-size="10.00" fill="#000000">msqSetStats</text>
</a>
</g>
</g>
<!-- Node13&#45;&gt;Node30 -->
<g id="edge31" class="edge">
<title>Node13&#45;&gt;Node30</title>
<path fill="none" stroke="#191970" d="M21.1703,-513.6213C24.4664,-558.3622 40.2983,-745.719 77,-789 78.1246,-790.3262 79.3516,-791.5599 80.6603,-792.7077"/>
<polygon fill="#191970" stroke="#191970" points="78.6829,-795.5956 88.9038,-798.3857 82.6537,-789.8308 78.6829,-795.5956"/>
</g>
<!-- Node31 -->
<g id="node19" class="node">
<title>Node31</title>
<g id="a_node19"><a xlink:href="server_8c.html#ab53aa0eb44ad55d2e189f18d3bd6017b" target="_top" xlink:title="string_to_int">
<polygon fill="none" stroke="#000000" points="89,-760.5 89,-779.5 166,-779.5 166,-760.5 89,-760.5"/>
<text text-anchor="middle" x="127.5" y="-767.5" font-family="Helvetica,sans-Serif" font-size="10.00" fill="#000000">string_to_int</text>
</a>
</g>
</g>
<!-- Node13&#45;&gt;Node31 -->
<g id="edge33" class="edge">
<title>Node13&#45;&gt;Node31</title>
<path fill="none" stroke="#191970" d="M21.4955,-513.6885C25.8943,-554.768 44.8078,-714.1405 77,-751 78.1438,-752.3096 79.3873,-753.5293 80.7099,-754.665"/>
<polygon fill="#191970" stroke="#191970" points="78.7681,-757.5771 89.0082,-760.2959 82.6986,-751.7847 78.7681,-757.5771"/>
</g>
<!-- Node32 -->
<g id="node20" class="node">
<title>Node32</title>
<g id="a_node20"><a xlink:href="semaphore_8c.html#a7bad0eb0b0c6ac701b59c36b8b7837bf" target="_top" xlink:title="Esegue la signal sul semaforo sem_num: incrementa il valore di 1. ">
<polygon fill="none" stroke="#000000" points="242.5,-494.5 242.5,-513.5 310.5,-513.5 310.5,-494.5 242.5,-494.5"/>
<text text-anchor="middle" x="276.5" y="-501.5" font-family="Helvetica,sans-Serif" font-size="10.00" fill="#000000">semSignal</text>
</a>
</g>
</g>
<!-- Node13&#45;&gt;Node32 -->
<g id="edge35" class="edge">
<title>Node13&#45;&gt;Node32</title>
<path fill="none" stroke="#191970" d="M41.2031,-497.5885C51.7956,-494.6371 64.9625,-491.4692 77,-490 130.1058,-483.5185 191.5587,-489.9115 232.0709,-496.0287"/>
<polygon fill="#191970" stroke="#191970" points="231.7335,-499.5185 242.1552,-497.6113 232.8188,-492.6032 231.7335,-499.5185"/>
</g>
<!-- Node34 -->
<g id="node22" class="node">
<title>Node34</title>
<g id="a_node22"><a xlink:href="semaphore_8c.html#a2581efba6a0833e3f289de94c779cc21" target="_top" xlink:title="Esegue la wait sul semaforo sem_num: decrementa il valore di 1 ed eventualmente mette in attesa il pr...">
<polygon fill="none" stroke="#000000" points="247,-456.5 247,-475.5 306,-475.5 306,-456.5 247,-456.5"/>
<text text-anchor="middle" x="276.5" y="-463.5" font-family="Helvetica,sans-Serif" font-size="10.00" fill="#000000">semWait</text>
</a>
</g>
</g>
<!-- Node13&#45;&gt;Node34 -->
<g id="edge38" class="edge">
<title>Node13&#45;&gt;Node34</title>
<path fill="none" stroke="#191970" d="M41.02,-494.8417C51.5659,-490.5316 64.7463,-485.7457 77,-483 131.4503,-470.7991 196.0571,-467.2151 236.6731,-466.2388"/>
<polygon fill="#191970" stroke="#191970" points="236.7836,-469.7374 246.712,-466.0392 236.6444,-462.7388 236.7836,-469.7374"/>
</g>
<!-- Node35 -->
<g id="node23" class="node">
<title>Node35</title>
<g id="a_node23"><a xlink:href="semaphore_8c.html#a40485eedbf6d56f7fd27bce5a537efbe" target="_top" xlink:title="Attende che il semaforo sem_num raggiunga il valore zero. ">
<polygon fill="none" stroke="#000000" points="86.5,-380.5 86.5,-399.5 168.5,-399.5 168.5,-380.5 86.5,-380.5"/>
<text text-anchor="middle" x="127.5" y="-387.5" font-family="Helvetica,sans-Serif" font-size="10.00" fill="#000000">semWaitZero</text>
</a>
</g>
</g>
<!-- Node13&#45;&gt;Node35 -->
<g id="edge40" class="edge">
<title>Node13&#45;&gt;Node35</title>
<path fill="none" stroke="#191970" d="M24.3654,-494.3513C31.9848,-476.3952 50.5322,-437.5404 77,-414 81.216,-410.2503 86.1209,-406.9661 91.1845,-404.1293"/>
<polygon fill="#191970" stroke="#191970" points="93.0042,-407.1315 100.3559,-399.5024 89.8512,-400.8818 93.0042,-407.1315"/>
</g>
<!-- Node38 -->
<g id="node26" class="node">
<title>Node38</title>
<g id="a_node26"><a xlink:href="defines_8c.html#aea9b93cad897755a46cb9e3373ba8cc2" target="_top" xlink:title="Rende bloccante oppure non bloccante un file descriptor. ">
<polygon fill="none" stroke="#000000" points="99.5,-76.5 99.5,-95.5 155.5,-95.5 155.5,-76.5 99.5,-76.5"/>
<text text-anchor="middle" x="127.5" y="-83.5" font-family="Helvetica,sans-Serif" font-size="10.00" fill="#000000">blockFD</text>
</a>
</g>
</g>
<!-- Node13&#45;&gt;Node38 -->
<g id="edge51" class="edge">
<title>Node13&#45;&gt;Node38</title>
<path fill="none" stroke="#191970" d="M20.6793,-494.2609C21.8567,-439.8702 29.9774,-173.8482 77,-110 80.5402,-105.1931 85.2939,-101.3106 90.4738,-98.1859"/>
<polygon fill="#191970" stroke="#191970" points="92.1313,-101.2696 99.4544,-93.6131 88.955,-95.0317 92.1313,-101.2696"/>
</g>
<!-- Node39 -->
<g id="node27" class="node">
<title>Node39</title>
<g id="a_node27"><a xlink:href="server_8c.html#ac94aa68fd5fccbf448cfe8788bd46225" target="_top" xlink:title="aggiungiAMatrice">
<polygon fill="none" stroke="#000000" points="77,-38.5 77,-57.5 178,-57.5 178,-38.5 77,-38.5"/>
<text text-anchor="middle" x="127.5" y="-45.5" font-family="Helvetica,sans-Serif" font-size="10.00" fill="#000000">aggiungiAMatrice</text>
</a>
</g>
</g>
<!-- Node13&#45;&gt;Node39 -->
<g id="edge52" class="edge">
<title>Node13&#45;&gt;Node39</title>
<path fill="none" stroke="#191970" d="M21.1704,-494.1149C25.4326,-432.4254 49.4554,-101.7846 77,-67 77.945,-65.8066 78.9735,-64.6882 80.071,-63.6401"/>
<polygon fill="#191970" stroke="#191970" points="82.1796,-66.434 88.165,-57.6918 78.0343,-60.7934 82.1796,-66.434"/>
</g>
<!-- Node40 -->
<g id="node28" class="node">
<title>Node40</title>
<g id="a_node28"><a xlink:href="server_8c.html#a6a3979b89e7153de6f4e9c4308d60403" target="_top" xlink:title="findAndMakeFullFiles">
<polygon fill="none" stroke="#000000" points="217.5,-57.5 217.5,-76.5 335.5,-76.5 335.5,-57.5 217.5,-57.5"/>
<text text-anchor="middle" x="276.5" y="-64.5" font-family="Helvetica,sans-Serif" font-size="10.00" fill="#000000">findAndMakeFullFiles</text>
</a>
</g>
</g>
<!-- Node13&#45;&gt;Node40 -->
<g id="edge53" class="edge">
<title>Node13&#45;&gt;Node40</title>
<path fill="none" stroke="#191970" d="M20.6824,-494.2092C21.8491,-441.8339 29.8141,-195.0407 77,-139 107.5065,-102.7687 133.4502,-121.0833 178,-105 199.8747,-97.1029 224.2626,-87.699 243.2989,-80.2221"/>
<polygon fill="#191970" stroke="#191970" points="244.7049,-83.43 252.7241,-76.5059 242.1373,-76.9179 244.7049,-83.43"/>
</g>
<!-- Node42 -->
<g id="node30" class="node">
<title>Node42</title>
<g id="a_node30"><a xlink:href="semaphore_8c.html#a0d970df04f11907f1acb332a47a39104" target="_top" xlink:title="semWaitNoBlocc">
<polygon fill="none" stroke="#000000" points="78,-722.5 78,-741.5 177,-741.5 177,-722.5 78,-722.5"/>
<text text-anchor="middle" x="127.5" y="-729.5" font-family="Helvetica,sans-Serif" font-size="10.00" fill="#000000">semWaitNoBlocc</text>
</a>
</g>
</g>
<!-- Node13&#45;&gt;Node42 -->
<g id="edge57" class="edge">
<title>Node13&#45;&gt;Node42</title>
<path fill="none" stroke="#191970" d="M22.0775,-513.6215C28.17,-549.8005 51.117,-677.1873 77,-708 79.9959,-711.5665 83.643,-714.6393 87.5918,-717.278"/>
<polygon fill="#191970" stroke="#191970" points="86.159,-720.4893 96.5829,-722.3846 89.6161,-714.4025 86.159,-720.4893"/>
</g>
<!-- Node15&#45;&gt;Node14 -->
<g id="edge3" class="edge">
<title>Node15&#45;&gt;Node14</title>
<path fill="none" stroke="#191970" d="M318.8883,-665.5766C370.7379,-674.652 458.4477,-681.1182 514,-637 541.1826,-615.4123 562.9041,-511.0496 571.0395,-466.8467"/>
<polygon fill="#191970" stroke="#191970" points="574.5273,-467.2264 572.8498,-456.7652 567.6374,-465.9891 574.5273,-467.2264"/>
</g>
<!-- Node16 -->
<g id="node4" class="node">
<title>Node16</title>
<g id="a_node4"><a xlink:href="shared__memory_8c.html#a6530d61365abd3e580722ed907ea5f5b" target="_top" xlink:title="Scollega la memoria condivisa dallo spazio degli indirizzi. ">
<polygon fill="none" stroke="#000000" points="384,-608.5 384,-627.5 505,-627.5 505,-608.5 384,-608.5"/>
<text text-anchor="middle" x="444.5" y="-615.5" font-family="Helvetica,sans-Serif" font-size="10.00" fill="#000000">free_shared_memory</text>
</a>
</g>
</g>
<!-- Node15&#45;&gt;Node16 -->
<g id="edge4" class="edge">
<title>Node15&#45;&gt;Node16</title>
<path fill="none" stroke="#191970" d="M318.8935,-646.411C341.2626,-641.3513 368.8982,-635.1004 392.5472,-629.7512"/>
<polygon fill="#191970" stroke="#191970" points="393.4299,-633.1401 402.4114,-627.5201 391.8856,-626.3125 393.4299,-633.1401"/>
</g>
<!-- Node17 -->
<g id="node5" class="node">
<title>Node17</title>
<g id="a_node5"><a xlink:href="shared__memory_8c.html#a8fd9943e1b39a1f286977096e0a50d7b" target="_top" xlink:title="Elimina la memoria condivisa. ">
<polygon fill="none" stroke="#000000" points="375,-570.5 375,-589.5 514,-589.5 514,-570.5 375,-570.5"/>
<text text-anchor="middle" x="444.5" y="-577.5" font-family="Helvetica,sans-Serif" font-size="10.00" fill="#000000">remove_shared_memory</text>
</a>
</g>
</g>
<!-- Node15&#45;&gt;Node17 -->
<g id="edge6" class="edge">
<title>Node15&#45;&gt;Node17</title>
<path fill="none" stroke="#191970" d="M318.8166,-646.4101C325.8335,-643.9131 332.8265,-640.8171 339,-637 358.7875,-624.7653 355.0416,-610.9539 375,-599 378.6218,-596.8308 382.4965,-594.9033 386.4947,-593.1915"/>
<polygon fill="#191970" stroke="#191970" points="387.887,-596.4065 395.9864,-589.5765 385.3955,-589.8649 387.887,-596.4065"/>
</g>
<!-- Node18 -->
<g id="node6" class="node">
<title>Node18</title>
<g id="a_node6"><a xlink:href="semaphore_8c.html#a530566146b6e3cc8415d8ae4259fd68f" target="_top" xlink:title="Cancella il set di semafori svegliando eventuali processi in attesa. ">
<polygon fill="none" stroke="#000000" points="409.5,-418.5 409.5,-437.5 479.5,-437.5 479.5,-418.5 409.5,-418.5"/>
<text text-anchor="middle" x="444.5" y="-425.5" font-family="Helvetica,sans-Serif" font-size="10.00" fill="#000000">semDelete</text>
</a>
</g>
</g>
<!-- Node15&#45;&gt;Node18 -->
<g id="edge8" class="edge">
<title>Node15&#45;&gt;Node18</title>
<path fill="none" stroke="#191970" d="M323.8045,-646.3715C329.3044,-643.9231 334.5345,-640.852 339,-637 367.301,-612.5871 358.3418,-594.4581 375,-561 395.5018,-519.822 420.7834,-472.179 434.4993,-446.5764"/>
<polygon fill="#191970" stroke="#191970" points="437.6653,-448.0786 439.3117,-437.6124 431.4979,-444.7675 437.6653,-448.0786"/>
</g>
<!-- Node16&#45;&gt;Node14 -->
<g id="edge5" class="edge">
<title>Node16&#45;&gt;Node14</title>
<path fill="none" stroke="#191970" d="M499.4142,-608.3612C504.7178,-605.9048 509.7101,-602.8347 514,-599 553.3998,-563.781 567.4866,-499.4632 572.2427,-466.9493"/>
<polygon fill="#191970" stroke="#191970" points="575.7339,-467.2447 573.5621,-456.8749 568.7931,-466.3357 575.7339,-467.2447"/>
</g>
<!-- Node17&#45;&gt;Node14 -->
<g id="edge7" class="edge">
<title>Node17&#45;&gt;Node14</title>
<path fill="none" stroke="#191970" d="M487.8773,-570.4763C497.1842,-567.0084 506.4715,-562.3193 514,-556 542.7364,-531.8793 560.296,-490.4463 568.6392,-466.2065"/>
<polygon fill="#191970" stroke="#191970" points="571.9708,-467.279 571.744,-456.6866 565.3158,-465.1085 571.9708,-467.279"/>
</g>
<!-- Node18&#45;&gt;Node14 -->
<g id="edge9" class="edge">
<title>Node18&#45;&gt;Node14</title>
<path fill="none" stroke="#191970" d="M479.6799,-433.1417C498.373,-435.8737 521.2671,-439.2198 539.8759,-441.9396"/>
<polygon fill="#191970" stroke="#191970" points="539.5944,-445.4355 549.9955,-443.4186 540.6068,-438.5091 539.5944,-445.4355"/>
</g>
<!-- Node20 -->
<g id="node8" class="node">
<title>Node20</title>
<g id="a_node8"><a xlink:href="defines_8c.html#abe68b7232c057100c2e21586906436d7" target="_top" xlink:title="get_project_ipc_key">
<polygon fill="none" stroke="#000000" points="219.5,-608.5 219.5,-627.5 333.5,-627.5 333.5,-608.5 219.5,-608.5"/>
<text text-anchor="middle" x="276.5" y="-615.5" font-family="Helvetica,sans-Serif" font-size="10.00" fill="#000000">get_project_ipc_key</text>
</a>
</g>
</g>
<!-- Node19&#45;&gt;Node20 -->
<g id="edge11" class="edge">
<title>Node19&#45;&gt;Node20</title>
<path fill="none" stroke="#191970" d="M165.099,-589.589C184.584,-594.5583 208.5745,-600.6767 229.2958,-605.9613"/>
<polygon fill="#191970" stroke="#191970" points="228.6166,-609.4001 239.1714,-608.4799 230.3465,-602.6172 228.6166,-609.4001"/>
</g>
<!-- Node20&#45;&gt;Node14 -->
<g id="edge12" class="edge">
<title>Node20&#45;&gt;Node14</title>
<path fill="none" stroke="#191970" d="M318.8166,-608.4101C325.8335,-605.9131 332.8265,-602.8171 339,-599 358.7875,-586.7653 355.1619,-573.1526 375,-561 429.9231,-527.3548 460.223,-555.4482 514,-520 535.3685,-505.9145 553.0979,-482.0102 563.7261,-465.4102"/>
<polygon fill="#191970" stroke="#191970" points="566.8809,-466.9616 569.1371,-456.6098 560.9178,-463.2952 566.8809,-466.9616"/>
</g>
<!-- Node21&#45;&gt;Node14 -->
<g id="edge14" class="edge">
<title>Node21&#45;&gt;Node14</title>
<path fill="none" stroke="#191970" d="M317.2763,-570.4934C324.7523,-567.9542 332.3019,-564.8221 339,-561 357.8519,-550.2428 356.1745,-538.8033 375,-528 431.0871,-495.8136 455.2319,-511.9822 514,-485 527.5196,-478.7928 541.6507,-470.0609 552.8529,-462.5324"/>
<polygon fill="#191970" stroke="#191970" points="554.8909,-465.3787 561.1413,-456.824 550.9203,-459.6137 554.8909,-465.3787"/>
</g>
<!-- Node22&#45;&gt;Node14 -->
<g id="edge16" class="edge">
<title>Node22&#45;&gt;Node14</title>
<path fill="none" stroke="#191970" d="M317.2763,-532.4934C324.7523,-529.9542 332.3019,-526.8221 339,-523 357.8519,-512.2428 355.7189,-499.9675 375,-490 428.2746,-462.4595 498.3164,-452.5396 539.6622,-448.9791"/>
<polygon fill="#191970" stroke="#191970" points="540.0812,-452.4571 549.7772,-448.1864 539.5343,-445.4785 540.0812,-452.4571"/>
</g>
<!-- Node23&#45;&gt;Node20 -->
<g id="edge18" class="edge">
<title>Node23&#45;&gt;Node20</title>
<path fill="none" stroke="#191970" d="M168.2149,-618C180.9033,-618 195.2504,-618 209.2526,-618"/>
<polygon fill="#191970" stroke="#191970" points="209.3588,-621.5001 219.3588,-618 209.3587,-614.5001 209.3588,-621.5001"/>
</g>
<!-- Node24&#45;&gt;Node14 -->
<g id="edge20" class="edge">
<title>Node24&#45;&gt;Node14</title>
<path fill="none" stroke="#191970" d="M498.6607,-246.8549C504.3012,-249.4415 509.5771,-252.7566 514,-257 539.048,-281.0317 561.9793,-384.0092 570.739,-427.4973"/>
<polygon fill="#191970" stroke="#191970" points="567.3255,-428.2779 572.6965,-437.4104 574.1929,-426.9218 567.3255,-428.2779"/>
</g>
<!-- Node25&#45;&gt;Node14 -->
<g id="edge22" class="edge">
<title>Node25&#45;&gt;Node14</title>
<path fill="none" stroke="#191970" d="M309.6601,-191.8354C360.0234,-181.5638 456.0499,-170.621 514,-219 546.3693,-246.0231 565.8099,-377.1002 572.1767,-427.3443"/>
<polygon fill="#191970" stroke="#191970" points="568.7036,-427.7785 573.3968,-437.2772 575.6514,-426.925 568.7036,-427.7785"/>
</g>
<!-- Node26&#45;&gt;Node14 -->
<g id="edge26" class="edge">
<title>Node26&#45;&gt;Node14</title>
<path fill="none" stroke="#191970" d="M310.861,-143.5891C369.4491,-145.3226 485.1535,-152.1481 514,-179 550.6644,-213.1292 567.8906,-371.6497 572.8949,-427.48"/>
<polygon fill="#191970" stroke="#191970" points="569.4111,-427.8203 573.7575,-437.4826 576.3853,-427.2188 569.4111,-427.8203"/>
</g>
<!-- Node27 -->
<g id="node15" class="node">
<title>Node27</title>
<g id="a_node15"><a xlink:href="fifo_8c.html#ab83de0eb3bc3947e3c031685d5c2474b" target="_top" xlink:title="Crea o ottiene una IPC FIFO usando mkfifo. ">
<polygon fill="none" stroke="#000000" points="412,-114.5 412,-133.5 477,-133.5 477,-114.5 412,-114.5"/>
<text text-anchor="middle" x="444.5" y="-121.5" font-family="Helvetica,sans-Serif" font-size="10.00" fill="#000000">make_fifo</text>
</a>
</g>
</g>
<!-- Node26&#45;&gt;Node27 -->
<g id="edge24" class="edge">
<title>Node26&#45;&gt;Node27</title>
<path fill="none" stroke="#191970" d="M310.9027,-139.1092C337.236,-136.1311 373.7008,-132.0071 401.8821,-128.8199"/>
<polygon fill="#191970" stroke="#191970" points="402.3124,-132.2936 411.8557,-127.6919 401.5257,-125.338 402.3124,-132.2936"/>
</g>
<!-- Node28 -->
<g id="node16" class="node">
<title>Node28</title>
<g id="a_node16"><a xlink:href="defines_8c.html#a2ce7c4d064c3b1a3f182c3e830a4c31d" target="_top" xlink:title="Visualizza sullo standard output un messaggio utilizzando la write. ">
<polygon fill="none" stroke="#000000" points="412,-76.5 412,-95.5 477,-95.5 477,-76.5 412,-76.5"/>
<text text-anchor="middle" x="444.5" y="-83.5" font-family="Helvetica,sans-Serif" font-size="10.00" fill="#000000">print_msg</text>
</a>
</g>
</g>
<!-- Node26&#45;&gt;Node28 -->
<g id="edge27" class="edge">
<title>Node26&#45;&gt;Node28</title>
<path fill="none" stroke="#191970" d="M299.3486,-133.4271C319.1615,-125.3093 348.7066,-113.6413 375,-105 383.6341,-102.1624 392.9654,-99.4051 401.9028,-96.911"/>
<polygon fill="#191970" stroke="#191970" points="403.0433,-100.2278 411.7678,-94.2167 401.199,-93.4751 403.0433,-100.2278"/>
</g>
<!-- Node27&#45;&gt;Node14 -->
<g id="edge25" class="edge">
<title>Node27&#45;&gt;Node14</title>
<path fill="none" stroke="#191970" d="M477.1505,-128.1148C490.3623,-131.4097 504.668,-137.3378 514,-148 550.9522,-190.2191 568.1798,-367.3638 573.0209,-427.176"/>
<polygon fill="#191970" stroke="#191970" points="569.5589,-427.8018 573.8261,-437.4993 576.5377,-427.2574 569.5589,-427.8018"/>
</g>
<!-- Node28&#45;&gt;Node14 -->
<g id="edge28" class="edge">
<title>Node28&#45;&gt;Node14</title>
<path fill="none" stroke="#191970" d="M477.1262,-87.5087C490.3337,-89.8076 504.6427,-94.742 514,-105 557.7009,-152.9073 570.6756,-361.7315 573.7067,-427.2566"/>
<polygon fill="#191970" stroke="#191970" points="570.2184,-427.6051 574.1496,-437.4436 577.2118,-427.301 570.2184,-427.6051"/>
</g>
<!-- Node29&#45;&gt;Node14 -->
<g id="edge30" class="edge">
<title>Node29&#45;&gt;Node14</title>
<path fill="none" stroke="#191970" d="M167.5812,-855.5341C245.7735,-871.5167 419.2801,-893.7069 514,-803 562.9017,-756.1701 572.3526,-534.9165 574.1121,-466.9246"/>
<polygon fill="#191970" stroke="#191970" points="577.6157,-466.8044 574.3464,-456.7266 570.6176,-466.6435 577.6157,-466.8044"/>
</g>
<!-- Node30&#45;&gt;Node14 -->
<g id="edge32" class="edge">
<title>Node30&#45;&gt;Node14</title>
<path fill="none" stroke="#191970" d="M166.8011,-809.9987C254.9014,-813.5994 464.3635,-816.9796 514,-771 558.9533,-729.3586 571.0347,-530.6236 573.7826,-466.7892"/>
<polygon fill="#191970" stroke="#191970" points="577.2913,-466.6398 574.1929,-456.5081 570.2968,-466.3606 577.2913,-466.6398"/>
</g>
<!-- Node31&#45;&gt;Node14 -->
<g id="edge34" class="edge">
<title>Node31&#45;&gt;Node14</title>
<path fill="none" stroke="#191970" d="M166.3227,-772.7438C253.9145,-778.0679 463.2197,-785.661 514,-741 555.5401,-704.4657 569.791,-526.3068 573.445,-466.5689"/>
<polygon fill="#191970" stroke="#191970" points="576.9403,-466.7495 574.0239,-456.564 569.952,-466.3451 576.9403,-466.7495"/>
</g>
<!-- Node33 -->
<g id="node21" class="node">
<title>Node33</title>
<g id="a_node21"><a xlink:href="semaphore_8c.html#a77c6570406059144bb6a8ecf04f481da" target="_top" xlink:title="Funzione di supporto per manipolare i valori di un set di semafori. ">
<polygon fill="none" stroke="#000000" points="419,-380.5 419,-399.5 470,-399.5 470,-380.5 419,-380.5"/>
<text text-anchor="middle" x="444.5" y="-387.5" font-family="Helvetica,sans-Serif" font-size="10.00" fill="#000000">semOp</text>
</a>
</g>
</g>
<!-- Node32&#45;&gt;Node33 -->
<g id="edge36" class="edge">
<title>Node32&#45;&gt;Node33</title>
<path fill="none" stroke="#191970" d="M310.5347,-499.0794C320.5816,-496.2804 331.0137,-491.8891 339,-485 367.301,-460.5871 346.3568,-433.0106 375,-409 384.4903,-401.0446 397.0343,-396.4007 408.8508,-393.6969"/>
<polygon fill="#191970" stroke="#191970" points="409.7777,-397.0837 418.9527,-391.7857 408.4764,-390.2057 409.7777,-397.0837"/>
</g>
<!-- Node33&#45;&gt;Node14 -->
<g id="edge37" class="edge">
<title>Node33&#45;&gt;Node14</title>
<path fill="none" stroke="#191970" d="M470.2068,-395.1233C483.5884,-398.2604 500.0276,-402.8632 514,-409 527.7998,-415.061 542.1303,-423.9299 553.3784,-431.5754"/>
<polygon fill="#191970" stroke="#191970" points="551.4671,-434.5097 561.6692,-437.3677 555.4761,-428.7714 551.4671,-434.5097"/>
</g>
<!-- Node34&#45;&gt;Node33 -->
<g id="edge39" class="edge">
<title>Node34&#45;&gt;Node33</title>
<path fill="none" stroke="#191970" d="M290.2612,-456.4948C308.7819,-444.0704 343.0964,-422.3283 375,-409 385.781,-404.4961 397.9471,-400.7494 409.0524,-397.8069"/>
<polygon fill="#191970" stroke="#191970" points="410.0397,-401.1677 418.8827,-395.3321 408.3308,-394.3795 410.0397,-401.1677"/>
</g>
<!-- Node35&#45;&gt;Node14 -->
<g id="edge46" class="edge">
<title>Node35&#45;&gt;Node14</title>
<path fill="none" stroke="#191970" d="M144.4494,-380.2989C201.3581,-349.131 389.0315,-257.8445 514,-333 548.2585,-353.6029 564.1512,-400.8611 570.6376,-427.6126"/>
<polygon fill="#191970" stroke="#191970" points="567.2216,-428.3753 572.8064,-437.3787 574.0551,-426.8577 567.2216,-428.3753"/>
</g>
<!-- Node35&#45;&gt;Node18 -->
<g id="edge48" class="edge">
<title>Node35&#45;&gt;Node18</title>
<path fill="none" stroke="#191970" d="M168.7882,-397.1718C183.0815,-399.5244 199.2214,-402.0363 214,-404 278.1464,-412.5236 352.6733,-419.8102 399.2175,-424.0498"/>
<polygon fill="#191970" stroke="#191970" points="399.0069,-427.5449 409.2812,-424.9586 399.6365,-420.5733 399.0069,-427.5449"/>
</g>
<!-- Node35&#45;&gt;Node25 -->
<g id="edge47" class="edge">
<title>Node35&#45;&gt;Node25</title>
<path fill="none" stroke="#191970" d="M133.194,-380.2346C146.2328,-358.197 179.7788,-303.3074 214,-262 227.727,-245.4305 245.2575,-228.335 258.2569,-216.303"/>
<polygon fill="#191970" stroke="#191970" points="260.6658,-218.8431 265.6909,-209.5157 255.946,-213.6736 260.6658,-218.8431"/>
</g>
<!-- Node35&#45;&gt;Node32 -->
<g id="edge43" class="edge">
<title>Node35&#45;&gt;Node32</title>
<path fill="none" stroke="#191970" d="M135.1384,-399.6123C152.533,-421.2889 195.0506,-473.0229 214,-485 219.7325,-488.6233 226.197,-491.5905 232.7388,-494.0106"/>
<polygon fill="#191970" stroke="#191970" points="231.709,-497.3564 242.3023,-497.1773 233.9094,-490.7112 231.709,-497.3564"/>
</g>
<!-- Node35&#45;&gt;Node33 -->
<g id="edge41" class="edge">
<title>Node35&#45;&gt;Node33</title>
<path fill="none" stroke="#191970" d="M168.6172,-390C231.1993,-390 349.3267,-390 408.6282,-390"/>
<polygon fill="#191970" stroke="#191970" points="408.6489,-393.5001 418.6489,-390 408.6489,-386.5001 408.6489,-393.5001"/>
</g>
<!-- Node35&#45;&gt;Node34 -->
<g id="edge42" class="edge">
<title>Node35&#45;&gt;Node34</title>
<path fill="none" stroke="#191970" d="M150.1737,-399.5027C159.0769,-403.5586 169.2406,-408.6012 178,-414 195.2556,-424.6353 196.3478,-432.0369 214,-442 221.2682,-446.1023 229.3762,-449.7914 237.2811,-452.9765"/>
<polygon fill="#191970" stroke="#191970" points="236.1621,-456.2958 246.7525,-456.6054 238.6667,-449.7592 236.1621,-456.2958"/>
</g>
<!-- Node36 -->
<g id="node24" class="node">
<title>Node36</title>
<g id="a_node24"><a xlink:href="semaphore_8c.html#aad78dc4ccefb184a74dd9ef808df8db6" target="_top" xlink:title="Inizializza il valore del semaforo sem_num al valore val. ">
<polygon fill="none" stroke="#000000" points="410.5,-266.5 410.5,-285.5 478.5,-285.5 478.5,-266.5 410.5,-266.5"/>
<text text-anchor="middle" x="444.5" y="-273.5" font-family="Helvetica,sans-Serif" font-size="10.00" fill="#000000">semSetVal</text>
</a>
</g>
</g>
<!-- Node35&#45;&gt;Node36 -->
<g id="edge44" class="edge">
<title>Node35&#45;&gt;Node36</title>
<path fill="none" stroke="#191970" d="M133.4258,-380.2652C145.7164,-361.0606 176.0302,-318.5521 214,-300 273.6106,-270.8742 352.0646,-269.3127 400.3528,-271.8896"/>
<polygon fill="#191970" stroke="#191970" points="400.2791,-275.3916 410.4757,-272.5145 400.7104,-268.4049 400.2791,-275.3916"/>
</g>
<!-- Node37 -->
<g id="node25" class="node">
<title>Node37</title>
<g id="a_node25"><a xlink:href="semaphore_8c.html#a34a010b0a39236a7261d7d5103426491" target="_top" xlink:title="Imposta i permessi su un set di semafori. ">
<polygon fill="none" stroke="#000000" points="405,-342.5 405,-361.5 484,-361.5 484,-342.5 405,-342.5"/>
<text text-anchor="middle" x="444.5" y="-349.5" font-family="Helvetica,sans-Serif" font-size="10.00" fill="#000000">semSetPerm</text>
</a>
</g>
</g>
<!-- Node35&#45;&gt;Node37 -->
<g id="edge49" class="edge">
<title>Node35&#45;&gt;Node37</title>
<path fill="none" stroke="#191970" d="M168.6172,-385.0711C226.6978,-378.1088 332.6202,-365.4115 394.9609,-357.9384"/>
<polygon fill="#191970" stroke="#191970" points="395.4392,-361.4063 404.9515,-356.7408 394.606,-354.456 395.4392,-361.4063"/>
</g>
<!-- Node36&#45;&gt;Node14 -->
<g id="edge45" class="edge">
<title>Node36&#45;&gt;Node14</title>
<path fill="none" stroke="#191970" d="M478.6973,-281.6989C491.0641,-285.2191 504.3447,-290.8885 514,-300 551.0038,-334.9198 566.0873,-395.7817 571.6316,-427.111"/>
<polygon fill="#191970" stroke="#191970" points="568.2139,-427.9014 573.2655,-437.2144 575.1241,-426.7838 568.2139,-427.9014"/>
</g>
<!-- Node37&#45;&gt;Node14 -->
<g id="edge50" class="edge">
<title>Node37&#45;&gt;Node14</title>
<path fill="none" stroke="#191970" d="M484.2183,-358.2759C494.4774,-361.0895 505.1219,-365.1495 514,-371 536.3375,-385.72 554.2215,-411.3776 564.5947,-428.7667"/>
<polygon fill="#191970" stroke="#191970" points="561.5614,-430.513 569.5655,-437.4546 567.6373,-427.0367 561.5614,-430.513"/>
</g>
<!-- Node40&#45;&gt;Node14 -->
<g id="edge55" class="edge">
<title>Node40&#45;&gt;Node14</title>
<path fill="none" stroke="#191970" d="M301.9445,-57.4896C349.7572,-41.4392 453.6237,-15.4758 514,-67 541.8523,-90.7687 566.3724,-352.5422 572.8392,-427.2198"/>
<polygon fill="#191970" stroke="#191970" points="569.3518,-427.5181 573.6904,-437.1838 576.3264,-426.9222 569.3518,-427.5181"/>
</g>
<!-- Node40&#45;&gt;Node28 -->
<g id="edge54" class="edge">
<title>Node40&#45;&gt;Node28</title>
<path fill="none" stroke="#191970" d="M335.7305,-73.6987C357.451,-76.1552 381.5982,-78.8861 401.6123,-81.1496"/>
<polygon fill="#191970" stroke="#191970" points="401.3369,-84.6407 411.6669,-82.2867 402.1236,-77.685 401.3369,-84.6407"/>
</g>
<!-- Node41 -->
<g id="node29" class="node">
<title>Node41</title>
<g id="a_node29"><a xlink:href="server_8c.html#aefaefec035e6211d28b35a6d2ce3b3fa" target="_top" xlink:title="costruisciStringa">
<polygon fill="none" stroke="#000000" points="395.5,-.5 395.5,-19.5 493.5,-19.5 493.5,-.5 395.5,-.5"/>
<text text-anchor="middle" x="444.5" y="-7.5" font-family="Helvetica,sans-Serif" font-size="10.00" fill="#000000">costruisciStringa</text>
</a>
</g>
</g>
<!-- Node40&#45;&gt;Node41 -->
<g id="edge56" class="edge">
<title>Node40&#45;&gt;Node41</title>
<path fill="none" stroke="#191970" d="M304.6194,-57.4595C332.6028,-47.9651 375.7285,-33.3332 406.6962,-22.8263"/>
<polygon fill="#191970" stroke="#191970" points="407.9436,-26.0991 416.2888,-19.5716 405.6945,-19.4702 407.9436,-26.0991"/>
</g>
<!-- Node43 -->
<g id="node31" class="node">
<title>Node43</title>
<g id="a_node31"><a xlink:href="semaphore_8c.html#a78e24598fb0a5416db19120d6748627e" target="_top" xlink:title="semOpNoBlocc">
<polygon fill="none" stroke="#000000" points="231,-722.5 231,-741.5 322,-741.5 322,-722.5 231,-722.5"/>
<text text-anchor="middle" x="276.5" y="-729.5" font-family="Helvetica,sans-Serif" font-size="10.00" fill="#000000">semOpNoBlocc</text>
</a>
</g>
</g>
<!-- Node42&#45;&gt;Node43 -->
<g id="edge58" class="edge">
<title>Node42&#45;&gt;Node43</title>
<path fill="none" stroke="#191970" d="M177.1148,-732C191.0118,-732 206.2138,-732 220.4556,-732"/>
<polygon fill="#191970" stroke="#191970" points="220.6238,-735.5001 230.6238,-732 220.6237,-728.5001 220.6238,-735.5001"/>
</g>
<!-- Node43&#45;&gt;Node14 -->
<g id="edge59" class="edge">
<title>Node43&#45;&gt;Node14</title>
<path fill="none" stroke="#191970" d="M321.4635,-741.5298C374.2525,-749.8891 461.2757,-754.417 514,-708 550.5051,-675.862 567.7412,-522.061 572.8294,-466.815"/>
<polygon fill="#191970" stroke="#191970" points="576.338,-466.8709 573.7333,-456.6012 569.3653,-466.2537 576.338,-466.8709"/>
</g>
</g>
</svg>
