<?xml version="1.0" encoding="UTF-8" standalone="no"?>
<!DOCTYPE svg PUBLIC "-//W3C//DTD SVG 1.1//EN"
 "http://www.w3.org/Graphics/SVG/1.1/DTD/svg11.dtd">
<!-- Generated by graphviz version 2.40.1 (20161225.0304)
 -->
<!-- Title: findAndMakeFullFiles Pages: 1 -->
<svg width="345pt" height="104pt"
 viewBox="0.00 0.00 345.00 104.00" xmlns="http://www.w3.org/2000/svg" xmlns:xlink="http://www.w3.org/1999/xlink">
<g id="graph0" class="graph" transform="scale(1 1) rotate(0) translate(4 100)">
<title>findAndMakeFullFiles</title>
<!-- Node7 -->
<g id="node1" class="node">
<title>Node7</title>
<polygon fill="#bfbfbf" stroke="#000000" points="0,-38.5 0,-57.5 118,-57.5 118,-38.5 0,-38.5"/>
<text text-anchor="middle" x="59" y="-45.5" font-family="Helvetica,sans-Serif" font-size="10.00" fill="#000000">findAndMakeFullFiles</text>
</g>
<!-- Node8 -->
<g id="node2" class="node">
<title>Node8</title>
<g id="a_node2"><a xlink:href="defines_8c.html#a2ce7c4d064c3b1a3f182c3e830a4c31d" target="_top" xlink:title="Visualizza sullo standard output un messaggio utilizzando la write. ">
<polygon fill="none" stroke="#000000" points="170.5,-76.5 170.5,-95.5 235.5,-95.5 235.5,-76.5 170.5,-76.5"/>
<text text-anchor="middle" x="203" y="-83.5" font-family="Helvetica,sans-Serif" font-size="10.00" fill="#000000">print_msg</text>
</a>
</g>
</g>
<!-- Node7&#45;&gt;Node8 -->
<g id="edge1" class="edge">
<title>Node7&#45;&gt;Node8</title>
<path fill="none" stroke="#191970" d="M95.3373,-57.589C115.0993,-62.804 139.6567,-69.2844 160.3254,-74.7386"/>
<polygon fill="#191970" stroke="#191970" points="159.5594,-78.1563 170.1214,-77.3237 161.3455,-71.3879 159.5594,-78.1563"/>
</g>
<!-- Node9 -->
<g id="node3" class="node">
<title>Node9</title>
<g id="a_node3"><a xlink:href="err__exit_8c.html#aa223b0ecfe538d130ece562646a37d27" target="_top" xlink:title="Prints the error message of the last failed system call and terminates the calling process...">
<polygon fill="none" stroke="#000000" points="288,-57.5 288,-76.5 337,-76.5 337,-57.5 288,-57.5"/>
<text text-anchor="middle" x="312.5" y="-64.5" font-family="Helvetica,sans-Serif" font-size="10.00" fill="#000000">ErrExit</text>
</a>
</g>
</g>
<!-- Node7&#45;&gt;Node9 -->
<g id="edge3" class="edge">
<title>Node7&#45;&gt;Node9</title>
<path fill="none" stroke="#191970" d="M118.1146,-52.4307C167.6428,-56.1428 236.6564,-61.3155 277.7355,-64.3944"/>
<polygon fill="#191970" stroke="#191970" points="277.5633,-67.8912 287.7969,-65.1485 278.0865,-60.9108 277.5633,-67.8912"/>
</g>
<!-- Node10 -->
<g id="node4" class="node">
<title>Node10</title>
<g id="a_node4"><a xlink:href="server_8c.html#aefaefec035e6211d28b35a6d2ce3b3fa" target="_top" xlink:title="costruisciStringa">
<polygon fill="none" stroke="#000000" points="154,-.5 154,-19.5 252,-19.5 252,-.5 154,-.5"/>
<text text-anchor="middle" x="203" y="-7.5" font-family="Helvetica,sans-Serif" font-size="10.00" fill="#000000">costruisciStringa</text>
</a>
</g>
</g>
<!-- Node7&#45;&gt;Node10 -->
<g id="edge4" class="edge">
<title>Node7&#45;&gt;Node10</title>
<path fill="none" stroke="#191970" d="M95.3373,-38.411C114.0829,-33.4642 137.1432,-27.3789 157.1066,-22.1108"/>
<polygon fill="#191970" stroke="#191970" points="158.1481,-25.4558 166.924,-19.5201 156.3619,-18.6875 158.1481,-25.4558"/>
</g>
<!-- Node8&#45;&gt;Node9 -->
<g id="edge2" class="edge">
<title>Node8&#45;&gt;Node9</title>
<path fill="none" stroke="#191970" d="M235.5571,-80.3508C248.9201,-78.0321 264.4063,-75.345 277.9673,-72.992"/>
<polygon fill="#191970" stroke="#191970" points="278.6408,-76.4275 287.8952,-71.2693 277.444,-69.5306 278.6408,-76.4275"/>
</g>
</g>
</svg>
