<?xml version="1.0" encoding="UTF-8" standalone="no"?>
<!DOCTYPE svg PUBLIC "-//W3C//DTD SVG 1.1//EN"
 "http://www.w3.org/Graphics/SVG/1.1/DTD/svg11.dtd">
<!-- Generated by graphviz version 2.40.1 (20161225.0304)
 -->
<!-- Title: findAndMakeFullFiles Pages: 1 -->
<svg width="260pt" height="66pt"
 viewBox="0.00 0.00 260.00 66.00" xmlns="http://www.w3.org/2000/svg" xmlns:xlink="http://www.w3.org/1999/xlink">
<g id="graph0" class="graph" transform="scale(1 1) rotate(0) translate(4 62)">
<title>findAndMakeFullFiles</title>
<!-- Node7 -->
<g id="node1" class="node">
<title>Node7</title>
<polygon fill="#bfbfbf" stroke="#000000" points="0,-19.5 0,-38.5 118,-38.5 118,-19.5 0,-19.5"/>
<text text-anchor="middle" x="59" y="-26.5" font-family="Helvetica,sans-Serif" font-size="10.00" fill="#000000">findAndMakeFullFiles</text>
</g>
<!-- Node8 -->
<g id="node2" class="node">
<title>Node8</title>
<g id="a_node2"><a xlink:href="err__exit_8c.html#aa223b0ecfe538d130ece562646a37d27" target="_top" xlink:title="Prints the error message of the last failed system call and terminates the calling process...">
<polygon fill="none" stroke="#000000" points="178.5,-38.5 178.5,-57.5 227.5,-57.5 227.5,-38.5 178.5,-38.5"/>
<text text-anchor="middle" x="203" y="-45.5" font-family="Helvetica,sans-Serif" font-size="10.00" fill="#000000">ErrExit</text>
</a>
</g>
</g>
<!-- Node7&#45;&gt;Node8 -->
<g id="edge1" class="edge">
<title>Node7&#45;&gt;Node8</title>
<path fill="none" stroke="#191970" d="M118.4017,-36.8377C135.234,-39.0587 153.0145,-41.4047 167.9074,-43.3697"/>
<polygon fill="#191970" stroke="#191970" points="167.8147,-46.8877 178.1866,-44.726 168.7304,-39.9479 167.8147,-46.8877"/>
</g>
<!-- Node9 -->
<g id="node3" class="node">
<title>Node9</title>
<g id="a_node3"><a xlink:href="server_8c.html#aefaefec035e6211d28b35a6d2ce3b3fa" target="_top" xlink:title="costruisciStringa">
<polygon fill="none" stroke="#000000" points="154,-.5 154,-19.5 252,-19.5 252,-.5 154,-.5"/>
<text text-anchor="middle" x="203" y="-7.5" font-family="Helvetica,sans-Serif" font-size="10.00" fill="#000000">costruisciStringa</text>
</a>
</g>
</g>
<!-- Node7&#45;&gt;Node9 -->
<g id="edge2" class="edge">
<title>Node7&#45;&gt;Node9</title>
<path fill="none" stroke="#191970" d="M118.4017,-21.1623C126.7737,-20.0576 135.3802,-18.9221 143.7493,-17.8178"/>
<polygon fill="#191970" stroke="#191970" points="144.3522,-21.2687 153.8084,-16.4906 143.4365,-14.3288 144.3522,-21.2687"/>
</g>
</g>
</svg>
