<?xml version="1.0" encoding="UTF-8" standalone="no"?>
<!DOCTYPE svg PUBLIC "-//W3C//DTD SVG 1.1//EN"
 "http://www.w3.org/Graphics/SVG/1.1/DTD/svg11.dtd">
<!-- Generated by graphviz version 2.40.1 (20161225.0304)
 -->
<!-- Title: main Pages: 1 -->
<!--zoomable 817 -->
<svg id="main" version="1.1" xmlns="http://www.w3.org/2000/svg" xmlns:xlink="http://www.w3.org/1999/xlink" xml:space="preserve" onload="init(evt)">
<style type="text/css"><![CDATA[
.edge:hover path { stroke: red; }
.edge:hover polygon { stroke: red; fill: red; }
]]></style>
<script type="text/javascript"><![CDATA[
var edges = document.getElementsByTagName('g');
if (edges && edges.length) {
  for (var i=0;i<edges.length;i++) {
    if (edges[i].id.substr(0,4)=='edge') {
      edges[i].setAttribute('class','edge');
    }
  }
}
]]></script>
        <defs>
                <circle id="rim" cx="0" cy="0" r="7"/>
                <circle id="rim2" cx="0" cy="0" r="3.5"/>
                <g id="zoomPlus">
                        <use xlink:href="#rim" fill="#404040">
                                <set attributeName="fill" to="#808080" begin="zoomplus.mouseover" end="zoomplus.mouseout"/>
                        </use>
                        <path d="M-4,0h8M0,-4v8" fill="none" stroke="white" stroke-width="1.5" pointer-events="none"/>
                </g>
                <g id="zoomMin">
                        <use xlink:href="#rim" fill="#404040">
                                <set attributeName="fill" to="#808080" begin="zoomminus.mouseover" end="zoomminus.mouseout"/>
                        </use>
                        <path d="M-4,0h8" fill="none" stroke="white" stroke-width="1.5" pointer-events="none"/>
                </g>
                <g id="dirArrow">
                        <path fill="none" stroke="white" stroke-width="1.5" d="M0,-3.0v7 M-2.5,-0.5L0,-3.0L2.5,-0.5"/>
                </g>
               <g id="resetDef">
                       <use xlink:href="#rim2" fill="#404040">
                               <set attributeName="fill" to="#808080" begin="reset.mouseover" end="reset.mouseout"/>
                       </use>
               </g>
        </defs>

<script type="text/javascript">
var viewWidth = 607;
var viewHeight = 817;
var sectionId = 'dynsection-3';
</script>
<script xlink:href="svgpan.js"/>
<svg id="graph" class="graph">
<g id="viewport">
<title>main</title>
<!-- Node6 -->
<g id="node1" class="node">
<title>Node6</title>
<polygon fill="#bfbfbf" stroke="#000000" points="0,-361.5 0,-380.5 41,-380.5 41,-361.5 0,-361.5"/>
<text text-anchor="middle" x="20.5" y="-368.5" font-family="Helvetica,sans-Serif" font-size="10.00" fill="#000000">main</text>
</g>
<!-- Node7 -->
<g id="node2" class="node">
<title>Node7</title>
<g id="a_node2"><a xlink:href="err__exit_8c.html#aa223b0ecfe538d130ece562646a37d27" target="_top" xlink:title="Prints the error message of the last failed system call and terminates the calling process...">
<polygon fill="none" stroke="#000000" points="550,-437.5 550,-456.5 599,-456.5 599,-437.5 550,-437.5"/>
<text text-anchor="middle" x="574.5" y="-444.5" font-family="Helvetica,sans-Serif" font-size="10.00" fill="#000000">ErrExit</text>
</a>
</g>
</g>
<!-- Node6&#45;&gt;Node7 -->
<g id="edge1" class="edge">
<title>Node6&#45;&gt;Node7</title>
<path fill="none" stroke="#191970" d="M20.7828,-380.6465C22.4268,-430.1463 32.2987,-655.2315 77,-705 168.9505,-807.3739 238.6908,-770.1558 375,-789 436.1958,-797.4601 466.6644,-828.6968 514,-789 563.7887,-747.246 572.6253,-533.3799 574.175,-466.807"/>
<polygon fill="#191970" stroke="#191970" points="577.6745,-466.8625 574.3773,-456.7938 570.6759,-466.721 577.6745,-466.8625"/>
</g>
<!-- Node8 -->
<g id="node3" class="node">
<title>Node8</title>
<g id="a_node3"><a xlink:href="server_8c.html#a48d605ff689f470746c858648f0a98c2" target="_top" xlink:title="Chiude tutte le IPC e termina. ">
<polygon fill="none" stroke="#000000" points="217.5,-684.5 217.5,-703.5 335.5,-703.5 335.5,-684.5 217.5,-684.5"/>
<text text-anchor="middle" x="276.5" y="-691.5" font-family="Helvetica,sans-Serif" font-size="10.00" fill="#000000">SIGINTSignalHandler</text>
</a>
</g>
</g>
<!-- Node6&#45;&gt;Node8 -->
<g id="edge2" class="edge">
<title>Node6&#45;&gt;Node8</title>
<path fill="none" stroke="#191970" d="M20.791,-380.5452C22.4338,-427.5678 32.1461,-633.9624 77,-675 115.6986,-710.4059 178.0043,-710.7003 222.6924,-704.9585"/>
<polygon fill="#191970" stroke="#191970" points="223.3881,-708.3948 232.7951,-703.5206 222.4017,-701.4647 223.3881,-708.3948"/>
</g>
<!-- Node12 -->
<g id="node7" class="node">
<title>Node12</title>
<g id="a_node7"><a xlink:href="defines_8c.html#a2d341373a96ffea0944553e5452cdbca" target="_top" xlink:title="get_ipc_key">
<polygon fill="none" stroke="#000000" points="90,-646.5 90,-665.5 165,-665.5 165,-646.5 90,-646.5"/>
<text text-anchor="middle" x="127.5" y="-653.5" font-family="Helvetica,sans-Serif" font-size="10.00" fill="#000000">get_ipc_key</text>
</a>
</g>
</g>
<!-- Node6&#45;&gt;Node12 -->
<g id="edge10" class="edge">
<title>Node6&#45;&gt;Node12</title>
<path fill="none" stroke="#191970" d="M21.3119,-380.5502C25.1244,-423.32 42.5288,-596.9049 77,-637 78.3282,-638.5449 79.7953,-639.9645 81.368,-641.2688"/>
<polygon fill="#191970" stroke="#191970" points="79.6716,-644.3412 89.9584,-646.8774 83.4985,-638.4798 79.6716,-644.3412"/>
</g>
<!-- Node14 -->
<g id="node9" class="node">
<title>Node14</title>
<g id="a_node9"><a xlink:href="shared__memory_8c.html#a660a60242a5174977ab2debcdbd0e587" target="_top" xlink:title="Ottiene l&#39;id o crea una memoria condivisa. ">
<polygon fill="none" stroke="#000000" points="214,-589.5 214,-608.5 339,-608.5 339,-589.5 214,-589.5"/>
<text text-anchor="middle" x="276.5" y="-596.5" font-family="Helvetica,sans-Serif" font-size="10.00" fill="#000000">alloc_shared_memory</text>
</a>
</g>
</g>
<!-- Node6&#45;&gt;Node14 -->
<g id="edge13" class="edge">
<title>Node6&#45;&gt;Node14</title>
<path fill="none" stroke="#191970" d="M22.1666,-380.8557C28.2302,-415.5604 50.1746,-531.3412 77,-556 110.8573,-587.1227 161.6676,-597.7396 203.5361,-600.6439"/>
<polygon fill="#191970" stroke="#191970" points="203.5158,-604.1481 213.6957,-601.2121 203.9068,-597.159 203.5158,-604.1481"/>
</g>
<!-- Node15 -->
<g id="node10" class="node">
<title>Node15</title>
<g id="a_node10"><a xlink:href="shared__memory_8c.html#ab2ffe00ec7425a3a4229cd0d53ed901c" target="_top" xlink:title="Recupera il puntatore alla memoria condivisa aggiungendola allo spazio degli indirizzi. ">
<polygon fill="none" stroke="#000000" points="386,-570.5 386,-589.5 503,-589.5 503,-570.5 386,-570.5"/>
<text text-anchor="middle" x="444.5" y="-577.5" font-family="Helvetica,sans-Serif" font-size="10.00" fill="#000000">get_shared_memory</text>
</a>
</g>
</g>
<!-- Node6&#45;&gt;Node15 -->
<g id="edge15" class="edge">
<title>Node6&#45;&gt;Node15</title>
<path fill="none" stroke="#191970" d="M24.0823,-380.7777C31.3449,-399.3653 49.4863,-440.0744 77,-464 162.4535,-538.3094 295.561,-565.0654 375.9511,-574.6658"/>
<polygon fill="#191970" stroke="#191970" points="375.6371,-578.1525 385.9687,-575.8058 376.4287,-571.1974 375.6371,-578.1525"/>
</g>
<!-- Node16 -->
<g id="node11" class="node">
<title>Node16</title>
<g id="a_node11"><a xlink:href="defines_8c.html#afd25e0dffe44c8dd59ae86caabb94287" target="_top" xlink:title="get_ipc_key2">
<polygon fill="none" stroke="#000000" points="87,-608.5 87,-627.5 168,-627.5 168,-608.5 87,-608.5"/>
<text text-anchor="middle" x="127.5" y="-615.5" font-family="Helvetica,sans-Serif" font-size="10.00" fill="#000000">get_ipc_key2</text>
</a>
</g>
</g>
<!-- Node6&#45;&gt;Node16 -->
<g id="edge17" class="edge">
<title>Node6&#45;&gt;Node16</title>
<path fill="none" stroke="#191970" d="M21.8458,-380.7125C27.3322,-419.1226 49.0519,-559.9743 77,-594 79.9564,-597.5994 83.5788,-600.6926 87.5136,-603.343"/>
<polygon fill="#191970" stroke="#191970" points="86.0688,-606.5482 96.4893,-608.4623 89.5369,-600.4677 86.0688,-606.5482"/>
</g>
<!-- Node17 -->
<g id="node12" class="node">
<title>Node17</title>
<g id="a_node12"><a xlink:href="semaphore_8c.html#a2081de3d1c08dbacaf10ca46a717fabb" target="_top" xlink:title="Crea un insieme di semafori. ">
<polygon fill="none" stroke="#000000" points="222.5,-494.5 222.5,-513.5 330.5,-513.5 330.5,-494.5 222.5,-494.5"/>
<text text-anchor="middle" x="276.5" y="-501.5" font-family="Helvetica,sans-Serif" font-size="10.00" fill="#000000">createSemaphores</text>
</a>
</g>
</g>
<!-- Node6&#45;&gt;Node17 -->
<g id="edge19" class="edge">
<title>Node6&#45;&gt;Node17</title>
<path fill="none" stroke="#191970" d="M27.97,-380.5332C37.9796,-392.7567 56.8341,-413.9304 77,-427 124.7343,-457.9368 186.7925,-479.4239 228.93,-491.6909"/>
<polygon fill="#191970" stroke="#191970" points="228.0863,-495.0898 238.6626,-494.4636 230.0042,-488.3576 228.0863,-495.0898"/>
</g>
<!-- Node18 -->
<g id="node13" class="node">
<title>Node18</title>
<g id="a_node13"><a xlink:href="semaphore_8c.html#a8df9b8ea63eaf93d09f437b356a4a1eb" target="_top" xlink:title="Inizializza i valori del set di semafori semid ai valori in values. ">
<polygon fill="none" stroke="#000000" points="243.5,-266.5 243.5,-285.5 309.5,-285.5 309.5,-266.5 243.5,-266.5"/>
<text text-anchor="middle" x="276.5" y="-273.5" font-family="Helvetica,sans-Serif" font-size="10.00" fill="#000000">semSetAll</text>
</a>
</g>
</g>
<!-- Node6&#45;&gt;Node18 -->
<g id="edge21" class="edge">
<title>Node6&#45;&gt;Node18</title>
<path fill="none" stroke="#191970" d="M24.5218,-361.2428C32.0346,-344.4107 49.9298,-310.2571 77,-295 125.3014,-267.7767 190.7753,-267.0838 233.3246,-270.4402"/>
<polygon fill="#191970" stroke="#191970" points="233.0868,-273.9328 243.3595,-271.3404 233.7123,-266.9608 233.0868,-273.9328"/>
</g>
<!-- Node19 -->
<g id="node14" class="node">
<title>Node19</title>
<g id="a_node14"><a xlink:href="fifo_8c.html#a54a1ae8162825128cf02f95692402c18" target="_top" xlink:title="Facilita la creazione di una FIFO (o ne ottiene una esistente) in modalita&#39; lettura o scrittura...">
<polygon fill="none" stroke="#000000" points="242.5,-418.5 242.5,-437.5 310.5,-437.5 310.5,-418.5 242.5,-418.5"/>
<text text-anchor="middle" x="276.5" y="-425.5" font-family="Helvetica,sans-Serif" font-size="10.00" fill="#000000">create_fifo</text>
</a>
</g>
</g>
<!-- Node6&#45;&gt;Node19 -->
<g id="edge23" class="edge">
<title>Node6&#45;&gt;Node19</title>
<path fill="none" stroke="#191970" d="M33.6737,-380.805C44.6697,-388.4521 61.0635,-398.6449 77,-404 128.4099,-421.2752 190.9545,-426.4195 232.1496,-427.7958"/>
<polygon fill="#191970" stroke="#191970" points="232.3092,-431.3013 242.4008,-428.075 232.4999,-424.3039 232.3092,-431.3013"/>
</g>
<!-- Node21 -->
<g id="node16" class="node">
<title>Node21</title>
<g id="a_node16"><a xlink:href="message__queue_8c.html#afebbb2a5c42d6a8bd4c95ab012c1dc8a" target="_top" xlink:title="Restituisce statistiche della coda dei messaggi. ">
<polygon fill="none" stroke="#000000" points="404.5,-380.5 404.5,-399.5 484.5,-399.5 484.5,-380.5 404.5,-380.5"/>
<text text-anchor="middle" x="444.5" y="-387.5" font-family="Helvetica,sans-Serif" font-size="10.00" fill="#000000">msqGetStats</text>
</a>
</g>
</g>
<!-- Node6&#45;&gt;Node21 -->
<g id="edge27" class="edge">
<title>Node6&#45;&gt;Node21</title>
<path fill="none" stroke="#191970" d="M41.2374,-371.9293C105.2592,-374.7982 301.0771,-383.573 394.2364,-387.7476"/>
<polygon fill="#191970" stroke="#191970" points="394.1214,-391.2459 404.2681,-388.1972 394.4349,-384.2529 394.1214,-391.2459"/>
</g>
<!-- Node22 -->
<g id="node17" class="node">
<title>Node22</title>
<g id="a_node17"><a xlink:href="message__queue_8c.html#aded429c9008be24df92b60660cc0acfe" target="_top" xlink:title="Imposta nuove configurazioni sulla coda dei messaggi. ">
<polygon fill="none" stroke="#000000" points="88.5,-342.5 88.5,-361.5 166.5,-361.5 166.5,-342.5 88.5,-342.5"/>
<text text-anchor="middle" x="127.5" y="-349.5" font-family="Helvetica,sans-Serif" font-size="10.00" fill="#000000">msqSetStats</text>
</a>
</g>
</g>
<!-- Node6&#45;&gt;Node22 -->
<g id="edge29" class="edge">
<title>Node6&#45;&gt;Node22</title>
<path fill="none" stroke="#191970" d="M41.1307,-367.3366C51.7771,-365.4461 65.2589,-363.0522 78.3861,-360.7212"/>
<polygon fill="#191970" stroke="#191970" points="79.0686,-364.1548 88.3026,-358.9603 77.8447,-357.2626 79.0686,-364.1548"/>
</g>
<!-- Node23 -->
<g id="node18" class="node">
<title>Node23</title>
<g id="a_node18"><a xlink:href="server_8c.html#ab53aa0eb44ad55d2e189f18d3bd6017b" target="_top" xlink:title="string_to_int">
<polygon fill="none" stroke="#000000" points="89,-304.5 89,-323.5 166,-323.5 166,-304.5 89,-304.5"/>
<text text-anchor="middle" x="127.5" y="-311.5" font-family="Helvetica,sans-Serif" font-size="10.00" fill="#000000">string_to_int</text>
</a>
</g>
</g>
<!-- Node6&#45;&gt;Node23 -->
<g id="edge31" class="edge">
<title>Node6&#45;&gt;Node23</title>
<path fill="none" stroke="#191970" d="M32.9903,-361.3574C44.1051,-353.0858 61.029,-341.233 77,-333 80.8405,-331.0203 84.9364,-329.1371 89.0711,-327.3801"/>
<polygon fill="#191970" stroke="#191970" points="90.7089,-330.4942 98.687,-323.5228 88.1028,-323.9974 90.7089,-330.4942"/>
</g>
<!-- Node24 -->
<g id="node19" class="node">
<title>Node24</title>
<g id="a_node19"><a xlink:href="semaphore_8c.html#a7bad0eb0b0c6ac701b59c36b8b7837bf" target="_top" xlink:title="Esegue la signal sul semaforo sem_num: incrementa il valore di 1. ">
<polygon fill="none" stroke="#000000" points="242.5,-.5 242.5,-19.5 310.5,-19.5 310.5,-.5 242.5,-.5"/>
<text text-anchor="middle" x="276.5" y="-7.5" font-family="Helvetica,sans-Serif" font-size="10.00" fill="#000000">semSignal</text>
</a>
</g>
</g>
<!-- Node6&#45;&gt;Node24 -->
<g id="edge33" class="edge">
<title>Node6&#45;&gt;Node24</title>
<path fill="none" stroke="#191970" d="M22.1,-361.2116C28.1009,-325.606 50.2965,-203.6211 77,-176 109.8238,-142.0483 144.7735,-176.5577 178,-143 215.3839,-105.2434 176.2278,-66.3681 214,-29 219.2103,-23.8455 225.7729,-20.0826 232.673,-17.3372"/>
<polygon fill="#191970" stroke="#191970" points="233.8002,-20.6509 242.1962,-14.189 231.603,-14.0047 233.8002,-20.6509"/>
</g>
<!-- Node26 -->
<g id="node21" class="node">
<title>Node26</title>
<g id="a_node21"><a xlink:href="semaphore_8c.html#a2581efba6a0833e3f289de94c779cc21" target="_top" xlink:title="Esegue la wait sul semaforo sem_num: decrementa il valore di 1 ed eventualmente mette in attesa il pr...">
<polygon fill="none" stroke="#000000" points="247,-38.5 247,-57.5 306,-57.5 306,-38.5 247,-38.5"/>
<text text-anchor="middle" x="276.5" y="-45.5" font-family="Helvetica,sans-Serif" font-size="10.00" fill="#000000">semWait</text>
</a>
</g>
</g>
<!-- Node6&#45;&gt;Node26 -->
<g id="edge36" class="edge">
<title>Node6&#45;&gt;Node26</title>
<path fill="none" stroke="#191970" d="M21.4499,-361.4404C24.5397,-335.229 36.5694,-261.3607 77,-219 110.6848,-183.7072 144.7169,-211.6718 178,-176 211.3687,-140.2365 179.9955,-107.1594 214,-72 220.3406,-65.444 228.6663,-60.6522 237.1645,-57.159"/>
<polygon fill="#191970" stroke="#191970" points="238.4947,-60.4005 246.7357,-53.7421 236.1411,-53.808 238.4947,-60.4005"/>
</g>
<!-- Node27 -->
<g id="node22" class="node">
<title>Node27</title>
<g id="a_node22"><a xlink:href="semaphore_8c.html#a40485eedbf6d56f7fd27bce5a537efbe" target="_top" xlink:title="Attende che il semaforo sem_num raggiunga il valore zero. ">
<polygon fill="none" stroke="#000000" points="86.5,-228.5 86.5,-247.5 168.5,-247.5 168.5,-228.5 86.5,-228.5"/>
<text text-anchor="middle" x="127.5" y="-235.5" font-family="Helvetica,sans-Serif" font-size="10.00" fill="#000000">semWaitZero</text>
</a>
</g>
</g>
<!-- Node6&#45;&gt;Node27 -->
<g id="edge38" class="edge">
<title>Node6&#45;&gt;Node27</title>
<path fill="none" stroke="#191970" d="M23.2122,-361.2655C29.4474,-340.4909 46.6465,-291.322 77,-262 80.8289,-258.3012 85.3351,-255.0857 90.0525,-252.3162"/>
<polygon fill="#191970" stroke="#191970" points="92.0027,-255.2471 99.2622,-247.5301 88.7748,-249.0358 92.0027,-255.2471"/>
</g>
<!-- Node31 -->
<g id="node26" class="node">
<title>Node31</title>
<g id="a_node26"><a xlink:href="defines_8c.html#aea9b93cad897755a46cb9e3373ba8cc2" target="_top" xlink:title="Rende bloccante oppure non bloccante un file descriptor. ">
<polygon fill="none" stroke="#000000" points="99.5,-114.5 99.5,-133.5 155.5,-133.5 155.5,-114.5 99.5,-114.5"/>
<text text-anchor="middle" x="127.5" y="-121.5" font-family="Helvetica,sans-Serif" font-size="10.00" fill="#000000">blockFD</text>
</a>
</g>
</g>
<!-- Node6&#45;&gt;Node31 -->
<g id="edge51" class="edge">
<title>Node6&#45;&gt;Node31</title>
<path fill="none" stroke="#191970" d="M21.8458,-361.2875C27.3322,-322.8774 49.0519,-182.0257 77,-148 80.6197,-143.5931 85.2378,-139.9449 90.2052,-136.9393"/>
<polygon fill="#191970" stroke="#191970" points="92.1055,-139.8971 99.3838,-132.198 88.8928,-133.6778 92.1055,-139.8971"/>
</g>
<!-- Node32 -->
<g id="node27" class="node">
<title>Node32</title>
<g id="a_node27"><a xlink:href="server_8c.html#ac94aa68fd5fccbf448cfe8788bd46225" target="_top" xlink:title="aggiungiAMatrice">
<polygon fill="none" stroke="#000000" points="77,-76.5 77,-95.5 178,-95.5 178,-76.5 77,-76.5"/>
<text text-anchor="middle" x="127.5" y="-83.5" font-family="Helvetica,sans-Serif" font-size="10.00" fill="#000000">aggiungiAMatrice</text>
</a>
</g>
</g>
<!-- Node6&#45;&gt;Node32 -->
<g id="edge52" class="edge">
<title>Node6&#45;&gt;Node32</title>
<path fill="none" stroke="#191970" d="M21.3119,-361.4498C25.1244,-318.68 42.5288,-145.0951 77,-105 78.1336,-103.6815 79.3683,-102.4543 80.6835,-101.3121"/>
<polygon fill="#191970" stroke="#191970" points="82.6747,-104.1905 88.9526,-95.6559 78.7227,-98.4128 82.6747,-104.1905"/>
</g>
<!-- Node33 -->
<g id="node28" class="node">
<title>Node33</title>
<g id="a_node28"><a xlink:href="server_8c.html#aefaefec035e6211d28b35a6d2ce3b3fa" target="_top" xlink:title="costruisciStringa">
<polygon fill="none" stroke="#000000" points="78.5,-38.5 78.5,-57.5 176.5,-57.5 176.5,-38.5 78.5,-38.5"/>
<text text-anchor="middle" x="127.5" y="-45.5" font-family="Helvetica,sans-Serif" font-size="10.00" fill="#000000">costruisciStringa</text>
</a>
</g>
</g>
<!-- Node6&#45;&gt;Node33 -->
<g id="edge53" class="edge">
<title>Node6&#45;&gt;Node33</title>
<path fill="none" stroke="#191970" d="M21.041,-361.3697C23.8361,-314.823 38.0447,-113.4989 77,-67 78.1166,-65.6671 79.3369,-64.4276 80.6398,-63.275"/>
<polygon fill="#191970" stroke="#191970" points="82.635,-66.1507 88.8606,-57.5779 78.6478,-60.3972 82.635,-66.1507"/>
</g>
<!-- Node8&#45;&gt;Node7 -->
<g id="edge3" class="edge">
<title>Node8&#45;&gt;Node7</title>
<path fill="none" stroke="#191970" d="M335.5311,-702.1358C388.5715,-705.9835 465.3818,-702.48 514,-660 543.5469,-634.1835 564.4412,-514.1034 571.6947,-466.5069"/>
<polygon fill="#191970" stroke="#191970" points="575.1674,-466.9487 573.1736,-456.5432 568.2433,-465.9209 575.1674,-466.9487"/>
</g>
<!-- Node9 -->
<g id="node4" class="node">
<title>Node9</title>
<g id="a_node4"><a xlink:href="shared__memory_8c.html#a6530d61365abd3e580722ed907ea5f5b" target="_top" xlink:title="Scollega la memoria condivisa dallo spazio degli indirizzi. ">
<polygon fill="none" stroke="#000000" points="384,-760.5 384,-779.5 505,-779.5 505,-760.5 384,-760.5"/>
<text text-anchor="middle" x="444.5" y="-767.5" font-family="Helvetica,sans-Serif" font-size="10.00" fill="#000000">free_shared_memory</text>
</a>
</g>
</g>
<!-- Node8&#45;&gt;Node9 -->
<g id="edge4" class="edge">
<title>Node8&#45;&gt;Node9</title>
<path fill="none" stroke="#191970" d="M290.2612,-703.5052C308.7819,-715.9296 343.0964,-737.6717 375,-751 380.7566,-753.4049 386.9081,-755.5939 393.0822,-757.5599"/>
<polygon fill="#191970" stroke="#191970" points="392.1651,-760.9388 402.7493,-760.4646 394.1795,-754.2349 392.1651,-760.9388"/>
</g>
<!-- Node10 -->
<g id="node5" class="node">
<title>Node10</title>
<g id="a_node5"><a xlink:href="shared__memory_8c.html#a8fd9943e1b39a1f286977096e0a50d7b" target="_top" xlink:title="Elimina la memoria condivisa. ">
<polygon fill="none" stroke="#000000" points="375,-722.5 375,-741.5 514,-741.5 514,-722.5 375,-722.5"/>
<text text-anchor="middle" x="444.5" y="-729.5" font-family="Helvetica,sans-Serif" font-size="10.00" fill="#000000">remove_shared_memory</text>
</a>
</g>
</g>
<!-- Node8&#45;&gt;Node10 -->
<g id="edge6" class="edge">
<title>Node8&#45;&gt;Node10</title>
<path fill="none" stroke="#191970" d="M318.8935,-703.589C341.2626,-708.6487 368.8982,-714.8996 392.5472,-720.2488"/>
<polygon fill="#191970" stroke="#191970" points="391.8856,-723.6875 402.4114,-722.4799 393.4299,-716.8599 391.8856,-723.6875"/>
</g>
<!-- Node11 -->
<g id="node6" class="node">
<title>Node11</title>
<g id="a_node6"><a xlink:href="semaphore_8c.html#a530566146b6e3cc8415d8ae4259fd68f" target="_top" xlink:title="Cancella il set di semafori svegliando eventuali processi in attesa. ">
<polygon fill="none" stroke="#000000" points="409.5,-494.5 409.5,-513.5 479.5,-513.5 479.5,-494.5 409.5,-494.5"/>
<text text-anchor="middle" x="444.5" y="-501.5" font-family="Helvetica,sans-Serif" font-size="10.00" fill="#000000">semDelete</text>
</a>
</g>
</g>
<!-- Node8&#45;&gt;Node11 -->
<g id="edge8" class="edge">
<title>Node8&#45;&gt;Node11</title>
<path fill="none" stroke="#191970" d="M325.2584,-684.4878C330.3215,-682.0165 335.0495,-678.9083 339,-675 376.7722,-637.6319 345.2235,-605.0054 375,-561 386.4426,-544.0894 404.344,-529.5749 419.1127,-519.4248"/>
<polygon fill="#191970" stroke="#191970" points="421.3949,-522.1124 427.8178,-513.6864 417.5422,-516.268 421.3949,-522.1124"/>
</g>
<!-- Node9&#45;&gt;Node7 -->
<g id="edge5" class="edge">
<title>Node9&#45;&gt;Node7</title>
<path fill="none" stroke="#191970" d="M501.4929,-760.4236C506.1409,-757.937 510.4182,-754.8434 514,-751 552.9478,-709.2085 568.9063,-527.6342 573.2185,-466.8838"/>
<polygon fill="#191970" stroke="#191970" points="576.7236,-466.9277 573.9102,-456.7132 569.7397,-466.4527 576.7236,-466.9277"/>
</g>
<!-- Node10&#45;&gt;Node7 -->
<g id="edge7" class="edge">
<title>Node10&#45;&gt;Node7</title>
<path fill="none" stroke="#191970" d="M492.8524,-722.4642C500.7894,-719.0288 508.2772,-714.3559 514,-708 546.4712,-671.9369 566.2023,-521.2688 572.3896,-466.7763"/>
<polygon fill="#191970" stroke="#191970" points="575.8852,-467.0076 573.504,-456.6839 568.9275,-466.2393 575.8852,-467.0076"/>
</g>
<!-- Node11&#45;&gt;Node7 -->
<g id="edge9" class="edge">
<title>Node11&#45;&gt;Node7</title>
<path fill="none" stroke="#191970" d="M475.7184,-494.4528C487.8444,-490.426 501.7393,-485.4155 514,-480 526.1046,-474.6535 539.0426,-467.7671 549.8345,-461.6694"/>
<polygon fill="#191970" stroke="#191970" points="551.7697,-464.5939 558.691,-456.5723 548.278,-458.527 551.7697,-464.5939"/>
</g>
<!-- Node13 -->
<g id="node8" class="node">
<title>Node13</title>
<g id="a_node8"><a xlink:href="defines_8c.html#abe68b7232c057100c2e21586906436d7" target="_top" xlink:title="get_project_ipc_key">
<polygon fill="none" stroke="#000000" points="219.5,-646.5 219.5,-665.5 333.5,-665.5 333.5,-646.5 219.5,-646.5"/>
<text text-anchor="middle" x="276.5" y="-653.5" font-family="Helvetica,sans-Serif" font-size="10.00" fill="#000000">get_project_ipc_key</text>
</a>
</g>
</g>
<!-- Node12&#45;&gt;Node13 -->
<g id="edge11" class="edge">
<title>Node12&#45;&gt;Node13</title>
<path fill="none" stroke="#191970" d="M165.099,-656C178.4779,-656 193.9808,-656 209.0912,-656"/>
<polygon fill="#191970" stroke="#191970" points="209.4586,-659.5001 219.4585,-656 209.4585,-652.5001 209.4586,-659.5001"/>
</g>
<!-- Node13&#45;&gt;Node7 -->
<g id="edge12" class="edge">
<title>Node13&#45;&gt;Node7</title>
<path fill="none" stroke="#191970" d="M333.6748,-664.6041C386.3424,-669.2029 463.7213,-667.0974 514,-626 539.2966,-605.3228 561.8567,-508.4446 570.6225,-466.4722"/>
<polygon fill="#191970" stroke="#191970" points="574.0609,-467.1273 572.6341,-456.6289 567.2027,-465.7256 574.0609,-467.1273"/>
</g>
<!-- Node14&#45;&gt;Node7 -->
<g id="edge14" class="edge">
<title>Node14&#45;&gt;Node7</title>
<path fill="none" stroke="#191970" d="M305.4378,-608.5445C353.3955,-622.4377 450.3593,-642.1659 514,-599 558.3483,-568.9196 570.1889,-500.6161 573.3496,-466.769"/>
<polygon fill="#191970" stroke="#191970" points="576.8455,-466.9555 574.1231,-456.7164 569.8661,-466.4184 576.8455,-466.9555"/>
</g>
<!-- Node15&#45;&gt;Node7 -->
<g id="edge16" class="edge">
<title>Node15&#45;&gt;Node7</title>
<path fill="none" stroke="#191970" d="M487.8773,-570.4763C497.1842,-567.0084 506.4715,-562.3193 514,-556 542.7364,-531.8793 560.296,-490.4463 568.6392,-466.2065"/>
<polygon fill="#191970" stroke="#191970" points="571.9708,-467.279 571.744,-456.6866 565.3158,-465.1085 571.9708,-467.279"/>
</g>
<!-- Node16&#45;&gt;Node13 -->
<g id="edge18" class="edge">
<title>Node16&#45;&gt;Node13</title>
<path fill="none" stroke="#191970" d="M165.099,-627.589C184.584,-632.5583 208.5745,-638.6767 229.2958,-643.9613"/>
<polygon fill="#191970" stroke="#191970" points="228.6166,-647.4001 239.1714,-646.4799 230.3465,-640.6172 228.6166,-647.4001"/>
</g>
<!-- Node17&#45;&gt;Node7 -->
<g id="edge20" class="edge">
<title>Node17&#45;&gt;Node7</title>
<path fill="none" stroke="#191970" d="M300.544,-513.5618C345.1458,-529.7025 442.6467,-557.4001 514,-523 538.4818,-511.1971 556.1158,-484.1363 565.8217,-465.7052"/>
<polygon fill="#191970" stroke="#191970" points="569.0774,-467.0183 570.3914,-456.5052 562.8082,-463.9043 569.0774,-467.0183"/>
</g>
<!-- Node18&#45;&gt;Node7 -->
<g id="edge22" class="edge">
<title>Node18&#45;&gt;Node7</title>
<path fill="none" stroke="#191970" d="M309.8122,-269.4936C359.5172,-261.7725 453.6917,-255.0476 514,-300 555.3684,-330.835 568.5811,-395.0332 572.6989,-427.4188"/>
<polygon fill="#191970" stroke="#191970" points="569.2291,-427.8858 573.8074,-437.4404 576.1867,-427.1162 569.2291,-427.8858"/>
</g>
<!-- Node19&#45;&gt;Node7 -->
<g id="edge26" class="edge">
<title>Node19&#45;&gt;Node7</title>
<path fill="none" stroke="#191970" d="M310.911,-436.3065C329.7204,-440.4236 353.5022,-444.9455 375,-447 432.6031,-452.5049 499.9897,-450.8246 539.8562,-448.9929"/>
<polygon fill="#191970" stroke="#191970" points="540.0411,-452.4881 549.858,-448.5032 539.6988,-445.4965 540.0411,-452.4881"/>
</g>
<!-- Node20 -->
<g id="node15" class="node">
<title>Node20</title>
<g id="a_node15"><a xlink:href="fifo_8c.html#ab83de0eb3bc3947e3c031685d5c2474b" target="_top" xlink:title="Crea o ottiene una IPC FIFO usando mkfifo. ">
<polygon fill="none" stroke="#000000" points="412,-418.5 412,-437.5 477,-437.5 477,-418.5 412,-418.5"/>
<text text-anchor="middle" x="444.5" y="-425.5" font-family="Helvetica,sans-Serif" font-size="10.00" fill="#000000">make_fifo</text>
</a>
</g>
</g>
<!-- Node19&#45;&gt;Node20 -->
<g id="edge24" class="edge">
<title>Node19&#45;&gt;Node20</title>
<path fill="none" stroke="#191970" d="M310.9027,-428C337.1205,-428 373.3811,-428 401.5108,-428"/>
<polygon fill="#191970" stroke="#191970" points="401.8558,-431.5001 411.8557,-428 401.8557,-424.5001 401.8558,-431.5001"/>
</g>
<!-- Node20&#45;&gt;Node7 -->
<g id="edge25" class="edge">
<title>Node20&#45;&gt;Node7</title>
<path fill="none" stroke="#191970" d="M477.3045,-432.7945C496.4321,-435.5901 520.536,-439.113 539.9545,-441.951"/>
<polygon fill="#191970" stroke="#191970" points="539.5132,-445.4237 549.9143,-443.4067 540.5256,-438.4972 539.5132,-445.4237"/>
</g>
<!-- Node21&#45;&gt;Node7 -->
<g id="edge28" class="edge">
<title>Node21&#45;&gt;Node7</title>
<path fill="none" stroke="#191970" d="M484.5244,-398.7853C494.3591,-401.5274 504.7232,-404.9256 514,-409 527.7998,-415.061 542.1303,-423.9299 553.3784,-431.5754"/>
<polygon fill="#191970" stroke="#191970" points="551.4671,-434.5097 561.6692,-437.3677 555.4761,-428.7714 551.4671,-434.5097"/>
</g>
<!-- Node22&#45;&gt;Node7 -->
<g id="edge30" class="edge">
<title>Node22&#45;&gt;Node7</title>
<path fill="none" stroke="#191970" d="M166.6543,-343.8828C239.6204,-330.8373 399.3695,-312.2235 514,-371 538.0579,-383.3356 555.7099,-410.0252 565.5447,-428.2538"/>
<polygon fill="#191970" stroke="#191970" points="562.5317,-430.0496 570.1952,-437.3654 568.7665,-426.8673 562.5317,-430.0496"/>
</g>
<!-- Node23&#45;&gt;Node7 -->
<g id="edge32" class="edge">
<title>Node23&#45;&gt;Node7</title>
<path fill="none" stroke="#191970" d="M166.1188,-310.7038C252.3109,-304.0989 457.2482,-292.791 514,-329 548.7979,-351.2019 564.5295,-400.1869 570.8326,-427.5477"/>
<polygon fill="#191970" stroke="#191970" points="567.4423,-428.4335 572.9261,-437.4987 574.2923,-426.9923 567.4423,-428.4335"/>
</g>
<!-- Node25 -->
<g id="node20" class="node">
<title>Node25</title>
<g id="a_node20"><a xlink:href="semaphore_8c.html#a77c6570406059144bb6a8ecf04f481da" target="_top" xlink:title="Funzione di supporto per manipolare i valori di un set di semafori. ">
<polygon fill="none" stroke="#000000" points="419,-57.5 419,-76.5 470,-76.5 470,-57.5 419,-57.5"/>
<text text-anchor="middle" x="444.5" y="-64.5" font-family="Helvetica,sans-Serif" font-size="10.00" fill="#000000">semOp</text>
</a>
</g>
</g>
<!-- Node24&#45;&gt;Node25 -->
<g id="edge34" class="edge">
<title>Node24&#45;&gt;Node25</title>
<path fill="none" stroke="#191970" d="M309.0374,-19.5509C318.7119,-22.4824 329.3126,-25.7852 339,-29 362.6592,-36.8515 389.0449,-46.3556 409.5104,-53.8948"/>
<polygon fill="#191970" stroke="#191970" points="408.4505,-57.2344 419.0437,-57.4221 410.8796,-50.6694 408.4505,-57.2344"/>
</g>
<!-- Node25&#45;&gt;Node7 -->
<g id="edge35" class="edge">
<title>Node25&#45;&gt;Node7</title>
<path fill="none" stroke="#191970" d="M470.1692,-74.7316C485.265,-80.6132 503.412,-90.2554 514,-105 551.7401,-157.5561 568.7223,-362.3534 573.2267,-427.1961"/>
<polygon fill="#191970" stroke="#191970" points="569.7429,-427.556 573.905,-437.299 576.7272,-427.087 569.7429,-427.556"/>
</g>
<!-- Node26&#45;&gt;Node25 -->
<g id="edge37" class="edge">
<title>Node26&#45;&gt;Node25</title>
<path fill="none" stroke="#191970" d="M306.1483,-51.3531C334.7978,-54.5932 378.2298,-59.5052 408.7725,-62.9594"/>
<polygon fill="#191970" stroke="#191970" points="408.663,-66.4692 418.993,-64.1153 409.4497,-59.5136 408.663,-66.4692"/>
</g>
<!-- Node27&#45;&gt;Node7 -->
<g id="edge44" class="edge">
<title>Node27&#45;&gt;Node7</title>
<path fill="none" stroke="#191970" d="M147.709,-228.3884C157.1702,-223.5914 168.4356,-217.4436 178,-211 195.2731,-199.363 194.4835,-188.2723 214,-181 276.4738,-157.7209 461.9413,-136.3493 514,-178 553.2518,-209.4043 568.8198,-370.3442 573.1452,-427.1312"/>
<polygon fill="#191970" stroke="#191970" points="569.669,-427.5879 573.8831,-437.3086 576.6507,-427.0816 569.669,-427.5879"/>
</g>
<!-- Node27&#45;&gt;Node11 -->
<g id="edge46" class="edge">
<title>Node27&#45;&gt;Node11</title>
<path fill="none" stroke="#191970" d="M138.935,-247.7226C150.5309,-258.214 168.1328,-275.9903 178,-295 209.9837,-356.6181 165.1523,-397.6679 214,-447 227.0507,-460.1801 335.6818,-483.0015 399.0473,-495.393"/>
<polygon fill="#191970" stroke="#191970" points="398.7009,-498.8911 409.1848,-497.3621 400.0357,-492.0195 398.7009,-498.8911"/>
</g>
<!-- Node27&#45;&gt;Node18 -->
<g id="edge45" class="edge">
<title>Node27&#45;&gt;Node18</title>
<path fill="none" stroke="#191970" d="M165.099,-247.589C185.9378,-252.9036 211.9299,-259.5325 233.5649,-265.0501"/>
<polygon fill="#191970" stroke="#191970" points="232.9235,-268.4985 243.4783,-267.5784 234.6534,-261.7156 232.9235,-268.4985"/>
</g>
<!-- Node27&#45;&gt;Node24 -->
<g id="edge41" class="edge">
<title>Node27&#45;&gt;Node24</title>
<path fill="none" stroke="#191970" d="M137.6152,-228.4598C149.1064,-217.0557 167.6072,-196.8793 178,-176 207.9732,-115.7833 167.7618,-77.8515 214,-29 219.0917,-23.6205 225.6535,-19.7492 232.6038,-16.9667"/>
<polygon fill="#191970" stroke="#191970" points="233.8124,-20.2537 242.2207,-13.8078 231.6279,-13.6033 233.8124,-20.2537"/>
</g>
<!-- Node27&#45;&gt;Node25 -->
<g id="edge39" class="edge">
<title>Node27&#45;&gt;Node25</title>
<path fill="none" stroke="#191970" d="M157.6282,-228.4092C165.0802,-224.8584 172.4964,-220.1474 178,-214 210.6258,-177.5576 176.9378,-141.92 214,-110 242.6746,-85.3039 351.2824,-73.7986 408.5903,-69.3505"/>
<polygon fill="#191970" stroke="#191970" points="408.9506,-72.8334 418.6631,-68.6004 408.4308,-65.8527 408.9506,-72.8334"/>
</g>
<!-- Node27&#45;&gt;Node26 -->
<g id="edge40" class="edge">
<title>Node27&#45;&gt;Node26</title>
<path fill="none" stroke="#191970" d="M158.51,-228.4618C165.7792,-224.937 172.8857,-220.2255 178,-214 219.3288,-163.6915 170.7651,-120.6802 214,-72 220.235,-64.9797 228.7584,-60.0002 237.5051,-56.4725"/>
<polygon fill="#191970" stroke="#191970" points="238.6837,-59.7684 246.9862,-53.1866 236.3914,-53.1543 238.6837,-59.7684"/>
</g>
<!-- Node28 -->
<g id="node23" class="node">
<title>Node28</title>
<g id="a_node23"><a xlink:href="semaphore_8c.html#aad78dc4ccefb184a74dd9ef808df8db6" target="_top" xlink:title="Inizializza il valore del semaforo sem_num al valore val. ">
<polygon fill="none" stroke="#000000" points="410.5,-114.5 410.5,-133.5 478.5,-133.5 478.5,-114.5 410.5,-114.5"/>
<text text-anchor="middle" x="444.5" y="-121.5" font-family="Helvetica,sans-Serif" font-size="10.00" fill="#000000">semSetVal</text>
</a>
</g>
</g>
<!-- Node27&#45;&gt;Node28 -->
<g id="edge42" class="edge">
<title>Node27&#45;&gt;Node28</title>
<path fill="none" stroke="#191970" d="M155.6574,-228.3857C163.5269,-224.7516 171.6528,-220.0032 178,-214 202.2754,-191.0403 186.191,-166.5231 214,-148 269.8024,-110.831 350.6292,-111.8832 400.2541,-117.1459"/>
<polygon fill="#191970" stroke="#191970" points="400.0121,-120.6413 410.3496,-118.3206 400.8212,-113.6882 400.0121,-120.6413"/>
</g>
<!-- Node29 -->
<g id="node24" class="node">
<title>Node29</title>
<g id="a_node24"><a xlink:href="semaphore_8c.html#a7d80413e893e7d9ae3d153e23c2df2e4" target="_top" xlink:title="Recupera statistiche di un set di semafori. ">
<polygon fill="none" stroke="#000000" points="404.5,-228.5 404.5,-247.5 484.5,-247.5 484.5,-228.5 404.5,-228.5"/>
<text text-anchor="middle" x="444.5" y="-235.5" font-family="Helvetica,sans-Serif" font-size="10.00" fill="#000000">semGetStats</text>
</a>
</g>
</g>
<!-- Node27&#45;&gt;Node29 -->
<g id="edge47" class="edge">
<title>Node27&#45;&gt;Node29</title>
<path fill="none" stroke="#191970" d="M168.6172,-238C226.5391,-238 332.0417,-238 394.449,-238"/>
<polygon fill="#191970" stroke="#191970" points="394.4553,-241.5001 404.4553,-238 394.4552,-234.5001 394.4553,-241.5001"/>
</g>
<!-- Node30 -->
<g id="node25" class="node">
<title>Node30</title>
<g id="a_node25"><a xlink:href="semaphore_8c.html#a34a010b0a39236a7261d7d5103426491" target="_top" xlink:title="Imposta i permessi su un set di semafori. ">
<polygon fill="none" stroke="#000000" points="237,-190.5 237,-209.5 316,-209.5 316,-190.5 237,-190.5"/>
<text text-anchor="middle" x="276.5" y="-197.5" font-family="Helvetica,sans-Serif" font-size="10.00" fill="#000000">semSetPerm</text>
</a>
</g>
</g>
<!-- Node27&#45;&gt;Node30 -->
<g id="edge49" class="edge">
<title>Node27&#45;&gt;Node30</title>
<path fill="none" stroke="#191970" d="M165.099,-228.411C184.584,-223.4417 208.5745,-217.3233 229.2958,-212.0387"/>
<polygon fill="#191970" stroke="#191970" points="230.3465,-215.3828 239.1714,-209.5201 228.6166,-208.5999 230.3465,-215.3828"/>
</g>
<!-- Node28&#45;&gt;Node7 -->
<g id="edge43" class="edge">
<title>Node28&#45;&gt;Node7</title>
<path fill="none" stroke="#191970" d="M478.5828,-128.4813C491.3869,-131.8431 505.0042,-137.722 514,-148 550.9522,-190.2191 568.1798,-367.3638 573.0209,-427.176"/>
<polygon fill="#191970" stroke="#191970" points="569.5589,-427.8018 573.8261,-437.4993 576.5377,-427.2574 569.5589,-427.8018"/>
</g>
<!-- Node29&#45;&gt;Node7 -->
<g id="edge48" class="edge">
<title>Node29&#45;&gt;Node7</title>
<path fill="none" stroke="#191970" d="M484.831,-245.0954C495.4482,-248.6533 506.1224,-253.9918 514,-262 537.6024,-285.9936 561.1049,-384.66 570.3723,-427.2625"/>
<polygon fill="#191970" stroke="#191970" points="566.9934,-428.1993 572.5056,-437.2473 573.8389,-426.7367 566.9934,-428.1993"/>
</g>
<!-- Node30&#45;&gt;Node7 -->
<g id="edge50" class="edge">
<title>Node30&#45;&gt;Node7</title>
<path fill="none" stroke="#191970" d="M316.0948,-190.5698C367.8517,-180.7646 458.4314,-172.6092 514,-219 546.3693,-246.0231 565.8099,-377.1002 572.1767,-427.3443"/>
<polygon fill="#191970" stroke="#191970" points="568.7036,-427.7785 573.3968,-437.2772 575.6514,-426.925 568.7036,-427.7785"/>
</g>
</g>
</svg>
        <g id="navigator" transform="translate(0 0)" fill="#404254">
                <rect fill="#f2f5e9" fill-opacity="0.5" stroke="#606060" stroke-width=".5" x="0" y="0" width="60" height="60"/>
                <use id="zoomplus" xlink:href="#zoomPlus" x="17" y="9" onmousedown="handleZoom(evt,'in')"/>
                <use id="zoomminus" xlink:href="#zoomMin" x="42" y="9" onmousedown="handleZoom(evt,'out')"/>
                <use id="reset" xlink:href="#resetDef" x="30" y="36" onmousedown="handleReset()"/>
                <g id="arrowUp" xlink:href="#dirArrow" transform="translate(30 24)" onmousedown="handlePan(0,-1)">
                  <use xlink:href="#rim" fill="#404040">
                        <set attributeName="fill" to="#808080" begin="arrowUp.mouseover" end="arrowUp.mouseout"/>
                  </use>
                  <path fill="none" stroke="white" stroke-width="1.5" d="M0,-3.0v7 M-2.5,-0.5L0,-3.0L2.5,-0.5"/>
                </g>
                <g id="arrowRight" xlink:href="#dirArrow" transform="rotate(90) translate(36 -43)" onmousedown="handlePan(1,0)">
                  <use xlink:href="#rim" fill="#404040">
                        <set attributeName="fill" to="#808080" begin="arrowRight.mouseover" end="arrowRight.mouseout"/>
                  </use>
                  <path fill="none" stroke="white" stroke-width="1.5" d="M0,-3.0v7 M-2.5,-0.5L0,-3.0L2.5,-0.5"/>
                </g>
                <g id="arrowDown" xlink:href="#dirArrow" transform="rotate(180) translate(-30 -48)" onmousedown="handlePan(0,1)">
                  <use xlink:href="#rim" fill="#404040">
                        <set attributeName="fill" to="#808080" begin="arrowDown.mouseover" end="arrowDown.mouseout"/>
                  </use>
                  <path fill="none" stroke="white" stroke-width="1.5" d="M0,-3.0v7 M-2.5,-0.5L0,-3.0L2.5,-0.5"/>
                </g>
                <g id="arrowLeft" xlink:href="#dirArrow" transform="rotate(270) translate(-36 17)" onmousedown="handlePan(-1,0)">
                  <use xlink:href="#rim" fill="#404040">
                        <set attributeName="fill" to="#808080" begin="arrowLeft.mouseover" end="arrowLeft.mouseout"/>
                  </use>
                  <path fill="none" stroke="white" stroke-width="1.5" d="M0,-3.0v7 M-2.5,-0.5L0,-3.0L2.5,-0.5"/>
                </g>
        </g>
        <svg viewBox="0 0 15 15" width="100%" height="30px" preserveAspectRatio="xMaxYMin meet">
         <g id="arrow_out" transform="scale(0.3 0.3)">
          <a xlink:href="server_8c_a0ddf1224851353fc92bfbff6f499fa97_cgraph_org.svg" target="_base">
           <rect id="button" ry="5" rx="5" y="6" x="6" height="38" width="38"
                fill="#f2f5e9" fill-opacity="0.5" stroke="#606060" stroke-width="1.0"/>
           <path id="arrow"
             d="M 11.500037,31.436501 C 11.940474,20.09759 22.043105,11.32322 32.158766,21.979434 L 37.068811,17.246167 C 37.068811,17.246167 37.088388,32 37.088388,32 L 22.160133,31.978069 C 22.160133,31.978069 26.997745,27.140456 26.997745,27.140456 C 18.528582,18.264221 13.291696,25.230495 11.500037,31.436501 z"
             style="fill:#404040;"/>
          </a>
         </g>
        </svg>
</svg>
