<?xml version="1.0" encoding="UTF-8" standalone="no"?>
<!DOCTYPE svg PUBLIC "-//W3C//DTD SVG 1.1//EN"
 "http://www.w3.org/Graphics/SVG/1.1/DTD/svg11.dtd">
<!-- Generated by graphviz version 2.40.1 (20161225.0304)
 -->
<!-- Title: main Pages: 1 -->
<svg width="607pt" height="726pt"
 viewBox="0.00 0.00 607.00 726.22" xmlns="http://www.w3.org/2000/svg" xmlns:xlink="http://www.w3.org/1999/xlink">
<g id="graph0" class="graph" transform="scale(1 1) rotate(0) translate(4 722.221)">
<title>main</title>
<!-- Node6 -->
<g id="node1" class="node">
<title>Node6</title>
<polygon fill="#bfbfbf" stroke="#000000" points="0,-323.5 0,-342.5 41,-342.5 41,-323.5 0,-323.5"/>
<text text-anchor="middle" x="20.5" y="-330.5" font-family="Helvetica,sans-Serif" font-size="10.00" fill="#000000">main</text>
</g>
<!-- Node7 -->
<g id="node2" class="node">
<title>Node7</title>
<g id="a_node2"><a xlink:href="err__exit_8c.html#aa223b0ecfe538d130ece562646a37d27" target="_top" xlink:title="Prints the error message of the last failed system call and terminates the calling process...">
<polygon fill="none" stroke="#000000" points="550,-380.5 550,-399.5 599,-399.5 599,-380.5 550,-380.5"/>
<text text-anchor="middle" x="574.5" y="-387.5" font-family="Helvetica,sans-Serif" font-size="10.00" fill="#000000">ErrExit</text>
</a>
</g>
</g>
<!-- Node6&#45;&gt;Node7 -->
<g id="edge1" class="edge">
<title>Node6&#45;&gt;Node7</title>
<path fill="none" stroke="#191970" d="M20.9765,-342.7904C23.4336,-389.1839 36.1772,-586.421 77,-629 171.1549,-727.2053 239.8549,-683.3404 375,-699 436.3672,-706.1108 466.304,-738.2631 514,-699 558.9955,-661.9599 571.008,-472.2505 573.7659,-409.8926"/>
<polygon fill="#191970" stroke="#191970" points="577.2672,-409.9313 574.1791,-399.7965 570.273,-409.645 577.2672,-409.9313"/>
</g>
<!-- Node8 -->
<g id="node3" class="node">
<title>Node8</title>
<g id="a_node3"><a xlink:href="server_8c.html#a48d605ff689f470746c858648f0a98c2" target="_top" xlink:title="Chiude tutte le IPC e termina. ">
<polygon fill="none" stroke="#000000" points="217.5,-608.5 217.5,-627.5 335.5,-627.5 335.5,-608.5 217.5,-608.5"/>
<text text-anchor="middle" x="276.5" y="-615.5" font-family="Helvetica,sans-Serif" font-size="10.00" fill="#000000">SIGINTSignalHandler</text>
</a>
</g>
</g>
<!-- Node6&#45;&gt;Node8 -->
<g id="edge2" class="edge">
<title>Node6&#45;&gt;Node8</title>
<path fill="none" stroke="#191970" d="M21.0778,-342.7801C23.8761,-386.5459 37.5356,-563.8085 77,-599 115.6657,-633.4793 176.8452,-634.277 221.2672,-628.9099"/>
<polygon fill="#191970" stroke="#191970" points="221.8805,-632.359 231.3244,-627.5565 220.9469,-625.4216 221.8805,-632.359"/>
</g>
<!-- Node12 -->
<g id="node7" class="node">
<title>Node12</title>
<g id="a_node7"><a xlink:href="defines_8c.html#a2d341373a96ffea0944553e5452cdbca" target="_top" xlink:title="get_ipc_key">
<polygon fill="none" stroke="#000000" points="90,-570.5 90,-589.5 165,-589.5 165,-570.5 90,-570.5"/>
<text text-anchor="middle" x="127.5" y="-577.5" font-family="Helvetica,sans-Serif" font-size="10.00" fill="#000000">get_ipc_key</text>
</a>
</g>
</g>
<!-- Node6&#45;&gt;Node12 -->
<g id="edge10" class="edge">
<title>Node6&#45;&gt;Node12</title>
<path fill="none" stroke="#191970" d="M21.7002,-342.7318C26.7043,-381.8749 47.0525,-527.3284 77,-561 78.3307,-562.4961 79.7912,-563.8749 81.3506,-565.1454"/>
<polygon fill="#191970" stroke="#191970" points="79.5329,-568.1382 89.8284,-570.6389 83.3395,-562.2636 79.5329,-568.1382"/>
</g>
<!-- Node14 -->
<g id="node9" class="node">
<title>Node14</title>
<g id="a_node9"><a xlink:href="shared__memory_8c.html#a660a60242a5174977ab2debcdbd0e587" target="_top" xlink:title="Ottiene l&#39;id o crea una memoria condivisa. ">
<polygon fill="none" stroke="#000000" points="214,-532.5 214,-551.5 339,-551.5 339,-532.5 214,-532.5"/>
<text text-anchor="middle" x="276.5" y="-539.5" font-family="Helvetica,sans-Serif" font-size="10.00" fill="#000000">alloc_shared_memory</text>
</a>
</g>
</g>
<!-- Node6&#45;&gt;Node14 -->
<g id="edge13" class="edge">
<title>Node6&#45;&gt;Node14</title>
<path fill="none" stroke="#191970" d="M21.7088,-342.5228C25.3446,-367.2592 38.4197,-434.1802 77,-471 99.1282,-492.1185 176.7837,-515.7816 228.4285,-529.7581"/>
<polygon fill="#191970" stroke="#191970" points="227.8218,-533.2187 238.3865,-532.4206 229.6299,-526.4563 227.8218,-533.2187"/>
</g>
<!-- Node15 -->
<g id="node10" class="node">
<title>Node15</title>
<g id="a_node10"><a xlink:href="shared__memory_8c.html#ab2ffe00ec7425a3a4229cd0d53ed901c" target="_top" xlink:title="Recupera il puntatore alla memoria condivisa aggiungendola allo spazio degli indirizzi. ">
<polygon fill="none" stroke="#000000" points="218,-456.5 218,-475.5 335,-475.5 335,-456.5 218,-456.5"/>
<text text-anchor="middle" x="276.5" y="-463.5" font-family="Helvetica,sans-Serif" font-size="10.00" fill="#000000">get_shared_memory</text>
</a>
</g>
</g>
<!-- Node6&#45;&gt;Node15 -->
<g id="edge15" class="edge">
<title>Node6&#45;&gt;Node15</title>
<path fill="none" stroke="#191970" d="M22.3275,-342.5519C27.0401,-364.317 41.7899,-417.5921 77,-442 114.6633,-468.1084 166.2061,-473.7414 207.466,-473.038"/>
<polygon fill="#191970" stroke="#191970" points="207.8287,-476.5289 217.7196,-472.7313 207.6193,-469.532 207.8287,-476.5289"/>
</g>
<!-- Node16 -->
<g id="node11" class="node">
<title>Node16</title>
<g id="a_node11"><a xlink:href="defines_8c.html#afd25e0dffe44c8dd59ae86caabb94287" target="_top" xlink:title="get_ipc_key2">
<polygon fill="none" stroke="#000000" points="87,-532.5 87,-551.5 168,-551.5 168,-532.5 87,-532.5"/>
<text text-anchor="middle" x="127.5" y="-539.5" font-family="Helvetica,sans-Serif" font-size="10.00" fill="#000000">get_ipc_key2</text>
</a>
</g>
</g>
<!-- Node6&#45;&gt;Node16 -->
<g id="edge17" class="edge">
<title>Node6&#45;&gt;Node16</title>
<path fill="none" stroke="#191970" d="M20.8122,-342.7391C22.2673,-372.5974 30.4968,-464.091 77,-518 80.1623,-521.6659 84.0092,-524.8144 88.154,-527.5079"/>
<polygon fill="#191970" stroke="#191970" points="86.5178,-530.6028 96.956,-532.4176 89.9278,-524.4895 86.5178,-530.6028"/>
</g>
<!-- Node17 -->
<g id="node12" class="node">
<title>Node17</title>
<g id="a_node12"><a xlink:href="semaphore_8c.html#a2081de3d1c08dbacaf10ca46a717fabb" target="_top" xlink:title="Crea un insieme di semafori. ">
<polygon fill="none" stroke="#000000" points="390.5,-418.5 390.5,-437.5 498.5,-437.5 498.5,-418.5 390.5,-418.5"/>
<text text-anchor="middle" x="444.5" y="-425.5" font-family="Helvetica,sans-Serif" font-size="10.00" fill="#000000">createSemaphores</text>
</a>
</g>
</g>
<!-- Node6&#45;&gt;Node17 -->
<g id="edge19" class="edge">
<title>Node6&#45;&gt;Node17</title>
<path fill="none" stroke="#191970" d="M29.9629,-342.8098C40.4867,-353.1351 58.4599,-369.1 77,-378 175.1295,-425.1063 303.9113,-431.8025 380.073,-430.9169"/>
<polygon fill="#191970" stroke="#191970" points="380.5211,-434.4101 390.4618,-430.745 380.4052,-427.411 380.5211,-434.4101"/>
</g>
<!-- Node18 -->
<g id="node13" class="node">
<title>Node18</title>
<g id="a_node13"><a xlink:href="semaphore_8c.html#a8df9b8ea63eaf93d09f437b356a4a1eb" target="_top" xlink:title="Inizializza i valori del set di semafori semid ai valori in values. ">
<polygon fill="none" stroke="#000000" points="243.5,-228.5 243.5,-247.5 309.5,-247.5 309.5,-228.5 243.5,-228.5"/>
<text text-anchor="middle" x="276.5" y="-235.5" font-family="Helvetica,sans-Serif" font-size="10.00" fill="#000000">semSetAll</text>
</a>
</g>
</g>
<!-- Node6&#45;&gt;Node18 -->
<g id="edge21" class="edge">
<title>Node6&#45;&gt;Node18</title>
<path fill="none" stroke="#191970" d="M24.5218,-323.2428C32.0346,-306.4107 49.9298,-272.2571 77,-257 125.3014,-229.7767 190.7753,-229.0838 233.3246,-232.4402"/>
<polygon fill="#191970" stroke="#191970" points="233.0868,-235.9328 243.3595,-233.3404 233.7123,-228.9608 233.0868,-235.9328"/>
</g>
<!-- Node19 -->
<g id="node14" class="node">
<title>Node19</title>
<g id="a_node14"><a xlink:href="fifo_8c.html#a54a1ae8162825128cf02f95692402c18" target="_top" xlink:title="Facilita la creazione di una FIFO (o ne ottiene una esistente) in modalita&#39; lettura o scrittura...">
<polygon fill="none" stroke="#000000" points="242.5,-380.5 242.5,-399.5 310.5,-399.5 310.5,-380.5 242.5,-380.5"/>
<text text-anchor="middle" x="276.5" y="-387.5" font-family="Helvetica,sans-Serif" font-size="10.00" fill="#000000">create_fifo</text>
</a>
</g>
</g>
<!-- Node6&#45;&gt;Node19 -->
<g id="edge23" class="edge">
<title>Node6&#45;&gt;Node19</title>
<path fill="none" stroke="#191970" d="M41.14,-341.6759C51.7165,-345.863 64.888,-350.6845 77,-354 129.4624,-368.361 191.29,-378.5029 232.0553,-384.2858"/>
<polygon fill="#191970" stroke="#191970" points="231.8154,-387.7861 242.2021,-385.6969 232.7796,-380.8528 231.8154,-387.7861"/>
</g>
<!-- Node21 -->
<g id="node16" class="node">
<title>Node21</title>
<g id="a_node16"><a xlink:href="message__queue_8c.html#afebbb2a5c42d6a8bd4c95ab012c1dc8a" target="_top" xlink:title="Restituisce statistiche della coda dei messaggi. ">
<polygon fill="none" stroke="#000000" points="236.5,-342.5 236.5,-361.5 316.5,-361.5 316.5,-342.5 236.5,-342.5"/>
<text text-anchor="middle" x="276.5" y="-349.5" font-family="Helvetica,sans-Serif" font-size="10.00" fill="#000000">msqGetStats</text>
</a>
</g>
</g>
<!-- Node6&#45;&gt;Node21 -->
<g id="edge27" class="edge">
<title>Node6&#45;&gt;Node21</title>
<path fill="none" stroke="#191970" d="M41.0168,-334.5227C80.8923,-337.4822 169.8821,-344.087 226.3266,-348.2762"/>
<polygon fill="#191970" stroke="#191970" points="226.2365,-351.779 236.4681,-349.0289 226.7546,-344.7982 226.2365,-351.779"/>
</g>
<!-- Node22 -->
<g id="node17" class="node">
<title>Node22</title>
<g id="a_node17"><a xlink:href="message__queue_8c.html#aded429c9008be24df92b60660cc0acfe" target="_top" xlink:title="Imposta nuove configurazioni sulla coda dei messaggi. ">
<polygon fill="none" stroke="#000000" points="88.5,-304.5 88.5,-323.5 166.5,-323.5 166.5,-304.5 88.5,-304.5"/>
<text text-anchor="middle" x="127.5" y="-311.5" font-family="Helvetica,sans-Serif" font-size="10.00" fill="#000000">msqSetStats</text>
</a>
</g>
</g>
<!-- Node6&#45;&gt;Node22 -->
<g id="edge29" class="edge">
<title>Node6&#45;&gt;Node22</title>
<path fill="none" stroke="#191970" d="M41.1307,-329.3366C51.7771,-327.4461 65.2589,-325.0522 78.3861,-322.7212"/>
<polygon fill="#191970" stroke="#191970" points="79.0686,-326.1548 88.3026,-320.9603 77.8447,-319.2626 79.0686,-326.1548"/>
</g>
<!-- Node23 -->
<g id="node18" class="node">
<title>Node23</title>
<g id="a_node18"><a xlink:href="server_8c.html#ab53aa0eb44ad55d2e189f18d3bd6017b" target="_top" xlink:title="string_to_int">
<polygon fill="none" stroke="#000000" points="89,-266.5 89,-285.5 166,-285.5 166,-266.5 89,-266.5"/>
<text text-anchor="middle" x="127.5" y="-273.5" font-family="Helvetica,sans-Serif" font-size="10.00" fill="#000000">string_to_int</text>
</a>
</g>
</g>
<!-- Node6&#45;&gt;Node23 -->
<g id="edge31" class="edge">
<title>Node6&#45;&gt;Node23</title>
<path fill="none" stroke="#191970" d="M32.9903,-323.3574C44.1051,-315.0858 61.029,-303.233 77,-295 80.8405,-293.0203 84.9364,-291.1371 89.0711,-289.3801"/>
<polygon fill="#191970" stroke="#191970" points="90.7089,-292.4942 98.687,-285.5228 88.1028,-285.9974 90.7089,-292.4942"/>
</g>
<!-- Node24 -->
<g id="node19" class="node">
<title>Node24</title>
<g id="a_node19"><a xlink:href="semaphore_8c.html#a7bad0eb0b0c6ac701b59c36b8b7837bf" target="_top" xlink:title="Esegue la signal sul semaforo sem_num: incrementa il valore di 1. ">
<polygon fill="none" stroke="#000000" points="242.5,-38.5 242.5,-57.5 310.5,-57.5 310.5,-38.5 242.5,-38.5"/>
<text text-anchor="middle" x="276.5" y="-45.5" font-family="Helvetica,sans-Serif" font-size="10.00" fill="#000000">semSignal</text>
</a>
</g>
</g>
<!-- Node6&#45;&gt;Node24 -->
<g id="edge33" class="edge">
<title>Node6&#45;&gt;Node24</title>
<path fill="none" stroke="#191970" d="M22.175,-323.4979C28.4378,-288.9283 51.4314,-170.4465 77,-143 109.6917,-107.9073 135.535,-127.2928 178,-105 195.2475,-95.9456 197.2931,-90.0168 214,-80 224.4861,-73.713 236.3491,-67.4404 246.9005,-62.136"/>
<polygon fill="#191970" stroke="#191970" points="248.7326,-65.1346 256.1447,-57.5642 245.6294,-58.86 248.7326,-65.1346"/>
</g>
<!-- Node26 -->
<g id="node21" class="node">
<title>Node26</title>
<g id="a_node21"><a xlink:href="semaphore_8c.html#a2581efba6a0833e3f289de94c779cc21" target="_top" xlink:title="Esegue la wait sul semaforo sem_num: decrementa il valore di 1 ed eventualmente mette in attesa il pr...">
<polygon fill="none" stroke="#000000" points="247,-190.5 247,-209.5 306,-209.5 306,-190.5 247,-190.5"/>
<text text-anchor="middle" x="276.5" y="-197.5" font-family="Helvetica,sans-Serif" font-size="10.00" fill="#000000">semWait</text>
</a>
</g>
</g>
<!-- Node6&#45;&gt;Node26 -->
<g id="edge36" class="edge">
<title>Node6&#45;&gt;Node26</title>
<path fill="none" stroke="#191970" d="M22.513,-323.4215C27.5361,-302.1175 42.7621,-250.8177 77,-227 124.3134,-194.0863 193.4519,-192.3723 236.6661,-195.3203"/>
<polygon fill="#191970" stroke="#191970" points="236.5531,-198.8223 246.8,-196.1297 237.1104,-191.8445 236.5531,-198.8223"/>
</g>
<!-- Node27 -->
<g id="node22" class="node">
<title>Node27</title>
<g id="a_node22"><a xlink:href="semaphore_8c.html#a40485eedbf6d56f7fd27bce5a537efbe" target="_top" xlink:title="Attende che il semaforo sem_num raggiunga il valore zero. ">
<polygon fill="none" stroke="#000000" points="86.5,-152.5 86.5,-171.5 168.5,-171.5 168.5,-152.5 86.5,-152.5"/>
<text text-anchor="middle" x="127.5" y="-159.5" font-family="Helvetica,sans-Serif" font-size="10.00" fill="#000000">semWaitZero</text>
</a>
</g>
</g>
<!-- Node6&#45;&gt;Node27 -->
<g id="edge38" class="edge">
<title>Node6&#45;&gt;Node27</title>
<path fill="none" stroke="#191970" d="M21.6909,-323.4689C25.3377,-298.0081 38.5446,-227.5243 77,-186 80.3679,-182.3633 84.4015,-179.2225 88.7011,-176.5245"/>
<polygon fill="#191970" stroke="#191970" points="90.6596,-179.4436 97.7724,-171.5913 87.3153,-173.2941 90.6596,-179.4436"/>
</g>
<!-- Node30 -->
<g id="node25" class="node">
<title>Node30</title>
<g id="a_node25"><a xlink:href="defines_8c.html#aea9b93cad897755a46cb9e3373ba8cc2" target="_top" xlink:title="Rende bloccante oppure non bloccante un file descriptor. ">
<polygon fill="none" stroke="#000000" points="99.5,-76.5 99.5,-95.5 155.5,-95.5 155.5,-76.5 99.5,-76.5"/>
<text text-anchor="middle" x="127.5" y="-83.5" font-family="Helvetica,sans-Serif" font-size="10.00" fill="#000000">blockFD</text>
</a>
</g>
</g>
<!-- Node6&#45;&gt;Node30 -->
<g id="edge49" class="edge">
<title>Node6&#45;&gt;Node30</title>
<path fill="none" stroke="#191970" d="M21.8458,-323.2875C27.3322,-284.8774 49.0519,-144.0257 77,-110 80.6197,-105.5931 85.2378,-101.9449 90.2052,-98.9393"/>
<polygon fill="#191970" stroke="#191970" points="92.1055,-101.8971 99.3838,-94.198 88.8928,-95.6778 92.1055,-101.8971"/>
</g>
<!-- Node31 -->
<g id="node26" class="node">
<title>Node31</title>
<g id="a_node26"><a xlink:href="server_8c.html#ac94aa68fd5fccbf448cfe8788bd46225" target="_top" xlink:title="aggiungiAMatrice">
<polygon fill="none" stroke="#000000" points="77,-38.5 77,-57.5 178,-57.5 178,-38.5 77,-38.5"/>
<text text-anchor="middle" x="127.5" y="-45.5" font-family="Helvetica,sans-Serif" font-size="10.00" fill="#000000">aggiungiAMatrice</text>
</a>
</g>
</g>
<!-- Node6&#45;&gt;Node31 -->
<g id="edge50" class="edge">
<title>Node6&#45;&gt;Node31</title>
<path fill="none" stroke="#191970" d="M21.3119,-323.4498C25.1244,-280.68 42.5288,-107.0951 77,-67 78.1336,-65.6815 79.3683,-64.4543 80.6835,-63.3121"/>
<polygon fill="#191970" stroke="#191970" points="82.6747,-66.1905 88.9526,-57.6559 78.7227,-60.4128 82.6747,-66.1905"/>
</g>
<!-- Node32 -->
<g id="node27" class="node">
<title>Node32</title>
<g id="a_node27"><a xlink:href="server_8c.html#aefaefec035e6211d28b35a6d2ce3b3fa" target="_top" xlink:title="costruisciStringa">
<polygon fill="none" stroke="#000000" points="78.5,-.5 78.5,-19.5 176.5,-19.5 176.5,-.5 78.5,-.5"/>
<text text-anchor="middle" x="127.5" y="-7.5" font-family="Helvetica,sans-Serif" font-size="10.00" fill="#000000">costruisciStringa</text>
</a>
</g>
</g>
<!-- Node6&#45;&gt;Node32 -->
<g id="edge51" class="edge">
<title>Node6&#45;&gt;Node32</title>
<path fill="none" stroke="#191970" d="M21.041,-323.3697C23.8361,-276.823 38.0447,-75.4989 77,-29 78.1166,-27.6671 79.3369,-26.4276 80.6398,-25.275"/>
<polygon fill="#191970" stroke="#191970" points="82.635,-28.1507 88.8606,-19.5779 78.6478,-22.3972 82.635,-28.1507"/>
</g>
<!-- Node8&#45;&gt;Node7 -->
<g id="edge3" class="edge">
<title>Node8&#45;&gt;Node7</title>
<path fill="none" stroke="#191970" d="M289.2169,-627.6852C327.664,-655.7189 444.3103,-731.4488 514,-675 555.5468,-641.347 569.7327,-468.9185 573.4142,-409.8675"/>
<polygon fill="#191970" stroke="#191970" points="576.9223,-409.832 574.0155,-399.6437 569.9344,-409.421 576.9223,-409.832"/>
</g>
<!-- Node9 -->
<g id="node4" class="node">
<title>Node9</title>
<g id="a_node4"><a xlink:href="shared__memory_8c.html#a6530d61365abd3e580722ed907ea5f5b" target="_top" xlink:title="Scollega la memoria condivisa dallo spazio degli indirizzi. ">
<polygon fill="none" stroke="#000000" points="384,-646.5 384,-665.5 505,-665.5 505,-646.5 384,-646.5"/>
<text text-anchor="middle" x="444.5" y="-653.5" font-family="Helvetica,sans-Serif" font-size="10.00" fill="#000000">free_shared_memory</text>
</a>
</g>
</g>
<!-- Node8&#45;&gt;Node9 -->
<g id="edge4" class="edge">
<title>Node8&#45;&gt;Node9</title>
<path fill="none" stroke="#191970" d="M318.8935,-627.589C341.2626,-632.6487 368.8982,-638.8996 392.5472,-644.2488"/>
<polygon fill="#191970" stroke="#191970" points="391.8856,-647.6875 402.4114,-646.4799 393.4299,-640.8599 391.8856,-647.6875"/>
</g>
<!-- Node10 -->
<g id="node5" class="node">
<title>Node10</title>
<g id="a_node5"><a xlink:href="shared__memory_8c.html#a8fd9943e1b39a1f286977096e0a50d7b" target="_top" xlink:title="Elimina la memoria condivisa. ">
<polygon fill="none" stroke="#000000" points="375,-608.5 375,-627.5 514,-627.5 514,-608.5 375,-608.5"/>
<text text-anchor="middle" x="444.5" y="-615.5" font-family="Helvetica,sans-Serif" font-size="10.00" fill="#000000">remove_shared_memory</text>
</a>
</g>
</g>
<!-- Node8&#45;&gt;Node10 -->
<g id="edge6" class="edge">
<title>Node8&#45;&gt;Node10</title>
<path fill="none" stroke="#191970" d="M335.7305,-618C345.1258,-618 354.975,-618 364.7475,-618"/>
<polygon fill="#191970" stroke="#191970" points="364.8813,-621.5001 374.8813,-618 364.8812,-614.5001 364.8813,-621.5001"/>
</g>
<!-- Node11 -->
<g id="node6" class="node">
<title>Node11</title>
<g id="a_node6"><a xlink:href="semaphore_8c.html#a530566146b6e3cc8415d8ae4259fd68f" target="_top" xlink:title="Cancella il set di semafori svegliando eventuali processi in attesa. ">
<polygon fill="none" stroke="#000000" points="409.5,-494.5 409.5,-513.5 479.5,-513.5 479.5,-494.5 409.5,-494.5"/>
<text text-anchor="middle" x="444.5" y="-501.5" font-family="Helvetica,sans-Serif" font-size="10.00" fill="#000000">semDelete</text>
</a>
</g>
</g>
<!-- Node8&#45;&gt;Node11 -->
<g id="edge8" class="edge">
<title>Node8&#45;&gt;Node11</title>
<path fill="none" stroke="#191970" d="M317.249,-608.4452C324.7275,-605.9106 332.285,-602.7923 339,-599 375.9455,-578.1349 410.9092,-542.3729 429.8499,-521.1841"/>
<polygon fill="#191970" stroke="#191970" points="432.5515,-523.4118 436.5128,-513.5854 427.2883,-518.7968 432.5515,-523.4118"/>
</g>
<!-- Node9&#45;&gt;Node7 -->
<g id="edge5" class="edge">
<title>Node9&#45;&gt;Node7</title>
<path fill="none" stroke="#191970" d="M500.9832,-646.4316C505.795,-643.9489 510.2477,-640.8537 514,-637 545.9224,-604.2153 565.8152,-462.5765 572.2297,-409.8633"/>
<polygon fill="#191970" stroke="#191970" points="575.7241,-410.1162 573.4234,-399.7742 568.7726,-409.2937 575.7241,-410.1162"/>
</g>
<!-- Node10&#45;&gt;Node7 -->
<g id="edge7" class="edge">
<title>Node10&#45;&gt;Node7</title>
<path fill="none" stroke="#191970" d="M491.8278,-608.4783C500.0554,-605.0413 507.911,-600.3643 514,-594 539.8339,-566.9983 562.6218,-455.2607 571.0427,-409.5867"/>
<polygon fill="#191970" stroke="#191970" points="574.4914,-410.1839 572.8264,-399.7208 567.6031,-408.9386 574.4914,-410.1839"/>
</g>
<!-- Node11&#45;&gt;Node7 -->
<g id="edge9" class="edge">
<title>Node11&#45;&gt;Node7</title>
<path fill="none" stroke="#191970" d="M479.5555,-496.6862C491.3203,-493.0406 503.9835,-487.7056 514,-480 538.6379,-461.0464 556.6608,-429.1052 566.3531,-408.8126"/>
<polygon fill="#191970" stroke="#191970" points="569.5701,-410.1937 570.544,-399.6437 563.2036,-407.2836 569.5701,-410.1937"/>
</g>
<!-- Node13 -->
<g id="node8" class="node">
<title>Node13</title>
<g id="a_node8"><a xlink:href="defines_8c.html#abe68b7232c057100c2e21586906436d7" target="_top" xlink:title="get_project_ipc_key">
<polygon fill="none" stroke="#000000" points="219.5,-570.5 219.5,-589.5 333.5,-589.5 333.5,-570.5 219.5,-570.5"/>
<text text-anchor="middle" x="276.5" y="-577.5" font-family="Helvetica,sans-Serif" font-size="10.00" fill="#000000">get_project_ipc_key</text>
</a>
</g>
</g>
<!-- Node12&#45;&gt;Node13 -->
<g id="edge11" class="edge">
<title>Node12&#45;&gt;Node13</title>
<path fill="none" stroke="#191970" d="M165.099,-580C178.4779,-580 193.9808,-580 209.0912,-580"/>
<polygon fill="#191970" stroke="#191970" points="209.4586,-583.5001 219.4585,-580 209.4585,-576.5001 209.4586,-583.5001"/>
</g>
<!-- Node13&#45;&gt;Node7 -->
<g id="edge12" class="edge">
<title>Node13&#45;&gt;Node7</title>
<path fill="none" stroke="#191970" d="M333.574,-589.1287C385.9862,-594.2064 463.029,-592.9108 514,-553 537.3032,-534.7534 560.406,-448.8131 569.9411,-409.5969"/>
<polygon fill="#191970" stroke="#191970" points="573.3945,-410.2032 572.3076,-399.6643 566.5851,-408.5808 573.3945,-410.2032"/>
</g>
<!-- Node14&#45;&gt;Node7 -->
<g id="edge14" class="edge">
<title>Node14&#45;&gt;Node7</title>
<path fill="none" stroke="#191970" d="M325.4312,-551.5659C377.1161,-558.8227 458.6387,-561.8464 514,-523 551.9301,-496.3849 566.5338,-440.0373 571.788,-409.9378"/>
<polygon fill="#191970" stroke="#191970" points="575.2857,-410.2246 573.3731,-399.8038 568.3697,-409.1428 575.2857,-410.2246"/>
</g>
<!-- Node15&#45;&gt;Node7 -->
<g id="edge16" class="edge">
<title>Node15&#45;&gt;Node7</title>
<path fill="none" stroke="#191970" d="M335.2705,-471.8466C385.0179,-474.3824 457.0995,-472.2551 514,-447 533.2595,-438.4517 550.231,-421.1113 561.2589,-407.7893"/>
<polygon fill="#191970" stroke="#191970" points="564.159,-409.7644 567.6119,-399.7479 558.6663,-405.4249 564.159,-409.7644"/>
</g>
<!-- Node16&#45;&gt;Node13 -->
<g id="edge18" class="edge">
<title>Node16&#45;&gt;Node13</title>
<path fill="none" stroke="#191970" d="M165.099,-551.589C184.584,-556.5583 208.5745,-562.6767 229.2958,-567.9613"/>
<polygon fill="#191970" stroke="#191970" points="228.6166,-571.4001 239.1714,-570.4799 230.3465,-564.6172 228.6166,-571.4001"/>
</g>
<!-- Node17&#45;&gt;Node7 -->
<g id="edge20" class="edge">
<title>Node17&#45;&gt;Node7</title>
<path fill="none" stroke="#191970" d="M480.2861,-418.492C491.1391,-415.5345 503.0781,-412.2067 514,-409 522.5035,-406.5033 531.6414,-403.6981 540.1739,-401.0252"/>
<polygon fill="#191970" stroke="#191970" points="541.3552,-404.3226 549.8378,-397.9747 539.2481,-397.6473 541.3552,-404.3226"/>
</g>
<!-- Node18&#45;&gt;Node7 -->
<g id="edge22" class="edge">
<title>Node18&#45;&gt;Node7</title>
<path fill="none" stroke="#191970" d="M309.7615,-231.114C367.2049,-220.0127 481.937,-201.5596 514,-224 538.8083,-241.363 561.3364,-330.6826 570.3452,-370.6395"/>
<polygon fill="#191970" stroke="#191970" points="566.9479,-371.4872 572.5183,-380.4995 573.7839,-369.9806 566.9479,-371.4872"/>
</g>
<!-- Node19&#45;&gt;Node7 -->
<g id="edge26" class="edge">
<title>Node19&#45;&gt;Node7</title>
<path fill="none" stroke="#191970" d="M310.911,-381.6935C329.7204,-377.5764 353.5022,-373.0545 375,-371 436.4976,-365.1229 452.9359,-361.6369 514,-371 522.6819,-372.3312 531.8283,-374.678 540.3066,-377.2781"/>
<polygon fill="#191970" stroke="#191970" points="539.2922,-380.6287 549.8846,-380.4011 541.4622,-373.9735 539.2922,-380.6287"/>
</g>
<!-- Node20 -->
<g id="node15" class="node">
<title>Node20</title>
<g id="a_node15"><a xlink:href="fifo_8c.html#ab83de0eb3bc3947e3c031685d5c2474b" target="_top" xlink:title="Crea o ottiene una IPC FIFO usando mkfifo. ">
<polygon fill="none" stroke="#000000" points="412,-380.5 412,-399.5 477,-399.5 477,-380.5 412,-380.5"/>
<text text-anchor="middle" x="444.5" y="-387.5" font-family="Helvetica,sans-Serif" font-size="10.00" fill="#000000">make_fifo</text>
</a>
</g>
</g>
<!-- Node19&#45;&gt;Node20 -->
<g id="edge24" class="edge">
<title>Node19&#45;&gt;Node20</title>
<path fill="none" stroke="#191970" d="M310.9027,-390C337.1205,-390 373.3811,-390 401.5108,-390"/>
<polygon fill="#191970" stroke="#191970" points="401.8558,-393.5001 411.8557,-390 401.8557,-386.5001 401.8558,-393.5001"/>
</g>
<!-- Node20&#45;&gt;Node7 -->
<g id="edge25" class="edge">
<title>Node20&#45;&gt;Node7</title>
<path fill="none" stroke="#191970" d="M477.3045,-390C496.344,-390 520.3139,-390 539.6857,-390"/>
<polygon fill="#191970" stroke="#191970" points="539.9143,-393.5001 549.9143,-390 539.9143,-386.5001 539.9143,-393.5001"/>
</g>
<!-- Node21&#45;&gt;Node7 -->
<g id="edge28" class="edge">
<title>Node21&#45;&gt;Node7</title>
<path fill="none" stroke="#191970" d="M316.6909,-348.6116C364.4852,-345.6996 446.306,-344.2597 514,-361 526.5059,-364.0926 539.4985,-369.926 550.2229,-375.5547"/>
<polygon fill="#191970" stroke="#191970" points="548.5447,-378.6261 558.9943,-380.3744 551.9157,-372.4912 548.5447,-378.6261"/>
</g>
<!-- Node22&#45;&gt;Node7 -->
<g id="edge30" class="edge">
<title>Node22&#45;&gt;Node7</title>
<path fill="none" stroke="#191970" d="M166.7227,-309.4503C238.4599,-302.7062 394.4245,-295.4136 514,-342 531.0901,-348.6583 547.191,-361.9068 558.4799,-372.8011"/>
<polygon fill="#191970" stroke="#191970" points="556.272,-375.5458 565.7948,-380.19 561.2466,-370.621 556.272,-375.5458"/>
</g>
<!-- Node23&#45;&gt;Node7 -->
<g id="edge32" class="edge">
<title>Node23&#45;&gt;Node7</title>
<path fill="none" stroke="#191970" d="M166.1967,-268.905C239.4305,-257.5462 401.0588,-242.5225 514,-306 539.7492,-320.4721 557.3723,-350.9836 566.6903,-370.9752"/>
<polygon fill="#191970" stroke="#191970" points="563.575,-372.5855 570.8051,-380.3299 569.9825,-369.7671 563.575,-372.5855"/>
</g>
<!-- Node25 -->
<g id="node20" class="node">
<title>Node25</title>
<g id="a_node20"><a xlink:href="semaphore_8c.html#a77c6570406059144bb6a8ecf04f481da" target="_top" xlink:title="Funzione di supporto per manipolare i valori di un set di semafori. ">
<polygon fill="none" stroke="#000000" points="419,-152.5 419,-171.5 470,-171.5 470,-152.5 419,-152.5"/>
<text text-anchor="middle" x="444.5" y="-159.5" font-family="Helvetica,sans-Serif" font-size="10.00" fill="#000000">semOp</text>
</a>
</g>
</g>
<!-- Node24&#45;&gt;Node25 -->
<g id="edge34" class="edge">
<title>Node24&#45;&gt;Node25</title>
<path fill="none" stroke="#191970" d="M290.5346,-57.5235C319.4916,-77.1729 386.1027,-122.3733 421.4665,-146.3701"/>
<polygon fill="#191970" stroke="#191970" points="419.9092,-149.5431 430.1492,-152.262 423.8397,-143.7507 419.9092,-149.5431"/>
</g>
<!-- Node25&#45;&gt;Node7 -->
<g id="edge35" class="edge">
<title>Node25&#45;&gt;Node7</title>
<path fill="none" stroke="#191970" d="M470.0983,-165.0046C484.785,-168.0078 502.5279,-174.0094 514,-186 539.8339,-213.0017 562.6218,-324.7393 571.0427,-370.4133"/>
<polygon fill="#191970" stroke="#191970" points="567.6031,-371.0614 572.8264,-380.2792 574.4914,-369.8161 567.6031,-371.0614"/>
</g>
<!-- Node26&#45;&gt;Node25 -->
<g id="edge37" class="edge">
<title>Node26&#45;&gt;Node25</title>
<path fill="none" stroke="#191970" d="M306.1483,-193.2938C334.9229,-186.7853 378.6094,-176.9038 409.1719,-169.9909"/>
<polygon fill="#191970" stroke="#191970" points="410.0116,-173.3895 418.993,-167.7694 408.4672,-166.5619 410.0116,-173.3895"/>
</g>
<!-- Node27&#45;&gt;Node7 -->
<g id="edge44" class="edge">
<title>Node27&#45;&gt;Node7</title>
<path fill="none" stroke="#191970" d="M168.6289,-153.4567C257.0332,-136.106 461.41,-101.7368 514,-143 550.081,-171.3099 567.4449,-316.3463 572.7081,-370.0061"/>
<polygon fill="#191970" stroke="#191970" points="569.2515,-370.6322 573.6739,-380.2599 576.2207,-369.9757 569.2515,-370.6322"/>
</g>
<!-- Node27&#45;&gt;Node11 -->
<g id="edge46" class="edge">
<title>Node27&#45;&gt;Node11</title>
<path fill="none" stroke="#191970" d="M134.115,-171.7643C145.0847,-188.4519 166.9265,-223.8729 178,-257 210.5237,-354.2967 138.8126,-415.2054 214,-485 263.5222,-530.9703 347.5384,-524.7136 399.3006,-515.0285"/>
<polygon fill="#191970" stroke="#191970" points="400.0774,-518.4427 409.2032,-513.0602 398.7127,-511.577 400.0774,-518.4427"/>
</g>
<!-- Node27&#45;&gt;Node18 -->
<g id="edge45" class="edge">
<title>Node27&#45;&gt;Node18</title>
<path fill="none" stroke="#191970" d="M139.72,-171.7051C155.8918,-184.1487 185.6725,-205.7025 214,-219 220.2078,-221.9141 226.9701,-224.5116 233.6785,-226.7795"/>
<polygon fill="#191970" stroke="#191970" points="232.8074,-230.175 243.3977,-229.8649 234.9255,-223.5031 232.8074,-230.175"/>
</g>
<!-- Node27&#45;&gt;Node24 -->
<g id="edge41" class="edge">
<title>Node27&#45;&gt;Node24</title>
<path fill="none" stroke="#191970" d="M155.6574,-152.3857C163.5269,-148.7516 171.6528,-144.0032 178,-138 202.2754,-115.0403 188.8587,-94.0081 214,-72 219.5317,-67.1577 226.1451,-63.2431 232.9682,-60.0935"/>
<polygon fill="#191970" stroke="#191970" points="234.3967,-63.2906 242.3203,-56.2573 231.7401,-56.8142 234.3967,-63.2906"/>
</g>
<!-- Node27&#45;&gt;Node25 -->
<g id="edge39" class="edge">
<title>Node27&#45;&gt;Node25</title>
<path fill="none" stroke="#191970" d="M168.6172,-162C231.1993,-162 349.3267,-162 408.6282,-162"/>
<polygon fill="#191970" stroke="#191970" points="408.6489,-165.5001 418.6489,-162 408.6489,-158.5001 408.6489,-165.5001"/>
</g>
<!-- Node27&#45;&gt;Node26 -->
<g id="edge40" class="edge">
<title>Node27&#45;&gt;Node26</title>
<path fill="none" stroke="#191970" d="M165.099,-171.589C187.0788,-177.1946 214.7916,-184.2623 237.0777,-189.946"/>
<polygon fill="#191970" stroke="#191970" points="236.3406,-193.37 246.8954,-192.4498 238.0705,-186.5871 236.3406,-193.37"/>
</g>
<!-- Node28 -->
<g id="node23" class="node">
<title>Node28</title>
<g id="a_node23"><a xlink:href="semaphore_8c.html#aad78dc4ccefb184a74dd9ef808df8db6" target="_top" xlink:title="Inizializza il valore del semaforo sem_num al valore val. ">
<polygon fill="none" stroke="#000000" points="410.5,-76.5 410.5,-95.5 478.5,-95.5 478.5,-76.5 410.5,-76.5"/>
<text text-anchor="middle" x="444.5" y="-83.5" font-family="Helvetica,sans-Serif" font-size="10.00" fill="#000000">semSetVal</text>
</a>
</g>
</g>
<!-- Node27&#45;&gt;Node28 -->
<g id="edge42" class="edge">
<title>Node27&#45;&gt;Node28</title>
<path fill="none" stroke="#191970" d="M150.1737,-152.4973C159.0769,-148.4414 169.2406,-143.3988 178,-138 195.2556,-127.3647 195.1942,-117.5635 214,-110 275.2059,-85.3834 352.5679,-82.455 400.2806,-83.5308"/>
<polygon fill="#191970" stroke="#191970" points="400.1878,-87.0295 410.2864,-83.8253 400.3938,-80.0326 400.1878,-87.0295"/>
</g>
<!-- Node29 -->
<g id="node24" class="node">
<title>Node29</title>
<g id="a_node24"><a xlink:href="semaphore_8c.html#a34a010b0a39236a7261d7d5103426491" target="_top" xlink:title="Imposta i permessi su un set di semafori. ">
<polygon fill="none" stroke="#000000" points="405,-19.5 405,-38.5 484,-38.5 484,-19.5 405,-19.5"/>
<text text-anchor="middle" x="444.5" y="-26.5" font-family="Helvetica,sans-Serif" font-size="10.00" fill="#000000">semSetPerm</text>
</a>
</g>
</g>
<!-- Node27&#45;&gt;Node29 -->
<g id="edge47" class="edge">
<title>Node27&#45;&gt;Node29</title>
<path fill="none" stroke="#191970" d="M137.7487,-152.2164C148.6862,-141.3968 166.0507,-123.0925 178,-105 198.598,-73.8125 182.4172,-48.9866 214,-29 271.7723,7.5601 355.095,-4.6783 404.1337,-16.8649"/>
<polygon fill="#191970" stroke="#191970" points="403.497,-20.3157 414.0562,-19.4471 405.26,-13.5414 403.497,-20.3157"/>
</g>
<!-- Node28&#45;&gt;Node7 -->
<g id="edge43" class="edge">
<title>Node28&#45;&gt;Node7</title>
<path fill="none" stroke="#191970" d="M478.5143,-90.5417C491.3084,-93.9122 504.9368,-99.7814 514,-110 548.655,-149.073 567.1689,-312.5025 572.7005,-369.9364"/>
<polygon fill="#191970" stroke="#191970" points="569.2462,-370.5906 573.6599,-380.2223 576.216,-369.9404 569.2462,-370.5906"/>
</g>
<!-- Node29&#45;&gt;Node7 -->
<g id="edge48" class="edge">
<title>Node29&#45;&gt;Node7</title>
<path fill="none" stroke="#191970" d="M474.6506,-38.6215C488.6946,-44.6135 504.388,-53.7558 514,-67 549.7267,-116.227 567.9108,-307.5345 572.9897,-370.0862"/>
<polygon fill="#191970" stroke="#191970" points="569.5122,-370.5101 573.7868,-380.2043 576.4906,-369.9603 569.5122,-370.5101"/>
</g>
</g>
</svg>
