<?xml version="1.0" encoding="UTF-8" standalone="no"?>
<!DOCTYPE svg PUBLIC "-//W3C//DTD SVG 1.1//EN"
 "http://www.w3.org/Graphics/SVG/1.1/DTD/svg11.dtd">
<!-- Generated by graphviz version 2.40.1 (20161225.0304)
 -->
<!-- Title: /mnt/c/Users/stefa/Desktop/system_call/src/server.c Pages: 1 -->
<svg width="1108pt" height="162pt"
 viewBox="0.00 0.00 1107.50 162.00" xmlns="http://www.w3.org/2000/svg" xmlns:xlink="http://www.w3.org/1999/xlink">
<g id="graph0" class="graph" transform="scale(1 1) rotate(0) translate(4 158)">
<title>/mnt/c/Users/stefa/Desktop/system_call/src/server.c</title>
<!-- Node0 -->
<g id="node1" class="node">
<title>Node0</title>
<polygon fill="#bfbfbf" stroke="#000000" points="459.5,-112.5 459.5,-153.5 581.5,-153.5 581.5,-112.5 459.5,-112.5"/>
<text text-anchor="start" x="467.5" y="-141.5" font-family="Helvetica,sans-Serif" font-size="10.00" fill="#000000">/mnt/c/Users/stefa</text>
<text text-anchor="start" x="467.5" y="-130.5" font-family="Helvetica,sans-Serif" font-size="10.00" fill="#000000">/Desktop/system_call</text>
<text text-anchor="middle" x="520.5" y="-119.5" font-family="Helvetica,sans-Serif" font-size="10.00" fill="#000000">/src/server.c</text>
</g>
<!-- Node1 -->
<g id="node2" class="node">
<title>Node1</title>
<polygon fill="none" stroke="#bfbfbf" points="0,-56.5 0,-75.5 55,-75.5 55,-56.5 0,-56.5"/>
<text text-anchor="middle" x="27.5" y="-63.5" font-family="Helvetica,sans-Serif" font-size="10.00" fill="#000000">signal.h</text>
</g>
<!-- Node0&#45;&gt;Node1 -->
<g id="edge1" class="edge">
<title>Node0&#45;&gt;Node1</title>
<path fill="none" stroke="#191970" d="M459.218,-128.0781C373.2458,-120.5686 211.8869,-104.2694 65.3582,-75.9279"/>
<polygon fill="#191970" stroke="#191970" points="65.7686,-72.4419 55.2824,-73.9552 64.4236,-79.3115 65.7686,-72.4419"/>
</g>
<!-- Node2 -->
<g id="node3" class="node">
<title>Node2</title>
<polygon fill="none" stroke="#bfbfbf" points="73.5,-56.5 73.5,-75.5 123.5,-75.5 123.5,-56.5 73.5,-56.5"/>
<text text-anchor="middle" x="98.5" y="-63.5" font-family="Helvetica,sans-Serif" font-size="10.00" fill="#000000">stdio.h</text>
</g>
<!-- Node0&#45;&gt;Node2 -->
<g id="edge2" class="edge">
<title>Node0&#45;&gt;Node2</title>
<path fill="none" stroke="#191970" d="M459.2018,-126.6844C384.4217,-118.382 254.0901,-101.9854 133.7713,-76.0351"/>
<polygon fill="#191970" stroke="#191970" points="134.1658,-72.5388 123.6492,-73.8238 132.6718,-79.3775 134.1658,-72.5388"/>
</g>
<!-- Node3 -->
<g id="node4" class="node">
<title>Node3</title>
<polygon fill="none" stroke="#bfbfbf" points="142,-56.5 142,-75.5 195,-75.5 195,-56.5 142,-56.5"/>
<text text-anchor="middle" x="168.5" y="-63.5" font-family="Helvetica,sans-Serif" font-size="10.00" fill="#000000">stdlib.h</text>
</g>
<!-- Node0&#45;&gt;Node3 -->
<g id="edge3" class="edge">
<title>Node0&#45;&gt;Node3</title>
<path fill="none" stroke="#191970" d="M459.2865,-123.6806C397.5623,-113.8955 299.3967,-97.2763 205.1553,-75.9815"/>
<polygon fill="#191970" stroke="#191970" points="205.6943,-72.5146 195.1664,-73.7032 204.1377,-79.3393 205.6943,-72.5146"/>
</g>
<!-- Node4 -->
<g id="node5" class="node">
<title>Node4</title>
<polygon fill="none" stroke="#bfbfbf" points="213.5,-56.5 213.5,-75.5 269.5,-75.5 269.5,-56.5 213.5,-56.5"/>
<text text-anchor="middle" x="241.5" y="-63.5" font-family="Helvetica,sans-Serif" font-size="10.00" fill="#000000">unistd.h</text>
</g>
<!-- Node0&#45;&gt;Node4 -->
<g id="edge4" class="edge">
<title>Node0&#45;&gt;Node4</title>
<path fill="none" stroke="#191970" d="M459.4492,-119.2006C412.7348,-108.5085 346.4748,-93.0577 279.6224,-76.231"/>
<polygon fill="#191970" stroke="#191970" points="280.3095,-72.7947 269.7569,-73.7388 278.595,-79.5815 280.3095,-72.7947"/>
</g>
<!-- Node5 -->
<g id="node6" class="node">
<title>Node5</title>
<polygon fill="none" stroke="#bfbfbf" points="287.5,-56.5 287.5,-75.5 351.5,-75.5 351.5,-56.5 287.5,-56.5"/>
<text text-anchor="middle" x="319.5" y="-63.5" font-family="Helvetica,sans-Serif" font-size="10.00" fill="#000000">sys/stat.h</text>
</g>
<!-- Node0&#45;&gt;Node5 -->
<g id="edge5" class="edge">
<title>Node0&#45;&gt;Node5</title>
<path fill="none" stroke="#191970" d="M459.3747,-112.6249C426.3132,-101.6044 386.4989,-88.333 357.8166,-78.7722"/>
<polygon fill="#191970" stroke="#191970" points="358.7586,-75.3969 348.1649,-75.555 356.5449,-82.0377 358.7586,-75.3969"/>
</g>
<!-- Node6 -->
<g id="node7" class="node">
<title>Node6</title>
<polygon fill="none" stroke="#bfbfbf" points="369.5,-56.5 369.5,-75.5 431.5,-75.5 431.5,-56.5 369.5,-56.5"/>
<text text-anchor="middle" x="400.5" y="-63.5" font-family="Helvetica,sans-Serif" font-size="10.00" fill="#000000">stdbool.h</text>
</g>
<!-- Node0&#45;&gt;Node6 -->
<g id="edge6" class="edge">
<title>Node0&#45;&gt;Node6</title>
<path fill="none" stroke="#191970" d="M483.5169,-112.3511C465.2106,-102.1301 443.5351,-90.0279 426.9236,-80.7532"/>
<polygon fill="#191970" stroke="#191970" points="428.2294,-77.4737 417.7919,-75.6546 424.8169,-83.5856 428.2294,-77.4737"/>
</g>
<!-- Node7 -->
<g id="node8" class="node">
<title>Node7</title>
<polygon fill="none" stroke="#bfbfbf" points="450,-56.5 450,-75.5 515,-75.5 515,-56.5 450,-56.5"/>
<text text-anchor="middle" x="482.5" y="-63.5" font-family="Helvetica,sans-Serif" font-size="10.00" fill="#000000">inttypes.h</text>
</g>
<!-- Node0&#45;&gt;Node7 -->
<g id="edge7" class="edge">
<title>Node0&#45;&gt;Node7</title>
<path fill="none" stroke="#191970" d="M508.6849,-112.168C503.6827,-103.3484 497.9013,-93.155 493.0455,-84.5933"/>
<polygon fill="#191970" stroke="#191970" points="496.025,-82.7521 488.0471,-75.7805 489.9362,-86.2056 496.025,-82.7521"/>
</g>
<!-- Node8 -->
<g id="node9" class="node">
<title>Node8</title>
<polygon fill="none" stroke="#bfbfbf" points="533,-56.5 533,-75.5 584,-75.5 584,-56.5 533,-56.5"/>
<text text-anchor="middle" x="558.5" y="-63.5" font-family="Helvetica,sans-Serif" font-size="10.00" fill="#000000">errno.h</text>
</g>
<!-- Node0&#45;&gt;Node8 -->
<g id="edge8" class="edge">
<title>Node0&#45;&gt;Node8</title>
<path fill="none" stroke="#191970" d="M532.3151,-112.168C537.3173,-103.3484 543.0987,-93.155 547.9545,-84.5933"/>
<polygon fill="#191970" stroke="#191970" points="551.0638,-86.2056 552.9529,-75.7805 544.975,-82.7521 551.0638,-86.2056"/>
</g>
<!-- Node9 -->
<g id="node10" class="node">
<title>Node9</title>
<g id="a_node10"><a xlink:href="err__exit_8h.html" target="_top" xlink:title="Contiene la definizione della funzione di stampa degli errori. ">
<polygon fill="none" stroke="#000000" points="602,-56.5 602,-75.5 665,-75.5 665,-56.5 602,-56.5"/>
<text text-anchor="middle" x="633.5" y="-63.5" font-family="Helvetica,sans-Serif" font-size="10.00" fill="#000000">err_exit.h</text>
</a>
</g>
</g>
<!-- Node0&#45;&gt;Node9 -->
<g id="edge9" class="edge">
<title>Node0&#45;&gt;Node9</title>
<path fill="none" stroke="#191970" d="M555.3258,-112.3511C572.403,-102.2256 592.5941,-90.254 608.178,-81.0139"/>
<polygon fill="#191970" stroke="#191970" points="610.4002,-83.7654 617.2168,-75.6546 606.8301,-77.7442 610.4002,-83.7654"/>
</g>
<!-- Node10 -->
<g id="node11" class="node">
<title>Node10</title>
<g id="a_node11"><a xlink:href="defines_8h.html" target="_top" xlink:title="Contiene la definizioni di variabili e funzioni specifiche del progetto. ">
<polygon fill="none" stroke="#000000" points="806,-56.5 806,-75.5 867,-75.5 867,-56.5 806,-56.5"/>
<text text-anchor="middle" x="836.5" y="-63.5" font-family="Helvetica,sans-Serif" font-size="10.00" fill="#000000">defines.h</text>
</a>
</g>
</g>
<!-- Node0&#45;&gt;Node10 -->
<g id="edge10" class="edge">
<title>Node0&#45;&gt;Node10</title>
<path fill="none" stroke="#191970" d="M581.5001,-121.1542C635.342,-110.5271 716.1833,-94.1557 796.2036,-75.997"/>
<polygon fill="#191970" stroke="#191970" points="796.9842,-79.4089 805.9563,-73.7739 795.4285,-72.584 796.9842,-79.4089"/>
</g>
<!-- Node13 -->
<g id="node14" class="node">
<title>Node13</title>
<g id="a_node14"><a xlink:href="shared__memory_8h.html" target="_top" xlink:title="Contiene la definizioni di variabili e funzioni specifiche per la gestione della MEMORIA CONDIVISA...">
<polygon fill="none" stroke="#000000" points="683.5,-56.5 683.5,-75.5 787.5,-75.5 787.5,-56.5 683.5,-56.5"/>
<text text-anchor="middle" x="735.5" y="-63.5" font-family="Helvetica,sans-Serif" font-size="10.00" fill="#000000">shared_memory.h</text>
</a>
</g>
</g>
<!-- Node0&#45;&gt;Node13 -->
<g id="edge13" class="edge">
<title>Node0&#45;&gt;Node13</title>
<path fill="none" stroke="#191970" d="M581.5353,-113.9797C617.8309,-102.669 662.8772,-88.6313 694.8462,-78.6688"/>
<polygon fill="#191970" stroke="#191970" points="696.2328,-81.9029 704.7386,-75.5861 694.1501,-75.2198 696.2328,-81.9029"/>
</g>
<!-- Node14 -->
<g id="node15" class="node">
<title>Node14</title>
<g id="a_node15"><a xlink:href="semaphore_8h.html" target="_top" xlink:title="Contiene la definizioni di variabili e funzioni specifiche per la gestione dei SEMAFORI. ">
<polygon fill="none" stroke="#000000" points="885.5,-56.5 885.5,-75.5 965.5,-75.5 965.5,-56.5 885.5,-56.5"/>
<text text-anchor="middle" x="925.5" y="-63.5" font-family="Helvetica,sans-Serif" font-size="10.00" fill="#000000">semaphore.h</text>
</a>
</g>
</g>
<!-- Node0&#45;&gt;Node14 -->
<g id="edge15" class="edge">
<title>Node0&#45;&gt;Node14</title>
<path fill="none" stroke="#191970" d="M581.739,-124.0048C650.6963,-113.6937 766.3294,-95.8577 875.5457,-76.1175"/>
<polygon fill="#191970" stroke="#191970" points="876.2019,-79.5557 885.4155,-74.3251 874.951,-72.6683 876.2019,-79.5557"/>
</g>
<!-- Node15 -->
<g id="node16" class="node">
<title>Node15</title>
<g id="a_node16"><a xlink:href="fifo_8h.html" target="_top" xlink:title="Contiene la definizioni di variabili e funzioni specifiche per la gestione delle FIFO. ">
<polygon fill="none" stroke="#000000" points="984,-56.5 984,-75.5 1025,-75.5 1025,-56.5 984,-56.5"/>
<text text-anchor="middle" x="1004.5" y="-63.5" font-family="Helvetica,sans-Serif" font-size="10.00" fill="#000000">fifo.h</text>
</a>
</g>
</g>
<!-- Node0&#45;&gt;Node15 -->
<g id="edge16" class="edge">
<title>Node0&#45;&gt;Node15</title>
<path fill="none" stroke="#191970" d="M581.745,-129.1523C667.6143,-122.9127 828.5931,-108.1319 973.9974,-75.6913"/>
<polygon fill="#191970" stroke="#191970" points="975.0147,-79.0496 983.9946,-73.4271 973.4684,-72.2226 975.0147,-79.0496"/>
</g>
<!-- Node16 -->
<g id="node17" class="node">
<title>Node16</title>
<g id="a_node17"><a xlink:href="debug_8h.html" target="_top" xlink:title="Contiene la definizioni di variabili e funzioni per il debugging. ">
<polygon fill="none" stroke="#000000" points="1043.5,-56.5 1043.5,-75.5 1099.5,-75.5 1099.5,-56.5 1043.5,-56.5"/>
<text text-anchor="middle" x="1071.5" y="-63.5" font-family="Helvetica,sans-Serif" font-size="10.00" fill="#000000">debug.h</text>
</a>
</g>
</g>
<!-- Node0&#45;&gt;Node16 -->
<g id="edge17" class="edge">
<title>Node0&#45;&gt;Node16</title>
<path fill="none" stroke="#191970" d="M581.8758,-129.2522C676.8302,-122.7827 865.089,-107.2834 1033.2943,-75.9836"/>
<polygon fill="#191970" stroke="#191970" points="1034.1427,-79.3855 1043.3217,-74.0943 1032.8465,-72.5065 1034.1427,-79.3855"/>
</g>
<!-- Node11 -->
<g id="node12" class="node">
<title>Node11</title>
<polygon fill="none" stroke="#bfbfbf" points="708.5,-.5 708.5,-19.5 780.5,-19.5 780.5,-.5 708.5,-.5"/>
<text text-anchor="middle" x="744.5" y="-7.5" font-family="Helvetica,sans-Serif" font-size="10.00" fill="#000000">sys/types.h</text>
</g>
<!-- Node10&#45;&gt;Node11 -->
<g id="edge11" class="edge">
<title>Node10&#45;&gt;Node11</title>
<path fill="none" stroke="#191970" d="M820.4748,-56.2455C806.3592,-47.6534 785.5737,-35.0014 769.3101,-25.1018"/>
<polygon fill="#191970" stroke="#191970" points="770.7034,-21.8525 760.3415,-19.6427 767.0637,-27.8319 770.7034,-21.8525"/>
</g>
<!-- Node12 -->
<g id="node13" class="node">
<title>Node12</title>
<polygon fill="none" stroke="#bfbfbf" points="807,-.5 807,-19.5 866,-19.5 866,-.5 807,-.5"/>
<text text-anchor="middle" x="836.5" y="-7.5" font-family="Helvetica,sans-Serif" font-size="10.00" fill="#000000">sys/ipc.h</text>
</g>
<!-- Node10&#45;&gt;Node12 -->
<g id="edge12" class="edge">
<title>Node10&#45;&gt;Node12</title>
<path fill="none" stroke="#191970" d="M836.5,-56.2455C836.5,-48.9382 836.5,-38.6944 836.5,-29.7046"/>
<polygon fill="#191970" stroke="#191970" points="840.0001,-29.6426 836.5,-19.6427 833.0001,-29.6427 840.0001,-29.6426"/>
</g>
<!-- Node13&#45;&gt;Node11 -->
<g id="edge14" class="edge">
<title>Node13&#45;&gt;Node11</title>
<path fill="none" stroke="#191970" d="M737.0677,-56.2455C738.2421,-48.9382 739.8884,-38.6944 741.3332,-29.7046"/>
<polygon fill="#191970" stroke="#191970" points="744.8191,-30.0714 742.9503,-19.6427 737.9078,-28.9606 744.8191,-30.0714"/>
</g>
</g>
</svg>
