<?xml version="1.0" encoding="UTF-8" standalone="no"?>
<!DOCTYPE svg PUBLIC "-//W3C//DTD SVG 1.1//EN"
 "http://www.w3.org/Graphics/SVG/1.1/DTD/svg11.dtd">
<!-- Generated by graphviz version 2.40.1 (20161225.0304)
 -->
<!-- Title: main Pages: 1 -->
<svg width="617pt" height="874pt"
 viewBox="0.00 0.00 617.00 874.48" xmlns="http://www.w3.org/2000/svg" xmlns:xlink="http://www.w3.org/1999/xlink">
<g id="graph0" class="graph" transform="scale(1 1) rotate(0) translate(4 870.4829)">
<title>main</title>
<!-- Node12 -->
<g id="node1" class="node">
<title>Node12</title>
<polygon fill="#bfbfbf" stroke="#000000" points="0,-414.6114 0,-433.6114 41,-433.6114 41,-414.6114 0,-414.6114"/>
<text text-anchor="middle" x="20.5" y="-421.6114" font-family="Helvetica,sans-Serif" font-size="10.00" fill="#000000">main</text>
</g>
<!-- Node13 -->
<g id="node2" class="node">
<title>Node13</title>
<g id="a_node2"><a xlink:href="err__exit_8c.html#aa223b0ecfe538d130ece562646a37d27" target="_top" xlink:title="Prints the error message of the last failed system call and terminates the calling process...">
<polygon fill="none" stroke="#000000" points="560,-490.6114 560,-509.6114 609,-509.6114 609,-490.6114 560,-490.6114"/>
<text text-anchor="middle" x="584.5" y="-497.6114" font-family="Helvetica,sans-Serif" font-size="10.00" fill="#000000">ErrExit</text>
</a>
</g>
</g>
<!-- Node12&#45;&gt;Node13 -->
<g id="edge1" class="edge">
<title>Node12&#45;&gt;Node13</title>
<path fill="none" stroke="#191970" d="M20.6302,-433.6949C21.5253,-484.9488 28.3069,-726.2956 77,-778.1114 173.0661,-880.3382 245.5689,-831.6845 385,-847.1114 446.4031,-853.9051 476.7135,-886.8667 524,-847.1114 574.5528,-804.6099 582.8686,-586.7879 584.233,-519.7625"/>
<polygon fill="#191970" stroke="#191970" points="587.7334,-519.7663 584.4069,-509.7072 580.7344,-519.6452 587.7334,-519.7663"/>
</g>
<!-- Node14 -->
<g id="node3" class="node">
<title>Node14</title>
<g id="a_node3"><a xlink:href="server_8c.html#a48d605ff689f470746c858648f0a98c2" target="_top" xlink:title="Chiude tutte le IPC e termina. ">
<polygon fill="none" stroke="#000000" points="231,-756.6114 231,-775.6114 349,-775.6114 349,-756.6114 231,-756.6114"/>
<text text-anchor="middle" x="290" y="-763.6114" font-family="Helvetica,sans-Serif" font-size="10.00" fill="#000000">SIGINTSignalHandler</text>
</a>
</g>
</g>
<!-- Node12&#45;&gt;Node14 -->
<g id="edge2" class="edge">
<title>Node12&#45;&gt;Node14</title>
<path fill="none" stroke="#191970" d="M20.6795,-433.9238C21.798,-483.2397 29.4291,-703.3865 77,-747.1114 120.254,-786.8684 191.4208,-784.7344 239.4651,-777.3074"/>
<polygon fill="#191970" stroke="#191970" points="240.0618,-780.7563 249.3478,-775.6554 238.9076,-773.8521 240.0618,-780.7563"/>
</g>
<!-- Node18 -->
<g id="node7" class="node">
<title>Node18</title>
<g id="a_node7"><a xlink:href="defines_8c.html#a2d341373a96ffea0944553e5452cdbca" target="_top" xlink:title="get_ipc_key">
<polygon fill="none" stroke="#000000" points="98.5,-718.6114 98.5,-737.6114 173.5,-737.6114 173.5,-718.6114 98.5,-718.6114"/>
<text text-anchor="middle" x="136" y="-725.6114" font-family="Helvetica,sans-Serif" font-size="10.00" fill="#000000">get_ipc_key</text>
</a>
</g>
</g>
<!-- Node12&#45;&gt;Node18 -->
<g id="edge10" class="edge">
<title>Node12&#45;&gt;Node18</title>
<path fill="none" stroke="#191970" d="M21.1248,-433.7723C24.2158,-478.6913 39.2636,-666.7294 77,-709.1114 80.4449,-712.9804 84.6806,-716.0662 89.2879,-718.5265"/>
<polygon fill="#191970" stroke="#191970" points="87.9291,-721.7522 98.4955,-722.5283 90.7194,-715.3323 87.9291,-721.7522"/>
</g>
<!-- Node20 -->
<g id="node9" class="node">
<title>Node20</title>
<g id="a_node9"><a xlink:href="shared__memory_8c.html#a660a60242a5174977ab2debcdbd0e587" target="_top" xlink:title="Ottiene l&#39;id o crea una memoria condivisa. ">
<polygon fill="none" stroke="#000000" points="392,-680.6114 392,-699.6114 517,-699.6114 517,-680.6114 392,-680.6114"/>
<text text-anchor="middle" x="454.5" y="-687.6114" font-family="Helvetica,sans-Serif" font-size="10.00" fill="#000000">alloc_shared_memory</text>
</a>
</g>
</g>
<!-- Node12&#45;&gt;Node20 -->
<g id="edge13" class="edge">
<title>Node12&#45;&gt;Node20</title>
<path fill="none" stroke="#191970" d="M21.059,-433.8834C23.1647,-461.3706 32.9436,-540.0872 77,-582.1114 160.1856,-661.4597 297.5967,-683.1331 381.6889,-688.6851"/>
<polygon fill="#191970" stroke="#191970" points="381.4805,-692.1788 391.6725,-689.2851 381.9005,-685.1915 381.4805,-692.1788"/>
</g>
<!-- Node21 -->
<g id="node10" class="node">
<title>Node21</title>
<g id="a_node10"><a xlink:href="shared__memory_8c.html#ab2ffe00ec7425a3a4229cd0d53ed901c" target="_top" xlink:title="Recupera il puntatore alla memoria condivisa aggiungendola allo spazio degli indirizzi. ">
<polygon fill="none" stroke="#000000" points="231.5,-566.6114 231.5,-585.6114 348.5,-585.6114 348.5,-566.6114 231.5,-566.6114"/>
<text text-anchor="middle" x="290" y="-573.6114" font-family="Helvetica,sans-Serif" font-size="10.00" fill="#000000">get_shared_memory</text>
</a>
</g>
</g>
<!-- Node12&#45;&gt;Node21 -->
<g id="edge15" class="edge">
<title>Node12&#45;&gt;Node21</title>
<path fill="none" stroke="#191970" d="M21.5557,-433.817C24.7804,-458.2837 36.8709,-522.6273 77,-552.1114 118.1234,-582.3261 176.3069,-587.0575 221.4741,-584.9369"/>
<polygon fill="#191970" stroke="#191970" points="221.7092,-588.4292 231.4857,-584.3462 221.2969,-581.4413 221.7092,-588.4292"/>
</g>
<!-- Node22 -->
<g id="node11" class="node">
<title>Node22</title>
<g id="a_node11"><a xlink:href="defines_8c.html#afd25e0dffe44c8dd59ae86caabb94287" target="_top" xlink:title="get_ipc_key2">
<polygon fill="none" stroke="#000000" points="95.5,-680.6114 95.5,-699.6114 176.5,-699.6114 176.5,-680.6114 95.5,-680.6114"/>
<text text-anchor="middle" x="136" y="-687.6114" font-family="Helvetica,sans-Serif" font-size="10.00" fill="#000000">get_ipc_key2</text>
</a>
</g>
</g>
<!-- Node12&#45;&gt;Node22 -->
<g id="edge17" class="edge">
<title>Node12&#45;&gt;Node22</title>
<path fill="none" stroke="#191970" d="M21.5792,-433.8566C26.2493,-474.4515 45.8963,-629.6975 77,-666.1114 80.1983,-669.8557 84.0691,-673.0236 88.2818,-675.7022"/>
<polygon fill="#191970" stroke="#191970" points="86.8363,-678.8986 97.303,-680.5415 90.1453,-672.73 86.8363,-678.8986"/>
</g>
<!-- Node23 -->
<g id="node12" class="node">
<title>Node23</title>
<g id="a_node12"><a xlink:href="semaphore_8c.html#a2081de3d1c08dbacaf10ca46a717fabb" target="_top" xlink:title="Crea un insieme di semafori. ">
<polygon fill="none" stroke="#000000" points="400.5,-566.6114 400.5,-585.6114 508.5,-585.6114 508.5,-566.6114 400.5,-566.6114"/>
<text text-anchor="middle" x="454.5" y="-573.6114" font-family="Helvetica,sans-Serif" font-size="10.00" fill="#000000">createSemaphores</text>
</a>
</g>
</g>
<!-- Node12&#45;&gt;Node23 -->
<g id="edge19" class="edge">
<title>Node12&#45;&gt;Node23</title>
<path fill="none" stroke="#191970" d="M25.674,-433.7296C34.254,-448.703 52.8969,-477.3924 77,-492.1114 103.7992,-508.4769 293.0209,-545.781 392.9694,-564.682"/>
<polygon fill="#191970" stroke="#191970" points="392.4656,-568.1486 402.9411,-566.5626 393.763,-561.2698 392.4656,-568.1486"/>
</g>
<!-- Node24 -->
<g id="node13" class="node">
<title>Node24</title>
<g id="a_node13"><a xlink:href="semaphore_8c.html#a8df9b8ea63eaf93d09f437b356a4a1eb" target="_top" xlink:title="Inizializza i valori del set di semafori semid ai valori in values. ">
<polygon fill="none" stroke="#000000" points="257,-338.6114 257,-357.6114 323,-357.6114 323,-338.6114 257,-338.6114"/>
<text text-anchor="middle" x="290" y="-345.6114" font-family="Helvetica,sans-Serif" font-size="10.00" fill="#000000">semSetAll</text>
</a>
</g>
</g>
<!-- Node12&#45;&gt;Node24 -->
<g id="edge21" class="edge">
<title>Node12&#45;&gt;Node24</title>
<path fill="none" stroke="#191970" d="M26.7879,-414.3995C36.0065,-401.0976 54.5541,-377.6616 77,-367.1114 131.2796,-341.5984 201.8747,-340.7191 246.578,-343.5432"/>
<polygon fill="#191970" stroke="#191970" points="246.582,-347.0525 256.8085,-344.283 247.087,-340.0708 246.582,-347.0525"/>
</g>
<!-- Node25 -->
<g id="node14" class="node">
<title>Node25</title>
<g id="a_node14"><a xlink:href="fifo_8c.html#a54a1ae8162825128cf02f95692402c18" target="_top" xlink:title="Facilita la creazione di una FIFO (o ne ottiene una esistente) in modalita&#39; lettura o scrittura...">
<polygon fill="none" stroke="#000000" points="256,-490.6114 256,-509.6114 324,-509.6114 324,-490.6114 256,-490.6114"/>
<text text-anchor="middle" x="290" y="-497.6114" font-family="Helvetica,sans-Serif" font-size="10.00" fill="#000000">create_fifo</text>
</a>
</g>
</g>
<!-- Node12&#45;&gt;Node25 -->
<g id="edge23" class="edge">
<title>Node12&#45;&gt;Node25</title>
<path fill="none" stroke="#191970" d="M30.8791,-433.6703C41.6001,-442.9801 59.2273,-456.7696 77,-464.1114 132.3551,-486.9782 201.5358,-495.3249 245.7515,-498.3687"/>
<polygon fill="#191970" stroke="#191970" points="245.6851,-501.8713 255.8843,-499.0033 246.1227,-494.885 245.6851,-501.8713"/>
</g>
<!-- Node27 -->
<g id="node16" class="node">
<title>Node27</title>
<g id="a_node16"><a xlink:href="message__queue_8c.html#afebbb2a5c42d6a8bd4c95ab012c1dc8a" target="_top" xlink:title="Restituisce statistiche della coda dei messaggi. ">
<polygon fill="none" stroke="#000000" points="250,-452.6114 250,-471.6114 330,-471.6114 330,-452.6114 250,-452.6114"/>
<text text-anchor="middle" x="290" y="-459.6114" font-family="Helvetica,sans-Serif" font-size="10.00" fill="#000000">msqGetStats</text>
</a>
</g>
</g>
<!-- Node12&#45;&gt;Node27 -->
<g id="edge27" class="edge">
<title>Node12&#45;&gt;Node27</title>
<path fill="none" stroke="#191970" d="M41.1042,-432.3431C51.6715,-436.2288 64.8457,-440.5629 77,-443.1114 131.9998,-454.6437 196.4251,-459.181 239.9018,-460.9635"/>
<polygon fill="#191970" stroke="#191970" points="239.8141,-464.4625 249.9387,-461.3412 240.0774,-457.4675 239.8141,-464.4625"/>
</g>
<!-- Node28 -->
<g id="node17" class="node">
<title>Node28</title>
<g id="a_node17"><a xlink:href="message__queue_8c.html#aded429c9008be24df92b60660cc0acfe" target="_top" xlink:title="Imposta nuove configurazioni sulla coda dei messaggi. ">
<polygon fill="none" stroke="#000000" points="97,-414.6114 97,-433.6114 175,-433.6114 175,-414.6114 97,-414.6114"/>
<text text-anchor="middle" x="136" y="-421.6114" font-family="Helvetica,sans-Serif" font-size="10.00" fill="#000000">msqSetStats</text>
</a>
</g>
</g>
<!-- Node12&#45;&gt;Node28 -->
<g id="edge29" class="edge">
<title>Node12&#45;&gt;Node28</title>
<path fill="none" stroke="#191970" d="M41.1491,-424.1114C53.8172,-424.1114 70.6157,-424.1114 86.5527,-424.1114"/>
<polygon fill="#191970" stroke="#191970" points="86.8492,-427.6115 96.8491,-424.1114 86.8491,-420.6115 86.8492,-427.6115"/>
</g>
<!-- Node29 -->
<g id="node18" class="node">
<title>Node29</title>
<g id="a_node18"><a xlink:href="server_8c.html#ab53aa0eb44ad55d2e189f18d3bd6017b" target="_top" xlink:title="string_to_int">
<polygon fill="none" stroke="#000000" points="97.5,-376.6114 97.5,-395.6114 174.5,-395.6114 174.5,-376.6114 97.5,-376.6114"/>
<text text-anchor="middle" x="136" y="-383.6114" font-family="Helvetica,sans-Serif" font-size="10.00" fill="#000000">string_to_int</text>
</a>
</g>
</g>
<!-- Node12&#45;&gt;Node29 -->
<g id="edge31" class="edge">
<title>Node12&#45;&gt;Node29</title>
<path fill="none" stroke="#191970" d="M41.1419,-417.099C51.8329,-413.4851 65.1057,-409.0263 77,-405.1114 83.1713,-403.0801 89.7134,-400.9502 96.108,-398.8811"/>
<polygon fill="#191970" stroke="#191970" points="97.5184,-402.1038 105.9609,-395.7027 95.3693,-395.4418 97.5184,-402.1038"/>
</g>
<!-- Node30 -->
<g id="node19" class="node">
<title>Node30</title>
<g id="a_node19"><a xlink:href="semaphore_8c.html#a7bad0eb0b0c6ac701b59c36b8b7837bf" target="_top" xlink:title="Esegue la signal sul semaforo sem_num: incrementa il valore di 1. ">
<polygon fill="none" stroke="#000000" points="256,-110.6114 256,-129.6114 324,-129.6114 324,-110.6114 256,-110.6114"/>
<text text-anchor="middle" x="290" y="-117.6114" font-family="Helvetica,sans-Serif" font-size="10.00" fill="#000000">semSignal</text>
</a>
</g>
</g>
<!-- Node12&#45;&gt;Node30 -->
<g id="edge33" class="edge">
<title>Node12&#45;&gt;Node30</title>
<path fill="none" stroke="#191970" d="M22.0611,-414.2845C27.9261,-378.5446 49.7074,-256.1506 77,-229.1114 115.6858,-190.7847 151.3234,-228.6365 195,-196.1114 219.0316,-178.2156 207.3206,-157.4707 231,-139.1114 235.6309,-135.5209 240.9612,-132.5983 246.4838,-130.2217"/>
<polygon fill="#191970" stroke="#191970" points="247.7265,-133.4938 255.87,-126.7164 245.2774,-126.9362 247.7265,-133.4938"/>
</g>
<!-- Node32 -->
<g id="node21" class="node">
<title>Node32</title>
<g id="a_node21"><a xlink:href="semaphore_8c.html#a2581efba6a0833e3f289de94c779cc21" target="_top" xlink:title="Esegue la wait sul semaforo sem_num: decrementa il valore di 1 ed eventualmente mette in attesa il pr...">
<polygon fill="none" stroke="#000000" points="260.5,-148.6114 260.5,-167.6114 319.5,-167.6114 319.5,-148.6114 260.5,-148.6114"/>
<text text-anchor="middle" x="290" y="-155.6114" font-family="Helvetica,sans-Serif" font-size="10.00" fill="#000000">semWait</text>
</a>
</g>
</g>
<!-- Node12&#45;&gt;Node32 -->
<g id="edge36" class="edge">
<title>Node12&#45;&gt;Node32</title>
<path fill="none" stroke="#191970" d="M21.333,-414.4371C24.1237,-387.9327 35.4601,-313.3849 77,-272.1114 116.5961,-232.7692 145.8987,-255.6578 195,-229.1114 210.3381,-220.8189 246.9613,-192.4232 269.9931,-174.1534"/>
<polygon fill="#191970" stroke="#191970" points="272.4409,-176.6783 278.082,-167.7101 268.0795,-171.203 272.4409,-176.6783"/>
</g>
<!-- Node33 -->
<g id="node22" class="node">
<title>Node33</title>
<g id="a_node22"><a xlink:href="semaphore_8c.html#a40485eedbf6d56f7fd27bce5a537efbe" target="_top" xlink:title="Attende che il semaforo sem_num raggiunga il valore zero. ">
<polygon fill="none" stroke="#000000" points="95,-281.6114 95,-300.6114 177,-300.6114 177,-281.6114 95,-281.6114"/>
<text text-anchor="middle" x="136" y="-288.6114" font-family="Helvetica,sans-Serif" font-size="10.00" fill="#000000">semWaitZero</text>
</a>
</g>
</g>
<!-- Node12&#45;&gt;Node33 -->
<g id="edge38" class="edge">
<title>Node12&#45;&gt;Node33</title>
<path fill="none" stroke="#191970" d="M25.0614,-414.3601C33.547,-396.902 53.0864,-359.7401 77,-334.1114 86.9616,-323.4353 99.9057,-313.66 111.1306,-306.1368"/>
<polygon fill="#191970" stroke="#191970" points="113.1776,-308.9811 119.6743,-300.6119 109.3765,-303.103 113.1776,-308.9811"/>
</g>
<!-- Node36 -->
<g id="node25" class="node">
<title>Node36</title>
<g id="a_node25"><a xlink:href="defines_8c.html#aea9b93cad897755a46cb9e3373ba8cc2" target="_top" xlink:title="Rende bloccante oppure non bloccante un file descriptor. ">
<polygon fill="none" stroke="#000000" points="108,-91.6114 108,-110.6114 164,-110.6114 164,-91.6114 108,-91.6114"/>
<text text-anchor="middle" x="136" y="-98.6114" font-family="Helvetica,sans-Serif" font-size="10.00" fill="#000000">blockFD</text>
</a>
</g>
</g>
<!-- Node12&#45;&gt;Node36 -->
<g id="edge49" class="edge">
<title>Node12&#45;&gt;Node36</title>
<path fill="none" stroke="#191970" d="M20.9952,-414.4418C23.5756,-367.7107 36.9331,-165.6558 77,-120.1114 82.5586,-113.7929 90.2269,-109.5617 98.1972,-106.7322"/>
<polygon fill="#191970" stroke="#191970" points="99.3034,-110.0561 107.9476,-103.9299 97.3698,-103.3284 99.3034,-110.0561"/>
</g>
<!-- Node37 -->
<g id="node26" class="node">
<title>Node37</title>
<g id="a_node26"><a xlink:href="server_8c.html#ac94aa68fd5fccbf448cfe8788bd46225" target="_top" xlink:title="aggiungiAMatrice">
<polygon fill="none" stroke="#000000" points="85.5,-53.6114 85.5,-72.6114 186.5,-72.6114 186.5,-53.6114 85.5,-53.6114"/>
<text text-anchor="middle" x="136" y="-60.6114" font-family="Helvetica,sans-Serif" font-size="10.00" fill="#000000">aggiungiAMatrice</text>
</a>
</g>
</g>
<!-- Node12&#45;&gt;Node37 -->
<g id="edge50" class="edge">
<title>Node12&#45;&gt;Node37</title>
<path fill="none" stroke="#191970" d="M20.7722,-414.5972C22.3843,-364.7566 32.2036,-134.0722 77,-82.1114 78.032,-80.9143 79.1398,-79.792 80.3114,-78.74"/>
<polygon fill="#191970" stroke="#191970" points="82.6574,-81.3699 88.8394,-72.7656 78.641,-75.6368 82.6574,-81.3699"/>
</g>
<!-- Node38 -->
<g id="node27" class="node">
<title>Node38</title>
<g id="a_node27"><a xlink:href="server_8c.html#a6a3979b89e7153de6f4e9c4308d60403" target="_top" xlink:title="findAndMakeFullFiles">
<polygon fill="none" stroke="#000000" points="77,-167.6114 77,-186.6114 195,-186.6114 195,-167.6114 77,-167.6114"/>
<text text-anchor="middle" x="136" y="-174.6114" font-family="Helvetica,sans-Serif" font-size="10.00" fill="#000000">findAndMakeFullFiles</text>
</a>
</g>
</g>
<!-- Node12&#45;&gt;Node38 -->
<g id="edge51" class="edge">
<title>Node12&#45;&gt;Node38</title>
<path fill="none" stroke="#191970" d="M21.7902,-414.3518C27.065,-375.7628 48.0885,-234.3223 77,-201.1114 80.2764,-197.3478 84.2309,-194.1653 88.5227,-191.4759"/>
<polygon fill="#191970" stroke="#191970" points="90.4956,-194.3918 97.6967,-186.6203 87.221,-188.2049 90.4956,-194.3918"/>
</g>
<!-- Node40 -->
<g id="node29" class="node">
<title>Node40</title>
<g id="a_node29"><a xlink:href="semaphore_8c.html#a0d970df04f11907f1acb332a47a39104" target="_top" xlink:title="semWaitNoBlocc">
<polygon fill="none" stroke="#000000" points="86.5,-129.6114 86.5,-148.6114 185.5,-148.6114 185.5,-129.6114 86.5,-129.6114"/>
<text text-anchor="middle" x="136" y="-136.6114" font-family="Helvetica,sans-Serif" font-size="10.00" fill="#000000">semWaitNoBlocc</text>
</a>
</g>
</g>
<!-- Node12&#45;&gt;Node40 -->
<g id="edge54" class="edge">
<title>Node12&#45;&gt;Node40</title>
<path fill="none" stroke="#191970" d="M21.267,-414.5216C24.8848,-371.5804 41.5705,-197.3623 77,-158.1114 78.2145,-156.7659 79.5246,-155.5152 80.9125,-154.3526"/>
<polygon fill="#191970" stroke="#191970" points="83.1795,-157.0495 89.5873,-148.612 79.3164,-151.2119 83.1795,-157.0495"/>
</g>
<!-- Node14&#45;&gt;Node13 -->
<g id="edge3" class="edge">
<title>Node14&#45;&gt;Node13</title>
<path fill="none" stroke="#191970" d="M302.5854,-775.7998C340.6245,-803.8424 455.9543,-879.595 524,-823.1114 571.0085,-784.0904 581.7063,-584.2912 583.9472,-520.0391"/>
<polygon fill="#191970" stroke="#191970" points="587.4566,-519.7941 584.2741,-509.6886 580.4601,-519.5731 587.4566,-519.7941"/>
</g>
<!-- Node15 -->
<g id="node4" class="node">
<title>Node15</title>
<g id="a_node4"><a xlink:href="shared__memory_8c.html#a6530d61365abd3e580722ed907ea5f5b" target="_top" xlink:title="Scollega la memoria condivisa dallo spazio degli indirizzi. ">
<polygon fill="none" stroke="#000000" points="394,-794.6114 394,-813.6114 515,-813.6114 515,-794.6114 394,-794.6114"/>
<text text-anchor="middle" x="454.5" y="-801.6114" font-family="Helvetica,sans-Serif" font-size="10.00" fill="#000000">free_shared_memory</text>
</a>
</g>
</g>
<!-- Node14&#45;&gt;Node15 -->
<g id="edge4" class="edge">
<title>Node14&#45;&gt;Node15</title>
<path fill="none" stroke="#191970" d="M331.5103,-775.7004C353.3156,-780.7375 380.2318,-786.9552 403.3191,-792.2885"/>
<polygon fill="#191970" stroke="#191970" points="402.757,-795.7507 413.2882,-794.5913 404.3326,-788.9303 402.757,-795.7507"/>
</g>
<!-- Node16 -->
<g id="node5" class="node">
<title>Node16</title>
<g id="a_node5"><a xlink:href="shared__memory_8c.html#a8fd9943e1b39a1f286977096e0a50d7b" target="_top" xlink:title="Elimina la memoria condivisa. ">
<polygon fill="none" stroke="#000000" points="385,-756.6114 385,-775.6114 524,-775.6114 524,-756.6114 385,-756.6114"/>
<text text-anchor="middle" x="454.5" y="-763.6114" font-family="Helvetica,sans-Serif" font-size="10.00" fill="#000000">remove_shared_memory</text>
</a>
</g>
</g>
<!-- Node14&#45;&gt;Node16 -->
<g id="edge6" class="edge">
<title>Node14&#45;&gt;Node16</title>
<path fill="none" stroke="#191970" d="M349.3883,-766.1114C357.6565,-766.1114 366.2596,-766.1114 374.8254,-766.1114"/>
<polygon fill="#191970" stroke="#191970" points="374.8416,-769.6115 384.8415,-766.1114 374.8415,-762.6115 374.8416,-769.6115"/>
</g>
<!-- Node17 -->
<g id="node6" class="node">
<title>Node17</title>
<g id="a_node6"><a xlink:href="semaphore_8c.html#a530566146b6e3cc8415d8ae4259fd68f" target="_top" xlink:title="Cancella il set di semafori svegliando eventuali processi in attesa. ">
<polygon fill="none" stroke="#000000" points="419.5,-642.6114 419.5,-661.6114 489.5,-661.6114 489.5,-642.6114 419.5,-642.6114"/>
<text text-anchor="middle" x="454.5" y="-649.6114" font-family="Helvetica,sans-Serif" font-size="10.00" fill="#000000">semDelete</text>
</a>
</g>
</g>
<!-- Node14&#45;&gt;Node17 -->
<g id="edge8" class="edge">
<title>Node14&#45;&gt;Node17</title>
<path fill="none" stroke="#191970" d="M333.7709,-756.583C339.2893,-754.1166 344.5503,-751.014 349,-747.1114 377.0996,-722.4669 356.3568,-695.1219 385,-671.1114 391.965,-665.2729 400.5747,-661.2181 409.3345,-658.4047"/>
<polygon fill="#191970" stroke="#191970" points="410.4734,-661.7223 419.2087,-655.7269 408.6412,-654.9663 410.4734,-661.7223"/>
</g>
<!-- Node15&#45;&gt;Node13 -->
<g id="edge5" class="edge">
<title>Node15&#45;&gt;Node13</title>
<path fill="none" stroke="#191970" d="M511.4417,-794.487C516.1001,-792.0102 520.3938,-788.9319 524,-785.1114 560.6191,-746.3165 577.9673,-577.9574 582.9401,-519.8885"/>
<polygon fill="#191970" stroke="#191970" points="586.4369,-520.0704 583.7717,-509.8163 579.4606,-519.4944 586.4369,-520.0704"/>
</g>
<!-- Node16&#45;&gt;Node13 -->
<g id="edge7" class="edge">
<title>Node16&#45;&gt;Node13</title>
<path fill="none" stroke="#191970" d="M502.7634,-756.4948C510.709,-753.0671 518.2227,-748.4178 524,-742.1114 554.2564,-709.0838 575.1178,-571.4262 582.0123,-519.7909"/>
<polygon fill="#191970" stroke="#191970" points="585.5143,-520.0022 583.335,-509.6339 578.5729,-519.0982 585.5143,-520.0022"/>
</g>
<!-- Node17&#45;&gt;Node13 -->
<g id="edge9" class="edge">
<title>Node17&#45;&gt;Node13</title>
<path fill="none" stroke="#191970" d="M489.5244,-645.8358C501.5572,-642.2688 514.4002,-636.7177 524,-628.1114 556.814,-598.6933 573.3407,-547.695 580.2983,-519.7755"/>
<polygon fill="#191970" stroke="#191970" points="583.793,-520.1992 582.6468,-509.6666 576.9746,-518.6152 583.793,-520.1992"/>
</g>
<!-- Node19 -->
<g id="node8" class="node">
<title>Node19</title>
<g id="a_node8"><a xlink:href="defines_8c.html#abe68b7232c057100c2e21586906436d7" target="_top" xlink:title="get_project_ipc_key">
<polygon fill="none" stroke="#000000" points="233,-718.6114 233,-737.6114 347,-737.6114 347,-718.6114 233,-718.6114"/>
<text text-anchor="middle" x="290" y="-725.6114" font-family="Helvetica,sans-Serif" font-size="10.00" fill="#000000">get_project_ipc_key</text>
</a>
</g>
</g>
<!-- Node18&#45;&gt;Node19 -->
<g id="edge11" class="edge">
<title>Node18&#45;&gt;Node19</title>
<path fill="none" stroke="#191970" d="M173.6726,-728.1114C188.4209,-728.1114 205.8003,-728.1114 222.5653,-728.1114"/>
<polygon fill="#191970" stroke="#191970" points="222.8955,-731.6115 232.8954,-728.1114 222.8954,-724.6115 222.8955,-731.6115"/>
</g>
<!-- Node19&#45;&gt;Node13 -->
<g id="edge12" class="edge">
<title>Node19&#45;&gt;Node13</title>
<path fill="none" stroke="#191970" d="M331.5126,-737.6434C382.7411,-746.7961 469.7103,-753.4661 524,-709.1114 553.7897,-684.7731 574.4731,-566.8711 581.684,-519.6881"/>
<polygon fill="#191970" stroke="#191970" points="585.1471,-520.1946 583.1563,-509.7885 578.2232,-519.1648 585.1471,-520.1946"/>
</g>
<!-- Node20&#45;&gt;Node13 -->
<g id="edge14" class="edge">
<title>Node20&#45;&gt;Node13</title>
<path fill="none" stroke="#191970" d="M509.9093,-680.4758C515.0556,-678.0152 519.8768,-674.9433 524,-671.1114 567.9187,-630.2952 579.9747,-555.6057 583.2696,-520.0048"/>
<polygon fill="#191970" stroke="#191970" points="586.7685,-520.155 584.0608,-509.912 579.7899,-519.6079 586.7685,-520.155"/>
</g>
<!-- Node21&#45;&gt;Node13 -->
<g id="edge16" class="edge">
<title>Node21&#45;&gt;Node13</title>
<path fill="none" stroke="#191970" d="M312.6685,-585.7401C356.5493,-602.7818 454.8573,-633.0517 524,-595.1114 553.3015,-579.033 570.4459,-542.073 578.6047,-519.2845"/>
<polygon fill="#191970" stroke="#191970" points="581.97,-520.2567 581.8175,-509.6629 575.3303,-518.0395 581.97,-520.2567"/>
</g>
<!-- Node22&#45;&gt;Node19 -->
<g id="edge18" class="edge">
<title>Node22&#45;&gt;Node19</title>
<path fill="none" stroke="#191970" d="M174.8607,-699.7004C195.0911,-704.6923 220.0207,-710.8438 241.5036,-716.1447"/>
<polygon fill="#191970" stroke="#191970" points="240.8714,-719.5937 251.4187,-718.5913 242.5485,-712.7975 240.8714,-719.5937"/>
</g>
<!-- Node23&#45;&gt;Node13 -->
<g id="edge20" class="edge">
<title>Node23&#45;&gt;Node13</title>
<path fill="none" stroke="#191970" d="M490.6266,-566.502C501.7178,-562.8068 513.705,-558.023 524,-552.1114 540.5899,-542.5852 556.89,-528.2008 568.3836,-516.9738"/>
<polygon fill="#191970" stroke="#191970" points="570.945,-519.3618 575.5172,-509.8043 565.9828,-514.4245 570.945,-519.3618"/>
</g>
<!-- Node24&#45;&gt;Node13 -->
<g id="edge22" class="edge">
<title>Node24&#45;&gt;Node13</title>
<path fill="none" stroke="#191970" d="M323.3521,-342.0336C372.1763,-335.0685 463.8246,-329.538 524,-372.1114 560.3137,-397.803 575.5199,-451.1395 581.3138,-480.1946"/>
<polygon fill="#191970" stroke="#191970" points="577.9283,-481.1421 583.1509,-490.3603 584.8167,-479.8972 577.9283,-481.1421"/>
</g>
<!-- Node25&#45;&gt;Node13 -->
<g id="edge26" class="edge">
<title>Node25&#45;&gt;Node13</title>
<path fill="none" stroke="#191970" d="M324.0528,-508.6169C342.047,-512.6795 364.5799,-517.0894 385,-519.1114 446.4771,-525.1988 462.9359,-528.4745 524,-519.1114 532.6819,-517.7802 541.8283,-515.4334 550.3066,-512.8332"/>
<polygon fill="#191970" stroke="#191970" points="551.4622,-516.1379 559.8846,-509.7103 549.2922,-509.4827 551.4622,-516.1379"/>
</g>
<!-- Node26 -->
<g id="node15" class="node">
<title>Node26</title>
<g id="a_node15"><a xlink:href="fifo_8c.html#ab83de0eb3bc3947e3c031685d5c2474b" target="_top" xlink:title="Crea o ottiene una IPC FIFO usando mkfifo. ">
<polygon fill="none" stroke="#000000" points="422,-490.6114 422,-509.6114 487,-509.6114 487,-490.6114 422,-490.6114"/>
<text text-anchor="middle" x="454.5" y="-497.6114" font-family="Helvetica,sans-Serif" font-size="10.00" fill="#000000">make_fifo</text>
</a>
</g>
</g>
<!-- Node25&#45;&gt;Node26 -->
<g id="edge24" class="edge">
<title>Node25&#45;&gt;Node26</title>
<path fill="none" stroke="#191970" d="M324.0845,-500.1114C349.5358,-500.1114 384.4875,-500.1114 411.8016,-500.1114"/>
<polygon fill="#191970" stroke="#191970" points="411.8603,-503.6115 421.8603,-500.1114 411.8603,-496.6115 411.8603,-503.6115"/>
</g>
<!-- Node26&#45;&gt;Node13 -->
<g id="edge25" class="edge">
<title>Node26&#45;&gt;Node13</title>
<path fill="none" stroke="#191970" d="M487.3045,-500.1114C506.344,-500.1114 530.3139,-500.1114 549.6857,-500.1114"/>
<polygon fill="#191970" stroke="#191970" points="549.9143,-503.6115 559.9143,-500.1114 549.9143,-496.6115 549.9143,-503.6115"/>
</g>
<!-- Node27&#45;&gt;Node13 -->
<g id="edge28" class="edge">
<title>Node27&#45;&gt;Node13</title>
<path fill="none" stroke="#191970" d="M330.1169,-462.6556C377.0193,-463.9152 456.7922,-468.0007 524,-481.1114 532.6208,-482.7931 541.7443,-485.272 550.2199,-487.8878"/>
<polygon fill="#191970" stroke="#191970" points="549.2112,-491.2399 559.8028,-490.9819 551.362,-484.5786 549.2112,-491.2399"/>
</g>
<!-- Node28&#45;&gt;Node13 -->
<g id="edge30" class="edge">
<title>Node28&#45;&gt;Node13</title>
<path fill="none" stroke="#191970" d="M175.0641,-421.5362C246.5776,-418.1553 402.3658,-417.0153 524,-460.1114 539.1325,-465.473 554.1987,-475.416 565.511,-484.0469"/>
<polygon fill="#191970" stroke="#191970" points="563.3629,-486.8104 573.3688,-490.2936 567.719,-481.3309 563.3629,-486.8104"/>
</g>
<!-- Node29&#45;&gt;Node13 -->
<g id="edge32" class="edge">
<title>Node29&#45;&gt;Node13</title>
<path fill="none" stroke="#191970" d="M174.6192,-380.6695C247.753,-372.2853 409.387,-363.0785 524,-425.1114 547.4618,-437.8098 565.1698,-463.7905 575.1885,-481.5784"/>
<polygon fill="#191970" stroke="#191970" points="572.1478,-483.3146 579.951,-490.4813 578.3202,-480.0127 572.1478,-483.3146"/>
</g>
<!-- Node31 -->
<g id="node20" class="node">
<title>Node31</title>
<g id="a_node20"><a xlink:href="semaphore_8c.html#a77c6570406059144bb6a8ecf04f481da" target="_top" xlink:title="Funzione di supporto per manipolare i valori di un set di semafori. ">
<polygon fill="none" stroke="#000000" points="429,-167.6114 429,-186.6114 480,-186.6114 480,-167.6114 429,-167.6114"/>
<text text-anchor="middle" x="454.5" y="-174.6114" font-family="Helvetica,sans-Serif" font-size="10.00" fill="#000000">semOp</text>
</a>
</g>
</g>
<!-- Node30&#45;&gt;Node31 -->
<g id="edge34" class="edge">
<title>Node30&#45;&gt;Node31</title>
<path fill="none" stroke="#191970" d="M320.3837,-129.6769C329.5972,-132.6364 339.7315,-135.9508 349,-139.1114 372.4356,-147.1029 398.6256,-156.5334 419.0483,-164.0005"/>
<polygon fill="#191970" stroke="#191970" points="417.9797,-167.3365 428.5734,-167.4935 420.3898,-160.7644 417.9797,-167.3365"/>
</g>
<!-- Node31&#45;&gt;Node13 -->
<g id="edge35" class="edge">
<title>Node31&#45;&gt;Node13</title>
<path fill="none" stroke="#191970" d="M480.3355,-185.1069C495.2975,-191.0479 513.2444,-200.6597 524,-215.1114 555.7846,-257.8185 576.2035,-422.9839 582.4579,-480.3484"/>
<polygon fill="#191970" stroke="#191970" points="579.0096,-481.0207 583.548,-490.5942 585.9703,-480.28 579.0096,-481.0207"/>
</g>
<!-- Node32&#45;&gt;Node31 -->
<g id="edge37" class="edge">
<title>Node32&#45;&gt;Node31</title>
<path fill="none" stroke="#191970" d="M319.7897,-161.5521C347.5787,-164.7618 389.0797,-169.5552 418.6669,-172.9726"/>
<polygon fill="#191970" stroke="#191970" points="418.6453,-176.4933 428.9809,-174.1639 419.4485,-169.5395 418.6453,-176.4933"/>
</g>
<!-- Node33&#45;&gt;Node13 -->
<g id="edge44" class="edge">
<title>Node33&#45;&gt;Node13</title>
<path fill="none" stroke="#191970" d="M177.2661,-293.1275C271.6284,-298.0827 497.1192,-312.01 524,-333.1114 547.8345,-351.8215 570.7286,-440.2211 580.0801,-480.287"/>
<polygon fill="#191970" stroke="#191970" points="576.7074,-481.2394 582.3481,-490.2079 583.5314,-479.6794 576.7074,-481.2394"/>
</g>
<!-- Node33&#45;&gt;Node17 -->
<g id="edge46" class="edge">
<title>Node33&#45;&gt;Node17</title>
<path fill="none" stroke="#191970" d="M146.2638,-300.8337C159.8167,-314.3263 183.3255,-340.1303 195,-367.1114 235.7391,-461.2643 161.9133,-519.2729 231,-595.1114 254.6588,-621.0824 350.8829,-638.2297 409.0838,-646.4481"/>
<polygon fill="#191970" stroke="#191970" points="408.748,-649.9348 419.1321,-647.8319 409.7031,-643.0003 408.748,-649.9348"/>
</g>
<!-- Node33&#45;&gt;Node24 -->
<g id="edge45" class="edge">
<title>Node33&#45;&gt;Node24</title>
<path fill="none" stroke="#191970" d="M161.7761,-300.6519C187.2054,-310.0641 226.2759,-324.5252 254.6067,-335.0113"/>
<polygon fill="#191970" stroke="#191970" points="253.5466,-338.3509 264.1398,-338.5397 255.9765,-331.7861 253.5466,-338.3509"/>
</g>
<!-- Node33&#45;&gt;Node30 -->
<g id="edge41" class="edge">
<title>Node33&#45;&gt;Node30</title>
<path fill="none" stroke="#191970" d="M147.8096,-281.2075C160.8253,-269.7764 181.6781,-249.8698 195,-229.1114 218.2683,-192.8542 199.5049,-168.5062 231,-139.1114 235.3846,-135.0191 240.6566,-131.8082 246.2217,-129.2888"/>
<polygon fill="#191970" stroke="#191970" points="247.6525,-132.4894 255.7593,-125.6681 245.1681,-125.9451 247.6525,-132.4894"/>
</g>
<!-- Node33&#45;&gt;Node31 -->
<g id="edge39" class="edge">
<title>Node33&#45;&gt;Node31</title>
<path fill="none" stroke="#191970" d="M160.2383,-281.5997C170.9496,-277.307 183.66,-272.0908 195,-267.1114 211.2011,-259.9974 214.5578,-256.6489 231,-250.1114 296.2774,-224.1568 374.7926,-200.1082 419.2478,-187.1323"/>
<polygon fill="#191970" stroke="#191970" points="420.3645,-190.4527 428.994,-184.3059 418.4148,-183.7297 420.3645,-190.4527"/>
</g>
<!-- Node33&#45;&gt;Node32 -->
<g id="edge40" class="edge">
<title>Node33&#45;&gt;Node32</title>
<path fill="none" stroke="#191970" d="M172.3828,-281.4842C180.5759,-277.9947 188.7001,-273.3219 195,-267.1114 224.2165,-238.3094 201.7835,-210.9134 231,-182.1114 236.6478,-176.5437 243.7617,-172.212 251.077,-168.8607"/>
<polygon fill="#191970" stroke="#191970" points="252.3891,-172.1055 260.3556,-165.1208 249.7722,-165.6131 252.3891,-172.1055"/>
</g>
<!-- Node34 -->
<g id="node23" class="node">
<title>Node34</title>
<g id="a_node23"><a xlink:href="semaphore_8c.html#aad78dc4ccefb184a74dd9ef808df8db6" target="_top" xlink:title="Inizializza il valore del semaforo sem_num al valore val. ">
<polygon fill="none" stroke="#000000" points="420.5,-262.6114 420.5,-281.6114 488.5,-281.6114 488.5,-262.6114 420.5,-262.6114"/>
<text text-anchor="middle" x="454.5" y="-269.6114" font-family="Helvetica,sans-Serif" font-size="10.00" fill="#000000">semSetVal</text>
</a>
</g>
</g>
<!-- Node33&#45;&gt;Node34 -->
<g id="edge42" class="edge">
<title>Node33&#45;&gt;Node34</title>
<path fill="none" stroke="#191970" d="M177.3118,-288.6469C237.2971,-285.0685 348.0732,-278.4602 409.8704,-274.7738"/>
<polygon fill="#191970" stroke="#191970" points="410.3107,-278.2538 420.0845,-274.1644 409.8938,-271.2662 410.3107,-278.2538"/>
</g>
<!-- Node35 -->
<g id="node24" class="node">
<title>Node35</title>
<g id="a_node24"><a xlink:href="semaphore_8c.html#a34a010b0a39236a7261d7d5103426491" target="_top" xlink:title="Imposta i permessi su un set di semafori. ">
<polygon fill="none" stroke="#000000" points="415,-224.6114 415,-243.6114 494,-243.6114 494,-224.6114 415,-224.6114"/>
<text text-anchor="middle" x="454.5" y="-231.6114" font-family="Helvetica,sans-Serif" font-size="10.00" fill="#000000">semSetPerm</text>
</a>
</g>
</g>
<!-- Node33&#45;&gt;Node35 -->
<g id="edge47" class="edge">
<title>Node33&#45;&gt;Node35</title>
<path fill="none" stroke="#191970" d="M177.3118,-283.7181C235.6672,-273.2746 342.0908,-254.2286 404.7265,-243.019"/>
<polygon fill="#191970" stroke="#191970" points="405.5374,-246.4296 414.7644,-241.2226 404.3041,-239.5391 405.5374,-246.4296"/>
</g>
<!-- Node34&#45;&gt;Node13 -->
<g id="edge43" class="edge">
<title>Node34&#45;&gt;Node13</title>
<path fill="none" stroke="#191970" d="M488.8442,-277.2025C501.3773,-280.6489 514.7341,-286.4266 524,-296.1114 549.8339,-323.1131 572.6218,-434.8507 581.0427,-480.5247"/>
<polygon fill="#191970" stroke="#191970" points="577.6031,-481.1728 582.8264,-490.3906 584.4914,-479.9275 577.6031,-481.1728"/>
</g>
<!-- Node35&#45;&gt;Node13 -->
<g id="edge48" class="edge">
<title>Node35&#45;&gt;Node13</title>
<path fill="none" stroke="#191970" d="M494.0012,-237.4519C504.9817,-240.1976 516.059,-244.9559 524,-253.1114 555.9224,-285.896 575.8152,-427.5348 582.2297,-480.2481"/>
<polygon fill="#191970" stroke="#191970" points="578.7726,-480.8177 583.4234,-490.3372 585.7241,-479.9952 578.7726,-480.8177"/>
</g>
<!-- Node38&#45;&gt;Node13 -->
<g id="edge52" class="edge">
<title>Node38&#45;&gt;Node13</title>
<path fill="none" stroke="#191970" d="M178.1291,-167.585C184.1438,-165.1079 189.9824,-162.0017 195,-158.1114 218.6794,-139.7521 204.759,-115.5746 231,-101.1114 347.1845,-37.0741 436.973,-57.9819 524,-158.1114 566.5382,-207.054 580.304,-415.1738 583.6176,-480.4473"/>
<polygon fill="#191970" stroke="#191970" points="580.1291,-480.774 584.1054,-490.5944 587.1211,-480.4378 580.1291,-480.774"/>
</g>
<!-- Node39 -->
<g id="node28" class="node">
<title>Node39</title>
<g id="a_node28"><a xlink:href="server_8c.html#aefaefec035e6211d28b35a6d2ce3b3fa" target="_top" xlink:title="costruisciStringa">
<polygon fill="none" stroke="#000000" points="241,-34.6114 241,-53.6114 339,-53.6114 339,-34.6114 241,-34.6114"/>
<text text-anchor="middle" x="290" y="-41.6114" font-family="Helvetica,sans-Serif" font-size="10.00" fill="#000000">costruisciStringa</text>
</a>
</g>
</g>
<!-- Node38&#45;&gt;Node39 -->
<g id="edge53" class="edge">
<title>Node38&#45;&gt;Node39</title>
<path fill="none" stroke="#191970" d="M180.5952,-167.5582C185.8585,-165.0974 190.8305,-162.0029 195,-158.1114 226.4951,-128.7166 200.6258,-98.6632 231,-68.1114 234.8982,-64.1904 239.5244,-60.8855 244.4454,-58.1056"/>
<polygon fill="#191970" stroke="#191970" points="246.0922,-61.1962 253.5281,-53.6492 243.0088,-54.9119 246.0922,-61.1962"/>
</g>
<!-- Node41 -->
<g id="node30" class="node">
<title>Node41</title>
<g id="a_node30"><a xlink:href="semaphore_8c.html#a78e24598fb0a5416db19120d6748627e" target="_top" xlink:title="semOpNoBlocc">
<polygon fill="none" stroke="#000000" points="409,-15.6114 409,-34.6114 500,-34.6114 500,-15.6114 409,-15.6114"/>
<text text-anchor="middle" x="454.5" y="-22.6114" font-family="Helvetica,sans-Serif" font-size="10.00" fill="#000000">semOpNoBlocc</text>
</a>
</g>
</g>
<!-- Node40&#45;&gt;Node41 -->
<g id="edge55" class="edge">
<title>Node40&#45;&gt;Node41</title>
<path fill="none" stroke="#191970" d="M180.9596,-129.4891C186.1018,-127.0397 190.9442,-123.9667 195,-120.1114 227.7261,-89.0032 193.8439,-50.7656 231,-25.1114 285.9998,12.863 368.1697,-.2643 416.0478,-12.9181"/>
<polygon fill="#191970" stroke="#191970" points="415.1508,-16.3013 425.7219,-15.5925 417.016,-9.5544 415.1508,-16.3013"/>
</g>
<!-- Node41&#45;&gt;Node13 -->
<g id="edge56" class="edge">
<title>Node41&#45;&gt;Node13</title>
<path fill="none" stroke="#191970" d="M480.7657,-34.7203C495.8849,-41.648 513.8459,-52.543 524,-68.1114 569.3533,-137.6475 581.3978,-404.9358 583.9214,-480.2536"/>
<polygon fill="#191970" stroke="#191970" points="580.4241,-480.3979 584.238,-490.2824 587.4207,-480.1769 580.4241,-480.3979"/>
</g>
</g>
</svg>
