<?xml version="1.0" encoding="UTF-8" standalone="no"?>
<!DOCTYPE svg PUBLIC "-//W3C//DTD SVG 1.1//EN"
 "http://www.w3.org/Graphics/SVG/1.1/DTD/svg11.dtd">
<!-- Generated by graphviz version 2.40.1 (20161225.0304)
 -->
<!-- Title: /mnt/c/Users/stefa/Desktop/system_call/src/server.c Pages: 1 -->
<!--zoomable 162 -->
<svg id="main" version="1.1" xmlns="http://www.w3.org/2000/svg" xmlns:xlink="http://www.w3.org/1999/xlink" xml:space="preserve" onload="init(evt)">
<style type="text/css"><![CDATA[
.edge:hover path { stroke: red; }
.edge:hover polygon { stroke: red; fill: red; }
]]></style>
<script type="text/javascript"><![CDATA[
var edges = document.getElementsByTagName('g');
if (edges && edges.length) {
  for (var i=0;i<edges.length;i++) {
    if (edges[i].id.substr(0,4)=='edge') {
      edges[i].setAttribute('class','edge');
    }
  }
}
]]></script>
        <defs>
                <circle id="rim" cx="0" cy="0" r="7"/>
                <circle id="rim2" cx="0" cy="0" r="3.5"/>
                <g id="zoomPlus">
                        <use xlink:href="#rim" fill="#404040">
                                <set attributeName="fill" to="#808080" begin="zoomplus.mouseover" end="zoomplus.mouseout"/>
                        </use>
                        <path d="M-4,0h8M0,-4v8" fill="none" stroke="white" stroke-width="1.5" pointer-events="none"/>
                </g>
                <g id="zoomMin">
                        <use xlink:href="#rim" fill="#404040">
                                <set attributeName="fill" to="#808080" begin="zoomminus.mouseover" end="zoomminus.mouseout"/>
                        </use>
                        <path d="M-4,0h8" fill="none" stroke="white" stroke-width="1.5" pointer-events="none"/>
                </g>
                <g id="dirArrow">
                        <path fill="none" stroke="white" stroke-width="1.5" d="M0,-3.0v7 M-2.5,-0.5L0,-3.0L2.5,-0.5"/>
                </g>
               <g id="resetDef">
                       <use xlink:href="#rim2" fill="#404040">
                               <set attributeName="fill" to="#808080" begin="reset.mouseover" end="reset.mouseout"/>
                       </use>
               </g>
        </defs>

<script type="text/javascript">
var viewWidth = 1363;
var viewHeight = 162;
var sectionId = 'dynsection-0';
</script>
<script xlink:href="svgpan.js"/>
<svg id="graph" class="graph">
<g id="viewport">
<title>/mnt/c/Users/stefa/Desktop/system_call/src/server.c</title>
<!-- Node0 -->
<g id="node1" class="node">
<title>Node0</title>
<polygon fill="#bfbfbf" stroke="#000000" points="595.5,-112.5 595.5,-153.5 717.5,-153.5 717.5,-112.5 595.5,-112.5"/>
<text text-anchor="start" x="603.5" y="-141.5" font-family="Helvetica,sans-Serif" font-size="10.00" fill="#000000">/mnt/c/Users/stefa</text>
<text text-anchor="start" x="603.5" y="-130.5" font-family="Helvetica,sans-Serif" font-size="10.00" fill="#000000">/Desktop/system_call</text>
<text text-anchor="middle" x="656.5" y="-119.5" font-family="Helvetica,sans-Serif" font-size="10.00" fill="#000000">/src/server.c</text>
</g>
<!-- Node1 -->
<g id="node2" class="node">
<title>Node1</title>
<polygon fill="none" stroke="#bfbfbf" points="0,-56.5 0,-75.5 55,-75.5 55,-56.5 0,-56.5"/>
<text text-anchor="middle" x="27.5" y="-63.5" font-family="Helvetica,sans-Serif" font-size="10.00" fill="#000000">signal.h</text>
</g>
<!-- Node0&#45;&gt;Node1 -->
<g id="edge1" class="edge">
<title>Node0&#45;&gt;Node1</title>
<path fill="none" stroke="#191970" d="M595.297,-129.824C488.1514,-123.649 259.8734,-107.753 69.5,-76 68.2108,-75.785 66.9023,-75.5528 65.5832,-75.3069"/>
<polygon fill="#191970" stroke="#191970" points="65.9064,-71.8 55.4055,-73.2073 64.492,-78.6556 65.9064,-71.8"/>
</g>
<!-- Node2 -->
<g id="node3" class="node">
<title>Node2</title>
<polygon fill="none" stroke="#bfbfbf" points="136.5,-.5 136.5,-19.5 186.5,-19.5 186.5,-.5 136.5,-.5"/>
<text text-anchor="middle" x="161.5" y="-7.5" font-family="Helvetica,sans-Serif" font-size="10.00" fill="#000000">stdio.h</text>
</g>
<!-- Node0&#45;&gt;Node2 -->
<g id="edge2" class="edge">
<title>Node0&#45;&gt;Node2</title>
<path fill="none" stroke="#191970" d="M595.2807,-131.2323C458.0108,-126.6379 135.0499,-112.0707 102.5,-76 86.663,-58.45 111.154,-38.164 133.2304,-24.7649"/>
<polygon fill="#191970" stroke="#191970" points="135.1935,-27.6731 142.106,-19.6439 131.6952,-21.6099 135.1935,-27.6731"/>
</g>
<!-- Node3 -->
<g id="node4" class="node">
<title>Node3</title>
<polygon fill="none" stroke="#bfbfbf" points="112,-56.5 112,-75.5 165,-75.5 165,-56.5 112,-56.5"/>
<text text-anchor="middle" x="138.5" y="-63.5" font-family="Helvetica,sans-Serif" font-size="10.00" fill="#000000">string.h</text>
</g>
<!-- Node0&#45;&gt;Node3 -->
<g id="edge3" class="edge">
<title>Node0&#45;&gt;Node3</title>
<path fill="none" stroke="#191970" d="M595.1621,-128.7733C505.1092,-121.902 331.7971,-106.1483 175.4033,-75.8998"/>
<polygon fill="#191970" stroke="#191970" points="175.6138,-72.3746 165.1274,-73.8864 174.2678,-79.244 175.6138,-72.3746"/>
</g>
<!-- Node4 -->
<g id="node5" class="node">
<title>Node4</title>
<polygon fill="none" stroke="#bfbfbf" points="234,-.5 234,-19.5 287,-19.5 287,-.5 234,-.5"/>
<text text-anchor="middle" x="260.5" y="-7.5" font-family="Helvetica,sans-Serif" font-size="10.00" fill="#000000">stdlib.h</text>
</g>
<!-- Node0&#45;&gt;Node4 -->
<g id="edge4" class="edge">
<title>Node0&#45;&gt;Node4</title>
<path fill="none" stroke="#191970" d="M657.1132,-112.3966C656.4369,-94.7062 652.3981,-69.9213 636.5,-56 611.2423,-33.8828 387.0481,-17.7818 297.3523,-12.1714"/>
<polygon fill="#191970" stroke="#191970" points="297.2994,-8.6616 287.103,-11.5395 296.8686,-15.6483 297.2994,-8.6616"/>
</g>
<!-- Node5 -->
<g id="node6" class="node">
<title>Node5</title>
<polygon fill="none" stroke="#bfbfbf" points="257.5,-56.5 257.5,-75.5 313.5,-75.5 313.5,-56.5 257.5,-56.5"/>
<text text-anchor="middle" x="285.5" y="-63.5" font-family="Helvetica,sans-Serif" font-size="10.00" fill="#000000">unistd.h</text>
</g>
<!-- Node0&#45;&gt;Node5 -->
<g id="edge5" class="edge">
<title>Node0&#45;&gt;Node5</title>
<path fill="none" stroke="#191970" d="M595.2155,-124.3264C530.1359,-114.7147 424.1137,-97.9133 323.7223,-76.1155"/>
<polygon fill="#191970" stroke="#191970" points="324.2313,-72.644 313.7137,-73.9214 322.7322,-79.4817 324.2313,-72.644"/>
</g>
<!-- Node6 -->
<g id="node7" class="node">
<title>Node6</title>
<polygon fill="none" stroke="#bfbfbf" points="331.5,-56.5 331.5,-75.5 395.5,-75.5 395.5,-56.5 331.5,-56.5"/>
<text text-anchor="middle" x="363.5" y="-63.5" font-family="Helvetica,sans-Serif" font-size="10.00" fill="#000000">sys/stat.h</text>
</g>
<!-- Node0&#45;&gt;Node6 -->
<g id="edge6" class="edge">
<title>Node0&#45;&gt;Node6</title>
<path fill="none" stroke="#191970" d="M595.3279,-119.4648C546.5492,-108.6028 476.2245,-92.7898 405.6714,-76.25"/>
<polygon fill="#191970" stroke="#191970" points="406.2521,-72.7912 395.7167,-73.9118 404.6514,-79.6058 406.2521,-72.7912"/>
</g>
<!-- Node7 -->
<g id="node8" class="node">
<title>Node7</title>
<polygon fill="none" stroke="#bfbfbf" points="413.5,-56.5 413.5,-75.5 475.5,-75.5 475.5,-56.5 413.5,-56.5"/>
<text text-anchor="middle" x="444.5" y="-63.5" font-family="Helvetica,sans-Serif" font-size="10.00" fill="#000000">stdbool.h</text>
</g>
<!-- Node0&#45;&gt;Node7 -->
<g id="edge7" class="edge">
<title>Node0&#45;&gt;Node7</title>
<path fill="none" stroke="#191970" d="M595.4652,-113.7107C559.7032,-102.4086 515.5591,-88.4573 484.266,-78.5675"/>
<polygon fill="#191970" stroke="#191970" points="485.1742,-75.184 474.5843,-75.5078 483.0647,-81.8586 485.1742,-75.184"/>
</g>
<!-- Node8 -->
<g id="node9" class="node">
<title>Node8</title>
<polygon fill="none" stroke="#bfbfbf" points="494,-56.5 494,-75.5 559,-75.5 559,-56.5 494,-56.5"/>
<text text-anchor="middle" x="526.5" y="-63.5" font-family="Helvetica,sans-Serif" font-size="10.00" fill="#000000">inttypes.h</text>
</g>
<!-- Node0&#45;&gt;Node8 -->
<g id="edge8" class="edge">
<title>Node0&#45;&gt;Node8</title>
<path fill="none" stroke="#191970" d="M616.435,-112.3511C596.2325,-101.9391 572.2422,-89.5748 554.1222,-80.2361"/>
<polygon fill="#191970" stroke="#191970" points="555.7252,-77.1248 545.2329,-75.6546 552.5184,-83.347 555.7252,-77.1248"/>
</g>
<!-- Node9 -->
<g id="node10" class="node">
<title>Node9</title>
<polygon fill="none" stroke="#bfbfbf" points="577,-56.5 577,-75.5 628,-75.5 628,-56.5 577,-56.5"/>
<text text-anchor="middle" x="602.5" y="-63.5" font-family="Helvetica,sans-Serif" font-size="10.00" fill="#000000">errno.h</text>
</g>
<!-- Node0&#45;&gt;Node9 -->
<g id="edge9" class="edge">
<title>Node0&#45;&gt;Node9</title>
<path fill="none" stroke="#191970" d="M639.7101,-112.168C632.3724,-103.0639 623.8549,-92.4959 616.822,-83.7699"/>
<polygon fill="#191970" stroke="#191970" points="619.3831,-81.3701 610.3828,-75.7805 613.933,-85.7628 619.3831,-81.3701"/>
</g>
<!-- Node10 -->
<g id="node11" class="node">
<title>Node10</title>
<polygon fill="none" stroke="#bfbfbf" points="1288.5,-.5 1288.5,-19.5 1354.5,-19.5 1354.5,-.5 1288.5,-.5"/>
<text text-anchor="middle" x="1321.5" y="-7.5" font-family="Helvetica,sans-Serif" font-size="10.00" fill="#000000">sys/msg.h</text>
</g>
<!-- Node0&#45;&gt;Node10 -->
<g id="edge10" class="edge">
<title>Node0&#45;&gt;Node10</title>
<path fill="none" stroke="#191970" d="M717.7623,-132.5431C878.266,-130.7124 1301.5552,-121.5691 1343.5,-76 1355.6931,-62.7534 1346.2277,-42.5562 1336.1923,-27.9939"/>
<polygon fill="#191970" stroke="#191970" points="1338.842,-25.6923 1330.0586,-19.7675 1333.2302,-29.8765 1338.842,-25.6923"/>
</g>
<!-- Node11 -->
<g id="node12" class="node">
<title>Node11</title>
<polygon fill="none" stroke="#bfbfbf" points="885.5,-.5 885.5,-19.5 957.5,-19.5 957.5,-.5 885.5,-.5"/>
<text text-anchor="middle" x="921.5" y="-7.5" font-family="Helvetica,sans-Serif" font-size="10.00" fill="#000000">sys/types.h</text>
</g>
<!-- Node0&#45;&gt;Node11 -->
<g id="edge11" class="edge">
<title>Node0&#45;&gt;Node11</title>
<path fill="none" stroke="#191970" d="M666.3896,-112.363C675.9624,-94.6504 692.1531,-69.8521 713.5,-56 739.7494,-38.9667 822.1791,-24.3527 875.0482,-16.4022"/>
<polygon fill="#191970" stroke="#191970" points="875.8213,-19.826 885.2024,-14.9022 874.7983,-12.9012 875.8213,-19.826"/>
</g>
<!-- Node12 -->
<g id="node13" class="node">
<title>Node12</title>
<polygon fill="none" stroke="#bfbfbf" points="723,-56.5 723,-75.5 770,-75.5 770,-56.5 723,-56.5"/>
<text text-anchor="middle" x="746.5" y="-63.5" font-family="Helvetica,sans-Serif" font-size="10.00" fill="#000000">fcntl.h</text>
</g>
<!-- Node0&#45;&gt;Node12 -->
<g id="edge12" class="edge">
<title>Node0&#45;&gt;Node12</title>
<path fill="none" stroke="#191970" d="M684.4832,-112.168C697.6044,-102.4001 712.9892,-90.9469 725.1528,-81.8918"/>
<polygon fill="#191970" stroke="#191970" points="727.4307,-84.5594 733.3621,-75.7805 723.2507,-78.9445 727.4307,-84.5594"/>
</g>
<!-- Node13 -->
<g id="node14" class="node">
<title>Node13</title>
<g id="a_node14"><a xlink:href="err__exit_8h.html" target="_top" xlink:title="Contiene la definizione della funzione di stampa degli errori. ">
<polygon fill="none" stroke="#000000" points="788,-56.5 788,-75.5 851,-75.5 851,-56.5 788,-56.5"/>
<text text-anchor="middle" x="819.5" y="-63.5" font-family="Helvetica,sans-Serif" font-size="10.00" fill="#000000">err_exit.h</text>
</a>
</g>
</g>
<!-- Node0&#45;&gt;Node13 -->
<g id="edge13" class="edge">
<title>Node0&#45;&gt;Node13</title>
<path fill="none" stroke="#191970" d="M706.7354,-112.3511C732.7633,-101.6525 763.8057,-88.8928 786.7249,-79.472"/>
<polygon fill="#191970" stroke="#191970" points="788.0934,-82.6937 796.0119,-75.6546 785.4321,-76.2193 788.0934,-82.6937"/>
</g>
<!-- Node14 -->
<g id="node15" class="node">
<title>Node14</title>
<g id="a_node15"><a xlink:href="defines_8h.html" target="_top" xlink:title="Contiene la definizioni di variabili e funzioni specifiche del progetto. ">
<polygon fill="none" stroke="#000000" points="992,-56.5 992,-75.5 1053,-75.5 1053,-56.5 992,-56.5"/>
<text text-anchor="middle" x="1022.5" y="-63.5" font-family="Helvetica,sans-Serif" font-size="10.00" fill="#000000">defines.h</text>
</a>
</g>
</g>
<!-- Node0&#45;&gt;Node14 -->
<g id="edge14" class="edge">
<title>Node0&#45;&gt;Node14</title>
<path fill="none" stroke="#191970" d="M717.7367,-123.6404C781.3265,-113.6173 883.8725,-96.6053 982.1731,-75.9464"/>
<polygon fill="#191970" stroke="#191970" points="982.9194,-79.3661 991.9776,-73.8706 981.4694,-72.5179 982.9194,-79.3661"/>
</g>
<!-- Node16 -->
<g id="node17" class="node">
<title>Node16</title>
<g id="a_node17"><a xlink:href="shared__memory_8h.html" target="_top" xlink:title="Contiene la definizioni di variabili e funzioni specifiche per la gestione della MEMORIA CONDIVISA...">
<polygon fill="none" stroke="#000000" points="869.5,-56.5 869.5,-75.5 973.5,-75.5 973.5,-56.5 869.5,-56.5"/>
<text text-anchor="middle" x="921.5" y="-63.5" font-family="Helvetica,sans-Serif" font-size="10.00" fill="#000000">shared_memory.h</text>
</a>
</g>
</g>
<!-- Node0&#45;&gt;Node16 -->
<g id="edge17" class="edge">
<title>Node0&#45;&gt;Node16</title>
<path fill="none" stroke="#191970" d="M717.6291,-117.5447C765.1345,-105.5339 830.0865,-89.1121 873.8003,-78.0599"/>
<polygon fill="#191970" stroke="#191970" points="874.7736,-81.424 883.6106,-75.5796 873.0578,-74.6376 874.7736,-81.424"/>
</g>
<!-- Node17 -->
<g id="node18" class="node">
<title>Node17</title>
<g id="a_node18"><a xlink:href="semaphore_8h.html" target="_top" xlink:title="Contiene la definizioni di variabili e funzioni specifiche per la gestione dei SEMAFORI. ">
<polygon fill="none" stroke="#000000" points="1071.5,-56.5 1071.5,-75.5 1151.5,-75.5 1151.5,-56.5 1071.5,-56.5"/>
<text text-anchor="middle" x="1111.5" y="-63.5" font-family="Helvetica,sans-Serif" font-size="10.00" fill="#000000">semaphore.h</text>
</a>
</g>
</g>
<!-- Node0&#45;&gt;Node17 -->
<g id="edge19" class="edge">
<title>Node0&#45;&gt;Node17</title>
<path fill="none" stroke="#191970" d="M717.5559,-125.6236C795.1384,-115.984 933.3765,-97.9186 1061.4397,-76.1011"/>
<polygon fill="#191970" stroke="#191970" points="1062.1622,-79.5284 1071.4267,-74.3883 1060.979,-72.6291 1062.1622,-79.5284"/>
</g>
<!-- Node18 -->
<g id="node19" class="node">
<title>Node18</title>
<g id="a_node19"><a xlink:href="fifo_8h.html" target="_top" xlink:title="Contiene la definizioni di variabili e funzioni specifiche per la gestione delle FIFO. ">
<polygon fill="none" stroke="#000000" points="1170,-56.5 1170,-75.5 1211,-75.5 1211,-56.5 1170,-56.5"/>
<text text-anchor="middle" x="1190.5" y="-63.5" font-family="Helvetica,sans-Serif" font-size="10.00" fill="#000000">fifo.h</text>
</a>
</g>
</g>
<!-- Node0&#45;&gt;Node18 -->
<g id="edge20" class="edge">
<title>Node0&#45;&gt;Node18</title>
<path fill="none" stroke="#191970" d="M717.6874,-130.2092C811.345,-125.0336 995.7567,-111.2753 1159.8919,-75.7121"/>
<polygon fill="#191970" stroke="#191970" points="1160.6608,-79.1268 1169.6758,-73.5608 1159.1574,-72.2901 1160.6608,-79.1268"/>
</g>
<!-- Node19 -->
<g id="node20" class="node">
<title>Node19</title>
<g id="a_node20"><a xlink:href="debug_8h.html" target="_top" xlink:title="Contiene la definizioni di variabili e funzioni per il debugging. ">
<polygon fill="none" stroke="#000000" points="183.5,-56.5 183.5,-75.5 239.5,-75.5 239.5,-56.5 183.5,-56.5"/>
<text text-anchor="middle" x="211.5" y="-63.5" font-family="Helvetica,sans-Serif" font-size="10.00" fill="#000000">debug.h</text>
</a>
</g>
</g>
<!-- Node0&#45;&gt;Node19 -->
<g id="edge21" class="edge">
<title>Node0&#45;&gt;Node19</title>
<path fill="none" stroke="#191970" d="M595.2653,-126.8639C517.134,-118.4975 377.7367,-101.77 249.679,-76.0398"/>
<polygon fill="#191970" stroke="#191970" points="250.1916,-72.5725 239.6948,-74.0104 248.7973,-79.4322 250.1916,-72.5725"/>
</g>
<!-- Node20 -->
<g id="node21" class="node">
<title>Node20</title>
<g id="a_node21"><a xlink:href="message__queue_8h.html" target="_top" xlink:title="Contiene la definizioni di variabili e funzioni specifiche per la gestione delle CODE DEI MESSAGGI...">
<polygon fill="none" stroke="#000000" points="1229,-56.5 1229,-75.5 1334,-75.5 1334,-56.5 1229,-56.5"/>
<text text-anchor="middle" x="1281.5" y="-63.5" font-family="Helvetica,sans-Serif" font-size="10.00" fill="#000000">message_queue.h</text>
</a>
</g>
</g>
<!-- Node0&#45;&gt;Node20 -->
<g id="edge24" class="edge">
<title>Node0&#45;&gt;Node20</title>
<path fill="none" stroke="#191970" d="M717.5695,-128.0729C819.387,-119.5848 1030.4661,-100.825 1218.8677,-76.1547"/>
<polygon fill="#191970" stroke="#191970" points="1219.5012,-79.6016 1228.9581,-74.8248 1218.5865,-72.6616 1219.5012,-79.6016"/>
</g>
<!-- Node14&#45;&gt;Node11 -->
<g id="edge15" class="edge">
<title>Node14&#45;&gt;Node11</title>
<path fill="none" stroke="#191970" d="M1004.9071,-56.2455C989.121,-47.4928 965.7361,-34.527 947.7413,-24.5496"/>
<polygon fill="#191970" stroke="#191970" points="949.3341,-21.4308 938.8913,-19.6427 945.9397,-27.5528 949.3341,-21.4308"/>
</g>
<!-- Node15 -->
<g id="node16" class="node">
<title>Node15</title>
<polygon fill="none" stroke="#bfbfbf" points="993,-.5 993,-19.5 1052,-19.5 1052,-.5 993,-.5"/>
<text text-anchor="middle" x="1022.5" y="-7.5" font-family="Helvetica,sans-Serif" font-size="10.00" fill="#000000">sys/ipc.h</text>
</g>
<!-- Node14&#45;&gt;Node15 -->
<g id="edge16" class="edge">
<title>Node14&#45;&gt;Node15</title>
<path fill="none" stroke="#191970" d="M1022.5,-56.2455C1022.5,-48.9382 1022.5,-38.6944 1022.5,-29.7046"/>
<polygon fill="#191970" stroke="#191970" points="1026.0001,-29.6426 1022.5,-19.6427 1019.0001,-29.6427 1026.0001,-29.6426"/>
</g>
<!-- Node16&#45;&gt;Node11 -->
<g id="edge18" class="edge">
<title>Node16&#45;&gt;Node11</title>
<path fill="none" stroke="#191970" d="M921.5,-56.2455C921.5,-48.9382 921.5,-38.6944 921.5,-29.7046"/>
<polygon fill="#191970" stroke="#191970" points="925.0001,-29.6426 921.5,-19.6427 918.0001,-29.6427 925.0001,-29.6426"/>
</g>
<!-- Node19&#45;&gt;Node2 -->
<g id="edge22" class="edge">
<title>Node19&#45;&gt;Node2</title>
<path fill="none" stroke="#191970" d="M202.7907,-56.2455C195.6927,-48.2958 185.4916,-36.8706 177.005,-27.3656"/>
<polygon fill="#191970" stroke="#191970" points="179.3805,-24.771 170.1095,-19.6427 174.1589,-29.4331 179.3805,-24.771"/>
</g>
<!-- Node19&#45;&gt;Node4 -->
<g id="edge23" class="edge">
<title>Node19&#45;&gt;Node4</title>
<path fill="none" stroke="#191970" d="M220.0351,-56.2455C226.9912,-48.2958 236.9883,-36.8706 245.3051,-27.3656"/>
<polygon fill="#191970" stroke="#191970" points="248.1116,-29.4732 252.0627,-19.6427 242.8436,-24.8637 248.1116,-29.4732"/>
</g>
<!-- Node20&#45;&gt;Node10 -->
<g id="edge25" class="edge">
<title>Node20&#45;&gt;Node10</title>
<path fill="none" stroke="#191970" d="M1288.4675,-56.2455C1294.0311,-48.4564 1301.978,-37.3308 1308.6829,-27.9439"/>
<polygon fill="#191970" stroke="#191970" points="1311.648,-29.8144 1314.6124,-19.6427 1305.9519,-25.7457 1311.648,-29.8144"/>
</g>
</g>
</svg>
        <g id="navigator" transform="translate(0 0)" fill="#404254">
                <rect fill="#f2f5e9" fill-opacity="0.5" stroke="#606060" stroke-width=".5" x="0" y="0" width="60" height="60"/>
                <use id="zoomplus" xlink:href="#zoomPlus" x="17" y="9" onmousedown="handleZoom(evt,'in')"/>
                <use id="zoomminus" xlink:href="#zoomMin" x="42" y="9" onmousedown="handleZoom(evt,'out')"/>
                <use id="reset" xlink:href="#resetDef" x="30" y="36" onmousedown="handleReset()"/>
                <g id="arrowUp" xlink:href="#dirArrow" transform="translate(30 24)" onmousedown="handlePan(0,-1)">
                  <use xlink:href="#rim" fill="#404040">
                        <set attributeName="fill" to="#808080" begin="arrowUp.mouseover" end="arrowUp.mouseout"/>
                  </use>
                  <path fill="none" stroke="white" stroke-width="1.5" d="M0,-3.0v7 M-2.5,-0.5L0,-3.0L2.5,-0.5"/>
                </g>
                <g id="arrowRight" xlink:href="#dirArrow" transform="rotate(90) translate(36 -43)" onmousedown="handlePan(1,0)">
                  <use xlink:href="#rim" fill="#404040">
                        <set attributeName="fill" to="#808080" begin="arrowRight.mouseover" end="arrowRight.mouseout"/>
                  </use>
                  <path fill="none" stroke="white" stroke-width="1.5" d="M0,-3.0v7 M-2.5,-0.5L0,-3.0L2.5,-0.5"/>
                </g>
                <g id="arrowDown" xlink:href="#dirArrow" transform="rotate(180) translate(-30 -48)" onmousedown="handlePan(0,1)">
                  <use xlink:href="#rim" fill="#404040">
                        <set attributeName="fill" to="#808080" begin="arrowDown.mouseover" end="arrowDown.mouseout"/>
                  </use>
                  <path fill="none" stroke="white" stroke-width="1.5" d="M0,-3.0v7 M-2.5,-0.5L0,-3.0L2.5,-0.5"/>
                </g>
                <g id="arrowLeft" xlink:href="#dirArrow" transform="rotate(270) translate(-36 17)" onmousedown="handlePan(-1,0)">
                  <use xlink:href="#rim" fill="#404040">
                        <set attributeName="fill" to="#808080" begin="arrowLeft.mouseover" end="arrowLeft.mouseout"/>
                  </use>
                  <path fill="none" stroke="white" stroke-width="1.5" d="M0,-3.0v7 M-2.5,-0.5L0,-3.0L2.5,-0.5"/>
                </g>
        </g>
        <svg viewBox="0 0 15 15" width="100%" height="30px" preserveAspectRatio="xMaxYMin meet">
         <g id="arrow_out" transform="scale(0.3 0.3)">
          <a xlink:href="server_8c__incl_org.svg" target="_base">
           <rect id="button" ry="5" rx="5" y="6" x="6" height="38" width="38"
                fill="#f2f5e9" fill-opacity="0.5" stroke="#606060" stroke-width="1.0"/>
           <path id="arrow"
             d="M 11.500037,31.436501 C 11.940474,20.09759 22.043105,11.32322 32.158766,21.979434 L 37.068811,17.246167 C 37.068811,17.246167 37.088388,32 37.088388,32 L 22.160133,31.978069 C 22.160133,31.978069 26.997745,27.140456 26.997745,27.140456 C 18.528582,18.264221 13.291696,25.230495 11.500037,31.436501 z"
             style="fill:#404040;"/>
          </a>
         </g>
        </svg>
</svg>
