<?xml version="1.0" encoding="UTF-8" standalone="no"?>
<!DOCTYPE svg PUBLIC "-//W3C//DTD SVG 1.1//EN"
 "http://www.w3.org/Graphics/SVG/1.1/DTD/svg11.dtd">
<!-- Generated by graphviz version 2.40.1 (20161225.0304)
 -->
<!-- Title: /mnt/c/Users/stefa/Desktop/new/system_call/src/shared_memory.c Pages: 1 -->
<svg width="509pt" height="162pt"
 viewBox="0.00 0.00 508.50 162.00" xmlns="http://www.w3.org/2000/svg" xmlns:xlink="http://www.w3.org/1999/xlink">
<g id="graph0" class="graph" transform="scale(1 1) rotate(0) translate(4 158)">
<title>/mnt/c/Users/stefa/Desktop/new/system_call/src/shared_memory.c</title>
<!-- Node0 -->
<g id="node1" class="node">
<title>Node0</title>
<polygon fill="#bfbfbf" stroke="#000000" points="154.5,-112.5 154.5,-153.5 300.5,-153.5 300.5,-112.5 154.5,-112.5"/>
<text text-anchor="start" x="162.5" y="-141.5" font-family="Helvetica,sans-Serif" font-size="10.00" fill="#000000">/mnt/c/Users/stefa</text>
<text text-anchor="start" x="162.5" y="-130.5" font-family="Helvetica,sans-Serif" font-size="10.00" fill="#000000">/Desktop/new/system</text>
<text text-anchor="middle" x="227.5" y="-119.5" font-family="Helvetica,sans-Serif" font-size="10.00" fill="#000000">_call/src/shared_memory.c</text>
</g>
<!-- Node1 -->
<g id="node2" class="node">
<title>Node1</title>
<polygon fill="none" stroke="#bfbfbf" points="0,-56.5 0,-75.5 53,-75.5 53,-56.5 0,-56.5"/>
<text text-anchor="middle" x="26.5" y="-63.5" font-family="Helvetica,sans-Serif" font-size="10.00" fill="#000000">stdlib.h</text>
</g>
<!-- Node0&#45;&gt;Node1 -->
<g id="edge1" class="edge">
<title>Node0&#45;&gt;Node1</title>
<path fill="none" stroke="#191970" d="M165.8274,-112.4425C132.0715,-101.1905 91.4098,-87.6366 62.7509,-78.0836"/>
<polygon fill="#191970" stroke="#191970" points="63.7391,-74.7238 53.1454,-74.8818 61.5255,-81.3646 63.7391,-74.7238"/>
</g>
<!-- Node2 -->
<g id="node3" class="node">
<title>Node2</title>
<polygon fill="none" stroke="#bfbfbf" points="71.5,-56.5 71.5,-75.5 137.5,-75.5 137.5,-56.5 71.5,-56.5"/>
<text text-anchor="middle" x="104.5" y="-63.5" font-family="Helvetica,sans-Serif" font-size="10.00" fill="#000000">sys/shm.h</text>
</g>
<!-- Node0&#45;&gt;Node2 -->
<g id="edge2" class="edge">
<title>Node0&#45;&gt;Node2</title>
<path fill="none" stroke="#191970" d="M189.5923,-112.3511C170.653,-102.0346 148.1954,-89.8015 131.1081,-80.4939"/>
<polygon fill="#191970" stroke="#191970" points="132.6801,-77.3646 122.2242,-75.6546 129.3316,-83.5118 132.6801,-77.3646"/>
</g>
<!-- Node3 -->
<g id="node4" class="node">
<title>Node3</title>
<polygon fill="none" stroke="#bfbfbf" points="155.5,-56.5 155.5,-75.5 219.5,-75.5 219.5,-56.5 155.5,-56.5"/>
<text text-anchor="middle" x="187.5" y="-63.5" font-family="Helvetica,sans-Serif" font-size="10.00" fill="#000000">sys/stat.h</text>
</g>
<!-- Node0&#45;&gt;Node3 -->
<g id="edge3" class="edge">
<title>Node0&#45;&gt;Node3</title>
<path fill="none" stroke="#191970" d="M215.063,-112.168C209.7976,-103.3484 203.7119,-93.155 198.6005,-84.5933"/>
<polygon fill="#191970" stroke="#191970" points="201.4704,-82.5725 193.3391,-75.7805 195.4601,-86.1609 201.4704,-82.5725"/>
</g>
<!-- Node4 -->
<g id="node5" class="node">
<title>Node4</title>
<polygon fill="none" stroke="#bfbfbf" points="238,-56.5 238,-75.5 297,-75.5 297,-56.5 238,-56.5"/>
<text text-anchor="middle" x="267.5" y="-63.5" font-family="Helvetica,sans-Serif" font-size="10.00" fill="#000000">sys/ipc.h</text>
</g>
<!-- Node0&#45;&gt;Node4 -->
<g id="edge4" class="edge">
<title>Node0&#45;&gt;Node4</title>
<path fill="none" stroke="#191970" d="M239.937,-112.168C245.2024,-103.3484 251.2881,-93.155 256.3995,-84.5933"/>
<polygon fill="#191970" stroke="#191970" points="259.5399,-86.1609 261.6609,-75.7805 253.5296,-82.5725 259.5399,-86.1609"/>
</g>
<!-- Node5 -->
<g id="node6" class="node">
<title>Node5</title>
<g id="a_node6"><a xlink:href="err__exit_8h.html" target="_top" xlink:title="Contiene la definizione della funzione di stampa degli errori. ">
<polygon fill="none" stroke="#000000" points="315,-56.5 315,-75.5 378,-75.5 378,-56.5 315,-56.5"/>
<text text-anchor="middle" x="346.5" y="-63.5" font-family="Helvetica,sans-Serif" font-size="10.00" fill="#000000">err_exit.h</text>
</a>
</g>
</g>
<!-- Node0&#45;&gt;Node5 -->
<g id="edge5" class="edge">
<title>Node0&#45;&gt;Node5</title>
<path fill="none" stroke="#191970" d="M264.1749,-112.3511C282.3286,-102.1301 303.8236,-90.0279 320.2966,-80.7532"/>
<polygon fill="#191970" stroke="#191970" points="322.3555,-83.6106 329.3522,-75.6546 318.9213,-77.5109 322.3555,-83.6106"/>
</g>
<!-- Node6 -->
<g id="node7" class="node">
<title>Node6</title>
<g id="a_node7"><a xlink:href="shared__memory_8h.html" target="_top" xlink:title="Contiene la definizioni di variabili e funzioni specifiche per la gestione della MEMORIA CONDIVISA...">
<polygon fill="none" stroke="#000000" points="396.5,-56.5 396.5,-75.5 500.5,-75.5 500.5,-56.5 396.5,-56.5"/>
<text text-anchor="middle" x="448.5" y="-63.5" font-family="Helvetica,sans-Serif" font-size="10.00" fill="#000000">shared_memory.h</text>
</a>
</g>
</g>
<!-- Node0&#45;&gt;Node6 -->
<g id="edge6" class="edge">
<title>Node0&#45;&gt;Node6</title>
<path fill="none" stroke="#191970" d="M295.3092,-112.4425C331.9466,-101.3352 375.9829,-87.9848 407.4199,-78.4542"/>
<polygon fill="#191970" stroke="#191970" points="408.6042,-81.7525 417.1586,-75.5017 406.5733,-75.0536 408.6042,-81.7525"/>
</g>
<!-- Node7 -->
<g id="node8" class="node">
<title>Node7</title>
<polygon fill="none" stroke="#bfbfbf" points="412.5,-.5 412.5,-19.5 484.5,-19.5 484.5,-.5 412.5,-.5"/>
<text text-anchor="middle" x="448.5" y="-7.5" font-family="Helvetica,sans-Serif" font-size="10.00" fill="#000000">sys/types.h</text>
</g>
<!-- Node6&#45;&gt;Node7 -->
<g id="edge7" class="edge">
<title>Node6&#45;&gt;Node7</title>
<path fill="none" stroke="#191970" d="M448.5,-56.2455C448.5,-48.9382 448.5,-38.6944 448.5,-29.7046"/>
<polygon fill="#191970" stroke="#191970" points="452.0001,-29.6426 448.5,-19.6427 445.0001,-29.6427 452.0001,-29.6426"/>
</g>
</g>
</svg>
