<?xml version="1.0" encoding="UTF-8" standalone="no"?>
<!DOCTYPE svg PUBLIC "-//W3C//DTD SVG 1.1//EN"
 "http://www.w3.org/Graphics/SVG/1.1/DTD/svg11.dtd">
<!-- Generated by graphviz version 2.40.1 (20161225.0304)
 -->
<!-- Title: block_all_signals Pages: 1 -->
<svg width="339pt" height="28pt"
 viewBox="0.00 0.00 339.00 28.00" xmlns="http://www.w3.org/2000/svg" xmlns:xlink="http://www.w3.org/1999/xlink">
<g id="graph0" class="graph" transform="scale(1 1) rotate(0) translate(4 24)">
<title>block_all_signals</title>
<!-- Node1 -->
<g id="node1" class="node">
<title>Node1</title>
<polygon fill="#bfbfbf" stroke="#000000" points="0,-.5 0,-19.5 100,-19.5 100,-.5 0,-.5"/>
<text text-anchor="middle" x="50" y="-7.5" font-family="Helvetica,sans-Serif" font-size="10.00" fill="#000000">block_all_signals</text>
</g>
<!-- Node2 -->
<g id="node2" class="node">
<title>Node2</title>
<g id="a_node2"><a xlink:href="client_8h.html#a48d605ff689f470746c858648f0a98c2" target="_top" xlink:title="Handler del segnale SIGINT. ">
<polygon fill="none" stroke="#000000" points="136,-.5 136,-19.5 254,-19.5 254,-.5 136,-.5"/>
<text text-anchor="middle" x="195" y="-7.5" font-family="Helvetica,sans-Serif" font-size="10.00" fill="#000000">SIGINTSignalHandler</text>
</a>
</g>
</g>
<!-- Node1&#45;&gt;Node2 -->
<g id="edge1" class="edge">
<title>Node1&#45;&gt;Node2</title>
<path fill="none" stroke="#191970" d="M110.411,-10C118.8108,-10 127.4334,-10 135.8105,-10"/>
<polygon fill="#191970" stroke="#191970" points="110.3071,-6.5001 100.307,-10 110.307,-13.5001 110.3071,-6.5001"/>
</g>
<!-- Node3 -->
<g id="node3" class="node">
<title>Node3</title>
<g id="a_node3"><a xlink:href="client_8h.html#a0ddf1224851353fc92bfbff6f499fa97" target="_top" xlink:title="main">
<polygon fill="none" stroke="#000000" points="290,-.5 290,-19.5 331,-19.5 331,-.5 290,-.5"/>
<text text-anchor="middle" x="310.5" y="-7.5" font-family="Helvetica,sans-Serif" font-size="10.00" fill="#000000">main</text>
</a>
</g>
</g>
<!-- Node2&#45;&gt;Node3 -->
<g id="edge2" class="edge">
<title>Node2&#45;&gt;Node3</title>
<path fill="none" stroke="#191970" d="M264.2973,-10C273.5856,-10 282.4584,-10 289.9009,-10"/>
<polygon fill="#191970" stroke="#191970" points="264.1034,-6.5001 254.1034,-10 264.1034,-13.5001 264.1034,-6.5001"/>
</g>
</g>
</svg>
