<?xml version="1.0" encoding="UTF-8" standalone="no"?>
<!DOCTYPE svg PUBLIC "-//W3C//DTD SVG 1.1//EN"
 "http://www.w3.org/Graphics/SVG/1.1/DTD/svg11.dtd">
<!-- Generated by graphviz version 2.40.1 (20161225.0304)
 -->
<!-- Title: /mnt/c/Users/stefa/Desktop/progetti/system_call/src/signals.h Pages: 1 -->
<svg width="306pt" height="128pt"
 viewBox="0.00 0.00 306.00 128.00" xmlns="http://www.w3.org/2000/svg" xmlns:xlink="http://www.w3.org/1999/xlink">
<g id="graph0" class="graph" transform="scale(1 1) rotate(0) translate(4 124)">
<title>/mnt/c/Users/stefa/Desktop/progetti/system_call/src/signals.h</title>
<!-- Node1 -->
<g id="node1" class="node">
<title>Node1</title>
<polygon fill="#bfbfbf" stroke="#000000" points="79,-78.5 79,-119.5 219,-119.5 219,-78.5 79,-78.5"/>
<text text-anchor="start" x="87" y="-107.5" font-family="Helvetica,sans-Serif" font-size="10.00" fill="#000000">/mnt/c/Users/stefa</text>
<text text-anchor="start" x="87" y="-96.5" font-family="Helvetica,sans-Serif" font-size="10.00" fill="#000000">/Desktop/progetti/system</text>
<text text-anchor="middle" x="149" y="-85.5" font-family="Helvetica,sans-Serif" font-size="10.00" fill="#000000">_call/src/signals.h</text>
</g>
<!-- Node2 -->
<g id="node2" class="node">
<title>Node2</title>
<g id="a_node2"><a xlink:href="client_8c.html" target="_top" xlink:title="Contiene l&#39;implementazione del client. ">
<polygon fill="none" stroke="#000000" points="0,-.5 0,-41.5 140,-41.5 140,-.5 0,-.5"/>
<text text-anchor="start" x="8" y="-29.5" font-family="Helvetica,sans-Serif" font-size="10.00" fill="#000000">/mnt/c/Users/stefa</text>
<text text-anchor="start" x="8" y="-18.5" font-family="Helvetica,sans-Serif" font-size="10.00" fill="#000000">/Desktop/progetti/system</text>
<text text-anchor="middle" x="70" y="-7.5" font-family="Helvetica,sans-Serif" font-size="10.00" fill="#000000">_call/src/client.c</text>
</a>
</g>
</g>
<!-- Node1&#45;&gt;Node2 -->
<g id="edge1" class="edge">
<title>Node1&#45;&gt;Node2</title>
<path fill="none" stroke="#191970" d="M120.5855,-70.9452C110.8031,-61.2866 100.0337,-50.6535 90.9551,-41.6898"/>
<polygon fill="#191970" stroke="#191970" points="118.2544,-73.5621 127.8294,-78.0974 123.1725,-68.5809 118.2544,-73.5621"/>
</g>
<!-- Node3 -->
<g id="node3" class="node">
<title>Node3</title>
<g id="a_node3"><a xlink:href="signals_8c.html" target="_top" xlink:title="Contiene le funzioni specifiche per la gestione dei SEGNALI. ">
<polygon fill="none" stroke="#000000" points="158,-.5 158,-41.5 298,-41.5 298,-.5 158,-.5"/>
<text text-anchor="start" x="166" y="-29.5" font-family="Helvetica,sans-Serif" font-size="10.00" fill="#000000">/mnt/c/Users/stefa</text>
<text text-anchor="start" x="166" y="-18.5" font-family="Helvetica,sans-Serif" font-size="10.00" fill="#000000">/Desktop/progetti/system</text>
<text text-anchor="middle" x="228" y="-7.5" font-family="Helvetica,sans-Serif" font-size="10.00" fill="#000000">_call/src/signals.c</text>
</a>
</g>
</g>
<!-- Node1&#45;&gt;Node3 -->
<g id="edge2" class="edge">
<title>Node1&#45;&gt;Node3</title>
<path fill="none" stroke="#191970" d="M177.4145,-70.9452C187.1969,-61.2866 197.9663,-50.6535 207.0449,-41.6898"/>
<polygon fill="#191970" stroke="#191970" points="174.8275,-68.5809 170.1706,-78.0974 179.7456,-73.5621 174.8275,-68.5809"/>
</g>
</g>
</svg>
