<?xml version="1.0" encoding="UTF-8" standalone="no"?>
<!DOCTYPE svg PUBLIC "-//W3C//DTD SVG 1.1//EN"
 "http://www.w3.org/Graphics/SVG/1.1/DTD/svg11.dtd">
<!-- Generated by graphviz version 2.40.1 (20161225.0304)
 -->
<!-- Title: /mnt/c/Users/stefa/Desktop/new/system_call/src/signals.c Pages: 1 -->
<svg width="142pt" height="106pt"
 viewBox="0.00 0.00 141.50 106.00" xmlns="http://www.w3.org/2000/svg" xmlns:xlink="http://www.w3.org/1999/xlink">
<g id="graph0" class="graph" transform="scale(1 1) rotate(0) translate(4 102)">
<title>/mnt/c/Users/stefa/Desktop/new/system_call/src/signals.c</title>
<!-- Node0 -->
<g id="node1" class="node">
<title>Node0</title>
<polygon fill="#bfbfbf" stroke="#000000" points="4.5,-56.5 4.5,-97.5 126.5,-97.5 126.5,-56.5 4.5,-56.5"/>
<text text-anchor="start" x="12.5" y="-85.5" font-family="Helvetica,sans-Serif" font-size="10.00" fill="#000000">/mnt/c/Users/stefa</text>
<text text-anchor="start" x="12.5" y="-74.5" font-family="Helvetica,sans-Serif" font-size="10.00" fill="#000000">/Desktop/new/system</text>
<text text-anchor="middle" x="65.5" y="-63.5" font-family="Helvetica,sans-Serif" font-size="10.00" fill="#000000">_call/src/signals.c</text>
</g>
<!-- Node1 -->
<g id="node2" class="node">
<title>Node1</title>
<polygon fill="none" stroke="#bfbfbf" points="0,-.5 0,-19.5 55,-19.5 55,-.5 0,-.5"/>
<text text-anchor="middle" x="27.5" y="-7.5" font-family="Helvetica,sans-Serif" font-size="10.00" fill="#000000">signal.h</text>
</g>
<!-- Node0&#45;&gt;Node1 -->
<g id="edge1" class="edge">
<title>Node0&#45;&gt;Node1</title>
<path fill="none" stroke="#191970" d="M53.6849,-56.168C48.6827,-47.3484 42.9013,-37.155 38.0455,-28.5933"/>
<polygon fill="#191970" stroke="#191970" points="41.025,-26.7521 33.0471,-19.7805 34.9362,-30.2056 41.025,-26.7521"/>
</g>
<!-- Node2 -->
<g id="node3" class="node">
<title>Node2</title>
<g id="a_node3"><a xlink:href="signals_8h.html" target="_top" xlink:title="Contiene la definizioni di variabili e funzioni specifiche per la gestione dei SEGNALI. ">
<polygon fill="none" stroke="#000000" points="73.5,-.5 73.5,-19.5 133.5,-19.5 133.5,-.5 73.5,-.5"/>
<text text-anchor="middle" x="103.5" y="-7.5" font-family="Helvetica,sans-Serif" font-size="10.00" fill="#000000">signals.h</text>
</a>
</g>
</g>
<!-- Node0&#45;&gt;Node2 -->
<g id="edge2" class="edge">
<title>Node0&#45;&gt;Node2</title>
<path fill="none" stroke="#191970" d="M77.3151,-56.168C82.3173,-47.3484 88.0987,-37.155 92.9545,-28.5933"/>
<polygon fill="#191970" stroke="#191970" points="96.0638,-30.2056 97.9529,-19.7805 89.975,-26.7521 96.0638,-30.2056"/>
</g>
</g>
</svg>
