<?xml version="1.0" encoding="UTF-8" standalone="no"?>
<!DOCTYPE svg PUBLIC "-//W3C//DTD SVG 1.1//EN"
 "http://www.w3.org/Graphics/SVG/1.1/DTD/svg11.dtd">
<!-- Generated by graphviz version 2.40.1 (20161225.0304)
 -->
<!-- Title: /mnt/c/Users/stefa/Desktop/progetti/system_call/src/strings.c Pages: 1 -->
<svg width="242pt" height="162pt"
 viewBox="0.00 0.00 241.75 162.00" xmlns="http://www.w3.org/2000/svg" xmlns:xlink="http://www.w3.org/1999/xlink">
<g id="graph0" class="graph" transform="scale(1 1) rotate(0) translate(4 158)">
<title>/mnt/c/Users/stefa/Desktop/progetti/system_call/src/strings.c</title>
<!-- Node0 -->
<g id="node1" class="node">
<title>Node0</title>
<polygon fill="#bfbfbf" stroke="#000000" points="19.2498,-112.5 19.2498,-153.5 159.2498,-153.5 159.2498,-112.5 19.2498,-112.5"/>
<text text-anchor="start" x="27.2498" y="-141.5" font-family="Helvetica,sans-Serif" font-size="10.00" fill="#000000">/mnt/c/Users/stefa</text>
<text text-anchor="start" x="27.2498" y="-130.5" font-family="Helvetica,sans-Serif" font-size="10.00" fill="#000000">/Desktop/progetti/system</text>
<text text-anchor="middle" x="89.2498" y="-119.5" font-family="Helvetica,sans-Serif" font-size="10.00" fill="#000000">_call/src/strings.c</text>
</g>
<!-- Node1 -->
<g id="node2" class="node">
<title>Node1</title>
<polygon fill="none" stroke="#bfbfbf" points="63.2498,-.5 63.2498,-19.5 125.2498,-19.5 125.2498,-.5 63.2498,-.5"/>
<text text-anchor="middle" x="94.2498" y="-7.5" font-family="Helvetica,sans-Serif" font-size="10.00" fill="#000000">stdbool.h</text>
</g>
<!-- Node0&#45;&gt;Node1 -->
<g id="edge1" class="edge">
<title>Node0&#45;&gt;Node1</title>
<path fill="none" stroke="#191970" d="M39.6657,-112.3985C13.9095,-98.4896 -9.573,-78.5887 4.2498,-56 15.0415,-38.3646 34.9642,-27.2184 53.3268,-20.3238"/>
<polygon fill="#191970" stroke="#191970" points="54.688,-23.5572 63.0141,-17.0054 52.4195,-16.935 54.688,-23.5572"/>
</g>
<!-- Node2 -->
<g id="node3" class="node">
<title>Node2</title>
<polygon fill="none" stroke="#bfbfbf" points="13.2498,-56.5 13.2498,-75.5 85.2498,-75.5 85.2498,-56.5 13.2498,-56.5"/>
<text text-anchor="middle" x="49.2498" y="-63.5" font-family="Helvetica,sans-Serif" font-size="10.00" fill="#000000">sys/types.h</text>
</g>
<!-- Node0&#45;&gt;Node2 -->
<g id="edge2" class="edge">
<title>Node0&#45;&gt;Node2</title>
<path fill="none" stroke="#191970" d="M76.8128,-112.168C71.5473,-103.3484 65.4617,-93.155 60.3503,-84.5933"/>
<polygon fill="#191970" stroke="#191970" points="63.2202,-82.5725 55.0889,-75.7805 57.2098,-86.1609 63.2202,-82.5725"/>
</g>
<!-- Node3 -->
<g id="node4" class="node">
<title>Node3</title>
<polygon fill="none" stroke="#bfbfbf" points="103.7498,-56.5 103.7498,-75.5 156.7498,-75.5 156.7498,-56.5 103.7498,-56.5"/>
<text text-anchor="middle" x="130.2498" y="-63.5" font-family="Helvetica,sans-Serif" font-size="10.00" fill="#000000">string.h</text>
</g>
<!-- Node0&#45;&gt;Node3 -->
<g id="edge3" class="edge">
<title>Node0&#45;&gt;Node3</title>
<path fill="none" stroke="#191970" d="M101.9977,-112.168C107.4528,-103.2536 113.7668,-92.9356 119.0405,-84.3177"/>
<polygon fill="#191970" stroke="#191970" points="122.0304,-86.137 124.2647,-75.7805 116.0596,-82.4833 122.0304,-86.137"/>
</g>
<!-- Node4 -->
<g id="node5" class="node">
<title>Node4</title>
<g id="a_node5"><a xlink:href="strings_8h.html" target="_top" xlink:title="Contiene la definizioni di variabili e funzioni specifiche per la gestione delle STRINGHE. ">
<polygon fill="none" stroke="#000000" points="174.7498,-56.5 174.7498,-75.5 233.7498,-75.5 233.7498,-56.5 174.7498,-56.5"/>
<text text-anchor="middle" x="204.2498" y="-63.5" font-family="Helvetica,sans-Serif" font-size="10.00" fill="#000000">strings.h</text>
</a>
</g>
</g>
<!-- Node0&#45;&gt;Node4 -->
<g id="edge4" class="edge">
<title>Node0&#45;&gt;Node4</title>
<path fill="none" stroke="#191970" d="M124.6919,-112.3511C142.2354,-102.1301 163.0078,-90.0279 178.9272,-80.7532"/>
<polygon fill="#191970" stroke="#191970" points="180.7998,-83.7129 187.6784,-75.6546 177.2759,-77.6645 180.7998,-83.7129"/>
</g>
<!-- Node4&#45;&gt;Node1 -->
<g id="edge5" class="edge">
<title>Node4&#45;&gt;Node1</title>
<path fill="none" stroke="#191970" d="M185.0892,-56.2455C167.7387,-47.4125 141.9597,-34.2887 122.2915,-24.2758"/>
<polygon fill="#191970" stroke="#191970" points="123.6903,-21.0605 113.1908,-19.6427 120.5145,-27.2986 123.6903,-21.0605"/>
</g>
</g>
</svg>
