<?xml version="1.0" encoding="UTF-8" standalone="no"?>
<!DOCTYPE svg PUBLIC "-//W3C//DTD SVG 1.1//EN"
 "http://www.w3.org/Graphics/SVG/1.1/DTD/svg11.dtd">
<!-- Generated by graphviz version 2.40.1 (20161225.0304)
 -->
<!-- Title: StartsWith Pages: 1 -->
<svg width="343pt" height="46pt"
 viewBox="0.00 0.00 343.00 46.00" xmlns="http://www.w3.org/2000/svg" xmlns:xlink="http://www.w3.org/1999/xlink">
<g id="graph0" class="graph" transform="scale(1 1) rotate(0) translate(4 42)">
<title>StartsWith</title>
<!-- Node4 -->
<g id="node1" class="node">
<title>Node4</title>
<polygon fill="#bfbfbf" stroke="#000000" points="0,-.5 0,-19.5 68,-19.5 68,-.5 0,-.5"/>
<text text-anchor="middle" x="34" y="-7.5" font-family="Helvetica,sans-Serif" font-size="10.00" fill="#000000">StartsWith</text>
</g>
<!-- Node5 -->
<g id="node2" class="node">
<title>Node5</title>
<g id="a_node2"><a xlink:href="files_8h.html#a675d61c6bfe0d9ddd1be59233dfd7d5c" target="_top" xlink:title="Restituisce 1 se il percorso inizia con &quot;sendme_&quot;, 0 altrimenti. ">
<polygon fill="none" stroke="#000000" points="104,-.5 104,-19.5 195,-19.5 195,-.5 104,-.5"/>
<text text-anchor="middle" x="149.5" y="-7.5" font-family="Helvetica,sans-Serif" font-size="10.00" fill="#000000">checkFileName</text>
</a>
</g>
</g>
<!-- Node4&#45;&gt;Node5 -->
<g id="edge1" class="edge">
<title>Node4&#45;&gt;Node5</title>
<path fill="none" stroke="#191970" d="M78.0315,-10C86.4416,-10 95.2637,-10 103.7269,-10"/>
<polygon fill="#191970" stroke="#191970" points="78.0291,-6.5001 68.0291,-10 78.0291,-13.5001 78.0291,-6.5001"/>
</g>
<!-- Node6 -->
<g id="node3" class="node">
<title>Node6</title>
<g id="a_node3"><a xlink:href="files_8h.html#a627e4b202ea71f3bd241ccf562449bd6" target="_top" xlink:title="find_sendme_files">
<polygon fill="none" stroke="#000000" points="231,-.5 231,-19.5 335,-19.5 335,-.5 231,-.5"/>
<text text-anchor="middle" x="283" y="-7.5" font-family="Helvetica,sans-Serif" font-size="10.00" fill="#000000">find_sendme_files</text>
</a>
</g>
</g>
<!-- Node5&#45;&gt;Node6 -->
<g id="edge2" class="edge">
<title>Node5&#45;&gt;Node6</title>
<path fill="none" stroke="#191970" d="M205.2222,-10C213.675,-10 222.3705,-10 230.7461,-10"/>
<polygon fill="#191970" stroke="#191970" points="205.0698,-6.5001 195.0697,-10 205.0697,-13.5001 205.0698,-6.5001"/>
</g>
<!-- Node6&#45;&gt;Node6 -->
<g id="edge3" class="edge">
<title>Node6&#45;&gt;Node6</title>
<path fill="none" stroke="#191970" d="M258.4465,-29.0292C259.7858,-34.128 267.9703,-38 283,-38 306.4609,-38 313.2426,-28.5653 303.345,-19.7571"/>
<polygon fill="#191970" stroke="#191970" points="261.709,-30.3096 262.655,-19.7571 255.3348,-27.4164 261.709,-30.3096"/>
</g>
</g>
</svg>
